<svg width="120" height="120" viewBox="0 0 120 120" fill="none" xmlns="http://www.w3.org/2000/svg">
<path d="M21.5391 0.5625C20.1328 1.52344 19.9219 2.27344 19.9219 6.30469V9.84375H16.2422C11.8594 9.84375 9.9844 10.1953 7.50003 11.3906C5.17972 12.5391 2.50784 15.1641 1.42972 17.3438C-0.0702843 20.4375 2.83002e-05 18.4219 2.83002e-05 52.5469V83.6484L0.585966 85.5C2.06253 90.1406 6.09378 93.7969 10.8985 94.8047C12.2344 95.0859 15.3047 95.1562 27.9141 95.1562H43.2891L44.2969 94.6172C45.4688 94.0078 46.4063 92.5078 46.4063 91.3125C46.4063 90.3281 45.5157 88.6172 44.6953 88.0312C44.0391 87.5391 43.711 87.5391 28.1719 87.4219C10.5469 87.2812 11.5547 87.375 9.65628 85.6875C9.14065 85.2188 8.4844 84.2812 8.17972 83.6016L7.61722 82.3828L7.5469 59.9297L7.47659 37.5H49.9219H92.3438V40.9688C92.3438 44.1094 92.3907 44.5312 92.8828 45.4688C93.6094 46.8984 94.4063 47.4141 96.0235 47.5312C97.1719 47.6016 97.5235 47.5312 98.2032 47.0625C98.6485 46.7578 99.2578 46.1484 99.5391 45.7266L100.078 44.9297V33.4922C100.078 26.1562 99.9844 21.6094 99.8203 20.8125C99.6797 20.1328 99.1407 18.7031 98.625 17.625C97.0547 14.2969 94.1719 11.8125 90.4688 10.5234C89.1563 10.0781 88.3125 9.98438 84.5625 9.89062L80.1797 9.79688L80.1094 6.09375C80.0391 1.96875 79.9219 1.64062 78.2813 0.515625C77.1797 -0.234375 75.1875 -0.210938 74.0391 0.5625C72.6328 1.52344 72.4219 2.27344 72.4219 6.30469V9.84375H50.0625H27.6797L27.6094 6.11719C27.5391 1.96875 27.4219 1.64062 25.7813 0.515625C24.6797 -0.234375 22.6875 -0.210938 21.5391 0.5625ZM19.9688 21.4219C20.0391 24.8672 20.086 25.3594 20.5313 25.9453C21.1172 26.7656 22.8282 27.6562 23.8125 27.6562C25.0078 27.6562 26.5078 26.7188 27.1172 25.5469C27.6094 24.6328 27.6563 24.2344 27.6563 21.0469V17.5781H50.0157H72.3985L72.4688 21.4219C72.5391 24.8672 72.586 25.3594 73.0313 25.9453C73.6172 26.7656 75.3282 27.6562 76.3125 27.6562C77.5078 27.6562 79.0078 26.7188 79.6172 25.5469C80.1094 24.6328 80.1563 24.2344 80.1563 21.0469V17.5312L83.9766 17.625C87.5625 17.6953 87.8438 17.7422 88.9688 18.3281C89.6485 18.6797 90.5157 19.3594 90.9141 19.8516C92.1094 21.3047 92.3438 22.3828 92.3438 26.4141V30H49.8985H7.42972L7.57034 26.2969C7.64065 24.2812 7.82815 22.1953 7.99222 21.6797C8.17972 21.1406 8.81253 20.2266 9.51565 19.5234C11.1563 17.8828 12.0938 17.625 16.4532 17.6016L19.8985 17.5781L19.9688 21.4219Z" fill="#3E45EB"/>
<path d="M83.7188 55.0781C69.3985 56.8828 58.1016 67.5 55.3828 81.6797C54.7735 84.8438 54.8438 90.7734 55.5 93.9141C56.9532 100.734 59.9766 106.195 64.9922 111.023C69.6797 115.57 75.75 118.617 82.0782 119.648C84.9141 120.094 90.2813 120.094 92.9532 119.648C106.594 117.305 117.305 106.594 119.648 92.9531C120.094 90.2812 120.094 84.9141 119.648 82.0781C118.617 75.75 115.57 69.6797 111.023 64.9922C106.172 59.9766 100.617 56.9062 93.9375 55.5469C91.1953 54.9844 86.2735 54.7734 83.7188 55.0781ZM92.461 63.1406C102.258 65.2031 109.852 72.8906 111.891 82.7812C112.383 85.125 112.383 89.6016 111.891 92.1094C108.914 107.906 91.6875 116.789 77.2032 110.039C74.4844 108.773 72.4922 107.438 70.4532 105.492C60.211 95.7422 60.0469 79.7109 70.0782 69.8438C73.8985 66.0938 78.7266 63.7031 84.2578 62.8125C86.086 62.5312 90.3985 62.6953 92.461 63.1406Z" fill="#FF9131"/>
<path d="M96.6329 75.5155C96.2344 75.8202 93.0235 79.3827 89.5313 83.4374C86.0157 87.4921 82.9454 91.0311 82.711 91.289C82.2657 91.7343 82.2422 91.7108 79.1485 88.664C75.2344 84.7499 74.2501 84.2811 72.0235 85.3124C70.3594 86.0624 69.5157 87.9843 70.0782 89.8358C70.3126 90.6327 71.2501 91.7108 75.1876 95.6952C77.8594 98.3905 80.3204 100.734 80.6719 100.922C81.4454 101.32 83.4376 101.344 84.2813 100.969C85.1485 100.57 102.117 80.953 102.445 79.9686C102.867 78.6561 102.516 77.1796 101.484 76.1015C100.641 75.1874 100.523 75.1405 99.0001 75.0468C97.5938 74.9765 97.2891 75.0468 96.6329 75.5155Z" fill="#FF9131"/>
</svg>
