<svg width="12" height="13" viewBox="0 0 12 13" fill="none" xmlns="http://www.w3.org/2000/svg">
<g clip-path="url(#clip0_832_5190)">
<path fill-rule="evenodd" clip-rule="evenodd" d="M6 1.83301C3.51472 1.83301 1.5 3.84773 1.5 6.33301C1.5 8.81829 3.51472 10.833 6 10.833C8.48528 10.833 10.5 8.81829 10.5 6.33301C10.5 3.84773 8.48528 1.83301 6 1.83301ZM0.5 6.33301C0.5 3.29544 2.96243 0.833008 6 0.833008C9.03757 0.833008 11.5 3.29544 11.5 6.33301C11.5 9.37057 9.03757 11.833 6 11.833C2.96243 11.833 0.5 9.37057 0.5 6.33301Z" fill="#FA1414"/>
<path fill-rule="evenodd" clip-rule="evenodd" d="M7.85355 4.47945C8.04882 4.67472 8.04882 4.9913 7.85355 5.18656L4.85355 8.18656C4.65829 8.38182 4.34171 8.38182 4.14645 8.18656C3.95118 7.9913 3.95118 7.67472 4.14645 7.47945L7.14645 4.47945C7.34171 4.28419 7.65829 4.28419 7.85355 4.47945Z" fill="#FA1414"/>
<path fill-rule="evenodd" clip-rule="evenodd" d="M4.14645 4.47945C4.34171 4.28419 4.65829 4.28419 4.85355 4.47945L7.85355 7.47945C8.04882 7.67472 8.04882 7.9913 7.85355 8.18656C7.65829 8.38182 7.34171 8.38182 7.14645 8.18656L4.14645 5.18656C3.95118 4.9913 3.95118 4.67472 4.14645 4.47945Z" fill="#FA1414"/>
</g>
<defs>
<clipPath id="clip0_832_5190">
<rect width="12" height="12" fill="white" transform="translate(0 0.333008)"/>
</clipPath>
</defs>
</svg>
