<svg width="20" height="21" viewBox="0 0 20 21" fill="none" xmlns="http://www.w3.org/2000/svg">
<rect y="0.333008" width="20" height="20" rx="10" fill="#FA1414"/>
<path d="M10.0003 9.75C9.84562 9.75 9.69725 9.81146 9.58785 9.92085C9.47845 10.0303 9.41699 10.1786 9.41699 10.3333V12.6667C9.41699 12.8214 9.47845 12.9697 9.58785 13.0791C9.69725 13.1885 9.84562 13.25 10.0003 13.25C10.155 13.25 10.3034 13.1885 10.4128 13.0791C10.5222 12.9697 10.5837 12.8214 10.5837 12.6667V10.3333C10.5837 10.1786 10.5222 10.0303 10.4128 9.92085C10.3034 9.81146 10.155 9.75 10.0003 9.75ZM10.222 7.46333C10.08 7.40499 9.92068 7.40499 9.77866 7.46333C9.70706 7.4911 9.64164 7.53273 9.58616 7.58583C9.53464 7.64253 9.4932 7.70764 9.46366 7.77833C9.43101 7.84756 9.41502 7.92348 9.41699 8C9.41655 8.07677 9.43127 8.15287 9.4603 8.22395C9.48932 8.29502 9.5321 8.35966 9.58616 8.41417C9.64286 8.46569 9.70797 8.50713 9.77866 8.53667C9.86704 8.57297 9.96297 8.58702 10.058 8.57757C10.1531 8.56811 10.2444 8.53545 10.3239 8.48246C10.4034 8.42946 10.4687 8.35775 10.514 8.27362C10.5593 8.1895 10.5832 8.09554 10.5837 8C10.5815 7.84555 10.5211 7.69762 10.4145 7.58583C10.359 7.53273 10.2936 7.4911 10.222 7.46333ZM10.0003 4.5C8.8466 4.5 7.71879 4.84212 6.7595 5.48309C5.80021 6.12407 5.05254 7.03511 4.61103 8.10101C4.16952 9.16692 4.054 10.3398 4.27908 11.4714C4.50416 12.6029 5.05973 13.6423 5.87554 14.4581C6.69134 15.2739 7.73075 15.8295 8.8623 16.0546C9.99386 16.2797 11.1667 16.1641 12.2326 15.7226C13.2986 15.2811 14.2096 14.5334 14.8506 13.5742C15.4915 12.6149 15.8337 11.4871 15.8337 10.3333C15.8337 9.56729 15.6828 8.80875 15.3896 8.10101C15.0965 7.39328 14.6668 6.75022 14.1251 6.20854C13.5834 5.66687 12.9404 5.23719 12.2326 4.94404C11.5249 4.65088 10.7664 4.5 10.0003 4.5ZM10.0003 15C9.07735 15 8.1751 14.7263 7.40767 14.2135C6.64024 13.7007 6.0421 12.9719 5.68889 12.1192C5.33568 11.2665 5.24327 10.3282 5.42333 9.42291C5.60339 8.51767 6.04785 7.68615 6.7005 7.0335C7.35314 6.38086 8.18466 5.9364 9.08991 5.75634C9.99515 5.57627 10.9335 5.66869 11.7862 6.0219C12.6389 6.3751 13.3677 6.97324 13.8805 7.74067C14.3933 8.5081 14.667 9.41035 14.667 10.3333C14.667 11.571 14.1753 12.758 13.3002 13.6332C12.425 14.5083 11.238 15 10.0003 15Z" fill="white"/>
</svg>
