<svg width="114" height="106" viewBox="0 0 114 106" fill="none" xmlns="http://www.w3.org/2000/svg">
<path d="M12 1.10928C6.82031 2.21084 2.4375 6.64053 1.33594 11.8671C0.820312 14.3046 0.820312 77.8437 1.33594 80.2812C2.53125 85.9062 7.24219 90.3124 13.0781 91.203C14.1562 91.3671 22.8516 91.4374 39.5391 91.3905C63.0469 91.3202 64.4297 91.2968 65.0391 90.8983C66.6797 89.8202 67.1719 87.2187 66 85.8358C65.6719 85.414 65.1562 84.9687 64.875 84.8046C64.5 84.5937 58.4062 84.4999 38.8359 84.4062L13.2891 84.289L12.0938 83.6562C10.4766 82.789 8.8125 80.914 8.36719 79.414C8.0625 78.3827 8.01562 75.0077 8.01562 54.828V31.4374H53.3672H98.7188V45.0077V58.5546L99.2578 59.3515C100.641 61.4374 103.594 61.4374 105 59.3515L105.516 58.5312L105.469 35.0937L105.398 11.6327L104.836 10.1327C104.062 8.04678 102.211 5.37491 100.641 4.08584C98.9531 2.72647 96.4922 1.53116 94.3828 1.08584C91.9922 0.593657 14.3438 0.593657 12 1.10928ZM94.6406 8.51553C95.8594 9.17178 97.2656 10.5312 97.875 11.6796C98.4844 12.8983 98.7188 15.078 98.7188 19.8827V24.6405H53.3672H8.01562V19.1327C8.01562 14.1405 8.0625 13.5312 8.50781 12.3358C9.14062 10.6483 10.8516 8.91397 12.5156 8.25772C13.7578 7.78897 14.0156 7.78897 53.6016 7.83584L93.4453 7.88272L94.6406 8.51553Z" fill="#3E45EB"/>
<path d="M18.1172 13.3206C16.9219 13.93 16.4062 14.7737 16.4062 16.0628C16.4062 17.3284 16.8516 18.1487 17.9297 18.7815C20.6719 20.469 23.7891 17.1644 22.0781 14.3987C21.2812 13.0862 19.5 12.594 18.1172 13.3206Z" fill="#FF9131"/>
<path d="M28.875 13.2267C26.5547 14.047 26.3672 17.7267 28.6172 18.8986C30.0234 19.6251 31.8515 19.1095 32.7422 17.7501C33.2343 17.0001 33.2343 15.172 32.7656 14.4454C31.9453 13.2032 30.3515 12.6876 28.875 13.2267Z" fill="#FF9131"/>
<path d="M39.539 13.2502C38.414 13.7658 37.7344 14.6565 37.6172 15.7815C37.3594 18.3127 39.9609 20.0471 42.2109 18.8283C43.7344 18.008 44.2969 16.0627 43.4062 14.633C42.5625 13.2268 40.875 12.6174 39.539 13.2502Z" fill="#FF9131"/>
<path d="M72.2344 59.422C69.9141 59.9142 68.0625 61.6251 67.3125 63.8986C66.6094 66.008 66.7266 66.5001 72.1172 84.172C74.9297 93.383 77.4141 101.305 77.625 101.75C79.0078 104.445 82.5703 105.828 85.711 104.938C86.7891 104.61 87.3516 104.258 88.4063 103.203L89.7422 101.867L92.1563 94.6017C93.4688 90.5939 94.6641 87.2189 94.8281 87.0783C94.9688 86.9376 98.3672 85.7189 102.352 84.383L109.617 81.9689L110.953 80.6564C112.898 78.7111 113.461 76.4142 112.664 73.6955C112.266 72.3126 110.766 70.5314 109.523 69.8986C108.445 69.3361 75.7031 59.422 74.461 59.258C73.9453 59.1876 72.9375 59.258 72.2344 59.422ZM89.8828 71.0705C98.4141 73.672 105.422 75.8048 105.469 75.8517C105.492 75.8751 102.398 76.9767 98.5547 78.2658C94.7344 79.5783 91.1953 80.9142 90.7031 81.2423C89.086 82.3205 88.5938 83.3283 86.0625 90.758C84.1172 96.4298 83.6016 97.7423 83.4375 97.2736C83.2735 96.758 74.4844 67.7423 74.2031 66.758C74.1328 66.547 74.1328 66.3595 74.2031 66.3595C74.2735 66.3595 81.3281 68.4689 89.8828 71.0705Z" fill="#FF9131"/>
</svg>
