<svg width="112" height="106" viewBox="0 0 112 106" fill="none" xmlns="http://www.w3.org/2000/svg">
<path d="M23.3046 1.08594C15.8515 2.70312 10.039 8.28125 7.90619 15.8516L7.36713 17.7266L7.29682 47.375C7.24994 75.3125 7.27338 77.0703 7.64838 77.8438C8.84369 80.1875 12.289 80.375 13.7421 78.1484C14.1406 77.5391 14.164 75.9219 14.2812 47.8438L14.3984 18.1953L14.9374 16.7422C16.5312 12.5234 19.8359 9.42969 24.2421 8.07031C25.5781 7.67188 27.3124 7.64844 59.6328 7.64844C91.9531 7.64844 93.6874 7.67188 95.0234 8.07031C99.4999 9.45312 102.875 12.6406 104.328 16.8594L104.867 18.4297V53V87.5703L104.328 89.1406C102.875 93.3125 99.6171 96.4297 95.1406 97.9062C93.9218 98.3047 92.2109 98.3516 68.0703 98.4688C47.3749 98.5625 42.1718 98.6562 41.7499 98.8906C40.8593 99.4062 40.2968 100.555 40.2968 101.867C40.2968 103.18 40.789 104.117 41.8437 104.82C42.4999 105.242 43.4374 105.266 68.4218 105.266C89.5624 105.266 94.6015 105.195 95.8437 104.938C103.437 103.32 109.344 97.6484 111.359 90.0312L111.898 88.0391V52.7656V17.4922L111.242 15.4297C108.898 7.90625 103.227 2.63281 95.8437 1.0625C93.664 0.59375 25.4374 0.617188 23.3046 1.08594Z" fill="#3E45EB"/>
<path d="M55.3906 29.4219C49.3672 30.8047 44.3516 34.8125 41.7266 40.3438C40.4141 43.0859 40.0391 44.6797 39.8984 47.9844C39.6406 53.8203 41.3984 58.5078 45.4297 62.6094L47.2109 64.4375L46.1562 64.9297C43.625 66.0781 40.4141 68.75 38.7969 71.0469C38.1875 71.9375 38.0703 72.3125 38.0703 73.5078C38.0703 75.6875 39.2422 76.9062 41.3516 76.9062C42.7812 76.9062 43.625 76.4375 44.4922 75.1719C46.7891 71.8438 51.5 69.5469 57.2891 68.9375C64.2969 68.1641 71.7969 70.8359 74.7734 75.1719C75.6406 76.4375 76.4844 76.9062 77.9141 76.9062C79.8125 76.9062 81.0781 75.7578 81.2656 73.8594C81.3828 72.5 81.0078 71.6328 79.4844 69.8047C78.0781 68.1172 75.7109 66.2422 73.6484 65.1875L72.0547 64.3672L73.4375 63.0781C76.1328 60.5234 78.0781 57.125 78.9922 53.3047C79.4141 51.5703 79.4609 50.7266 79.3906 48.0781C79.2969 45.3125 79.1797 44.6328 78.5234 42.6875C77.4922 39.6172 75.9453 37.1328 73.6719 34.8594C71.3984 32.5859 68.9141 31.0391 65.8438 30.0078C63.8047 29.3281 63.3125 29.2344 60.2188 29.1875C57.9219 29.1172 56.3516 29.2109 55.3906 29.4219ZM63.2656 36.5938C71.2812 38.9375 74.9375 48.2891 70.6484 55.4609C68.3047 59.3516 64.25 61.6953 59.7266 61.7188C56.1641 61.7422 53.1875 60.5 50.6094 57.9219C48.0312 55.3438 46.8359 52.5078 46.8359 48.8984C46.8359 44.4688 48.8984 40.6016 52.5781 38.2109C55.9062 36.0312 59.4453 35.4922 63.2656 36.5938Z" fill="#FF9131"/>
<path d="M29.5156 78.7109C27.1718 79.1562 26.1172 82.2734 27.6172 84.3593C27.9922 84.8749 28.4609 85.3906 28.625 85.5077C28.789 85.6015 23.0703 85.7421 15.6406 85.8124C2.67966 85.9296 2.35153 85.9531 1.71872 86.4218C-0.484403 88.0624 -0.531278 90.8749 1.60153 92.3046L2.39841 92.8437H15.7812H29.1406L28.2968 93.7109C27.8281 94.2031 27.3359 94.8359 27.1953 95.1171C26.7968 95.914 26.8906 97.789 27.3828 98.6093C28.1562 99.8749 30.1953 100.461 31.7656 99.8749C32.4687 99.5937 39.2656 93.0312 40.3203 91.5781C41.0937 90.5234 41.2578 88.8359 40.6718 87.7343C40.4843 87.3827 38.5156 85.2968 36.2656 83.0702C33.0078 79.8593 32.0234 79.0156 31.2734 78.8046C30.7578 78.664 30.289 78.5702 30.2187 78.5702C30.1484 78.5937 29.8437 78.664 29.5156 78.7109Z" fill="#FF9131"/>
</svg>
