<svg width="512" height="512" viewBox="0 0 512 512" fill="none" xmlns="http://www.w3.org/2000/svg">
<path d="M106.5 1.9998C90.9 6.0998 80.3 11.8998 69.3 22.3998C56.3 34.6998 48.2 48.0998 43.8 64.9998L41.5 73.4998V225.5C41.5 350.3 41.7 378.5 42.9 383C47.7 402.5 62.4 418.8 82.3 426.4L86 427.9V464C86 495.3 86.2 500.7 87.6 503.6C90.1 508.8 94.4 511.4 101.5 511.8C106.8 512.1 108 511.8 111.6 509.3C113.9 507.8 137.5 489.4 163.9 468.5L212.1 430.5L283.3 430L354.5 429.5L362.5 426.8C372.4 423.4 381.2 417.7 388.2 410.1C395 402.8 398.1 397.5 401.7 387.4L404.5 379.5L404.8 256.7L405.1 134H431.6C461.3 134 462.8 133.7 467.6 127.4L470.5 123.7V98.0998C470.5 76.3998 470.2 71.3998 468.6 64.9998C460.5 32.5998 435.6 8.2998 403.4 1.4998C397.5 0.299797 375.1 -0.00020294 255 0.0997971C120.6 0.0997971 113.1 0.199797 106.5 1.9998ZM391 32.9998C408.6 34.9998 424.5 46.1998 432.3 62.0998C436.6 70.9998 438 78.0998 438 91.1998V101H324.6H211.2L210.7 84.6998C210.4 73.8998 209.7 66.4998 208.6 62.4998C206.6 55.3998 199.9 40.7998 196.4 36.2998C195.1 34.5998 194 32.8998 194 32.5998C194 31.5998 382.1 31.9998 391 32.9998ZM140.1 34.5998C156.4 39.3998 168.9 50.8998 175.1 66.7998C177.2 71.9998 177.4 74.6998 177.9 96.9998C178.6 125.3 179.2 127.6 187 131.7L191.3 134H281.7H372L371.8 254.2L371.5 374.5L369.2 379.6C366.3 385.9 361 391.2 354.5 394.2L349.5 396.5L275.5 397C216.5 397.4 201 397.8 199.2 398.8C197.9 399.6 179.4 413.9 158.2 430.7L119.5 461.2L119 434.8C118.5 410.8 118.3 408.2 116.5 405.1C113.4 399.9 110.2 398.1 100.7 396.5C86.7 394.1 77.8 386.6 75 375C74.2 371.8 74 327 74.2 223.5C74.5 91.1998 74.7 75.9998 76.2 71.9998C83 52.7998 95.1 40.2998 111.9 34.8998C119.1 32.5998 132.8 32.3998 140.1 34.5998Z" fill="#3E45EB"/>
<path d="M125.3 185C120 190.2 120 197.8 125.2 203.1L128.2 206H227.2C325.4 206 326.2 206 329.1 203.9C335.2 199.6 335.2 188.4 329.1 184.1C326.2 182 325.4 182 227.3 182H128.4L125.3 185Z" fill="#FF9131"/>
<path d="M125.3 252C120 257.2 120 264.8 125.2 270.1L128.2 273H227.2C325.4 273 326.2 273 329.1 270.9C335.2 266.6 335.2 255.4 329.1 251.1C326.2 249 325.4 249 227.3 249H128.4L125.3 252Z" fill="#FF9131"/>
<path d="M125.3 319C120 324.2 120 331.8 125.2 337.1L128.2 340H227.2C325.4 340 326.2 340 329.1 337.9C335.2 333.6 335.2 322.4 329.1 318.1C326.2 316 325.4 316 227.3 316H128.4L125.3 319Z" fill="#FF9131"/>
</svg>
