<svg width="15" height="15" viewBox="0 0 15 15" fill="none" xmlns="http://www.w3.org/2000/svg">
<g clip-path="url(#clip0_832_5821)">
<path fill-rule="evenodd" clip-rule="evenodd" d="M7.49967 1.91081C4.60018 1.91081 2.24967 4.26131 2.24967 7.16081C2.24967 10.0603 4.60018 12.4108 7.49967 12.4108C10.3992 12.4108 12.7497 10.0603 12.7497 7.16081C12.7497 4.26131 10.3992 1.91081 7.49967 1.91081ZM1.08301 7.16081C1.08301 3.61698 3.95585 0.744141 7.49967 0.744141C11.0435 0.744141 13.9163 3.61698 13.9163 7.16081C13.9163 10.7046 11.0435 13.5775 7.49967 13.5775C3.95585 13.5775 1.08301 10.7046 1.08301 7.16081Z" fill="#04C122"/>
<path fill-rule="evenodd" clip-rule="evenodd" d="M9.6628 4.99703C9.89061 5.22483 9.89061 5.59418 9.6628 5.82198L6.1628 9.32198C5.935 9.54979 5.56565 9.54979 5.33785 9.32198C5.11004 9.09418 5.11004 8.72483 5.33785 8.49703L8.83785 4.99703C9.06565 4.76922 9.435 4.76922 9.6628 4.99703Z" fill="#04C122"/>
<path fill-rule="evenodd" clip-rule="evenodd" d="M5.33785 4.99703C5.56565 4.76922 5.935 4.76922 6.1628 4.99703L9.6628 8.49703C9.89061 8.72483 9.89061 9.09418 9.6628 9.32198C9.435 9.54979 9.06565 9.54979 8.83785 9.32198L5.33785 5.82198C5.11004 5.59418 5.11004 5.22483 5.33785 4.99703Z" fill="#04C122"/>
</g>
<defs>
<clipPath id="clip0_832_5821">
<rect width="14" height="14" fill="white" transform="translate(0.5 0.160156)"/>
</clipPath>
</defs>
</svg>
