<svg width="143" height="52" viewBox="0 0 143 52" fill="none" xmlns="http://www.w3.org/2000/svg">
<path d="M108.126 14.8435C108.126 13.8774 107.599 12.5598 106.106 12.5598C104.612 12.5598 103.822 13.7895 103.822 15.0192C103.822 16.4246 104.7 17.3908 106.193 17.3908C106.896 17.3908 107.423 17.303 107.774 17.1273L107.599 16.3368C107.247 16.4246 106.896 16.5124 106.281 16.5124C105.491 16.5124 104.876 16.1611 104.876 15.2827H107.95C108.126 15.1949 108.126 15.0192 108.126 14.8435ZM105.051 14.4922C105.139 14.053 105.403 13.3503 106.106 13.3503C106.896 13.3503 107.072 14.053 107.072 14.4922H105.051Z" fill="white"/>
<path d="M87.6599 12.7355L87.7478 13.4382C87.9234 13.0869 88.4504 12.6477 89.241 12.6477C90.0315 12.6477 90.9099 13.1747 90.9099 14.6679V17.3908H89.768V14.7558C89.768 14.0531 89.5045 13.6139 88.8896 13.6139C88.4504 13.6139 88.0991 13.9652 88.0113 14.3166C88.0113 14.4044 87.9234 14.5801 87.9234 14.6679V17.3908H86.6937V14.1409C86.6937 13.6139 86.6937 13.1747 86.6937 12.7355H87.6599Z" fill="white"/>
<path d="M77.471 14.8435C77.471 13.8774 76.9439 12.5598 75.4507 12.5598C73.9575 12.5598 73.167 13.7895 73.167 15.0192C73.167 16.4246 74.0454 17.3908 75.5386 17.3908C76.2413 17.3908 76.7683 17.303 77.1196 17.1273L77.0318 16.3368C76.6804 16.4246 76.3291 16.5124 75.7142 16.5124C74.9237 16.5124 74.3089 16.1611 74.3089 15.2827H77.3831C77.3831 15.1949 77.471 15.0192 77.471 14.8435ZM74.3089 14.4922C74.3967 14.053 74.6602 13.3503 75.3629 13.3503C76.1534 13.3503 76.3291 14.053 76.3291 14.4922H74.3089Z" fill="white"/>
<path d="M71.8495 10.5396H70.7076V17.3029H71.8495V10.5396Z" fill="white"/>
<path d="M63.5049 16.1611V14.4922C63.5049 13.4382 63.0657 12.5598 61.5725 12.5598C60.8698 12.5598 60.255 12.7355 59.9036 12.999L60.1672 13.7895C60.5185 13.6138 60.9577 13.4382 61.3969 13.4382C62.1874 13.4382 62.3631 13.9652 62.3631 14.2287V14.3165C60.6942 14.3165 59.6401 14.9314 59.6401 16.0733C59.6401 16.7759 60.1672 17.4786 61.1334 17.4786C61.7482 17.4786 62.1874 17.2151 62.4509 16.8638L62.5387 17.3908H63.5928C63.5928 17.0394 63.5049 16.6003 63.5049 16.1611ZM62.3631 15.7219C62.3631 15.8097 62.3631 15.8976 62.3631 15.9854C62.2752 16.3368 61.9239 16.6003 61.4847 16.6003C61.1334 16.6003 60.782 16.4246 60.782 15.8976C60.782 15.1949 61.5725 15.0192 62.3631 15.0192V15.7219Z" fill="white"/>
<path d="M54.5457 10.8032C54.9849 10.8032 55.1606 11.0667 55.1606 11.4181C55.1606 11.7694 54.897 12.0329 54.4579 12.0329C54.1065 12.0329 53.843 11.7694 53.843 11.4181C53.9309 11.0667 54.1944 10.8032 54.5457 10.8032Z" fill="white"/>
<path d="M55.0728 12.7356H53.9309V17.3909H55.0728V12.7356Z" fill="white"/>
<path d="M40.5798 10.8909H39.0866L37.0664 17.3029H38.2961L38.8231 15.4583H40.8434L41.4582 17.3029H42.6879L40.5798 10.8909ZM38.9988 14.58L39.5258 12.9989C39.6136 12.6476 39.7015 12.2084 39.7893 11.7692C39.8772 12.1206 39.965 12.5598 40.1407 12.9989L40.6677 14.58H38.9988Z" fill="white"/>
<path d="M26.9653 10.6274H15.5466C14.0534 10.6274 12.9115 11.8571 12.9115 13.2625V38.6471C12.9115 40.1403 14.1412 41.2822 15.5466 41.2822H26.9653C28.4585 41.2822 29.6003 40.0525 29.6003 38.6471V13.2625C29.6003 11.8571 28.3706 10.6274 26.9653 10.6274ZM19.9384 13.3504H22.5735C22.7491 13.3504 22.9248 13.526 22.9248 13.7017C22.9248 13.8774 22.7491 13.9652 22.5735 13.9652H19.9384C19.7627 13.9652 19.587 13.7895 19.587 13.7017C19.587 13.4382 19.7627 13.3504 19.9384 13.3504ZM21.2559 39.8768C20.4654 39.8768 19.8505 39.262 19.8505 38.4714C19.8505 37.6809 20.4654 37.0661 21.2559 37.0661C22.0464 37.0661 22.6613 37.6809 22.6613 38.4714C22.5735 39.262 21.9586 39.8768 21.2559 39.8768ZM28.0193 35.9242H14.4925V15.9854H28.0193V35.9242Z" fill="white"/>
<path d="M45.4987 23.0122H42.2487L37.0664 39.174H39.7893L41.2825 34.4309H46.5527L48.0459 39.174H50.681L45.4987 23.0122ZM41.6339 32.4985L42.9514 28.2824C43.3028 26.9648 43.5663 25.9108 43.7419 25.2081C44.1811 26.7892 44.4446 27.8432 44.5325 28.2824L45.85 32.4985H41.6339Z" fill="white"/>
<path d="M45.85 17.303H44.7081L42.9514 12.6477H44.1811L44.9716 15.0193C45.1473 15.4585 45.2352 15.8098 45.323 16.1611C45.4108 15.8098 45.4987 15.4585 45.6743 15.0193L46.377 12.6477H47.6067L45.85 17.303Z" fill="white"/>
<path d="M52.1742 16.1611V14.4922C52.1742 13.4382 51.7351 12.5598 50.2418 12.5598C49.5392 12.5598 48.9243 12.7355 48.573 12.999L48.8365 13.7895C49.1878 13.6138 49.627 13.4382 50.0662 13.4382C50.8567 13.4382 51.0324 13.9652 51.0324 14.2287V14.3165C49.3635 14.3165 48.3094 14.9314 48.3094 16.0733C48.3094 16.7759 48.8365 17.4786 49.7148 17.4786C50.3297 17.4786 50.7689 17.2151 51.1202 16.8638L51.208 17.3908H52.2621C52.1742 17.0394 52.1742 16.6003 52.1742 16.1611ZM51.0324 15.7219C51.0324 15.8097 51.0324 15.8976 51.0324 15.9854C50.9445 16.3368 50.5932 16.6003 50.154 16.6003C49.8027 16.6003 49.4513 16.4246 49.4513 15.8976C49.4513 15.1949 50.2418 15.0192 51.0324 15.0192V15.7219Z" fill="white"/>
<path d="M62.0997 28.985C61.1335 27.931 59.9916 27.3162 58.6741 27.3162C56.9173 27.3162 55.5998 28.0188 54.7214 29.4242H54.6336L54.4579 27.5797H52.1742C52.262 28.8972 52.262 30.2147 52.262 31.4445V44.005H54.8971V37.8565C55.5998 38.9983 56.6538 39.5254 58.2349 39.5254C59.6402 39.5254 60.8699 38.9983 61.8361 38.0321C62.8902 36.8903 63.4172 35.3092 63.4172 33.289C63.4172 31.5323 62.978 30.0391 62.0997 28.985ZM59.9916 36.3633C59.4646 37.1538 58.6741 37.5051 57.7079 37.5051C56.8295 37.5051 56.2146 37.2416 55.6876 36.6268C55.1606 36.0119 54.8971 35.3092 54.8971 34.5187V32.5863C54.8971 32.4106 54.8971 32.1471 54.9849 31.7958C55.1606 31.0931 55.512 30.5661 56.039 30.1269C56.566 29.6877 57.1808 29.5121 57.7957 29.5121C58.7619 29.5121 59.4646 29.8634 60.0794 30.6539C60.6064 31.3566 60.87 32.3228 60.87 33.4647C60.7821 34.6065 60.5186 35.5727 59.9916 36.3633Z" fill="white"/>
<path d="M58.0592 10.5396H56.9174V17.3029H58.0592V10.5396Z" fill="white"/>
<path d="M74.9238 28.985C74.0454 27.931 72.8157 27.3162 71.4982 27.3162C69.7415 27.3162 68.4239 28.0188 67.5456 29.4242L67.3699 27.5797H65.0862C65.174 28.8972 65.174 30.2147 65.174 31.4445V44.005H67.8091V37.8565C68.5118 38.9983 69.5658 39.5254 71.1469 39.5254C72.5522 39.5254 73.7819 38.9983 74.7481 38.0321C75.8022 36.8903 76.3292 35.3092 76.3292 33.289C76.3292 31.5323 75.8022 30.0391 74.9238 28.985ZM72.8157 36.3633C72.2887 37.1538 71.4982 37.5051 70.532 37.5051C69.7415 37.5051 69.0388 37.2416 68.5118 36.6268C67.9848 36.0119 67.7213 35.3092 67.7213 34.5187V32.5863C67.7213 32.4106 67.7213 32.1471 67.8091 31.7958C67.9848 31.0931 68.3361 30.5661 68.8631 30.1269C69.3901 29.6877 70.005 29.5121 70.6198 29.5121C71.586 29.5121 72.2887 29.8634 72.9036 30.6539C73.4306 31.3566 73.6941 32.3228 73.6941 33.4647C73.6941 34.6065 73.3428 35.5727 72.8157 36.3633Z" fill="white"/>
<path d="M67.4577 12.5598C66.755 12.5598 66.228 12.8233 65.9644 13.2625V10.5396H64.7347V15.9854C64.7347 16.4246 64.7347 16.9516 64.7347 17.3029H65.7009L65.7888 16.6002C66.1401 17.1272 66.6671 17.3908 67.282 17.3908C68.336 17.3908 69.39 16.6002 69.39 14.9313C69.39 13.526 68.5117 12.5598 67.4577 12.5598ZM67.0185 16.5124C66.4915 16.5124 66.1401 16.1611 65.9644 15.7219C65.9644 15.634 65.9644 15.5462 65.9644 15.4584V14.6678C65.9644 14.58 65.9644 14.4043 65.9644 14.4043C66.0523 13.8773 66.4915 13.526 67.0185 13.526C67.809 13.526 68.1603 14.2287 68.1603 15.0192C68.1603 15.8975 67.7212 16.5124 67.0185 16.5124Z" fill="white"/>
<path d="M89.5045 38.1201C88.4505 39.0863 86.9573 39.5255 85.1127 39.5255C83.356 39.5255 81.9506 39.1742 80.8966 38.5593L81.5115 36.3634C82.6533 37.0661 83.883 37.3296 85.2884 37.3296C86.2546 37.3296 87.0451 37.0661 87.5721 36.6269C88.0992 36.1877 88.3627 35.5729 88.3627 34.8702C88.3627 34.2553 88.0992 33.6405 87.66 33.2013C87.2208 32.7621 86.4303 32.323 85.4641 31.9716C82.6533 30.9176 81.248 29.3365 81.248 27.3163C81.248 25.9988 81.775 24.8569 82.7412 24.0664C83.7074 23.188 85.1127 22.8367 86.6938 22.8367C88.187 22.8367 89.4167 23.1002 90.3829 23.6272L89.768 25.7353C88.8897 25.2082 87.8356 25.0326 86.6938 25.0326C85.8154 25.0326 85.0249 25.2961 84.5857 25.7353C84.1465 26.1744 83.9709 26.6136 83.9709 27.2285C83.9709 27.8433 84.2344 28.3703 84.6735 28.8095C85.1127 29.1609 85.9033 29.6 87.0451 30.0392C88.4505 30.5662 89.5045 31.2689 90.1194 31.9716C90.7342 32.7621 91.0856 33.6405 91.0856 34.7824C90.9977 36.0999 90.4707 37.2418 89.5045 38.1201Z" fill="white"/>
<path d="M98.7273 29.5121H95.8287V35.2215C95.8287 36.6268 96.3557 37.4174 97.3219 37.4174C97.7611 37.4174 98.2002 37.4174 98.4638 37.3295L98.5516 39.2619C98.0246 39.4376 97.4097 39.5254 96.5314 39.5254C95.4773 39.5254 94.6868 39.1741 94.1598 38.5592C93.5449 37.9444 93.2814 36.8903 93.2814 35.3971V29.5121H91.6125V27.5797H93.2814V25.4717L95.8287 24.6812V27.5797H98.7273V29.5121Z" fill="white"/>
<path d="M83.2682 12.5598C81.8628 12.5598 80.8966 13.526 80.8966 15.0192C80.8966 16.5124 81.9506 17.3908 83.1803 17.3908C84.3222 17.3908 85.5519 16.6003 85.5519 14.9314C85.5519 13.526 84.5857 12.5598 83.2682 12.5598ZM83.1803 16.6003C82.4777 16.6003 82.0385 15.8976 82.0385 15.0192C82.0385 14.2287 82.3898 13.4382 83.1803 13.4382C83.9709 13.4382 84.3222 14.3165 84.3222 15.0192C84.3222 15.8976 83.883 16.6003 83.1803 16.6003Z" fill="white"/>
<path d="M109.355 29.0729C108.301 27.9311 106.896 27.4041 105.227 27.4041C103.47 27.4041 102.065 28.0189 101.011 29.1608C99.9569 30.3026 99.4299 31.7959 99.4299 33.6404C99.4299 35.3971 99.9569 36.8025 100.923 37.9444C101.977 39.0862 103.295 39.6133 105.051 39.6133C106.808 39.6133 108.214 38.9984 109.355 37.8565C110.409 36.7147 110.936 35.2215 110.936 33.4647C110.849 31.5323 110.409 30.127 109.355 29.0729ZM107.423 36.1876C106.896 37.1538 106.105 37.593 105.051 37.593C103.997 37.593 103.295 37.1538 102.68 36.1876C102.241 35.3971 101.977 34.5188 101.977 33.4647C101.977 32.3229 102.241 31.4445 102.68 30.654C103.207 29.7756 103.997 29.2486 105.051 29.2486C106.018 29.2486 106.808 29.6878 107.423 30.654C107.862 31.4445 108.126 32.3229 108.126 33.3769C108.126 34.4309 107.95 35.3971 107.423 36.1876Z" fill="white"/>
<path d="M94.5111 12.7353H95.126V11.857L96.2678 11.5056V12.6475H97.4097V13.5258H96.2678V15.5461C96.2678 16.0731 96.4435 16.4244 96.8827 16.4244C97.0583 16.4244 97.234 16.4244 97.3219 16.3366V17.215C97.1462 17.3028 96.7948 17.3028 96.4435 17.3028C96.0043 17.3028 95.653 17.1271 95.4773 16.9514C95.2138 16.6879 95.126 16.2488 95.126 15.6339V13.438H94.5111V12.7353Z" fill="white"/>
<path d="M118.666 29.8634C118.403 29.7756 118.139 29.7756 117.876 29.7756C116.997 29.7756 116.294 30.1269 115.767 30.8296C115.328 31.4445 115.153 32.235 115.153 33.1133V39.2618H112.518V31.2688C112.518 29.9512 112.518 28.7215 112.43 27.5797H114.713L114.801 29.7756H114.889C115.153 28.985 115.592 28.3702 116.207 27.931C116.821 27.4918 117.436 27.3162 118.051 27.3162C118.315 27.3162 118.49 27.3162 118.666 27.3162V29.8634Z" fill="white"/>
<path d="M99.869 14.58V17.3029H98.7272V10.5396H99.869V13.2625C100.045 13.0868 100.22 12.8233 100.484 12.7354C100.747 12.5598 101.011 12.5598 101.274 12.5598C102.065 12.5598 102.855 13.0868 102.855 14.58V17.3029H101.714V14.6678C101.714 13.9652 101.45 13.526 100.835 13.526C100.396 13.526 100.045 13.7895 99.9569 14.1408C99.9569 14.3165 99.869 14.4043 99.869 14.58Z" fill="white"/>
<path d="M129.909 32.8498C129.909 31.3566 129.558 30.1269 128.855 29.1607C127.977 27.931 126.747 27.3162 124.99 27.3162C123.321 27.3162 121.916 27.931 120.862 29.1607C119.896 30.3026 119.457 31.7958 119.457 33.5525C119.457 35.3971 119.984 36.8024 121.038 37.8565C122.092 38.9105 123.497 39.4375 125.342 39.4375C126.835 39.4375 128.152 39.174 129.294 38.7348L128.855 36.8903C127.889 37.2416 126.835 37.4173 125.693 37.4173C124.639 37.4173 123.761 37.1538 123.146 36.6268C122.443 36.0119 122.004 35.1336 122.004 33.9917H129.821C129.821 33.7282 129.909 33.289 129.909 32.8498ZM122.004 32.1471C122.092 31.3566 122.355 30.6539 122.794 30.1269C123.321 29.4242 124.024 29.0729 124.815 29.0729C125.781 29.0729 126.396 29.4242 126.923 30.1269C127.274 30.6539 127.45 31.3566 127.45 32.1471H122.004Z" fill="white"/>
<path d="M135.355 0.789795H7.37787C3.68876 0.789795 0.614502 3.86405 0.614502 7.55316V44.3564C0.614502 48.1334 3.68876 51.1198 7.37787 51.1198H135.355C139.132 51.1198 142.118 48.0455 142.118 44.3564V7.55316C142.118 3.86405 139.132 0.789795 135.355 0.789795ZM140.361 44.3564C140.361 47.0793 138.078 49.3631 135.355 49.3631H7.37787C4.56712 49.3631 2.37122 47.0793 2.37122 44.3564V7.55316C2.37122 4.83025 4.65496 2.54651 7.37787 2.54651H135.355C138.166 2.54651 140.361 4.83025 140.361 7.55316V44.3564Z" fill="white"/>
</svg>
