<svg width="50" height="45" viewBox="0 0 50 45" fill="none" xmlns="http://www.w3.org/2000/svg">
<path d="M20.1179 32.2091V29.768H3.05472L3.03031 39.5323C3.03031 42.2419 5.20287 44.4145 7.91247 44.4145H42.0876C44.7971 44.4145 46.9697 42.2419 46.9697 39.5323V29.768H29.8822V32.2091H20.1179ZM44.5286 10.2394H34.7399V5.35725L29.8578 0.475098H20.0934L15.2113 5.35725V10.2394H5.47139C2.7862 10.2394 0.589233 12.4364 0.589233 15.1216V22.4448C0.589233 25.1544 2.76179 27.327 5.47139 27.327H20.1179V22.4448H29.8822V27.327H44.5286C47.2138 27.327 49.4108 25.13 49.4108 22.4448V15.1216C49.4108 12.4364 47.2138 10.2394 44.5286 10.2394ZM29.8822 10.2394H20.1179V5.35725H29.8822V10.2394Z" fill="white"/>
</svg>
