<svg width="53" height="55" viewBox="0 0 53 55" fill="none" xmlns="http://www.w3.org/2000/svg">
<path d="M38.8437 0.700195C41.1064 0.700195 43.2763 1.61329 44.8762 3.2386C46.4762 4.86392 47.375 7.06832 47.375 9.36686V11.3669H0.125V9.36686C0.125 7.06832 1.02383 4.86392 2.62374 3.2386C4.22366 1.61329 6.39362 0.700195 8.65625 0.700195H38.8437ZM47.375 15.3669V24.7589C44.0989 22.6303 40.2054 21.7026 36.3393 22.1292C32.4733 22.5558 28.8666 24.3112 26.1168 27.1046C23.3671 29.8981 21.6391 33.5619 21.2191 37.4894C20.7992 41.4168 21.7125 45.3721 23.8077 48.7002H8.65625C6.39362 48.7002 4.22366 47.7871 2.62374 46.1618C1.02383 44.5365 0.125 42.3321 0.125 40.0335V15.3669H47.375ZM52.625 39.3669C52.625 35.477 51.1039 31.7465 48.3963 28.996C45.6888 26.2454 42.0166 24.7002 38.1875 24.7002C34.3584 24.7002 30.6862 26.2454 27.9786 28.996C25.2711 31.7465 23.75 35.477 23.75 39.3669C23.75 43.2567 25.2711 46.9872 27.9786 49.7378C30.6862 52.4883 34.3584 54.0335 38.1875 54.0335C42.0166 54.0335 45.6888 52.4883 48.3963 49.7378C51.1039 46.9872 52.625 43.2567 52.625 39.3669ZM38.1875 39.3669H43.4375C43.7856 39.3669 44.1194 39.5073 44.3656 39.7574C44.6117 40.0074 44.75 40.3466 44.75 40.7002C44.75 41.0538 44.6117 41.393 44.3656 41.643C44.1194 41.8931 43.7856 42.0335 43.4375 42.0335H36.875C36.5269 42.0335 36.1931 41.8931 35.9469 41.643C35.7008 41.393 35.5625 41.0538 35.5625 40.7002V32.7002C35.5625 32.3466 35.7008 32.0074 35.9469 31.7574C36.1931 31.5073 36.5269 31.3669 36.875 31.3669C37.2231 31.3669 37.5569 31.5073 37.8031 31.7574C38.0492 32.0074 38.1875 32.3466 38.1875 32.7002V39.3669Z" fill="white"/>
</svg>
