<svg width="56" height="55" viewBox="0 0 56 55" fill="none" xmlns="http://www.w3.org/2000/svg">
<path d="M25.9287 0.569824H16.7412C15.2884 0.569867 13.8866 1.09684 12.8038 2.05C11.721 3.00316 11.0331 4.31563 10.8717 5.73649H6.24121C4.67478 5.73649 3.1725 6.34888 2.06486 7.43893C0.957225 8.52899 0.334961 10.0074 0.334961 11.549V46.424C0.334961 47.9656 0.957225 49.444 2.06486 50.534C3.1725 51.6241 4.67478 52.2365 6.24121 52.2365H28.7112C25.6575 49.1132 23.9542 44.9458 23.96 40.6115C23.96 37.3952 24.8787 34.3908 26.4721 31.8385L20.1012 38.1057C19.7321 38.4685 19.2317 38.6723 18.71 38.6723C18.1882 38.6723 17.6879 38.4685 17.3187 38.1057L10.7562 31.6473C10.5628 31.4699 10.4076 31.256 10.3 31.0184C10.1924 30.7807 10.1346 30.5242 10.1299 30.264C10.1252 30.0039 10.1739 29.7454 10.2729 29.5042C10.3719 29.2629 10.5193 29.0438 10.7062 28.8598C10.8932 28.6758 11.1159 28.5308 11.361 28.4333C11.6062 28.3359 11.8687 28.288 12.1331 28.2926C12.3974 28.2972 12.6581 28.3542 12.8996 28.4601C13.1411 28.5659 13.3585 28.7186 13.5387 28.909L18.71 33.9982L31.7562 21.159C31.9364 20.9686 32.1538 20.816 32.3953 20.7101C32.6368 20.6042 32.8975 20.5472 33.1618 20.5426C33.4262 20.538 33.6888 20.5859 33.9339 20.6833C34.179 20.7808 34.4017 20.9258 34.5887 21.1098C34.7756 21.2938 34.923 21.5129 35.022 21.7542C35.121 21.9954 35.1697 22.2539 35.165 22.514C35.1603 22.7742 35.1025 23.0307 34.9949 23.2684C34.8873 23.506 34.7321 23.7199 34.5387 23.8973L32.108 26.2921C35.1702 24.4387 38.751 23.5893 42.335 23.8663V11.549C42.335 10.0074 41.7127 8.52899 40.6051 7.43893C39.4974 6.34888 37.9951 5.73649 36.4287 5.73649H31.7982C31.6368 4.31563 30.9489 3.00316 29.8661 2.05C28.7833 1.09684 27.3815 0.569867 25.9287 0.569824ZM16.7412 4.44482H25.9287C26.4509 4.44482 26.9516 4.64895 27.3208 5.0123C27.69 5.37566 27.8975 5.86847 27.8975 6.38232C27.8975 6.89618 27.69 7.38899 27.3208 7.75234C26.9516 8.11569 26.4509 8.31982 25.9287 8.31982H16.7412C16.2191 8.31982 15.7183 8.11569 15.3491 7.75234C14.9799 7.38899 14.7725 6.89618 14.7725 6.38232C14.7725 5.86847 14.9799 5.37566 15.3491 5.0123C15.7183 4.64895 16.2191 4.44482 16.7412 4.44482ZM55.46 40.6115C55.46 36.8432 53.9389 33.2293 51.2313 30.5647C48.5238 27.9001 44.8515 26.4032 41.0225 26.4032C37.1934 26.4032 33.5212 27.9001 30.8136 30.5647C28.106 33.2293 26.585 36.8432 26.585 40.6115C26.585 44.3798 28.106 47.9937 30.8136 50.6583C33.5212 53.3229 37.1934 54.8198 41.0225 54.8198C44.8515 54.8198 48.5238 53.3229 51.2313 50.6583C53.9389 47.9937 55.46 44.3798 55.46 40.6115ZM42.335 41.9032L42.3376 48.3692C42.3376 48.7118 42.1993 49.0403 41.9532 49.2826C41.707 49.5248 41.3732 49.6609 41.0251 49.6609C40.677 49.6609 40.3431 49.5248 40.097 49.2826C39.8509 49.0403 39.7126 48.7118 39.7126 48.3692V41.9032H33.137C32.7889 41.9032 32.455 41.7671 32.2089 41.5248C31.9627 41.2826 31.8245 40.9541 31.8245 40.6115C31.8245 40.2689 31.9627 39.9404 32.2089 39.6981C32.455 39.4559 32.7889 39.3198 33.137 39.3198H39.71V32.8615C39.71 32.5189 39.8482 32.1904 40.0944 31.9481C40.3405 31.7059 40.6744 31.5698 41.0225 31.5698C41.3706 31.5698 41.7044 31.7059 41.9505 31.9481C42.1967 32.1904 42.335 32.5189 42.335 32.8615V39.3198H48.8896C49.2377 39.3198 49.5715 39.4559 49.8177 39.6981C50.0638 39.9404 50.2021 40.2689 50.2021 40.6115C50.2021 40.9541 50.0638 41.2826 49.8177 41.5248C49.5715 41.7671 49.2377 41.9032 48.8896 41.9032H42.335Z" fill="white"/>
</svg>
