<svg width="23" height="25" viewBox="0 0 23 25" fill="none" xmlns="http://www.w3.org/2000/svg">
<path d="M6.53301 0.327831C6.15801 0.463768 5.92363 0.679394 5.69863 1.10596C5.58613 1.31689 5.58613 1.33096 5.5627 3.13564L5.53926 4.95439L5.25801 5.04814C4.79395 5.19814 3.97363 5.63408 3.54238 5.95752C2.28145 6.89971 1.41426 8.25908 1.07676 9.82471C0.954883 10.3872 0.954883 11.7935 1.07676 12.356C1.34863 13.6263 1.90176 14.6435 2.82051 15.5716C3.54707 16.3075 4.3252 16.8044 5.23457 17.1138L5.53926 17.2169L5.5627 20.2122L5.58613 23.2075L5.7127 23.4513C5.87207 23.7466 6.10644 23.9903 6.37363 24.131L6.57051 24.2388L12.6643 24.2528L18.7533 24.2622L20.6424 22.3731L22.5314 20.4888L22.5221 10.8794L22.508 1.27002L22.4002 1.07314C22.2361 0.759081 22.0299 0.557518 21.7252 0.402832L21.4393 0.262207H14.0752C8.0002 0.266893 6.67832 0.276268 6.53301 0.327831ZM21.3408 1.44814C21.4486 1.57471 21.4533 1.59814 21.4533 2.42314V3.26221H14.0471H6.64082V2.43721C6.64082 1.96377 6.65957 1.57939 6.6877 1.52783C6.81894 1.28408 6.44863 1.29814 14.108 1.30752L21.2283 1.31689L21.3408 1.44814ZM21.4533 12.0044V19.7153H20.3049C18.9783 19.7153 18.8049 19.7528 18.4346 20.1091C18.0174 20.5169 18.008 20.5497 17.9939 21.9794L17.9799 23.231H12.5189C6.67363 23.231 6.81426 23.2356 6.69238 23.006C6.65488 22.9403 6.64082 22.045 6.64082 20.1747V17.4419L7.2127 17.456C8.25332 17.4841 9.18145 17.2778 10.133 16.8138C10.808 16.4856 11.2252 16.195 11.7596 15.6888L12.158 15.3138L13.8033 15.2997C15.3877 15.2856 15.4533 15.281 15.5799 15.1872C15.8518 14.9856 15.8705 14.531 15.608 14.3247C15.4955 14.2356 15.4252 14.231 14.2064 14.231C13.4986 14.231 12.9221 14.2216 12.9221 14.2075C12.9221 14.1935 12.9924 14.0388 13.0814 13.8653C13.3768 13.2747 13.6721 12.2575 13.6721 11.8169V11.6528H14.5533C15.3408 11.6528 15.4439 11.6435 15.5799 11.5591C15.8705 11.3856 15.8705 10.9122 15.5799 10.6966C15.458 10.6075 15.3643 10.5981 14.5721 10.5747L13.6955 10.5513L13.6814 10.3872C13.6393 9.83408 13.3721 8.89189 13.1049 8.36221C13.0299 8.21221 12.9689 8.08096 12.9689 8.07158C12.9689 8.05752 13.5361 8.04346 14.2346 8.03408L15.5002 8.02002L15.6455 7.87471C15.7674 7.75283 15.7908 7.69189 15.7908 7.50439C15.7908 7.31689 15.7674 7.25596 15.6455 7.13408L15.5002 6.98877L13.8689 6.97471L12.2377 6.96064L11.7971 6.52939C10.5502 5.31533 8.92363 4.67314 7.20332 4.72471L6.64082 4.73877V4.51377V4.29346H14.0471H21.4533V12.0044ZM8.24394 5.86377C9.68301 6.11221 10.9861 6.98408 11.7924 8.23096C12.1252 8.74189 12.3221 9.19189 12.4908 9.82002C12.5986 10.2231 12.6127 10.3544 12.6127 11.0903C12.6127 11.8263 12.5986 11.9575 12.4908 12.3653C11.8439 14.756 9.76269 16.3872 7.34863 16.3872C5.66113 16.3872 4.12363 15.6138 3.07363 14.231C2.7502 13.8091 2.35176 12.9841 2.20176 12.4263C2.08457 11.995 2.0752 11.8872 2.0752 11.0903C2.0752 10.2981 2.08457 10.181 2.20176 9.76377C2.74082 7.76689 4.39551 6.22939 6.39238 5.86846C6.87988 5.77939 7.75176 5.77939 8.24394 5.86377ZM20.6564 20.8075C20.6564 20.8122 20.3002 21.1778 19.8596 21.6138L19.0627 22.4106V21.7169C19.0627 21.0419 19.0674 21.0185 19.1799 20.9106C19.2877 20.7981 19.3111 20.7935 19.9768 20.7935C20.3518 20.7935 20.6564 20.7981 20.6564 20.8075Z" fill="white"/>
<path d="M17.0658 7.01228C16.7517 7.13884 16.6627 7.59821 16.9017 7.8654L17.0377 8.02009L18.0877 8.03415C19.058 8.04353 19.1424 8.03884 19.283 7.95446C19.5924 7.76228 19.5924 7.24665 19.2783 7.05446C19.147 6.97478 19.0392 6.9654 18.1486 6.97009C17.6095 6.97009 17.1174 6.98884 17.0658 7.01228Z" fill="white"/>
<path d="M17.1079 10.6263C16.8032 10.7153 16.672 11.0997 16.8314 11.4138C16.9486 11.6341 17.0611 11.6528 18.1673 11.6528C19.1142 11.6528 19.1986 11.6481 19.3064 11.5591C19.5736 11.3481 19.5923 10.9731 19.3392 10.7341L19.1986 10.5981L18.2282 10.5888C17.6939 10.5841 17.1923 10.5981 17.1079 10.6263Z" fill="white"/>
<path d="M17.0234 14.2874C16.8453 14.3812 16.7656 14.5265 16.7656 14.7562C16.7656 15.0327 16.9016 15.2015 17.1641 15.2624C17.4125 15.3233 18.9031 15.3233 19.1047 15.2624C19.5547 15.1358 19.6672 14.6062 19.3062 14.3249C19.1984 14.2358 19.1141 14.2312 18.1531 14.2312C17.4922 14.2312 17.0844 14.2546 17.0234 14.2874Z" fill="white"/>
<path d="M13.9723 17.8872C13.7051 17.995 13.5786 18.4356 13.7473 18.6747C13.9161 18.9185 13.8973 18.9185 16.5786 18.9185C19.3582 18.9185 19.3348 18.9185 19.4614 18.6185C19.5504 18.4075 19.5504 18.2903 19.4614 18.1216C19.3114 17.8356 19.3582 17.8403 16.5926 17.845C15.2051 17.845 14.0239 17.8638 13.9723 17.8872Z" fill="white"/>
<path d="M9.94562 7.59814C9.92218 7.60752 9.8378 7.62627 9.75812 7.64502C9.65499 7.66846 9.1628 8.12783 7.89718 9.38877L6.17687 11.1091L5.6378 10.5888C5.07999 10.045 4.94405 9.96533 4.57843 9.96533C4.48937 9.96533 4.32999 10.0075 4.22687 10.0544C3.9878 10.1669 3.24718 10.9216 3.14874 11.1466C3.05968 11.3716 3.05968 11.6528 3.15343 11.8778C3.24249 12.0981 5.45968 14.3388 5.72218 14.47C5.96124 14.5966 6.33624 14.5966 6.5753 14.47C6.68312 14.4185 7.76593 13.3685 9.13468 11.995C11.155 9.96533 11.5159 9.58564 11.5581 9.42627C11.6284 9.16846 11.6237 9.00908 11.5394 8.80283C11.4597 8.62002 10.6816 7.79971 10.4847 7.69189C10.3628 7.63096 10.0253 7.57002 9.94562 7.59814ZM10.2737 8.93408L10.4566 9.12158L8.30499 11.2778L6.14874 13.4341L5.1878 12.4731L4.22687 11.5122L4.42374 11.3153L4.6253 11.1185L5.27218 11.7606L5.92374 12.4028H6.15343H6.37843L8.21124 10.5747C9.21437 9.57158 10.0487 8.74658 10.0628 8.74658C10.0769 8.74658 10.1753 8.83096 10.2737 8.93408Z" fill="white"/>
</svg>
