<svg width="23" height="23" viewBox="0 0 23 23" fill="none" xmlns="http://www.w3.org/2000/svg">
<path d="M5.25781 0.363476C5.02813 0.471289 4.79375 0.71035 4.7 0.940039C4.65781 1.04316 4.625 1.2541 4.625 1.4416V1.76973L3.23281 1.78379L1.83594 1.79785L1.55469 1.93379C1.19375 2.11191 0.8375 2.46816 0.659375 2.8291L0.523438 3.11035V12.2744V21.4385L0.659375 21.7197C0.8375 22.0807 1.19375 22.4369 1.55469 22.615L1.83594 22.751H11.75H21.6641L21.9453 22.615C22.3063 22.4369 22.6625 22.0807 22.8406 21.7197L22.9766 21.4385V12.2744V3.11035L22.8406 2.8291C22.6625 2.46816 22.3063 2.11191 21.9453 1.93379L21.6641 1.79785L20.2719 1.78379L18.875 1.76973V1.43223C18.8703 0.715038 18.4391 0.274414 17.7406 0.274414C17.3938 0.274414 17.1359 0.382225 16.9203 0.607225C16.7047 0.836914 16.625 1.06191 16.625 1.44629V1.77441H14.75H12.875V1.44629C12.875 1.06191 12.7953 0.836914 12.5797 0.607225C12.3594 0.377539 12.1109 0.274414 11.75 0.274414C11.3891 0.274414 11.1406 0.377539 10.9203 0.607225C10.7047 0.836914 10.625 1.06191 10.625 1.44629V1.77441H8.75H6.875V1.43223C6.87031 0.907227 6.64063 0.527538 6.20938 0.349413C5.96563 0.246288 5.49219 0.255663 5.25781 0.363476ZM5.9375 1.11816C6.09688 1.20254 6.125 1.42754 6.125 2.53379C6.125 3.71973 6.09219 3.90254 5.87188 3.95879C5.66563 4.01035 5.51562 3.94004 5.44063 3.7666C5.36094 3.56973 5.34688 1.53535 5.42188 1.31973C5.51094 1.09004 5.72656 1.00566 5.9375 1.11816ZM11.9375 1.11816C12.0969 1.20254 12.125 1.42754 12.125 2.53379C12.125 3.71973 12.0922 3.90254 11.8719 3.95879C11.6656 4.01035 11.5156 3.94004 11.4406 3.7666C11.3609 3.56973 11.3469 1.53535 11.4219 1.31973C11.5109 1.09004 11.7266 1.00566 11.9375 1.11816ZM17.9375 1.11816C18.0969 1.20254 18.125 1.42754 18.125 2.53379C18.125 3.71973 18.0922 3.90254 17.8719 3.95879C17.6656 4.01035 17.5156 3.94004 17.4406 3.7666C17.3609 3.56973 17.3469 1.53535 17.4219 1.31973C17.5109 1.09004 17.7266 1.00566 17.9375 1.11816ZM4.625 3.23691C4.625 4.04316 4.67188 4.20723 4.95781 4.4791C5.17813 4.68535 5.41719 4.77441 5.75938 4.77441C6.10625 4.77441 6.36406 4.6666 6.57969 4.4416C6.8375 4.16973 6.875 4.01504 6.875 3.22754V2.52441H8.75H10.625V3.23691C10.625 4.04316 10.6719 4.20723 10.9578 4.4791C11.1781 4.68535 11.4125 4.77441 11.75 4.77441C12.0875 4.77441 12.3219 4.68535 12.5422 4.4791C12.8281 4.20723 12.875 4.04316 12.875 3.23691V2.52441H14.75H16.625V3.23691C16.625 4.04316 16.6719 4.20723 16.9578 4.4791C17.1781 4.68535 17.4125 4.77441 17.75 4.77441C18.0875 4.77441 18.3219 4.68535 18.5422 4.4791C18.8281 4.20723 18.875 4.04316 18.875 3.23691V2.51504L20.1078 2.53379C21.2422 2.54785 21.35 2.55723 21.5469 2.64629C21.8 2.76816 22.0297 2.99785 22.1422 3.25098C22.2125 3.41504 22.2266 3.62129 22.2406 4.8541L22.2594 6.27441H11.75H1.24063L1.25938 4.8541C1.27813 3.28848 1.2875 3.22285 1.59219 2.90879C1.91563 2.5666 2.07969 2.53848 3.51406 2.5291L4.625 2.52441V3.23691ZM22.2406 14.065C22.2266 21.101 22.2266 21.1104 22.1281 21.3213C22.0109 21.5744 21.7203 21.851 21.4719 21.9354C21.2 22.0338 2.3 22.0338 2.02813 21.9354C1.77969 21.851 1.48906 21.5744 1.37188 21.3213C1.27344 21.1104 1.27344 21.101 1.25938 14.065L1.25 7.02441H11.75H22.25L22.2406 14.065Z" fill="white"/>
<path d="M13.7516 8.95587C13.7094 8.98869 13.475 9.43869 13.2359 9.95431L12.7953 10.8871L11.9563 11.0184C11.4969 11.0887 11.0469 11.159 10.9625 11.1731C10.7328 11.2152 10.625 11.3465 10.625 11.5809C10.625 11.7684 10.6484 11.7965 11.3516 12.5043L12.0734 13.2356L11.9141 14.2199C11.825 14.759 11.75 15.2512 11.75 15.3027C11.75 15.359 11.7922 15.4574 11.8484 15.5277C12.0266 15.7527 12.2047 15.7106 13.1562 15.1809L14.0047 14.7121L14.8484 15.1809C15.7953 15.7106 15.9734 15.7574 16.1516 15.5277C16.2078 15.4574 16.25 15.3543 16.25 15.2981C16.25 15.2418 16.175 14.7543 16.0859 14.2152L15.9266 13.2356L16.6484 12.5043C17.3141 11.834 17.375 11.7637 17.375 11.609C17.375 11.384 17.3375 11.2996 17.2156 11.234C17.1641 11.2012 16.6859 11.1121 16.1609 11.0324L15.2047 10.8871L14.7641 9.95431C14.525 9.43869 14.2906 8.98869 14.2484 8.95587C14.2063 8.92775 14.0938 8.89962 14 8.89962C13.9063 8.89962 13.7938 8.92775 13.7516 8.95587ZM14.3047 10.8684C14.4547 11.2059 14.6188 11.5106 14.6609 11.5527C14.7078 11.5949 14.9891 11.6606 15.3922 11.7215C15.7484 11.7731 16.0578 11.834 16.0813 11.8574C16.1047 11.8762 15.8984 12.1246 15.6219 12.4059C15.0453 13.0012 15.0594 12.9356 15.2188 13.8824C15.275 14.1918 15.3078 14.4543 15.2938 14.4637C15.2797 14.4777 15.0219 14.3465 14.7125 14.1777C14.3516 13.9762 14.0984 13.8684 14.0047 13.8684C13.9063 13.8684 13.6531 13.9809 13.2922 14.1777C12.9828 14.3512 12.7203 14.4777 12.7063 14.4684C12.6922 14.4543 12.725 14.1918 12.7812 13.8824C12.9406 12.9356 12.9547 13.0012 12.3781 12.4059C12.1016 12.1246 11.8953 11.8762 11.9188 11.8574C11.9422 11.834 12.2516 11.7777 12.6078 11.7215C13.0063 11.6652 13.2875 11.5996 13.3344 11.5574C13.3766 11.5152 13.5406 11.2106 13.6953 10.8731C13.85 10.5356 13.9859 10.259 14 10.259C14.0141 10.259 14.15 10.5356 14.3047 10.8684Z" fill="white"/>
<path d="M7.34375 9.74316C7.25469 9.83223 7.25 9.89785 7.25 10.7744C7.25 11.651 7.25469 11.7166 7.34375 11.8057C7.43281 11.8947 7.49844 11.8994 8.375 11.8994C9.25156 11.8994 9.31719 11.8947 9.40625 11.8057C9.49531 11.7166 9.5 11.651 9.5 10.7744C9.5 9.89785 9.49531 9.83223 9.40625 9.74316C9.31719 9.6541 9.25156 9.64941 8.375 9.64941C7.49844 9.64941 7.43281 9.6541 7.34375 9.74316ZM8.75 10.7744V11.1494H8.375H8V10.7744V10.3994H8.375H8.75V10.7744Z" fill="white"/>
<path d="M18.5938 9.74316C18.5047 9.83223 18.5 9.89785 18.5 10.7744C18.5 11.651 18.5047 11.7166 18.5938 11.8057C18.6828 11.8947 18.7484 11.8994 19.625 11.8994C20.5016 11.8994 20.5672 11.8947 20.6562 11.8057C20.7453 11.7166 20.75 11.651 20.75 10.7744C20.75 9.89785 20.7453 9.83223 20.6562 9.74316C20.5672 9.6541 20.5016 9.64941 19.625 9.64941C18.7484 9.64941 18.6828 9.6541 18.5938 9.74316ZM20 10.7744V11.1494H19.625H19.25V10.7744V10.3994H19.625H20V10.7744Z" fill="white"/>
<path d="M3.59375 13.4932C3.50469 13.5822 3.5 13.6479 3.5 14.5244C3.5 15.401 3.50469 15.4666 3.59375 15.5557C3.68281 15.6447 3.74844 15.6494 4.625 15.6494C5.50156 15.6494 5.56719 15.6447 5.65625 15.5557C5.74531 15.4666 5.75 15.401 5.75 14.5244C5.75 13.6479 5.74531 13.5822 5.65625 13.4932C5.56719 13.4041 5.50156 13.3994 4.625 13.3994C3.74844 13.3994 3.68281 13.4041 3.59375 13.4932ZM5 14.5244V14.8994H4.625H4.25V14.5244V14.1494H4.625H5V14.5244Z" fill="white"/>
<path d="M7.34375 13.4932C7.25469 13.5822 7.25 13.6479 7.25 14.5244C7.25 15.401 7.25469 15.4666 7.34375 15.5557C7.43281 15.6447 7.49844 15.6494 8.375 15.6494C9.25156 15.6494 9.31719 15.6447 9.40625 15.5557C9.49531 15.4666 9.5 15.401 9.5 14.5244C9.5 13.6479 9.49531 13.5822 9.40625 13.4932C9.31719 13.4041 9.25156 13.3994 8.375 13.3994C7.49844 13.3994 7.43281 13.4041 7.34375 13.4932ZM8.75 14.5244V14.8994H8.375H8V14.5244V14.1494H8.375H8.75V14.5244Z" fill="white"/>
<path d="M18.5938 13.4932C18.5047 13.5822 18.5 13.6479 18.5 14.5244C18.5 15.401 18.5047 15.4666 18.5938 15.5557C18.6828 15.6447 18.7484 15.6494 19.625 15.6494C20.5016 15.6494 20.5672 15.6447 20.6562 15.5557C20.7453 15.4666 20.75 15.401 20.75 14.5244C20.75 13.6479 20.7453 13.5822 20.6562 13.4932C20.5672 13.4041 20.5016 13.3994 19.625 13.3994C18.7484 13.3994 18.6828 13.4041 18.5938 13.4932ZM20 14.5244V14.8994H19.625H19.25V14.5244V14.1494H19.625H20V14.5244Z" fill="white"/>
<path d="M3.59375 17.2432C3.50469 17.3322 3.5 17.3979 3.5 18.2744C3.5 19.151 3.50469 19.2166 3.59375 19.3057C3.68281 19.3947 3.74844 19.3994 4.625 19.3994C5.50156 19.3994 5.56719 19.3947 5.65625 19.3057C5.74531 19.2166 5.75 19.151 5.75 18.2744C5.75 17.3979 5.74531 17.3322 5.65625 17.2432C5.56719 17.1541 5.50156 17.1494 4.625 17.1494C3.74844 17.1494 3.68281 17.1541 3.59375 17.2432ZM5 18.2744V18.6494H4.625H4.25V18.2744V17.8994H4.625H5V18.2744Z" fill="white"/>
<path d="M7.34375 17.2432C7.25469 17.3322 7.25 17.3979 7.25 18.2744C7.25 19.151 7.25469 19.2166 7.34375 19.3057C7.43281 19.3947 7.49844 19.3994 8.375 19.3994C9.25156 19.3994 9.31719 19.3947 9.40625 19.3057C9.49531 19.2166 9.5 19.151 9.5 18.2744C9.5 17.3979 9.49531 17.3322 9.40625 17.2432C9.31719 17.1541 9.25156 17.1494 8.375 17.1494C7.49844 17.1494 7.43281 17.1541 7.34375 17.2432ZM8.75 18.2744V18.6494H8.375H8V18.2744V17.8994H8.375H8.75V18.2744Z" fill="white"/>
<path d="M11.0938 17.2432C11.0047 17.3322 11 17.3979 11 18.2744C11 19.151 11.0047 19.2166 11.0938 19.3057C11.1828 19.3947 11.2484 19.3994 12.125 19.3994C13.0016 19.3994 13.0672 19.3947 13.1562 19.3057C13.2453 19.2166 13.25 19.151 13.25 18.2744C13.25 17.3979 13.2453 17.3322 13.1562 17.2432C13.0672 17.1541 13.0016 17.1494 12.125 17.1494C11.2484 17.1494 11.1828 17.1541 11.0938 17.2432ZM12.5 18.2744V18.6494H12.125H11.75V18.2744V17.8994H12.125H12.5V18.2744Z" fill="white"/>
<path d="M14.8438 17.2432C14.7547 17.3322 14.75 17.3979 14.75 18.2744C14.75 19.151 14.7547 19.2166 14.8438 19.3057C14.9328 19.3947 14.9984 19.3994 15.875 19.3994C16.7516 19.3994 16.8172 19.3947 16.9062 19.3057C16.9953 19.2166 17 19.151 17 18.2744C17 17.3979 16.9953 17.3322 16.9062 17.2432C16.8172 17.1541 16.7516 17.1494 15.875 17.1494C14.9984 17.1494 14.9328 17.1541 14.8438 17.2432ZM16.25 18.2744V18.6494H15.875H15.5V18.2744V17.8994H15.875H16.25V18.2744Z" fill="white"/>
<path d="M18.5938 17.2432C18.5047 17.3322 18.5 17.3979 18.5 18.2744C18.5 19.151 18.5047 19.2166 18.5938 19.3057C18.6828 19.3947 18.7484 19.3994 19.625 19.3994C20.5016 19.3994 20.5672 19.3947 20.6562 19.3057C20.7453 19.2166 20.75 19.151 20.75 18.2744C20.75 17.3979 20.7453 17.3322 20.6562 17.2432C20.5672 17.1541 20.5016 17.1494 19.625 17.1494C18.7484 17.1494 18.6828 17.1541 18.5938 17.2432ZM20 18.2744V18.6494H19.625H19.25V18.2744V17.8994H19.625H20V18.2744Z" fill="white"/>
</svg>
