<svg width="24" height="25" viewBox="0 0 24 25" fill="none" xmlns="http://www.w3.org/2000/svg">
<path d="M10.7814 0.295996C9.91886 0.385057 8.86886 0.619432 7.9923 0.919434C6.89542 1.29443 5.49855 2.06318 4.52823 2.83193C4.05011 3.20693 3.04699 4.20068 2.64855 4.69756C1.35011 6.30537 0.511048 8.16631 0.136048 10.2804C0.00948527 10.9788 -0.0420772 12.7929 0.0422978 13.5335C0.290735 15.7179 1.0923 17.7476 2.40949 19.5335L2.53605 19.6976L2.4048 19.9788C2.28292 20.2319 2.27355 20.3022 2.27355 20.7944C2.27355 21.3007 2.28292 21.3522 2.41886 21.6429C2.60636 22.0366 2.95324 22.3835 3.36105 22.5851C3.66574 22.7351 3.69855 22.7397 4.21886 22.7397C4.7298 22.7397 4.77667 22.7304 5.07198 22.5897C6.24386 22.0366 6.5673 20.5085 5.73292 19.4913C5.53136 19.2476 5.24542 19.0507 4.8798 18.9147C4.52355 18.7835 3.91417 18.7835 3.56261 18.9147C3.37042 18.9897 3.29542 18.9991 3.24855 18.9569C3.21105 18.9288 3.01886 18.6569 2.8173 18.3616C1.8423 16.8991 1.22824 15.2163 1.02667 13.4397C0.946985 12.7226 0.99386 11.1147 1.11574 10.4351C1.32667 9.27725 1.58917 8.47568 2.10949 7.40693C3.74542 4.05537 6.99386 1.75381 10.7579 1.29443C11.3767 1.21943 12.7267 1.22881 13.3595 1.31787C14.3954 1.46318 14.4423 1.46318 14.6157 1.31787C14.747 1.21006 14.7657 1.16318 14.7657 0.970995C14.7657 0.54912 14.6157 0.474121 13.4907 0.333496C12.9704 0.26787 11.2689 0.244432 10.7814 0.295996ZM4.67824 19.9132C5.07667 20.1007 5.29699 20.5882 5.18448 21.0241C5.05324 21.5304 4.67355 21.8022 4.15323 21.7694C3.61886 21.7366 3.27667 21.3944 3.24386 20.8601C3.21105 20.3444 3.48292 19.9601 3.97511 19.8288C4.23292 19.7632 4.39699 19.7819 4.67824 19.9132Z" fill="white"/>
<path d="M16.125 1.11145C15.9422 1.18645 15.8438 1.34114 15.8438 1.56614C15.8438 1.98801 16.3078 2.19895 16.6313 1.92708C17.0484 1.57551 16.6313 0.905201 16.125 1.11145Z" fill="white"/>
<path d="M19.1954 1.82412C18.4454 2.07255 17.9017 2.71474 17.8173 3.45068C17.7001 4.43505 18.2017 5.26474 19.1204 5.61162C19.4767 5.74287 20.086 5.74287 20.4376 5.61162C20.6298 5.53662 20.7048 5.52724 20.7517 5.56943C20.8876 5.68193 21.5532 6.72724 21.811 7.23349C22.3782 8.34443 22.7907 9.68037 22.9454 10.8991C23.0439 11.6772 23.0204 13.3038 22.9032 13.9976C22.3689 17.1007 20.6626 19.7351 18.0704 21.4601C17.447 21.8772 16.4392 22.3882 15.7314 22.646C14.072 23.2554 12.1548 23.4335 10.2657 23.1616C9.94229 23.1147 9.61886 23.0913 9.54854 23.1101C9.47354 23.1288 9.37979 23.2038 9.32823 23.2929C9.11261 23.6397 9.28604 23.9866 9.71729 24.071C10.7064 24.2726 12.4126 24.3241 13.5001 24.1929C16.2376 23.8554 18.6704 22.6366 20.6251 20.6257C22.4673 18.7272 23.6064 16.3601 23.9298 13.7632C24.0235 12.9944 24.0235 11.5038 23.9298 10.7772C23.6485 8.64912 22.8751 6.73193 21.5907 4.99287L21.4642 4.8288L21.5954 4.54755C21.7173 4.29443 21.7267 4.22412 21.7267 3.73193C21.7267 3.21162 21.722 3.1788 21.5673 2.86474C21.3657 2.45224 21.0282 2.12412 20.6251 1.93193C20.3579 1.80537 20.2642 1.78662 19.8517 1.77724C19.5564 1.76787 19.3126 1.78662 19.1954 1.82412ZM20.3157 2.88818C20.4095 2.9538 20.5454 3.08974 20.6157 3.19287C20.7282 3.35693 20.7423 3.42724 20.7423 3.7413C20.7423 4.06474 20.7282 4.12099 20.6017 4.29912C20.1048 5.00224 19.0314 4.80068 18.8157 3.96162C18.7032 3.52568 18.9189 3.04755 19.322 2.84599C19.6032 2.70068 20.0673 2.72412 20.3157 2.88818Z" fill="white"/>
<path d="M10.2516 3.78359C10.0876 3.88203 10.0313 4.08359 10.0313 4.58984V5.07734L9.64226 5.20391C9.43132 5.27422 9.04695 5.42891 8.78914 5.55547L8.32039 5.78047L7.9407 5.41484C7.57039 5.05391 7.55164 5.04453 7.33132 5.04453H7.10164L5.94382 6.20703C4.83757 7.31328 4.78132 7.37422 4.78132 7.54297C4.78132 7.78672 4.8657 7.92266 5.21726 8.27422L5.52195 8.56953L5.29226 9.04297C5.17039 9.30547 5.01101 9.69453 4.9407 9.90547L4.81414 10.2945H4.32664C3.8157 10.2945 3.60945 10.3508 3.52507 10.5195C3.45007 10.6555 3.41257 13.7117 3.48289 13.9039C3.57195 14.157 3.76882 14.232 4.34539 14.232H4.81882L4.96414 14.6633C5.04382 14.9023 5.2032 15.2867 5.3157 15.5211L5.51726 15.943L5.15164 16.3227C4.79539 16.693 4.78132 16.7117 4.78132 16.9273V17.1523L5.86882 18.2492C6.46882 18.8539 7.01726 19.3789 7.08757 19.4164C7.37351 19.5664 7.57507 19.4867 8.01101 19.0461L8.30632 18.7414L8.78445 18.9664C9.04226 19.0883 9.43132 19.2477 9.64695 19.318L10.0313 19.4445V19.932C10.0313 20.4523 10.0876 20.6539 10.261 20.7477C10.3876 20.8133 13.6126 20.8133 13.7391 20.7477C13.9126 20.6539 13.9688 20.4523 13.9688 19.932V19.4445L14.3579 19.318C14.5688 19.2477 14.9579 19.0883 15.2157 18.9664L15.6938 18.7414L15.9891 19.0461C16.4251 19.4867 16.6266 19.5664 16.9126 19.4164C16.9829 19.3789 17.5313 18.8539 18.1313 18.2492L19.2188 17.1523V16.9273C19.2188 16.7117 19.2048 16.693 18.8485 16.3227L18.4782 15.943L18.661 15.5867C18.7594 15.3898 18.9188 15.0008 19.0126 14.7289L19.1813 14.232H19.6594C20.2313 14.232 20.4329 14.157 20.5173 13.9039C20.5876 13.6883 20.6016 10.9133 20.5266 10.6555C20.4469 10.3648 20.2782 10.2945 19.6829 10.2945H19.186L19.0594 9.90547C18.9891 9.69453 18.8298 9.30547 18.7079 9.04297L18.4782 8.56953L18.7829 8.27422C19.2235 7.83828 19.3032 7.63672 19.1532 7.35078C19.1157 7.28047 18.5907 6.73203 17.9907 6.13203L16.8938 5.04453H16.6688C16.4485 5.04453 16.4298 5.05859 16.0594 5.41484L15.6798 5.78047L15.211 5.55547C14.9532 5.42891 14.5688 5.27422 14.3579 5.20391L13.9688 5.07734V4.58984C13.9688 4.07422 13.9126 3.87266 13.7391 3.77891C13.6173 3.71328 10.3641 3.71797 10.2516 3.78359ZM12.9844 5.16172C12.9844 5.63516 12.9891 5.65859 13.1157 5.78984C13.2094 5.88828 13.3454 5.94922 13.6407 6.02891C14.161 6.16484 14.7376 6.40391 15.2485 6.69453C15.8016 7.00859 15.8813 6.99453 16.336 6.54453L16.6641 6.21641L17.3532 6.90547L18.0423 7.59453L17.6954 7.95547C17.2548 8.40547 17.2501 8.46172 17.5735 9.02891C17.8688 9.53984 18.1079 10.1211 18.2391 10.6367C18.3844 11.2227 18.4594 11.2789 19.1063 11.2789H19.5938V12.2633V13.2477H19.1251C18.8719 13.2477 18.6094 13.2711 18.5438 13.2992C18.436 13.3508 18.2813 13.5898 18.2813 13.7117C18.2813 13.8945 17.9391 14.7758 17.6673 15.3008C17.4704 15.6758 17.3438 15.9805 17.3438 16.0695C17.3438 16.1867 17.4094 16.2805 17.6954 16.5711L18.0423 16.9273L17.3579 17.6164L16.6688 18.3055L16.3079 17.9586C16.0173 17.6727 15.9188 17.607 15.8016 17.607C15.7173 17.607 15.4313 17.7289 15.0844 17.907C14.5219 18.2023 13.9454 18.4273 13.4766 18.5398C13.0454 18.643 12.9844 18.7461 12.9844 19.3836V19.857H12.0001H11.0157V19.3836C11.0157 18.7461 10.9548 18.643 10.5235 18.5398C10.0548 18.4273 9.4782 18.2023 8.9157 17.907C8.56882 17.7289 8.28289 17.607 8.19851 17.607C8.08132 17.607 7.98289 17.6727 7.69226 17.9586L7.33132 18.3055L6.64226 17.6164L5.95789 16.9273L6.30476 16.5711C6.5907 16.2805 6.65632 16.1867 6.65632 16.0695C6.65632 15.9805 6.52976 15.6758 6.33289 15.3008C6.06101 14.7758 5.71882 13.8945 5.71882 13.7117C5.71882 13.5898 5.56414 13.3508 5.45632 13.2992C5.3907 13.2711 5.1282 13.2477 4.87507 13.2477H4.40632V12.718C4.40632 12.432 4.42039 11.9867 4.43914 11.7336L4.46726 11.2789H4.92664C5.53601 11.2789 5.6157 11.218 5.76101 10.6367C5.89226 10.1211 6.13132 9.53984 6.42664 9.02891C6.75007 8.46172 6.74539 8.40547 6.30476 7.95547L5.95789 7.59453L6.64695 6.90547L7.33601 6.21641L7.66414 6.54453C8.12351 7.00391 8.19382 7.00859 8.79382 6.67109C9.3282 6.37109 9.95632 6.11797 10.4438 6.00078C10.7063 5.93984 10.8094 5.88828 10.8985 5.78516C11.0063 5.65859 11.0157 5.60703 11.0157 5.15703V4.66953H12.0001H12.9844V5.16172Z" fill="white"/>
<path d="M11.4143 8.40078C10.1252 8.61172 9.00957 9.45078 8.46582 10.632C8.19395 11.2133 8.1377 11.5039 8.1377 12.2633C8.1377 13.0227 8.19395 13.3133 8.46113 13.8898C8.94863 14.9445 9.84863 15.7039 11.0158 16.0414C11.4377 16.1633 12.5486 16.1633 12.9846 16.0414C14.3486 15.6664 15.4033 14.6117 15.7783 13.2477C15.9002 12.8211 15.9002 11.7055 15.7783 11.2789C15.4033 9.92422 14.3439 8.85547 13.008 8.48984C12.7268 8.41484 11.6955 8.35859 11.4143 8.40078ZM12.6377 9.42734C13.9502 9.73672 14.9064 10.932 14.9064 12.2633C14.9064 13.8477 13.5799 15.1695 12.0002 15.1695C10.4205 15.1695 9.09395 13.843 9.09395 12.2633C9.09395 10.4258 10.8658 9.00547 12.6377 9.42734Z" fill="white"/>
<path d="M7.45335 22.5428C7.12523 22.7068 7.14398 23.2365 7.48616 23.3959C7.80023 23.5459 8.13304 23.3725 8.18929 23.0303C8.25023 22.6365 7.82835 22.3553 7.45335 22.5428Z" fill="white"/>
</svg>
