<svg width="25" height="25" viewBox="0 0 25 25" fill="none" xmlns="http://www.w3.org/2000/svg">
<path d="M2.8251 0.337204C1.7376 0.599705 0.828228 1.52783 0.565728 2.62939C0.462603 3.07471 0.495415 3.91377 0.631353 4.34033C0.80479 4.87471 1.1751 5.39502 1.67198 5.80752L1.88292 5.98096L1.67198 6.15439C1.16573 6.57627 0.800103 7.09189 0.626665 7.64502C0.476665 8.11846 0.476665 9.09346 0.626665 9.56689C0.800103 10.12 1.16573 10.6356 1.67198 11.0575L1.88292 11.231L1.67198 11.4044C1.16573 11.8263 0.800103 12.3419 0.626665 12.895C0.54229 13.1716 0.52354 13.331 0.52354 13.8794C0.528228 14.4419 0.54229 14.5778 0.631353 14.8403C0.959478 15.7638 1.68135 16.4856 2.60948 16.8185L2.91417 16.9263L7.99073 16.9403L13.0673 16.9497L13.2079 16.8138C13.4704 16.5466 13.3485 16.1153 12.9782 16.0122C12.8657 15.9841 11.1548 15.9653 8.02354 15.9653C2.8251 15.9653 3.06417 15.9747 2.55792 15.7028C2.43135 15.6325 2.21573 15.4544 2.0751 15.3091C1.6626 14.8778 1.48448 14.4419 1.48448 13.8513C1.48448 12.881 2.12667 12.0606 3.10167 11.7888C3.45323 11.6903 17.2392 11.6903 17.586 11.7888C17.8907 11.8731 18.1392 11.9997 18.4298 12.2106C18.7485 12.4403 19.011 12.4497 19.2079 12.2247C19.4423 11.9622 19.372 11.6669 19.011 11.3997C18.9126 11.32 18.8282 11.245 18.8282 11.231C18.8282 11.2122 18.9407 11.1091 19.072 11.0013C19.5829 10.5888 19.9392 10.031 20.0985 9.39814C20.2251 8.90127 20.2064 8.09033 20.0564 7.62158C19.8829 7.08721 19.5126 6.56689 19.0157 6.15439L18.8048 5.98096L19.0157 5.80752C19.522 5.38564 19.8876 4.87002 20.061 4.31689C20.1454 4.04502 20.1642 3.88095 20.1642 3.33252C20.1642 2.74189 20.1501 2.64346 20.0376 2.33408C19.8642 1.85127 19.6532 1.51845 19.2923 1.15752C18.9314 0.796579 18.5985 0.585642 18.1157 0.412205L17.7735 0.285643L10.4376 0.276268C4.18448 0.27158 3.05948 0.280954 2.8251 0.337204ZM17.661 1.30283C18.4017 1.56533 18.922 2.09033 19.1329 2.77939C19.222 3.07002 19.222 3.64189 19.1329 3.93252C18.9173 4.6497 18.3314 5.2122 17.586 5.42314C17.3892 5.47939 16.2267 5.48877 10.3439 5.48877C2.77354 5.48877 3.15792 5.50283 2.6376 5.24033C2.50635 5.17939 2.28604 5.01064 2.14073 4.87471C1.69542 4.45283 1.48448 3.96533 1.48448 3.35596C1.48448 2.74658 1.69542 2.25908 2.14073 1.8372C2.51104 1.48564 2.94229 1.28408 3.45323 1.23252C3.54229 1.22314 6.72979 1.21846 10.5314 1.21846C16.7985 1.22314 17.4642 1.23252 17.661 1.30283ZM17.7079 6.57158C18.6501 6.91846 19.2032 7.66846 19.2032 8.60127C19.2032 9.21533 18.9923 9.69814 18.547 10.1247C18.4017 10.2606 18.1814 10.4294 18.0501 10.4903C17.5298 10.7528 17.9142 10.7388 10.3439 10.7388C2.77354 10.7388 3.15792 10.7528 2.6376 10.4903C2.50635 10.4294 2.28604 10.2606 2.14073 10.1247C1.69542 9.69814 1.48448 9.21533 1.48448 8.60127C1.48448 7.52314 2.2626 6.64658 3.35948 6.49658C3.5001 6.47783 6.72979 6.46377 10.5314 6.46846C17.3892 6.47314 17.4454 6.47314 17.7079 6.57158Z" fill="white"/>
<path d="M15.697 2.00133C15.2001 2.24977 14.9282 2.69508 14.9282 3.26696C14.9282 3.54352 14.9517 3.65133 15.0735 3.89508C15.2423 4.23258 15.4157 4.39664 15.7767 4.56539C15.9923 4.66383 16.072 4.67789 16.4095 4.65914C16.8548 4.63571 17.0657 4.54196 17.3657 4.24196C18.0313 3.56696 17.8063 2.37164 16.9345 1.96852C16.5688 1.79508 16.0767 1.80914 15.697 2.00133ZM16.6438 2.96227C16.7329 3.05133 16.7657 3.13571 16.7657 3.26227C16.7657 3.38883 16.7329 3.47321 16.6438 3.56227C16.5548 3.65133 16.4704 3.68414 16.3438 3.68414C16.2173 3.68414 16.1329 3.65133 16.0438 3.56227C15.9548 3.47321 15.922 3.38883 15.922 3.26227C15.922 3.13571 15.9548 3.05133 16.0438 2.96227C16.1329 2.87321 16.2173 2.84039 16.3438 2.84039C16.4704 2.84039 16.5548 2.87321 16.6438 2.96227Z" fill="white"/>
<path d="M3.16719 2.92939C3.05937 3.03721 3.03125 3.10752 3.03125 3.26221C3.03125 3.41689 3.05937 3.48721 3.16719 3.59502L3.30312 3.73096H6.46719H9.62656L9.74844 3.61377C9.95 3.40752 9.95 3.11689 9.74844 2.91064L9.62656 2.79346H6.46719H3.30312L3.16719 2.92939Z" fill="white"/>
<path d="M11.0422 2.92939C10.7375 3.23877 10.9484 3.73096 11.3891 3.73096C11.7125 3.73096 11.9187 3.47314 11.8531 3.14502C11.7875 2.79346 11.3094 2.66689 11.0422 2.92939Z" fill="white"/>
<path d="M13.0062 2.93408C12.8749 3.06533 12.8655 3.10283 12.889 3.29971C12.9218 3.58096 13.0812 3.73096 13.3483 3.73096C13.7093 3.73096 13.9249 3.44033 13.8124 3.10283C13.7468 2.89658 13.5874 2.79346 13.3437 2.79346C13.189 2.79346 13.1187 2.82158 13.0062 2.93408Z" fill="white"/>
<path d="M15.697 7.25133C15.2001 7.49977 14.9282 7.94508 14.9282 8.51696C14.9282 8.79352 14.9517 8.90133 15.0735 9.14508C15.2423 9.48258 15.4157 9.64664 15.7767 9.81539C15.9923 9.91383 16.072 9.92789 16.4095 9.90914C16.8548 9.88571 17.0657 9.79196 17.3657 9.49196C18.0313 8.81696 17.8063 7.62164 16.9345 7.21852C16.5688 7.04508 16.0767 7.05914 15.697 7.25133ZM16.6438 8.21227C16.7329 8.30133 16.7657 8.38571 16.7657 8.51227C16.7657 8.63883 16.7329 8.72321 16.6438 8.81227C16.5548 8.90133 16.4704 8.93414 16.3438 8.93414C16.2173 8.93414 16.1329 8.90133 16.0438 8.81227C15.9548 8.72321 15.922 8.63883 15.922 8.51227C15.922 8.38571 15.9548 8.30133 16.0438 8.21227C16.1329 8.12321 16.2173 8.09039 16.3438 8.09039C16.4704 8.09039 16.5548 8.12321 16.6438 8.21227Z" fill="white"/>
<path d="M3.16719 8.17939C3.05937 8.28721 3.03125 8.35752 3.03125 8.51221C3.03125 8.66689 3.05937 8.73721 3.16719 8.84502L3.30312 8.98096H6.46719H9.62656L9.74844 8.86377C9.95 8.65752 9.95 8.36689 9.74844 8.16064L9.62656 8.04346H6.46719H3.30312L3.16719 8.17939Z" fill="white"/>
<path d="M11.0422 8.17939C10.7375 8.48877 10.9484 8.98096 11.3891 8.98096C11.7125 8.98096 11.9187 8.72314 11.8531 8.39502C11.7875 8.04346 11.3094 7.91689 11.0422 8.17939Z" fill="white"/>
<path d="M13.0062 8.18408C12.8749 8.31533 12.8655 8.35283 12.889 8.54971C12.9218 8.83096 13.0812 8.98096 13.3483 8.98096C13.7093 8.98096 13.9249 8.69033 13.8124 8.35283C13.7468 8.14658 13.5874 8.04346 13.3437 8.04346C13.189 8.04346 13.1187 8.07158 13.0062 8.18408Z" fill="white"/>
<path d="M17.9235 13.2512C17.811 13.3168 17.7313 13.495 17.6375 13.884L17.5579 14.2168L17.1922 14.3622C16.9954 14.4465 16.8125 14.5122 16.7891 14.5122C16.7657 14.5122 16.6063 14.4278 16.4329 14.3247C16.1938 14.184 16.0672 14.1372 15.9172 14.1372C15.7204 14.1372 15.6969 14.1512 15.0454 14.8075C14.3891 15.459 14.375 15.4825 14.375 15.6793C14.375 15.8293 14.4219 15.9559 14.5625 16.195C14.6657 16.3684 14.75 16.5278 14.75 16.5512C14.75 16.5747 14.6844 16.7575 14.6 16.9543L14.4547 17.32L14.1219 17.3997C13.7235 17.4934 13.55 17.5778 13.4844 17.695C13.4235 17.8168 13.4235 19.645 13.4844 19.7668C13.55 19.884 13.7235 19.9684 14.1219 20.0622L14.4547 20.1418L14.6 20.5075C14.6844 20.7043 14.75 20.8918 14.75 20.9153C14.75 20.9387 14.6657 21.0934 14.5625 21.2622C14.4172 21.4965 14.375 21.6137 14.375 21.7778C14.375 21.984 14.3844 21.9934 15.0454 22.6543C15.6969 23.3106 15.7204 23.3247 15.9172 23.3247C16.0672 23.3247 16.1938 23.2778 16.4329 23.1372C16.6063 23.034 16.7657 22.9497 16.7891 22.9497C16.8125 22.9497 16.9954 23.0153 17.1922 23.0997L17.5579 23.245L17.6375 23.5778C17.7313 23.9762 17.8157 24.1497 17.9329 24.2153C18.0547 24.2762 19.8829 24.2762 20.0047 24.2153C20.1219 24.1497 20.2063 23.9762 20.3 23.5778L20.3797 23.245L20.7454 23.0997C20.9422 23.0153 21.125 22.9497 21.1485 22.9497C21.1719 22.9497 21.3313 23.034 21.5047 23.1372C21.7438 23.2778 21.8704 23.3247 22.0204 23.3247C22.2172 23.3247 22.2407 23.3106 22.8922 22.6543C23.5485 22.0028 23.5625 21.9793 23.5625 21.7825C23.5625 21.6325 23.5157 21.5059 23.375 21.2668C23.2719 21.0934 23.1875 20.934 23.1875 20.9106C23.1875 20.8872 23.2532 20.7043 23.3375 20.5075L23.4829 20.1418L23.8157 20.0622C24.2141 19.9684 24.3875 19.884 24.4532 19.7668C24.5141 19.645 24.5141 17.8168 24.4532 17.695C24.3875 17.5778 24.2141 17.4934 23.8157 17.3997L23.4829 17.32L23.3375 16.9543C23.2532 16.7575 23.1875 16.5747 23.1875 16.5512C23.1875 16.5278 23.2719 16.3684 23.375 16.195C23.5157 15.9559 23.5625 15.8293 23.5625 15.6793C23.5625 15.4825 23.5485 15.459 22.8922 14.8075C22.2313 14.1465 22.2219 14.1372 22.0157 14.1372C21.8516 14.1372 21.7344 14.1793 21.5 14.3247C21.3313 14.4278 21.1766 14.5122 21.1532 14.5122C21.1297 14.5122 20.9422 14.4465 20.7454 14.3622L20.3797 14.2168L20.3 13.884C20.2063 13.4856 20.1219 13.3122 20.0047 13.2465C19.8829 13.1856 18.036 13.1856 17.9235 13.2512ZM19.3907 14.334C19.4938 14.7465 19.5875 14.934 19.7094 14.9997C19.7797 15.0372 20.1313 15.1872 20.4875 15.3325C21.2188 15.6325 21.2704 15.6325 21.65 15.4028C21.7719 15.3231 21.8938 15.2622 21.9125 15.2622C21.9313 15.2622 22.0625 15.3793 22.2032 15.52C22.4422 15.759 22.4563 15.7872 22.3954 15.8809C22.2407 16.1293 22.1094 16.4059 22.1094 16.4903C22.1094 16.5747 22.5594 17.7184 22.7 17.9903C22.7657 18.1122 22.9532 18.2059 23.3657 18.309L23.5625 18.3606V18.7309V19.1012L23.3657 19.1528C22.9532 19.2559 22.7657 19.3497 22.7 19.4715C22.5594 19.7434 22.1094 20.8872 22.1094 20.9715C22.1094 21.0559 22.2407 21.3325 22.3954 21.5809C22.4563 21.6747 22.4422 21.7028 22.2032 21.9418C22.0625 22.0825 21.9313 22.1997 21.9125 22.1997C21.8938 22.1997 21.7719 22.1387 21.65 22.059C21.2704 21.8293 21.2188 21.8293 20.4875 22.1293C20.1313 22.2747 19.7797 22.4247 19.7094 22.4622C19.5875 22.5278 19.4938 22.7153 19.3907 23.1231L19.3391 23.3247H18.9688H18.5985L18.5469 23.1231C18.4438 22.7153 18.35 22.5278 18.2282 22.4622C18.1579 22.4247 17.8063 22.2747 17.45 22.1293C16.7188 21.8293 16.6672 21.8293 16.2875 22.059C16.1657 22.1387 16.0438 22.1997 16.025 22.1997C16.0063 22.1997 15.875 22.0825 15.7344 21.9418C15.4954 21.7028 15.4813 21.6747 15.5422 21.5809C15.6969 21.3325 15.8282 21.0559 15.8282 20.9715C15.8282 20.8872 15.3782 19.7434 15.2375 19.4715C15.1719 19.3497 14.9844 19.2559 14.5766 19.1528L14.375 19.1012V18.7309V18.3606L14.5766 18.309C14.9844 18.2059 15.1719 18.1122 15.2375 17.9903C15.3782 17.7184 15.8282 16.5747 15.8282 16.4903C15.8282 16.4059 15.6969 16.1293 15.5422 15.8809C15.4813 15.7872 15.4954 15.759 15.7344 15.52C15.875 15.3793 16.0063 15.2622 16.025 15.2622C16.0438 15.2622 16.1657 15.3231 16.2875 15.4028C16.6672 15.6325 16.7188 15.6325 17.45 15.3325C17.8063 15.1872 18.1579 15.0372 18.2282 14.9997C18.35 14.934 18.4438 14.7465 18.5469 14.334L18.5985 14.1372H18.9688H19.3391L19.3907 14.334Z" fill="white"/>
<path d="M18.2187 15.8996C17.2249 16.1574 16.3858 17.0058 16.1327 18.0042C16.0437 18.3605 16.0437 19.1011 16.1327 19.4574C16.3905 20.4699 17.2296 21.3089 18.2421 21.5667C18.5983 21.6558 19.339 21.6558 19.6952 21.5667C20.7077 21.3089 21.5468 20.4699 21.8046 19.4574C21.8937 19.1011 21.8937 18.3605 21.8046 18.0042C21.5468 16.9917 20.7077 16.1527 19.6952 15.8949C19.3437 15.8058 18.5655 15.8058 18.2187 15.8996ZM19.7702 16.9777C20.1687 17.1699 20.5296 17.5308 20.7218 17.9292C20.8577 18.2152 20.8671 18.2761 20.8671 18.7308C20.8671 19.1855 20.8577 19.2464 20.7218 19.5324C20.5296 19.9308 20.1687 20.2917 19.7702 20.4839C19.4843 20.6199 19.4233 20.6292 18.9687 20.6292C18.514 20.6292 18.453 20.6199 18.1671 20.4839C17.7687 20.2917 17.4077 19.9308 17.2155 19.5324C17.0796 19.2464 17.0702 19.1855 17.0702 18.7308C17.0702 18.2761 17.0796 18.2152 17.2155 17.9292C17.3796 17.5824 17.7452 17.1886 18.0452 17.0386C18.4296 16.8417 18.5608 16.8089 19.0155 16.823C19.4046 16.8324 19.4983 16.8511 19.7702 16.9777Z" fill="white"/>
<path d="M3.16719 13.4294C3.05937 13.5372 3.03125 13.6075 3.03125 13.7622C3.03125 13.9169 3.05937 13.9872 3.16719 14.095L3.30312 14.231H6.46719H9.62656L9.74844 14.1138C9.95 13.9075 9.95 13.6169 9.74844 13.4106L9.62656 13.2935H6.46719H3.30312L3.16719 13.4294Z" fill="white"/>
<path d="M11.0422 13.4294C10.7375 13.7388 10.9484 14.231 11.3891 14.231C11.7125 14.231 11.9187 13.9731 11.8531 13.645C11.7875 13.2935 11.3094 13.1669 11.0422 13.4294Z" fill="white"/>
<path d="M13.0062 13.4341C12.8749 13.5653 12.8655 13.6028 12.889 13.7997C12.9218 14.081 13.0812 14.231 13.3483 14.231C13.7093 14.231 13.9249 13.9403 13.8124 13.6028C13.7468 13.3966 13.5874 13.2935 13.3437 13.2935C13.189 13.2935 13.1187 13.3216 13.0062 13.4341Z" fill="white"/>
<path d="M10.0064 18.0513C9.94073 18.1169 9.87511 18.2341 9.85636 18.3138C9.8423 18.3981 9.82823 18.9747 9.82823 19.6028V20.7419L9.57511 20.8544C8.20636 21.4825 8.21573 23.47 9.58448 24.1122C9.81886 24.2247 9.90792 24.2388 10.3439 24.2388C10.8079 24.2388 10.8595 24.2294 11.1501 24.0841C11.5204 23.9013 11.8392 23.5638 11.9939 23.1981L12.097 22.9497H12.5001C12.7251 22.9497 12.9735 22.9263 13.0579 22.8981C13.3017 22.8138 13.4142 22.495 13.2923 22.2278C13.2032 22.0403 12.9829 21.9653 12.5095 21.9653H12.0829L11.9657 21.7075C11.8064 21.356 11.422 20.981 11.0845 20.8403L10.8126 20.7278V19.4669V18.206L10.6767 18.07C10.4892 17.8872 10.1798 17.8778 10.0064 18.0513ZM10.8032 21.82C11.3751 22.2231 11.1642 23.1747 10.4845 23.2638C9.94542 23.3388 9.53761 22.9966 9.53761 22.481C9.53761 22.1528 9.72511 21.8575 10.0157 21.7356C10.2126 21.6513 10.6345 21.6981 10.8032 21.82Z" fill="white"/>
<path d="M0.725 22.0356C0.560937 22.1294 0.5 22.2419 0.5 22.4669C0.5 22.6825 0.589062 22.8231 0.767187 22.8981C0.865625 22.9356 1.76094 22.9497 4.11875 22.9403L7.34375 22.9262L7.47031 22.795C7.65312 22.6169 7.64844 22.2981 7.46562 22.1153L7.34375 21.9887L4.09531 21.9794C1.29687 21.97 0.832812 21.9794 0.725 22.0356Z" fill="white"/>
</svg>
