<svg width="25" height="25" viewBox="0 0 25 25" fill="none" xmlns="http://www.w3.org/2000/svg">
<path d="M6.37975 0.313944C6.0235 0.374882 5.52193 0.557693 5.21256 0.740507C5.06725 0.824883 4.77662 1.06394 4.56568 1.2702C4.12975 1.70144 3.86256 2.14207 3.6985 2.70457L3.59537 3.06551L3.286 3.1452C2.19381 3.41707 1.28912 4.25145 0.909434 5.32957L0.773496 5.72332L0.759434 13.528C0.745371 22.2514 0.721934 21.6233 1.07818 22.3639C1.49537 23.2264 2.26881 23.8639 3.25787 24.1546C3.52037 24.2343 4.02193 24.2389 11.1329 24.253C16.2938 24.2624 18.8297 24.2483 19.0501 24.2155C19.8001 24.0983 20.4094 23.7889 20.9532 23.2358C21.3704 22.8139 21.6047 22.4249 21.7829 21.8671L21.9141 21.4546L22.2188 21.3796C23.3157 21.103 24.2391 20.2499 24.5907 19.1671L24.7266 18.7546V10.8327V2.91082L24.6001 2.56863C24.1688 1.37801 23.1938 0.543633 21.9891 0.328007C21.6985 0.276443 20.2313 0.267069 14.1329 0.271757C9.97037 0.271757 6.52037 0.290506 6.37975 0.313944ZM22.0172 1.60301C22.7485 1.85613 23.2688 2.40926 23.4657 3.1452C23.5594 3.49207 23.5594 18.2671 23.4657 18.6139C23.3016 19.2374 22.8797 19.7436 22.3032 20.0202L21.961 20.1843L21.9376 12.9796L21.9141 5.7702L21.7876 5.3952C21.4594 4.43895 20.7516 3.67488 19.8422 3.29051C19.2001 3.02332 19.3547 3.02801 11.8313 3.02801C7.12975 3.02801 4.92193 3.01394 4.92193 2.98113C4.92193 2.95301 4.98287 2.81238 5.05787 2.66238C5.34381 2.09519 6.01881 1.61707 6.65631 1.53269C6.82506 1.50926 10.2844 1.49519 14.3438 1.49988L21.7266 1.50457L22.0172 1.60301ZM19.4532 4.49051C20.0719 4.79051 20.5454 5.40457 20.6719 6.0702C20.7376 6.41238 20.7376 20.8686 20.6719 21.2202C20.6485 21.3608 20.5501 21.6233 20.461 21.8061C20.1329 22.4764 19.5141 22.9077 18.7501 23.0014C18.4922 23.0296 15.811 23.0436 11.0626 23.0343L3.7735 23.0202L3.48287 22.9218C2.75162 22.6686 2.23131 22.1155 2.03443 21.3796C1.98287 21.1874 1.96881 19.7577 1.96881 13.6405C1.96881 5.45613 1.95475 5.9577 2.22662 5.41863C2.46568 4.95457 2.91568 4.57488 3.44537 4.39207C3.72662 4.29832 3.76881 4.29832 11.4141 4.30769L19.1016 4.31707L19.4532 4.49051Z" fill="white"/>
<path d="M11.0063 8.63408C10.7345 8.77939 10.7345 8.79346 10.7345 10.9919V13.0075L8.68601 13.0216C6.75945 13.0356 6.62351 13.0403 6.50164 13.1247C6.1032 13.3966 6.16883 14.0669 6.60945 14.2169C6.72664 14.2544 7.35008 14.2731 8.75633 14.2731L10.7345 14.2778V16.2935C10.7345 18.4778 10.7345 18.4872 10.9876 18.656C11.0579 18.6981 11.2032 18.731 11.3438 18.731C11.5454 18.731 11.6016 18.7075 11.7563 18.5716L11.9298 18.4122L11.9438 16.345L11.9579 14.2778H13.9266C16.0595 14.2778 16.1063 14.2731 16.3032 14.02C16.5235 13.7435 16.4579 13.3544 16.1579 13.1341C16.0266 13.0403 15.961 13.0356 13.9876 13.0216L11.9532 13.0075V11.0153C11.9532 8.85439 11.9532 8.86377 11.6907 8.65752C11.5407 8.54033 11.1985 8.52627 11.0063 8.63408Z" fill="white"/>
</svg>
