<svg width="21" height="25" viewBox="0 0 21 25" fill="none" xmlns="http://www.w3.org/2000/svg">
<path d="M3.24521 0.646288C3.1374 0.758789 3.13271 0.800976 3.11865 1.44316L3.0999 2.11816H2.04053C0.896777 2.12285 0.859277 2.12754 0.765527 2.37129C0.699902 2.54941 0.699902 24.0932 0.765527 24.2713C0.868652 24.5385 0.287402 24.5197 9.55928 24.5244H18.1421L18.2546 24.4025C18.3671 24.2854 18.3671 24.2713 18.3812 23.2072L18.3952 22.1338H19.464H20.5327L20.6452 22.0119L20.7577 21.89V14.1135V6.33691L17.8515 3.43066L14.9452 0.524414H9.15146H3.35771L3.24521 0.646288ZM14.3124 3.94629C14.3124 6.69785 14.3171 6.77754 14.5374 6.89473C14.603 6.93223 15.4749 6.94629 17.2843 6.94629H19.9374V14.1182V21.29H11.9452H3.95303V11.3291V1.36816H9.13271H14.3124V3.94629ZM17.2421 4.04004L19.3046 6.10254H17.228H15.1562V4.04004C15.1562 2.90566 15.1608 1.97754 15.1702 1.97754C15.1749 1.97754 16.1077 2.90566 17.2421 4.04004ZM3.11865 12.4354L3.13271 21.9088L3.26396 22.0213L3.39521 22.1338H10.4733H17.5468V22.9072V23.6807H9.55459H1.5624V13.3213V2.96191H2.33584H3.10928L3.11865 12.4354Z" fill="white"/>
<path d="M5.82812 4.1199C5.79063 4.13397 5.71094 4.19022 5.65469 4.24178C5.54688 4.33553 5.54688 4.3449 5.54688 5.72772V7.1199L5.66875 7.2324C5.79063 7.3449 5.79063 7.3449 7.02344 7.35897C7.82969 7.36834 8.32656 7.35428 8.45312 7.32147C8.76719 7.23709 8.78125 7.16209 8.78125 5.70428C8.78125 4.32147 8.76719 4.2324 8.49531 4.13865C8.34063 4.08709 5.96875 4.06834 5.82812 4.1199ZM7.9375 5.72772V6.52459H7.16406H6.39063V5.72772V4.93084H7.16406H7.9375V5.72772Z" fill="white"/>
<path d="M5.66394 8.23538C5.49988 8.39475 5.50457 8.67132 5.66863 8.826C5.77644 8.92444 5.83738 8.9385 6.2405 8.95725C6.82644 8.976 7.03269 8.91507 7.12175 8.69944C7.20144 8.51194 7.17332 8.376 7.03269 8.22132C6.94363 8.12288 6.89675 8.11819 6.35769 8.11819C5.80457 8.11819 5.77175 8.12288 5.66394 8.23538Z" fill="white"/>
<path d="M8.0546 8.23549C7.89991 8.38549 7.89991 8.62924 8.04991 8.80736L8.16241 8.93861L13.0327 8.95267C16.5062 8.96205 17.9499 8.95267 18.0765 8.91517C18.3812 8.82611 18.4608 8.47455 18.2358 8.22142L18.1421 8.1183H13.1546H8.1671L8.0546 8.23549Z" fill="white"/>
<path d="M5.66406 10.626C5.57969 10.7057 5.54688 10.79 5.54688 10.9166C5.55156 11.2635 5.71094 11.3525 6.34375 11.3525C6.88281 11.3525 7.05625 11.2916 7.13125 11.0807C7.19688 10.8932 7.15 10.7104 7.00938 10.6025C6.91094 10.5229 6.82188 10.5088 6.33438 10.5088C5.80469 10.5088 5.77188 10.5135 5.66406 10.626Z" fill="white"/>
<path d="M8.05918 10.6304C7.89043 10.7992 7.89043 11.057 8.05918 11.2164L8.18105 11.3289L13.0842 11.3429C16.792 11.3523 18.0248 11.3382 18.1279 11.2961C18.3904 11.1882 18.442 10.7804 18.2123 10.6023C18.0998 10.5086 18.0061 10.5086 13.1404 10.5086H8.18574L8.05918 10.6304Z" fill="white"/>
<path d="M5.75765 12.9557C5.50921 13.0916 5.46233 13.4338 5.66858 13.626C5.78577 13.7385 5.82796 13.7432 6.34358 13.7432C6.95765 13.7432 7.10296 13.6869 7.15452 13.4291C7.18733 13.2463 7.07483 13.0025 6.92952 12.9463C6.76546 12.8854 5.87483 12.89 5.75765 12.9557Z" fill="white"/>
<path d="M8.14825 12.9557C7.89981 13.0963 7.85763 13.4197 8.05919 13.6213L8.18575 13.7432H13.1264C16.5764 13.7432 18.0951 13.7291 18.1654 13.6916C18.3108 13.6119 18.3998 13.3588 18.3389 13.1854C18.2311 12.8854 18.5076 12.8994 13.1311 12.8994C9.54044 12.9041 8.21856 12.9182 8.14825 12.9557Z" fill="white"/>
<path d="M5.78594 15.3416C5.62188 15.4072 5.55156 15.5244 5.54688 15.726C5.54688 15.8525 5.57969 15.9369 5.66406 16.0166C5.77188 16.1291 5.80469 16.1338 6.35781 16.1338C6.89688 16.1338 6.94375 16.1291 7.03281 16.026C7.16875 15.876 7.19688 15.7635 7.13594 15.5854C7.06094 15.3557 6.87344 15.29 6.33438 15.2947C6.09531 15.2947 5.84688 15.3182 5.78594 15.3416Z" fill="white"/>
<path d="M8.2186 15.3229C7.92798 15.4307 7.83892 15.8057 8.05454 16.0166L8.16704 16.1338H13.1311C18.0061 16.1338 18.0999 16.1338 18.2124 16.04C18.4561 15.8525 18.3905 15.44 18.1092 15.3416C17.9967 15.3041 16.6139 15.29 13.1217 15.2947C10.4639 15.2947 8.2561 15.3088 8.2186 15.3229Z" fill="white"/>
<path d="M5.85136 17.7135C5.55136 17.7932 5.43417 18.215 5.65448 18.4213C5.75292 18.515 5.81386 18.5244 6.34823 18.5244C6.91542 18.5244 6.93886 18.5197 7.04667 18.4072C7.20604 18.2385 7.19667 17.9994 7.03261 17.8307C6.91542 17.7135 6.87792 17.7041 6.42792 17.6947C6.16073 17.69 5.90292 17.6994 5.85136 17.7135Z" fill="white"/>
<path d="M8.23269 17.7135C7.95613 17.7697 7.84363 18.201 8.05457 18.4072L8.16707 18.5244H13.1546H18.1421L18.2452 18.4119C18.3999 18.2479 18.3905 17.99 18.2311 17.826L18.1093 17.7041L13.2202 17.6994C10.5343 17.6947 8.28894 17.7041 8.23269 17.7135Z" fill="white"/>
</svg>
