<svg width="25" height="25" viewBox="0 0 25 25" fill="none" xmlns="http://www.w3.org/2000/svg">
<path d="M5.49063 0.435644C5.3875 0.548143 5.33594 0.726269 5.12969 1.73877C4.99844 2.38564 4.89062 2.98564 4.89062 3.07939C4.89062 3.17783 4.92813 3.29971 4.98438 3.37002C5.03594 3.43564 5.51875 3.71689 6.07188 4.00752C6.87344 4.42939 7.10313 4.52783 7.25781 4.52783C7.60938 4.52783 7.825 4.19033 7.68906 3.86221C7.63281 3.72627 7.52969 3.65596 6.97656 3.36064L6.32969 3.01377L6.44219 2.92939C6.50313 2.88252 6.90156 2.66689 7.32812 2.45127C8.93125 1.64502 10.4688 1.28408 12.2969 1.28408C14.4344 1.28877 16.5063 1.91689 18.2734 3.09814C21.0672 4.96377 22.8344 7.87939 23.1766 11.1794C23.2563 11.9435 23.2094 13.3497 23.0781 14.0903C22.8859 15.1731 22.5109 16.2981 22.0188 17.2591C21.7188 17.845 21.7 18.0138 21.9016 18.22C22.0141 18.3278 22.0797 18.356 22.2438 18.356C22.3563 18.356 22.4969 18.3231 22.5531 18.281C22.6844 18.1919 23.1578 17.2591 23.4344 16.5419C24.775 13.1153 24.4094 9.20596 22.4453 5.99971C20.5375 2.88252 17.3547 0.824707 13.75 0.379395C13.0703 0.299706 11.5703 0.285645 10.9 0.360643C9.50313 0.510643 8.15313 0.913769 6.82656 1.57939C6.43281 1.77627 6.10938 1.92627 6.10938 1.90752C6.10938 1.89346 6.16094 1.63096 6.22188 1.33096C6.38594 0.534081 6.29688 0.309082 5.82813 0.309082C5.65 0.309082 5.58906 0.33252 5.49063 0.435644Z" fill="white"/>
<path d="M5.79543 6.23407C5.14386 6.44032 4.64699 7.01219 4.51574 7.71532C4.4548 8.04813 4.45011 14.5966 4.51574 14.9388C4.62824 15.5388 5.04074 16.0731 5.59386 16.3356C5.82355 16.4434 5.9173 16.4575 6.51261 16.4716L7.17824 16.4903L6.8548 17.1091C6.4798 17.8356 6.45168 17.9997 6.6673 18.22C6.93449 18.4825 6.99543 18.4638 8.97355 17.4419L10.7501 16.5278H14.3923C16.5673 16.5278 18.1704 16.5091 18.3673 16.4809C19.0142 16.3872 19.5298 16.0075 19.8111 15.4122L19.9611 15.0981V11.3247V7.55126L19.8111 7.23719C19.6282 6.84344 19.3001 6.51063 18.9298 6.32782L18.6486 6.19188L12.3204 6.18251C7.17824 6.17782 5.9548 6.18719 5.79543 6.23407ZM18.5548 7.27001C18.7048 7.36376 18.8173 7.48094 18.8923 7.61688L19.0001 7.82313V11.3247V14.8263L18.8923 15.0325C18.8173 15.1684 18.7048 15.2856 18.5548 15.3794L18.3298 15.52L14.3642 15.5434L10.3986 15.5669L9.30168 16.1434C8.69699 16.4575 8.19543 16.7153 8.18605 16.7153C8.17668 16.7153 8.23293 16.5888 8.31261 16.4341C8.48605 16.0872 8.49543 15.8809 8.33605 15.6934L8.21886 15.5528L7.19699 15.5341C6.2548 15.52 6.16574 15.5106 5.98293 15.4122C5.74855 15.2903 5.57511 15.0747 5.5048 14.8169C5.43449 14.5544 5.43449 8.09501 5.5048 7.83251C5.59855 7.48563 5.85636 7.24188 6.22668 7.14813C6.30636 7.12938 9.05793 7.12001 12.3486 7.12001L18.3298 7.12938L18.5548 7.27001Z" fill="white"/>
<path d="M7.48277 8.58252C7.33277 8.69033 7.26246 8.94346 7.32808 9.14502C7.42652 9.44971 7.42652 9.44971 8.99683 9.44971H10.4125L10.5343 9.30439C10.6187 9.20596 10.6562 9.10752 10.6562 8.98096C10.6562 8.85439 10.6187 8.75596 10.5343 8.65752L10.4125 8.51221H8.99683C7.81558 8.51221 7.56715 8.52158 7.48277 8.58252Z" fill="white"/>
<path d="M7.48277 10.9263C7.33277 11.0341 7.26246 11.2872 7.32808 11.4888C7.4359 11.8122 7.2109 11.7935 11.0687 11.7935H14.5562L14.6921 11.6576C14.875 11.4747 14.8796 11.2076 14.7062 11.0013L14.5843 10.856H11.0828C8.04527 10.856 7.57183 10.8654 7.48277 10.9263Z" fill="white"/>
<path d="M7.52965 13.2701C7.37965 13.3779 7.30933 13.631 7.37496 13.8326C7.48277 14.156 7.26246 14.1372 11.0921 14.1372H14.5562L14.6921 14.0013C14.875 13.8185 14.8796 13.5513 14.7062 13.3451L14.5843 13.1997H11.1062C8.08746 13.1997 7.61871 13.2091 7.52965 13.2701Z" fill="white"/>
<path d="M1.75944 6.66064C1.34225 6.84346 0.554751 9.18721 0.339126 10.8794C0.254751 11.5591 0.264126 13.0966 0.362563 13.8044C0.611001 15.6513 1.23913 17.3435 2.21881 18.82C4.19225 21.8013 7.23444 23.695 10.7641 24.145C11.411 24.2294 12.8876 24.2388 13.5532 24.1638C14.8657 24.0231 16.361 23.5919 17.4485 23.0435C17.7579 22.8888 17.8329 22.8653 17.8094 22.9356C17.6266 23.5403 17.5891 23.756 17.6407 23.906C17.7063 24.1075 17.8657 24.2153 18.1048 24.2153C18.4516 24.2153 18.5032 24.1216 18.8219 23.02C19.1454 21.8856 19.1735 21.6466 19.0001 21.4778C18.9344 21.4169 18.536 21.1638 18.1094 20.9153C17.4813 20.545 17.3032 20.4653 17.1485 20.4653C16.9048 20.4653 16.7641 20.5638 16.6985 20.7841C16.6094 21.0935 16.7126 21.2481 17.2094 21.5435C17.4438 21.6841 17.6266 21.8153 17.6126 21.8341C17.5704 21.9044 16.7969 22.2747 16.2157 22.5044C13.6891 23.4981 10.6751 23.4794 8.15319 22.4528C5.61725 21.4169 3.60631 19.5513 2.40631 17.1138C2.20006 16.7013 1.95163 16.12 1.85319 15.8247C0.943814 13.1435 1.07038 10.3075 2.2235 7.75283C2.48131 7.18564 2.51413 6.95127 2.35475 6.78252C2.25631 6.67939 2.0735 6.59033 1.97038 6.59033C1.93756 6.59502 1.84381 6.62314 1.75944 6.66064Z" fill="white"/>
</svg>
