<svg width="25" height="25" viewBox="0 0 25 25" fill="none" xmlns="http://www.w3.org/2000/svg">
<path d="M19.6547 1.96789C18.0797 3.5382 18.0656 3.56633 18.1265 5.00539L18.1547 5.77414L17.9484 5.61945C16.2468 4.33508 14.2547 3.59445 12.1453 3.4632C9.38435 3.28977 6.69372 4.16633 4.59372 5.93352C1.42497 8.59133 0.0890331 12.796 1.12966 16.8507C1.58903 18.646 2.54528 20.3007 3.91403 21.6695C5.66716 23.4226 7.83278 24.4632 10.3078 24.7445C11.0297 24.8241 12.5812 24.7773 13.289 24.6507C15.5156 24.2523 17.4093 23.2679 19.0078 21.6695C20.3765 20.3054 21.3047 18.707 21.7922 16.8648C22.6359 13.6866 21.9328 10.1616 19.9547 7.63508L19.7203 7.33508L20.475 7.36789C21.914 7.42883 21.9562 7.41008 23.5265 5.83508C24.689 4.6632 24.7172 4.63508 24.7172 4.44758C24.7172 4.20852 24.6093 4.04445 24.4125 3.98352C24.3281 3.95539 23.714 3.89445 23.0484 3.85227C22.3828 3.80539 21.8156 3.75383 21.7875 3.73508C21.7547 3.71633 21.7031 3.24289 21.6468 2.51164C21.6 1.86008 21.5484 1.25539 21.5343 1.16633C21.4968 0.922579 21.3281 0.78664 21.0609 0.78664H20.8406L19.6547 1.96789ZM19.9593 4.82258L19.1484 5.66633L19.1109 4.9632C19.0593 3.94602 19.0312 4.00695 19.9125 3.11633L20.6484 2.3757L20.7093 3.17727L20.7656 3.97883L19.9593 4.82258ZM12.839 4.51789C13.8468 4.6632 14.864 4.98664 15.8015 5.45539C16.3828 5.74602 17.3062 6.3507 17.6625 6.67883L17.9109 6.90383L17.3953 7.41476L16.8843 7.9257L16.5843 7.69133C14.5593 6.08352 11.8125 5.50695 9.34685 6.17727C8.71403 6.34601 8.5031 6.44914 8.41403 6.61789C8.25935 6.89914 8.41403 7.2507 8.7281 7.3257C8.81247 7.34914 9.01872 7.31164 9.33747 7.2132C10.1578 6.96945 10.5843 6.90851 11.4609 6.90851C12.3843 6.90851 12.989 7.00695 13.7859 7.28351C14.5734 7.55539 15.1453 7.86477 15.8578 8.39914L16.1718 8.63351L15.6515 9.15851L15.1312 9.68351L14.7797 9.43039C13.139 8.25383 10.889 8.04289 9.05153 8.9007C7.44841 9.64602 6.31403 11.0335 5.86872 12.7866C5.75622 13.2366 5.74685 13.3538 5.74685 14.146C5.75153 14.9241 5.76091 15.0601 5.86872 15.4585C6.33747 17.1929 7.33591 18.4679 8.8406 19.232C10.3312 19.9913 12.0187 20.0663 13.6406 19.4382C14.2687 19.1991 14.4656 18.9273 14.2781 18.557C14.1468 18.3085 13.8515 18.257 13.5 18.4163C11.8125 19.1991 9.92341 18.9695 8.47966 17.8116C6.79685 16.4616 6.23435 14.0757 7.14372 12.1491C7.69685 10.9866 8.5406 10.1804 9.7031 9.70695C10.3312 9.45383 10.6828 9.3882 11.4609 9.3882C12.239 9.3882 12.5953 9.45383 13.2187 9.70695C13.5609 9.84758 14.0625 10.1241 14.2968 10.3023L14.414 10.3913L13.8937 10.9116L13.3781 11.432L13.0218 11.2445C12.0984 10.7429 10.8656 10.7335 9.94685 11.2163C8.84528 11.7929 8.2031 12.8616 8.2031 14.1179C8.2031 14.7038 8.29216 15.0835 8.5406 15.5991C8.69528 15.9226 8.80778 16.0726 9.15935 16.4241C9.51091 16.7757 9.66091 16.8882 9.98435 17.0429C10.5 17.2913 10.8797 17.3804 11.4609 17.3804C12.0328 17.3804 12.4218 17.2913 12.914 17.0523C14.039 16.5085 14.7187 15.407 14.7187 14.1226C14.7187 13.4241 14.55 12.857 14.1703 12.257L14.0859 12.1304L14.6015 11.6148L15.1172 11.0945L15.239 11.2398C15.4078 11.4366 15.7031 11.9476 15.8578 12.3085C16.2047 13.1288 16.3125 14.1648 16.125 15.0132C16.0687 15.271 16.0125 15.5898 15.9984 15.7257C15.975 15.9507 15.9843 15.9788 16.1156 16.1148C16.2281 16.2273 16.2984 16.2554 16.4531 16.2554C16.8 16.2554 16.9312 16.0445 17.114 15.2007C17.1984 14.8163 17.1984 13.471 17.114 13.0445C16.95 12.2148 16.575 11.3616 16.0922 10.7195L15.8343 10.382L16.3593 9.86164L16.8797 9.34133L17.0203 9.50539C17.2828 9.81476 17.7047 10.4663 17.9203 10.8929C19.1015 13.246 18.9187 15.9413 17.4328 18.1773C17.039 18.7726 16.1109 19.7007 15.5156 20.0945C12.989 21.7726 9.9281 21.7726 7.40153 20.0945C6.81091 19.7007 5.88278 18.7726 5.48903 18.1773C3.83435 15.6835 3.81091 12.6273 5.4281 10.1616C5.64372 9.8382 5.6906 9.7257 5.69528 9.56164C5.69528 9.3882 5.67185 9.33664 5.5406 9.21945C5.37653 9.06945 5.19841 9.04601 4.98747 9.13976C4.8281 9.21476 4.38278 9.88508 4.07341 10.5132C2.70935 13.3163 3.05622 16.6913 4.95935 19.1382C8.01091 23.0616 13.7672 23.432 17.2687 19.9304C18.4875 18.7116 19.2937 17.1413 19.575 15.4351C19.7015 14.6991 19.6875 13.4288 19.5562 12.6835C19.3078 11.3148 18.6703 9.92727 17.8265 8.91477L17.5875 8.62883L18.1078 8.10851L18.6328 7.58352L18.9328 7.94914C20.9578 10.3866 21.6609 13.7335 20.7843 16.7851C19.7297 20.4648 16.6125 23.1695 12.7828 23.732C12.1172 23.8304 10.8093 23.8304 10.139 23.732C7.26091 23.3101 4.72966 21.6601 3.2156 19.2132C1.85153 17.0054 1.42497 14.3195 2.04372 11.8023C2.53122 9.83352 3.67028 8.01008 5.22653 6.70226C7.3406 4.9257 10.1156 4.13352 12.839 4.51789ZM22.5609 4.79914C22.8375 4.81789 23.0625 4.84602 23.0625 4.86008C23.0625 4.87883 22.739 5.21164 22.35 5.6007C21.464 6.47258 21.5062 6.45852 20.3297 6.37883L19.8656 6.3507L20.6812 5.53508L21.4922 4.71477L21.7734 4.74289C21.9281 4.75695 22.2797 4.78508 22.5609 4.79914ZM12.15 11.9429C12.7265 12.121 12.7406 12.0648 11.8359 12.9741C11.0484 13.7663 11.039 13.7757 11.039 13.9773C11.039 14.3148 11.3531 14.5491 11.6812 14.4507C11.7375 14.432 12.1406 14.0663 12.5718 13.6398C13.4625 12.7585 13.3922 12.7773 13.6031 13.3257C13.6922 13.5601 13.7109 13.696 13.7109 14.146C13.7109 14.671 13.7062 14.6945 13.5375 15.0507C12.6843 16.8413 10.2375 16.846 9.38903 15.0601C9.24372 14.7507 9.2156 14.6429 9.19685 14.2632C9.18278 14.0054 9.19685 13.7335 9.22966 13.6116C9.36091 13.0773 9.74528 12.5335 10.2093 12.2148C10.7297 11.8585 11.5172 11.746 12.15 11.9429Z" fill="white"/>
<path d="M6.58603 7.50866C6.25321 7.84148 6.47821 8.36179 6.94696 8.35241C7.36415 8.33835 7.56571 7.82741 7.2704 7.5321C7.08759 7.34929 6.75946 7.33991 6.58603 7.50866Z" fill="white"/>
<path d="M15.2389 17.0708C14.9202 17.2489 14.9296 17.7833 15.2577 17.9333C15.478 18.0364 15.6514 18.0036 15.8249 17.8302C15.9467 17.7083 15.9842 17.6333 15.9842 17.4973C15.9842 17.3614 15.9467 17.2864 15.8249 17.1645C15.6514 16.9911 15.4452 16.9583 15.2389 17.0708Z" fill="white"/>
</svg>
