<svg width="24" height="24" viewBox="0 0 24 24" fill="none" xmlns="http://www.w3.org/2000/svg">
<path d="M6.71094 0.693945C6.47656 0.77832 6.2 0.993944 6.05469 1.19551C5.79687 1.5752 5.79687 1.53769 5.79687 5.82676V9.77832H3.35C1.88281 9.77832 0.832812 9.79707 0.734375 9.82519C0.542187 9.87676 0.29375 10.1111 0.223437 10.308C0.185937 10.3971 0.171875 11.7049 0.171875 14.3439V18.2439L0.279687 18.4502C0.35 18.5955 0.44375 18.6893 0.589062 18.7643L0.795312 18.8721H3.29375H5.79219L5.80625 20.8736C5.82031 22.8096 5.825 22.8893 5.91875 23.0955C6.04062 23.3627 6.31719 23.6486 6.57031 23.7705C6.75312 23.8643 6.88437 23.8643 12.3594 23.8643C17.8344 23.8643 17.9656 23.8643 18.1484 23.7705C18.4016 23.6486 18.6781 23.3627 18.8 23.0955C18.8984 22.8799 18.8984 22.8611 18.9125 18.7736L18.9266 14.6674L19.2875 14.7564C19.9953 14.9346 20.6844 14.7846 21.1625 14.3533C21.3687 14.1658 22.2922 12.7643 22.3812 12.5018C22.5125 12.1268 22.3625 11.6018 22.0625 11.3814C21.8469 11.2174 19.3297 10.2939 19.1094 10.2939H18.9219V9.84863V9.40332H20.8109C22.6766 9.40332 22.7 9.40332 22.9062 9.29551C23.0469 9.22988 23.1547 9.12676 23.2203 9.00488C23.3281 8.81738 23.3281 8.81269 23.3187 6.87207L23.3047 4.92676L23.1969 4.77207C23.1359 4.68769 23.0047 4.57988 22.9062 4.52832C22.7328 4.43926 22.625 4.43457 20.825 4.43457H18.9266L18.9125 3.03769C18.8984 1.72988 18.8937 1.63144 18.8 1.42988C18.6781 1.16269 18.4016 0.876757 18.1484 0.754883C17.9656 0.661133 17.825 0.661133 12.4062 0.651756C8.53906 0.64707 6.80937 0.661133 6.71094 0.693945ZM8.79219 2.00644C8.90469 2.34863 9.04062 2.67676 9.09219 2.73301L9.18594 2.84082H12.3594H15.5328L15.6266 2.73301C15.6781 2.67676 15.8141 2.34863 15.9266 2.00644L16.1328 1.37832L16.9156 1.39707C17.6187 1.41113 17.7078 1.42051 17.8297 1.50957C18.1109 1.71582 18.125 1.80019 18.125 3.17832V4.43457H17.5531C16.8922 4.43457 16.6812 4.50488 16.4844 4.79551L16.3672 4.96426L16.3531 6.75019C16.3437 7.73457 16.3531 8.62519 16.3672 8.73769C16.4047 8.99551 16.6578 9.28613 16.8969 9.35644C16.9953 9.37988 17.3094 9.40332 17.6 9.40332H18.125V10.0549V10.7064L17.8859 10.8611C17.6469 11.0111 17.6469 11.0111 17.4922 10.9314C17.1687 10.758 16.4891 10.2096 16.0344 9.75488C15.5281 9.25332 14.7969 8.31113 14.7969 8.16582C14.7969 8.11426 14.9375 7.85645 15.1062 7.58926C15.4484 7.05488 15.5234 6.84863 15.4812 6.58144C15.4391 6.32832 14.5344 3.92832 14.4125 3.75019C14.2437 3.50176 14.0234 3.38457 13.6906 3.36582C13.5266 3.35645 13.3297 3.36582 13.2547 3.39394C12.9875 3.48769 11.5672 4.43926 11.3984 4.63613C11.3047 4.74394 11.1734 4.94551 11.1031 5.09082C10.9859 5.3252 10.9766 5.39551 10.9766 5.8877C10.9812 6.33769 11 6.49707 11.1078 6.84394C11.5766 8.36269 12.2656 9.67988 13.2031 10.8377C13.5969 11.3252 14.4875 12.2111 14.9844 12.6049C15.8047 13.2564 16.9156 13.9174 17.7828 14.2596L18.125 14.3955V18.4971C18.125 22.308 18.1203 22.608 18.0406 22.758C17.9984 22.8471 17.9 22.9643 17.8297 23.0158C17.6984 23.1143 17.6844 23.1143 12.3594 23.1143C7.03437 23.1143 7.02031 23.1143 6.88906 23.0158C6.59375 22.8002 6.59375 22.7861 6.59375 20.733V18.8721H9.10156C11.1172 18.8721 11.6422 18.858 11.7641 18.8064C11.9609 18.7268 12.1531 18.4971 12.2187 18.2721C12.2469 18.1596 12.2656 16.7768 12.2656 14.3018C12.2609 10.2893 12.2609 10.2893 12.0453 10.0502C11.9984 9.99863 11.8766 9.91426 11.7734 9.86738C11.6 9.78769 11.4125 9.77832 9.09219 9.77832H6.59375V5.86426C6.59375 1.68769 6.58906 1.7627 6.81875 1.55644C6.96875 1.42519 7.16094 1.39707 7.90625 1.39238L8.59062 1.3877L8.79219 2.00644ZM15.2516 1.44394C15.2422 1.47676 15.1953 1.62676 15.1531 1.77207L15.0734 2.04395H12.3594H9.64531L9.54687 1.73457C9.49531 1.56582 9.45312 1.41582 9.45312 1.40644C9.45312 1.39707 10.7609 1.3877 12.3641 1.3877C14.675 1.3877 15.2703 1.40176 15.2516 1.44394ZM13.7516 4.20957C13.775 4.24238 14 4.81894 14.2484 5.48457L14.7031 6.69863L14.6187 6.84394C14.5672 6.92363 14.4172 7.16738 14.2766 7.38301C14.0422 7.75332 14.0234 7.80019 14.0094 8.10957C13.9953 8.42363 14.0047 8.46113 14.1641 8.72363C14.7641 9.7127 16.025 10.9783 17.0328 11.6064C17.3 11.7752 17.6562 11.8314 17.9047 11.7518C17.9937 11.7189 18.2844 11.5596 18.5469 11.3955C18.8094 11.2268 19.0484 11.0908 19.0766 11.0908C19.1516 11.0908 21.5141 11.9814 21.5844 12.0377C21.6125 12.0658 21.6406 12.1174 21.6406 12.1549C21.6406 12.2814 20.7922 13.5705 20.5859 13.758C20.2484 14.0674 19.9719 14.1049 19.3109 13.9268C16.3859 13.1439 13.7797 10.9361 12.4531 8.12363C12.1297 7.43926 11.7922 6.40332 11.7594 6.01426C11.7172 5.40019 11.8766 5.19394 12.875 4.55644C13.4984 4.16269 13.6625 4.09707 13.7516 4.20957ZM21.7344 5.34394C21.6687 5.40488 21.2187 5.80801 20.7312 6.23457L19.8453 7.0127L19.7234 6.90488C19.6578 6.84394 19.2312 6.46894 18.7812 6.0752C18.3312 5.68144 17.9281 5.32988 17.8906 5.29707C17.8344 5.24082 18.1297 5.23145 19.8359 5.23145H21.8516L21.7344 5.34394ZM17.8906 6.37519C18.2141 6.65644 18.5047 6.91426 18.5422 6.94238C18.5937 6.98926 18.4719 7.10645 17.8953 7.57051C17.5109 7.87988 17.1781 8.13769 17.1641 8.13769C17.15 8.13769 17.1406 7.59863 17.1406 6.93769C17.1406 5.79863 17.1453 5.73769 17.225 5.79863C17.2672 5.83613 17.5672 6.09394 17.8906 6.37519ZM22.5219 7.52363L22.5078 8.13769L21.7953 7.5752L21.0781 7.00801L21.7953 6.37988L22.5078 5.75176L22.5219 6.33301C22.5266 6.65176 22.5266 7.19082 22.5219 7.52363ZM19.4703 7.7627C19.625 7.89863 19.7281 7.95019 19.8359 7.95019C19.9484 7.95019 20.0562 7.89863 20.2156 7.7627C20.3422 7.65957 20.4547 7.5752 20.4687 7.5752C20.4828 7.5752 20.7828 7.80957 21.1437 8.09082L21.7906 8.60644H19.8547C18.6734 8.60644 17.9375 8.5877 17.9656 8.56426C18.0969 8.43301 19.1844 7.57988 19.2172 7.5752C19.2406 7.5752 19.3531 7.65957 19.4703 7.7627ZM11.4594 14.3346L11.4687 18.0752H6.21875H0.96875V14.3252V10.5752L6.20937 10.5846L11.4453 10.5986L11.4594 14.3346Z" fill="white"/>
<path d="M11.1219 20.3018C10.4423 20.5455 10.2548 21.5111 10.7985 22.0221C11.061 22.2705 11.1829 22.2939 12.3594 22.2939C13.536 22.2939 13.6579 22.2705 13.9204 22.0221C14.136 21.8205 14.2344 21.5814 14.2344 21.2768C14.2298 20.8033 13.9485 20.3955 13.5454 20.283C13.2735 20.2033 11.3469 20.2221 11.1219 20.3018ZM13.3485 21.0752C13.4516 21.1314 13.4704 21.3518 13.3813 21.4408C13.3016 21.5205 11.4173 21.5205 11.3376 21.4408C11.2532 21.3564 11.2673 21.1361 11.3657 21.0799C11.4735 21.0143 13.2266 21.0143 13.3485 21.0752Z" fill="white"/>
<path d="M3.59376 11.6486C2.54845 11.9908 2.10782 13.1627 2.67501 14.1002L2.82501 14.3533L2.54845 14.5127C1.93439 14.8736 1.41876 15.6096 1.26876 16.3502C1.20782 16.6549 1.20314 16.7299 1.25939 16.8424C1.37657 17.0908 1.35314 17.0908 4.10001 17.0908H6.65001L6.78595 16.9549C6.94532 16.7955 6.9547 16.6736 6.85157 16.2705C6.66407 15.5486 6.16251 14.8549 5.57189 14.5127L5.29532 14.3486L5.42189 14.1564C5.9797 13.3502 5.67032 12.1736 4.78907 11.7518C4.60626 11.6627 4.46095 11.6346 4.13282 11.6252C3.90314 11.6158 3.65939 11.6252 3.59376 11.6486ZM4.42814 12.4689C4.59689 12.558 4.79376 12.7736 4.8547 12.933C5.08439 13.5424 4.4797 14.2314 3.87501 14.0486C3.64064 13.9783 3.36407 13.7439 3.28439 13.5424C3.12032 13.1533 3.32657 12.6424 3.71095 12.4689C3.89845 12.3846 4.26876 12.3846 4.42814 12.4689ZM4.68595 14.9814C5.21095 15.1455 5.7547 15.633 5.96095 16.1252L6.03126 16.2939H4.06251H2.09376L2.21564 16.0455C2.6797 15.1221 3.70626 14.6768 4.68595 14.9814Z" fill="white"/>
<path d="M7.59683 12.3752C7.49839 12.4596 7.46558 12.5252 7.46558 12.6611C7.46558 12.7971 7.49839 12.8627 7.59683 12.9471L7.72339 13.0596H9.17651H10.6296L10.7421 12.9424C10.8218 12.8674 10.8593 12.7783 10.8593 12.6611C10.8593 12.5439 10.8218 12.4549 10.7421 12.3799L10.6296 12.2627H9.17651H7.72339L7.59683 12.3752Z" fill="white"/>
<path d="M7.61555 13.9971C7.48898 14.0768 7.41867 14.3439 7.49367 14.4986C7.60617 14.733 7.68117 14.7471 9.12961 14.7471C10.5124 14.7471 10.7234 14.7236 10.8124 14.5596C10.8968 14.4002 10.8687 14.1611 10.7515 14.0533C10.6437 13.9502 10.6202 13.9502 9.16711 13.9502C8.29523 13.9502 7.66242 13.9736 7.61555 13.9971Z" fill="white"/>
<path d="M7.67197 15.6518C7.49853 15.7408 7.41884 15.9377 7.47978 16.1158C7.57353 16.3877 7.56416 16.383 9.17666 16.3877H10.6579L10.7563 16.2799C10.8876 16.1439 10.8923 15.8768 10.7704 15.7268L10.6813 15.6143L9.23291 15.6002C8.12666 15.5908 7.76103 15.6049 7.67197 15.6518Z" fill="white"/>
</svg>
