<svg width="25" height="24" viewBox="0 0 25 24" fill="none" xmlns="http://www.w3.org/2000/svg">
<path d="M14.7734 0.750484C14.4875 0.886422 14.225 1.14423 14.0844 1.43017L13.9766 1.6458V4.55205V7.4583L14.1031 7.69736C14.2625 7.99736 14.5953 8.29736 14.8766 8.39111C15.0031 8.4333 15.2516 8.46611 15.4625 8.46611H15.8281V9.38017C15.8281 10.2942 15.8281 10.2989 15.9453 10.4114C16.0672 10.538 16.2313 10.5614 16.4 10.477C16.4609 10.4442 16.9297 9.98486 17.4406 9.4458L18.3734 8.4708L20.7688 8.45673C23.1359 8.44267 23.1641 8.44267 23.3563 8.33955C23.6703 8.1708 23.8297 8.01142 23.9797 7.70673L24.125 7.4208V4.57548C24.125 1.31298 24.1391 1.44423 23.7313 1.03173C23.3094 0.614548 23.5953 0.637984 19.0203 0.637984H15.0078L14.7734 0.750484ZM23.0281 1.50048C23.1078 1.54736 23.2156 1.65517 23.2625 1.73486C23.3469 1.8708 23.3516 2.02549 23.3656 4.34111C23.375 5.6958 23.3656 6.91455 23.3516 7.05517C23.3281 7.24736 23.2859 7.34111 23.1641 7.47705L23.0094 7.6458L20.5063 7.66923C19.1328 7.6833 18.0031 7.70205 17.9938 7.70673C17.9844 7.71142 17.675 8.02548 17.3047 8.40517L16.6297 9.09892L16.625 8.52236C16.625 7.9458 16.625 7.94111 16.4891 7.80517C16.3531 7.66923 16.3484 7.66923 15.7719 7.66923C15.2891 7.66923 15.1719 7.65517 15.05 7.58017C14.7453 7.39267 14.75 7.43955 14.75 4.55673C14.75 1.78173 14.75 1.7583 14.975 1.55674C15.0312 1.50986 15.1438 1.45361 15.2281 1.43486C15.3125 1.41142 17.0703 1.39736 19.1328 1.40205C22.7188 1.41142 22.8875 1.41611 23.0281 1.50048Z" fill="white"/>
<path d="M18.5563 1.71626C18.4719 1.76782 18.3641 1.87564 18.3078 1.96001C18.2141 2.11001 18.2141 2.1522 18.2422 3.49751C18.261 4.25689 18.2938 4.97876 18.3172 5.09595C18.4344 5.6397 19.0766 5.86939 19.5219 5.5272C19.7891 5.32564 19.8032 5.23657 19.8641 3.64751L19.9203 2.19439L19.8078 1.99282C19.6532 1.72095 19.4516 1.62251 19.0391 1.62251C18.7953 1.62251 18.6735 1.64595 18.5563 1.71626ZM19.1047 2.71001C19.1 2.87407 19.0813 3.15064 19.0625 3.33345C19.0344 3.62407 19.0297 3.59126 19.025 3.03814C19.0203 2.65376 19.0344 2.41939 19.0625 2.41939C19.0907 2.41939 19.1047 2.54595 19.1047 2.71001Z" fill="white"/>
<path d="M18.6266 5.84561C18.1344 6.10811 18.0407 6.79717 18.4485 7.20499C18.9875 7.74405 19.9063 7.37374 19.9063 6.61905C19.9063 6.2628 19.7329 5.97217 19.4282 5.8128C19.2454 5.71905 18.8375 5.73311 18.6266 5.84561ZM19.1094 6.58155C19.1094 6.64249 19.0532 6.68467 19.0063 6.65655C18.9594 6.62842 19.0016 6.54405 19.0672 6.54405C19.0907 6.54405 19.1094 6.5628 19.1094 6.58155Z" fill="white"/>
<path d="M3.06413 9.09424C2.83913 9.17861 2.71726 9.28643 2.60476 9.50674C2.52038 9.6708 2.51569 9.82549 2.51569 12.3333V14.9817H1.78913C1.12351 14.9817 1.05319 14.9911 0.968819 15.0755C0.879756 15.1646 0.875069 15.2302 0.875069 16.4536C0.875069 18.0896 0.790694 17.9536 1.78444 17.9724L2.51569 17.9864V20.6208C2.51569 23.0864 2.52507 23.2692 2.60476 23.4474C2.65163 23.5552 2.76413 23.6911 2.84851 23.7521L3.00788 23.8646L7.17976 23.8786C9.47663 23.8833 11.4032 23.8786 11.4688 23.8646C11.6235 23.8271 14.361 21.1036 14.4501 20.9021C14.5063 20.7755 14.5157 19.8427 14.5157 15.2161C14.5157 9.87705 14.511 9.67549 14.4266 9.50674C14.3141 9.28643 14.1923 9.17861 13.9673 9.09424C13.7048 9.00049 3.32663 9.00049 3.06413 9.09424ZM13.7094 15.1083L13.7188 20.3724H12.5282C10.8782 20.3724 10.9532 20.2927 10.9532 22.013V23.138L7.14694 23.1286L3.33601 23.1146L3.32194 20.5458L3.31257 17.9817H3.64069H3.96882V18.2817C3.96882 18.6521 4.09538 18.863 4.37194 18.9614C4.72351 19.0833 4.79382 19.0458 6.22819 17.9208C7.43288 16.9739 7.55944 16.8614 7.61569 16.6833C7.66257 16.5333 7.66726 16.4442 7.62507 16.2989C7.57351 16.0974 7.51726 16.0505 5.19694 14.2177C4.95788 14.0302 4.85476 13.9786 4.67663 13.9599C4.22663 13.9177 3.96882 14.1849 3.96882 14.6864V14.9817H3.64069H3.31257V12.4364C3.31257 11.0349 3.32663 9.87236 3.34538 9.8583C3.35944 9.83955 5.69851 9.83018 8.53444 9.83486L13.6954 9.84893L13.7094 15.1083ZM5.83913 15.7552C6.33132 16.1396 6.72976 16.4677 6.72976 16.4817C6.72976 16.4958 6.29382 16.8474 5.75944 17.2599L4.78913 18.0146L4.77507 17.7989C4.76101 17.4802 4.72819 17.3864 4.61569 17.2786C4.51726 17.1896 4.45632 17.1849 3.06882 17.1849H1.62507V16.4817V15.7786H3.05944H4.49382L4.62976 15.6427C4.75163 15.5208 4.76569 15.4739 4.76569 15.2161C4.76569 14.9349 4.77038 14.9255 4.85944 14.9864C4.90632 15.0239 5.35163 15.3661 5.83913 15.7552ZM13.1094 21.1833C13.1094 21.188 12.8048 21.4974 12.4298 21.8724L11.7501 22.5521V21.8583V21.1692H12.4298C12.8048 21.1692 13.1094 21.1739 13.1094 21.1833Z" fill="white"/>
<path d="M5.09843 11.8601C4.94374 12.0241 4.95311 12.296 5.11718 12.4366L5.23905 12.5444H8.51093C11.75 12.5444 11.7875 12.5444 11.9094 12.446C12.0734 12.3147 12.0828 12.0007 11.9234 11.8507L11.8156 11.7476H8.51093H5.20155L5.09843 11.8601Z" fill="white"/>
<path d="M6.68278 14.0397C6.53747 14.1851 6.51403 14.3163 6.60309 14.4804C6.72028 14.7007 6.66872 14.696 9.29372 14.7007C11.7453 14.7007 11.7875 14.7007 11.9093 14.6022C12.0078 14.5272 12.0312 14.4663 12.0312 14.3022C12.0312 14.1382 12.0078 14.0772 11.9093 14.0022C11.7875 13.9038 11.7406 13.9038 9.30309 13.9038H6.81872L6.68278 14.0397Z" fill="white"/>
<path d="M8.34693 16.1257C8.1735 16.2007 8.09381 16.3976 8.14537 16.5991C8.22037 16.8569 8.20162 16.8569 10.086 16.8569C11.7735 16.8569 11.8297 16.8522 11.9282 16.7632C12.0407 16.6601 12.0688 16.4022 11.9844 16.2476C11.8954 16.0788 11.6891 16.0601 10.0672 16.0601C8.8485 16.0647 8.45943 16.0788 8.34693 16.1257Z" fill="white"/>
<path d="M6.68299 18.3521C6.53299 18.4739 6.5283 18.7833 6.6783 18.9286L6.78611 19.0364L9.20955 19.0505C10.5408 19.0552 11.6799 19.0505 11.7408 19.0364C12.0267 18.9661 12.1392 18.5583 11.9283 18.3567C11.8299 18.263 11.7783 18.263 9.30799 18.263C6.90799 18.263 6.78611 18.2677 6.68299 18.3521Z" fill="white"/>
<path d="M5.11729 20.5272C5.01885 20.6069 4.99072 20.6772 4.99072 20.8179C4.99072 20.9585 5.01885 21.0288 5.11729 21.1085L5.23916 21.2163H7.34385H9.44853L9.56572 21.1085C9.75322 20.9491 9.76728 20.7476 9.61728 20.5694L9.49072 20.4194H7.36729H5.23916L5.11729 20.5272Z" fill="white"/>
<path d="M18.8703 12.4038C18.8281 12.4272 18.7438 12.5726 18.6875 12.7179C18.6266 12.8679 18.5656 13.0085 18.5469 13.0272C18.5281 13.0507 18.35 13.1397 18.1531 13.2241L17.7922 13.3788L17.5344 13.2663C17.0891 13.0694 17.0516 13.0835 16.475 13.6601C15.9031 14.2319 15.8984 14.246 16.0859 14.6726L16.2031 14.9397L16.0531 15.3335L15.8984 15.7226L15.6031 15.8257C15.1813 15.9757 15.1719 15.9991 15.1719 16.8335C15.1719 17.6538 15.1766 17.6632 15.6406 17.8413L15.8984 17.9397L16.0531 18.3288L16.2031 18.7179L16.0859 18.9851C15.8938 19.4163 15.9031 19.4351 16.475 20.0069C17.0469 20.5788 17.0844 20.5929 17.5109 20.396L17.7594 20.2788L18.1484 20.4288L18.5422 20.5835L18.6406 20.8413C18.8188 21.3054 18.8281 21.3101 19.6484 21.3101C20.4781 21.3101 20.5016 21.3007 20.6562 20.8835C20.75 20.6351 20.7875 20.5882 20.9328 20.5272C21.0266 20.4944 21.1953 20.4194 21.3125 20.3679L21.5234 20.2741L21.7953 20.3913C22.2266 20.5835 22.2453 20.5788 22.8172 20.0116C23.3984 19.4397 23.4125 19.3976 23.2156 18.9429L23.0984 18.6851L23.2297 18.3897C23.3047 18.2304 23.375 18.0663 23.3891 18.0241C23.4031 17.9819 23.5344 17.9022 23.6891 17.8413C24.125 17.6726 24.125 17.6679 24.125 16.8101C24.125 15.9663 24.1391 15.9991 23.6891 15.8163L23.4172 15.7085L23.2625 15.3288L23.1125 14.9444L23.2203 14.7007C23.4172 14.2507 23.3938 14.1897 22.8453 13.6366C22.2922 13.0882 22.2219 13.0647 21.7859 13.2663L21.5469 13.3741L21.1578 13.2194L20.7734 13.0647L20.6703 12.7976C20.4922 12.3476 20.5156 12.3569 19.6766 12.3569C19.2734 12.3569 18.9125 12.3804 18.8703 12.4038ZM20.0234 13.3741C20.1406 13.6882 20.2016 13.7444 20.5531 13.8569C20.7219 13.9132 20.9797 14.0163 21.1297 14.096C21.4578 14.2601 21.5281 14.2647 21.8328 14.1288L22.0719 14.0304L22.2594 14.2226L22.4516 14.4147L22.3531 14.6585C22.2219 14.9726 22.2219 15.0241 22.3859 15.3522C22.4656 15.5022 22.5688 15.7647 22.625 15.9335C22.7375 16.2804 22.7797 16.3272 23.1125 16.4632L23.3516 16.5569V16.8288V17.1007L23.1172 17.1944C22.7938 17.321 22.7375 17.3819 22.6203 17.7429C22.5641 17.9116 22.4609 18.1647 22.3859 18.296C22.2219 18.5913 22.2172 18.6804 22.3531 19.0038L22.4563 19.2522L22.2641 19.4397L22.0766 19.6319L21.8516 19.5335C21.5469 19.3976 21.4156 19.4069 21.0453 19.5944C20.8672 19.6835 20.6281 19.7819 20.5063 19.8101C20.2484 19.8757 20.1359 19.9882 20.0234 20.2882L19.9391 20.5132H19.6625C19.3859 20.5132 19.3859 20.5132 19.3156 20.3397C19.1703 19.9554 19.1469 19.9366 18.7344 19.7819C18.5141 19.7069 18.2469 19.5944 18.1391 19.5382C17.8953 19.4116 17.7406 19.4116 17.4734 19.5335L17.2625 19.6272L17.0563 19.421L16.85 19.2147L16.9484 19.0226C17.0797 18.7647 17.0703 18.5913 16.9109 18.2726C16.8406 18.1272 16.7328 17.8601 16.6719 17.6819L16.5688 17.3632L16.2688 17.2272L15.9688 17.0913V16.8101C15.9688 16.6413 15.9875 16.5288 16.0203 16.5288C16.0438 16.5288 16.1797 16.4772 16.3203 16.4116C16.5641 16.2944 16.5734 16.2804 16.6719 15.9804C16.7281 15.8116 16.8313 15.5491 16.9109 15.3991C17.075 15.0757 17.0797 14.9304 16.9484 14.6304L16.85 14.4054L17.0422 14.2179L17.2297 14.0257L17.4781 14.1288C17.7922 14.2554 17.9188 14.2601 18.125 14.1335C18.2141 14.0772 18.4766 13.9601 18.7063 13.8757C18.9359 13.7913 19.1422 13.6929 19.1656 13.6601C19.1844 13.6272 19.2406 13.5007 19.2828 13.3741L19.3672 13.1538H19.6531H19.9391L20.0234 13.3741Z" fill="white"/>
<path d="M19.0204 14.5881C18.6407 14.6913 18.3219 14.8788 18.0079 15.1928C17.1079 16.0928 17.1079 17.5647 18.0032 18.46C19.4704 19.9272 21.9735 18.9053 21.9688 16.8381C21.9688 16.6319 21.9407 16.3506 21.9032 16.2241C21.6969 15.4413 21.0829 14.8225 20.286 14.5881C19.9719 14.4944 19.3626 14.4944 19.0204 14.5881ZM20.3047 15.4506C20.6001 15.596 20.886 15.8819 21.036 16.1772C21.1954 16.5053 21.2001 17.1522 21.0407 17.471C20.8954 17.7663 20.586 18.0663 20.2813 18.2116C19.9063 18.3897 19.3813 18.385 19.011 18.2022C18.7016 18.0522 18.3922 17.7381 18.2516 17.4288C18.1063 17.1147 18.111 16.5475 18.2563 16.2241C18.4344 15.835 18.8282 15.4881 19.2501 15.3522C19.4844 15.2772 20.0563 15.3288 20.3047 15.4506Z" fill="white"/>
</svg>
