<svg width="25" height="25" viewBox="0 0 25 25" fill="none" xmlns="http://www.w3.org/2000/svg">
<path d="M0.870313 0.370018C0.785938 0.426268 0.664062 0.548141 0.607813 0.632517L0.5 0.791893V10.9731V21.1544L0.607813 21.3138C0.804688 21.6044 0.978125 21.6841 1.41875 21.6841H1.8125V22.0356C1.8125 22.4481 1.88281 22.6497 2.08906 22.8231C2.27188 22.9731 2.50625 23.0435 2.84844 23.0435H3.11563L3.13438 23.3856C3.14375 23.6622 3.17656 23.77 3.275 23.92C3.51875 24.2903 3.04063 24.2622 9.43438 24.2622H15.1438L16.8594 22.5513L18.5703 20.8403L18.5844 19.0403L18.5984 17.2403L18.9828 17.2075C19.1938 17.1935 19.4984 17.156 19.6531 17.1325C20.4125 17.02 21.5891 16.5513 21.6922 16.3216C21.7953 16.1013 21.6172 15.7778 21.3875 15.7778C21.3266 15.7778 21.1016 15.8622 20.8859 15.9606C19.4422 16.6403 17.8906 16.6216 16.4609 15.9231C16.2031 15.7966 15.8563 15.5903 15.6969 15.4685L15.3969 15.2481L17.1031 13.5419C18.0359 12.6091 18.8234 11.8403 18.8516 11.8403C18.9406 11.8403 23.3984 13.0263 23.4359 13.0591C23.5297 13.1435 23.0938 13.9778 22.6625 14.5403C22.4 14.8872 22.3719 15.0606 22.5547 15.2388C22.8172 15.506 23.0516 15.3653 23.5391 14.6294C24.2188 13.6075 24.5 12.6466 24.5 11.3622C24.5 9.82002 23.9656 8.47471 22.9156 7.37783C21.8797 6.29502 20.5719 5.69502 19.0063 5.58252L18.5469 5.54971V4.45752C18.5469 3.40283 18.5422 3.36533 18.4391 3.21064C18.2422 2.92002 18.0688 2.84033 17.6281 2.84033H17.2344V2.49814C17.2344 1.86533 16.9391 1.57471 16.2922 1.57471H15.9313L15.9172 1.18564C15.9031 0.857517 15.8797 0.763767 15.7719 0.604393C15.5281 0.234079 16.1797 0.262205 8.17344 0.262205H1.02969L0.870313 0.370018ZM15.0969 0.993454C15.1531 1.01689 15.1719 1.09189 15.1719 1.29814V1.57471L11.0188 1.58408L6.86094 1.59814L6.76719 1.7247C6.6875 1.83252 6.67813 1.88408 6.71563 2.02939C6.74375 2.14189 6.8 2.22627 6.875 2.26377C6.96875 2.31064 8.01406 2.32471 11.7406 2.32471H16.4844V2.58252V2.84033H10.1H3.71094L3.52813 2.94814C3.41094 3.01377 3.30313 3.13095 3.23281 3.25752L3.125 3.46377V12.881V22.2981L2.85781 22.2841L2.58594 22.27L2.57188 12.2997L2.5625 2.32939L3.92188 2.31533C5.42188 2.30127 5.39844 2.30595 5.45 1.99189C5.46875 1.87002 5.45 1.79971 5.375 1.70127L5.27656 1.57471H3.84219C2.44531 1.57471 2.40781 1.57939 2.225 1.67783C2.12188 1.73877 1.98594 1.87002 1.925 1.97783L1.8125 2.17002V11.5497V20.9341H1.53125H1.25V10.9778C1.25 3.05596 1.26406 1.01689 1.31094 0.998142C1.39531 0.960642 15.0078 0.960642 15.0969 0.993454ZM17.8156 3.66533C17.8297 3.70752 17.8438 4.16689 17.8438 4.6872V5.63877L17.6469 5.66689C17.3 5.71377 16.6203 5.93408 16.2078 6.12627C14.8063 6.78252 13.6766 8.04814 13.1844 9.51064C12.9594 10.195 12.8984 10.5841 12.8984 11.395C12.9031 12.2247 12.9688 12.6513 13.2125 13.3403C13.7469 14.8638 14.9 16.1013 16.3813 16.7435C16.7563 16.9028 17.5719 17.1372 17.7547 17.1372C17.8391 17.1372 17.8438 17.2028 17.8438 18.7075V20.2731L16.4703 20.2872L15.0922 20.3013L14.9188 20.4372C14.5813 20.6903 14.5625 20.7888 14.5625 22.256V23.5591H9.29375C6.39688 23.5591 3.99219 23.545 3.95 23.531C3.87969 23.5028 3.875 22.5841 3.875 13.5794C3.875 8.11846 3.88906 3.63721 3.90781 3.62314C3.92188 3.60439 7.05313 3.59033 10.8641 3.59033C17.1313 3.59033 17.7875 3.59502 17.8156 3.66533ZM19.3906 6.37939C19.9625 6.46377 20.4031 6.59971 20.3844 6.68408C20.375 6.72158 19.925 7.74346 19.3813 8.95283L18.3922 11.1606L16.625 12.9372L14.8531 14.7138L14.6141 14.3903C12.6688 11.7606 13.7375 7.96846 16.775 6.71221C17.6609 6.34658 18.4906 6.23877 19.3906 6.37939ZM21.5188 7.18564C21.9828 7.49033 22.6859 8.21689 22.9953 8.71846C23.3 9.20596 23.5391 9.82471 23.6656 10.4341C23.7406 10.795 23.7547 11.0106 23.7406 11.5685C23.7313 11.9481 23.7078 12.2716 23.6938 12.2856C23.6609 12.3185 19.3438 11.1935 19.2828 11.1372C19.2406 11.0997 21.0828 6.96533 21.1438 6.96533C21.1625 6.96533 21.3313 7.06377 21.5188 7.18564ZM16.3484 21.9606C15.8563 22.4716 15.4203 22.9169 15.3828 22.9497C15.3219 23.0013 15.3125 22.8981 15.3125 22.0497C15.3125 21.52 15.3266 21.0747 15.3453 21.0606C15.3594 21.0419 15.7953 21.0278 16.3109 21.0278H17.2438L16.3484 21.9606Z" fill="white"/>
<path d="M5.96563 6.12627C5.81094 6.24814 5.79219 6.53877 5.9375 6.68408C6.03125 6.77783 6.09219 6.77783 9.64063 6.77783C13.1891 6.77783 13.25 6.77783 13.3438 6.68408C13.4047 6.62314 13.4375 6.52939 13.4375 6.40283C13.4375 6.27627 13.4047 6.18252 13.3438 6.12158C13.25 6.02783 13.1891 6.02783 9.66875 6.02783C6.12031 6.02783 6.0875 6.02783 5.96563 6.12627Z" fill="white"/>
<path d="M5.97035 8.69971C5.81097 8.82627 5.79222 9.11689 5.93754 9.26221C6.03129 9.35596 6.09222 9.35596 8.84379 9.35596C11.5953 9.35596 11.6563 9.35596 11.75 9.26221C11.8625 9.14971 11.8766 8.85439 11.7782 8.71846C11.7125 8.63408 11.6188 8.62939 8.90004 8.61533C6.11097 8.60596 6.09222 8.60596 5.97035 8.69971Z" fill="white"/>
<path d="M5.96563 11.2825C5.81094 11.4044 5.79219 11.695 5.9375 11.8403C6.02656 11.9294 6.09219 11.9341 8.46875 11.9341C10.8453 11.9341 10.9109 11.9294 11 11.8403C11.0938 11.7466 11.1313 11.4513 11.0563 11.3435C10.9578 11.1935 10.8125 11.1841 8.45469 11.1841C6.13438 11.1841 6.0875 11.1841 5.96563 11.2825Z" fill="white"/>
<path d="M8.38439 15.1684C8.32814 15.1919 8.25783 15.2669 8.23439 15.3325C8.20627 15.4028 8.18752 15.9372 8.18752 16.5325V17.6059H7.44221C6.76252 17.6059 6.68752 17.6153 6.57502 17.7044L6.45314 17.7981V19.1575V20.5122H6.26564C5.90939 20.5122 5.72189 20.8637 5.93283 21.1262L6.02189 21.2387L9.36877 21.2528C11.7266 21.2622 12.7485 21.2481 12.8375 21.2106C13.0766 21.1122 13.1188 20.7325 12.9078 20.5825C12.8516 20.545 12.7297 20.5122 12.6313 20.5122H12.4531V18.7122V16.9075L12.3313 16.8137C12.2188 16.7247 12.1438 16.7153 11.4641 16.7153H10.7188V16.0825C10.7188 15.4075 10.6813 15.2575 10.4985 15.1731C10.3625 15.1122 8.54377 15.1075 8.38439 15.1684ZM9.96877 18.1919V20.5122H9.45314H8.93752V18.1919V15.8716H9.45314H9.96877V18.1919ZM11.7031 18.9887V20.5122H11.211H10.7188V18.9887V17.4653H11.211H11.7031V18.9887ZM8.18752 19.4341V20.5122H7.69533H7.20314V19.4341V18.3559H7.69533H8.18752V19.4341Z" fill="white"/>
</svg>
