<svg width="25" height="25" viewBox="0 0 25 25" fill="none" xmlns="http://www.w3.org/2000/svg">
<path d="M2.70155 0.334106C1.69825 0.596651 0.82154 1.47805 0.568371 2.48604C0.479294 2.84703 0.479294 3.62529 0.568371 3.98629C0.826228 4.99428 1.69825 5.88505 2.67811 6.13822C3.55013 6.36326 4.42684 6.21323 5.20041 5.71159L5.32699 5.6272L6.78037 7.08057C8.06496 8.36516 8.23374 8.54801 8.23374 8.67928C8.23374 8.90432 8.39314 9.0731 8.59943 9.0731C8.75414 9.0731 8.81509 9.11529 9.17609 9.47629L9.58397 9.88417L9.42457 10.0998C9.21828 10.3952 8.96043 10.9484 8.85728 11.3235C8.74008 11.7454 8.74008 12.7769 8.85728 13.1988C8.96043 13.5739 9.21828 14.1271 9.42457 14.4178L9.58397 14.6381L6.15214 18.0606L2.72499 21.4877L2.51402 21.3893C2.20459 21.2533 1.71232 21.2627 1.37945 21.4127C1.02782 21.5768 0.807475 21.7831 0.638696 22.1159C0.5168 22.3644 0.498047 22.4535 0.498047 22.7864C0.498047 23.1192 0.5168 23.2083 0.638696 23.4568C0.910617 23.9913 1.35601 24.2632 1.97955 24.2632C2.30773 24.2632 2.39681 24.2444 2.64529 24.1225C2.97816 23.9538 3.18444 23.7334 3.34853 23.3771C3.50325 23.0395 3.51262 22.5613 3.37197 22.2425L3.27352 22.0269L6.03024 19.2701L8.78227 16.5181L9.00262 16.6869C9.26048 16.8838 9.39644 16.8979 9.57459 16.7432C9.67305 16.6588 9.70587 16.5931 9.70587 16.4572C9.70587 16.3071 9.67774 16.2556 9.52302 16.1243L9.33549 15.9696L9.72931 15.5711L10.1231 15.1773L10.3388 15.3367C10.7701 15.6461 11.3046 15.8524 12.0219 15.993L12.125 16.0118V17.5308V19.0451L11.839 19.1482C10.8264 19.5186 10.3435 20.7188 10.8076 21.7081C10.9811 22.0831 11.3093 22.416 11.6843 22.6035C11.9422 22.7301 11.9984 22.7395 12.5001 22.7395C13.0205 22.7395 13.0486 22.7348 13.3346 22.5848C13.7284 22.3785 14.0191 22.0784 14.2019 21.694C14.3379 21.408 14.352 21.3424 14.352 20.911C14.352 20.4985 14.3379 20.4094 14.2254 20.1703C14.1551 20.0203 14.0519 19.8327 13.9957 19.7577C13.8363 19.5327 13.4565 19.2608 13.1565 19.1482L12.8752 19.0451V18.4731V17.8965L13.2643 17.8402C13.7144 17.7746 13.8597 17.6761 13.8597 17.437C13.8597 17.1135 13.6675 17.0245 13.1236 17.1042L12.8752 17.1417V16.5791C12.8752 16.0305 12.8798 16.0118 12.983 15.993C14.1644 15.7633 15.0365 15.2335 15.5709 14.4271C15.6413 14.3193 15.7069 14.2302 15.7163 14.2302C15.8007 14.2302 16.6914 14.7178 16.6821 14.76C16.6727 14.7881 16.5695 14.9522 16.4476 15.1163C16.2085 15.4539 16.171 15.6602 16.3211 15.8242C16.4101 15.9274 16.6633 15.9508 16.8086 15.8758C16.879 15.8336 17.2259 15.3554 17.3572 15.1116C17.3947 15.046 17.5259 15.0976 18.3839 15.5054C18.9278 15.7633 19.3731 15.979 19.3731 15.9836C19.3778 15.9836 19.3497 16.1243 19.3169 16.2931C19.1997 16.8275 19.3075 17.5214 19.5888 18.0277C19.9076 18.595 20.3717 18.9982 20.9672 19.228C21.3985 19.3967 22.0877 19.4342 22.5331 19.317C23.4051 19.092 24.0755 18.4778 24.3709 17.6339C24.4787 17.3198 24.5021 17.1745 24.5021 16.7947C24.5021 16.0305 24.3849 15.7586 24.0521 15.7586C23.813 15.7586 23.6911 15.8993 23.7098 16.1571C23.7145 16.2696 23.7239 16.565 23.7239 16.8088C23.7286 17.212 23.7145 17.2823 23.5832 17.5589C23.4004 17.9434 23.0675 18.2715 22.6737 18.4638C22.3924 18.6044 22.3361 18.6138 21.9001 18.6138C21.4876 18.6138 21.3985 18.5997 21.1594 18.4872C21.0094 18.4169 20.8031 18.295 20.7046 18.2153C20.2264 17.8402 19.9357 17.0807 20.0389 16.5087C20.2733 15.2523 21.5532 14.5537 22.6643 15.0741C23.0441 15.2523 23.241 15.257 23.3723 15.0929C23.5692 14.8397 23.4707 14.6194 23.0675 14.4178C22.5237 14.1505 21.9423 14.0802 21.3375 14.2068C20.8218 14.3146 20.4514 14.5256 20.0436 14.9288L19.6826 15.2851L17.9104 14.4318C16.9305 13.963 16.1148 13.5692 16.0913 13.5598C16.0679 13.5551 16.0913 13.4004 16.1382 13.2222C16.2554 12.7722 16.2601 11.7548 16.1429 11.3235C16.0398 10.9484 15.7819 10.3952 15.5756 10.0998L15.4162 9.88417L15.8007 9.49973C16.0116 9.29345 16.1945 9.11998 16.2132 9.11998C16.2273 9.11998 16.3257 9.23719 16.4336 9.37784C16.6117 9.61225 16.6446 9.63569 16.8133 9.63569C17.0571 9.63569 17.1884 9.50911 17.1884 9.27938C17.1884 9.1528 17.1368 9.04497 16.9727 8.8293L16.7524 8.54801L17.676 7.62441L18.5996 6.70082L18.8199 6.80865C19.7435 7.26341 20.9062 6.84615 21.3516 5.89443C21.4641 5.65532 21.4782 5.57094 21.4782 5.11148C21.4782 4.63796 21.4688 4.57233 21.3422 4.31447C21.1641 3.95347 20.8078 3.59716 20.4468 3.41901C20.1889 3.29242 20.1233 3.28305 19.6497 3.28305C19.1903 3.28305 19.1059 3.29711 18.8668 3.40963C17.9151 3.85502 17.4978 5.01772 17.9526 5.94131L18.0604 6.16166L16.4664 7.751L14.8677 9.34502L14.6802 9.20437C14.4223 9.00746 13.8034 8.71678 13.4378 8.61833C13.0158 8.50112 11.9844 8.50112 11.5624 8.61833C11.1874 8.72147 10.6341 8.97933 10.3388 9.18561L10.1231 9.34502L9.73868 8.96058L9.35424 8.57614L9.43395 8.42611C9.61679 8.05105 9.23235 7.69474 8.89479 7.92915C8.78696 8.00885 8.77758 7.99948 7.32421 6.5461L5.86615 5.08804L5.95054 4.96146C6.3678 4.32385 6.55064 3.56903 6.46156 2.88923C6.40062 2.42978 6.31154 2.30319 6.05837 2.30319C5.74425 2.30319 5.63642 2.5001 5.70675 2.95487C5.9271 4.37073 4.55811 5.71159 3.14225 5.46779C2.29835 5.31777 1.61386 4.72704 1.34194 3.91597C1.25755 3.6628 1.24349 3.53153 1.25755 3.1424C1.27162 2.71576 1.29037 2.64075 1.44508 2.30788C1.73576 1.70309 2.29835 1.22957 2.93127 1.0561C3.03911 1.02798 3.29696 1.00453 3.49856 1.00453C3.9627 1.00453 4.35652 1.13112 4.76909 1.41241C5.24729 1.73122 5.58016 1.67027 5.58016 1.2577C5.58016 1.11705 5.54735 1.0561 5.37388 0.906078C5.13009 0.690416 4.60969 0.427872 4.22524 0.329418C3.87362 0.240341 3.04848 0.240341 2.70155 0.334106ZM20.1233 4.12225C20.5077 4.30041 20.7515 4.69423 20.7515 5.13492C20.7515 6.11478 19.5513 6.60236 18.8527 5.90849C18.5199 5.57094 18.4261 5.03647 18.6324 4.63796C18.7402 4.4223 19.0075 4.16913 19.2231 4.07537C19.4575 3.97692 19.8513 3.99567 20.1233 4.12225ZM13.2127 9.3497C15.1584 9.84666 16.0913 12.0455 15.0927 13.7614C14.863 14.1505 14.3895 14.624 14.0003 14.8538C13.1658 15.3367 12.1016 15.3882 11.2577 14.985C9.45739 14.1271 8.94167 11.9001 10.1888 10.3624C10.9154 9.4716 12.1157 9.06841 13.2127 9.3497ZM12.8001 19.8281C13.7753 20.1234 13.9066 21.4408 13.0017 21.8956C12.2047 22.2894 11.2858 21.6518 11.3937 20.7751C11.4405 20.3438 11.7593 19.964 12.1813 19.8327C12.4438 19.7484 12.5329 19.7484 12.8001 19.8281ZM2.33586 22.1347C2.61247 22.28 2.78125 22.6551 2.70155 22.9598C2.46713 23.799 1.24817 23.6537 1.24817 22.7911C1.24817 22.205 1.80608 21.8675 2.33586 22.1347Z" fill="white"/>
<path d="M12.2795 6.71025C12.2186 6.76182 12.1576 6.86496 12.1436 6.94935C12.1201 7.07593 12.1389 7.12282 12.2561 7.24471C12.3874 7.3713 12.4296 7.38536 12.7437 7.39474C12.9312 7.39943 13.1609 7.40411 13.2453 7.39943C13.5548 7.39474 13.6813 7.04311 13.4704 6.79932C13.3719 6.68212 13.3297 6.67274 12.8749 6.6493C12.4389 6.62586 12.3686 6.63523 12.2795 6.71025Z" fill="white"/>
<path d="M10.5545 6.96324C10.3482 7.04294 10.1419 7.14608 10.0997 7.20234C9.91221 7.42738 10.0716 7.80713 10.3529 7.80713C10.4842 7.80713 11.2156 7.55396 11.3093 7.47426C11.4781 7.3383 11.4125 6.96792 11.2062 6.87416C11.0421 6.79914 10.9764 6.80852 10.5545 6.96324Z" fill="white"/>
<path d="M14.3755 7.19779C14.2676 7.30562 14.2489 7.56347 14.3426 7.67599C14.3708 7.7135 14.563 7.83539 14.7599 7.93854C15.1959 8.17764 15.4022 8.19639 15.5429 8.01355C15.7491 7.75101 15.6272 7.53534 15.1303 7.2728C14.7599 7.08058 14.5208 7.05245 14.3755 7.19779Z" fill="white"/>
<path d="M7.51158 9.67771C7.385 9.81836 7.15996 10.395 7.15527 10.5826C7.15527 10.8076 7.28655 10.9482 7.49752 10.9482C7.58191 10.9482 7.68974 10.9201 7.73662 10.8873C7.83508 10.817 8.13982 10.0856 8.13982 9.91682C8.13982 9.64021 7.69912 9.47143 7.51158 9.67771Z" fill="white"/>
<path d="M17.2635 10.3438C17.1134 10.461 17.1088 10.5923 17.24 11.1033C17.3572 11.5675 17.4229 11.6519 17.6667 11.6519C17.9433 11.6519 18.0511 11.5159 18.0183 11.2112C17.9808 10.8548 17.8495 10.4423 17.737 10.3391C17.6104 10.2172 17.4182 10.2219 17.2635 10.3438Z" fill="white"/>
<path d="M6.97717 11.8063C6.8834 11.9048 6.87402 11.9657 6.87402 12.3877C6.87402 12.7909 6.88809 12.8753 6.97248 12.9831C7.09437 13.1378 7.38505 13.1565 7.53039 13.0112C7.61009 12.9315 7.62415 12.8565 7.62415 12.4299C7.62415 12.0126 7.61009 11.9282 7.5257 11.8204C7.39911 11.6563 7.1225 11.6516 6.97717 11.8063Z" fill="white"/>
<path d="M17.5024 12.4955C17.4133 12.5658 17.3711 12.6549 17.3524 12.8143C17.3336 12.9362 17.2867 13.1753 17.2492 13.3487C17.1883 13.6253 17.1883 13.6769 17.2539 13.7988C17.3711 14.0239 17.6196 14.066 17.8165 13.8879C17.9478 13.7754 18.0744 13.2972 18.0931 12.8565C18.1025 12.6596 18.0838 12.6127 17.9712 12.5142C17.8118 12.3783 17.6618 12.3689 17.5024 12.4955Z" fill="white"/>
<path d="M7.34305 13.949C7.2024 14.0897 7.22584 14.3053 7.43681 14.7366C7.62434 15.1258 7.7228 15.2148 7.95721 15.2148C8.0838 15.2148 8.28071 15.0086 8.28071 14.8726C8.28071 14.746 7.98066 14.0662 7.86814 13.9349C7.76968 13.8224 7.46494 13.8271 7.34305 13.949Z" fill="white"/>
<path d="M14.985 16.4479C14.6709 16.6495 14.5771 16.7339 14.5443 16.8511C14.5115 16.973 14.5209 17.0246 14.5959 17.1277C14.7647 17.3574 14.9053 17.3668 15.2569 17.184C15.6742 16.9636 15.8758 16.7667 15.8758 16.5839C15.8758 16.3916 15.7445 16.2463 15.5476 16.2229C15.4117 16.1994 15.3226 16.2369 14.985 16.4479Z" fill="white"/>
<path d="M10.4183 16.9068C10.3245 16.9818 10.2964 17.0428 10.2964 17.1787C10.2964 17.4132 10.423 17.5257 10.8309 17.6476C11.2762 17.7835 11.4825 17.7789 11.6044 17.6241C11.8388 17.3241 11.6654 17.0944 11.0793 16.9256C10.5824 16.7849 10.573 16.7849 10.4183 16.9068Z" fill="white"/>
</svg>
