<svg width="23" height="23" viewBox="0 0 23 23" fill="none" xmlns="http://www.w3.org/2000/svg">
<path d="M17.0938 0.138715C15.9735 0.359027 15.0735 0.818402 14.3329 1.55434C13.2735 2.60434 12.7532 4.05278 12.8798 5.57622C13.0579 7.68559 14.5626 9.46684 16.6157 9.99653C17.3657 10.1934 18.4063 10.1934 19.1469 10.0012C20.9235 9.54184 22.2829 8.18247 22.7798 6.3684C22.8688 6.04028 22.8829 5.87153 22.8829 5.12153C22.8829 4.37153 22.8688 4.20278 22.7798 3.87465C22.2829 2.06528 20.961 0.738714 19.161 0.241839C18.8751 0.162152 18.6454 0.138715 18.0079 0.129339C17.5719 0.119965 17.1594 0.124652 17.0938 0.138715ZM17.4688 1.51684V2.1309L17.1313 2.09809C16.4329 2.03246 15.3594 1.82621 15.3594 1.7559C15.3594 1.70903 15.7485 1.46059 16.0391 1.31528C16.311 1.17934 16.7985 1.01059 17.0985 0.95434C17.4969 0.874653 17.4688 0.827778 17.4688 1.51684ZM18.9032 1.43247C19.0532 1.59653 19.2173 1.7934 19.2594 1.87309L19.3438 2.0184L19.1423 2.04653C19.0344 2.06059 18.7907 2.08403 18.6079 2.10278L18.2657 2.13559V1.54028V0.949653L18.4438 1.03872C18.5423 1.09028 18.7485 1.26371 18.9032 1.43247ZM20.4219 1.74653C20.4219 1.77934 20.1876 1.85903 20.1688 1.8309C20.1219 1.76059 19.9532 1.4559 19.9532 1.44184C19.9532 1.42778 20.061 1.48403 20.1876 1.56371C20.3188 1.6434 20.4219 1.72309 20.4219 1.74653ZM21.5704 3.03559C21.8001 3.43872 22.0298 4.09965 22.086 4.49809L22.1188 4.74653H21.4907H20.8626L20.8063 4.18872C20.7782 3.88403 20.6938 3.40122 20.6188 3.11997L20.4876 2.60434L20.6751 2.51528C20.7829 2.4684 20.8907 2.37934 20.9141 2.3184C20.961 2.21059 20.9657 2.21528 21.1579 2.43559C21.2657 2.55747 21.4532 2.82934 21.5704 3.03559ZM15.0032 2.49653L15.2985 2.59497L15.186 3.00278C15.0688 3.45747 14.9376 4.25434 14.9376 4.55434V4.74653H14.661C14.3001 4.74653 14.1641 4.84497 14.1641 5.11215C14.1641 5.40747 14.2766 5.49653 14.6423 5.49653H14.9376V5.68871C14.9376 5.98872 15.0688 6.78559 15.186 7.24028L15.2985 7.64809L15.0126 7.74653C14.8579 7.79809 14.7079 7.84028 14.6798 7.84028C14.5204 7.84028 13.9344 6.76684 13.7938 6.21372C13.5454 5.25746 13.6579 4.1184 14.0798 3.26997C14.2438 2.94653 14.6048 2.40278 14.661 2.40278C14.6844 2.40278 14.8391 2.44497 15.0032 2.49653ZM16.461 2.81997C16.6157 2.8434 16.9063 2.87622 17.1079 2.89497L17.4688 2.92778V3.83715V4.74653H16.6016H15.7344V4.59184C15.7344 4.1184 16.0251 2.77778 16.1282 2.77778C16.1563 2.77778 16.3063 2.79653 16.461 2.81997ZM19.8032 3.17622C19.9157 3.56528 20.0469 4.32934 20.0469 4.59184V4.74653H19.1563H18.2657V3.83715V2.92778L18.6782 2.89497C18.9032 2.87622 19.1798 2.8434 19.2969 2.82465C19.6766 2.75903 19.686 2.76372 19.8032 3.17622ZM17.4688 6.4059V7.31528L17.1079 7.34809C16.9063 7.36684 16.6157 7.39965 16.461 7.42309C16.3063 7.44653 16.1563 7.46528 16.1282 7.46528C16.0251 7.46528 15.7344 6.12465 15.7344 5.64653V5.49653H16.6016H17.4688V6.4059ZM20.0282 5.85747C19.9907 6.26528 19.8548 6.9684 19.7516 7.25434C19.6766 7.46997 19.7282 7.46528 18.8891 7.37622L18.2657 7.31528V6.4059V5.49653H19.161H20.061L20.0282 5.85747ZM22.086 5.74028C21.9969 6.39184 21.6032 7.27778 21.1719 7.7934C20.9751 8.02778 20.9704 8.03247 20.9188 7.92465C20.8907 7.86372 20.7829 7.77465 20.6751 7.72778L20.4876 7.63872L20.6188 7.12309C20.6938 6.84184 20.7782 6.35903 20.8063 6.05434L20.8626 5.49653H21.4907H22.1188L22.086 5.74028ZM17.4688 8.68403C17.4688 8.9934 17.4594 9.24653 17.4454 9.24653C17.361 9.24653 17.136 9.08715 16.9391 8.88559C16.7235 8.66528 16.4235 8.25747 16.4563 8.22934C16.4751 8.21059 17.1173 8.14028 17.3423 8.12622L17.4688 8.12153V8.68403ZM19.2969 8.21997C19.7235 8.28559 20.4219 8.44965 20.4219 8.48715C20.4219 8.53403 20.0376 8.78247 19.7423 8.92778C19.4423 9.08247 18.8282 9.27465 18.5141 9.31684L18.2657 9.34965V8.7309V8.11215L18.6313 8.14497C18.8282 8.16372 19.1282 8.19653 19.2969 8.21997ZM15.7251 8.59965C15.7813 8.70747 15.8235 8.80122 15.8141 8.8059C15.7907 8.82934 15.3594 8.53403 15.3594 8.49653C15.3594 8.45903 15.4532 8.42153 15.5704 8.40747C15.5985 8.40747 15.6641 8.49184 15.7251 8.59965Z" fill="white"/>
<path d="M5.525 4.83574C4.99531 4.99043 4.63437 5.20605 4.19844 5.6373C3.87031 5.96074 3.75781 6.11074 3.59844 6.43418C3.275 7.09043 3.26562 7.19355 3.26562 9.75293V12.017L3.38281 12.1295C3.5375 12.2889 3.79062 12.2889 3.94531 12.1295L4.0625 12.017V9.7998C4.0625 7.39512 4.07187 7.2873 4.325 6.78105C4.5875 6.25605 5.09844 5.8248 5.69844 5.62793C5.99375 5.52949 6.11094 5.5248 8.31406 5.50137C10.9156 5.46855 10.7891 5.49199 10.7891 5.11699C10.7891 4.97168 10.7609 4.90137 10.6766 4.83574C10.5734 4.75137 10.4562 4.74668 8.19219 4.75137C6.05469 4.75137 5.79219 4.76074 5.525 4.83574Z" fill="white"/>
<path d="M9.6077 7.47468C9.47645 7.53562 9.38739 7.75593 9.42489 7.91062C9.48583 8.14499 9.59364 8.19656 10.0671 8.22937C11.2108 8.30905 12.2702 8.78718 13.0624 9.58405C13.8593 10.3856 14.3233 11.4169 14.4077 12.57C14.4405 13.0481 14.4921 13.1512 14.7358 13.2122C14.8905 13.2544 15.0733 13.1559 15.1671 12.9872C15.228 12.8794 15.2327 12.7856 15.1811 12.3075C14.9655 10.1559 13.5546 8.37937 11.5155 7.69968C10.8358 7.46999 9.85614 7.35281 9.6077 7.47468Z" fill="white"/>
<path d="M9.52337 9.12946C9.37337 9.27477 9.37337 9.48102 9.51399 9.64977C9.60774 9.75758 9.67337 9.77633 10.0202 9.81383C10.8031 9.88883 11.3984 10.1607 11.914 10.6763C12.4718 11.2341 12.7624 11.8576 12.814 12.5982C12.8421 12.931 12.8562 12.9873 12.9781 13.1091C13.0952 13.2216 13.1374 13.2404 13.2874 13.217C13.5827 13.1654 13.639 13.0482 13.6109 12.5279C13.564 11.6795 13.2031 10.8545 12.5796 10.2029C11.8671 9.45289 10.8968 9.01227 9.94524 9.01227C9.67806 9.01227 9.62181 9.02633 9.52337 9.12946Z" fill="white"/>
<path d="M9.65938 10.6059C9.51875 10.6621 9.40625 10.8356 9.40625 10.9856C9.40625 11.2059 9.5375 11.309 9.91719 11.3793C10.3766 11.4684 10.6297 11.5996 10.8781 11.8762C11.0938 12.1152 11.2016 12.3777 11.2578 12.7809C11.3141 13.1934 11.6375 13.3621 11.9188 13.1184C12.0359 13.0199 12.05 12.9824 12.0406 12.7152C12.0078 11.5902 11.1688 10.7137 9.99219 10.5918C9.86563 10.5777 9.71094 10.5824 9.65938 10.6059Z" fill="white"/>
<path d="M19.5734 11.5856L19.4375 11.7215V13.92C19.4375 16.3387 19.4234 16.4747 19.1516 16.9856C18.8516 17.5434 18.1859 18.0356 17.5672 18.1528C17.4172 18.1809 16.4234 18.1997 15.1391 18.1997H12.9594L12.8234 18.3356C12.6453 18.5137 12.6453 18.6825 12.8281 18.8606L12.9641 19.0012L15.3453 18.9872L17.7266 18.9731L18.1063 18.8418C19.0344 18.5325 19.7703 17.7965 20.0797 16.8731L20.2109 16.4887L20.225 14.1075L20.2391 11.7262L20.0984 11.5903C19.9203 11.4075 19.7516 11.4075 19.5734 11.5856Z" fill="white"/>
<path d="M9.54679 11.9279C8.96085 12.092 8.69367 12.8092 9.02648 13.3342C9.46242 14.0186 10.564 13.817 10.714 13.0201C10.8077 12.5139 10.5171 12.0451 10.0437 11.9233C9.79992 11.8623 9.7671 11.8623 9.54679 11.9279ZM9.91242 12.8279C9.90304 12.8889 9.86554 12.9264 9.8046 12.9264C9.69679 12.9264 9.64992 12.767 9.73898 12.7154C9.83273 12.6545 9.92648 12.7201 9.91242 12.8279Z" fill="white"/>
<path d="M0.696875 14.2763L0.59375 14.3841V17.5575C0.59375 20.67 0.59375 20.731 0.6875 20.8247C0.776563 20.9138 0.842188 20.9185 3.03125 20.9185H5.28125V21.2935V21.6685H4.60625C4.01563 21.6685 3.91719 21.6778 3.82344 21.7575C3.73906 21.8231 3.71094 21.8935 3.71094 22.0435C3.71094 22.1935 3.73906 22.2638 3.82344 22.3294C3.92656 22.4138 4.04844 22.4185 6.35938 22.4185C8.67031 22.4185 8.79219 22.4138 8.89531 22.3294C9.05 22.2028 9.05 21.8841 8.89531 21.7575C8.80156 21.6778 8.70312 21.6685 8.1125 21.6685H7.4375V21.2935V20.9185H9.6875C11.8766 20.9185 11.9422 20.9138 12.0312 20.8247C12.125 20.731 12.125 20.67 12.125 17.5528V14.37L12.0172 14.2716L11.9094 14.1685H6.35469H0.795313L0.696875 14.2763ZM11.375 17.5435V20.1216H6.35938H1.34375V17.5435V14.9653H6.35938H11.375V17.5435ZM6.64063 21.2935V21.6685H6.35938H6.07812V21.2935V20.9185H6.35938H6.64063V21.2935Z" fill="white"/>
<path d="M4.77489 15.9638C4.62958 16.1138 4.63896 16.245 4.87802 17.4263C5.06552 18.3497 5.09833 18.4669 5.21083 18.5606C5.38896 18.7153 5.57646 18.7013 5.78739 18.5044L5.96552 18.345L6.40614 18.7856C6.81864 19.1981 6.86552 19.231 7.03427 19.231C7.20771 19.231 7.25458 19.1981 7.63427 18.8185C8.01396 18.4388 8.04677 18.3919 8.04677 18.2185C8.04677 18.0497 8.01396 18.0028 7.60146 17.5903L7.16083 17.1497L7.32021 16.9716C7.51239 16.7606 7.53114 16.5731 7.38114 16.395C7.28271 16.2872 7.16083 16.2544 6.21864 16.0669C5.63739 15.9497 5.09833 15.856 5.01864 15.856C4.92958 15.856 4.83583 15.8981 4.77489 15.9638ZM5.99364 16.8403C6.25614 16.8919 6.26083 16.8966 6.21396 17.0138C6.14364 17.206 6.19989 17.3044 6.65458 17.7638C6.88896 18.0028 7.06708 18.2138 7.04833 18.2325C7.02958 18.2513 6.81396 18.0685 6.57489 17.8294C6.18583 17.445 6.12021 17.3935 5.97021 17.3935C5.87646 17.3935 5.78271 17.4075 5.75458 17.4216C5.73114 17.4403 5.68896 17.3372 5.65614 17.1825C5.62802 17.0325 5.59052 16.8731 5.57646 16.8263C5.55771 16.756 5.57177 16.7419 5.64208 16.7606C5.68896 16.7747 5.84833 16.8122 5.99364 16.8403Z" fill="white"/>
</svg>
