<svg width="23" height="23" viewBox="0 0 23 23" fill="none" xmlns="http://www.w3.org/2000/svg">
<path d="M1.72813 0.626269C1.4 0.790332 1.24063 0.959082 1.06719 1.32471L0.945312 1.58252V3.59814V5.61377L1.05781 5.86221C1.20781 6.19502 1.59688 6.55127 1.91563 6.64502C2.11719 6.70127 2.49688 6.71533 4.09063 6.71533C5.91406 6.71533 6.04063 6.71064 6.27969 6.62158C6.62188 6.49502 6.88906 6.25127 7.04844 5.92783L7.17969 5.66064V3.57471V1.48877L7.05313 1.24971C6.98281 1.11846 6.82812 0.921582 6.71094 0.818457C6.33125 0.480957 6.31719 0.480957 4.03906 0.480957H2.01406L1.72813 0.626269ZM6.11563 1.15596C6.28438 1.24502 6.48125 1.46064 6.54219 1.62002C6.575 1.70439 6.59375 2.40283 6.59375 3.58877C6.59375 5.66064 6.58906 5.67939 6.2375 5.94658L6.06406 6.08252H4.08594H2.1125L1.92031 5.95596C1.55469 5.71221 1.55469 5.72158 1.55469 3.57471C1.55469 1.54033 1.55469 1.53564 1.79375 1.31533C2.04688 1.09033 2.04688 1.09033 4.07656 1.09033C5.63281 1.09033 6.0125 1.10439 6.11563 1.15596Z" fill="white"/>
<path d="M9.04063 0.621544C8.7125 0.790295 8.55313 0.959044 8.37969 1.32467L8.25781 1.58248V3.59811V5.61373L8.37969 5.87154C8.525 6.18092 8.77813 6.43873 9.07344 6.58404L9.28906 6.69186L14.3516 6.70592C18.9875 6.71529 19.4328 6.71061 19.6719 6.63561C19.9109 6.56529 20.0094 6.47623 21.1156 5.38404C21.7672 4.73717 22.3438 4.13717 22.3953 4.05748C22.5313 3.84186 22.5547 3.45748 22.4516 3.23717C22.3297 2.99342 20.1219 0.757482 19.8594 0.616857L19.6484 0.504357L14.4875 0.490294L9.33125 0.480919L9.04063 0.621544ZM19.5594 1.16529C19.7563 1.25904 21.9219 3.49498 21.9219 3.60279C21.9219 3.68248 19.9156 5.75436 19.6297 5.96529L19.4703 6.08248H14.45H9.425L9.23281 5.95592C8.86719 5.71217 8.86719 5.72154 8.86719 3.57467C8.86719 1.54029 8.86719 1.53561 9.10625 1.31529C9.36875 1.08092 9.10625 1.09029 14.4359 1.09029C18.8844 1.09029 19.4141 1.09967 19.5594 1.16529Z" fill="white"/>
<path d="M10.236 2.53408C10.1282 2.65127 10.1375 2.85283 10.25 2.96533C10.3391 3.05439 10.4047 3.05908 12.8235 3.05908C15.2563 3.05908 15.3032 3.05908 15.425 2.96064C15.561 2.85283 15.5797 2.70752 15.4719 2.55283L15.4016 2.44971H12.8563C10.4516 2.44971 10.3063 2.45439 10.236 2.53408Z" fill="white"/>
<path d="M10.25 4.23096C10.1984 4.28252 10.1562 4.37627 10.1562 4.44189C10.1562 4.50752 10.1984 4.60127 10.25 4.65283C10.3438 4.74658 10.4047 4.74658 13.3203 4.74658C16.2359 4.74658 16.2969 4.74658 16.3906 4.65283C16.5078 4.53564 16.5125 4.31533 16.4 4.21689C16.3203 4.14658 16.0391 4.13721 13.3297 4.13721C10.4047 4.13721 10.3438 4.13721 10.25 4.23096Z" fill="white"/>
<path d="M1.89688 8.19658C1.60156 8.28565 1.20312 8.65596 1.05781 8.97471L0.945312 9.22315V11.2388V13.2544L1.06719 13.5122C1.24063 13.8778 1.4 14.0466 1.72813 14.2106L2.01406 14.356H4.03906C6.31719 14.356 6.33125 14.356 6.71094 14.0185C6.82812 13.9153 6.98281 13.7185 7.05313 13.5872L7.17969 13.3481V11.2622V9.17627L7.04844 8.90908C6.88906 8.58564 6.62188 8.3419 6.27969 8.21533C6.04063 8.12627 5.91875 8.12158 4.07188 8.12627C2.51094 8.12627 2.075 8.14033 1.89688 8.19658ZM6.11563 8.82002C6.33125 8.92783 6.42969 9.03565 6.52344 9.26064C6.62188 9.49971 6.63125 13.006 6.52813 13.245C6.45781 13.4185 6.17188 13.6856 6.01719 13.7231C5.96094 13.7372 5.04688 13.7419 3.9875 13.7372L2.06094 13.7231L1.89219 13.5919C1.55 13.3341 1.55469 13.3622 1.54063 11.4075C1.52656 9.58408 1.54531 9.29814 1.71875 9.05908C1.77031 8.98877 1.90156 8.88564 2.00938 8.82939C2.20625 8.73564 2.27188 8.73096 4.07656 8.73096C5.81563 8.73096 5.95156 8.73564 6.11563 8.82002Z" fill="white"/>
<path d="M9.20938 8.19658C8.91406 8.28564 8.51094 8.65596 8.37031 8.97471L8.25781 9.22314V11.2388V13.2544L8.4125 13.5685C8.58594 13.92 8.75469 14.0841 9.10625 14.2481L9.35 14.356L14.4969 14.3466L19.6484 14.3325L19.8828 14.2013C20.1781 14.0372 22.3625 11.8106 22.4609 11.5716C22.5453 11.3747 22.55 11.2106 22.4797 10.9575C22.4375 10.8028 22.2172 10.5591 21.2469 9.58408C20.4406 8.76846 19.9953 8.35596 19.8359 8.27158L19.6016 8.14502L14.5156 8.13564C10.1891 8.12627 9.39688 8.13564 9.20938 8.19658ZM19.6297 8.87158C19.9109 9.07783 21.9219 11.1497 21.9219 11.2341C21.9219 11.3419 19.7938 13.545 19.5781 13.6575C19.4234 13.7419 19.2078 13.7466 14.4594 13.7466C11.0656 13.7466 9.4625 13.7325 9.37344 13.695C9.20938 13.6341 9.04531 13.4841 8.94688 13.3013C8.87656 13.1794 8.86719 12.931 8.85313 11.3794C8.83906 9.52783 8.85313 9.30752 9.03125 9.05439C9.08281 8.98408 9.21406 8.88564 9.32188 8.82939L9.52344 8.73096L14.4969 8.74033L19.4656 8.75439L19.6297 8.87158Z" fill="white"/>
<path d="M10.25 10.1841C10.1375 10.2966 10.1281 10.4513 10.2313 10.5966L10.3016 10.6997H12.8328C15.2984 10.6997 15.3594 10.6997 15.4531 10.606C15.5047 10.5544 15.5469 10.4606 15.5469 10.395C15.5469 10.3294 15.5047 10.2356 15.4531 10.1841C15.3594 10.0903 15.2984 10.0903 12.8516 10.0903C10.4047 10.0903 10.3438 10.0903 10.25 10.1841Z" fill="white"/>
<path d="M10.3439 11.8106C10.1517 11.881 10.0907 12.1763 10.2407 12.3075C10.3204 12.3778 10.6017 12.3872 13.3298 12.3872C16.1751 12.3872 16.3345 12.3825 16.4048 12.3028C16.5126 12.1856 16.5032 11.9841 16.3907 11.8716C16.297 11.7778 16.2361 11.7778 13.3579 11.7825C11.7361 11.7825 10.3814 11.7966 10.3439 11.8106Z" fill="white"/>
<path d="M2 15.8231C1.55 15.9497 1.17969 16.2919 1.02969 16.7185C0.954688 16.9341 0.945312 17.1591 0.945312 18.9028C0.945312 20.656 0.954688 20.8716 1.02969 21.0919C1.14219 21.4153 1.42813 21.7294 1.75625 21.8888L2.02344 22.02H4.0625H6.10156L6.36406 21.8981C6.67344 21.7528 6.92656 21.5044 7.07188 21.2044C7.17969 20.9888 7.17969 20.9794 7.17969 18.9028C7.17969 16.8263 7.17969 16.8169 7.07188 16.6013C6.92656 16.3013 6.67344 16.0528 6.36406 15.9075L6.10156 15.7856L4.15625 15.7763C2.71719 15.7669 2.15469 15.781 2 15.8231ZM6.20469 16.5216C6.31719 16.5966 6.43438 16.7278 6.49531 16.8497C6.58906 17.0513 6.59375 17.1169 6.59375 18.9028C6.59375 20.6888 6.58906 20.7544 6.49531 20.956C6.43438 21.0778 6.31719 21.2091 6.20469 21.2841L6.0125 21.4106L4.16094 21.4247C2.54844 21.4388 2.28125 21.4294 2.10781 21.3638C1.8875 21.2794 1.64375 21.031 1.59219 20.8341C1.54531 20.67 1.54531 17.1356 1.5875 16.9716C1.64375 16.7841 1.85469 16.5544 2.07031 16.4606C2.24375 16.3763 2.38906 16.3716 4.1375 16.381L6.0125 16.395L6.20469 16.5216Z" fill="white"/>
<path d="M9.29844 15.828C8.86719 15.9452 8.44063 16.3483 8.31875 16.7608C8.27188 16.9061 8.25781 17.4593 8.25781 18.903C8.25781 20.3468 8.27188 20.8999 8.31875 21.0452C8.45 21.4811 8.91406 21.8983 9.37344 21.9968C9.54219 22.0296 11.1313 22.0436 14.5859 22.0343L19.5547 22.0202L19.8219 21.8889C20.0422 21.7811 20.3 21.5421 21.2281 20.5905C21.8938 19.9061 22.4 19.3483 22.4469 19.2452C22.55 19.0202 22.55 18.7858 22.4469 18.5608C22.4 18.4577 21.8938 17.8999 21.2281 17.2155C20.3 16.2639 20.0422 16.0249 19.8219 15.9171L19.5547 15.7858L14.5391 15.7764C10.5312 15.7718 9.47656 15.7811 9.29844 15.828ZM19.5078 16.4608C19.7609 16.578 21.9219 18.7624 21.9219 18.903C21.9219 19.0436 19.7609 21.228 19.5078 21.3452C19.3297 21.4296 19.0813 21.4343 14.4453 21.4343C9.81406 21.4343 9.56094 21.4296 9.38281 21.3452C9.16719 21.2514 8.95625 21.0218 8.9 20.8343C8.88125 20.7639 8.86719 19.8968 8.86719 18.903C8.86719 17.9093 8.88125 17.0421 8.9 16.9718C8.95625 16.7843 9.16719 16.5546 9.38281 16.4608C9.56094 16.3764 9.81406 16.3718 14.4453 16.3718C19.0813 16.3718 19.3297 16.3764 19.5078 16.4608Z" fill="white"/>
<path d="M10.3906 17.7638C10.1609 17.8481 10.0812 18.1153 10.2406 18.2606C10.3203 18.331 10.5687 18.3403 12.8656 18.3403H15.4062L15.4812 18.2185C15.5843 18.0685 15.5281 17.8763 15.3593 17.7919C15.2703 17.745 14.6843 17.731 12.8515 17.7356C11.539 17.7356 10.4281 17.7497 10.3906 17.7638Z" fill="white"/>
<path d="M10.236 19.5499C10.1282 19.6671 10.1375 19.8546 10.2547 19.9624C10.3485 20.0468 10.475 20.0515 13.1985 20.0656C14.7594 20.0749 16.1047 20.0656 16.1891 20.0515C16.386 20.0187 16.4844 19.9156 16.4844 19.7515C16.4844 19.4515 16.6203 19.4656 13.311 19.4656C10.4657 19.4656 10.3063 19.4702 10.236 19.5499Z" fill="white"/>
</svg>
