<svg width="25" height="21" viewBox="0 0 25 21" fill="none" xmlns="http://www.w3.org/2000/svg">
<path d="M11.7029 0.39038C10.2967 0.695068 9.19981 1.74976 8.85763 3.12319C8.74981 3.56851 8.74981 4.45913 8.86231 4.89507C9.13419 5.93101 9.85138 6.82632 10.7748 7.27632C11.4029 7.58569 11.7029 7.65601 12.4295 7.65601C12.9217 7.65601 13.1092 7.63726 13.4045 7.55288C14.7779 7.15913 15.7623 6.09976 16.0436 4.71226C16.1373 4.26226 16.1092 3.45601 15.992 3.02007C15.8983 2.68257 15.6217 2.08726 15.4951 1.96069C15.3545 1.82007 15.0639 1.83882 14.942 1.99351C14.8108 2.16226 14.8154 2.24663 14.9889 2.58882C15.2279 3.05757 15.317 3.36694 15.3451 3.82163C15.3779 4.31851 15.2889 4.78726 15.0873 5.21851L14.9561 5.49507L14.7873 5.21382C14.5858 4.89038 14.042 4.35601 13.817 4.26694C13.7045 4.22007 13.6764 4.18257 13.6998 4.12632C13.7186 4.08413 13.7748 3.93413 13.8264 3.79351C14.0654 3.10913 13.7139 2.31226 13.0248 1.99819C12.767 1.88101 12.2092 1.85757 11.9233 1.96069C11.6092 2.06851 11.3045 2.35444 11.1358 2.69663C10.9342 3.09976 10.9201 3.53569 11.0936 3.92476C11.1498 4.06069 11.192 4.17788 11.1826 4.18257C11.1733 4.19194 11.0608 4.26226 10.9295 4.34663C10.6201 4.53882 10.292 4.87632 10.0904 5.21382C9.92638 5.48569 9.92638 5.48569 9.85606 5.37788C9.81856 5.31694 9.7295 5.10132 9.65919 4.89507C9.54669 4.57163 9.52794 4.44507 9.52794 4.00444C9.53263 3.39038 9.66388 2.91226 9.96388 2.45757C10.8123 1.16851 12.3498 0.72788 13.7233 1.38413C14.1498 1.59038 14.3373 1.57632 14.4545 1.33726C14.6139 0.995068 14.3842 0.774755 13.5779 0.507568C13.1983 0.385693 13.0483 0.357568 12.5701 0.343505C12.2045 0.334131 11.8998 0.348193 11.7029 0.39038ZM12.8186 2.74819C13.0483 2.92163 13.1326 3.08101 13.1326 3.34351C13.1326 3.66226 12.9686 3.89194 12.6639 4.00913C12.4858 4.07476 12.4201 4.07944 12.2654 4.03257C11.6373 3.84507 11.5389 3.02476 12.1154 2.71538C12.3264 2.59819 12.6404 2.61694 12.8186 2.74819ZM12.1858 4.78257C12.3873 4.82476 12.5186 4.82476 12.7389 4.78257C13.0201 4.72632 13.0342 4.72632 13.3201 4.86694C13.6904 5.04976 14.0514 5.42944 14.2436 5.84194L14.3936 6.15601L14.2061 6.31069C13.9436 6.54038 13.4233 6.78413 13.0154 6.86851C12.2279 7.03726 11.3186 6.82163 10.6623 6.31538L10.4889 6.17944L10.5592 5.98726C10.7233 5.51851 11.117 5.07788 11.5764 4.84819C11.8529 4.71226 11.8389 4.71226 12.1858 4.78257Z" fill="white"/>
<path d="M12.2423 8.50439C12.1298 8.61221 12.1251 8.64033 12.1251 9.23096V9.84033H8.27201C3.95014 9.84033 4.24076 9.81689 3.95014 10.1825L3.80483 10.3653L3.79076 11.1247C3.7767 11.8231 3.78139 11.8935 3.86576 11.9966C3.93608 12.0856 4.0017 12.1138 4.1517 12.1138C4.47514 12.1138 4.50326 12.0481 4.53139 11.2794L4.55483 10.6138L8.34233 10.5997L12.1251 10.5903V11.2419C12.1251 12.0153 12.1673 12.1138 12.5001 12.1138C12.833 12.1138 12.8751 12.0153 12.8751 11.2419V10.5903H15.2142H17.558L17.6751 10.4825C17.8439 10.3325 17.858 10.0888 17.7033 9.93408C17.6142 9.84502 17.5486 9.84033 15.2423 9.84033H12.8751V9.23096C12.8751 8.64033 12.8705 8.61221 12.758 8.50439C12.6876 8.42939 12.5892 8.38721 12.5001 8.38721C12.4111 8.38721 12.3126 8.42939 12.2423 8.50439Z" fill="white"/>
<path d="M18.7297 9.92939C18.6453 9.99502 18.6172 10.0653 18.6172 10.2106C18.6172 10.5481 18.6641 10.5622 19.6156 10.5903L20.4453 10.6138L20.4687 11.2794C20.4969 12.0481 20.525 12.1138 20.8484 12.1138C20.9984 12.1138 21.0641 12.0856 21.1344 11.9966C21.2187 11.8935 21.2234 11.8231 21.2094 11.1247L21.1953 10.3653L21.05 10.1825C20.7969 9.86377 20.6984 9.84033 19.7141 9.84033C18.9266 9.84033 18.8281 9.84971 18.7297 9.92939Z" fill="white"/>
<path d="M3.45312 12.9106C1.70469 13.2622 0.5 14.7293 0.5 16.5059C0.5 17.3309 0.696875 17.9825 1.14688 18.634C2.27188 20.2793 4.61563 20.6965 6.25156 19.5434C7.1375 18.9247 7.70469 17.9637 7.8125 16.895C7.98125 15.2497 7.01563 13.67 5.4875 13.0934C4.83594 12.8497 4.09531 12.7793 3.45312 12.9106ZM4.74219 13.6606C5.81094 13.8856 6.71563 14.7528 6.99219 15.8168C7.14688 16.4075 7.07188 17.1622 6.79531 17.7762L6.67344 18.0481L6.54219 17.809C6.34531 17.4434 6.05469 17.1247 5.72188 16.909C5.55781 16.8012 5.42188 16.6981 5.42188 16.684C5.42188 16.67 5.46406 16.5481 5.51562 16.4122C5.63281 16.1122 5.6375 15.6622 5.53438 15.3528C5.43125 15.0528 5.06563 14.6637 4.75625 14.5231C4.56875 14.4434 4.42344 14.4153 4.15625 14.4153C3.88906 14.4153 3.74375 14.4434 3.55625 14.5231C3.2375 14.6684 2.88125 15.0528 2.77344 15.3762C2.66563 15.695 2.69375 16.2153 2.825 16.4872L2.92813 16.684L2.60469 16.8997C2.27188 17.12 1.925 17.4997 1.76094 17.8184C1.70938 17.9168 1.65781 17.9965 1.64375 17.9965C1.60156 17.9965 1.39531 17.509 1.32031 17.2231C1.23125 16.8715 1.23125 16.1778 1.32031 15.8168C1.52188 15.0153 2.1125 14.2887 2.84375 13.9231C3.49063 13.6043 4.08594 13.5247 4.74219 13.6606ZM4.52656 15.2684C4.97188 15.5965 4.96719 16.1356 4.51719 16.4684C4.33438 16.6043 3.97813 16.6043 3.79531 16.4684C3.38281 16.1637 3.34063 15.6715 3.69688 15.3387C3.93125 15.1184 4.2875 15.0903 4.52656 15.2684ZM4.02031 17.3215C4.14219 17.3403 4.34375 17.3262 4.47969 17.2934C4.70469 17.2418 4.73281 17.2465 5.01406 17.3778C5.18281 17.4575 5.4125 17.6168 5.54844 17.7528C5.78281 17.9872 6.07812 18.4934 6.07812 18.6622C6.07812 18.784 5.51562 19.1356 5.06563 19.295C4.74219 19.4075 4.625 19.4215 4.15625 19.4215C3.6875 19.4215 3.57031 19.4075 3.24219 19.295C2.80625 19.1403 2.23438 18.7793 2.23438 18.6575C2.23438 18.4934 2.52969 17.9872 2.75 17.7622C3.02656 17.4903 3.51875 17.2278 3.6875 17.2653C3.75313 17.2793 3.90313 17.3075 4.02031 17.3215Z" fill="white"/>
<path d="M11.9143 12.8685C11.4033 12.9529 10.7518 13.2013 10.4518 13.431C10.3205 13.5294 10.2971 13.581 10.2971 13.7357C10.2971 14.1107 10.5971 14.2091 11.0189 13.9701C11.4689 13.7123 11.858 13.6138 12.4299 13.6138C12.833 13.6138 13.0158 13.6373 13.2736 13.7169C14.1596 13.9982 14.8627 14.6779 15.2096 15.5966C15.3127 15.8685 15.3314 15.9857 15.3314 16.4966C15.3361 17.106 15.2658 17.4154 15.0361 17.8513L14.9518 18.0107L14.7783 17.7248C14.5908 17.4154 14.1174 16.9466 13.8455 16.8013C13.7236 16.7357 13.6814 16.6888 13.7002 16.6373C13.8596 16.281 13.9158 16.0279 13.8924 15.7654C13.8033 14.5982 12.5049 14.0029 11.5533 14.6966C11.1361 14.9966 10.8924 15.6107 10.9955 16.1076C11.0236 16.2482 11.0799 16.4357 11.1221 16.5248C11.1643 16.6138 11.1924 16.6935 11.183 16.6982C10.6627 17.0169 10.2924 17.3732 10.0627 17.7763L9.93145 18.006L9.85645 17.8935C9.81426 17.8373 9.7252 17.6169 9.65488 17.4107C9.55645 17.106 9.53301 16.9419 9.52832 16.5435C9.52363 16.0044 9.58926 15.7138 9.83301 15.1982C9.99707 14.8419 10.0018 14.7435 9.85176 14.5982C9.70176 14.4435 9.4627 14.4388 9.32207 14.5888C9.18613 14.7294 8.97051 15.231 8.8627 15.6294C8.7502 16.0654 8.7502 16.956 8.8627 17.4107C9.11582 18.4466 9.88457 19.3841 10.8596 19.8435C11.4361 20.1154 11.7314 20.1763 12.4768 20.1716C13.0908 20.1716 13.1611 20.1623 13.5924 20.0123C15.1205 19.4966 16.1096 18.1232 16.1096 16.5201C16.1096 15.606 15.8049 14.7998 15.1908 14.0732C14.7877 13.5998 14.0189 13.1263 13.3674 12.9576C13.0861 12.8826 12.1768 12.8263 11.9143 12.8685ZM12.7346 15.2404C12.9877 15.3716 13.1096 15.531 13.1424 15.7748C13.1752 16.0232 13.0674 16.2623 12.8564 16.4263C12.6268 16.6044 12.3877 16.6232 12.1252 16.4873C11.5955 16.2154 11.6049 15.4982 12.1393 15.2357C12.3877 15.1091 12.4768 15.1138 12.7346 15.2404ZM12.2939 17.3216C12.3971 17.3404 12.6033 17.3263 12.7486 17.2935C12.9971 17.2419 13.0346 17.2466 13.2736 17.3591C13.6439 17.5279 14.0143 17.8982 14.2111 18.2919C14.3002 18.4701 14.3752 18.6435 14.3752 18.6716C14.3752 18.6998 14.2814 18.7888 14.1736 18.8685C13.5127 19.3607 12.6408 19.5529 11.8299 19.3794C11.4596 19.2998 10.9111 19.0513 10.6627 18.8404L10.4893 18.6951L10.583 18.456C10.7705 17.9732 11.1268 17.5888 11.5861 17.3638C11.7455 17.2841 11.8674 17.256 11.9611 17.2701C12.0408 17.2841 12.1861 17.3076 12.2939 17.3216Z" fill="white"/>
<path d="M20.1404 12.9107C18.7201 13.1966 17.6092 14.2654 17.2576 15.6763C17.1404 16.1404 17.1498 16.9654 17.2764 17.4482C17.5576 18.517 18.3967 19.492 19.4045 19.9091C21.2701 20.6873 23.3514 19.867 24.1951 18.0248C24.4108 17.556 24.4998 17.1107 24.4998 16.506C24.4998 15.4513 24.0967 14.5232 23.3326 13.8154C22.4936 13.0326 21.2608 12.6857 20.1404 12.9107ZM21.4295 13.6607C22.4983 13.8857 23.4123 14.7623 23.6795 15.8169C23.7686 16.1779 23.7686 16.8716 23.6795 17.2232C23.6045 17.5091 23.3983 17.9966 23.3561 17.9966C23.342 17.9966 23.2904 17.917 23.2389 17.8185C23.0748 17.4998 22.7279 17.1201 22.3951 16.8998L22.0717 16.6841L22.1748 16.4873C22.3061 16.2154 22.3342 15.6951 22.2264 15.3763C22.1186 15.0529 21.7623 14.6685 21.4436 14.5232C21.2561 14.4435 21.1108 14.4154 20.8436 14.4154C20.5764 14.4154 20.4311 14.4435 20.2436 14.5232C19.9342 14.6638 19.5686 15.0529 19.4654 15.3529C19.3623 15.6623 19.367 16.1123 19.4842 16.4123C19.5358 16.5482 19.5779 16.6701 19.5779 16.6841C19.5779 16.6982 19.442 16.8013 19.2779 16.9091C18.9451 17.1248 18.6545 17.4435 18.4576 17.8091L18.3264 18.0482L18.2045 17.7763C17.9983 17.3076 17.9279 16.9841 17.9279 16.5013C17.9326 15.7045 18.2186 15.0341 18.8045 14.4529C19.5076 13.7545 20.4826 13.4638 21.4295 13.6607ZM21.2139 15.2685C21.6592 15.5966 21.6545 16.1357 21.2045 16.4685C21.0217 16.6044 20.6654 16.6044 20.4826 16.4685C20.0701 16.1638 20.0279 15.6716 20.3842 15.3388C20.6186 15.1185 20.9748 15.0904 21.2139 15.2685ZM20.7076 17.3216C20.8342 17.3404 21.0311 17.3263 21.167 17.2935C21.4014 17.2373 21.4201 17.242 21.7154 17.3873C21.8795 17.4669 22.1186 17.6357 22.2451 17.7623C22.4701 17.9873 22.7654 18.4935 22.7654 18.6576C22.7654 18.7795 22.1936 19.1404 21.7576 19.2951C21.4295 19.4076 21.3123 19.4216 20.8436 19.4216C20.3748 19.4216 20.2576 19.4076 19.9342 19.2951C19.4842 19.1357 18.9217 18.7841 18.9217 18.6623C18.9217 18.4935 19.217 17.9873 19.4514 17.7529C19.7233 17.481 20.1967 17.2326 20.3748 17.2701C20.4404 17.2794 20.5904 17.3076 20.7076 17.3216Z" fill="white"/>
</svg>
