<svg width="25" height="25" viewBox="0 0 25 25" fill="none" xmlns="http://www.w3.org/2000/svg">
<path d="M5.53163 0.613535C5.28319 0.67916 5.22694 0.711973 5.23631 0.786973C5.241 0.857285 6.00038 3.8901 6.01913 3.93229C6.0285 3.94166 6.81131 3.74947 6.83475 3.73541C6.83944 3.73072 6.66131 3.00416 6.43631 2.12291C5.97694 0.313535 6.07069 0.47291 5.53163 0.613535Z" fill="white"/>
<path d="M17.3205 0.721289C17.208 0.819725 17.1893 0.899414 17.0674 1.69629C16.9361 2.5916 16.8799 2.76035 16.7017 2.80254C16.4627 2.86348 16.3689 2.78379 15.8392 2.08066C15.3189 1.38691 15.2064 1.2791 15.0096 1.27441C14.8596 1.27441 14.7705 1.32598 14.1471 1.79941L13.5986 2.21191L12.6939 2.22598C11.9861 2.24004 11.6814 2.26816 11.2971 2.34785C9.64237 2.69941 8.18925 3.53379 7.1205 4.75723C6.06113 5.9666 5.37675 7.53691 5.26425 9.01816L5.23612 9.38379H5.08612C4.833 9.38379 4.75331 9.51973 4.59862 10.2697C4.51894 10.64 4.45331 10.9494 4.45331 10.9588C4.45331 10.9682 4.1955 10.7947 3.88144 10.5791C3.06112 10.0072 3.11737 9.99316 2.24081 10.8744C1.36425 11.7463 1.37831 11.69 1.92206 12.501C2.12831 12.8057 2.28769 13.0635 2.27362 13.0775C2.26425 13.0916 1.96425 13.1619 1.608 13.2369C0.693937 13.4291 0.750187 13.34 0.750187 14.5635C0.750187 15.7869 0.693937 15.6979 1.608 15.8947C1.96425 15.9697 2.26894 16.04 2.27831 16.0541C2.29237 16.0682 2.133 16.326 1.92675 16.6307C1.37362 17.4322 1.36425 17.376 2.24081 18.2525C3.11737 19.1291 3.06112 19.1197 3.86269 18.5666C4.16737 18.3604 4.42519 18.201 4.43925 18.215C4.45331 18.2291 4.52831 18.5291 4.60331 18.8854C4.71112 19.401 4.76269 19.5557 4.85644 19.6494L4.96894 19.7666H5.92988H6.89081L7.00331 19.6494C7.09706 19.5557 7.14863 19.401 7.25644 18.8854C7.33144 18.5291 7.40644 18.2291 7.41581 18.215C7.42988 18.201 7.69238 18.3604 7.99706 18.5713C8.733 19.0729 8.78456 19.0729 9.258 18.6135L9.60019 18.2807L9.61894 19.0494C9.633 19.7479 9.64237 19.8322 9.7455 20.0244C9.90956 20.3338 10.0268 20.4791 10.2283 20.615L10.4064 20.7416V21.9979C10.4064 23.5025 10.4346 23.6197 10.8705 24.0604C11.3018 24.4916 11.4424 24.5244 12.7971 24.5244C14.1049 24.5244 14.283 24.4869 14.6861 24.1072C15.1549 23.6713 15.2346 23.3432 15.2346 21.815V20.7744L15.5064 20.5025C15.9517 20.0666 15.9939 19.9213 16.0314 18.501C16.0689 17.1932 16.0924 17.0807 16.3971 16.6729C16.4908 16.5416 16.7533 16.3072 16.9689 16.1432C17.6486 15.6416 17.8643 15.4635 17.8455 15.4119C17.8221 15.3463 17.3768 14.8307 17.3346 14.826C17.2596 14.8166 16.2236 15.6135 15.9611 15.876C15.6892 16.1525 15.4549 16.5275 15.2955 16.94C15.2346 17.0994 15.2111 17.3947 15.1924 18.3369C15.1596 19.6682 15.1455 19.7197 14.8267 19.9635L14.658 20.0947L12.8721 20.1088C11.0955 20.1229 11.0861 20.1182 10.8799 20.015C10.4861 19.8135 10.4814 19.7994 10.4486 18.4869C10.4111 17.1979 10.3736 16.9729 10.0971 16.4619C9.88144 16.0729 9.60488 15.7822 9.04706 15.3838C8.42831 14.9338 8.0955 14.6432 7.7205 14.2213C5.52675 11.7416 5.45644 8.08066 7.55175 5.51191C8.70488 4.10098 10.5892 3.13066 12.258 3.08848C12.6752 3.0791 12.6799 3.0791 12.6939 3.19629C12.7033 3.26191 12.9377 3.61816 13.2189 3.99316C13.4955 4.36816 13.7393 4.71973 13.7533 4.77598C13.8002 4.92129 13.6643 5.15566 13.5142 5.19316C13.4486 5.21191 13.0736 5.1791 12.6846 5.12285C11.7471 4.9916 11.5783 4.9916 11.4424 5.13691C11.3486 5.23535 11.3111 5.40879 11.1517 6.51035C11.0533 7.19941 10.9689 7.8041 10.9689 7.84629C10.9689 7.88848 11.0158 7.98223 11.0767 8.04785C11.1752 8.16504 11.2455 8.18379 12.0471 8.30098C12.5252 8.37129 12.9611 8.45566 13.0127 8.48379C13.1674 8.56816 13.2424 8.78379 13.1627 8.9291C13.1299 8.99473 12.7877 9.28535 12.4033 9.58066C11.6252 10.1666 11.5549 10.2604 11.6908 10.5369C11.7752 10.7197 13.1111 12.5104 13.2424 12.6182C13.2846 12.6557 13.4017 12.6885 13.5002 12.6885C13.6455 12.6885 13.7767 12.6088 14.3814 12.1588C15.0283 11.676 15.1033 11.6291 15.2627 11.6432C15.4033 11.6525 15.4596 11.6854 15.5252 11.8025C15.6049 11.9385 15.6049 11.9713 15.483 12.8385C15.3611 13.6963 15.3611 13.7338 15.4408 13.8557C15.483 13.926 15.5674 14.001 15.6236 14.0197C15.6799 14.0432 16.2893 14.1416 16.983 14.2354C18.0846 14.3947 18.2486 14.4088 18.3564 14.3525C18.4221 14.315 18.4971 14.2494 18.5205 14.2025C18.5439 14.1604 18.6189 13.7479 18.6846 13.2885C18.8252 12.3041 18.8627 12.2197 19.1768 12.2197H19.383L19.9127 12.9229C20.4564 13.6447 20.6111 13.7807 20.8314 13.7244C20.9861 13.6869 22.9924 12.1869 23.0299 12.0791C23.0767 11.9619 23.0674 11.7791 23.0111 11.6713C22.983 11.615 22.7393 11.2822 22.4721 10.9213C22.1814 10.5322 21.9846 10.2275 21.9846 10.1619C21.9846 10.101 22.0268 9.99785 22.083 9.92754C22.2049 9.77285 22.2939 9.77285 23.2736 9.9041C24.0752 10.0166 24.2393 10.0072 24.3517 9.83848C24.4268 9.72598 24.7502 7.61191 24.7502 7.2416C24.7502 7.08691 24.7221 7.00723 24.633 6.92285C24.5721 6.85723 24.5018 6.80566 24.4736 6.80566C24.2439 6.80566 22.7861 6.55254 22.7017 6.50098C22.5611 6.40723 22.5142 6.21035 22.5986 6.06035C22.6361 5.99473 22.9502 5.72285 23.2971 5.46035C23.6439 5.19785 23.9674 4.93535 24.0142 4.8791C24.2017 4.64941 24.1502 4.53691 23.3111 3.42129C22.5002 2.34785 22.4111 2.25879 22.158 2.32441C22.0924 2.33848 21.7267 2.58691 21.3471 2.86816C20.5877 3.43066 20.4752 3.47285 20.2736 3.2666C20.1283 3.12598 20.1283 3.10723 20.2736 2.12285C20.3955 1.26504 20.3908 1.14785 20.1939 1.02129C20.0908 0.955664 17.9252 0.618164 17.5971 0.618164C17.5033 0.618164 17.3955 0.660351 17.3205 0.721289ZM18.8393 1.63066L19.4627 1.71504L19.4393 1.9541C19.4252 2.08066 19.3877 2.39473 19.3549 2.64785C19.2846 3.17754 19.3267 3.43066 19.5377 3.73535C19.7439 4.03066 20.0439 4.19004 20.4564 4.21816C20.8783 4.24629 21.0518 4.1666 21.7221 3.66035C21.9705 3.47754 22.1814 3.33223 22.1908 3.3416C22.4018 3.6041 23.0627 4.51348 23.0627 4.5416C23.058 4.56035 22.8846 4.70566 22.6736 4.86035C21.858 5.45566 21.7314 5.63848 21.7267 6.19629C21.7267 6.63223 21.8627 6.93691 22.1627 7.1666C22.4018 7.34941 22.5471 7.3916 23.2736 7.49473C23.583 7.53691 23.8455 7.57441 23.8549 7.58379C23.8689 7.59785 23.6721 9.06504 23.6486 9.09316C23.6439 9.09785 23.4189 9.06973 23.1564 9.03223C22.233 8.8916 21.8908 8.93848 21.5392 9.25254C21.258 9.49629 21.1642 9.72598 21.1642 10.1572C21.1642 10.5979 21.183 10.6354 21.6799 11.301C21.8721 11.5635 22.0314 11.7838 22.0314 11.7932C22.0314 11.8213 20.8877 12.6697 20.8408 12.6697C20.8174 12.6744 20.6158 12.4354 20.3955 12.1447C20.0533 11.6947 19.9502 11.5916 19.7299 11.4791C19.2846 11.2494 18.7455 11.3057 18.3799 11.615C18.0986 11.8494 18.0049 12.0791 17.8971 12.8104C17.8455 13.1807 17.7986 13.49 17.7939 13.4947C17.7846 13.5088 16.3127 13.2932 16.2939 13.2697C16.2846 13.2604 16.3174 12.9744 16.3643 12.6416C16.4674 11.9572 16.4486 11.7182 16.2846 11.39C16.0924 11.0104 15.6939 10.7854 15.2158 10.7807C14.8455 10.7807 14.6955 10.851 14.0861 11.301L13.5799 11.676L13.1392 11.0947C12.9002 10.7713 12.7033 10.49 12.7033 10.4666C12.7033 10.4432 12.9002 10.2791 13.1392 10.101C13.6971 9.67441 13.8002 9.58066 13.9268 9.33223C14.1658 8.88691 14.0158 8.16035 13.6267 7.86504C13.3783 7.67754 13.1768 7.61191 12.5392 7.52285C12.1689 7.47129 11.9346 7.41973 11.9205 7.38223C11.8971 7.3166 12.0752 5.9666 12.1127 5.9291C12.1267 5.91504 12.3939 5.94316 12.7033 5.98535C13.5658 6.10723 13.908 6.05098 14.2455 5.71816C14.5033 5.46504 14.6018 5.23066 14.5971 4.86035C14.5971 4.45723 14.5314 4.31191 14.0393 3.66504L13.6924 3.20566L14.3018 2.74629L14.9158 2.28691L15.0049 2.40879C15.7408 3.4166 15.9611 3.60879 16.4486 3.65098C16.8424 3.68848 17.1143 3.59941 17.3861 3.35566C17.6627 3.10723 17.7471 2.91504 17.8361 2.2916C17.958 1.44785 17.9439 1.49473 18.0846 1.52285C18.1549 1.53691 18.4924 1.58379 18.8393 1.63066ZM5.49862 11.8307C5.59706 12.1635 5.59706 12.1963 5.49394 12.1963C5.32987 12.1963 4.85175 12.3885 4.608 12.5479C4.12987 12.8666 3.79237 13.3213 3.60487 13.8932C3.47831 14.2963 3.49237 14.9807 3.64237 15.3885C3.76425 15.726 4.06425 16.1713 4.32206 16.3916C4.55644 16.5885 5.08612 16.8557 5.39081 16.926C6.31425 17.1369 7.39238 16.7104 7.91269 15.9229L8.04863 15.7213L8.44238 16.0025C8.958 16.3682 9.20175 16.6119 9.36112 16.9166L9.49238 17.165L9.09394 17.5635C8.87831 17.7838 8.67675 17.9619 8.658 17.9619C8.63456 17.9619 8.45175 17.8494 8.25488 17.7135C8.058 17.5729 7.833 17.4275 7.74863 17.3854C7.42519 17.2166 6.91894 17.3432 6.71738 17.6479C6.65644 17.7322 6.57206 17.9947 6.5205 18.2525C6.35644 19.0307 6.43144 18.9463 5.92988 18.9463C5.55019 18.9463 5.48925 18.9369 5.46581 18.8619C5.45644 18.8197 5.40019 18.576 5.34394 18.3229C5.29238 18.065 5.21737 17.8025 5.18456 17.7369C5.03925 17.4604 4.77675 17.3057 4.44862 17.3057C4.22362 17.3057 4.083 17.376 3.60019 17.7088C3.39862 17.8494 3.2205 17.9619 3.20175 17.9619C3.15019 17.9619 2.53144 17.3385 2.53144 17.2916C2.53144 17.2682 2.64862 17.0854 2.78925 16.8838C3.183 16.326 3.26269 16.0588 3.13612 15.726C3.01894 15.4119 2.808 15.2807 2.19394 15.1494C1.95487 15.0979 1.71112 15.0463 1.65487 15.0322C1.55175 15.0088 1.54706 14.9854 1.54706 14.5635C1.54706 14.1838 1.55644 14.1229 1.63144 14.0994C1.67362 14.09 1.94081 14.0291 2.22206 13.9729C2.78456 13.8604 3.00019 13.7291 3.12206 13.4291C3.26737 13.0869 3.19706 12.8291 2.79394 12.2525C2.64862 12.0463 2.53144 11.8635 2.53144 11.84C2.53144 11.7932 3.1455 11.165 3.19237 11.165C3.21112 11.165 3.43144 11.3057 3.68456 11.4791C4.07362 11.7463 4.17675 11.7932 4.38769 11.8119C4.758 11.8447 5.0205 11.6994 5.17519 11.3854C5.24081 11.2541 5.30175 11.1135 5.30175 11.076C5.30644 11.0338 5.33456 11.1275 5.36737 11.2822C5.3955 11.4369 5.45644 11.6807 5.49862 11.8307ZM6.07987 13.2932C6.30488 13.7432 6.60488 14.1885 7.008 14.676L7.36894 15.1119L7.28925 15.29C7.03613 15.8479 6.25331 16.2229 5.63456 16.0916C4.95487 15.9416 4.44862 15.3838 4.37831 14.6994C4.30331 13.9916 4.78144 13.2791 5.47988 13.0682C5.87831 12.9416 5.91581 12.9557 6.07987 13.2932ZM14.3908 21.3369V21.7119H12.8205H11.2502V21.3369V20.9619H12.8205H14.3908V21.3369ZM14.3908 22.7244C14.3908 22.9588 14.3064 23.2635 14.208 23.3854C14.1611 23.4416 14.0533 23.5307 13.9642 23.5822C13.8142 23.6713 13.7346 23.6807 12.7924 23.6807C11.8174 23.6807 11.7752 23.676 11.6205 23.5729C11.3533 23.3947 11.2502 23.1932 11.2502 22.8557V22.5557H12.8205H14.3908V22.7244Z" fill="white"/>
<path d="M17.475 4.32146C16.7625 4.40583 16.1672 4.70115 15.6281 5.23552C15.0141 5.8449 14.7328 6.47302 14.686 7.3449C14.6531 7.95427 14.7469 8.38552 15.0188 8.93865C15.5438 10.0027 16.5141 10.6261 17.7235 10.6871C18.3469 10.7152 18.7922 10.6215 19.3031 10.3683C20.1422 9.94646 20.7328 9.21521 20.9813 8.30583C21.0891 7.9074 21.0891 7.12927 20.986 6.71208C20.5781 5.14646 19.0875 4.13396 17.475 4.32146ZM18.6 5.26833C19.6735 5.61052 20.386 6.75896 20.2078 7.84646C20.0203 8.98552 19.0172 9.84802 17.8828 9.85271C16.3641 9.85271 15.2063 8.38083 15.586 6.92302C15.6938 6.51521 15.8766 6.21052 16.2235 5.85427C16.875 5.19802 17.7235 4.98708 18.6 5.26833Z" fill="white"/>
<path d="M2.01585 3.01348C1.87991 3.19629 1.79085 3.36035 1.81429 3.3791C1.84241 3.39316 2.47054 3.84316 3.22054 4.37754C3.97054 4.9166 4.59397 5.35254 4.60804 5.35254C4.63616 5.35254 5.05804 4.76191 5.07679 4.69629C5.08616 4.65879 2.44241 2.74629 2.31585 2.69473C2.28772 2.68535 2.15179 2.82598 2.01585 3.01348Z" fill="white"/>
<path d="M9.51603 5.24941C8.27853 6.16348 7.5051 7.44785 7.26135 8.97598C7.18166 9.48223 7.23322 10.6072 7.3551 11.0713C7.6551 12.2197 8.18478 13.1338 8.97697 13.8744C9.43166 14.301 9.84416 14.5682 10.6082 14.9385C11.452 15.3463 11.8551 15.7025 12.1317 16.2838C12.2488 16.5416 12.3754 17.0104 12.3754 17.2072V17.3525H12.802H13.2332L13.2004 17.0338C13.1488 16.551 13.0879 16.3354 12.8582 15.8666C12.7129 15.5619 12.5582 15.3369 12.3426 15.1025C11.9723 14.6994 11.6582 14.4838 11.0629 14.2119C10.2426 13.8369 9.84416 13.5604 9.33791 13.0166C8.73791 12.3744 8.34885 11.6244 8.14728 10.7244C8.02541 10.1713 8.04885 9.17754 8.19416 8.62441C8.4801 7.56035 9.10353 6.62754 9.94728 5.99941C10.1207 5.86816 10.266 5.75098 10.266 5.73691C10.266 5.71348 9.84416 5.02441 9.8301 5.02441C9.82541 5.02441 9.68478 5.12754 9.51603 5.24941Z" fill="white"/>
<path d="M2.74229 6.98376C1.86572 7.20407 1.14385 7.3822 1.13916 7.38688C1.13916 7.39157 1.17666 7.57438 1.22822 7.80407C1.30791 8.13688 1.34072 8.21188 1.40166 8.19313C1.44385 8.17907 2.16104 7.99626 3.0001 7.79001C3.83447 7.57907 4.52822 7.40095 4.5376 7.39157C4.56104 7.36813 4.40635 6.71657 4.36416 6.63688C4.34541 6.60407 3.80635 6.72126 2.74229 6.98376Z" fill="white"/>
<path d="M20.3438 15.7588V16.1807H21.75H23.1562V15.7588V15.3369H21.75H20.3438V15.7588Z" fill="white"/>
<path d="M19.9268 17.7556C19.7909 17.9243 19.6831 18.0696 19.6925 18.079C19.7018 18.0837 20.2503 18.5384 20.9065 19.0868L22.1018 20.0806L22.3268 19.8321C22.4487 19.6915 22.5706 19.5415 22.5987 19.4993C22.6362 19.429 22.4581 19.2649 21.4597 18.4306C20.8128 17.8915 20.255 17.4462 20.2315 17.4462C20.2034 17.4462 20.0675 17.5868 19.9268 17.7556Z" fill="white"/>
<path d="M12.375 18.7588V19.3682H12.7969H13.2188V18.7588V18.1494H12.7969H12.375V18.7588Z" fill="white"/>
<path d="M17.9531 19.9307V21.3369H18.375H18.7969V19.9307V18.5244H18.375H17.9531V19.9307Z" fill="white"/>
</svg>
