<svg width="21" height="24" viewBox="0 0 21 24" fill="none" xmlns="http://www.w3.org/2000/svg">
<path d="M10.0844 0.716894C10.0422 0.763769 9.89225 1.10127 9.75162 1.47158C9.611 1.84189 9.48444 2.15127 9.47506 2.15596C9.47037 2.16064 9.25006 2.23564 8.99225 2.32002C8.73444 2.39971 8.29381 2.58252 8.01256 2.71846L7.49694 2.96689L6.82662 2.67158C6.45631 2.50752 6.10944 2.37158 6.05319 2.37158C5.92662 2.37158 4.01881 4.25127 3.97662 4.42002C3.95787 4.49971 4.03756 4.73408 4.25319 5.22627L4.55787 5.91533L4.30944 6.41689C4.1735 6.68877 3.99069 7.13877 3.90162 7.40596L3.74225 7.89814L3.0485 8.16533C2.62194 8.32939 2.32662 8.47002 2.28444 8.53096C2.23287 8.61064 2.21881 8.87783 2.21881 9.97939C2.21881 10.856 2.23756 11.3622 2.27037 11.4278C2.32194 11.5263 2.32662 11.5263 3.18444 11.8591L3.75631 12.0794L3.836 12.3606C3.92975 12.7075 4.286 13.5653 4.44537 13.8372L4.56256 14.0388L4.27662 14.6856C4.11725 15.0419 3.986 15.4028 3.98131 15.4872C3.98131 15.6185 4.04225 15.7028 4.46412 16.1247L4.94694 16.6122L4.60475 16.8091C4.41256 16.9216 4.04694 17.1325 3.78912 17.2825L3.32506 17.5544L3.14694 17.2731C3.00631 17.0528 2.92194 16.9685 2.7485 16.8935C2.39225 16.7388 2.15319 16.7856 1.52506 17.1325C1.22975 17.2966 0.929749 17.4841 0.854749 17.5497C0.601624 17.756 0.498499 18.0981 0.582874 18.4122C0.620374 18.5622 2.80006 22.4763 3.36725 23.4185C3.5735 23.756 3.79381 23.8872 4.1735 23.8872C4.42662 23.8872 4.49225 23.8638 5.03131 23.5591C5.711 23.1747 5.76725 23.1278 5.87975 22.8794C6.01569 22.5841 5.99225 22.3263 5.80475 21.9653L5.64537 21.6513L5.86569 21.5341L6.086 21.4169L8.24225 21.9981C10.0094 22.4763 10.4735 22.5888 10.8204 22.6075C11.2891 22.6356 11.7344 22.556 12.0766 22.3825C12.4844 22.1763 18.4001 18.5153 18.5407 18.3794C18.6204 18.2997 18.7422 18.1216 18.8079 17.981C19.0282 17.5028 18.9391 16.795 18.6157 16.4435L18.5126 16.3403L18.7985 16.045C19.0985 15.7403 19.1876 15.6044 19.1876 15.4638C19.1876 15.4169 19.0516 15.0841 18.8922 14.7231L18.5969 14.0669L18.8641 13.5091C19.0094 13.1997 19.1922 12.7544 19.2626 12.5153L19.3985 12.0794L20.0876 11.8122C20.4719 11.6622 20.8188 11.5028 20.861 11.4513C20.936 11.3716 20.9454 11.231 20.9454 9.97939V8.59658L20.8282 8.49814C20.7626 8.44189 20.4157 8.28252 20.0547 8.14658L19.3985 7.89814L19.2579 7.44814C19.1829 7.19971 19.0001 6.75439 18.8594 6.45439L18.5922 5.91064L18.8876 5.25439C19.0516 4.89346 19.1829 4.56064 19.1829 4.51377C19.1922 4.34502 19.0376 4.15752 18.1704 3.29971C17.6079 2.74189 17.2422 2.41377 17.1579 2.39502C17.0547 2.36689 16.8813 2.42314 16.3422 2.66221L15.6532 2.96689L15.0907 2.69502C14.7766 2.54971 14.3313 2.36689 14.0922 2.29189L13.661 2.16064L13.4126 1.50908C13.2766 1.15283 13.1266 0.805956 13.0797 0.745018L12.9954 0.637207H11.5751C10.2813 0.637207 10.1501 0.646582 10.0844 0.716894ZM12.5735 1.56064C12.7516 2.05283 13.0141 2.69971 13.061 2.76533C13.0938 2.80283 13.3282 2.90127 13.586 2.97627C14.1579 3.14502 14.7204 3.38408 15.1563 3.63721C15.3344 3.74033 15.5313 3.82471 15.5922 3.82471C15.6579 3.82471 15.9907 3.69814 16.3329 3.54346L16.961 3.26689L17.6313 3.93252L18.2969 4.59814L18.0157 5.23096C17.861 5.57783 17.7344 5.91064 17.7344 5.97158C17.7344 6.03252 17.8188 6.22471 17.9219 6.40283C18.1751 6.83877 18.4141 7.40127 18.5829 7.97314C18.6579 8.23096 18.7563 8.47002 18.7985 8.49814C18.8829 8.56377 20.0547 9.02783 20.1297 9.02783C20.1579 9.02783 20.1672 9.40283 20.1626 9.97471L20.1485 10.9216L19.4829 11.1841C19.1126 11.3247 18.7938 11.4653 18.7657 11.4888C18.7422 11.5169 18.6579 11.756 18.5782 12.0231C18.4188 12.5481 18.1938 13.0825 17.9126 13.5841C17.8141 13.7575 17.7344 13.9497 17.7344 14.006C17.7344 14.0669 17.861 14.3997 18.0157 14.7466L18.2969 15.3747L18.011 15.6653L17.7251 15.9513L17.3876 15.9794C17.1016 16.0028 16.6657 16.12 16.3188 16.27C16.2485 16.2981 16.2485 16.2841 16.3188 16.0263C16.4454 15.5856 16.4266 14.4606 16.2907 13.9591L16.1829 13.57L16.3188 13.3966C16.6188 13.0169 17.0172 12.1966 17.1907 11.606C17.4813 10.6263 17.4719 9.28564 17.1672 8.29658C16.5485 6.27627 14.9172 4.76221 12.8501 4.28408C12.311 4.15752 11.0219 4.13408 10.4922 4.24189C8.13912 4.70596 6.34381 6.48721 5.84225 8.84971C5.72506 9.40283 5.72975 10.5935 5.84694 11.1372C6.01569 11.9153 6.32037 12.6419 6.73756 13.2653L6.95319 13.5888L6.85006 13.9919C6.761 14.32 6.74225 14.5169 6.74225 15.0606V15.7263L6.62506 15.7544C6.55944 15.7731 6.31569 15.8763 6.08131 15.9888L5.65006 16.1903L5.25162 15.7825L4.85319 15.3794L5.12506 14.77C5.27506 14.4325 5.40162 14.1091 5.40162 14.0435C5.40631 13.9778 5.27037 13.6544 5.10162 13.3216C4.93287 12.9935 4.71256 12.4544 4.60944 12.131C4.50631 11.8075 4.3985 11.5169 4.37506 11.4888C4.34694 11.456 4.03287 11.32 3.67194 11.1841L3.01569 10.9356V9.98877V9.04189L3.67194 8.79346C4.03287 8.65283 4.35162 8.52158 4.37037 8.49346C4.39381 8.46533 4.511 8.14658 4.62819 7.79033C4.75006 7.42471 4.96569 6.90439 5.12506 6.60439C5.27975 6.30908 5.40631 6.01846 5.40631 5.95283C5.40631 5.89189 5.28444 5.55908 5.12975 5.21221L4.85787 4.58408L5.51881 3.92314L6.18444 3.25752L6.80787 3.54346C7.15475 3.69814 7.48287 3.82471 7.54381 3.82471C7.60006 3.82471 7.886 3.70283 8.18131 3.54814C8.73912 3.25752 9.15162 3.09346 9.70006 2.93408C9.88756 2.88252 10.061 2.81221 10.0844 2.77939C10.1126 2.74658 10.2344 2.46533 10.3563 2.15596C10.4735 1.85127 10.5907 1.55127 10.6141 1.49033C10.6516 1.38721 10.661 1.38721 11.5844 1.38721H12.5126L12.5735 1.56064ZM12.8172 5.10439C13.6891 5.32939 14.486 5.79346 15.1235 6.43564C16.0563 7.37783 16.5391 8.47471 16.5954 9.77783C16.6329 10.6778 16.4922 11.3575 16.0938 12.1919C15.7938 12.82 15.8313 12.8153 15.461 12.2575C15.1282 11.756 14.4344 10.8747 13.9657 10.345L13.6985 10.0497L13.8157 9.92314C13.9891 9.74502 14.0782 9.48721 14.0782 9.17783C14.0782 8.81689 13.9329 8.54033 13.6469 8.34346L13.4313 8.19814L13.7126 7.92158C14.0782 7.55596 14.186 7.34971 14.186 6.98877C14.186 6.52939 13.9047 6.11689 13.4922 5.98096C13.3188 5.92471 12.8126 5.93408 12.6672 5.99971C12.611 6.02314 12.5829 5.99971 12.5594 5.91064C12.5079 5.70908 12.161 5.39971 11.9079 5.32939C11.411 5.18877 10.8954 5.38096 10.6657 5.79814C10.5766 5.96221 10.5204 6.01846 10.4688 5.99502C10.3235 5.93408 9.81725 5.92471 9.6485 5.98096C9.236 6.11689 8.96881 6.51064 8.96881 6.98877C8.96881 7.35908 9.07662 7.57939 9.42819 7.92158L9.71412 8.19814L9.54069 8.31533C9.33444 8.45596 9.2735 8.52627 9.15631 8.77002C8.98287 9.12627 9.05319 9.59033 9.32037 9.90908L9.44225 10.0544L8.96412 10.6075C8.40162 11.2638 7.90006 11.92 7.60944 12.3888C7.49225 12.5763 7.38444 12.7263 7.36569 12.731C7.28131 12.7356 6.80787 11.6481 6.69537 11.2075C6.06256 8.71377 7.45006 6.12158 9.88287 5.24971C10.5626 5.00596 10.9469 4.94971 11.711 4.96846C12.2172 4.98252 12.4704 5.01533 12.8172 5.10439ZM11.7438 6.15439C11.786 6.20127 11.8516 6.31377 11.8891 6.40283C12.0344 6.75908 12.4188 6.94189 12.7891 6.82939C13.1735 6.71221 13.2672 6.71221 13.3469 6.83877C13.3938 6.90439 13.4126 6.98877 13.3938 7.04033C13.3751 7.08721 13.1407 7.35439 12.8641 7.63096L12.3672 8.13721H11.5704H10.7688L10.2672 7.62627C9.74225 7.09658 9.67662 6.96533 9.84069 6.80596C9.92975 6.71221 10.0376 6.71221 10.2485 6.80127C10.4969 6.90439 10.736 6.89033 10.961 6.75439C11.1344 6.65596 11.3126 6.41221 11.3126 6.28096C11.3126 6.20596 11.4719 6.07471 11.5704 6.07471C11.6266 6.07471 11.7063 6.11221 11.7438 6.15439ZM13.1969 9.01377C13.3001 9.10752 13.3047 9.27627 13.2063 9.37471C13.1454 9.44033 12.9297 9.44971 11.5844 9.44971C10.2063 9.44971 10.0235 9.44033 9.94381 9.37002C9.82662 9.26689 9.836 9.09346 9.96256 9.00908C10.0516 8.94346 10.286 8.93408 11.5891 8.93408C12.9391 8.93408 13.1172 8.94346 13.1969 9.01377ZM13.3141 10.8466C14.2188 11.8731 14.8235 12.6888 15.2032 13.406C15.7188 14.3622 15.761 15.4685 15.3251 16.3685C15.0251 16.9872 14.9969 17.0106 13.6751 17.7841C13.0047 18.1731 12.4282 18.506 12.3813 18.52C12.3157 18.5481 12.311 18.5294 12.3532 18.3466C12.4422 17.9528 12.3016 17.4841 12.0016 17.1653C11.8516 17.0106 11.8376 16.9731 11.8844 16.8841C11.9126 16.8325 11.9501 16.7247 11.9641 16.6497C11.9876 16.5372 12.0344 16.4997 12.2032 16.4435C12.4985 16.345 12.761 16.1622 12.9204 15.9372C13.1032 15.6794 13.1454 15.2247 13.0235 14.906C12.8454 14.4325 12.461 14.1747 11.6641 13.9966C11.3032 13.9122 11.1719 13.8606 11.0688 13.7575C10.6657 13.3591 11.3313 12.8622 11.9079 13.1388C11.9969 13.181 12.1282 13.3028 12.1938 13.406C12.3626 13.6591 12.4329 13.7106 12.6157 13.7153C12.8172 13.7153 13.0001 13.5372 13.0001 13.3403C13.0001 13.0122 12.611 12.5481 12.1891 12.3747C12.0204 12.3091 11.9688 12.2622 11.9688 12.1825C11.9688 11.9013 11.7297 11.7091 11.4579 11.77C11.2844 11.8075 11.1719 11.9528 11.1719 12.145C11.1719 12.2669 11.1438 12.295 10.9516 12.3747C10.1876 12.6888 9.90631 13.5794 10.3704 14.2216C10.5438 14.456 10.961 14.6716 11.4391 14.77C12.0391 14.8919 12.2969 15.056 12.2969 15.3138C12.2969 15.5528 11.9969 15.731 11.5985 15.731C11.1907 15.731 10.9422 15.5763 10.811 15.2481C10.7266 15.0419 10.6329 14.981 10.4032 14.981C9.67194 14.981 10.1454 16.195 10.9751 16.4435C11.1438 16.495 11.1719 16.5185 11.1719 16.6263V16.7528L10.811 16.6591C10.2485 16.5185 9.60162 16.3122 8.81881 16.031C8.42506 15.8903 7.98444 15.745 7.84381 15.7122C7.60006 15.656 7.586 15.6466 7.5485 15.4685C7.4735 15.1356 7.54381 14.47 7.69381 14.0153C7.961 13.2231 8.64069 12.206 9.7235 10.9778C10.0188 10.645 10.2766 10.345 10.3047 10.3122C10.3422 10.2606 10.5907 10.2466 11.5704 10.2466H12.7891L13.3141 10.8466ZM8.39225 16.7341C9.41412 17.1044 10.0891 17.3153 10.7172 17.4653C11.3219 17.6106 11.4579 17.6903 11.5469 17.9622C11.6126 18.1544 11.5188 18.4075 11.3407 18.5247C11.1579 18.6419 10.8391 18.595 9.73756 18.2903C9.21725 18.145 8.72506 18.0278 8.64537 18.0278C8.4485 18.0278 8.26569 18.2106 8.26569 18.3981C8.26569 18.6794 8.39694 18.7544 9.41412 19.0356C11.0829 19.4997 11.8469 19.5794 12.4938 19.3497C12.6391 19.2981 13.6094 18.7591 14.6547 18.1497C15.7001 17.5403 16.6891 16.9919 16.8579 16.9263C17.6407 16.6356 18.1282 16.7997 18.1282 17.3669C18.1282 17.4981 18.0954 17.6435 18.0532 17.7091C17.9407 17.8825 11.8235 21.6325 11.4766 21.745C11.0079 21.8903 10.7641 21.8481 8.35006 21.1966C7.14537 20.8731 6.09537 20.606 6.011 20.606C5.92662 20.606 5.72975 20.6763 5.561 20.7747C5.39225 20.8685 5.24225 20.9294 5.22819 20.9106C5.20944 20.8919 4.86725 20.2966 4.45944 19.5841C3.90631 18.6044 3.73756 18.2716 3.77975 18.2341C3.89694 18.131 6.39069 16.7153 6.62506 16.6216C7.23912 16.3778 7.44537 16.3919 8.39225 16.7341ZM3.7985 20.0481C4.5485 21.3747 5.16725 22.481 5.16725 22.5044C5.17194 22.556 4.24381 23.0903 4.15475 23.0903C4.0985 23.0903 1.37506 18.3044 1.37506 18.206C1.37506 18.1403 2.30787 17.6013 2.38287 17.6247C2.411 17.6294 3.04381 18.7216 3.7985 20.0481Z" fill="white"/>
<path d="M2.04549 18.1779C1.83924 18.2763 1.79705 18.5857 1.9658 18.7544C2.06892 18.8529 2.37361 18.8435 2.46736 18.7404C2.57049 18.6232 2.57049 18.3419 2.46736 18.2482C2.35017 18.1497 2.16736 18.1169 2.04549 18.1779Z" fill="white"/>
</svg>
