<svg width="21" height="25" viewBox="0 0 21 25" fill="none" xmlns="http://www.w3.org/2000/svg">
<path d="M1.57187 0.384014C1.30937 0.515265 1.14062 0.698078 1.02344 0.979328C0.9625 1.12933 0.953125 2.14183 0.953125 9.82933C0.953125 16.5325 0.967187 18.5528 1.00937 18.7028C1.04687 18.82 1.15469 18.9793 1.28594 19.1153C1.66562 19.495 1.50625 19.4809 5.50937 19.4809C9.12344 19.4809 9.14219 19.4809 9.28281 19.2981C9.38125 19.1715 9.35312 18.9278 9.22656 18.8012L9.11406 18.684H5.575H2.04062L1.89531 18.5621L1.75 18.4403V9.8762C1.75 0.365265 1.72187 1.15745 2.06875 1.05902C2.30781 0.993389 15.5828 0.993389 15.8219 1.05902C16.1687 1.15745 16.1406 0.618389 16.1406 7.59808C16.1406 13.4856 16.1453 13.8887 16.225 14.0434C16.3891 14.3715 16.8109 14.334 16.9281 13.9778C16.975 13.8325 16.9844 12.4965 16.975 7.48558C16.9609 1.5512 16.9562 1.16683 16.8766 0.993389C16.7406 0.688702 16.5812 0.515265 16.3187 0.384014L16.075 0.26214H8.94531H1.81562L1.57187 0.384014Z" fill="white"/>
<path d="M4.67978 3.87181C4.1829 3.94213 3.68134 4.33119 3.4704 4.79994C3.33915 5.10463 3.31103 5.62025 3.40947 5.92494C3.67197 6.71244 4.43134 7.16713 5.24228 7.01244C5.96415 6.8765 6.53134 6.22025 6.53134 5.51713C6.53134 5.23588 6.4329 5.09994 6.19853 5.06244C5.95009 5.02025 5.78134 5.18431 5.72978 5.50775C5.6829 5.81244 5.50947 6.05619 5.24697 6.17338C5.00322 6.28119 4.87197 6.28119 4.62822 6.17338C4.21103 5.98119 4.02822 5.49369 4.22978 5.10463C4.35165 4.85619 4.53447 4.72963 4.84853 4.664C5.19072 4.59369 5.25634 4.5515 5.30322 4.37338C5.36415 4.15306 5.28447 3.97025 5.09697 3.89056C5.01259 3.85306 4.9329 3.82963 4.92822 3.82963C4.91884 3.83431 4.80634 3.85306 4.67978 3.87181Z" fill="white"/>
<path d="M7.48745 4.35908C7.38901 4.44346 7.3562 4.50908 7.3562 4.64502C7.3562 4.78096 7.38901 4.84658 7.48745 4.93096L7.61401 5.04346H10.1687H12.7234L12.8359 4.92627C12.9156 4.85127 12.9531 4.76221 12.9531 4.64502C12.9531 4.52783 12.9156 4.43877 12.8359 4.36377L12.7234 4.24658H10.1687H7.61401L7.48745 4.35908Z" fill="white"/>
<path d="M7.50163 5.93408C7.43601 5.98564 7.37038 6.08877 7.35163 6.16377C7.31882 6.31846 7.42195 6.56221 7.53913 6.60908C7.58132 6.62314 9.12351 6.63721 10.9657 6.63721H14.3173L14.4298 6.52002C14.5469 6.40752 14.5798 6.21533 14.5188 6.05127C14.4344 5.84033 14.4157 5.84033 10.9235 5.84033C7.68445 5.84033 7.61882 5.84033 7.50163 5.93408Z" fill="white"/>
<path d="M4.46869 8.31982C4.06088 8.44639 3.65306 8.80732 3.47025 9.20576C3.31556 9.54326 3.32494 10.1808 3.489 10.5323C3.64838 10.8745 3.939 11.1604 4.2765 11.3151C4.65619 11.4933 5.21869 11.4933 5.59838 11.3151C6.09056 11.0901 6.46556 10.5839 6.51713 10.0823C6.55463 9.74482 6.50775 9.6042 6.34369 9.51982C6.039 9.36045 5.79525 9.51514 5.72963 9.91357C5.70619 10.0636 5.64056 10.2276 5.56556 10.3261C5.42963 10.5042 5.12963 10.6683 4.93744 10.6683C4.57181 10.6683 4.18744 10.3073 4.14994 9.92295C4.11244 9.50107 4.38431 9.16357 4.82963 9.0792C5.16244 9.01357 5.22338 8.98076 5.289 8.82607C5.35931 8.66201 5.30775 8.42764 5.18588 8.33389C5.1015 8.27295 4.65619 8.26357 4.46869 8.31982Z" fill="white"/>
<path d="M7.48761 8.76533C7.31417 8.91064 7.30948 9.15908 7.46886 9.33252L7.57667 9.44971H9.14229H10.7079L10.8204 9.33252C10.9001 9.25752 10.9376 9.16846 10.9376 9.05127C10.9376 8.93408 10.9001 8.84502 10.8204 8.77002L10.7079 8.65283H9.16104H7.61417L7.48761 8.76533Z" fill="white"/>
<path d="M12.6999 8.72783C12.3952 8.82627 11.9734 9.24346 11.8515 9.56689C11.7671 9.78252 11.7577 9.98408 11.7437 12.356L11.7296 14.906L11.0405 15.6138C10.314 16.3591 10.164 16.5747 10.0234 17.1185C9.88742 17.6388 9.92023 17.8591 10.4405 20.081C10.8343 21.7497 10.9655 22.2231 11.1015 22.495C11.5187 23.3435 12.2827 23.9622 13.1921 24.1872C13.4499 24.2528 13.8343 24.2622 15.6765 24.2622C18.114 24.2622 18.128 24.2622 18.789 23.9341C19.4452 23.6106 19.8952 23.1606 20.2187 22.5044C20.5562 21.8294 20.5515 21.8575 20.5374 19.0028L20.5234 16.4575L20.3827 16.2044C20.2327 15.9278 19.9562 15.6794 19.6796 15.5622C19.3609 15.431 18.6999 15.4825 18.4609 15.656C18.3765 15.7169 18.353 15.7075 18.1702 15.52C17.8562 15.1919 17.6405 15.0981 17.1718 15.0981C16.853 15.0981 16.7312 15.1169 16.5624 15.2013L16.3515 15.3091L16.1405 15.1028C15.7046 14.6763 15.1749 14.5638 14.6265 14.77C14.5515 14.8028 14.5468 14.6622 14.5468 12.2997C14.5468 9.48721 14.5515 9.53408 14.2093 9.14502C13.8437 8.72783 13.2296 8.55908 12.6999 8.72783ZM13.4077 9.52939C13.5015 9.57158 13.614 9.67002 13.6609 9.74971C13.7452 9.89033 13.7499 10.0544 13.7499 13.3497V16.8044L13.8577 16.9263C14.003 17.095 14.2609 17.1044 14.4296 16.9497C14.5374 16.8466 14.5468 16.8091 14.5468 16.4153C14.5468 15.9419 14.6171 15.7356 14.8374 15.5763C15.0015 15.4544 15.3109 15.4544 15.4702 15.5716C15.7187 15.7544 15.7655 15.9278 15.7655 16.6122C15.7655 17.2122 15.7702 17.2403 15.8827 17.3481C16.0374 17.5075 16.2905 17.5075 16.4452 17.3481C16.553 17.245 16.5624 17.1981 16.5624 16.8091C16.5624 16.3075 16.6327 16.1013 16.853 15.9653C17.1812 15.7591 17.6077 15.9419 17.7296 16.3356C17.7577 16.4341 17.7812 16.7716 17.7812 17.0856C17.7812 17.5872 17.7905 17.6622 17.8749 17.7466C18.0015 17.8731 18.1749 17.906 18.3249 17.831C18.5265 17.7372 18.578 17.5872 18.578 17.095V16.6591L18.7609 16.4763C18.9202 16.3169 18.9671 16.2935 19.1593 16.2935C19.3421 16.2935 19.403 16.3216 19.553 16.4528L19.7265 16.6122L19.7405 18.9981C19.7499 20.545 19.7359 21.4591 19.703 21.6091C19.5343 22.3919 18.8499 23.1325 18.0765 23.3716C17.7905 23.4606 17.6405 23.4653 15.6718 23.4653C13.7077 23.4653 13.553 23.4606 13.2718 23.3716C12.6671 23.1841 12.1093 22.706 11.828 22.1388C11.7296 21.9325 11.5515 21.2903 11.2327 19.9497C10.7077 17.7513 10.6796 17.4981 10.8999 17.0435C10.9796 16.8888 11.1671 16.6497 11.3827 16.4341L11.7343 16.0872V16.6731C11.7343 17.4981 11.8046 17.6528 12.1702 17.6528C12.2734 17.6528 12.3624 17.6153 12.428 17.545L12.5265 17.4372L12.5405 13.6919C12.5546 10.0169 12.5546 9.93721 12.6484 9.77783C12.7468 9.61377 12.9952 9.44971 13.1546 9.44971C13.2062 9.44971 13.3187 9.48721 13.4077 9.52939Z" fill="white"/>
<path d="M7.56248 10.3075C7.31873 10.4294 7.27186 10.7528 7.46873 10.9497C7.5578 11.0388 7.6328 11.0435 9.14686 11.0435H10.7359L10.8344 10.9356C10.8953 10.87 10.9375 10.7669 10.9375 10.6825C10.9375 10.256 10.8953 10.2466 9.14686 10.2466C8.05936 10.2466 7.65155 10.2653 7.56248 10.3075Z" fill="white"/>
<path d="M4.34219 12.7823C4.01406 12.9089 3.65781 13.237 3.49844 13.5651C3.38125 13.7995 3.36719 13.8839 3.36719 14.2776C3.36719 14.6948 3.37656 14.7417 3.52656 15.0183C3.70469 15.3464 3.95781 15.5808 4.30937 15.7401C4.4875 15.8198 4.62344 15.8433 4.9375 15.8433C5.3875 15.8433 5.65469 15.7495 5.99219 15.4776C6.35312 15.1823 6.61094 14.5073 6.5125 14.1183C6.47969 13.9917 6.27344 13.8558 6.10937 13.8558C5.95469 13.8558 5.73437 14.1042 5.73437 14.2776C5.73437 14.7604 5.20469 15.1683 4.75 15.0323C4.51562 14.962 4.28594 14.7698 4.20625 14.5729C4.01875 14.1323 4.29062 13.5979 4.75 13.4995C5.14844 13.4151 5.22812 13.3776 5.28906 13.237C5.35937 13.0683 5.3125 12.8339 5.18594 12.7401C5.06875 12.6558 4.61875 12.6745 4.34219 12.7823Z" fill="white"/>
<path d="M7.50627 13.1481C7.36096 13.2653 7.3094 13.4294 7.37502 13.6028C7.47346 13.856 7.46409 13.8513 9.1469 13.856H10.7078L10.8203 13.7388C10.9656 13.5981 10.975 13.3497 10.8485 13.195L10.7594 13.0825L9.19377 13.0685C7.67971 13.0544 7.62346 13.0591 7.50627 13.1481Z" fill="white"/>
<path d="M7.56248 14.7138C7.31873 14.8403 7.27186 15.1591 7.46873 15.356C7.5578 15.445 7.62811 15.4497 8.75311 15.4497H9.94842L10.0422 15.3278C10.1781 15.1544 10.1687 14.9294 10.0187 14.7888C9.90155 14.6763 9.89217 14.6763 8.79061 14.6622C7.95623 14.6528 7.65155 14.6669 7.56248 14.7138Z" fill="white"/>
</svg>
