<svg width="25" height="25" viewBox="0 0 25 25" fill="none" xmlns="http://www.w3.org/2000/svg">
<path d="M1.12031 0.370018C1.03594 0.426268 0.914062 0.548141 0.857813 0.632517L0.75 0.791893V10.9731V21.1544L0.857813 21.3138C1.05469 21.6044 1.22813 21.6841 1.66875 21.6841H2.0625V22.0356C2.0625 22.4481 2.13281 22.6497 2.33906 22.8231C2.52188 22.9731 2.75625 23.0435 3.09844 23.0435H3.36563L3.38438 23.3856C3.39375 23.6622 3.42656 23.77 3.525 23.92C3.76875 24.2903 3.29063 24.2622 9.68438 24.2622H15.3938L17.1094 22.5513L18.8203 20.8403L18.8344 19.0403L18.8484 17.2403L19.2328 17.2075C19.4438 17.1935 19.7484 17.156 19.9031 17.1325C20.6625 17.02 21.8391 16.5513 21.9422 16.3216C22.0453 16.1013 21.8672 15.7778 21.6375 15.7778C21.5766 15.7778 21.3516 15.8622 21.1359 15.9606C19.6922 16.6403 18.1406 16.6216 16.7109 15.9231C16.4531 15.7966 16.1063 15.5903 15.9469 15.4685L15.6469 15.2481L17.3531 13.5419C18.2859 12.6091 19.0734 11.8403 19.1016 11.8403C19.1906 11.8403 23.6484 13.0263 23.6859 13.0591C23.7797 13.1435 23.3438 13.9778 22.9125 14.5403C22.65 14.8872 22.6219 15.0606 22.8047 15.2388C23.0672 15.506 23.3016 15.3653 23.7891 14.6294C24.4688 13.6075 24.75 12.6466 24.75 11.3622C24.75 9.82002 24.2156 8.47471 23.1656 7.37783C22.1297 6.29502 20.8219 5.69502 19.2563 5.58252L18.7969 5.54971V4.45752C18.7969 3.40283 18.7922 3.36533 18.6891 3.21064C18.4922 2.92002 18.3188 2.84033 17.8781 2.84033H17.4844V2.49814C17.4844 1.86533 17.1891 1.57471 16.5422 1.57471H16.1813L16.1672 1.18564C16.1531 0.857517 16.1297 0.763767 16.0219 0.604393C15.7781 0.234079 16.4297 0.262205 8.42344 0.262205H1.27969L1.12031 0.370018ZM15.3469 0.993454C15.4031 1.01689 15.4219 1.09189 15.4219 1.29814V1.57471L11.2688 1.58408L7.11094 1.59814L7.01719 1.7247C6.9375 1.83252 6.92813 1.88408 6.96563 2.02939C6.99375 2.14189 7.05 2.22627 7.125 2.26377C7.21875 2.31064 8.26406 2.32471 11.9906 2.32471H16.7344V2.58252V2.84033H10.35H3.96094L3.77813 2.94814C3.66094 3.01377 3.55313 3.13095 3.48281 3.25752L3.375 3.46377V12.881V22.2981L3.10781 22.2841L2.83594 22.27L2.82188 12.2997L2.8125 2.32939L4.17188 2.31533C5.67188 2.30127 5.64844 2.30595 5.7 1.99189C5.71875 1.87002 5.7 1.79971 5.625 1.70127L5.52656 1.57471H4.09219C2.69531 1.57471 2.65781 1.57939 2.475 1.67783C2.37188 1.73877 2.23594 1.87002 2.175 1.97783L2.0625 2.17002V11.5497V20.9341H1.78125H1.5V10.9778C1.5 3.05596 1.51406 1.01689 1.56094 0.998142C1.64531 0.960642 15.2578 0.960642 15.3469 0.993454ZM18.0656 3.66533C18.0797 3.70752 18.0938 4.16689 18.0938 4.6872V5.63877L17.8969 5.66689C17.55 5.71377 16.8703 5.93408 16.4578 6.12627C15.0563 6.78252 13.9266 8.04814 13.4344 9.51064C13.2094 10.195 13.1484 10.5841 13.1484 11.395C13.1531 12.2247 13.2188 12.6513 13.4625 13.3403C13.9969 14.8638 15.15 16.1013 16.6313 16.7435C17.0063 16.9028 17.8219 17.1372 18.0047 17.1372C18.0891 17.1372 18.0938 17.2028 18.0938 18.7075V20.2731L16.7203 20.2872L15.3422 20.3013L15.1688 20.4372C14.8313 20.6903 14.8125 20.7888 14.8125 22.256V23.5591H9.54375C6.64688 23.5591 4.24219 23.545 4.2 23.531C4.12969 23.5028 4.125 22.5841 4.125 13.5794C4.125 8.11846 4.13906 3.63721 4.15781 3.62314C4.17188 3.60439 7.30313 3.59033 11.1141 3.59033C17.3813 3.59033 18.0375 3.59502 18.0656 3.66533ZM19.6406 6.37939C20.2125 6.46377 20.6531 6.59971 20.6344 6.68408C20.625 6.72158 20.175 7.74346 19.6313 8.95283L18.6422 11.1606L16.875 12.9372L15.1031 14.7138L14.8641 14.3903C12.9188 11.7606 13.9875 7.96846 17.025 6.71221C17.9109 6.34658 18.7406 6.23877 19.6406 6.37939ZM21.7688 7.18564C22.2328 7.49033 22.9359 8.21689 23.2453 8.71846C23.55 9.20596 23.7891 9.82471 23.9156 10.4341C23.9906 10.795 24.0047 11.0106 23.9906 11.5685C23.9813 11.9481 23.9578 12.2716 23.9438 12.2856C23.9109 12.3185 19.5938 11.1935 19.5328 11.1372C19.4906 11.0997 21.3328 6.96533 21.3938 6.96533C21.4125 6.96533 21.5813 7.06377 21.7688 7.18564ZM16.5984 21.9606C16.1063 22.4716 15.6703 22.9169 15.6328 22.9497C15.5719 23.0013 15.5625 22.8981 15.5625 22.0497C15.5625 21.52 15.5766 21.0747 15.5953 21.0606C15.6094 21.0419 16.0453 21.0278 16.5609 21.0278H17.4938L16.5984 21.9606Z" fill="white"/>
<path d="M6.21563 6.12627C6.06094 6.24814 6.04219 6.53877 6.1875 6.68408C6.28125 6.77783 6.34219 6.77783 9.89063 6.77783C13.4391 6.77783 13.5 6.77783 13.5938 6.68408C13.6547 6.62314 13.6875 6.52939 13.6875 6.40283C13.6875 6.27627 13.6547 6.18252 13.5938 6.12158C13.5 6.02783 13.4391 6.02783 9.91875 6.02783C6.37031 6.02783 6.3375 6.02783 6.21563 6.12627Z" fill="white"/>
<path d="M6.22035 8.69971C6.06097 8.82627 6.04222 9.11689 6.18754 9.26221C6.28129 9.35596 6.34222 9.35596 9.09379 9.35596C11.8453 9.35596 11.9063 9.35596 12 9.26221C12.1125 9.14971 12.1266 8.85439 12.0282 8.71846C11.9625 8.63408 11.8688 8.62939 9.15004 8.61533C6.36097 8.60596 6.34222 8.60596 6.22035 8.69971Z" fill="white"/>
<path d="M6.21563 11.2825C6.06094 11.4044 6.04219 11.695 6.1875 11.8403C6.27656 11.9294 6.34219 11.9341 8.71875 11.9341C11.0953 11.9341 11.1609 11.9294 11.25 11.8403C11.3438 11.7466 11.3813 11.4513 11.3063 11.3435C11.2078 11.1935 11.0625 11.1841 8.70469 11.1841C6.38438 11.1841 6.3375 11.1841 6.21563 11.2825Z" fill="white"/>
<path d="M8.63439 15.1687C8.57814 15.1921 8.50783 15.2671 8.48439 15.3327C8.45627 15.403 8.43752 15.9374 8.43752 16.5327V17.6062H7.69221C7.01252 17.6062 6.93752 17.6155 6.82502 17.7046L6.70314 17.7984V19.1577V20.5124H6.51564C6.15939 20.5124 5.97189 20.864 6.18283 21.1265L6.27189 21.239L9.61877 21.253C11.9766 21.2624 12.9985 21.2484 13.0875 21.2109C13.3266 21.1124 13.3688 20.7327 13.1578 20.5827C13.1016 20.5452 12.9797 20.5124 12.8813 20.5124H12.7031V18.7124V16.9077L12.5813 16.814C12.4688 16.7249 12.3938 16.7155 11.7141 16.7155H10.9688V16.0827C10.9688 15.4077 10.9313 15.2577 10.7485 15.1734C10.6125 15.1124 8.79377 15.1077 8.63439 15.1687ZM10.2188 18.1921V20.5124H9.70314H9.18752V18.1921V15.8718H9.70314H10.2188V18.1921ZM11.9531 18.989V20.5124H11.461H10.9688V18.989V17.4655H11.461H11.9531V18.989ZM8.43752 19.4343V20.5124H7.94533H7.45314V19.4343V18.3562H7.94533H8.43752V19.4343Z" fill="white"/>
</svg>
