<svg width="25" height="25" viewBox="0 0 25 25" fill="none" xmlns="http://www.w3.org/2000/svg">
<path d="M17.5689 0.337093C16.7767 0.477718 15.9282 0.829281 15.1876 1.31209C14.7142 1.62616 10.1157 6.21053 9.75011 6.73084C9.4923 7.10584 9.15949 7.72928 9.02355 8.11366C8.91574 8.40428 8.8923 8.42772 8.60168 8.53553C8.20793 8.67616 7.63605 8.98084 7.2423 9.25272C6.7923 9.56209 2.50324 13.8043 2.03918 14.3949C1.49543 15.0933 1.13918 15.8199 0.904802 16.7105C0.745427 17.3246 0.703239 18.4965 0.815739 19.1715C1.26105 21.7683 3.24386 23.7512 5.84074 24.1965C6.51574 24.309 7.68761 24.2668 8.30168 24.1074C9.15949 23.8824 9.88605 23.5355 10.5704 23.0152C11.0861 22.6262 15.497 18.1683 15.7829 17.7465C16.0407 17.3668 16.3407 16.7855 16.4767 16.4105C16.5845 16.1199 16.6079 16.0965 16.8986 15.9887C17.2736 15.8527 17.8548 15.5527 18.2345 15.2949C18.6564 15.0043 23.0017 10.7152 23.4611 10.1293C24.0048 9.43084 24.3611 8.70428 24.5954 7.81366C24.7548 7.19959 24.797 6.02772 24.6845 5.35272C24.2439 2.77459 22.2704 0.782406 19.7064 0.337093C19.1907 0.243341 18.0704 0.243341 17.5689 0.337093ZM19.9923 1.40584C21.7736 1.93084 23.0861 3.24334 23.6064 5.01991C23.7517 5.52616 23.8126 6.57615 23.7236 7.13865C23.6017 7.92147 23.2407 8.76522 22.7532 9.41209C22.3173 9.98866 18.0236 14.2496 17.6017 14.5215C17.3204 14.7043 16.9079 14.934 16.8657 14.934C16.8564 14.934 16.8517 14.6246 16.8517 14.2402C16.8517 13.8605 16.8236 13.4152 16.7907 13.2465L16.7345 12.9418L19.0689 10.598C21.2673 8.39022 21.4173 8.23553 21.5767 7.90272C21.8532 7.34022 21.9517 6.86678 21.9282 6.21991C21.9095 5.80272 21.872 5.58709 21.7782 5.29647C21.4782 4.36366 20.6814 3.56209 19.7251 3.22928C19.2236 3.05116 18.4079 3.02303 17.8548 3.16365C17.3814 3.28084 16.9361 3.49178 16.7111 3.70272C16.4907 3.90897 16.4814 4.17147 16.6829 4.39647C16.8704 4.6074 17.0532 4.59334 17.6111 4.31209C18.0282 4.10115 18.0751 4.09178 18.5157 4.06834C18.8907 4.04959 19.0314 4.06366 19.2986 4.14334C20.7142 4.57459 21.3564 6.11209 20.6861 7.45741C20.597 7.63553 20.0579 8.20272 18.5017 9.76366C17.3626 10.9074 16.4204 11.8402 16.4017 11.8402C16.3829 11.8402 16.3267 11.7324 16.2704 11.6012C15.7876 10.4855 14.5267 9.22459 13.4111 8.74178C13.2798 8.68553 13.172 8.62928 13.172 8.61522C13.172 8.60116 13.5376 8.21678 13.9876 7.76678C14.5361 7.20897 14.8079 6.89959 14.822 6.81053C14.8876 6.46834 14.6861 6.21522 14.3486 6.21522H14.1329L13.0736 7.27928C12.0423 8.31991 12.0095 8.36209 11.7986 8.79334C11.5173 9.36522 11.4142 9.86678 11.4517 10.4574C11.5032 11.2637 11.7564 11.873 12.3048 12.5105C12.7267 12.9933 12.9095 13.3168 13.0126 13.7387C13.097 14.0996 13.0829 14.6012 12.9751 14.8965L12.9142 15.0652L12.572 14.9105C11.5876 14.4512 10.7486 13.659 10.2236 12.6793C9.29074 10.9543 9.4548 8.76991 10.6361 7.21366C10.997 6.73553 15.3048 2.45115 15.7032 2.1699C16.2751 1.77147 17.1236 1.41522 17.7845 1.29334C17.9157 1.26991 18.3704 1.26053 18.797 1.26522C19.4673 1.27928 19.6267 1.29803 19.9923 1.40584ZM13.3126 9.81053C14.3251 10.3918 15.1923 11.423 15.572 12.4965C16.1579 14.1277 15.8861 15.9605 14.8642 17.3105C14.5032 17.7887 10.1954 22.073 9.79699 22.3543C9.18293 22.7855 8.34855 23.123 7.62668 23.2355C7.06418 23.3246 6.01418 23.2637 5.50793 23.1183C3.73136 22.598 2.41418 21.2808 1.89386 19.5043C1.74855 18.998 1.68761 17.948 1.77668 17.3855C1.89855 16.6027 2.25949 15.759 2.74699 15.1121C3.18293 14.5355 7.47668 10.2746 7.89855 10.0027C8.1798 9.81991 8.5923 9.59022 8.63449 9.59022C8.64386 9.59022 8.64855 9.89959 8.64855 10.284C8.64855 10.6637 8.67668 11.109 8.70949 11.2777L8.76574 11.5824L6.43136 13.9262C4.2048 16.1574 4.08761 16.2887 3.92355 16.6262C3.6423 17.198 3.54855 17.6621 3.57199 18.3043C3.59074 18.7355 3.62355 18.9277 3.72668 19.2418C4.05011 20.1933 4.81886 20.9621 5.77043 21.2855C6.08449 21.3887 6.27668 21.4215 6.70793 21.4402C7.35011 21.4637 7.80949 21.3699 8.38605 21.0887C8.72824 20.9246 8.85011 20.8121 11.1142 18.548L13.4907 16.1762L13.7017 15.7308C14.3204 14.4465 14.1329 13.1058 13.1954 12.0137C12.7736 11.5308 12.5907 11.2074 12.4876 10.7855C12.4079 10.434 12.4173 9.94178 12.5204 9.62772L12.5767 9.45897L12.8392 9.57147C12.9845 9.63709 13.1954 9.74491 13.3126 9.81053ZM9.2298 12.923C9.71262 14.0387 10.9736 15.2996 12.0892 15.7824C12.2204 15.8387 12.3282 15.8949 12.3282 15.9137C12.3282 15.9324 11.3954 16.8746 10.2564 18.0137C8.69074 19.5699 8.12355 20.109 7.94543 20.198C7.22355 20.559 6.45949 20.559 5.7423 20.198C5.4423 20.0433 4.96886 19.5699 4.81418 19.2699C4.45324 18.5527 4.45324 17.7887 4.81418 17.0668C4.90324 16.8887 5.4423 16.3215 6.99855 14.7558C8.13761 13.6168 9.0798 12.684 9.09855 12.684C9.1173 12.684 9.17355 12.7918 9.2298 12.923Z" fill="white"/>
<path d="M15.5297 4.88877C15.3797 4.91689 15.1875 5.16533 15.1875 5.32939C15.1875 5.62939 15.3891 5.83564 15.6844 5.84033C16.1906 5.84033 16.3359 5.11846 15.8719 4.92627C15.7781 4.88877 15.6891 4.86064 15.6703 4.86064C15.6516 4.86533 15.5859 4.87939 15.5297 4.88877Z" fill="white"/>
<path d="M8.75156 1.56533L8.625 1.69658V3.31846V4.93564L8.74688 5.06221C8.84531 5.16064 8.91563 5.18408 9.09375 5.18408C9.27188 5.18408 9.34219 5.16064 9.44063 5.06221L9.5625 4.93564V3.30908V1.68252L9.44063 1.55596C9.25781 1.37783 8.92969 1.38252 8.75156 1.56533Z" fill="white"/>
<path d="M4.55166 3.89021C4.32197 4.01678 4.24228 4.35428 4.38759 4.57459C4.50009 4.74803 6.22509 6.4824 6.44072 6.64178C6.69384 6.82928 6.92822 6.82928 7.12041 6.6324C7.31728 6.44021 7.31728 6.20584 7.12978 5.95271C6.97041 5.73709 5.23603 4.01209 5.06259 3.89959C4.92666 3.81053 4.70634 3.80584 4.55166 3.89021Z" fill="white"/>
<path d="M2.18912 8.26846C2.01099 8.45596 2.01099 8.77471 2.18443 8.95283L2.31099 9.07471H3.93755H5.56412L5.69068 8.95283C5.78912 8.85439 5.81255 8.78408 5.81255 8.60596C5.81255 8.42783 5.78912 8.35752 5.69068 8.25908L5.56412 8.13721H3.94224H2.31568L2.18912 8.26846Z" fill="white"/>
<path d="M19.95 15.5247C19.8516 15.6231 19.8281 15.6935 19.8281 15.8716C19.8281 16.0497 19.8516 16.12 19.95 16.2185L20.0766 16.3403H21.6938H23.3156L23.4469 16.2138C23.6297 16.0356 23.6344 15.7075 23.4563 15.5247L23.3297 15.4028H21.7031H20.0766L19.95 15.5247Z" fill="white"/>
<path d="M18.3799 17.8917C18.2112 18.0558 18.183 18.3042 18.3096 18.4964C18.4221 18.6698 20.1471 20.4042 20.3627 20.5636C20.6205 20.7558 20.869 20.7511 21.0518 20.5542C21.2346 20.3573 21.2346 20.123 21.0518 19.8745C20.8924 19.6589 19.158 17.9339 18.9846 17.8214C18.7924 17.6948 18.544 17.723 18.3799 17.8917Z" fill="white"/>
<path d="M16.0125 19.4622L15.8906 19.5887V21.2153V22.8418L16.0125 22.9684C16.1953 23.1465 16.5234 23.1418 16.7016 22.959L16.8281 22.8278V21.2059V19.5887L16.7063 19.4622C16.6078 19.3637 16.5375 19.3403 16.3594 19.3403C16.1813 19.3403 16.1109 19.3637 16.0125 19.4622Z" fill="white"/>
</svg>
