<svg width="24" height="25" viewBox="0 0 24 25" fill="none" xmlns="http://www.w3.org/2000/svg">
<path d="M3.00782 0.988472C2.90469 1.03535 2.75469 1.14785 2.67032 1.23222C2.37032 1.54628 2.375 1.51816 2.375 3.90878C2.375 6.32753 2.37032 6.28535 2.70782 6.6041C3.02188 6.9041 2.99375 6.89941 5.38438 6.89941C7.80313 6.89941 7.76094 6.9041 8.07969 6.5666C8.37969 6.25253 8.375 6.28066 8.375 3.89941C8.375 1.51816 8.37969 1.54628 8.07969 1.23222C7.76094 0.894722 7.80782 0.89941 5.375 0.89941C3.35 0.89941 3.18125 0.908785 3.00782 0.988472ZM7.3625 1.71503C7.47032 1.75722 7.53594 1.82753 7.57344 1.93066C7.64375 2.14628 7.64375 5.65253 7.57344 5.86816C7.475 6.14003 7.41407 6.14941 5.38438 6.14941C4.14219 6.14941 3.51407 6.13066 3.40625 6.09785C3.13438 5.99941 3.125 5.93847 3.125 3.90878C3.125 2.67129 3.14375 2.03847 3.17657 1.93066C3.275 1.65878 3.32188 1.6541 5.36563 1.64941C6.8375 1.64941 7.23594 1.66347 7.3625 1.71503Z" fill="white"/>
<path d="M5.6 3.46348L4.625 4.43848L4.39063 4.2041L4.15625 3.96973L3.86094 4.26504L3.57031 4.55566L4.1 5.08066L4.625 5.61035L5.9 4.33535L7.17969 3.05566L6.89844 2.77441C6.74375 2.61973 6.60781 2.49316 6.59375 2.49316C6.57969 2.49316 6.13438 2.9291 5.6 3.46348Z" fill="white"/>
<path d="M10.5221 1.85098C9.78145 2.34785 9.17676 2.76035 9.17676 2.77441C9.17676 2.79785 11.8158 4.56504 11.8908 4.59316C11.9236 4.60723 12.1814 4.25566 12.3314 4.00723C12.3502 3.96973 12.158 3.81035 11.7643 3.54785L11.1643 3.14473L11.8674 3.17285C13.4611 3.24316 14.5627 3.51035 15.8518 4.13379C17.4736 4.9166 18.8752 6.21504 19.7939 7.77598C19.9393 8.01504 20.0611 8.21191 20.0752 8.21191C20.1174 8.21191 20.7502 7.88379 20.7502 7.85566C20.7502 7.79941 20.5299 7.41035 20.2955 7.04004C18.8893 4.8791 16.8268 3.36973 14.4033 2.72754C13.5361 2.49785 13.0955 2.43691 12.1111 2.41348L11.183 2.38535L11.7736 1.9916C12.1627 1.73379 12.3502 1.5791 12.3314 1.5416C12.2049 1.33066 11.9283 0.946289 11.9002 0.950976C11.8814 0.950976 11.2627 1.35879 10.5221 1.85098Z" fill="white"/>
<path d="M10.2781 7.79941C10.2453 7.88379 10.1891 8.03848 10.1516 8.1416C10.1094 8.2541 10.0484 8.33379 9.99219 8.34785C9.94531 8.35723 9.7625 8.2916 9.58438 8.20723L9.26094 8.05254L8.27188 9.04629L7.27813 10.0354L7.43281 10.3588C7.51719 10.5369 7.57812 10.7197 7.56875 10.7713C7.55938 10.8322 7.45625 10.8932 7.22656 10.9775L6.89844 11.0994V12.5244V13.9494L7.22656 14.0713C7.45625 14.1557 7.55938 14.2166 7.56875 14.2775C7.57812 14.3291 7.51719 14.5119 7.43281 14.69L7.27813 15.0135L8.27188 16.0072L9.26562 17.001L9.6125 16.8275C10.0297 16.6213 10.0578 16.6354 10.2125 17.0713L10.3203 17.376H11.75H13.175L13.2969 17.0479C13.3813 16.8182 13.4422 16.715 13.5031 16.7057C13.5547 16.6963 13.7375 16.7572 13.9156 16.8416L14.2391 16.9963L15.2281 16.0025L16.2219 15.0135L16.0672 14.69C15.9828 14.5119 15.9219 14.3291 15.9313 14.2775C15.9406 14.2166 16.0438 14.1557 16.2734 14.0713L16.6016 13.9494V12.5244V11.0994L16.2734 10.9775C16.0438 10.8932 15.9406 10.8322 15.9313 10.7713C15.9219 10.7197 15.9828 10.5369 16.0672 10.3588L16.2219 10.0354L15.2281 9.04629L14.2391 8.05254L13.9156 8.20723C13.7375 8.2916 13.5547 8.35254 13.5031 8.34316C13.4422 8.33379 13.3813 8.23066 13.2969 8.00098L13.175 7.67285L11.7594 7.65879L10.3391 7.64941L10.2781 7.79941ZM12.6734 8.6666C12.7625 8.9291 12.7672 8.93379 13.0906 9.06973C13.5641 9.2666 13.5641 9.2666 13.8172 9.14473L14.0516 9.03691L14.6422 9.63223L15.2375 10.2229L15.1297 10.4572C15.0078 10.7104 15.0078 10.7104 15.2047 11.1838C15.3406 11.5072 15.3453 11.5119 15.6078 11.601L15.875 11.69V12.5244V13.3588L15.6078 13.4479C15.3453 13.5369 15.3406 13.5416 15.2047 13.865C15.0078 14.3385 15.0078 14.3385 15.1297 14.5916L15.2375 14.826L14.6422 15.4166L14.0516 16.0119L13.8172 15.9041C13.5641 15.7822 13.5641 15.7822 13.0906 15.9791C12.7672 16.115 12.7625 16.1197 12.6734 16.3822L12.5844 16.6494H11.75H10.9156L10.8266 16.3822C10.7375 16.1197 10.7328 16.115 10.4094 15.9791C9.93594 15.7822 9.93594 15.7822 9.68281 15.9041L9.44844 16.0119L8.85781 15.4166L8.2625 14.826L8.37031 14.5916C8.49219 14.3385 8.49219 14.3385 8.29531 13.865C8.15938 13.5416 8.15469 13.5369 7.89219 13.4479L7.625 13.3588V12.5244V11.69L7.89219 11.601C8.15469 11.5119 8.15938 11.5072 8.29531 11.1838C8.49219 10.7104 8.49219 10.7104 8.37031 10.4572L8.2625 10.2229L8.85781 9.63223L9.44844 9.03691L9.68281 9.14473C9.93594 9.2666 9.93594 9.2666 10.4094 9.06973C10.7328 8.93379 10.7375 8.9291 10.8266 8.6666L10.9156 8.39941H11.75H12.5844L12.6734 8.6666Z" fill="white"/>
<path d="M10.9295 9.61357C9.91699 9.9042 9.08262 10.7526 8.8248 11.7558C8.72637 12.1354 8.72637 12.9136 8.8248 13.2933C9.09199 14.3245 9.9873 15.2151 11.0045 15.4542C11.3889 15.5433 12.1107 15.5433 12.4951 15.4542C13.2732 15.2714 14.0373 14.6714 14.4076 13.9542C14.6654 13.4526 14.7498 13.1058 14.7498 12.5245C14.7498 11.9433 14.6654 11.5964 14.4076 11.0948C14.042 10.387 13.3014 9.80107 12.5186 9.59951C12.1248 9.49639 11.3045 9.50576 10.9295 9.61357ZM12.4295 10.4151C12.9404 10.5933 13.4139 10.9776 13.6811 11.4464C14.0467 12.0745 14.0467 12.9745 13.6811 13.6026C12.9264 14.9058 11.1639 15.1214 10.1467 14.0339C9.73418 13.5933 9.54668 13.1245 9.54668 12.5245C9.54668 11.7511 9.92637 11.0714 10.5826 10.6448C11.0936 10.3214 11.8717 10.2229 12.4295 10.4151Z" fill="white"/>
<path d="M11.15 11.1227C10.6063 11.3337 10.25 11.8868 10.25 12.5243C10.25 13.1337 10.55 13.6305 11.0703 13.8837C11.4078 14.0524 11.9563 14.0712 12.3266 13.9305C12.8938 13.7149 13.25 13.1758 13.25 12.5243C13.25 11.6337 12.6313 11.0196 11.7359 11.029C11.5156 11.029 11.3141 11.0618 11.15 11.1227ZM12.1156 11.9149C12.725 12.2852 12.4625 13.2274 11.75 13.2274C11.3516 13.2274 11.0469 12.9227 11.0469 12.5243C11.0469 12.1258 11.3516 11.8212 11.75 11.8212C11.8766 11.8212 12.0219 11.8587 12.1156 11.9149Z" fill="white"/>
<path d="M2.42188 8.50698C2.22031 8.94761 1.97656 9.72105 1.84531 10.321C1.65781 11.1648 1.61094 11.7226 1.63906 12.8007C1.66719 13.9023 1.77031 14.507 2.08906 15.4679C2.19219 15.7726 2.27188 16.021 2.26719 16.0257C2.2625 16.0257 1.92031 15.8429 1.50781 15.6132C1.09531 15.3882 0.734375 15.196 0.701563 15.196C0.65 15.196 0.3125 15.7539 0.3125 15.8382C0.3125 15.8804 3.40156 17.6054 3.42969 17.5773C3.44844 17.5539 4.25 14.1976 4.25 14.1367C4.25 14.0664 3.55156 13.907 3.5 13.9632C3.48125 13.982 3.37344 14.3851 3.26094 14.8585C3.15313 15.3273 3.04531 15.6976 3.02656 15.6789C2.96094 15.6085 2.66094 14.6054 2.55781 14.1179C2.43125 13.5085 2.37969 12.0601 2.46406 11.4179C2.58125 10.5367 2.79219 9.73511 3.10625 8.96636C3.2 8.75073 3.25156 8.55855 3.23281 8.53511C3.21406 8.51636 3.05 8.43667 2.87656 8.35698L2.55781 8.21167L2.42188 8.50698Z" fill="white"/>
<path d="M18.0078 9.61347C17.9047 9.66035 17.7547 9.77285 17.6703 9.85722C17.3703 10.1713 17.375 10.1432 17.375 12.5338C17.375 14.9525 17.3703 14.9103 17.7078 15.2291C18.0219 15.5291 17.9938 15.5244 20.3844 15.5244C22.8031 15.5244 22.7609 15.5291 23.0797 15.1916C23.3797 14.8775 23.375 14.9057 23.375 12.5244C23.375 10.1432 23.3797 10.1713 23.0797 9.85722C22.7609 9.51972 22.8078 9.52441 20.375 9.52441C18.35 9.52441 18.1813 9.53378 18.0078 9.61347ZM22.3625 10.34C22.4703 10.3822 22.5359 10.4525 22.5734 10.5557C22.6438 10.7713 22.6438 14.2775 22.5734 14.4932C22.475 14.765 22.4141 14.7744 20.3844 14.7744C19.1422 14.7744 18.5141 14.7557 18.4063 14.7228C18.1344 14.6244 18.125 14.5635 18.125 12.5338C18.125 11.2963 18.1438 10.6635 18.1766 10.5557C18.275 10.2838 18.3219 10.2791 20.3656 10.2744C21.8375 10.2744 22.2359 10.2885 22.3625 10.34Z" fill="white"/>
<path d="M20.6 12.0885L19.625 13.0635L19.3906 12.8291L19.1562 12.5947L18.8609 12.89L18.5703 13.1807L19.1 13.7057L19.625 14.2354L20.9 12.9604L22.1797 11.6807L21.8984 11.3994C21.7438 11.2447 21.6078 11.1182 21.5938 11.1182C21.5797 11.1182 21.1344 11.5541 20.6 12.0885Z" fill="white"/>
<path d="M18.9358 16.968C18.0545 17.193 17.3186 17.3899 17.3045 17.4086C17.2576 17.4555 17.4311 18.1492 17.4873 18.1492C17.5154 18.1492 17.9889 18.0321 18.5326 17.8961C19.0811 17.7555 19.517 17.6664 19.4983 17.6992C19.3436 17.9664 18.7154 18.7305 18.3358 19.1102C17.5389 19.9117 16.7983 20.4414 15.767 20.9383C13.5873 22.0024 11.0326 22.1571 8.74982 21.3649C8.42638 21.2524 8.08419 21.1258 7.98576 21.0836L7.80763 21.0039L7.63888 21.3602C7.54982 21.5571 7.48419 21.7258 7.49357 21.7399C7.55919 21.8008 8.50607 22.1571 8.93732 22.2789C9.86544 22.5414 10.3764 22.6117 11.492 22.6352C12.6311 22.6633 13.2404 22.6024 14.1358 22.3867C15.6029 22.0258 17.0701 21.2899 18.2092 20.3336C18.7014 19.9258 19.4045 19.1899 19.7608 18.7117C19.9248 18.4914 20.0748 18.2946 20.0936 18.2758C20.1123 18.2571 20.1779 18.6555 20.2389 19.1617L20.3467 20.0805L20.7264 20.0477C20.9326 20.0289 21.1108 20.0055 21.1248 19.9961C21.1342 19.9821 21.0498 19.2086 20.9373 18.2758C20.7404 16.6914 20.7217 16.5789 20.6326 16.5696C20.5811 16.5649 19.817 16.7477 18.9358 16.968Z" fill="white"/>
<path d="M0.757817 18.2385C0.654692 18.2853 0.504692 18.3978 0.420317 18.4822C0.120317 18.7963 0.125004 18.7682 0.125004 21.1588C0.125004 23.5775 0.120317 23.5353 0.457817 23.8541C0.771879 24.1541 0.743754 24.1494 3.13438 24.1494C5.55313 24.1494 5.51094 24.1541 5.82969 23.8166C6.12969 23.5025 6.125 23.5307 6.125 21.1494C6.125 18.7682 6.12969 18.7963 5.82969 18.4822C5.51094 18.1447 5.55782 18.1494 3.125 18.1494C1.1 18.1494 0.931254 18.1588 0.757817 18.2385ZM5.1125 18.965C5.22032 19.0072 5.28594 19.0775 5.32344 19.1807C5.39375 19.3963 5.39375 22.9025 5.32344 23.1182C5.225 23.39 5.16407 23.3994 3.13438 23.3994C1.89219 23.3994 1.26407 23.3807 1.15625 23.3478C0.884379 23.2494 0.875004 23.1885 0.875004 21.1588C0.875004 19.9213 0.893754 19.2885 0.926567 19.1807C1.025 18.9088 1.07188 18.9041 3.11563 18.8994C4.5875 18.8994 4.98594 18.9135 5.1125 18.965Z" fill="white"/>
<path d="M3.35 20.7135L2.375 21.6885L2.14063 21.4541L1.90625 21.2197L1.61094 21.515L1.32031 21.8057L1.85 22.3307L2.375 22.8604L3.65 21.5854L4.92969 20.3057L4.64844 20.0244C4.49375 19.8697 4.35781 19.7432 4.34375 19.7432C4.32969 19.7432 3.88438 20.1791 3.35 20.7135Z" fill="white"/>
</svg>
