<svg width="25" height="25" viewBox="0 0 25 25" fill="none" xmlns="http://www.w3.org/2000/svg">
<path d="M4.50778 0.351269C4.40465 0.398144 4.25465 0.510643 4.17028 0.595018C3.93122 0.852831 3.87497 1.04033 3.87497 1.62158V2.13721H3.47653C2.95153 2.13721 2.66559 2.20283 2.18747 2.42783C1.62965 2.69502 1.10934 3.21064 0.837466 3.77783C0.471841 4.52314 0.495279 3.69814 0.509341 13.8138L0.523404 22.8794L0.678091 23.1935C0.865591 23.5825 1.17028 23.8919 1.54997 24.0888L1.8359 24.2388H12.5H23.164L23.4312 24.1028C23.7968 23.9247 24.1343 23.5778 24.3218 23.1981L24.4765 22.8794L24.4906 13.8138C24.5047 3.69814 24.5281 4.52314 24.1625 3.77783C24.0125 3.46377 23.8906 3.29971 23.5906 2.99971C23 2.40908 22.3531 2.13721 21.5375 2.13721H21.125V1.60752C21.125 1.01221 21.0593 0.810644 20.7922 0.557518C20.5718 0.351269 20.3375 0.262207 20 0.262207C19.6625 0.262207 19.4281 0.351269 19.2078 0.557518C18.9406 0.810644 18.875 1.01221 18.875 1.60752V2.13721H18.125H17.375V1.60752C17.375 1.01221 17.3093 0.810644 17.0422 0.557518C16.8218 0.351269 16.5828 0.262207 16.2406 0.262207C15.8937 0.262207 15.6359 0.370018 15.4203 0.595018C15.1812 0.852831 15.125 1.04033 15.125 1.62158V2.13721H14.375H13.625V1.62158C13.625 1.04033 13.5687 0.852831 13.3297 0.595018C13.1093 0.365332 12.8609 0.262207 12.5 0.262207C12.139 0.262207 11.8906 0.365332 11.6703 0.595018C11.4312 0.852831 11.375 1.04033 11.375 1.62158V2.13721H10.625H9.87497V1.62158C9.87497 1.04033 9.81872 0.852831 9.57965 0.595018C9.36403 0.370018 9.10622 0.262207 8.75934 0.262207C8.41715 0.262207 8.17809 0.351269 7.95778 0.557518C7.69059 0.810644 7.62497 1.01221 7.62497 1.60752V2.13721H6.87497H6.12497V1.60752C6.12497 1.19502 6.10622 1.04033 6.0359 0.89502C5.92809 0.665331 5.68903 0.430956 5.45934 0.337206C5.21559 0.234081 4.74215 0.243456 4.50778 0.351269ZM5.18747 1.10596C5.33747 1.18564 5.37497 1.41533 5.37497 2.33408C5.37497 3.31846 5.33278 3.51533 5.12184 3.57158C4.91559 3.62314 4.76559 3.55283 4.69059 3.37939C4.6109 3.18252 4.59684 1.51846 4.67184 1.30752C4.7609 1.07783 4.97653 0.993456 5.18747 1.10596ZM8.93747 1.10596C9.08747 1.18564 9.12497 1.41533 9.12497 2.33408C9.12497 3.31846 9.08278 3.51533 8.87184 3.57158C8.66559 3.62314 8.51559 3.55283 8.44059 3.37939C8.3609 3.18252 8.34684 1.51846 8.42184 1.30752C8.5109 1.07783 8.72653 0.993456 8.93747 1.10596ZM12.6875 1.10596C12.8375 1.18564 12.875 1.41533 12.875 2.33408C12.875 3.31846 12.8328 3.51533 12.6218 3.57158C12.4156 3.62314 12.2656 3.55283 12.1906 3.37939C12.1109 3.18252 12.0968 1.51846 12.1718 1.30752C12.2609 1.07783 12.4765 0.993456 12.6875 1.10596ZM16.4375 1.10596C16.5875 1.18564 16.625 1.41533 16.625 2.33408C16.625 3.31846 16.5828 3.51533 16.3718 3.57158C16.1656 3.62314 16.0156 3.55283 15.9406 3.37939C15.8609 3.18252 15.8468 1.51846 15.9218 1.30752C16.0109 1.07783 16.2265 0.993456 16.4375 1.10596ZM20.1875 1.10596C20.3375 1.18564 20.375 1.41533 20.375 2.33408C20.375 3.31846 20.3328 3.51533 20.1218 3.57158C19.9156 3.62314 19.7656 3.55283 19.6906 3.37939C19.6109 3.18252 19.5968 1.51846 19.6718 1.30752C19.7609 1.07783 19.9765 0.993456 20.1875 1.10596ZM3.87497 3.21533C3.87497 3.59971 3.95465 3.82471 4.17028 4.05439C4.39059 4.28408 4.63903 4.38721 4.99997 4.38721C5.3609 4.38721 5.60934 4.28408 5.82965 4.05439C6.04528 3.82471 6.12497 3.59971 6.12497 3.21533V2.88721H6.87497H7.62497V3.22471C7.62965 3.94658 8.0609 4.38721 8.75934 4.38721C9.10622 4.38721 9.36403 4.27939 9.57965 4.05439C9.79528 3.82471 9.87497 3.59971 9.87497 3.21533V2.88721H10.625H11.375V3.21533C11.375 3.59971 11.4547 3.82471 11.6703 4.05439C11.8906 4.28408 12.139 4.38721 12.5 4.38721C12.8609 4.38721 13.1093 4.28408 13.3297 4.05439C13.5453 3.82471 13.625 3.59971 13.625 3.21533V2.88721H14.375H15.125V3.21533C15.125 3.59971 15.2047 3.82471 15.4203 4.05439C15.6359 4.27939 15.8937 4.38721 16.2406 4.38721C16.939 4.38721 17.3703 3.94658 17.375 3.22471V2.88721H18.125H18.875V3.22471C18.8797 3.94189 19.3109 4.38721 20 4.38721C20.689 4.38721 21.1203 3.94189 21.125 3.22471C21.125 2.88721 21.125 2.88721 21.2562 2.88721C21.9547 2.89658 22.6062 3.14033 23.014 3.55283C23.45 3.98877 23.6656 4.47627 23.7265 5.17002L23.7547 5.51221H12.5H1.24528L1.2734 5.17002C1.39528 3.77783 2.2859 2.93877 3.70153 2.89189L3.87497 2.88721V3.21533ZM23.75 6.82471V7.38721H12.5H1.24997V6.82471V6.26221H12.5H23.75V6.82471ZM23.7406 15.3653L23.7265 22.5981L23.614 22.8185C23.4922 23.0669 23.2531 23.2966 23.0047 23.4138C22.85 23.4841 21.9406 23.4888 12.5234 23.4888C2.68903 23.4888 2.20153 23.4841 1.99059 23.4044C1.74684 23.3106 1.48434 23.0481 1.35778 22.7763C1.27809 22.6075 1.2734 22.1763 1.25934 15.3653L1.24997 8.13721H12.5H23.75L23.7406 15.3653Z" fill="white"/>
<path d="M3.59375 8.98096C3.50469 9.07002 3.5 9.13564 3.5 10.3872C3.5 11.6388 3.50469 11.7044 3.59375 11.7935C3.68281 11.8825 3.74844 11.8872 5 11.8872C6.25156 11.8872 6.31719 11.8825 6.40625 11.7935C6.49531 11.7044 6.5 11.6388 6.5 10.3872C6.5 9.13564 6.49531 9.07002 6.40625 8.98096C6.31719 8.89189 6.25156 8.88721 5 8.88721C3.74844 8.88721 3.68281 8.89189 3.59375 8.98096ZM5.75 10.3872V11.1372H5H4.25V10.3872V9.63721H5H5.75V10.3872Z" fill="white"/>
<path d="M7.34375 8.98096C7.25469 9.07002 7.25 9.13564 7.25 10.3872C7.25 11.6388 7.25469 11.7044 7.34375 11.7935C7.43281 11.8825 7.49844 11.8872 8.75 11.8872C10.0016 11.8872 10.0672 11.8825 10.1562 11.7935C10.2453 11.7044 10.25 11.6388 10.25 10.3872C10.25 9.13564 10.2453 9.07002 10.1562 8.98096C10.0672 8.89189 10.0016 8.88721 8.75 8.88721C7.49844 8.88721 7.43281 8.89189 7.34375 8.98096ZM9.5 10.3872V11.1372H8.75H8V10.3872V9.63721H8.75H9.5V10.3872Z" fill="white"/>
<path d="M11.0938 8.98096C11.0047 9.07002 11 9.13564 11 10.3872C11 11.6388 11.0047 11.7044 11.0938 11.7935C11.1828 11.8825 11.2484 11.8872 12.5 11.8872C13.7516 11.8872 13.8172 11.8825 13.9062 11.7935C13.9953 11.7044 14 11.6388 14 10.3872C14 9.13564 13.9953 9.07002 13.9062 8.98096C13.8172 8.89189 13.7516 8.88721 12.5 8.88721C11.2484 8.88721 11.1828 8.89189 11.0938 8.98096ZM13.25 10.3872V11.1372H12.5H11.75V10.3872V9.63721H12.5H13.25V10.3872Z" fill="white"/>
<path d="M14.8438 8.98096C14.7547 9.07002 14.75 9.13564 14.75 10.3872C14.75 11.6388 14.7547 11.7044 14.8438 11.7935C14.9328 11.8825 14.9984 11.8872 16.25 11.8872C17.5016 11.8872 17.5672 11.8825 17.6562 11.7935C17.7453 11.7044 17.75 11.6388 17.75 10.3872C17.75 9.13564 17.7453 9.07002 17.6562 8.98096C17.5672 8.89189 17.5016 8.88721 16.25 8.88721C14.9984 8.88721 14.9328 8.89189 14.8438 8.98096ZM17 10.3872V11.1372H16.25H15.5V10.3872V9.63721H16.25H17V10.3872Z" fill="white"/>
<path d="M18.5938 8.98096C18.5047 9.07002 18.5 9.13564 18.5 10.3872C18.5 11.6388 18.5047 11.7044 18.5938 11.7935C18.6828 11.8825 18.7484 11.8872 20 11.8872C21.2516 11.8872 21.3172 11.8825 21.4062 11.7935C21.4953 11.7044 21.5 11.6388 21.5 10.3872C21.5 9.13564 21.4953 9.07002 21.4062 8.98096C21.3172 8.89189 21.2516 8.88721 20 8.88721C18.7484 8.88721 18.6828 8.89189 18.5938 8.98096ZM20.75 10.3872V11.1372H20H19.25V10.3872V9.63721H20H20.75V10.3872Z" fill="white"/>
<path d="M18.5 12.3513C17.4031 12.7028 16.625 13.6919 16.625 14.7419C16.625 15.1497 16.7094 15.2622 17 15.2622C17.1828 15.2622 17.225 15.2341 17.4125 15.0091C17.4547 14.9575 17.5531 14.9341 17.75 14.9341C17.9469 14.9341 18.0453 14.9575 18.0875 15.0091C18.275 15.2341 18.3172 15.2622 18.5 15.2622C18.6266 15.2622 18.7203 15.2294 18.7812 15.1685L18.875 15.0747V16.2935V17.5122H18.2328L17.5859 17.5075L17.1172 16.8747C16.4844 16.0169 16.4797 16.0122 16.25 16.0122C16.0016 16.0122 15.875 16.1388 15.875 16.3778C15.875 16.5372 15.95 16.6591 16.4844 17.3716C16.8219 17.8216 17.1219 18.206 17.1547 18.2247C17.1875 18.2435 17.3563 18.2622 17.5344 18.2622C17.8203 18.2622 17.8484 18.2716 17.8156 18.3466C17.7969 18.3888 17.7734 18.5153 17.7594 18.6231C17.7359 18.8716 17.8578 19.0122 18.1063 19.0122C18.3547 19.0122 18.4156 18.9606 18.5938 18.595L18.7531 18.2622H19.8125H20.8719L21.0312 18.595C21.2094 18.9606 21.2703 19.0122 21.5188 19.0122C21.7672 19.0122 21.8891 18.8716 21.8656 18.6231C21.8516 18.5153 21.8281 18.3888 21.8094 18.3419C21.7719 18.2669 21.8141 18.2622 22.2922 18.2622C22.9063 18.2622 23 18.2106 23 17.8872C23 17.7606 22.9672 17.6669 22.9063 17.606C22.8172 17.5169 22.7516 17.5122 21.2188 17.5122H19.625V16.2935V15.0747L19.7188 15.1685C19.7797 15.2294 19.8734 15.2622 20 15.2622C20.1828 15.2622 20.225 15.2341 20.4125 15.0091C20.4969 14.906 21.0031 14.906 21.0875 15.0091C21.275 15.2341 21.3172 15.2622 21.5 15.2622C21.7906 15.2622 21.875 15.145 21.875 14.756C21.875 13.9638 21.3875 13.1106 20.6703 12.656C20.2531 12.3841 19.7984 12.2622 19.2406 12.2669C18.9125 12.2669 18.6734 12.295 18.5 12.3513ZM19.3625 13.3497C19.4609 13.6263 19.5313 13.9075 19.5313 14.0294C19.5313 14.1278 19.5125 14.1372 19.25 14.1372C18.9875 14.1372 18.9688 14.1278 18.9688 14.0294C18.9688 13.8138 19.1797 13.1528 19.25 13.1528C19.2734 13.1528 19.3203 13.2419 19.3625 13.3497ZM18.2094 13.7013C18.1625 13.931 18.125 14.1185 18.125 14.1231C18.125 14.1325 17.9984 14.1372 17.8438 14.1372H17.5578L17.6375 13.9825C17.7031 13.8606 18.2328 13.2935 18.2797 13.2935C18.2891 13.2935 18.2563 13.4763 18.2094 13.7013ZM20.6938 13.7528C20.7688 13.8466 20.8531 13.9731 20.8859 14.0294C20.9422 14.1372 20.9375 14.1372 20.6562 14.1372C20.4688 14.1372 20.3656 14.1185 20.3563 14.0763C20.3469 14.0481 20.3094 13.856 20.2719 13.6591L20.2063 13.3028L20.3844 13.4388C20.4781 13.5185 20.6188 13.6591 20.6938 13.7528Z" fill="white"/>
<path d="M4.50781 12.7263C4.16094 12.8903 3.875 13.2888 3.875 13.6216V13.7622H3.03125C2.24844 13.7622 2.18281 13.7669 2.09375 13.856C2.00469 13.945 2 14.0106 2 16.3872C2 18.7638 2.00469 18.8294 2.09375 18.9185C2.1875 19.0122 2.24844 19.0122 5.375 19.0122C8.50156 19.0122 8.5625 19.0122 8.65625 18.9185C8.74531 18.8294 8.75 18.7638 8.75 16.3872C8.75 14.0106 8.74531 13.945 8.65625 13.856C8.56719 13.7669 8.50156 13.7622 7.71875 13.7622H6.875V13.6216C6.875 13.2888 6.58906 12.8903 6.24219 12.7263C5.96563 12.5997 4.78438 12.5997 4.50781 12.7263ZM5.83906 13.4388C5.97969 13.4903 6.07812 13.6028 6.07812 13.7106C6.07812 13.7435 5.84375 13.7622 5.375 13.7622C4.98125 13.7622 4.67188 13.7435 4.67188 13.72C4.67188 13.6075 4.74688 13.5138 4.87813 13.4528C5.05625 13.3778 5.63281 13.3685 5.83906 13.4388ZM7.90625 14.5966C7.90625 14.756 7.6625 15.1731 7.43281 15.4075C7.22656 15.6185 6.71563 15.9185 6.56094 15.9185C6.51875 15.9185 6.5 15.8388 6.5 15.6841C6.5 15.5106 6.47656 15.4263 6.40625 15.356C6.31719 15.2669 6.25156 15.2622 5.375 15.2622C4.49844 15.2622 4.43281 15.2669 4.34375 15.356C4.27344 15.4263 4.25 15.5106 4.25 15.6841C4.25 15.9653 4.22656 15.97 3.83281 15.7731C3.46719 15.5903 3.13906 15.2669 2.975 14.9247C2.75 14.47 2.51094 14.5122 5.375 14.5122C7.78438 14.5122 7.90625 14.5169 7.90625 14.5966ZM3.4625 16.4997C3.59844 16.5653 3.82813 16.6497 3.96875 16.6825L4.22656 16.7481L4.25 17.0622C4.28281 17.5169 4.26875 17.5122 5.375 17.5122C6.48125 17.5122 6.46719 17.5169 6.5 17.0622L6.52344 16.7481L6.78125 16.6825C7.12813 16.5981 7.55938 16.3825 7.80313 16.1763L8 16.0028V17.1325V18.2622H5.375H2.75V17.1372V16.0122L2.98438 16.195C3.11094 16.2981 3.32656 16.4341 3.4625 16.4997ZM5.75 16.3872V16.7622H5.375H5V16.3872V16.0122H5.375H5.75V16.3872Z" fill="white"/>
<path d="M13.3438 14.606C13.2828 14.6669 13.25 14.7606 13.25 14.8919C13.25 15.0606 13.2828 15.1169 13.5172 15.3606L13.7797 15.6372H11.7359C9.74844 15.6372 9.68281 15.6419 9.59375 15.731C9.53281 15.7919 9.5 15.8856 9.5 16.0122C9.5 16.1388 9.53281 16.2325 9.59375 16.2935C9.68281 16.3825 9.74844 16.3872 11.7359 16.3872H13.7797L13.5172 16.6638C13.2828 16.9075 13.25 16.9638 13.25 17.1325C13.25 17.3903 13.3719 17.5122 13.6344 17.5122C13.8266 17.5122 13.8547 17.4935 14.4781 16.8653C15.1156 16.2278 15.125 16.2138 15.125 16.0122C15.125 15.8106 15.1156 15.7966 14.4781 15.1591C13.8547 14.531 13.8266 14.5122 13.6344 14.5122C13.4984 14.5122 13.4094 14.5403 13.3438 14.606Z" fill="white"/>
<path d="M3.59375 19.856C3.50469 19.945 3.5 20.0106 3.5 21.2622C3.5 22.5138 3.50469 22.5794 3.59375 22.6685C3.68281 22.7575 3.74844 22.7622 5 22.7622C6.25156 22.7622 6.31719 22.7575 6.40625 22.6685C6.49531 22.5794 6.5 22.5138 6.5 21.2622C6.5 20.0106 6.49531 19.945 6.40625 19.856C6.31719 19.7669 6.25156 19.7622 5 19.7622C3.74844 19.7622 3.68281 19.7669 3.59375 19.856ZM5.75 21.2622V22.0122H5H4.25V21.2622V20.5122H5H5.75V21.2622Z" fill="white"/>
<path d="M7.34375 19.856C7.25469 19.945 7.25 20.0106 7.25 21.2622C7.25 22.5138 7.25469 22.5794 7.34375 22.6685C7.43281 22.7575 7.49844 22.7622 8.75 22.7622C10.0016 22.7622 10.0672 22.7575 10.1562 22.6685C10.2453 22.5794 10.25 22.5138 10.25 21.2622C10.25 20.0106 10.2453 19.945 10.1562 19.856C10.0672 19.7669 10.0016 19.7622 8.75 19.7622C7.49844 19.7622 7.43281 19.7669 7.34375 19.856ZM9.5 21.2622V22.0122H8.75H8V21.2622V20.5122H8.75H9.5V21.2622Z" fill="white"/>
<path d="M11.0938 19.856C11.0047 19.945 11 20.0106 11 21.2622C11 22.5138 11.0047 22.5794 11.0938 22.6685C11.1828 22.7575 11.2484 22.7622 12.5 22.7622C13.7516 22.7622 13.8172 22.7575 13.9062 22.6685C13.9953 22.5794 14 22.5138 14 21.2622C14 20.0106 13.9953 19.945 13.9062 19.856C13.8172 19.7669 13.7516 19.7622 12.5 19.7622C11.2484 19.7622 11.1828 19.7669 11.0938 19.856ZM13.25 21.2622V22.0122H12.5H11.75V21.2622V20.5122H12.5H13.25V21.2622Z" fill="white"/>
<path d="M14.8438 19.856C14.7547 19.945 14.75 20.0106 14.75 21.2622C14.75 22.5138 14.7547 22.5794 14.8438 22.6685C14.9328 22.7575 14.9984 22.7622 16.25 22.7622C17.5016 22.7622 17.5672 22.7575 17.6562 22.6685C17.7453 22.5794 17.75 22.5138 17.75 21.2622C17.75 20.0106 17.7453 19.945 17.6562 19.856C17.5672 19.7669 17.5016 19.7622 16.25 19.7622C14.9984 19.7622 14.9328 19.7669 14.8438 19.856ZM17 21.2622V22.0122H16.25H15.5V21.2622V20.5122H16.25H17V21.2622Z" fill="white"/>
<path d="M18.5938 19.856C18.5047 19.945 18.5 20.0106 18.5 21.2622C18.5 22.5138 18.5047 22.5794 18.5938 22.6685C18.6828 22.7575 18.7484 22.7622 20 22.7622C21.2516 22.7622 21.3172 22.7575 21.4062 22.6685C21.4953 22.5794 21.5 22.5138 21.5 21.2622C21.5 20.0106 21.4953 19.945 21.4062 19.856C21.3172 19.7669 21.2516 19.7622 20 19.7622C18.7484 19.7622 18.6828 19.7669 18.5938 19.856ZM20.75 21.2622V22.0122H20H19.25V21.2622V20.5122H20H20.75V21.2622Z" fill="white"/>
</svg>
