<svg width="25" height="25" viewBox="0 0 25 25" fill="none" xmlns="http://www.w3.org/2000/svg">
<path d="M1.60942 0.346817C0.981294 0.581192 0.531294 1.03588 0.329732 1.64057C0.156294 2.14682 0.254732 2.87807 0.550044 3.34682C0.943794 3.97494 1.75004 4.35932 2.47661 4.27026L2.71567 4.23744L3.24067 5.33901C3.53129 5.94369 3.76567 6.45932 3.76567 6.48744C3.76567 6.51088 3.64379 6.60932 3.49848 6.70776C3.15161 6.93744 2.52348 7.56557 2.27973 7.92651C1.71254 8.76557 1.45473 9.61401 1.45473 10.6453C1.45004 11.6812 1.69379 12.5015 2.24692 13.3406C2.47192 13.6874 2.95004 14.1984 3.33442 14.5124L3.53598 14.6765L3.19848 15.2859C3.01098 15.6187 2.85629 15.8999 2.85161 15.9093C2.84223 15.9187 2.71098 15.8999 2.55629 15.8765C1.77817 15.7499 0.967232 16.1156 0.545357 16.7812C0.165669 17.3765 0.146919 18.2437 0.498482 18.8718C0.709419 19.2421 1.20629 19.6546 1.57661 19.7718C2.83754 20.1562 4.05161 19.4015 4.24379 18.1218C4.32817 17.5453 4.15473 16.9781 3.76098 16.5515L3.57817 16.3546L3.93442 15.7124C4.22036 15.2015 4.30942 15.0749 4.37036 15.1031C5.10161 15.4031 6.04848 15.5437 6.76098 15.4546C7.56254 15.3515 8.21411 15.1218 8.82348 14.7281C9.10473 14.5453 9.17973 14.5171 9.22661 14.5687C9.25473 14.6015 9.60161 14.9812 9.99067 15.4124L10.7032 16.1953L10.5719 16.3499C9.80317 17.2312 9.39536 18.4359 9.44692 19.664L9.46567 20.1656L8.57504 20.3765L7.67973 20.5874L7.60004 20.4374C7.46411 20.1843 7.07973 19.8281 6.78442 19.6781C5.96879 19.2656 5.03129 19.4156 4.40786 20.0578C3.62973 20.8546 3.65317 22.139 4.45473 22.9078C4.90004 23.3296 5.30317 23.4843 5.93598 23.4562C6.30629 23.4421 6.41411 23.4187 6.68598 23.2921C7.37504 22.964 7.74067 22.4343 7.86723 21.5812L7.89536 21.4124L8.63129 21.239C9.03442 21.1453 9.43754 21.0468 9.52661 21.0281C9.66254 20.9906 9.68598 20.9999 9.70473 21.0796C9.75629 21.2624 10.0938 21.9187 10.2813 22.1953C10.9985 23.2593 12.1938 24.0093 13.4829 24.2156C14.0547 24.3093 15.0344 24.2531 15.5547 24.0984C16.3985 23.8546 17.1063 23.4281 17.6922 22.8234C18.6157 21.8718 19.0516 20.7843 19.0516 19.4578C19.0516 18.6703 18.9579 18.2484 18.5454 17.2499C18.5313 17.2078 20.725 15.7312 20.8047 15.7312C20.8188 15.7312 20.936 15.8015 21.0625 15.8906C22.211 16.6781 23.7157 16.1953 24.161 14.8968C24.2735 14.564 24.2782 13.964 24.1704 13.6406C23.9641 13.0312 23.4766 12.5437 22.8719 12.3421C22.3657 12.1687 21.6344 12.2671 21.1657 12.5624C20.5141 12.9749 20.1344 13.8046 20.261 14.5406C20.2891 14.6906 20.3172 14.8546 20.3219 14.9062C20.3313 14.9718 20.0735 15.164 19.1875 15.7359L18.0438 16.4859L17.7954 16.2046C17.5094 15.8812 16.9 15.4078 16.5438 15.2296C16.4125 15.164 16.3 15.1078 16.2954 15.1031C16.2813 15.0937 18.1985 9.76869 18.2219 9.74057C18.2313 9.73119 18.4282 9.75932 18.6532 9.80619C19.2016 9.90932 20.0875 9.87651 20.6219 9.73588C22.3282 9.29057 23.5657 8.09526 24.0954 6.37026C24.2125 5.98588 24.2219 5.90151 24.2219 5.06713C24.2219 4.22807 24.2125 4.15307 24.0907 3.75463C23.5891 2.09525 22.4172 0.92338 20.7579 0.421818C20.3641 0.299942 20.2797 0.290567 19.4454 0.290567C18.6063 0.290567 18.5313 0.295256 18.1329 0.41713C17.3594 0.656193 16.6797 1.04994 16.0985 1.59369C15.8454 1.83276 15.3719 2.45619 15.2219 2.75619C15.161 2.87807 15.0907 2.98119 15.0719 2.98119C15.0532 2.98119 14.7719 2.88276 14.4485 2.76557L13.8579 2.54994L13.8532 2.23588C13.8532 1.66869 13.6516 1.20932 13.2485 0.820255C12.8313 0.421818 12.4329 0.262444 11.8516 0.262444C10.3516 0.262444 9.40004 1.7765 10.0375 3.14057C10.4032 3.91869 11.3688 4.41557 12.1938 4.2515C12.6907 4.15307 13.2391 3.81557 13.4829 3.45463L13.5579 3.34213L14.1579 3.56713C14.486 3.689 14.7672 3.79682 14.7766 3.80619C14.786 3.81557 14.7579 3.98901 14.7157 4.19994C14.5844 4.84682 14.636 5.76557 14.8329 6.48744C14.8469 6.52494 14.125 6.85776 12.7 7.45776C11.5188 7.95932 10.5391 8.37182 10.5204 8.37182C10.5063 8.37182 10.4032 8.22651 10.2954 8.05307C9.89223 7.39682 9.14692 6.72651 8.42973 6.37026C7.37504 5.84057 6.18911 5.70932 5.05473 5.99994C4.80161 6.06557 4.57661 6.10776 4.55786 6.08432C4.53911 6.06557 4.29536 5.564 4.00942 4.964L3.49379 3.88119L3.71411 3.64682C4.72661 2.57338 4.28598 0.834318 2.88442 0.351505C2.55161 0.239004 1.90942 0.234318 1.60942 0.346817ZM2.66411 1.17182C2.93598 1.28432 3.13286 1.46713 3.27348 1.72494C3.69067 2.49369 3.12817 3.42182 2.24223 3.42182C1.45473 3.42182 0.925044 2.68119 1.14536 1.88432C1.21098 1.65463 1.62817 1.22338 1.84848 1.16244C2.08754 1.09213 2.48129 1.09682 2.66411 1.17182ZM12.3204 1.19526C13.1688 1.589 13.2485 2.77963 12.4563 3.24369C12.011 3.50619 11.5657 3.48744 11.1672 3.19213C10.4547 2.67651 10.5766 1.56088 11.3829 1.19526C11.6313 1.07807 12.0719 1.08276 12.3204 1.19526ZM20.2563 1.18119C21.7891 1.49525 23.0266 2.74213 23.336 4.28901C23.4625 4.90775 23.4157 5.68588 23.2235 6.26244C23.0829 6.68432 22.8485 7.12963 22.5954 7.47182L22.4829 7.62182L22.361 7.37807C22.1219 6.89994 21.6344 6.40307 21.1704 6.17807L20.9266 6.05619L21.0438 5.90151C21.8313 4.87026 21.461 3.37963 20.2797 2.83119C19.9094 2.65307 19.3375 2.60151 18.9625 2.69994C17.9454 2.97651 17.3172 3.91869 17.4625 4.964C17.5047 5.28275 17.6735 5.68588 17.8563 5.89682L17.9735 6.04213L17.7016 6.18744C17.3407 6.37494 16.7172 7.00307 16.5672 7.32651C16.5016 7.46244 16.436 7.57494 16.4125 7.57494C16.3516 7.57494 16.0938 7.19994 15.9016 6.81557C15.6438 6.30463 15.5266 5.85932 15.4985 5.24994C15.4 3.30932 16.7219 1.59369 18.6344 1.17651C19.0422 1.08744 19.8204 1.09213 20.2563 1.18119ZM19.9141 3.60932C20.3594 3.82026 20.6079 4.19994 20.6079 4.66869C20.6079 5.1515 20.3125 5.57807 19.8625 5.74682C19.5579 5.85932 19.3704 5.86401 19.0891 5.77026C18.4891 5.56401 18.1657 4.92651 18.3438 4.28901C18.4094 4.04994 18.7 3.73588 18.9719 3.60932C19.286 3.464 19.6047 3.464 19.9141 3.60932ZM6.95786 6.75932C8.47661 7.04526 9.68598 8.18432 10.0985 9.70776C10.1782 9.99838 10.2016 10.214 10.2016 10.6687C10.2016 11.5499 10.0188 12.1359 9.52192 12.8812L9.27817 13.2421L9.13754 12.9515C8.95473 12.5812 8.34536 11.9578 7.99848 11.7937C7.86254 11.7281 7.75473 11.6578 7.75004 11.6343C7.75004 11.6062 7.79223 11.5453 7.83911 11.4937C8.00317 11.3109 8.16723 10.9265 8.22348 10.5937C8.35942 9.80151 8.01254 9.00463 7.33754 8.57338C6.30629 7.91244 4.92817 8.30619 4.41723 9.41713C4.10317 10.0968 4.19223 10.9031 4.64223 11.4984L4.75473 11.6484L4.57661 11.7374C4.06098 12.0046 3.58754 12.4734 3.32973 12.9796L3.21723 13.2093L3.06723 13.0265C2.85161 12.7687 2.51879 12.0656 2.40161 11.6296C2.25629 11.0999 2.25629 10.2374 2.40161 9.70776C2.95473 7.65932 4.93754 6.37494 6.95786 6.75932ZM20.2282 6.73588C20.9079 6.87651 21.5829 7.51401 21.7375 8.15151C21.7657 8.26869 21.7422 8.29213 21.5079 8.44213C20.3032 9.21557 18.6719 9.21557 17.4016 8.45151C17.111 8.27338 17.1016 8.22651 17.2891 7.82338C17.5141 7.33119 18.0672 6.88119 18.6016 6.74994C18.9016 6.67494 19.9047 6.67026 20.2282 6.73588ZM15.3579 7.60776C15.7657 8.26401 16.4079 8.88276 17.0641 9.24369C17.2422 9.34213 17.3875 9.42182 17.3969 9.43119C17.4157 9.44526 15.5407 14.6578 15.4844 14.7468C15.4563 14.7937 15.4 14.7937 15.1985 14.7421C15.0344 14.6999 14.6829 14.6765 14.2188 14.6765C13.6141 14.6765 13.4219 14.6953 13.0704 14.7843C12.6157 14.9015 11.8282 15.2624 11.5282 15.4874L11.3454 15.6234L10.5766 14.7796C9.89692 14.039 9.81723 13.9265 9.86879 13.8562C9.90161 13.814 10.0282 13.6406 10.15 13.4812C10.4032 13.1437 10.6985 12.5671 10.8438 12.1312C11.0922 11.3718 11.1344 10.3593 10.9422 9.56713C10.8907 9.36088 10.8579 9.18744 10.8672 9.17807C10.886 9.15932 15.1235 7.34994 15.161 7.34526C15.175 7.34057 15.2641 7.46244 15.3579 7.60776ZM6.74223 9.21088C7.00473 9.32807 7.25786 9.62807 7.35629 9.94213C7.42661 10.1671 7.43129 10.2421 7.38442 10.4718C7.15473 11.5828 5.66411 11.7656 5.19067 10.739C4.73598 9.76401 5.74379 8.77494 6.74223 9.21088ZM7.31879 12.4312C7.77348 12.5953 8.15786 12.9468 8.38286 13.3968C8.47192 13.5796 8.54692 13.7671 8.54692 13.814C8.54692 13.9312 7.97973 14.2593 7.49223 14.4234C6.35317 14.8078 5.05942 14.639 4.10786 13.9921L3.91098 13.8562L3.98129 13.6499C4.21567 12.9656 4.85786 12.4265 5.57504 12.3093C5.72973 12.2859 6.10942 12.2765 6.41879 12.2859C6.88286 12.3046 7.04692 12.3281 7.31879 12.4312ZM22.6282 13.1578C22.8719 13.2234 23.2891 13.6406 23.3547 13.8843C23.5188 14.4703 23.2985 15.0093 22.7875 15.2859C22.0188 15.7031 21.0907 15.1406 21.0907 14.2546C21.0907 13.4671 21.8313 12.9374 22.6282 13.1578ZM15.3907 15.6609C17.0875 16.1906 18.2032 17.7046 18.2032 19.4765C18.2032 20.2874 17.9875 20.9906 17.5375 21.6656C17.411 21.8578 17.2985 22.0124 17.2891 22.0124C17.2797 22.0124 17.2 21.8812 17.1204 21.7218C16.9235 21.3515 16.3516 20.7703 15.9954 20.5828L15.7282 20.4468L15.8407 20.3015C16.286 19.7109 16.375 18.8765 16.0563 18.2015C15.3297 16.664 13.1547 16.664 12.4282 18.2015C12.1094 18.8765 12.1985 19.7109 12.6438 20.3015L12.7563 20.4468L12.4891 20.5828C12.1375 20.7656 11.5094 21.3984 11.3641 21.7171C11.2985 21.8531 11.2329 21.9656 11.2094 21.9656C11.1485 21.9656 10.8579 21.539 10.6844 21.1828C10.3938 20.5921 10.3047 20.2078 10.3094 19.4578C10.3094 18.9796 10.3329 18.7171 10.3891 18.4968C10.5063 18.0609 10.8954 17.3062 11.186 16.9499C11.7719 16.2328 12.6579 15.7218 13.6563 15.5249C13.7219 15.5156 14.05 15.5109 14.3829 15.5203C14.8797 15.5343 15.0672 15.5624 15.3907 15.6609ZM2.77192 16.8421C3.22192 17.0531 3.50317 17.6062 3.40004 18.0656C3.26879 18.6374 2.80473 19.0171 2.23754 19.0171C1.60004 19.0171 1.09379 18.5109 1.09379 17.864C1.09379 17.2874 1.47817 16.8281 2.04536 16.7203C2.30317 16.6734 2.47192 16.7015 2.77192 16.8421ZM14.7672 18.0187C14.9875 18.1312 15.236 18.3984 15.3297 18.6328C15.4188 18.8437 15.4188 19.2749 15.3297 19.4859C15.0766 20.0999 14.3547 20.3906 13.7735 20.1187C13.3422 19.9218 13.0844 19.5234 13.0844 19.0593C13.0844 18.5343 13.4079 18.1031 13.9375 17.9296C14.125 17.8687 14.561 17.9156 14.7672 18.0187ZM6.37661 20.4281C6.89692 20.6906 7.15004 21.3562 6.92973 21.9093C6.83129 22.1531 6.44692 22.5093 6.21254 22.5749C5.78598 22.6921 5.39223 22.6031 5.08754 22.3265C4.81567 22.0781 4.69379 21.8015 4.69379 21.4453C4.69379 20.5874 5.59848 20.039 6.37661 20.4281ZM15.0204 21.1406C15.1938 21.1781 15.4235 21.2531 15.536 21.314C15.8266 21.4593 16.2625 21.9187 16.3985 22.2093C16.6047 22.664 16.6047 22.6687 16.2672 22.8656C15.5547 23.2874 14.9454 23.4421 14.0829 23.4093C13.5766 23.3906 13.4266 23.3624 13.0375 23.2312C12.7844 23.1468 12.4375 22.9921 12.2641 22.8843C11.9032 22.6593 11.8938 22.6312 12.086 22.2093C12.2219 21.9187 12.6579 21.4593 12.9485 21.3093C13.061 21.2531 13.2813 21.1781 13.4407 21.1453C13.8204 21.0609 14.636 21.0609 15.0204 21.1406Z" fill="white"/>
</svg>
