<svg width="24" height="25" viewBox="0 0 24 25" fill="none" xmlns="http://www.w3.org/2000/svg">
<path d="M6.60319 0.384102C6.46726 0.449726 6.30319 0.571602 6.24226 0.655977C5.97507 1.00285 5.98444 0.91379 5.98444 3.9841V6.82004L3.72507 6.8341L1.46101 6.84816L1.19382 6.97941C0.90788 7.12004 0.748505 7.27941 0.579755 7.59348L0.47663 7.78566L0.462568 13.856C0.453193 18.145 0.467255 19.9638 0.500068 20.0482C0.528193 20.1185 0.60788 20.1935 0.668818 20.2263C0.753193 20.2638 1.97663 20.2779 5.04226 20.2779H9.30319L9.58913 20.6997C9.74382 20.9294 9.87507 21.1263 9.87507 21.1404C9.87507 21.1497 9.68757 21.2247 9.45788 21.3044C8.79226 21.5435 8.39851 21.8341 8.18757 22.2466C8.08913 22.4341 8.10788 22.8513 8.22507 23.0716C8.51101 23.6247 9.46257 24.0607 10.6954 24.22C11.3516 24.2997 12.8235 24.2529 13.3673 24.1263C14.7079 23.8263 15.3829 23.3247 15.3782 22.6216C15.3735 22.031 14.8954 21.581 13.9391 21.2622L13.6204 21.1591L13.7048 21.0372C13.7516 20.9669 13.8829 20.77 13.9954 20.5966L14.2063 20.2779H18.4579C21.5235 20.2779 22.7469 20.2638 22.8313 20.2263C22.8923 20.1935 22.9719 20.1185 23.0001 20.0482C23.0329 19.9638 23.0469 18.145 23.0376 13.856L23.0235 7.78566L22.9204 7.59348C22.7516 7.27941 22.5923 7.12004 22.3063 6.97941L22.0391 6.84816L19.7798 6.8341L17.5204 6.82004L17.5063 3.92316L17.4923 1.02629L17.3516 0.796602C17.2626 0.655977 17.1219 0.515352 16.9813 0.426289L16.7516 0.285664L11.8016 0.271603L6.84694 0.262226L6.60319 0.384102ZM16.6063 1.16691L16.7188 1.29816V10.3919V19.481H15.711C15.1579 19.481 14.7032 19.4716 14.7032 19.4622C14.7032 19.4529 14.7735 19.2888 14.8626 19.0966C15.5235 17.6482 15.5469 16.3638 14.9282 15.3185C14.7266 14.9716 14.0048 14.2497 13.6579 14.0482C12.1673 13.1716 10.2219 13.4529 9.05476 14.7091C8.3235 15.5013 8.02351 16.3872 8.14069 17.4232C8.19694 17.9154 8.42194 18.6419 8.67976 19.1482L8.84382 19.481H7.81257H6.78132V10.3919C6.78132 1.34504 6.78132 1.30754 6.87507 1.18567C6.92663 1.12004 7.01569 1.05441 7.07663 1.04504C7.13288 1.03566 9.27507 1.02629 11.8344 1.03098L16.4938 1.03566L16.6063 1.16691ZM5.98444 13.5513V19.481H3.61726H1.25007L1.25944 13.72C1.27351 8.0341 1.27351 7.9591 1.36726 7.85598C1.56882 7.63098 1.60632 7.62629 3.86569 7.6216H5.98444V13.5513ZM22.0016 7.74347C22.0719 7.79504 22.161 7.89348 22.1891 7.95441C22.236 8.04348 22.2501 9.33723 22.2501 13.7716V19.481H19.8829H17.5157V13.5513V7.61691L19.6907 7.63098C21.8188 7.64504 21.8704 7.64504 22.0016 7.74347ZM12.336 14.395C13.3438 14.606 14.2157 15.3982 14.4923 16.3591C14.6188 16.7997 14.5719 17.5497 14.3798 18.1169C14.0938 18.9607 13.5407 19.8982 12.4532 21.3747C11.9376 22.0779 11.7923 22.2138 11.6516 22.1294C11.5626 22.0732 10.6485 20.8216 10.1563 20.081C8.93288 18.2388 8.63288 16.9544 9.186 15.8857C9.34069 15.5904 9.70632 15.1638 9.98288 14.9529C10.7001 14.4091 11.5016 14.2216 12.336 14.395ZM10.7516 22.3122C10.9579 22.5841 11.136 22.7669 11.2532 22.8232C11.6001 23.0013 12.1063 22.9732 12.3782 22.7575C12.4673 22.6872 12.9688 22.0685 13.086 21.8857C13.1094 21.8482 13.7469 22.0497 14.0235 22.1763C14.7219 22.4997 14.736 22.7154 14.0751 23.0529C12.9641 23.6154 10.5126 23.6154 9.42507 23.0482C9.09694 22.8794 9.01725 22.8185 8.94694 22.6872C8.90007 22.5982 8.91413 22.5654 9.02194 22.4575C9.18132 22.2935 9.64538 22.0732 10.0579 21.9607C10.2266 21.9138 10.3813 21.881 10.4001 21.8857C10.4141 21.8904 10.5735 22.0825 10.7516 22.3122Z" fill="white"/>
<path d="M7.94844 2.54033C7.68125 2.70908 7.64844 2.84033 7.64844 3.68408C7.64844 4.87939 7.67188 4.90283 8.89062 4.90283C10.1094 4.90283 10.1234 4.88408 10.1 3.62783L10.0859 2.79346L9.93125 2.64346L9.78125 2.48877L8.92344 2.47471C8.19219 2.46533 8.05156 2.47471 7.94844 2.54033ZM9.3125 3.70752V4.15283H8.89062H8.46875V3.70752V3.26221H8.89062H9.3125V3.70752Z" fill="white"/>
<path d="M10.8781 2.50752C10.8266 2.53096 10.7234 2.61533 10.6578 2.69971L10.5312 2.84971V3.66533C10.5312 4.90283 10.5312 4.90283 11.7594 4.90283C12.6406 4.89814 12.7203 4.87939 12.8797 4.64033C12.9594 4.51846 12.9688 4.41533 12.9688 3.67002V2.84033L12.8094 2.66221L12.65 2.48877L11.8109 2.47939C11.3516 2.47471 10.9344 2.48877 10.8781 2.50752ZM12.1719 3.70752V4.15283H11.75H11.3281V3.70752V3.26221H11.75H12.1719V3.70752Z" fill="white"/>
<path d="M13.7423 2.51221C13.6907 2.53096 13.597 2.60596 13.5313 2.67627C13.4188 2.79814 13.4142 2.82158 13.4001 3.62783C13.3767 4.88408 13.3907 4.90283 14.6095 4.90283C15.8282 4.90283 15.8517 4.87939 15.8517 3.68408C15.8517 3.00908 15.8423 2.89189 15.7626 2.76533C15.5985 2.48877 15.5001 2.46533 14.6235 2.47002C14.1923 2.47002 13.7938 2.48877 13.7423 2.51221ZM15.0782 3.70752V4.15283H14.6329H14.1876V3.70752V3.26221H14.6329H15.0782V3.70752Z" fill="white"/>
<path d="M8.06107 5.56377C7.69545 5.67158 7.6017 5.98564 7.63451 6.98408C7.65326 7.62158 7.69545 7.73877 7.96732 7.90283C8.09857 7.98721 8.20639 7.99658 8.89076 7.99658C9.57514 7.99658 9.68295 7.98721 9.8142 7.90283C10.0767 7.74346 10.1095 7.62158 10.1095 6.75439C10.1095 5.56846 10.0814 5.54033 8.96107 5.52627C8.54857 5.52158 8.14545 5.53564 8.06107 5.56377ZM9.31264 6.75439V7.19971H8.89076H8.46889V6.75439V6.30908H8.89076H9.31264V6.75439Z" fill="white"/>
<path d="M10.9062 5.57314C10.8172 5.60596 10.7 5.69971 10.6391 5.78877C10.5359 5.93877 10.5312 5.99033 10.5312 6.77783C10.5312 7.55127 10.5359 7.61689 10.6297 7.73408C10.8125 7.96846 10.9297 7.99658 11.75 7.99658C12.5703 7.99658 12.6875 7.96846 12.8703 7.73408C12.9641 7.61689 12.9688 7.55127 12.9688 6.77783C12.9688 5.99033 12.9641 5.93877 12.8609 5.78877C12.7063 5.55908 12.5328 5.51689 11.75 5.51689C11.3469 5.51689 11.0047 5.54033 10.9062 5.57314ZM12.1719 6.75439V7.19971H11.75H11.3281V6.75439V6.30908H11.75H12.1719V6.75439Z" fill="white"/>
<path d="M13.836 5.54502C13.686 5.58721 13.5313 5.70439 13.4563 5.84502C13.3579 6.04189 13.3625 7.47627 13.461 7.67314C13.611 7.95908 13.7469 7.99658 14.6094 7.99658C15.2938 7.99658 15.4016 7.98721 15.5329 7.90283C15.8282 7.72471 15.8516 7.64502 15.8516 6.75439V5.94814L15.7204 5.77939C15.6407 5.67158 15.5282 5.59189 15.4157 5.55908C15.2422 5.51221 14.0141 5.50283 13.836 5.54502ZM15.0782 6.75439V7.19971H14.6329H14.1875V6.75439V6.30908H14.6329H15.0782V6.75439Z" fill="white"/>
<path d="M8.01875 8.65283C7.96719 8.67158 7.86875 8.75596 7.79844 8.83564C7.64844 9.01846 7.60625 9.30908 7.63438 10.0731C7.65313 10.6919 7.69532 10.8138 7.94375 10.9825C8.05157 11.0575 8.17344 11.0669 8.84376 11.0669C10.0766 11.0669 10.1094 11.0341 10.1094 9.84346C10.1094 9.14033 10.1 9.03252 10.0156 8.90127C9.85626 8.63877 9.73438 8.60596 8.88125 8.61064C8.45938 8.61064 8.075 8.62939 8.01875 8.65283ZM9.31251 9.84814V10.2935H8.89063H8.46875V9.84814V9.40283H8.89063H9.31251V9.84814Z" fill="white"/>
<path d="M10.8781 8.64814C10.8266 8.67158 10.7234 8.75596 10.6578 8.84033L10.5312 8.99033V9.80596C10.5312 11.0528 10.5453 11.0669 11.7266 11.0669C12.95 11.0669 12.9688 11.0481 12.9688 9.80127V8.98096L12.8094 8.80283L12.65 8.62939L11.8109 8.62002C11.3516 8.61533 10.9344 8.62939 10.8781 8.64814ZM12.1719 9.84814V10.2935H11.75H11.3281V9.84814V9.40283H11.75H12.1719V9.84814Z" fill="white"/>
<path d="M13.6719 8.70908C13.4141 8.88721 13.3906 8.96689 13.3906 9.84346C13.3906 11.0341 13.4234 11.0669 14.6562 11.0669C15.3406 11.0669 15.4437 11.0575 15.5609 10.9778C15.7859 10.8231 15.8422 10.6497 15.8656 10.0497C15.8937 9.25752 15.8562 9.00908 15.6641 8.79814L15.5094 8.62939L14.6703 8.61533C13.8594 8.60127 13.8312 8.60127 13.6719 8.70908ZM15.0312 9.84814V10.2935H14.6094H14.1875V9.84814V9.40283H14.6094H15.0312V9.84814Z" fill="white"/>
<path d="M2.72654 8.97627C2.40779 9.17314 2.39841 9.19189 2.38435 10.0778C2.3656 11.3106 2.42185 11.3716 3.61716 11.3716C4.79841 11.3716 4.85935 11.3106 4.85935 10.1294C4.85935 9.29033 4.82185 9.16377 4.52185 8.98096C4.38591 8.89658 4.28279 8.88721 3.61716 8.88721C2.97029 8.88721 2.84841 8.90127 2.72654 8.97627ZM4.06248 10.1294V10.5747H3.61716H3.17185V10.1294V9.68408H3.61716H4.06248V10.1294Z" fill="white"/>
<path d="M18.9781 8.98096C18.6781 9.16377 18.6406 9.29033 18.6406 10.1294C18.6406 11.3106 18.7016 11.3716 19.8828 11.3716C21.0641 11.3716 21.125 11.3106 21.125 10.1294C21.125 9.29033 21.0875 9.16377 20.7875 8.98096C20.6516 8.89658 20.5484 8.88721 19.8828 8.88721C19.2172 8.88721 19.1141 8.89658 18.9781 8.98096ZM20.3281 10.1294V10.5747H19.8828H19.4375V10.1294V9.68408H19.8828H20.3281V10.1294Z" fill="white"/>
<path d="M11.2157 14.7278C10.3297 14.9435 9.61254 15.7263 9.50472 16.6075C9.33129 18.0185 10.3578 19.1997 11.75 19.1997C13.1235 19.1997 14.1688 18.0138 14 16.645C13.8313 15.3044 12.5282 14.4091 11.2157 14.7278ZM12.3782 15.6138C13.1094 15.9606 13.4282 16.8935 13.0625 17.606C12.9407 17.845 12.6266 18.145 12.3688 18.2716C12.0547 18.4263 11.4453 18.4263 11.1313 18.2716C9.86566 17.6481 10.0672 15.8622 11.4453 15.4919C11.675 15.431 12.111 15.4872 12.3782 15.6138Z" fill="white"/>
</svg>
