<svg width="21" height="25" viewBox="0 0 21 25" fill="none" xmlns="http://www.w3.org/2000/svg">
<path d="M2.09947 0.351269C1.86509 0.459082 1.63541 0.698143 1.53697 0.932518C1.49478 1.03096 1.45259 1.27471 1.43384 1.48096C1.41041 1.79502 1.39166 1.85127 1.30728 1.89346C0.815094 2.11846 0.561969 2.74189 0.721344 3.33252C0.777594 3.53408 1.21822 4.01221 1.34478 4.01221C1.40572 4.01221 1.41509 4.23252 1.42916 5.53564C1.44322 7.03564 1.44322 7.05908 1.54634 7.16221C1.67759 7.29346 1.94009 7.29814 2.07603 7.17627C2.16509 7.09189 2.16978 7.04502 2.16978 5.60127V4.11533L3.10259 4.09658C4.13853 4.08252 4.17603 4.06846 4.41041 3.73096C4.50416 3.59033 4.51353 3.52002 4.51353 2.96221C4.51353 2.26846 4.46197 2.10439 4.18541 1.91221C4.04009 1.81377 3.98853 1.80908 3.09322 1.80908H2.15572L2.18384 1.52314C2.20259 1.29346 2.23541 1.20908 2.32916 1.11064L2.45103 0.98877L9.82447 0.974707C13.8745 0.970018 17.2635 0.974707 17.3526 0.98877C17.437 1.00752 17.5588 1.06846 17.6198 1.12939L17.7323 1.24189V11.1091V20.9716L17.587 21.0935L17.4417 21.2153H9.96978H2.49791L2.34791 21.0794L2.19322 20.9435L2.16978 14.5122C2.14634 8.21689 2.14634 8.08096 2.05728 8.01533C1.92603 7.92158 1.68228 7.93564 1.55572 8.03877L1.44322 8.12783V14.6153V21.0981L1.58384 21.3466C1.73384 21.6231 1.99166 21.8294 2.28697 21.9138C2.39009 21.9419 2.76509 21.9653 3.12134 21.9653H3.76353V22.6075C3.76353 22.9638 3.78697 23.3388 3.81509 23.4419C3.89947 23.7466 4.11041 24.0044 4.38228 24.1403L4.62603 24.2622H9.98384C15.2807 24.2622 15.3417 24.2622 15.4354 24.1685C15.5479 24.056 15.562 23.8075 15.4635 23.6716C15.3979 23.5825 15.276 23.5825 10.0917 23.5591L4.78541 23.5356L4.64947 23.381C4.51353 23.231 4.51353 23.231 4.51353 22.5981V21.9653L11.0901 21.956L17.662 21.9419L17.8495 21.8388C17.9526 21.7825 18.1026 21.67 18.187 21.581C18.5057 21.2481 18.4823 22.0075 18.4823 12.1919V3.30439L19.1667 3.31846C19.851 3.33252 19.851 3.33252 19.9635 3.46377L20.076 3.59502V13.4247C20.076 24.3466 20.1042 23.4138 19.7573 23.5122C19.6542 23.5403 18.9417 23.5591 17.9854 23.5591C16.4338 23.5591 16.387 23.5638 16.3026 23.6528C16.1901 23.7794 16.1901 24.0419 16.3026 24.1685C16.387 24.2622 16.4292 24.2622 18.1963 24.2622C19.9917 24.2575 20.0057 24.2575 20.2167 24.1497C20.4604 24.0278 20.7088 23.7278 20.7792 23.4747C20.812 23.3575 20.826 20.0763 20.826 13.3872C20.826 3.51533 20.8213 3.47314 20.7276 3.26221C20.6104 2.99971 20.437 2.81689 20.1932 2.68564C20.0292 2.59658 19.9073 2.58252 19.2463 2.56846L18.4823 2.54971V1.82783C18.4823 1.31689 18.4635 1.05908 18.4167 0.946581C18.3229 0.721581 18.0651 0.445019 17.8495 0.351269C17.6713 0.266893 17.3104 0.262207 9.97447 0.262207C2.58228 0.262207 2.27759 0.266893 2.09947 0.351269ZM3.76353 2.95752V3.35596H2.72759H1.69166L1.55572 3.22002C1.38228 3.04189 1.37291 2.83564 1.53697 2.67627L1.64947 2.55908H2.70884H3.76353V2.95752Z" fill="white"/>
<path d="M5.99019 4.15751C5.18863 4.27938 4.60269 4.57469 4.04488 5.13719C3.35113 5.83094 3.06519 6.4825 3.02301 7.44344C2.99488 8.12782 3.08394 8.55907 3.36519 9.14969C3.71676 9.88094 4.40113 10.5138 5.17457 10.8325C5.81676 11.095 6.66051 11.1466 7.34957 10.9731C8.12301 10.7763 8.91988 10.2138 9.36519 9.54344C10.5324 7.79032 9.88551 5.39501 8.00582 4.48094C7.40113 4.18563 6.61363 4.05907 5.99019 4.15751ZM6.10738 5.695V6.4825L5.87769 6.62782C5.09957 7.11063 5.16051 8.24969 5.99019 8.63407C6.24332 8.75594 6.61832 8.78407 6.83863 8.69969C6.96519 8.65282 6.99332 8.67157 7.52301 9.20126C7.82769 9.50594 8.07613 9.76844 8.07613 9.78719C8.07613 9.85282 7.58863 10.1059 7.27926 10.1997C6.30426 10.5091 5.29644 10.2513 4.56051 9.50126C3.96988 8.90126 3.73551 8.29188 3.77301 7.4575C3.81051 6.71688 4.11051 6.08876 4.65894 5.59188C5.02926 5.25438 5.68082 4.93094 6.05113 4.90751C6.09332 4.90282 6.10738 5.09032 6.10738 5.695ZM7.46207 5.07157C8.01988 5.28251 8.61519 5.80751 8.88238 6.32782C9.28551 7.12001 9.29957 7.97782 8.92457 8.77001C8.66676 9.31376 8.72301 9.31844 8.07144 8.67157C7.56051 8.16063 7.50894 8.09501 7.55582 8.00594C7.65426 7.82313 7.61676 7.33563 7.48551 7.06844C7.36832 6.83876 7.05426 6.54344 6.91832 6.54344C6.87144 6.54344 6.85738 6.36532 6.85738 5.71844V4.89344L7.01207 4.92625C7.09176 4.945 7.29801 5.01063 7.46207 5.07157ZM6.66519 7.27C6.89488 7.38719 6.93238 7.69188 6.74019 7.87938C6.44019 8.18407 5.93394 7.81844 6.13082 7.43407C6.25269 7.19969 6.42613 7.14344 6.66519 7.27Z" fill="white"/>
<path d="M11.3056 4.15281C10.8884 4.27468 10.7478 4.55124 10.7478 5.23562C10.7478 5.83562 10.7947 6.00905 11.0056 6.2153L11.1744 6.37937L12.6369 6.39343C14.0994 6.40749 14.1041 6.40749 14.2634 6.29968C14.5166 6.13093 14.6056 5.92937 14.6291 5.48405C14.6619 4.86062 14.6103 4.59812 14.4181 4.38249C14.3244 4.27937 14.1837 4.18093 14.0853 4.15281C13.8837 4.09655 11.4884 4.09655 11.3056 4.15281ZM13.865 5.2778V5.67624H12.6931H11.5212L11.5072 5.26374L11.4931 4.85593L12.6791 4.8653L13.865 4.87937V5.2778Z" fill="white"/>
<path d="M10.8463 7.36846C10.715 7.53252 10.7244 7.68252 10.8603 7.84189L10.9728 7.97314H13.865H16.7572L16.8463 7.86064C16.9635 7.71533 16.9635 7.46221 16.8416 7.34033C16.7478 7.24658 16.6869 7.24658 13.8463 7.24658H10.94L10.8463 7.36846Z" fill="white"/>
<path d="M10.8932 8.87314C10.8416 8.92002 10.7807 9.02314 10.7666 9.10752C10.7432 9.23408 10.7619 9.28096 10.8791 9.40283L11.0244 9.54346L13.8885 9.53408L16.7572 9.52002L16.8463 9.40752C16.9682 9.25752 16.9635 9.02314 16.8276 8.89658L16.7197 8.79346H13.8557C11.1979 8.79346 10.9869 8.79814 10.8932 8.87314Z" fill="white"/>
<path d="M10.9025 10.4106C10.6962 10.556 10.7291 10.931 10.9634 11.0388C11.0431 11.0716 11.5962 11.0903 12.7072 11.0903C14.4744 11.0903 14.4931 11.0856 14.5916 10.8278C14.6431 10.6919 14.5681 10.4481 14.4509 10.3872C14.3994 10.3591 13.6916 10.3403 12.6837 10.3403C11.2775 10.3403 10.9869 10.3497 10.9025 10.4106Z" fill="white"/>
<path d="M3.41205 13.5278C3.06986 13.7013 3.03705 13.7903 3.02299 14.5591C3.00893 15.3231 3.04643 15.4497 3.35111 15.6372C3.49643 15.7263 3.59018 15.731 4.91674 15.731C6.30424 15.731 6.33237 15.731 6.48237 15.6231C6.81049 15.4028 6.83393 15.3278 6.83393 14.5872C6.83393 13.9356 6.82924 13.9169 6.70737 13.7528C6.47299 13.4435 6.41205 13.4341 4.92612 13.4341C3.68861 13.4341 3.58549 13.4388 3.41205 13.5278ZM6.10737 14.5825V14.981H4.93549H3.76361V14.5825V14.1841H4.93549H6.10737V14.5825Z" fill="white"/>
<path d="M16.3916 13.4903C16.2416 13.5606 16.1853 13.7293 16.1853 14.1043V14.4418L15.1681 15.459L14.1462 16.4762L13.0775 16.1293C12.4869 15.9372 11.9525 15.7778 11.8822 15.7778C11.7884 15.7778 11.5728 15.9653 10.8791 16.6543C10.0494 17.4793 9.9978 17.545 9.9978 17.7043C9.9978 17.9153 10.1666 18.0747 10.3869 18.0747C10.5087 18.0747 10.6447 17.9622 11.2822 17.3293L12.0369 16.584L13.0681 16.9309C13.6353 17.1231 14.1697 17.2778 14.2587 17.2778C14.4087 17.2778 14.5025 17.1981 15.3041 16.4012L16.1853 15.5247V17.4512V19.3825L16.0728 19.5137L15.9603 19.645L13.0447 19.6684C10.2275 19.6918 10.1291 19.6965 10.0634 19.7809C9.96968 19.9122 9.98374 20.1559 10.0869 20.2825L10.1759 20.395L13.0259 20.409C16.3072 20.4231 16.2416 20.4278 16.6072 20.0528C16.7291 19.9262 16.8462 19.7528 16.8791 19.6403C16.9212 19.495 16.9353 18.7075 16.9353 16.5372V13.6262L16.8134 13.5325C16.6775 13.4247 16.5462 13.4106 16.3916 13.4903Z" fill="white"/>
<path d="M3.21497 16.5747C3.00404 16.6591 2.9431 17.02 3.10716 17.1841C3.20091 17.2778 3.26185 17.2778 6.07904 17.2778C8.76966 17.2778 8.96185 17.2731 9.06029 17.1935C9.2056 17.0763 9.21029 16.795 9.06966 16.6544L8.96185 16.5513L6.13997 16.5419C4.56966 16.5372 3.27122 16.5513 3.21497 16.5747Z" fill="white"/>
<path d="M3.10718 18.2153C2.99468 18.3278 2.9853 18.5763 3.08843 18.7216L3.15874 18.8247H6.07905C8.96187 18.8247 8.99937 18.8247 9.08374 18.731C9.1353 18.6747 9.1728 18.5622 9.1728 18.4731C9.1728 18.3841 9.1353 18.2716 9.08374 18.2153C8.99937 18.1216 8.96187 18.1216 6.0978 18.1216C3.26187 18.1216 3.20093 18.1216 3.10718 18.2153Z" fill="white"/>
<path d="M3.10736 19.7624C2.97611 19.8937 2.98079 20.1843 3.11204 20.3062C3.20579 20.3905 3.31361 20.3952 4.85579 20.4093C6.60892 20.4234 6.70736 20.414 6.80579 20.203C6.88079 20.0343 6.87142 19.9312 6.75892 19.7905L6.66517 19.6687H4.93079C3.26204 19.6687 3.19642 19.6734 3.10736 19.7624Z" fill="white"/>
</svg>
