<svg width="16" height="24" viewBox="0 0 16 24" fill="none" xmlns="http://www.w3.org/2000/svg">
<path d="M2.75312 0.166309C2.57969 0.255371 2.54688 0.410059 2.54688 1.15068C2.54688 1.91475 2.58906 2.09287 2.79062 2.14912C2.85156 2.16318 3.23125 2.17725 3.63906 2.17725C4.36094 2.17725 4.37969 2.17256 4.49219 2.06006C4.60937 1.94756 4.60937 1.9335 4.60937 1.15537C4.60937 0.0725586 4.67031 0.142871 3.63906 0.128809C3.15156 0.119434 2.81406 0.138184 2.75312 0.166309ZM3.8125 1.146V1.38037H3.57812H3.34375V1.146V0.911621H3.57812H3.8125V1.146Z" fill="white"/>
<path d="M5.51398 0.171191C5.33586 0.260254 5.30304 0.429004 5.32179 1.23057C5.33586 1.88213 5.34992 1.99932 5.42023 2.06963C5.49054 2.14463 5.61242 2.154 6.32023 2.16807L7.14055 2.18213L7.25773 2.06494C7.37492 1.94775 7.37492 1.93838 7.37492 1.15557C7.37492 0.0727541 7.43586 0.143067 6.40461 0.129004C5.91242 0.119629 5.57961 0.138379 5.51398 0.171191ZM6.57805 1.14619V1.38057H6.34367H6.1093V1.14619V0.911816H6.34367H6.57805V1.14619Z" fill="white"/>
<path d="M8.32656 0.161817C8.14844 0.232129 8.125 0.354004 8.125 1.16963C8.125 1.93838 8.125 1.94775 8.24219 2.06494L8.35937 2.18213L9.17969 2.16807C9.8875 2.154 10.0094 2.14463 10.0797 2.06963C10.15 1.99932 10.1641 1.88213 10.1781 1.23057C10.1969 0.414942 10.1641 0.255566 9.97187 0.166504C9.83125 0.105567 8.48125 0.100879 8.32656 0.161817ZM9.39062 1.14619V1.38057H9.15625H8.92187V1.14619V0.911816H9.15625H9.39062V1.14619Z" fill="white"/>
<path d="M11.0922 0.161621C10.9141 0.231933 10.8906 0.353809 10.8906 1.16943C10.8906 1.9335 10.8906 1.94756 11.0078 2.06006C11.1203 2.17256 11.1391 2.17725 11.8609 2.17725C12.2688 2.17725 12.6484 2.16318 12.7094 2.14912C12.9109 2.09287 12.9531 1.91475 12.9531 1.15068C12.9531 0.395996 12.9203 0.250684 12.7328 0.166308C12.5969 0.105371 11.2469 0.100683 11.0922 0.161621ZM12.1562 1.146V1.38037H11.9219H11.6875V1.146V0.911621H11.9219H12.1562V1.146Z" fill="white"/>
<path d="M1.29073 2.75414C1.1923 2.85726 1.18761 2.90414 1.18761 3.6682C1.18761 4.73695 1.11261 4.66195 2.20948 4.66195C3.28292 4.66195 3.22198 4.71351 3.24073 3.80882C3.27355 2.62289 3.29698 2.64632 2.2048 2.64632C1.4173 2.64632 1.38917 2.65101 1.29073 2.75414ZM2.45323 3.65414V3.91195H2.19542H1.93761V3.65414V3.39632H2.19542H2.45323V3.65414Z" fill="white"/>
<path d="M4.05636 2.75414C3.95792 2.85726 3.95323 2.90414 3.95323 3.6682C3.95323 4.73695 3.87823 4.66195 4.97511 4.66195C5.7298 4.66195 5.82355 4.65257 5.88917 4.57757C5.95948 4.50257 5.96886 4.36664 5.96886 3.66351C5.96886 2.57133 6.04386 2.64632 4.97042 2.64632C4.18292 2.64632 4.1548 2.65101 4.05636 2.75414ZM5.21886 3.65414V3.91195H4.96105H4.70323V3.65414V3.39632H4.96105H5.21886V3.65414Z" fill="white"/>
<path d="M6.85938 2.7401C6.77031 2.82916 6.76562 2.89479 6.76562 3.66823C6.76562 4.42291 6.775 4.51666 6.85 4.58229C6.925 4.6526 7.06094 4.66198 7.76406 4.66198C8.85625 4.66198 8.78125 4.73698 8.78125 3.65416C8.78125 2.89479 8.77188 2.82448 8.6875 2.7401C8.60313 2.65573 8.53281 2.64635 7.77344 2.64635C7.01406 2.64635 6.94375 2.65573 6.85938 2.7401ZM8.03125 3.65416V3.91198H7.77344H7.51562V3.65416V3.39635H7.77344H8.03125V3.65416Z" fill="white"/>
<path d="M9.625 2.74008C9.53594 2.82915 9.53125 2.89477 9.53125 3.66821C9.53125 4.4229 9.54063 4.51665 9.61563 4.58227C9.69063 4.65258 9.82656 4.66196 10.5297 4.66196C11.6219 4.66196 11.5469 4.73696 11.5469 3.66352C11.5469 2.58071 11.6125 2.64633 10.525 2.64633C9.77969 2.64633 9.70938 2.65571 9.625 2.74008ZM10.7969 3.65415V3.91196H10.5391H10.2812V3.65415V3.39633H10.5391H10.7969V3.65415Z" fill="white"/>
<path d="M12.4328 2.73506C12.325 2.82412 12.3203 2.84756 12.3062 3.61631C12.2922 4.36631 12.2969 4.41318 12.3906 4.53506L12.489 4.66162H13.3281H14.1672L14.2609 4.53975C14.35 4.42256 14.3594 4.35225 14.3594 3.65381C14.3594 2.95537 14.35 2.88506 14.2609 2.76787L14.1672 2.646H13.3515C12.625 2.646 12.5312 2.65537 12.4328 2.73506ZM13.5625 3.65381V3.91162H13.3281H13.0937V3.65381V3.396H13.3281H13.5625V3.65381Z" fill="white"/>
<path d="M0.868701 5.2851C0.432764 5.44447 0.184326 5.82416 0.184326 6.32572C0.184326 6.91635 0.517139 7.31947 1.09839 7.43666C1.14058 7.44603 2.14839 8.57572 3.33901 9.94916L5.49995 12.4523V15.2976C5.49995 17.8288 5.50933 18.1523 5.57495 18.246C5.7437 18.4898 5.73901 18.4945 7.90464 17.7398C9.11401 17.3226 9.95308 17.0085 9.98589 16.957C10.0328 16.896 10.0468 16.5304 10.0468 15.4851V14.0882L11.8421 14.0742C13.8296 14.0554 13.8015 14.0601 14.1625 13.7367C14.2656 13.6429 14.4015 13.4648 14.4625 13.3429C14.5703 13.1226 14.5703 13.1226 14.5703 11.2476C14.5703 9.43353 14.5656 9.36791 14.4718 9.16166C14.3078 8.81478 13.975 8.53353 13.6468 8.46322C13.525 8.4351 13.5296 8.42572 13.9421 7.94291C14.2937 7.5351 14.3968 7.44135 14.5609 7.39447C15.1375 7.22572 15.4328 6.60228 15.2406 5.95541C15.1656 5.70228 14.8187 5.35541 14.5656 5.28041C14.289 5.20072 1.0937 5.20541 0.868701 5.2851ZM14.3078 6.04447C14.5468 6.16635 14.5796 6.51322 14.364 6.62572C14.2984 6.66322 12.2687 6.67728 7.73589 6.67728H1.20151L1.07495 6.57885C0.868701 6.41478 0.924951 6.10541 1.18745 6.00697C1.22495 5.99291 4.16401 5.97885 7.71714 5.97885C13.314 5.97416 14.1953 5.98353 14.3078 6.04447ZM13.0421 7.81166C12.8546 8.02728 12.5828 8.33666 12.4328 8.50541C11.6031 9.4476 9.48901 11.8757 9.39995 11.9929L9.29683 12.1288V14.2898V16.4554L7.79683 16.971L6.29683 17.4867L6.28745 14.7913L6.27339 12.0913L4.30464 9.81791C3.21714 8.56635 2.31714 7.51635 2.2937 7.48353C2.26558 7.44135 3.38589 7.42728 7.82026 7.42728H13.3843L13.0421 7.81166ZM13.5671 9.25541C13.7875 9.37728 13.7968 9.47103 13.7968 11.2757V12.9679L13.6375 13.1273L13.4781 13.2867H11.7625H10.0468V13.0288V12.771H11.4765C12.4187 12.771 12.939 12.7523 13.014 12.7195C13.2156 12.6257 13.2343 12.5132 13.2343 11.2288C13.2343 9.76635 13.2484 9.80853 12.7234 9.77103L12.3906 9.7476L12.6156 9.48041L12.8359 9.21322H13.1546C13.3328 9.20853 13.5156 9.23197 13.5671 9.25541ZM12.4375 11.2476V11.9742H11.4718C10.5203 11.9742 10.5062 11.9742 10.5671 11.8851C10.6046 11.8335 10.8765 11.5054 11.1718 11.1585L11.7109 10.5257H12.0765L12.4375 10.521V11.2476Z" fill="white"/>
<path d="M3.62976 18.4759C3.34383 18.5791 3.00633 18.9259 2.90789 19.2166C2.46726 20.5009 3.98601 21.5416 4.97508 20.6322C5.29383 20.3369 5.38289 20.1306 5.38289 19.6853C5.38289 19.3572 5.36414 19.2775 5.24226 19.0572C5.09695 18.7947 4.82976 18.5603 4.54851 18.4572C4.33758 18.3822 3.87351 18.3916 3.62976 18.4759ZM4.36101 19.24C4.53914 19.3478 4.61883 19.4837 4.61883 19.6853C4.61883 20.2431 3.8032 20.365 3.62508 19.8306C3.55476 19.615 3.65789 19.3712 3.86883 19.24C4.06101 19.1228 4.16883 19.1228 4.36101 19.24Z" fill="white"/>
<path d="M10.9516 18.457C10.6703 18.5601 10.4031 18.7945 10.2578 19.057C10.1359 19.2773 10.1172 19.357 10.1172 19.6851C10.1172 20.1304 10.2062 20.3367 10.525 20.632C11.1719 21.2226 12.1844 21.0117 12.5594 20.2007C12.8641 19.5539 12.5172 18.7007 11.8516 18.4757C11.5891 18.3867 11.1719 18.3773 10.9516 18.457ZM11.6312 19.2398C12.0906 19.521 11.9078 20.1773 11.3687 20.1773C11.2234 20.1773 11.1484 20.1445 11.0406 20.0367C10.8766 19.8773 10.8391 19.7273 10.9094 19.5164C10.9656 19.3476 11.2187 19.146 11.3781 19.146C11.4344 19.146 11.5469 19.1882 11.6312 19.2398Z" fill="white"/>
<path d="M0.235938 18.5366L0.109375 18.6351V19.6663C0.109375 20.6319 0.114063 20.6976 0.203125 20.7866C0.264063 20.8476 0.357813 20.8804 0.484375 20.8804C0.610938 20.8804 0.704688 20.8476 0.765625 20.7866C0.854688 20.6976 0.859375 20.6319 0.859375 19.6897C0.859375 18.8038 0.85 18.6772 0.779688 18.5882C0.653125 18.4335 0.395313 18.4101 0.235938 18.5366Z" fill="white"/>
<path d="M7.57656 18.4897C7.39375 18.5647 7.375 18.6772 7.375 19.7038C7.375 20.6319 7.37969 20.6976 7.46875 20.7866C7.52969 20.8476 7.62344 20.8804 7.75 20.8804C7.87656 20.8804 7.97031 20.8476 8.03125 20.7866C8.12031 20.6976 8.125 20.6319 8.125 19.671C8.125 18.7382 8.11563 18.6397 8.04063 18.5694C7.93281 18.471 7.7125 18.4335 7.57656 18.4897Z" fill="white"/>
<path d="M14.8422 18.4897C14.6594 18.5647 14.6406 18.6772 14.6406 19.7038C14.6406 20.6319 14.6453 20.6976 14.7344 20.7866C14.7953 20.8476 14.8891 20.8804 15.0156 20.8804C15.1422 20.8804 15.2359 20.8476 15.2969 20.7866C15.3859 20.6976 15.3906 20.6319 15.3906 19.6663V18.6351L15.2688 18.5413C15.1375 18.4382 15.0109 18.4241 14.8422 18.4897Z" fill="white"/>
<path d="M5.70165 20.8853C5.05009 21.0025 4.62352 21.5509 4.66571 22.2259C4.68915 22.5962 4.7829 22.8165 5.02196 23.0603C5.62665 23.6743 6.63446 23.5243 7.06571 22.7556C7.19227 22.5306 7.21102 22.4556 7.20634 22.1462C7.20634 21.6118 6.96727 21.2181 6.51727 21.0025C6.23602 20.8712 5.9829 20.8337 5.70165 20.8853ZM6.15634 21.7009C6.34384 21.7993 6.43759 21.9493 6.43759 22.1603C6.43759 22.3993 6.19384 22.6618 5.97352 22.6618C5.53759 22.6618 5.26102 22.1837 5.51415 21.865C5.69227 21.64 5.92196 21.579 6.15634 21.7009Z" fill="white"/>
<path d="M2.03132 21.0212C1.89538 21.1571 1.88601 21.2509 1.90007 22.2587C1.91413 23.1681 1.91413 23.1868 2.02663 23.2759C2.18132 23.4024 2.42976 23.3931 2.57038 23.2478C2.68757 23.1353 2.68757 23.1353 2.68757 22.1462C2.68757 21.1571 2.68757 21.1571 2.57038 21.0446C2.42507 20.8993 2.16726 20.8853 2.03132 21.0212Z" fill="white"/>
<path d="M9.29688 21.021C9.20781 21.1101 9.20312 21.1757 9.20312 22.146C9.20312 23.1163 9.20781 23.1819 9.29688 23.271C9.44219 23.4163 9.73281 23.3976 9.85469 23.2429C9.94844 23.1257 9.95312 23.0601 9.95312 22.1366C9.95312 21.1616 9.95312 21.1569 9.83594 21.0444C9.69063 20.8944 9.43281 20.8851 9.29688 21.021Z" fill="white"/>
<path d="M12.9297 21.0446C12.8125 21.1571 12.8125 21.1571 12.8125 22.1462C12.8125 23.1353 12.8125 23.1353 12.9297 23.2478C13.0703 23.3931 13.3187 23.4024 13.4734 23.2759C13.5812 23.1868 13.5859 23.1681 13.6 22.3009C13.6187 21.3212 13.6 21.1524 13.4641 21.0165C13.3328 20.8853 13.0703 20.8993 12.9297 21.0446Z" fill="white"/>
</svg>
