<svg width="24" height="24" viewBox="0 0 24 24" fill="none" xmlns="http://www.w3.org/2000/svg">
<path d="M16.3516 0.712208C14.3078 1.07783 12.6953 2.38096 12.325 3.96533C12.2313 4.35908 12.2266 5.17471 12.3203 5.52627C12.3578 5.67627 12.3906 5.8169 12.3906 5.84033C12.3906 5.86846 10.4125 5.88721 7.09375 5.88721C1.84375 5.88721 1.79688 5.88721 1.53906 5.98565C1.19219 6.1169 0.854688 6.4544 0.723438 6.80127C0.625 7.05908 0.625 7.0919 0.625 13.1997C0.625 19.3075 0.625 19.3403 0.723438 19.5981C0.854688 19.945 1.19219 20.2825 1.53906 20.4138C1.79688 20.5122 1.85781 20.5122 5.82812 20.5122C8.04531 20.5122 9.85938 20.5263 9.85938 20.545C9.85938 20.5685 9.81719 20.7278 9.775 20.9106L9.69063 21.2388L9.08125 21.2622C8.42031 21.2903 8.30781 21.3231 8.04531 21.5997C7.78281 21.8716 7.75 22.0169 7.75 22.9028C7.75 23.6388 7.75938 23.7091 7.84375 23.7935C7.9375 23.8872 7.99844 23.8872 12.25 23.8872C16.5016 23.8872 16.5625 23.8872 16.6562 23.7935C16.7406 23.7091 16.75 23.6388 16.75 22.9028C16.75 22.0169 16.7172 21.8716 16.4547 21.5997C16.1922 21.3231 16.0797 21.2903 15.4188 21.2622L14.8094 21.2388L14.725 20.9106C14.6828 20.7278 14.6406 20.5685 14.6406 20.545C14.6406 20.5263 16.4547 20.5122 18.6719 20.5122C22.6422 20.5122 22.7031 20.5122 22.9609 20.4138C23.3078 20.2825 23.6453 19.945 23.7766 19.5981C23.875 19.3403 23.875 19.3075 23.875 13.2044C23.875 6.47783 23.8938 6.88564 23.5938 6.48252C23.4156 6.24346 23.0922 6.00908 22.8203 5.93408C22.7031 5.90127 22.6094 5.85908 22.6094 5.83565C22.6094 5.8169 22.6422 5.67627 22.6797 5.52627C22.7734 5.17471 22.7688 4.35908 22.675 3.96533C22.3047 2.37627 20.6688 1.05908 18.6297 0.712208C18.0766 0.618458 16.8766 0.618458 16.3516 0.712208ZM18.1094 1.45283C18.8688 1.5044 19.7547 1.80908 20.4203 2.24502C21.4188 2.90127 21.9531 3.77783 21.9531 4.75752C21.9531 5.45127 21.7 6.06533 21.175 6.63252C20.5375 7.32158 19.6422 7.79033 18.5547 8.00127C18.3016 8.05283 18.0578 8.12315 18.0156 8.16065C17.9781 8.19815 17.8516 8.41846 17.7344 8.64815C17.6219 8.88252 17.5141 9.07471 17.5 9.07471C17.4859 9.07471 17.3875 8.90127 17.2891 8.69033C17.0406 8.18877 16.9703 8.09971 16.7594 8.0669C15.4938 7.86065 14.5188 7.38252 13.825 6.63252C13.3047 6.07002 13.0469 5.45127 13.0469 4.7669C13.0469 3.98877 13.3 3.41221 13.9188 2.7794C14.4484 2.24033 15.2313 1.80908 16.0891 1.59346C16.5156 1.48096 17.3125 1.3919 17.6172 1.42002C17.6969 1.42471 17.9172 1.43877 18.1094 1.45283ZM8.125 9.26221V11.8872H7.5625H7V11.6856C7 11.4231 6.88281 11.0294 6.72813 10.7622C6.57812 10.5044 6.24063 10.1388 6.03438 10.0075L5.87969 9.91377L6.01094 9.73096C6.19844 9.47315 6.26406 9.18721 6.24063 8.76065C6.20781 8.1794 5.94063 7.77627 5.425 7.52315C4.68906 7.15752 3.80313 7.43408 3.41406 8.1419C3.16563 8.60596 3.19844 9.32783 3.48906 9.73096L3.62031 9.91377L3.46563 10.0075C3.25938 10.1388 2.92188 10.5044 2.77188 10.7622C2.61719 11.0294 2.5 11.4231 2.5 11.6856V11.8872H1.9375H1.37031L1.38438 9.55283C1.39844 7.32158 1.40313 7.21846 1.49219 7.06377C1.60938 6.8669 1.78281 6.73096 1.98906 6.68408C2.07812 6.66533 3.49375 6.64658 5.13906 6.6419L8.125 6.63721V9.26221ZM13.075 7.00283C13.5859 7.64971 14.4578 8.2544 15.2922 8.53096L15.6016 8.63877L15.6156 10.2606L15.625 11.8872H15.0625H14.5V11.6856C14.5 11.4231 14.3828 11.0294 14.2281 10.7622C14.0781 10.5044 13.7406 10.1388 13.5344 10.0075L13.3797 9.91377L13.5109 9.73096C13.6984 9.47315 13.7641 9.18721 13.7406 8.76065C13.7078 8.1794 13.4406 7.77627 12.925 7.52315C12.1891 7.15752 11.3031 7.43408 10.9141 8.1419C10.6656 8.60596 10.6984 9.32783 10.9891 9.73096L11.1203 9.91377L10.9656 10.0075C10.7594 10.1388 10.4219 10.5044 10.2719 10.7622C10.1172 11.0294 10 11.4231 10 11.6856V11.8872H9.4375H8.875V9.26221V6.63721L10.8344 6.6419L12.7891 6.64658L13.075 7.00283ZM22.7219 6.76846C22.9047 6.87627 23.0266 7.04971 23.0781 7.27471C23.1016 7.37315 23.125 8.45596 23.125 9.67002V11.8872H19.75H16.375V10.3356C16.375 9.28096 16.3891 8.79815 16.4219 8.8169C16.45 8.83565 16.6375 9.18252 16.8438 9.59033C17.0453 9.99346 17.2469 10.3403 17.2891 10.3591C17.3313 10.3731 17.425 10.3872 17.5 10.3872C17.575 10.3872 17.6688 10.3731 17.7109 10.3591C17.7531 10.3403 17.9547 9.99346 18.1562 9.58565C18.3859 9.13096 18.5594 8.84033 18.6109 8.82627C18.6578 8.81221 18.7891 8.78408 18.9062 8.77002C19.4969 8.67627 20.3359 8.32002 20.9594 7.88877C21.2875 7.66377 22.1875 6.77315 22.1875 6.67471C22.1875 6.60908 22.5531 6.67471 22.7219 6.76846ZM5.11563 8.27783C5.725 8.64815 5.4625 9.59033 4.75 9.59033C4.62344 9.59033 4.47813 9.55283 4.38438 9.49658C3.775 9.12627 4.0375 8.18408 4.75 8.18408C4.87656 8.18408 5.02188 8.22158 5.11563 8.27783ZM12.6156 8.27783C13.225 8.64815 12.9625 9.59033 12.25 9.59033C11.8516 9.59033 11.5469 9.28565 11.5469 8.88721C11.5469 8.63408 11.6734 8.40908 11.8844 8.27783C11.9781 8.22158 12.1234 8.18408 12.25 8.18408C12.3766 8.18408 12.5219 8.22158 12.6156 8.27783ZM5.44375 10.5981C5.86094 10.8231 6.1375 11.2169 6.18906 11.6575L6.21719 11.8872H4.75H3.28281L3.31094 11.6575C3.35781 11.2638 3.61094 10.8653 3.93906 10.6638C4.23906 10.4763 4.42656 10.4341 4.82031 10.4481C5.12969 10.4622 5.24219 10.4856 5.44375 10.5981ZM12.9438 10.5981C13.3609 10.8231 13.6375 11.2169 13.6891 11.6575L13.7172 11.8872H12.25H10.7828L10.8109 11.6575C10.8578 11.2638 11.1109 10.8653 11.4391 10.6638C11.7391 10.4763 11.9266 10.4341 12.3203 10.4481C12.6297 10.4622 12.7422 10.4856 12.9438 10.5981ZM8.125 15.2622V17.8872H7.5625H7V17.6856C7 17.4231 6.88281 17.0294 6.72813 16.7622C6.57812 16.5044 6.24063 16.1388 6.03438 16.0075L5.87969 15.9138L6.01094 15.731C6.19844 15.4731 6.26406 15.1872 6.24063 14.7606C6.20781 14.1794 5.94063 13.7763 5.425 13.5231C4.68906 13.1575 3.80313 13.4341 3.41406 14.1419C3.16563 14.606 3.19844 15.3278 3.48906 15.731L3.62031 15.9138L3.46563 16.0075C3.25938 16.1388 2.92188 16.5044 2.77188 16.7622C2.61719 17.0294 2.5 17.4231 2.5 17.6856V17.8872H1.9375H1.375V15.2622V12.6372H4.75H8.125V15.2622ZM15.625 15.2622V17.8872H15.0625H14.5V17.6856C14.5 17.4231 14.3828 17.0294 14.2281 16.7622C14.0781 16.5044 13.7406 16.1388 13.5344 16.0075L13.3797 15.9138L13.5109 15.731C13.6984 15.4731 13.7641 15.1872 13.7406 14.7606C13.7078 14.1794 13.4406 13.7763 12.925 13.5231C12.1891 13.1575 11.3031 13.4341 10.9141 14.1419C10.6656 14.606 10.6984 15.3278 10.9891 15.731L11.1203 15.9138L10.9656 16.0075C10.7594 16.1388 10.4219 16.5044 10.2719 16.7622C10.1172 17.0294 10 17.4231 10 17.6856V17.8872H9.4375H8.875V15.2622V12.6372H12.25H15.625V15.2622ZM23.125 15.2622V17.8872H22.5625H22V17.6856C22 17.4231 21.8828 17.0294 21.7281 16.7622C21.5781 16.5044 21.2406 16.1388 21.0344 16.0075L20.8797 15.9138L21.0109 15.731C21.1984 15.4731 21.2641 15.1872 21.2406 14.7606C21.2078 14.1794 20.9406 13.7763 20.425 13.5231C19.6891 13.1575 18.8031 13.4341 18.4141 14.1419C18.1656 14.606 18.1984 15.3278 18.4891 15.731L18.6203 15.9138L18.4656 16.0075C18.2594 16.1388 17.9219 16.5044 17.7719 16.7622C17.6172 17.0294 17.5 17.4231 17.5 17.6856V17.8872H16.9375H16.375V15.2622V12.6372H19.75H23.125V15.2622ZM5.11563 14.2778C5.725 14.6481 5.4625 15.5903 4.75 15.5903C4.0375 15.5903 3.775 14.6481 4.38438 14.2778C4.58594 14.156 4.91406 14.156 5.11563 14.2778ZM12.6156 14.2778C13.225 14.6481 12.9625 15.5903 12.25 15.5903C11.8516 15.5903 11.5469 15.2856 11.5469 14.8872C11.5469 14.3435 12.1516 13.9966 12.6156 14.2778ZM20.1156 14.2778C20.725 14.6481 20.4625 15.5903 19.75 15.5903C19.0375 15.5903 18.775 14.6481 19.3844 14.2778C19.5859 14.156 19.9141 14.156 20.1156 14.2778ZM5.44375 16.5981C5.86094 16.8231 6.1375 17.2169 6.18906 17.6575L6.21719 17.8872H4.75H3.28281L3.31094 17.6575C3.35781 17.2638 3.61094 16.8653 3.93906 16.6638C4.23906 16.4763 4.42656 16.4341 4.82031 16.4481C5.12969 16.4622 5.24219 16.4856 5.44375 16.5981ZM12.9438 16.5981C13.3609 16.8231 13.6375 17.2169 13.6891 17.6575L13.7172 17.8872H12.25H10.7828L10.8109 17.6575C10.8578 17.2638 11.1109 16.8653 11.4391 16.6638C11.7391 16.4763 11.9266 16.4341 12.3203 16.4481C12.6297 16.4622 12.7422 16.4856 12.9438 16.5981ZM20.4438 16.5981C20.8609 16.8231 21.1375 17.2169 21.1891 17.6575L21.2172 17.8872H19.75H18.2828L18.3109 17.6575C18.3578 17.2638 18.6109 16.8653 18.9391 16.6638C19.2391 16.4763 19.4266 16.4341 19.8203 16.4481C20.1297 16.4622 20.2422 16.4856 20.4438 16.5981ZM23.1063 18.9278C23.0594 19.3825 22.8672 19.631 22.4875 19.7153C22.2438 19.7763 2.25625 19.7763 2.0125 19.7153C1.63281 19.631 1.44063 19.3825 1.39375 18.9278L1.36094 18.6372H12.25H23.1391L23.1063 18.9278ZM13.9 20.8638C13.9422 21.0419 13.9844 21.206 13.9844 21.2247C13.9844 21.2481 13.2063 21.2622 12.25 21.2622C11.2984 21.2622 10.5156 21.2481 10.5156 21.2341C10.5156 21.2013 10.6516 20.6575 10.6797 20.5685C10.6984 20.5216 11.0359 20.5122 12.2594 20.5216L13.8156 20.5356L13.9 20.8638ZM15.7375 22.0778C15.9344 22.1622 16 22.3356 16 22.7903V23.1372H12.25H8.5V22.7903C8.5 22.345 8.56563 22.1622 8.75313 22.0778C8.97344 21.9841 15.5078 21.9841 15.7375 22.0778Z" fill="white"/>
<path d="M14.875 4.76221V5.13721H15.25H15.625V4.76221V4.38721H15.25H14.875V4.76221Z" fill="white"/>
<path d="M16.375 4.76221V5.13721H16.75H17.125V4.76221V4.38721H16.75H16.375V4.76221Z" fill="white"/>
<path d="M17.875 4.76221V5.13721H18.25H18.625V4.76221V4.38721H18.25H17.875V4.76221Z" fill="white"/>
<path d="M19.375 4.76221V5.13721H19.75H20.125V4.76221V4.38721H19.75H19.375V4.76221Z" fill="white"/>
</svg>
