<svg width="25" height="25" viewBox="0 0 25 25" fill="none" xmlns="http://www.w3.org/2000/svg">
<path d="M5.52656 0.632227C4.64531 0.894728 4.00312 1.55098 3.77812 2.42754C3.675 2.83535 3.67031 5.24941 3.77344 5.64785C3.87187 6.02754 4.08281 6.4166 4.33594 6.70254L4.55625 6.94629L4.52344 7.2791C4.47187 7.77598 4.45312 7.81816 4.11562 8.10879C3.84375 8.34316 3.67031 8.43691 2.77969 8.82129C1.66406 9.3041 1.41562 9.46816 1.11094 9.89942C1.01719 10.04 0.895312 10.2885 0.84375 10.4525C0.754687 10.7385 0.75 10.8932 0.75 13.3775C0.75 14.9994 0.76875 16.0307 0.796875 16.0869C0.820312 16.1338 0.909375 16.1947 0.989062 16.2229C1.18125 16.2885 1.43906 16.1854 1.47656 16.0307C1.48594 15.9697 1.50469 14.7838 1.50937 13.3916L1.52344 10.8604L1.68281 10.5369C1.79531 10.3072 1.89375 10.1807 2.03437 10.0775C2.2125 9.95566 3.66562 9.29004 3.75937 9.29004C3.77812 9.29004 3.94219 9.7541 4.125 10.3213C4.47656 11.4182 4.49531 11.4463 4.79531 11.4463C4.92656 11.4463 5.06719 11.3666 5.50312 11.0479L6.04687 10.6494V11.4463V12.2432L5.86406 12.3322C5.62969 12.4541 5.31094 12.8197 5.25 13.0354C5.2125 13.1713 4.59375 16.64 4.59375 16.7197C4.59375 16.7338 4.12969 16.7432 3.55781 16.7432H2.52187L2.38594 16.8791C2.31094 16.9541 2.25 17.0572 2.25 17.1088C2.25 17.3291 2.54531 18.4213 2.64844 18.576C2.71406 18.6791 2.85 18.7916 2.98594 18.8572L3.21094 18.9697H7.54687C11.5641 18.9697 11.8969 18.965 12.0609 18.89C12.3469 18.7588 12.5812 18.5479 12.7172 18.2994C12.8437 18.065 12.8672 17.9479 13.6453 13.5041C13.7156 13.1057 13.6687 12.815 13.5047 12.5854C13.3125 12.3182 13.0875 12.2244 12.6 12.2057L12.1875 12.1869V11.5963C12.1875 10.6354 12.0281 10.1244 11.5922 9.66035C11.3016 9.35098 11.1937 9.29004 10.0734 8.79785C9.23906 8.43223 9.05625 8.33848 8.775 8.09473L8.44687 7.81816L8.39062 7.38223L8.32969 6.95098L8.56875 6.68848C8.70469 6.54317 8.87344 6.29473 8.94844 6.13535C9.1875 5.61973 9.21094 5.4416 9.21094 4.0166C9.21094 2.77442 9.20625 2.68535 9.10312 2.35254C9.04219 2.16035 8.92969 1.89317 8.85469 1.75723C8.54531 1.21816 7.92187 0.763477 7.26094 0.599415C6.79687 0.486916 5.97656 0.500978 5.52656 0.632227ZM7.125 1.40098C7.63594 1.53691 8.01562 1.86035 8.23125 2.32442C8.34844 2.58692 8.47969 3.2666 8.41875 3.32285C8.4 3.34629 8.14687 3.36035 7.86094 3.36035C7.35469 3.36035 7.32656 3.35567 7.04062 3.20098C6.71719 3.02754 6.54375 2.84941 6.34687 2.50723C6.15 2.16504 6.09844 2.11817 5.90625 2.11817C5.69531 2.11817 5.61094 2.1791 5.47031 2.4416C5.325 2.72285 5.08594 2.90566 4.82812 2.93848C4.50937 2.98067 4.47656 2.93379 4.57031 2.60567C4.66406 2.27754 4.90312 1.89317 5.11875 1.72441C5.64375 1.32598 6.40781 1.2041 7.125 1.40098ZM6.78281 3.98379L7.14844 4.15723H7.79062H8.4375V4.55567C8.4375 5.44629 8.28281 5.85879 7.75781 6.36035C7.57031 6.54317 7.30312 6.7541 7.1625 6.8291C6.9375 6.95566 6.87187 6.96973 6.46875 6.96973C5.93437 6.96973 5.75156 6.89942 5.30156 6.51035C4.62656 5.93379 4.5 5.61504 4.5 4.50879V3.77285L4.86562 3.74942C5.25 3.72598 5.60625 3.58535 5.78437 3.38848L5.87344 3.29004L6.14531 3.54785C6.31406 3.71192 6.55312 3.87129 6.78281 3.98379ZM5.67187 7.67754C6.04687 7.80879 6.9 7.79941 7.28906 7.66348C7.59375 7.55567 7.64062 7.56973 7.64062 7.79004C7.64062 7.87441 7.47187 8.09941 7.04531 8.58223L6.44531 9.25254L6.32812 9.11191C6.2625 9.03691 5.99062 8.72754 5.72812 8.42754C5.24531 7.88848 5.24062 7.88379 5.27344 7.69629C5.29687 7.56035 5.32031 7.51816 5.35781 7.54629C5.39062 7.56973 5.53125 7.63066 5.67187 7.67754ZM5.81719 9.80098C5.775 9.87129 4.99219 10.415 4.98281 10.3822C4.97344 10.3588 4.86094 10.0072 4.73437 9.59473L4.49531 8.84473L4.64531 8.71816L4.79062 8.59629L5.31562 9.18223C5.60156 9.50566 5.82656 9.78223 5.81719 9.80098ZM8.29219 8.74629L8.4 8.85879L8.15156 9.63223L7.90781 10.4104L7.63125 10.2135C7.47656 10.1057 7.28437 9.96035 7.20469 9.89473L7.05937 9.77285L7.56562 9.20098C7.84687 8.8916 8.1 8.63379 8.12812 8.63379C8.16094 8.63379 8.23594 8.68535 8.29219 8.74629ZM10.9219 10.1244C11.0203 10.2088 11.1609 10.3963 11.2359 10.5463C11.3578 10.7947 11.3672 10.8604 11.3859 11.5025L11.4 12.1963H9.12187H6.84375V11.4182V10.64L6.99844 10.7525C7.75312 11.315 7.95937 11.4463 8.11406 11.4463C8.40469 11.4463 8.4375 11.39 8.78906 10.2885L9.1125 9.25723L9.92812 9.61348C10.3969 9.81504 10.8187 10.0354 10.9219 10.1244ZM12.8437 13.0635C12.9187 13.1525 12.1266 17.7369 12.0047 17.915C11.9578 17.9807 11.85 18.0697 11.7609 18.1119C11.6156 18.1916 11.3625 18.1963 8.50781 18.1963C5.77969 18.1963 5.4 18.1869 5.30625 18.1213C5.25 18.0838 5.20312 18.0088 5.20312 17.9525C5.20312 17.7744 6 13.3166 6.04687 13.2275C6.17812 12.9838 6.06094 12.9932 9.54375 12.9932C12.3187 12.9932 12.7922 13.0025 12.8437 13.0635ZM4.43437 17.615C4.42031 17.6572 4.40625 17.8025 4.40625 17.9432V18.1963H3.89531C3.54375 18.1963 3.37031 18.1775 3.3375 18.1354C3.30937 18.1072 3.25781 17.9572 3.22031 17.8072L3.15 17.54H3.80625C4.3875 17.54 4.45781 17.5494 4.43437 17.615Z" fill="white"/>
<path d="M9.09375 15.29C9.03281 15.351 9 15.4447 9 15.5713C9 15.815 9.12656 15.9463 9.35625 15.9463C9.57656 15.9463 9.68437 15.8854 9.74062 15.7119C9.80156 15.5432 9.73594 15.3088 9.60937 15.2432C9.45937 15.1635 9.19687 15.1869 9.09375 15.29Z" fill="white"/>
<path d="M14.4984 0.623044C14.2593 0.740232 14.0812 0.937107 13.9546 1.22773C13.8749 1.39648 13.8515 1.57929 13.8327 2.16523L13.8046 2.89179L12.8718 3.36523C12.2859 3.66054 11.8874 3.89492 11.8077 3.98398C11.5265 4.29336 11.5312 4.82773 11.8124 5.09492C11.8874 5.16523 12.3655 5.4418 12.8765 5.7043L13.8046 6.18242L13.8327 6.83398C13.8609 7.41055 13.8796 7.51836 13.9827 7.7293C14.1327 8.01992 14.4234 8.27773 14.6859 8.34805C14.8312 8.39023 16.0874 8.39961 19.4062 8.39023L23.9296 8.37617L24.1171 8.27305C24.3609 8.1418 24.5343 7.9543 24.6515 7.69648C24.7452 7.49023 24.7499 7.40586 24.7499 4.43867C24.7499 1.03086 24.764 1.19961 24.4124 0.843357C24.0655 0.50117 24.4359 0.524607 19.303 0.524607C14.714 0.524607 14.6952 0.524607 14.4984 0.623044ZM23.6905 1.32148C23.7562 1.34492 23.8452 1.41992 23.8921 1.49492C23.9718 1.61211 23.9765 1.81367 23.9905 4.29805C23.9999 5.76523 23.9905 7.06367 23.9765 7.17617C23.9577 7.29805 23.9015 7.42461 23.8359 7.49023L23.7234 7.60273H19.3265C14.4374 7.60273 14.7702 7.62617 14.6718 7.28398C14.6484 7.19023 14.6249 6.81055 14.6249 6.44023C14.6249 5.8543 14.6155 5.76523 14.5359 5.68555C14.489 5.63867 13.9827 5.36211 13.4109 5.07148L12.3749 4.5418L12.7593 4.33086C12.9749 4.21836 13.4577 3.96992 13.8374 3.77773C14.2124 3.59023 14.5405 3.40742 14.564 3.37461C14.5827 3.34179 14.6109 2.91992 14.6249 2.44179C14.6484 1.64961 14.6577 1.55586 14.7421 1.46211C14.7937 1.40586 14.878 1.34023 14.9296 1.31679C15.0655 1.26523 23.5452 1.26523 23.6905 1.32148Z" fill="white"/>
<path d="M16.3125 2.4935C16.125 2.681 16.1531 2.981 16.3735 3.12631C16.4719 3.19193 16.8188 3.19662 19.4485 3.18725L22.4156 3.17318L22.5047 3.06068C22.6313 2.906 22.6219 2.65756 22.4766 2.51693L22.3641 2.39975H19.3828C16.4813 2.39975 16.4063 2.39975 16.3125 2.4935Z" fill="white"/>
<path d="M16.3311 4.15254C16.153 4.30254 16.139 4.61191 16.3077 4.74785C16.4108 4.83223 16.5421 4.83691 19.4061 4.83691H22.4015L22.4952 4.71504C22.6171 4.56035 22.6218 4.32129 22.5046 4.17598L22.4155 4.06348L19.439 4.04941L16.4624 4.04004L16.3311 4.15254Z" fill="white"/>
<path d="M16.3077 5.8166C16.1577 5.93848 16.1531 6.24785 16.3031 6.39316L16.4109 6.50098H18.2624H20.1187L20.2077 6.38848C20.3296 6.23848 20.3249 5.94316 20.2031 5.82129C20.114 5.73223 20.0484 5.72754 18.2624 5.72754C16.5234 5.72754 16.4109 5.73223 16.3077 5.8166Z" fill="white"/>
<path d="M17.7891 9.70746C17.386 9.77308 17.1422 9.85746 16.7719 10.0496C15.9516 10.4762 15.4594 11.2121 15.3235 12.234C15.2438 12.834 15.2953 15.0934 15.3985 15.4543C15.5157 15.8668 15.736 16.2559 16.0453 16.584L16.3172 16.8746L16.2469 17.5684C16.2094 17.9481 16.1578 18.2715 16.1391 18.2903C16.1203 18.309 15.4688 18.5809 14.6953 18.895C13.9219 19.209 13.1766 19.5325 13.036 19.6168C12.5297 19.9215 12.1078 20.559 12.0047 21.1825C11.9672 21.3887 11.9532 22.0028 11.9625 22.9121C11.9766 24.2293 11.9813 24.3325 12.0657 24.4262C12.1922 24.5668 12.511 24.5621 12.6469 24.4168C12.75 24.309 12.75 24.2809 12.75 22.9028C12.75 21.3418 12.7828 21.1028 13.036 20.7278C13.1157 20.6106 13.2703 20.4512 13.3735 20.3668C13.5844 20.2075 16.5094 18.9934 16.9735 18.8762C17.7047 18.684 18.6891 18.6981 19.5469 18.9043C20.011 19.0215 22.95 20.1184 23.2313 20.2825C23.461 20.4184 23.6813 20.6575 23.8125 20.9153C23.9578 21.2059 24 21.6371 24 23.034C24 24.2762 24.0047 24.3418 24.0938 24.4309C24.2203 24.5575 24.5297 24.5575 24.661 24.4262C24.7547 24.3325 24.7547 24.295 24.7407 22.659C24.7266 21.0043 24.7266 20.9809 24.6141 20.7278C24.3891 20.2262 24.0375 19.8043 23.6485 19.5746C23.5407 19.5137 22.8141 19.2231 22.0313 18.9278C20.986 18.5387 20.6016 18.37 20.5782 18.309C20.5594 18.2575 20.5219 17.92 20.4891 17.5543L20.4282 16.884L20.6953 16.5934C20.8407 16.4293 21.0328 16.1528 21.1219 15.97C21.4032 15.3887 21.4219 15.2434 21.4219 13.6215C21.4219 12.3231 21.4125 12.1262 21.3282 11.8028C21.1969 11.2871 20.986 10.9121 20.6016 10.5278C20.2453 10.1668 19.8 9.9137 19.2891 9.78246C18.9563 9.69339 18.1219 9.65589 17.7891 9.70746ZM18.9469 10.5278C19.7813 10.7059 20.3485 11.2356 20.5594 12.0325C20.6063 12.2012 20.625 12.6418 20.625 13.6496C20.625 14.9903 20.6203 15.0418 20.5125 15.3512C20.3813 15.7215 20.0907 16.1246 19.8188 16.3215L19.6266 16.4621H18.3891C16.9922 16.4621 17.025 16.4715 16.6782 16.0965C16.1766 15.5621 16.0782 15.1637 16.0782 13.6496C16.0782 12.4028 16.1203 12.0653 16.3125 11.6481C16.7297 10.7481 17.8125 10.2887 18.9469 10.5278ZM19.6313 17.3387C19.6547 17.3856 19.6922 17.5778 19.7063 17.77L19.7391 18.1168L19.6078 18.0887C19.0782 17.9856 18.6235 17.9528 17.9391 17.9715C17.5219 17.9856 17.1375 18.0137 17.0907 18.0325C17.0063 18.07 17.0016 18.0559 17.0297 17.7325C17.0438 17.545 17.0813 17.3621 17.1141 17.3246C17.1563 17.2731 17.3907 17.259 18.3797 17.259C19.486 17.259 19.5938 17.2684 19.6313 17.3387Z" fill="white"/>
<path d="M3.06084 13.0589L2.92959 13.1714L2.91553 14.4792C2.89678 15.9698 2.91553 16.1057 3.16396 16.2089C3.34678 16.2839 3.58115 16.2276 3.65615 16.087C3.68428 16.0354 3.70303 15.412 3.70303 14.5682V13.1385L3.58115 13.0448C3.41709 12.9135 3.22021 12.9229 3.06084 13.0589Z" fill="white"/>
</svg>
