<svg width="24" height="24" viewBox="0 0 24 24" fill="none" xmlns="http://www.w3.org/2000/svg">
<path d="M5.80469 0.754882C4.92344 0.914257 4.02813 1.27988 3.30625 1.77207C2.84688 2.08613 2.07812 2.85488 1.76875 3.30957C1.02344 4.39707 0.671875 5.54082 0.671875 6.87207C0.671875 8.58301 1.2625 10.0361 2.45313 11.2361C2.99219 11.7752 3.43281 12.0939 4.11719 12.4314C5.02188 12.8814 5.8 13.0596 6.85938 13.0596C7.91875 13.0596 8.69688 12.8814 9.60156 12.4314C10.2719 12.1033 10.7219 11.7799 11.2469 11.2596C11.7672 10.7346 12.0906 10.2846 12.4188 9.61426C12.8688 8.70957 13.0469 7.93145 13.0469 6.87207C13.0469 5.8127 12.8688 5.03457 12.4188 4.12988C12.0813 3.44551 11.7625 3.00488 11.2234 2.46582C10.3 1.55176 9.18906 0.975195 7.94219 0.75957C7.4125 0.670507 6.28281 0.66582 5.80469 0.754882ZM7.42188 1.40644C8.20938 1.4627 9.29219 1.86113 9.99531 2.35801C10.4266 2.66269 10.9469 3.17363 11.2797 3.61426C11.6359 4.09238 12.0297 4.89863 12.1891 5.49395C12.3063 5.92051 12.3156 6.02832 12.3156 6.87207C12.3156 7.71582 12.3063 7.82363 12.1891 8.24551C11.7672 9.81113 10.6797 11.1189 9.22188 11.8268C7.08906 12.8533 4.53906 12.3846 2.89375 10.6643C2.71563 10.4721 2.46719 10.1768 2.34531 10.008C2.03594 9.57207 1.675 8.79395 1.52969 8.24551C1.4125 7.82363 1.40313 7.71582 1.40313 6.87207C1.40313 6.02832 1.4125 5.92051 1.52969 5.49395C1.7875 4.54238 2.35469 3.59082 3.06719 2.90644C3.98594 2.02988 5.16719 1.49082 6.39062 1.39238C6.63438 1.37363 6.8875 1.36426 6.95313 1.36895C7.01875 1.37832 7.22969 1.39238 7.42188 1.40644Z" fill="white"/>
<path d="M6.00151 1.97368C4.04683 2.34399 2.5562 3.72681 2.04526 5.64399C1.93276 6.04712 1.9187 6.18774 1.9187 6.87212C1.9187 7.56118 1.93276 7.69712 2.04526 8.11431C2.5187 9.86743 3.86401 11.2127 5.61714 11.6862C6.03433 11.7987 6.17026 11.8127 6.85933 11.8127C7.54839 11.8127 7.68433 11.7987 8.10151 11.6862C9.85464 11.2127 11.2 9.86743 11.6734 8.11431C11.7859 7.69712 11.8 7.56118 11.8 6.87212C11.8 6.18306 11.7859 6.04712 11.6734 5.62993C11.2 3.87681 9.8312 2.50806 8.10151 2.06274C7.5062 1.90806 6.55464 1.87056 6.00151 1.97368ZM7.91401 2.74243C8.73433 2.95806 9.58745 3.50181 10.1406 4.16274C10.4781 4.57524 10.8578 5.30181 10.9937 5.81743C11.139 6.35649 11.1343 7.39243 10.9937 7.92681C10.8484 8.44712 10.4734 9.17368 10.1406 9.58149C9.58745 10.2424 8.75776 10.7721 7.91401 11.0065C7.37964 11.1518 6.3437 11.1518 5.80464 11.0065C5.28901 10.8659 4.56245 10.4909 4.14995 10.1534C3.4937 9.60493 2.94995 8.76118 2.72495 7.92681C2.57964 7.38774 2.57964 6.35649 2.72495 5.81743C3.15151 4.24712 4.41714 3.04243 6.01558 2.69556C6.53589 2.57837 7.37495 2.60181 7.91401 2.74243Z" fill="white"/>
<path d="M6.61094 3.06592C6.55469 3.12686 6.53125 3.23936 6.53125 3.43623C6.53125 3.75967 6.625 3.88623 6.85938 3.88623C7.09844 3.88623 7.1875 3.75967 7.1875 3.42686C7.1875 3.20654 7.16875 3.11748 7.10313 3.06123C6.98594 2.95342 6.70469 2.95811 6.61094 3.06592Z" fill="white"/>
<path d="M4.10309 4.12061C3.94371 4.28936 3.96715 4.47686 4.17809 4.68311C4.48278 4.97842 4.84371 4.89405 4.84371 4.52373C4.84371 4.39717 4.80621 4.32217 4.66559 4.18623C4.45465 3.97998 4.25778 3.95655 4.10309 4.12061Z" fill="white"/>
<path d="M9.04834 4.19082C8.75302 4.49551 8.8374 4.85645 9.20771 4.85645C9.33427 4.85645 9.40927 4.81895 9.54521 4.67832C9.75146 4.46738 9.7749 4.27051 9.61084 4.11582C9.44209 3.95645 9.25459 3.97988 9.04834 4.19082Z" fill="white"/>
<path d="M6.61092 4.6127C6.54061 4.6877 6.53123 4.82363 6.53123 5.50801C6.53123 6.3002 6.52655 6.32363 6.41405 6.45488C6.26405 6.6377 6.22186 6.87676 6.30155 7.09238C6.39998 7.34551 6.57811 7.45801 6.90155 7.4627C7.13592 7.4627 7.2203 7.49551 7.5953 7.70645C7.82967 7.84238 8.05936 7.9502 8.11092 7.9502C8.26561 7.9502 8.45311 7.77207 8.45311 7.62207C8.45311 7.39238 8.41092 7.34551 7.9328 7.07832C7.54842 6.8627 7.46405 6.79238 7.42186 6.66113C7.39373 6.57676 7.32811 6.46895 7.28123 6.42676C7.19686 6.34707 7.18748 6.27676 7.18748 5.5127C7.18748 4.76738 7.17811 4.67363 7.10311 4.60801C6.98592 4.5002 6.70467 4.50488 6.61092 4.6127Z" fill="white"/>
<path d="M3.04852 6.62832C2.94071 6.74551 2.9454 7.02676 3.05321 7.12051C3.11415 7.17676 3.22665 7.2002 3.42352 7.2002C3.74696 7.2002 3.87352 7.10645 3.87352 6.87207C3.87352 6.63301 3.74696 6.54395 3.41415 6.54395C3.19384 6.54395 3.10477 6.5627 3.04852 6.62832Z" fill="white"/>
<path d="M9.92959 6.6377C9.88271 6.68926 9.84521 6.79707 9.84521 6.87207C9.84521 7.11113 9.97178 7.2002 10.3046 7.2002C10.6468 7.2002 10.7499 7.12051 10.7499 6.8627C10.7499 6.62363 10.6374 6.54395 10.2952 6.54395C10.0749 6.54395 9.99521 6.5627 9.92959 6.6377Z" fill="white"/>
<path d="M4.17344 9.06586C3.96719 9.27679 3.94376 9.47367 4.10782 9.62836C4.27657 9.78773 4.46407 9.76429 4.67032 9.55336C4.96563 9.24867 4.88126 8.88773 4.51094 8.88773C4.38438 8.88773 4.30938 8.92523 4.17344 9.06586Z" fill="white"/>
<path d="M8.95476 8.97207C8.81413 9.12675 8.85163 9.36113 9.05319 9.558C9.26413 9.76425 9.46101 9.78769 9.61569 9.62363C9.77507 9.45488 9.75163 9.26738 9.54069 9.06113C9.33444 8.85957 9.08601 8.82207 8.95476 8.97207Z" fill="white"/>
<path d="M6.76563 9.85801C6.58281 9.92363 6.53125 10.0268 6.53125 10.3174C6.53125 10.6596 6.61094 10.7627 6.86875 10.7627C7.10781 10.7627 7.1875 10.6502 7.1875 10.308C7.1875 10.0971 7.16875 10.008 7.10781 9.95645C7.00469 9.86738 6.85938 9.8252 6.76563 9.85801Z" fill="white"/>
<path d="M14.0406 4.91738C13.9046 5.0627 13.9046 5.27832 14.0453 5.40957C14.1484 5.50801 14.1859 5.50801 16 5.52207C17.8187 5.53613 17.8562 5.53613 18.0859 5.64395C18.3906 5.78457 18.7328 6.12207 18.8687 6.42207C18.9718 6.65176 18.9765 6.72207 18.9906 7.9502C19 8.70957 18.9859 9.22051 18.9625 9.19238C18.939 9.16426 18.7703 8.95801 18.5828 8.73301C18.3953 8.50332 18.189 8.29707 18.1234 8.27363C17.8796 8.18457 17.589 8.46582 17.6828 8.70957C17.7203 8.8127 18.7703 10.1205 19.0609 10.4205C19.164 10.533 19.2484 10.5752 19.3562 10.5752C19.525 10.5752 19.5578 10.5424 20.4953 9.40332C20.9406 8.85957 21.0156 8.74707 21.0156 8.60176C21.0156 8.35332 20.7953 8.19395 20.575 8.27832C20.514 8.30176 20.289 8.52207 20.0828 8.77051L19.7031 9.22051V8.02988C19.7031 7.37363 19.6796 6.72676 19.6562 6.58613C19.5015 5.76582 18.8593 5.09551 18.0296 4.87988C17.814 4.82363 17.4062 4.80957 15.9531 4.80957H14.139L14.0406 4.91738Z" fill="white"/>
<path d="M16.5391 11.5409C15.7141 11.6862 14.8047 12.0612 14.0781 12.5628C13.6281 12.8722 12.8594 13.6409 12.55 14.0909C11.8047 15.1784 11.4531 16.3222 11.4531 17.6534C11.4531 18.9847 11.8047 20.1284 12.55 21.2159C12.8594 21.6706 13.6281 22.4394 14.0875 22.7534C14.6406 23.1331 15.4375 23.494 16.0797 23.6628C16.8109 23.8503 17.9219 23.8972 18.6766 23.7706C19.9516 23.5597 21.0719 22.9831 22.0047 22.0597C22.5438 21.5206 22.8625 21.08 23.2 20.3956C23.65 19.4909 23.8281 18.7128 23.8281 17.6534C23.8281 16.594 23.65 15.8159 23.2 14.9112C22.8625 14.2269 22.5438 13.7862 22.0047 13.2472C21.0813 12.3331 19.9703 11.7565 18.7234 11.5409C18.175 11.4472 17.0641 11.4472 16.5391 11.5409ZM18.2031 12.1878C18.9906 12.244 20.0734 12.6425 20.7766 13.1394C21.2078 13.444 21.7281 13.955 22.0609 14.3956C22.4172 14.8737 22.8109 15.68 22.9703 16.2753C23.0875 16.7019 23.0969 16.8097 23.0969 17.6534C23.0969 18.4972 23.0875 18.605 22.9703 19.0269C22.825 19.5753 22.4641 20.3534 22.1547 20.7894C20.5891 23.0019 17.6875 23.7706 15.2781 22.6081C14.4297 22.1956 13.6656 21.5534 13.1266 20.7894C12.8172 20.3534 12.4563 19.5753 12.3109 19.0269C12.1938 18.605 12.1844 18.4972 12.1844 17.6534C12.1844 16.8097 12.1938 16.7019 12.3109 16.2753C12.5688 15.3237 13.1359 14.3722 13.8484 13.6878C14.7672 12.8112 15.9484 12.2722 17.1719 12.1737C17.4156 12.155 17.6688 12.1456 17.7344 12.1503C17.8 12.1597 18.0109 12.1737 18.2031 12.1878Z" fill="white"/>
<path d="M17.2844 13.4346C16.7781 13.5424 16.3 13.9221 16.0656 14.4002C15.9484 14.6439 15.9344 14.7283 15.9297 15.1221C15.9297 15.5158 15.9438 15.6002 16.0656 15.858C16.225 16.2049 16.5906 16.5752 16.9234 16.7252C17.1109 16.8096 17.2328 16.8283 17.6406 16.833C18.0719 16.833 18.1609 16.8189 18.3672 16.7205C18.7141 16.5471 19.0609 16.2002 19.2156 15.858C19.3375 15.6002 19.3516 15.5158 19.3516 15.1221C19.3469 14.7377 19.3328 14.6439 19.2203 14.4189C19.0281 14.0158 18.8031 13.7861 18.4234 13.5986C18.0531 13.4205 17.6359 13.3596 17.2844 13.4346ZM18.1047 14.2314C18.8266 14.5971 18.8453 15.6096 18.1422 16.0127C17.1859 16.5611 16.1688 15.408 16.8297 14.5221C17.1297 14.1189 17.65 13.9971 18.1047 14.2314Z" fill="white"/>
<path d="M17.1813 16.9971C15.5734 17.2174 14.3125 18.6236 14.3125 20.1986C14.3125 20.8127 14.5563 21.1642 15.1797 21.4549C16.6891 22.1627 19.6469 21.9939 20.5844 21.1455C20.8703 20.8877 20.9688 20.6486 20.9688 20.1986C20.9688 19.2799 20.4953 18.3049 19.7594 17.7189C19.45 17.4705 18.8547 17.1705 18.4844 17.0721C18.1328 16.983 17.5375 16.9502 17.1813 16.9971ZM18.4141 17.7986C19.45 18.1174 20.2609 19.1674 20.2656 20.1892C20.2656 20.4377 20.2563 20.4658 20.0828 20.6205C19.8672 20.8127 19.5109 20.958 18.9062 21.0892C18.2734 21.2252 17.0078 21.2252 16.375 21.0892C15.7703 20.958 15.4141 20.8127 15.1984 20.6205C15.025 20.4658 15.0156 20.4377 15.0156 20.1892C15.0156 19.4205 15.5078 18.5674 16.2063 18.1174C16.8859 17.6767 17.6547 17.5642 18.4141 17.7986Z" fill="white"/>
<path d="M4.75938 14.2174C4.62813 14.3674 4.29063 14.7752 4.00469 15.1221C3.55938 15.6658 3.48438 15.7783 3.48438 15.9236C3.48438 16.1721 3.70469 16.3314 3.925 16.2471C3.98594 16.2236 4.21094 16.0033 4.41719 15.7549L4.79688 15.3049V16.5236C4.79688 17.8174 4.825 18.0799 5.01719 18.4877C5.15781 18.7877 5.57969 19.2564 5.86094 19.4205C6.34844 19.7018 6.45625 19.7158 8.52344 19.7158H10.4172L10.4875 19.6127C10.5953 19.4627 10.5813 19.233 10.4641 19.1252C10.3703 19.0408 10.2484 19.0361 8.48125 19.0127C6.81719 18.9939 6.58281 18.9799 6.41875 18.9049C6.11406 18.7689 5.85625 18.5205 5.68281 18.2064L5.52344 17.9111L5.50938 16.5986C5.5 15.8158 5.50938 15.3049 5.5375 15.333C5.56094 15.3564 5.72969 15.5674 5.91719 15.7924C6.10469 16.0221 6.31094 16.2283 6.37656 16.2518C6.62031 16.3408 6.91094 16.0596 6.81719 15.8158C6.77969 15.7127 5.72969 14.4049 5.43906 14.1002C5.20938 13.8611 5.04531 13.8893 4.75938 14.2174Z" fill="white"/>
</svg>
