<svg width="23" height="25" viewBox="0 0 23 25" fill="none" xmlns="http://www.w3.org/2000/svg">
<path d="M10.9156 0.351463C10.2078 0.557714 9.47188 1.11084 9.11094 1.72021C8.81563 2.22178 8.68906 2.68115 8.68906 3.28584C8.68438 4.11084 8.91406 4.73428 9.42969 5.34834L9.69219 5.65303H9.32188C8.8625 5.65303 8.31406 5.78896 7.95781 5.99053C7.57813 6.20615 7.11875 6.68896 6.93125 7.07334C6.66406 7.62646 6.64062 7.80928 6.64062 9.47334C6.64062 11.1937 6.65469 11.2546 7.02031 11.4983L7.22188 11.6296L9.29844 11.6437L11.375 11.6577V12.4968V13.3405H7.94375C5.68906 13.3405 4.44688 13.3593 4.32969 13.3921C4.1 13.453 3.8375 13.6874 3.72969 13.9265C3.65469 14.0858 3.64062 14.2405 3.64062 14.9437V15.778H2.64219H1.64375L1.39062 15.928C1.19375 16.0499 1.10469 16.139 1.00625 16.3358L0.875 16.5843V20.0202V23.4562L1.00625 23.7046C1.10469 23.9015 1.19375 23.9905 1.39062 24.1077L1.64375 24.2624H2.95625H4.26875L5.67031 22.8655C6.43906 22.1015 7.1 21.4171 7.1375 21.3468C7.19375 21.2437 7.20313 20.8405 7.20313 19.0405C7.20313 17.6437 7.18438 16.7765 7.15156 16.6218C7.08594 16.3218 6.86563 16.0265 6.59844 15.8858C6.40156 15.7827 6.35 15.778 5.38906 15.778H4.39063V15.014C4.39063 14.3296 4.4 14.2358 4.475 14.1702C4.55469 14.0952 4.86406 14.0905 7.96719 14.0905H11.375V14.9296V15.7733L10.3297 15.7874L9.27969 15.8015L9.0875 15.9327C8.97969 16.003 8.83438 16.1483 8.76406 16.2562L8.63281 16.453V20.0202V23.5874L8.76406 23.7843C8.83438 23.8921 8.97969 24.0374 9.0875 24.1077L9.27969 24.239L10.6438 24.253L12.0031 24.2671L13.4469 22.8233L14.8953 21.3749L14.8813 18.914L14.8672 16.453L14.7359 16.2562C14.6656 16.1483 14.5203 16.003 14.4125 15.9327L14.2203 15.8015L13.1703 15.7874L12.125 15.7733V14.9296V14.0905H15.5375C18.7859 14.0905 18.9594 14.0952 19.0297 14.1749C19.0953 14.2499 19.1094 14.3812 19.1094 15.0187V15.778H18.1156C16.9906 15.778 16.8547 15.8108 16.5781 16.1437C16.2969 16.4858 16.2969 16.4624 16.2969 20.0202C16.2969 23.578 16.2969 23.5546 16.5781 23.8968C16.6531 23.9905 16.8078 24.1124 16.9203 24.164C17.1125 24.2577 17.2016 24.2624 18.4344 24.2624H19.7422L21.1813 22.8187L22.625 21.3749V20.4046C22.625 19.4952 22.6203 19.4296 22.5312 19.3405C22.4 19.2093 22.1094 19.214 21.9875 19.3452C21.9125 19.4296 21.8984 19.5327 21.8844 20.1187L21.8703 20.7937H21.0125C20.0188 20.7937 19.7797 20.8405 19.5172 21.0983C19.1891 21.4171 19.1797 21.4546 19.1656 22.5608L19.1516 23.5593H18.3172C17.825 23.5593 17.4219 23.5358 17.3328 23.5077C17.0375 23.4046 17.0469 23.5077 17.0469 20.0202C17.0469 16.5327 17.0375 16.6358 17.3328 16.5327C17.525 16.4671 21.3594 16.4624 21.5984 16.528C21.6922 16.5562 21.7906 16.6218 21.8188 16.6827C21.8469 16.739 21.8797 17.0718 21.8844 17.4468C21.8984 18.0233 21.9125 18.1265 21.9875 18.2108C22.1094 18.3421 22.4 18.3468 22.5312 18.2155C22.6156 18.1312 22.625 18.0608 22.625 17.353C22.625 16.603 22.6203 16.5796 22.4938 16.3358C22.3953 16.139 22.3063 16.0499 22.1094 15.928L21.8563 15.778H20.8578H19.8594V14.9905C19.8594 14.5593 19.8359 14.1233 19.8078 14.0202C19.7375 13.7765 19.4234 13.4624 19.1797 13.3921C19.0484 13.3593 17.9281 13.3405 15.5609 13.3405H12.125V12.4968V11.6577L14.2016 11.6437L16.2781 11.6296L16.4797 11.4983C16.7797 11.3015 16.8594 11.0858 16.8594 10.4671C16.8594 9.99365 16.8547 9.95615 16.7422 9.84834C16.6063 9.70771 16.3953 9.69834 16.2453 9.82021C16.1422 9.8999 16.1328 9.95615 16.1094 10.3968L16.0859 10.8796L15.4672 10.8937L14.8438 10.9077V9.68428C14.8438 8.6999 14.8297 8.43271 14.7734 8.32959C14.6609 8.11396 14.4266 8.07178 14.2156 8.23584L14.0938 8.32959V9.61865V10.903H11.75H9.40625V9.61865V8.32959L9.28438 8.23584C9.07344 8.07178 8.83906 8.11396 8.72656 8.32959C8.67031 8.43271 8.65625 8.6999 8.65625 9.68428V10.9077L8.0375 10.8937L7.41406 10.8796V9.35615V7.83271L7.55938 7.52803C7.775 7.08271 8.03281 6.81084 8.45938 6.60459L8.81563 6.42646H11.75H14.6844L15.0406 6.60459C15.6875 6.92334 16.0531 7.48115 16.1 8.2124C16.1281 8.70928 16.1984 8.81709 16.4844 8.81709C16.7703 8.81709 16.8594 8.68584 16.8594 8.28271C16.8594 7.87959 16.7516 7.44365 16.5641 7.06396C16.3813 6.68896 15.9172 6.20146 15.5422 5.99053C15.1859 5.78896 14.6375 5.65303 14.1781 5.65303H13.8078L14.0703 5.34834C14.5859 4.73428 14.8156 4.11084 14.8109 3.28584C14.8109 2.68115 14.6844 2.22178 14.3891 1.72021C14.0141 1.09209 13.2453 0.520214 12.5188 0.337402C12.1203 0.234276 11.3 0.24365 10.9156 0.351463ZM12.7438 1.23271C13.6672 1.69209 14.1969 2.65771 14.0516 3.62803C13.9016 4.64053 13.1094 5.44678 12.0922 5.61553C11.1313 5.7749 10.1 5.22646 9.66406 4.32178C9.24219 3.44053 9.39219 2.46084 10.0672 1.74365C10.3391 1.44834 10.7328 1.1999 11.1125 1.07803C11.2344 1.03584 11.4922 1.01709 11.825 1.02646C12.3313 1.03584 12.3547 1.04053 12.7438 1.23271ZM6.16719 16.5327C6.45312 16.6312 6.45312 16.6499 6.45312 18.8202V20.789L5.48281 20.803C4.63906 20.8171 4.48438 20.8312 4.34375 20.9062C4.11406 21.028 3.93125 21.2062 3.81406 21.4265C3.72031 21.5952 3.71094 21.6983 3.69688 22.589L3.67813 23.5687L2.77344 23.5499C1.8875 23.5358 1.86406 23.5312 1.74688 23.4233L1.625 23.3108V20.0249C1.62969 16.453 1.61563 16.6124 1.89219 16.528C2.09844 16.4671 5.98906 16.4718 6.16719 16.5327ZM13.9016 16.5327C13.9813 16.5608 14.0703 16.6218 14.0938 16.6687C14.1219 16.7249 14.1406 17.5499 14.1406 18.7733V20.7937H13.2922C12.2328 20.7937 12.0828 20.8265 11.7688 21.1405C11.4547 21.4593 11.4219 21.6046 11.4219 22.6874V23.5593H10.5828C9.72031 23.5593 9.48594 23.5218 9.40625 23.3718C9.35469 23.2733 9.34063 16.8233 9.3875 16.6921C9.4625 16.4999 9.61719 16.4858 11.7313 16.4812C13.0906 16.4812 13.7984 16.4999 13.9016 16.5327ZM5.1875 22.2702L4.46094 22.9968L4.44688 22.5187C4.41875 21.5905 4.46094 21.5437 5.32344 21.5437H5.91406L5.1875 22.2702ZM13.625 21.5577C13.625 21.5624 13.2969 21.8952 12.8984 22.2937L12.1719 23.0202V22.4202V21.8155L12.3078 21.6796C12.4438 21.5437 12.4484 21.5437 13.0344 21.5437C13.3578 21.5437 13.625 21.5483 13.625 21.5577ZM20.6328 22.2468L19.9297 22.9499L19.9156 22.4249C19.9016 21.8577 19.9438 21.6796 20.1078 21.5999C20.1641 21.5718 20.4641 21.5483 20.7734 21.5483L21.3359 21.5437L20.6328 22.2468Z" fill="white"/>
</svg>
