<svg width="25" height="25" viewBox="0 0 25 25" fill="none" xmlns="http://www.w3.org/2000/svg">
<path d="M3.96097 0.852245C3.08441 1.05381 2.47034 1.41006 1.84691 2.06631C1.31722 2.61943 0.984407 3.24756 0.815657 4.00225C0.703157 4.5085 0.740657 5.54912 0.890657 6.01318C1.13441 6.78193 1.66878 7.57412 2.26409 8.05225C2.68597 8.38975 3.30472 8.69443 3.82972 8.83037C4.27034 8.93818 4.31722 8.94287 6.19691 8.94287C7.42503 8.94287 8.14691 8.92412 8.20784 8.896C8.32034 8.83506 8.43753 8.61006 8.43753 8.45537C8.43753 8.23975 8.32972 8.09912 8.03441 7.92568L7.73909 7.75693L7.95003 7.52256C8.36253 7.06318 8.69534 6.37881 8.83597 5.69912C8.92503 5.28662 8.92503 4.41943 8.84066 4.01162C8.54534 2.62412 7.47659 1.4335 6.10316 0.974121C5.68128 0.828808 5.59691 0.819433 4.94534 0.80537C4.46253 0.791308 4.15316 0.810059 3.96097 0.852245ZM5.66722 1.63506C6.82503 1.93975 7.76722 2.896 8.06253 4.04912C8.33909 5.12256 8.03441 6.3085 7.26566 7.12881C7.09222 7.31631 6.92816 7.51318 6.90003 7.56943C6.82503 7.71006 6.82972 7.88818 6.91409 8.05225L6.98909 8.19287H5.68128C4.53284 8.19287 4.33128 8.1835 4.01253 8.09912C3.10316 7.86943 2.27816 7.2085 1.86566 6.37881C1.57034 5.78818 1.48128 5.37568 1.50941 4.68662C1.52816 4.22256 1.55628 4.07725 1.67816 3.74443C1.86566 3.25225 2.04847 2.95693 2.43284 2.5585C3.28128 1.66787 4.49066 1.32568 5.66722 1.63506Z" fill="white"/>
<path d="M3.16402 4.60693C2.92964 4.83662 3.0937 5.23975 3.42183 5.23975C3.61402 5.23975 3.79683 5.05693 3.79683 4.86475C3.79683 4.67256 3.61402 4.48975 3.42183 4.48975C3.33277 4.48975 3.23433 4.53193 3.16402 4.60693Z" fill="white"/>
<path d="M4.57027 4.60693C4.33589 4.83662 4.49995 5.23975 4.82808 5.23975C5.02027 5.23975 5.20308 5.05693 5.20308 4.86475C5.20308 4.67256 5.02027 4.48975 4.82808 4.48975C4.73902 4.48975 4.64058 4.53193 4.57027 4.60693Z" fill="white"/>
<path d="M5.97652 4.60693C5.74214 4.83662 5.9062 5.23975 6.23433 5.23975C6.42652 5.23975 6.60933 5.05693 6.60933 4.86475C6.60933 4.67256 6.42652 4.48975 6.23433 4.48975C6.14527 4.48975 6.04683 4.53193 5.97652 4.60693Z" fill="white"/>
<path d="M14.0157 0.856934C12.9376 1.05849 11.9251 1.60225 11.1329 2.39912C10.4157 3.12099 9.9329 3.96474 9.6704 4.94443C9.5579 5.37568 9.54852 5.49756 9.51571 6.95068C9.4829 8.33818 9.46884 8.53506 9.37978 8.84912C9.24852 9.29443 8.97196 9.82412 8.63915 10.2647C8.34384 10.6585 8.15165 11.0147 8.04384 11.371C7.65478 12.6929 8.34384 14.2257 9.57665 14.7601C9.72196 14.821 9.84384 14.8819 9.84384 14.896C9.84384 14.9101 9.41259 15.1069 8.8829 15.3366C7.85634 15.7819 7.5329 15.9554 7.17196 16.2554C6.75009 16.6116 6.33759 17.2444 6.12196 17.8726C6.0329 18.1397 6.02821 18.2804 6.01415 20.671C5.9954 23.1554 5.9954 23.1882 6.09384 23.2866C6.22509 23.4179 6.51571 23.4132 6.63759 23.2819C6.72196 23.1882 6.72665 23.0569 6.75009 20.7366C6.77821 18.3132 6.77821 18.2897 6.88602 17.9944C6.94696 17.8257 7.10634 17.5351 7.23759 17.3382C7.61727 16.7804 7.91727 16.5835 9.32353 15.9694C9.98446 15.6835 10.561 15.4351 10.6079 15.4257C10.6829 15.4022 10.6876 15.4726 10.6876 16.4147V17.4272H10.097C9.36571 17.4272 9.1829 17.4788 8.90165 17.7554C8.51727 18.1397 8.52196 18.0179 8.85478 21.1726C9.01415 22.6819 9.14071 23.9569 9.14071 23.9991C9.14071 24.0788 8.91103 24.0835 5.02509 24.0835C1.09227 24.0835 0.900087 24.0882 0.829775 24.1679C0.721962 24.2897 0.72665 24.6085 0.834462 24.7069C0.91415 24.7819 1.80946 24.7866 12.7595 24.7866C24.1642 24.7866 24.6001 24.7819 24.6704 24.7022C24.7173 24.6507 24.7501 24.5382 24.7501 24.4257C24.7501 24.1632 24.647 24.0835 24.3142 24.0835H24.047V21.2101C24.047 18.5194 24.0423 18.3085 23.9579 17.9804C23.7892 17.3288 23.3485 16.6022 22.8751 16.2085C22.5142 15.9085 22.186 15.7304 21.2204 15.3179C20.7282 15.1069 20.3017 14.9147 20.2829 14.896C20.2595 14.8772 20.3157 14.8351 20.4048 14.8069C20.4938 14.7741 20.7188 14.6476 20.897 14.521C22.0313 13.7241 22.4392 12.1819 21.8485 10.9491C21.7735 10.7851 21.5813 10.4851 21.422 10.2788C21.0798 9.82881 20.8454 9.36475 20.7142 8.86787C20.6251 8.54443 20.611 8.30068 20.5782 6.92725C20.5548 6.05537 20.5173 5.26318 20.4892 5.146C20.1282 3.71631 19.3548 2.55381 18.2298 1.75693C17.7892 1.44756 17.011 1.08662 16.4673 0.941307C16.0735 0.838182 15.8907 0.819433 15.1876 0.80537C14.6157 0.795996 14.2595 0.810059 14.0157 0.856934ZM15.5907 1.55537C15.7735 1.56943 16.111 1.63506 16.3407 1.70068C16.7907 1.83193 17.6251 2.21631 17.6251 2.296C17.6251 2.36631 17.236 2.90068 16.8376 3.37881C15.6704 4.76631 13.847 5.83974 12.0095 6.21943C11.6626 6.28975 11.3626 6.31787 10.8938 6.31787H10.2516L10.2798 5.92412C10.4157 3.96943 11.8266 2.2585 13.7579 1.70068C14.1563 1.58818 14.8829 1.48975 15.1407 1.51787C15.2063 1.52724 15.4079 1.54131 15.5907 1.55537ZM19.0641 3.70225C19.5048 4.38193 19.7673 5.16006 19.8141 5.91475L19.8423 6.37881L19.2376 6.35068C18.3938 6.31787 17.7892 6.12568 17.1704 5.70381C16.861 5.48818 16.5517 5.54912 16.4813 5.83037C16.4298 6.03662 16.5329 6.196 16.8517 6.40693C17.2079 6.63662 17.536 6.79131 17.9954 6.92725L18.3282 7.03037V7.96787V8.90537L18.1782 9.196C17.9954 9.5335 17.5454 9.99756 17.236 10.1616L17.0204 10.2788L16.8657 10.1101C16.5938 9.81475 16.4579 9.76787 15.7641 9.74912C15.2813 9.73506 15.0938 9.74912 14.9157 9.80537C14.1845 10.0491 13.9595 11.0007 14.5079 11.5444C14.611 11.6522 14.7798 11.7601 14.8876 11.7929C15.1313 11.8632 16.172 11.8679 16.411 11.7929C16.6548 11.7226 16.9501 11.4647 17.0251 11.2585C17.072 11.1319 17.1423 11.0616 17.3438 10.9538C17.4891 10.8788 17.7563 10.7007 17.9391 10.5647L18.272 10.3163L18.2251 10.4851C17.9813 11.3569 17.1563 12.1491 16.2376 12.3835C15.8298 12.4866 14.2173 12.4913 13.8141 12.3835C12.8017 12.121 12.0001 11.2913 11.7891 10.2788C11.7376 10.0304 11.7188 9.59443 11.7188 8.49287V7.03037L11.9438 7.00224C12.3001 6.95068 13.2095 6.69756 13.6548 6.52881C14.2079 6.31318 14.986 5.91006 15.4923 5.57256C16.4157 4.96787 17.4048 3.99756 17.9907 3.13975L18.2579 2.74599L18.5532 3.06006C18.7173 3.2335 18.947 3.51943 19.0641 3.70225ZM10.9688 8.53975C10.9688 10.1429 11.0016 10.4569 11.2313 11.0382C11.4798 11.6663 12.0141 12.3132 12.5766 12.6694C12.6985 12.7491 12.797 12.8241 12.797 12.8429C12.797 12.8616 12.7548 12.9929 12.6985 13.1335C12.5485 13.5413 12.2391 13.846 11.7376 14.0851C11.3438 14.2679 11.2782 14.2866 10.936 14.2866C10.2798 14.2866 9.75946 14.0897 9.34696 13.6819C8.89227 13.2366 8.70477 12.7913 8.70477 12.1538C8.70477 11.671 8.79852 11.3663 9.0704 10.9819C10.0173 9.646 10.2048 9.14443 10.2516 7.82725L10.2798 7.06787H10.622H10.9688V8.53975ZM19.8282 7.56006C19.8282 8.88193 20.0954 9.76787 20.7563 10.6632C21.3423 11.4507 21.4735 11.9241 21.3048 12.6413C21.0704 13.6351 20.2126 14.2866 19.1485 14.2866C18.872 14.2866 18.7501 14.2585 18.4501 14.1272C17.7892 13.8413 17.5173 13.5788 17.3391 13.0538L17.2595 12.8147L17.4985 12.6554C18.0516 12.2991 18.5767 11.6569 18.8251 11.0522C19.0454 10.5085 19.0782 10.1851 19.0782 8.58662V7.11475H19.4532H19.8282V7.56006ZM16.2938 10.6022C16.3923 10.7429 16.3735 10.9397 16.2563 11.0241C16.1767 11.0804 16.0266 11.0991 15.647 11.0991C15.2016 11.0991 15.1313 11.0897 15.047 11.0054C14.9157 10.8741 14.9298 10.7054 15.0798 10.5835C15.197 10.4897 15.2579 10.4851 15.7173 10.4991C16.1579 10.5132 16.2376 10.5272 16.2938 10.6022ZM15.0235 13.1851C15.6188 13.1851 16.2048 13.1757 16.3266 13.1616L16.5517 13.1382L16.6454 13.396C16.861 14.0101 17.3485 14.4835 18.1079 14.8116L18.586 15.0179L18.6001 15.3976L18.6141 15.7772L18.2485 15.8757C16.3642 16.3819 14.2454 16.4429 12.3095 16.0444C11.9954 15.9788 11.6813 15.9132 11.6016 15.8897L11.461 15.8522L11.447 15.4538L11.4329 15.0554L11.7985 14.896C12.0001 14.8116 12.272 14.6804 12.3985 14.6101C12.8485 14.3616 13.2704 13.846 13.4345 13.3538L13.5141 13.1101L13.7298 13.1476C13.847 13.1663 14.4329 13.1851 15.0235 13.1851ZM20.611 15.8804C21.3376 16.1944 21.947 16.4851 22.1392 16.6163C22.6548 16.9632 23.0392 17.5069 23.2313 18.1585C23.3017 18.4069 23.3157 18.7444 23.3298 21.2569L23.3485 24.0835H22.2938H21.2392L21.2626 23.9288C21.3751 23.1413 21.8392 18.4351 21.8157 18.3132C21.7407 17.9382 21.5392 17.6851 21.1876 17.5257C21.0001 17.4413 20.8782 17.4272 20.1704 17.4272H19.3595V16.396C19.3595 15.8288 19.3688 15.3647 19.3782 15.3647C19.3876 15.3647 19.9454 15.5991 20.611 15.8804ZM18.6095 17.0054V17.4272H15.0235H11.4376V17.0241C11.4376 16.6632 11.447 16.6257 11.522 16.6491C11.7845 16.7288 12.872 16.921 13.411 16.9819C14.147 17.0616 15.4548 17.071 16.2188 17.0007C16.7766 16.9491 17.7985 16.7757 18.211 16.6585C18.6282 16.546 18.6095 16.5272 18.6095 17.0054ZM20.9579 18.2663C21.0517 18.3413 21.0704 18.3929 21.061 18.5851C21.0517 18.8288 20.5501 23.6147 20.5032 23.9101L20.4751 24.0835L15.197 24.0741L9.91415 24.0601L9.62352 21.3413C9.46415 19.846 9.3329 18.5757 9.3329 18.5147C9.32821 18.4538 9.37978 18.3554 9.4454 18.2944L9.5579 18.1772H15.2016C20.6954 18.1772 20.8501 18.1819 20.9579 18.2663Z" fill="white"/>
<path d="M14.7515 19.8367C14.1984 20.0383 13.8562 20.5305 13.8562 21.1305C13.8562 21.6649 14.1328 22.0961 14.6156 22.3352C15.1875 22.6164 15.8953 22.4524 16.2703 21.9555C16.4906 21.6649 16.5656 21.4024 16.5375 20.9992C16.5093 20.6289 16.4203 20.432 16.1578 20.1555C15.825 19.8133 15.2109 19.6727 14.7515 19.8367ZM15.5203 20.6289C15.7125 20.7555 15.7968 20.9102 15.7968 21.1305C15.7968 21.6367 15.2062 21.8992 14.8171 21.5711C14.5312 21.332 14.5406 20.9242 14.8406 20.6664C15.0421 20.4836 15.2859 20.4695 15.5203 20.6289Z" fill="white"/>
</svg>
