<svg width="25" height="25" viewBox="0 0 25 25" fill="none" xmlns="http://www.w3.org/2000/svg">
<path d="M4.28979 0.323633C3.23979 0.675196 2.65854 1.71582 2.93042 2.76113C3.02417 3.11738 3.13667 3.33301 3.37104 3.6002L3.56323 3.81582L3.29604 3.96582C2.89292 4.19551 2.40542 4.71113 2.17104 5.16582C1.88042 5.71895 1.82886 5.99551 1.82886 6.98926V7.8377L1.98354 8.09082C2.08198 8.26426 2.20854 8.39082 2.36323 8.48926C2.59292 8.62988 2.60229 8.62988 3.34292 8.64395C3.75542 8.65332 4.14448 8.64863 4.20542 8.62988C4.35542 8.59238 4.47261 8.32988 4.41167 8.16582C4.32261 7.93613 4.20542 7.90332 3.47886 7.90332C2.83198 7.90332 2.80386 7.89863 2.69604 7.78613C2.58354 7.67832 2.57886 7.65488 2.57886 6.95176C2.57886 6.36113 2.59761 6.16895 2.67261 5.92988C2.97261 4.9502 3.85854 4.29395 4.87573 4.29395C5.77573 4.29395 6.57261 4.80488 6.96636 5.62988C7.14448 6.00488 7.21948 6.40801 7.21948 7.0502C7.21948 7.52363 7.14917 7.76738 6.99448 7.85176C6.93823 7.87988 6.62417 7.90332 6.24448 7.90332C5.65386 7.90332 5.57886 7.9127 5.46636 8.00176C5.31167 8.12363 5.29292 8.41426 5.43823 8.55957C5.52261 8.64395 5.59292 8.65332 6.30073 8.65332C7.05073 8.65332 7.07417 8.64863 7.31792 8.52207C7.64136 8.35332 7.85229 8.08145 7.92729 7.72988C7.99761 7.37832 7.95542 6.20176 7.85229 5.81738C7.66011 5.08613 7.11636 4.35488 6.49761 3.99395L6.18823 3.81113L6.37104 3.61426C7.11167 2.80801 7.04604 1.49551 6.22573 0.754883C6.12261 0.656446 5.89761 0.515821 5.72417 0.436133C5.45229 0.304883 5.35854 0.286134 4.94604 0.276758C4.65073 0.267384 4.40698 0.286134 4.28979 0.323633ZM5.42886 1.13457C5.71948 1.27988 5.96792 1.55645 6.06636 1.84707C6.42729 2.89707 5.33042 3.86738 4.34136 3.38457C3.14136 2.79863 3.53979 1.0127 4.87573 1.0127C5.11479 1.0127 5.24136 1.04082 5.42886 1.13457Z" fill="white"/>
<path d="M19.6554 0.356356C19.4726 0.468855 19.3695 0.651668 19.3085 1.00323C19.2804 1.14854 19.2335 1.28448 19.2054 1.30323C19.1773 1.32198 19.0507 1.26104 18.9289 1.16729C18.4273 0.801668 18.1507 0.85323 17.5648 1.42979C17.082 1.89854 17.0164 2.00636 17.0164 2.31573C17.0164 2.50323 17.0492 2.59698 17.1992 2.82667C17.2976 2.98136 17.3679 3.13136 17.3492 3.15948C17.3351 3.18292 17.1992 3.22979 17.0539 3.25792C16.7023 3.31886 16.5195 3.42198 16.407 3.60479C16.3273 3.73604 16.3132 3.84386 16.3132 4.42511C16.3132 5.18448 16.3507 5.32511 16.6132 5.50323C16.6976 5.55948 16.8757 5.62042 17.0117 5.63917C17.4101 5.68604 17.4335 5.72823 17.2085 6.05167C17.0398 6.29542 17.0164 6.35636 17.0164 6.59073C17.0164 6.90948 17.1054 7.05479 17.6117 7.53761C17.9773 7.88917 18.0992 7.95011 18.3992 7.95011C18.5539 7.95011 18.6617 7.90792 18.8914 7.75792C19.0554 7.64542 19.196 7.57979 19.2195 7.60323C19.2429 7.62667 19.2804 7.77198 19.3085 7.92198C19.3695 8.25479 19.5101 8.47511 19.721 8.57823C19.9367 8.68136 21.0851 8.68604 21.2773 8.58292C21.507 8.46573 21.6429 8.25948 21.6992 7.94542C21.7273 7.78136 21.7695 7.63136 21.7929 7.60792C21.821 7.57979 21.9429 7.63604 22.1257 7.75792C22.3601 7.91261 22.4585 7.95011 22.6273 7.95011C22.7398 7.95011 22.8804 7.92667 22.9367 7.89854C23.0867 7.82354 23.8554 7.05948 23.9351 6.90948C24.0757 6.64229 24.0054 6.30479 23.7289 5.94386C23.5789 5.75167 23.6164 5.71417 24.0242 5.62979C24.221 5.58761 24.3898 5.52198 24.4601 5.45636C24.6757 5.25011 24.7039 5.13761 24.7039 4.44854C24.7039 3.90479 24.6898 3.77354 24.6148 3.63761C24.507 3.43136 24.3242 3.32354 23.9726 3.25792C23.8226 3.22979 23.6773 3.19229 23.6539 3.16886C23.6304 3.14542 23.696 3.00479 23.8085 2.84073C23.9632 2.60636 24.0007 2.50792 24.0007 2.34386C24.0007 2.02511 23.907 1.86573 23.457 1.42979C22.8664 0.857918 22.5898 0.801668 22.0882 1.16729C21.9617 1.25636 21.8351 1.31729 21.8023 1.29854C21.7742 1.27979 21.7273 1.13917 21.6992 0.989168C21.6335 0.62823 21.5539 0.482918 21.3617 0.361043C21.2164 0.27198 21.132 0.262606 20.5039 0.262606C19.8945 0.262606 19.7867 0.276668 19.6554 0.356356ZM20.9867 1.29386C21.0523 1.69698 21.1648 1.86104 21.4789 1.99698C21.8257 2.14698 22.0882 2.11417 22.407 1.87979L22.6507 1.70167L22.946 2.00167L23.246 2.30167L23.0632 2.57823C22.8335 2.91104 22.8148 3.15479 22.9929 3.53448C23.0867 3.73604 23.1429 3.79698 23.307 3.87198C23.4195 3.92354 23.5601 3.96573 23.6257 3.96573C23.9445 3.97042 23.9539 3.98448 23.9539 4.45323V4.88448L23.6398 4.93604C23.4664 4.96886 23.2742 5.02979 23.2085 5.08136C23.0257 5.20792 22.8804 5.54073 22.8757 5.82198C22.8757 6.02354 22.9039 6.09854 23.0585 6.31886L23.2414 6.58136L22.9507 6.86729C22.7914 7.02198 22.646 7.15323 22.6226 7.15323C22.6039 7.15323 22.496 7.08761 22.3835 7.00792C22.0929 6.79698 21.882 6.76417 21.5726 6.87198C21.1601 7.01729 21.0429 7.17198 20.9773 7.65479L20.9445 7.90323H20.5085H20.0726L20.0164 7.58917C19.9507 7.20479 19.8476 7.05479 19.5617 6.91886C19.1726 6.73604 18.9242 6.78292 18.446 7.12979C18.3523 7.19542 18.3289 7.18136 18.0523 6.90011L17.7523 6.60011L17.9304 6.35636C18.1695 6.02823 18.1976 5.76573 18.0335 5.40479C17.8882 5.09073 17.771 5.00636 17.3726 4.94073L17.0632 4.88917V4.45792C17.0632 3.98448 17.0726 3.97042 17.3867 3.96573C17.4523 3.96573 17.5929 3.92354 17.7007 3.86729C17.9492 3.75011 18.1414 3.40323 18.1414 3.08448C18.1414 2.85948 18.0992 2.76104 17.8929 2.49854L17.7523 2.31573L18.0617 2.01104L18.3664 1.70167L18.6101 1.87979C18.9382 2.12354 19.196 2.14698 19.5617 1.97823C19.8617 1.83292 19.9835 1.63604 20.0398 1.20948L20.0726 0.96573H20.5039H20.9351L20.9867 1.29386Z" fill="white"/>
<path d="M20.096 2.84543C19.6414 2.95324 19.2007 3.31887 18.9945 3.76887C18.896 3.98449 18.8726 4.10637 18.8679 4.41106C18.8679 4.91262 18.9757 5.20793 19.2757 5.54074C19.557 5.84543 19.8523 6.00949 20.2367 6.07043C21.6804 6.30012 22.6835 4.71106 21.8539 3.50168C21.4789 2.95324 20.771 2.68606 20.096 2.84543ZM20.771 3.60012C21.2257 3.75481 21.4929 4.22824 21.3757 4.66887C21.2304 5.20324 20.5976 5.49856 20.1101 5.25012C19.857 5.12356 19.5945 4.72981 19.5945 4.47668C19.5945 3.87199 20.2132 3.40793 20.771 3.60012Z" fill="white"/>
<path d="M13.4305 3.0517C13.2289 3.24858 13.2711 3.41264 13.6039 3.75951L13.8899 4.05951H12.1695H10.4445L10.3039 4.20014C10.1867 4.32201 10.168 4.36889 10.1914 4.49545C10.2524 4.8142 10.2242 4.80951 12.1508 4.80951H13.8852L13.5992 5.1142C13.3789 5.35326 13.3133 5.45639 13.3133 5.5642C13.3133 5.76576 13.3836 5.86889 13.5524 5.92983C13.782 6.00951 13.9414 5.90639 14.593 5.24076C15.4039 4.41108 15.4039 4.49076 14.518 3.60483C13.932 3.01889 13.8289 2.93451 13.6977 2.93451C13.5945 2.93451 13.5055 2.9767 13.4305 3.0517Z" fill="white"/>
<path d="M12.0709 8.09082C10.3788 8.35801 9.04751 9.56738 8.59751 11.2596C8.47563 11.7143 8.47563 12.8111 8.59751 13.2658C9.01001 14.808 10.1303 15.9424 11.6491 16.3455C12.2022 16.4955 13.135 16.4955 13.7116 16.3455C14.9444 16.0268 15.9006 15.2486 16.4772 14.1002C16.9788 13.0971 17.0256 11.7564 16.5944 10.683C16.21 9.72207 15.3709 8.8502 14.4147 8.41426C13.7866 8.12832 12.7506 7.9877 12.0709 8.09082ZM13.2756 8.85957C14.0444 9.00957 14.5741 9.29551 15.1506 9.87207C15.4881 10.2096 15.5913 10.3549 15.7694 10.7205C16.0366 11.2689 16.135 11.6908 16.135 12.2627C16.135 12.8346 16.0366 13.2564 15.7647 13.8096C15.5819 14.1846 15.4881 14.3158 15.1225 14.6814C14.7616 15.0377 14.6256 15.1408 14.2506 15.3236C13.6459 15.6236 13.3084 15.7033 12.6803 15.7033C12.0756 15.7033 11.7288 15.6236 11.1803 15.3564C10.3084 14.9346 9.68032 14.1846 9.36626 13.2002C9.21157 12.6939 9.21157 11.8314 9.36626 11.3252C9.68032 10.3408 10.3084 9.59082 11.1803 9.16895C11.8928 8.82207 12.5678 8.72363 13.2756 8.85957Z" fill="white"/>
<path d="M13.6413 10.533C13.5148 10.5892 13.2241 10.833 12.8679 11.1845L12.3007 11.747L12.1179 11.5548C11.8366 11.2689 11.6116 11.1658 11.2507 11.1658C10.4632 11.1658 9.95695 11.8689 10.1773 12.6611C10.2195 12.8064 10.3835 13.0033 10.9413 13.5705C11.3726 14.0111 11.7241 14.3252 11.8366 14.3767C12.0945 14.4986 12.5679 14.4939 12.821 14.372C12.9382 14.3158 13.407 13.8798 14.0679 13.2142C15.2163 12.0564 15.2538 12.0002 15.2538 11.5127C15.2491 11.0814 15.0007 10.7064 14.6023 10.5236C14.3445 10.4064 13.9132 10.4111 13.6413 10.533ZM14.3913 11.3017C14.457 11.372 14.4991 11.4752 14.4991 11.5642C14.4991 11.6908 14.3726 11.8361 13.496 12.7127C12.5679 13.6361 12.4741 13.7158 12.3241 13.7158C12.1741 13.7158 12.0991 13.6548 11.5179 13.0689C10.8195 12.3611 10.7773 12.2861 10.9835 12.047C11.1804 11.8173 11.3351 11.8642 11.7616 12.2767C12.0898 12.6002 12.1507 12.6377 12.3101 12.6377C12.4741 12.6377 12.5351 12.5908 13.2241 11.9111C13.8851 11.2548 13.9741 11.1845 14.1195 11.1845C14.232 11.1845 14.3163 11.222 14.3913 11.3017Z" fill="white"/>
<path d="M20.2226 9.87668C20.1382 9.97043 20.1335 10.0876 20.1101 11.7048L20.0867 13.4392L19.8335 13.1814C19.6929 13.0407 19.5289 12.9142 19.4632 12.8954C19.2195 12.8345 18.9851 13.0361 18.9851 13.3032C18.9851 13.3689 19.2148 13.6361 19.6507 14.0767C20.5414 14.9767 20.4617 14.9767 21.3382 14.1001C22.0835 13.3595 22.1398 13.2517 21.9007 13.0126C21.6804 12.7923 21.5585 12.8204 21.1835 13.1861L20.8601 13.4954V11.7329C20.8601 10.0267 20.8554 9.96106 20.7664 9.87199C20.6351 9.74074 20.3445 9.74543 20.2226 9.87668Z" fill="white"/>
<path d="M2.2085 15.9377C1.9835 16.0174 1.70225 16.2705 1.58037 16.4955C1.48193 16.683 1.47725 16.7439 1.47725 17.7518C1.47725 18.7314 1.48193 18.8205 1.56631 18.9143C1.67412 19.0314 1.95068 19.0455 2.09131 18.9471C2.171 18.8861 2.18037 18.8018 2.20381 17.8643L2.22725 16.8471L2.3585 16.7346L2.48975 16.6221H4.87568H7.26162L7.39287 16.7346L7.52412 16.8471L7.53818 20.2033L7.54756 23.5596H6.35693H5.16631L5.14756 22.8986C5.1335 22.2424 5.1335 22.2377 5.00225 22.1252C4.84287 21.9893 4.69287 21.9799 4.52881 22.1111C4.40693 22.2049 4.40693 22.2096 4.40693 22.8846V23.5596H3.30537H2.20381V21.8346C2.20381 20.1846 2.19912 20.1002 2.11475 20.0252C1.97881 19.9033 1.70693 19.908 1.58037 20.0346C1.47725 20.1377 1.47725 20.1518 1.46318 21.8486L1.44912 23.5596H1.21943C1.046 23.5596 0.961621 23.583 0.891309 23.6533C0.764746 23.7799 0.764746 24.0424 0.891309 24.1689C0.985059 24.2627 1.046 24.2627 4.87568 24.2627C8.70537 24.2627 8.76631 24.2627 8.86006 24.1689C8.98662 24.0424 8.98662 23.7799 8.86006 23.6533C8.78975 23.583 8.70537 23.5596 8.53193 23.5596H8.30225L8.28818 20.1236C8.27412 16.7018 8.27412 16.6924 8.171 16.5002C8.03506 16.2471 7.73506 15.9846 7.51475 15.9236C7.24756 15.8486 2.41943 15.8627 2.2085 15.9377Z" fill="white"/>
<path d="M17.6726 15.9471C17.4617 16.0408 17.3117 16.1814 17.1992 16.3971C17.1195 16.5517 17.1101 16.6783 17.1101 17.5267C17.1101 18.4642 17.1101 18.483 17.2179 18.5814C17.3539 18.708 17.5789 18.7127 17.7242 18.5955C17.832 18.5064 17.8367 18.4877 17.8507 17.6252C17.8601 17.0955 17.8882 16.7158 17.9164 16.683C17.9539 16.6361 18.3101 16.6221 19.4914 16.6221H21.0195L21.3851 16.9877L21.7507 17.3533V19.5939C21.7507 21.0471 21.732 21.8627 21.7039 21.9236C21.657 22.008 21.5867 22.0127 19.8148 22.0127C18.446 22.0127 17.9585 21.9986 17.9164 21.9564C17.8742 21.9142 17.8601 21.6142 17.8601 20.9017C17.8601 19.7486 17.8367 19.6502 17.5507 19.5939C17.4242 19.5705 17.3539 19.5846 17.2601 19.6549L17.1335 19.7486L17.1195 20.9064C17.1101 21.9658 17.1148 22.0736 17.1992 22.2377C17.396 22.6174 17.6773 22.7627 18.2351 22.7627H18.6101V23.1471C18.6101 23.6064 18.6992 23.8408 18.9523 24.0611C19.046 24.1455 19.1914 24.2252 19.2757 24.2392C19.3601 24.2533 20.3304 24.2627 21.432 24.2533C23.6773 24.2392 23.5132 24.2627 23.832 23.8689L23.9773 23.6908V20.8408V17.9908L23.8367 17.7892C23.6304 17.4986 23.4054 17.4002 22.9085 17.3814C22.5101 17.3627 22.5007 17.358 22.4726 17.2408C22.4539 17.1705 22.4023 17.0392 22.3601 16.9502C22.2476 16.7299 21.521 16.0314 21.3148 15.9424C21.0617 15.8392 17.9164 15.8439 17.6726 15.9471ZM23.1757 18.1971C23.2414 18.2627 23.2507 18.5674 23.2507 20.8408V23.4142L23.1476 23.4846C23.0585 23.5502 22.8007 23.5596 21.3054 23.5596C19.2476 23.5596 19.3601 23.5877 19.3601 23.0908V22.7674L20.621 22.7533L21.882 22.7392L22.0835 22.5986C22.1914 22.5189 22.3273 22.3736 22.3789 22.2705C22.4726 22.0924 22.4773 22.008 22.4914 20.1002L22.5054 18.1221H22.8054C23.0117 18.1221 23.1242 18.1455 23.1757 18.1971Z" fill="white"/>
<path d="M3.11779 17.4893C2.9631 17.6393 2.95841 17.8783 3.10841 18.0189C3.21622 18.1221 3.23966 18.1221 4.88029 18.1221C6.49279 18.1221 6.54904 18.1174 6.64747 18.0283C6.80216 17.883 6.7881 17.5971 6.62872 17.4705C6.50685 17.3768 6.4506 17.3721 4.86622 17.3721H3.23029L3.11779 17.4893Z" fill="white"/>
<path d="M18.8116 17.4189C18.5913 17.508 18.5444 17.8268 18.7272 18.0049C18.8397 18.1221 18.8444 18.1221 19.8053 18.1221C20.7053 18.1221 20.771 18.1174 20.86 18.0283C21.0053 17.883 20.9866 17.5924 20.8319 17.4705C20.7147 17.3768 20.6491 17.3721 19.81 17.3768C19.3178 17.3768 18.8678 17.3955 18.8116 17.4189Z" fill="white"/>
<path d="M11.5976 18.5814C11.5461 18.5861 11.2132 18.8861 10.8617 19.2377C10.3742 19.7252 10.2148 19.9174 10.1914 20.0346C10.1586 20.1846 10.182 20.2127 10.857 20.8924C11.6164 21.6471 11.6961 21.6939 11.9257 21.483C12.0382 21.3846 12.0664 21.3002 12.0523 21.108C12.0523 21.0611 11.9304 20.8971 11.7851 20.7471L11.5226 20.4705L13.2664 20.4564L15.0101 20.4424L15.0992 20.3299C15.2211 20.1799 15.2164 19.9455 15.0804 19.8189C14.9726 19.7158 14.9539 19.7158 13.2195 19.7158H11.4664L11.7617 19.4158C12.0148 19.158 12.057 19.0924 12.057 18.9471C12.057 18.6799 11.8789 18.5392 11.5976 18.5814Z" fill="white"/>
<path d="M3.11779 19.0361C2.9631 19.1861 2.95841 19.4252 3.10841 19.5658C3.21622 19.6689 3.23966 19.6689 4.88029 19.6689C6.49279 19.6689 6.54904 19.6643 6.64747 19.5752C6.80216 19.4299 6.7881 19.1439 6.62872 19.0174C6.50685 18.9236 6.4506 18.9189 4.86622 18.9189H3.23029L3.11779 19.0361Z" fill="white"/>
<path d="M18.8116 18.9658C18.5913 19.0549 18.5444 19.3736 18.7272 19.5518C18.8397 19.6689 18.8444 19.6689 19.8053 19.6689C20.7053 19.6689 20.771 19.6643 20.86 19.5752C21.0053 19.4299 20.9866 19.1393 20.8319 19.0174C20.7147 18.9236 20.6491 18.9189 19.81 18.9236C19.3178 18.9236 18.8678 18.9424 18.8116 18.9658Z" fill="white"/>
<path d="M3.11779 20.583C2.9631 20.733 2.95841 20.9721 3.10841 21.1127C3.21622 21.2158 3.23966 21.2158 4.88029 21.2158C6.49279 21.2158 6.54904 21.2111 6.64747 21.1221C6.80216 20.9768 6.7881 20.6908 6.62872 20.5643C6.50685 20.4705 6.4506 20.4658 4.86622 20.4658H3.23029L3.11779 20.583Z" fill="white"/>
<path d="M18.8116 20.5127C18.5913 20.6018 18.5444 20.9205 18.7272 21.0986C18.835 21.2111 18.8678 21.2158 19.3975 21.2158C19.9178 21.2158 19.96 21.2111 20.0538 21.108C20.1944 20.958 20.1897 20.7283 20.0397 20.583C19.9319 20.4705 19.8991 20.4658 19.421 20.4705C19.1444 20.4705 18.8678 20.4893 18.8116 20.5127Z" fill="white"/>
</svg>
