<svg width="24" height="25" viewBox="0 0 24 25" fill="none" xmlns="http://www.w3.org/2000/svg">
<path d="M10.4749 0.325628C8.64655 0.56476 6.95415 1.18838 5.42115 2.18711C4.7742 2.60911 4.66169 2.80604 4.87265 3.14833C4.98985 3.34057 5.24301 3.42028 5.45397 3.3312C5.53367 3.29837 5.77745 3.14833 5.99779 3.00298C6.41503 2.72164 7.69487 2.06989 8.17305 1.90109L8.44965 1.79793L8.08398 2.18711C7.31045 3.00766 6.66349 4.00171 6.13374 5.1833C5.97904 5.53028 5.82902 5.86319 5.7962 5.92414C5.7587 6.00385 5.60399 6.09294 5.27114 6.23361C3.94441 6.78221 2.80521 7.49961 1.92854 8.33891L1.53943 8.71402L1.63788 8.43269C1.82071 7.93098 2.46767 6.66499 2.77239 6.21017C2.94116 5.96634 3.08649 5.71783 3.10056 5.65688C3.15213 5.47401 3.05368 5.23019 2.88959 5.13172C2.54736 4.92072 2.35046 5.03326 1.92854 5.68032C0.887785 7.27923 0.24083 9.08913 0.0392428 10.9787C-0.0404545 11.7665 0.00642624 13.5389 0.133004 14.2422C0.358032 15.4988 0.681509 16.4976 1.21595 17.5807C1.81134 18.7857 2.42547 19.6532 3.39591 20.6472C5.06017 22.3586 7.07605 23.4887 9.3732 23.9998C10.2124 24.1826 10.9812 24.2623 11.9985 24.2623C13.4612 24.2623 14.516 24.0935 15.8615 23.6481C16.6257 23.3949 17.5492 22.9682 18.2337 22.5509C19.7854 21.6084 21.3465 20.047 22.2889 18.495C23.1374 17.1071 23.7281 15.4004 23.9297 13.7593C24.0234 12.995 24.0234 11.5227 23.9297 10.7584C23.6531 8.52647 22.7248 6.36021 21.3044 4.63939C20.8637 4.10486 19.9636 3.21397 19.4666 2.82011C17.7789 1.48378 15.6458 0.592894 13.4987 0.325628C12.7861 0.241228 11.1453 0.241228 10.4749 0.325628ZM12.983 1.4744C14.1082 1.79325 15.2099 2.69351 16.1006 4.02984C16.41 4.49873 16.9913 5.54903 16.9538 5.58186C16.9444 5.59123 16.6116 5.52559 16.2131 5.4365C14.7692 5.11297 13.63 4.99106 11.9985 4.99106C10.1467 4.99106 9.20443 5.10828 7.13699 5.58654C7.02916 5.60999 7.02916 5.60999 7.10417 5.43181C7.35733 4.82226 8.0746 3.70631 8.59498 3.11082C9.37789 2.20587 10.4374 1.55411 11.3985 1.38062C11.7782 1.31498 12.5798 1.36187 12.983 1.4744ZM16.2647 2.08396C17.7133 2.66069 19.3541 3.87042 20.4464 5.17392C21.1075 5.96165 21.8435 7.16669 22.167 7.98256C22.2232 8.11385 22.3076 8.33422 22.3639 8.4702L22.4576 8.71402L22.092 8.36236C21.8857 8.16542 21.6091 7.91691 21.4684 7.80438C20.7746 7.25578 19.551 6.55714 18.679 6.21017C18.4728 6.13045 18.2805 6.03668 18.2524 6.00854C18.2196 5.97572 18.1071 5.74128 17.9993 5.48808C17.4414 4.16582 16.7569 3.08269 15.9131 2.18711L15.5474 1.79793L15.7912 1.8964C15.9224 1.94798 16.1334 2.03238 16.2647 2.08396ZM13.8128 6.04605C14.9755 6.16328 15.7631 6.31332 16.8366 6.6181L17.432 6.7869L17.5492 7.14325C18.2993 9.41267 18.4962 12.6245 18.0461 15.2972C17.8821 16.2678 17.5445 17.5526 17.4179 17.6838C17.2773 17.8386 15.3786 18.2793 14.2488 18.4247C13.7331 18.4903 13.6487 18.5138 13.5362 18.6216C13.3487 18.7998 13.3487 19.128 13.5362 19.3156C13.6628 19.4422 13.6675 19.4469 14.1316 19.4187C14.6426 19.3859 15.6458 19.2218 16.4334 19.0342C16.71 18.9686 16.9444 18.9217 16.9538 18.9311C16.9866 18.9686 16.4194 20.0048 16.1006 20.4878C15.4114 21.524 14.6801 22.2274 13.7894 22.7009C13.1377 23.0526 12.7252 23.1558 11.9985 23.1558C11.2766 23.1558 10.9906 23.0854 10.2874 22.7384C9.3732 22.2836 8.61842 21.5709 7.89646 20.4878C7.57767 20.0048 7.01041 18.9686 7.04323 18.9311C7.0526 18.9217 7.28701 18.9686 7.5636 19.0342C8.3512 19.2218 9.35445 19.3859 9.86545 19.4187C10.3296 19.4469 10.3343 19.4422 10.4655 19.3156C10.6484 19.128 10.6484 18.7998 10.4655 18.6216C10.3483 18.5138 10.2639 18.4903 9.74825 18.4247C8.61842 18.2793 6.71975 17.8386 6.57911 17.6838C6.45722 17.5526 6.1103 16.249 5.95091 15.3066C5.64149 13.4685 5.63212 11.2601 5.92747 9.34702C6.02123 8.75153 6.28376 7.62621 6.44784 7.14325L6.56504 6.78221L7.25419 6.58996C8.26682 6.30863 9.18568 6.13983 10.3343 6.0273C10.9859 5.96165 13.0955 5.97103 13.8128 6.04605ZM5.34146 7.34956C5.34146 7.3777 5.31802 7.48085 5.29458 7.56994C5.09768 8.23107 4.86796 9.60491 4.7742 10.6599C4.70388 11.4758 4.74607 13.8718 4.84452 14.5939C4.94766 15.3488 5.09299 16.1459 5.23363 16.7039C5.29926 16.9711 5.34146 17.1962 5.32739 17.2103C5.2852 17.2525 4.3007 16.7179 3.77095 16.3663C2.42079 15.466 1.53943 14.3829 1.20657 13.2107C1.05656 12.6902 1.05656 11.8274 1.20657 11.3023C1.61912 9.85811 2.82865 8.58274 4.74607 7.56994C5.30864 7.26985 5.34146 7.25578 5.34146 7.34956ZM19.0869 7.48085C20.7043 8.29202 21.9091 9.37984 22.4951 10.5521C22.7952 11.1522 22.8936 11.5742 22.8936 12.2588C22.8936 12.934 22.8233 13.2435 22.5467 13.839C22.0966 14.8049 21.3512 15.616 20.2261 16.3663C19.6963 16.7179 18.7119 17.2525 18.6697 17.2103C18.6556 17.1962 18.6978 16.9711 18.7681 16.7039C18.9041 16.1553 19.0916 15.0956 19.1807 14.3688C19.265 13.703 19.265 10.8146 19.1807 10.1488C19.0916 9.42204 18.9041 8.36236 18.7728 7.8372C18.6509 7.35894 18.6368 7.2886 18.679 7.2886C18.6931 7.2886 18.8759 7.3777 19.0869 7.48085ZM2.59893 16.7648C3.35371 17.3462 4.33352 17.9042 5.29458 18.3028C5.5993 18.4294 5.7587 18.5231 5.7962 18.5982C5.82902 18.6544 5.97904 18.9873 6.13374 19.3343C6.66349 20.5159 7.31045 21.51 8.08398 22.3305L8.44965 22.7197L8.20587 22.6212C8.0746 22.5696 7.85427 22.4852 7.723 22.429C6.90727 22.1054 5.70244 21.3693 4.91484 20.7082C3.61156 19.6157 2.40203 17.9745 1.8254 16.5257C1.77383 16.3944 1.68945 16.1834 1.63319 16.0474L1.53943 15.8036L1.92854 16.1787C2.14419 16.3803 2.44423 16.6476 2.59893 16.7648ZM22.3592 16.0568C22.3076 16.1834 22.2232 16.3944 22.1716 16.5257C21.595 17.9745 20.3855 19.6157 19.0822 20.7082C18.2993 21.3646 17.0898 22.1054 16.2881 22.4243C16.1568 22.4759 15.9412 22.565 15.8006 22.6165L15.5474 22.7197L15.9131 22.3305C16.7569 21.4349 17.4414 20.3518 17.9993 19.0295C18.1071 18.7763 18.2196 18.5419 18.2524 18.5138C18.2805 18.4856 18.4306 18.4153 18.5853 18.3543C18.9931 18.1996 20.0808 17.6557 20.4605 17.4166C21.009 17.0696 21.6138 16.6101 22.031 16.2068C22.2513 15.9958 22.4342 15.827 22.4389 15.8224C22.4482 15.8224 22.4107 15.9255 22.3592 16.0568Z" fill="white"/>
<path d="M16.4334 9.56744C16.335 9.6659 16.3115 9.73624 16.3115 9.91441C16.3115 10.0926 16.335 10.1629 16.4334 10.2614C16.5319 10.3599 16.6022 10.3833 16.7804 10.3833C16.9586 10.3833 17.0289 10.3599 17.1274 10.2614C17.2259 10.1629 17.2493 10.0926 17.2493 9.91441C17.2493 9.73624 17.2259 9.6659 17.1274 9.56744C17.0289 9.46897 16.9586 9.44553 16.7804 9.44553C16.6022 9.44553 16.5319 9.46897 16.4334 9.56744Z" fill="white"/>
<path d="M6.87468 10.5053C6.69653 10.6834 6.69653 11.021 6.86999 11.1992L6.99657 11.3211H7.80761H8.62333V11.79V12.2589H7.89668C7.18878 12.2589 7.16065 12.2636 7.05283 12.3714C6.84186 12.5824 6.84186 12.8731 7.05283 13.0841C7.16065 13.192 7.18878 13.1967 7.89668 13.1967H8.62333V13.6656V14.1344H7.80761H6.99657L6.86999 14.2564C6.69653 14.4345 6.69653 14.7721 6.87468 14.9503L7.00126 15.0769L8.03732 15.0628L9.07808 15.0488L9.24216 14.9222C9.56095 14.6784 9.56095 14.6737 9.56095 12.7278C9.56095 10.7819 9.56095 10.7772 9.24216 10.5334L9.07808 10.4068L8.03732 10.3927L7.00126 10.3787L6.87468 10.5053Z" fill="white"/>
<path d="M10.5548 10.4629C10.4704 10.5051 10.3438 10.6129 10.2735 10.702L10.1469 10.8661L10.1329 12.6666C10.1188 14.6782 10.1188 14.6735 10.4423 14.922L10.6063 15.0486H11.5299H12.4535L12.6175 14.922C12.9035 14.7016 12.9363 14.575 12.9363 13.6654C12.9363 12.7557 12.9035 12.6291 12.6175 12.4087C12.4581 12.2868 12.43 12.2821 11.7549 12.2681L11.0611 12.254V11.7851V11.3209H11.8768H12.6879L12.8144 11.199C12.9879 11.0208 12.9879 10.6832 12.8144 10.5051L12.6879 10.3832H11.6987C10.8783 10.3832 10.6814 10.3972 10.5548 10.4629ZM11.9987 13.6654V14.1343H11.5299H11.0611V13.6654V13.1965H11.5299H11.9987V13.6654Z" fill="white"/>
<path d="M13.93 10.4582C13.8456 10.5051 13.7191 10.6129 13.6487 10.702L13.5222 10.8661L13.5081 12.6666C13.494 14.6782 13.494 14.6735 13.8175 14.922L13.9816 15.0486H14.9051H15.8287L15.9928 14.922C16.3116 14.6782 16.3116 14.6735 16.3116 12.7276C16.3116 10.7817 16.3116 10.777 15.9928 10.5332C15.8287 10.4066 15.8193 10.4066 14.9567 10.3925C14.2207 10.3832 14.0613 10.3925 13.93 10.4582ZM15.374 12.7276V14.1343H14.9051H14.4363V12.7276V11.3209H14.9051H15.374V12.7276Z" fill="white"/>
<path d="M11.6517 18.7106C11.5532 18.8091 11.5298 18.8794 11.5298 19.0576C11.5298 19.3671 11.6892 19.5265 11.9987 19.5265C12.3081 19.5265 12.4676 19.3671 12.4676 19.0576C12.4676 18.8794 12.4441 18.8091 12.3456 18.7106C12.2472 18.6122 12.1768 18.5887 11.9987 18.5887C11.8205 18.5887 11.7502 18.6122 11.6517 18.7106Z" fill="white"/>
<path d="M3.49911 3.76259C3.24591 4.02516 3.38189 4.51281 3.72417 4.57845C4.21651 4.67692 4.53535 4.10019 4.18368 3.75321C4.00551 3.57503 3.6726 3.57972 3.49911 3.76259Z" fill="white"/>
</svg>
