<svg width="23" height="23" viewBox="0 0 23 23" fill="none" xmlns="http://www.w3.org/2000/svg">
<path d="M1.13284 0.363445C1.02972 0.41032 0.879719 0.52282 0.795344 0.607195C0.490657 0.925945 0.500032 0.855633 0.500032 3.65876C0.500032 6.49938 0.490657 6.40563 0.832844 6.72907C1.15159 7.03376 1.08128 7.02438 3.88441 7.02438C6.72503 7.02438 6.63128 7.03376 6.95472 6.69157C7.25472 6.37282 7.25003 6.44313 7.25003 3.64938C7.25003 0.855633 7.25472 0.925945 6.95472 0.607195C6.63128 0.265008 6.72503 0.274383 3.87503 0.274383C1.48441 0.274383 1.30628 0.283758 1.13284 0.363445ZM6.23753 1.09001C6.34534 1.1322 6.41097 1.20251 6.44847 1.30563C6.52347 1.52126 6.52347 5.77751 6.44847 5.99313C6.35003 6.2697 6.32191 6.27438 3.88441 6.27438C2.36566 6.27438 1.63909 6.25563 1.53128 6.22282C1.25472 6.12438 1.25003 6.09626 1.25003 3.65876C1.25003 2.14001 1.26878 1.41345 1.30159 1.30563C1.40003 1.02907 1.41409 1.02907 3.86566 1.02438C5.65628 1.02438 6.11097 1.03845 6.23753 1.09001Z" fill="white"/>
<path d="M3.5 1.78848V2.18223L3.30313 2.23848C3.03594 2.32285 2.54844 2.81035 2.46406 3.07754L2.40781 3.27441H2.01406H1.625V3.64941V4.02441H2.01406H2.40781L2.46406 4.22129C2.54844 4.48848 3.03594 4.97598 3.30313 5.06035L3.5 5.1166V5.51035V5.89941H3.875H4.25V5.51035V5.1166L4.45156 5.05098C4.72344 4.9666 5.20625 4.48379 5.28594 4.22129L5.34219 4.02441H5.73594H6.125V3.64941V3.27441H5.73594H5.34219L5.28594 3.07754C5.20156 2.81035 4.71406 2.32285 4.44688 2.23848L4.25 2.18223V1.78848V1.39941H3.875H3.5V1.78848ZM4.24063 3.04004C4.85 3.41035 4.5875 4.35254 3.875 4.35254C3.74844 4.35254 3.60313 4.31504 3.50938 4.25879C2.9 3.88848 3.1625 2.94629 3.875 2.94629C4.00156 2.94629 4.14688 2.98379 4.24063 3.04004Z" fill="white"/>
<path d="M16.8828 0.363445C16.7797 0.41032 16.6297 0.52282 16.5453 0.607195C16.2407 0.925945 16.25 0.855633 16.25 3.65876C16.25 6.49938 16.2407 6.40563 16.5828 6.72907C16.9016 7.03376 16.8313 7.02438 19.6344 7.02438C22.475 7.02438 22.3813 7.03376 22.7047 6.69157C23.0047 6.37282 23 6.44313 23 3.64938C23 0.855633 23.0047 0.925945 22.7047 0.607195C22.3813 0.265008 22.475 0.274383 19.625 0.274383C17.2344 0.274383 17.0563 0.283758 16.8828 0.363445ZM21.9875 1.09001C22.0953 1.1322 22.161 1.20251 22.1985 1.30563C22.2735 1.52126 22.2735 5.77751 22.1985 5.99313C22.1 6.2697 22.0719 6.27438 19.6344 6.27438C18.1157 6.27438 17.3891 6.25563 17.2813 6.22282C17.0047 6.12438 17 6.09626 17 3.65876C17 2.14001 17.0188 1.41345 17.0516 1.30563C17.15 1.02907 17.1641 1.02907 19.6157 1.02438C21.4063 1.02438 21.861 1.03845 21.9875 1.09001Z" fill="white"/>
<path d="M17.75 2.14941V2.52441H19.625H21.5V2.14941V1.77441H19.625H17.75V2.14941Z" fill="white"/>
<path d="M17.75 3.64941V4.02441H19.625H21.5V3.64941V3.27441H19.625H17.75V3.64941Z" fill="white"/>
<path d="M17.75 5.14941V5.52441H19.625H21.5V5.14941V4.77441H19.625H17.75V5.14941Z" fill="white"/>
<path d="M13.6016 2.14941L13.325 2.43066L13.7422 2.85254L14.1641 3.27441H11.0797H8V3.64941V4.02441H11.0797H14.1641L13.7422 4.44629L13.3203 4.86816L13.6156 5.15879L13.9062 5.4541L14.6609 4.7041C15.4625 3.90723 15.5797 3.74316 15.4953 3.52285C15.4531 3.41035 13.9719 1.86816 13.9062 1.86816C13.8922 1.86816 13.7563 1.99473 13.6016 2.14941Z" fill="white"/>
<path d="M9.79065 7.5166C9.07815 7.76035 8.58596 8.18691 8.25784 8.84785C8.06096 9.23223 8.00003 9.52754 8.00003 10.0854V10.5916L8.25784 10.8682L8.52034 11.14L8.35159 11.2338C8.07034 11.4025 8.00003 11.576 8.00003 12.0869C8.00003 12.4479 8.01878 12.5604 8.09378 12.6869C8.24378 12.9307 8.44065 13.0244 8.80628 13.0244C9.11565 13.0244 9.12503 13.0291 9.15315 13.151C9.27503 13.7135 9.52346 14.1588 9.92659 14.5479L10.25 14.8619V15.3354L10.2453 15.8135L9.59846 16.2916L8.95159 16.7744H8.14534C7.25003 16.7744 7.11409 16.8072 6.83284 17.0697C6.49065 17.3932 6.50003 17.3041 6.50003 20.0885C6.50003 22.526 6.50003 22.5869 6.59378 22.6807C6.68753 22.7744 6.74846 22.7744 11.75 22.7744C16.7516 22.7744 16.8125 22.7744 16.9063 22.6807C17 22.5869 17 22.526 17 20.0885C17 17.3041 17.0094 17.3932 16.6672 17.0697C16.386 16.8072 16.25 16.7744 15.3547 16.7744H14.5485L13.9016 16.2916L13.2547 15.8135L13.25 15.3354V14.8619L13.5735 14.5479C13.9766 14.1588 14.225 13.7135 14.3469 13.151C14.375 13.0291 14.3844 13.0244 14.6938 13.0244C15.0594 13.0244 15.2563 12.9307 15.4063 12.6869C15.4813 12.5604 15.5 12.4479 15.5 12.0869C15.5 11.576 15.4297 11.4025 15.1485 11.2338L14.9797 11.14L15.2422 10.8682L15.5 10.5916V10.0713C15.5 9.47129 15.3828 9.03066 15.1063 8.6041C14.7781 8.08848 14.2953 7.71816 13.7047 7.5166C13.3531 7.39941 13.3391 7.39941 11.7406 7.39941C10.1516 7.4041 10.1281 7.4041 9.79065 7.5166ZM13.1094 8.19629C13.9766 8.33223 14.6 8.9791 14.7078 9.85098L14.75 10.1885L14.5625 10.376L14.375 10.5635V10.3854C14.375 10.2775 14.3422 10.1791 14.2906 10.1275C14.1969 10.0338 11.2625 9.27441 11 9.27441C10.8219 9.27441 9.19534 10.0807 9.15315 10.1885C9.13909 10.2307 9.12503 10.3338 9.12503 10.4135V10.5635L8.93753 10.376L8.75003 10.1885L8.79221 9.85098C8.90003 8.99785 9.52346 8.33691 10.3438 8.20098C10.7047 8.14473 12.7438 8.14004 13.1094 8.19629ZM12.336 10.39L13.6016 10.7088L13.6156 11.576C13.6297 12.5744 13.5781 13.0807 13.4141 13.4322C13.2641 13.7604 12.8563 14.1682 12.5141 14.3275C12.2703 14.44 12.186 14.4541 11.75 14.4541C11.3141 14.4541 11.2297 14.44 10.986 14.3275C10.6485 14.1682 10.236 13.7604 10.086 13.4322C9.9219 13.0807 9.87503 12.6682 9.87503 11.5947V10.6572L10.4516 10.3666C10.7656 10.2072 11.0328 10.076 11.0469 10.076C11.061 10.076 11.6422 10.2166 12.336 10.39ZM9.12503 12.0869V12.2744H8.93753H8.75003V12.0869V11.8994H8.93753H9.12503V12.0869ZM14.75 12.0869V12.2744H14.5625H14.375V12.0869V11.8994H14.5625H14.75V12.0869ZM11.75 15.2744C11.9703 15.2744 12.2281 15.2557 12.3266 15.2322L12.5 15.19V15.6916C12.5 15.9635 12.5188 16.2166 12.5375 16.2447C12.5563 16.2775 12.8094 16.4791 13.1 16.6947C13.4891 16.99 13.611 17.1025 13.5688 17.1354C13.536 17.1635 13.1141 17.4072 12.6313 17.6838L11.75 18.1854L10.9203 17.7072C10.461 17.4447 10.0391 17.201 9.97815 17.1635C9.87034 17.0979 9.87503 17.0885 10.3953 16.6994C10.686 16.4838 10.9438 16.2775 10.9625 16.2447C10.9813 16.2166 11 15.9635 11 15.6916V15.19L11.1781 15.2322C11.2719 15.2557 11.5297 15.2744 11.75 15.2744ZM8.7969 17.5385C8.7969 17.5479 8.93284 18.2369 9.10159 19.0713C9.43909 20.7541 9.46721 20.8244 9.87034 21.1104L10.0719 21.251H11.75H13.4281L13.6297 21.1104C14.0328 20.8244 14.061 20.7541 14.3985 19.0713C14.5672 18.2369 14.7031 17.5479 14.7031 17.5385C14.7031 17.5291 14.9563 17.5244 15.2656 17.5244C15.936 17.5244 16.1188 17.5807 16.1985 17.8057C16.2313 17.9135 16.25 18.5979 16.25 19.99V22.0244H11.75H7.25003V19.99C7.25003 18.5979 7.26878 17.9135 7.30159 17.8057C7.38128 17.5807 7.55003 17.5291 8.22503 17.5244C8.53909 17.5244 8.7969 17.5291 8.7969 17.5385ZM10.8828 18.6213C11.3985 18.9166 11.6281 19.0244 11.75 19.0244C11.8719 19.0244 12.1485 18.8932 12.8516 18.49C13.3672 18.1947 13.7938 17.9557 13.7985 17.9604C13.8172 17.9838 13.3438 20.2525 13.3016 20.3322C13.2125 20.4963 13.0016 20.5244 11.7406 20.5244C10.3672 20.5244 10.25 20.501 10.1656 20.2338C10.1375 20.1494 10.0297 19.6385 9.9219 19.0947C9.81409 18.551 9.71565 18.0729 9.70159 18.0213C9.68284 17.9463 9.71096 17.9557 9.92659 18.0775C10.0672 18.1572 10.4985 18.401 10.8828 18.6213Z" fill="white"/>
<path d="M3.05938 8.38379L2.44531 8.99316L2.73594 9.28379L3.03125 9.5791L3.45312 9.15723L3.875 8.73535L4.29688 9.15723L4.71875 9.5791L5.01406 9.28379L5.30469 8.99316L4.69063 8.38379C4.09531 7.78848 4.07188 7.77441 3.875 7.77441C3.67813 7.77441 3.65469 7.78848 3.05938 8.38379Z" fill="white"/>
<path d="M18.4766 8.14941L18.1953 8.43535L18.8094 9.04004C19.4047 9.63535 19.4281 9.64941 19.625 9.64941C19.8219 9.64941 19.8453 9.63535 20.4406 9.04004L21.0547 8.43066L20.7641 8.14004L20.4688 7.84473L20.0469 8.2666L19.625 8.68848L19.2125 8.27598C18.9875 8.05098 18.7906 7.86816 18.7766 7.86816C18.7672 7.86816 18.6313 7.99473 18.4766 8.14941Z" fill="white"/>
<path d="M1.13284 10.1134C1.02972 10.1603 0.879719 10.2728 0.795344 10.3572C0.490657 10.6759 0.500032 10.6056 0.500032 13.4088C0.500032 16.2494 0.490657 16.1556 0.832844 16.4791C1.15159 16.7838 1.08128 16.7744 3.88441 16.7744C6.72503 16.7744 6.63128 16.7838 6.95472 16.4416C7.25472 16.1228 7.25003 16.1931 7.25003 13.3994C7.25003 10.6056 7.25472 10.6759 6.95472 10.3572C6.63128 10.015 6.72503 10.0244 3.87503 10.0244C1.48441 10.0244 1.30628 10.0338 1.13284 10.1134ZM6.23753 10.84C6.34534 10.8822 6.41097 10.9525 6.44847 11.0556C6.52347 11.2713 6.52347 15.5275 6.44847 15.7431C6.35003 16.0197 6.32191 16.0244 3.88441 16.0244C2.36566 16.0244 1.63909 16.0056 1.53128 15.9728C1.25472 15.8744 1.25003 15.8463 1.25003 13.4088C1.25003 11.89 1.26878 11.1634 1.30159 11.0556C1.40003 10.7791 1.41409 10.7791 3.86566 10.7744C5.65628 10.7744 6.11097 10.7884 6.23753 10.84Z" fill="white"/>
<path d="M2 13.3994V13.7744H2.375H2.75V13.3994V13.0244H2.375H2V13.3994Z" fill="white"/>
<path d="M3.5 13.3994V13.7744H3.875H4.25V13.3994V13.0244H3.875H3.5V13.3994Z" fill="white"/>
<path d="M5 13.3994V13.7744H5.375H5.75V13.3994V13.0244H5.375H5V13.3994Z" fill="white"/>
<path d="M16.8828 10.1134C16.7797 10.1603 16.6297 10.2728 16.5453 10.3572C16.2407 10.6759 16.25 10.6056 16.25 13.4088C16.25 16.2494 16.2407 16.1556 16.5828 16.4791C16.9016 16.7838 16.8313 16.7744 19.6344 16.7744C22.475 16.7744 22.3813 16.7838 22.7047 16.4416C23.0047 16.1228 23 16.1931 23 13.3994C23 10.6056 23.0047 10.6759 22.7047 10.3572C22.3813 10.015 22.475 10.0244 19.625 10.0244C17.2344 10.0244 17.0563 10.0338 16.8828 10.1134ZM21.9875 10.84C22.0953 10.8822 22.161 10.9525 22.1985 11.0556C22.2735 11.2713 22.2735 15.5275 22.1985 15.7431C22.1 16.0197 22.0719 16.0244 19.6344 16.0244C18.1157 16.0244 17.3891 16.0056 17.2813 15.9728C17.0047 15.8744 17 15.8463 17 13.4088C17 11.89 17.0188 11.1634 17.0516 11.0556C17.15 10.7791 17.1641 10.7791 19.6157 10.7744C21.4063 10.7744 21.861 10.7884 21.9875 10.84Z" fill="white"/>
<path d="M20.2109 12.6025C19.6672 13.1463 19.1984 13.5775 19.1703 13.5635C19.1375 13.5541 18.8563 13.3525 18.5469 13.1182C18.2422 12.8885 17.9797 12.6963 17.9703 12.6963C17.9469 12.6963 17.5156 13.2916 17.5156 13.3244C17.5156 13.3385 17.8672 13.615 18.2984 13.9385C18.9969 14.4635 19.0953 14.5244 19.2688 14.5244C19.4516 14.5244 19.4844 14.4963 20.6328 13.3525L21.8047 12.1807L21.5234 11.8994C21.3688 11.7447 21.2328 11.6182 21.2188 11.6182C21.2047 11.6182 20.75 12.0635 20.2109 12.6025Z" fill="white"/>
</svg>
