<svg width="25" height="25" viewBox="0 0 25 25" fill="none" xmlns="http://www.w3.org/2000/svg">
<path d="M0.87035 0.370995C0.785975 0.427246 0.6641 0.54912 0.60785 0.633495L0.500038 0.79287V3.17881C0.500038 5.77568 0.490663 5.68193 0.767225 5.94912C0.968788 6.13662 1.14223 6.16943 1.99066 6.16943C2.74066 6.16943 2.75473 6.16943 2.86723 6.05225C3.02191 5.90224 3.0266 5.66318 2.8766 5.52256C2.77348 5.42412 2.72191 5.41943 2.03285 5.41943C1.35785 5.41943 1.29691 5.41475 1.25004 5.33037C1.22191 5.26943 1.20316 4.51006 1.20316 3.17412C1.20316 1.36475 1.21254 1.10693 1.27816 1.04131C1.34379 0.975683 1.6016 0.966309 3.44848 0.966309C5.16879 0.966309 5.56254 0.975683 5.60473 1.03193C5.64223 1.07412 5.6516 1.69756 5.64691 3.24443L5.63285 5.396L4.84535 5.41943C4.07191 5.44287 4.05316 5.44756 3.95941 5.56006C3.8891 5.64443 3.87504 5.71474 3.89379 5.83662C3.94066 6.13662 3.96879 6.146 4.94848 6.146C5.82504 6.146 5.82973 6.146 6.01723 6.01943C6.3641 5.78975 6.40629 5.63037 6.40629 4.53818V3.59131H7.97191H9.54223L9.55629 4.61318L9.57035 5.63975L9.70629 5.81318C9.97816 6.17412 9.94066 6.16943 12.5 6.16943C15.0594 6.16943 15.0219 6.17412 15.2938 5.81318L15.4297 5.63975L15.4438 4.61318L15.4579 3.59131H17.0282H18.5938V4.53818C18.5938 5.64912 18.6313 5.78975 18.9735 6.01475L19.1704 6.146L20.1735 6.16006L21.1719 6.17412V7.74443V9.31006H20.2157C19.2219 9.31006 19.0766 9.3335 18.8797 9.51162C18.6313 9.74131 18.5938 9.91006 18.5938 10.9366V11.8882H18.1016H17.6094V11.6726C17.6094 11.2319 17.3282 10.9507 16.8875 10.9507C16.7235 10.9507 16.6625 10.9319 16.6391 10.8663C16.625 10.8241 16.5641 10.6741 16.5032 10.5335L16.386 10.2757L16.5266 10.1351C16.7141 9.9335 16.7657 9.81631 16.7657 9.57725C16.7657 9.31475 16.6485 9.15068 16.0063 8.52725C15.6219 8.15693 15.4766 8.04443 15.3407 8.021C15.0829 7.96943 14.8813 8.03037 14.6704 8.2085L14.4782 8.37256L14.2297 8.26006C14.0891 8.19912 13.9391 8.13818 13.8969 8.12412C13.8313 8.10068 13.8125 8.03975 13.8125 7.84756C13.8125 7.54287 13.7 7.34131 13.4704 7.2335C13.3391 7.16787 13.1563 7.15381 12.5 7.15381C11.7594 7.15381 11.6797 7.16318 11.511 7.25693C11.2954 7.37881 11.1875 7.58506 11.1875 7.87568C11.1875 8.03975 11.1688 8.10068 11.1079 8.12412C11.061 8.13818 10.911 8.19912 10.7704 8.26006L10.5125 8.37725L10.3719 8.23662C10.1704 8.04912 10.0532 7.99756 9.8141 7.99756C9.5516 7.99756 9.38754 8.11475 8.7641 8.75693C8.39379 9.14131 8.28129 9.28662 8.25785 9.42256C8.20629 9.68037 8.26723 9.88193 8.44535 10.0929L8.60941 10.2851L8.49691 10.5335C8.43598 10.6741 8.37504 10.8241 8.36098 10.8663C8.33754 10.9319 8.2766 10.9507 8.08441 10.9507C7.64379 10.9507 7.39066 11.2132 7.39066 11.6726V11.8882H6.89848H6.40629V10.9366C6.40629 9.8585 6.36879 9.7085 6.05004 9.46943L5.8766 9.3335L3.49066 9.31943C1.1891 9.31006 1.10473 9.31006 0.9266 9.40381C0.823475 9.45537 0.692225 9.56318 0.631288 9.64756L0.523475 9.80225V12.2632V14.7241L0.631288 14.8788C0.8516 15.1835 0.987538 15.2163 2.09379 15.2163H3.07816V16.7866V18.3569H2.15004C1.64379 18.3569 1.1516 18.3757 1.06723 18.4038C0.884413 18.4554 0.6641 18.6429 0.565663 18.8351C0.5141 18.9288 0.500038 19.1726 0.500038 19.8288V20.696L0.621913 20.7897C0.781288 20.9163 0.921913 20.9163 1.08129 20.7897L1.20316 20.696V19.9788C1.20316 19.4819 1.22191 19.2429 1.25941 19.1866C1.31566 19.1116 1.4891 19.1069 3.4766 19.1163L5.63285 19.1304L5.64691 21.2866C5.65629 23.2741 5.6516 23.4476 5.5766 23.4991C5.51566 23.546 5.00941 23.5601 3.42504 23.5601C1.6016 23.5601 1.34379 23.5507 1.27816 23.4851C1.21723 23.4241 1.20316 23.2835 1.20316 22.6882C1.20316 22.0272 1.19379 21.9569 1.10941 21.8726C1.05316 21.8163 0.954725 21.7788 0.8516 21.7788C0.748475 21.7788 0.650038 21.8163 0.593788 21.8726C0.504725 21.9616 0.500038 22.0272 0.500038 22.8522C0.500038 23.6913 0.504725 23.7429 0.60785 23.8929C0.6641 23.9772 0.785975 24.0991 0.87035 24.1554L1.02973 24.2632H3.41566C5.37973 24.2632 5.82504 24.2491 5.92816 24.1976C6.12035 24.0991 6.30785 23.8788 6.35941 23.696C6.38754 23.6116 6.40629 23.1194 6.40629 22.6132V21.6851H7.9766H9.54691V22.6694C9.54691 23.7757 9.57973 23.9116 9.88441 24.1319L10.0391 24.2397H12.5H14.961L15.1157 24.1319C15.4204 23.9116 15.4532 23.7757 15.4532 22.6694V21.6851H15.9407C16.4141 21.6851 16.4329 21.6804 16.5266 21.5632C16.6391 21.4226 16.6485 21.3194 16.5735 21.1554C16.4938 20.9819 16.3391 20.9351 15.875 20.9351H15.4579L15.4438 19.9132L15.4297 18.8866L15.2938 18.7132C15.0219 18.3522 15.0594 18.3569 12.5 18.3569C10.3907 18.3569 10.2125 18.3663 10.0391 18.446C9.82348 18.5444 9.66879 18.6991 9.59848 18.8866C9.56566 18.9663 9.54691 19.4116 9.54691 19.9788V20.9351H7.9766H6.40629V19.9976C6.40629 18.821 6.35004 18.6476 5.9141 18.446C5.75004 18.371 5.60004 18.3569 4.77973 18.3569H3.82816V16.7913V15.221L4.85004 15.2069L5.8766 15.1929L6.05004 15.0569C6.36879 14.8179 6.40629 14.6679 6.40629 13.5851V12.6382H6.89848H7.39066V12.8538C7.39066 13.2944 7.67191 13.5757 8.11254 13.5757C8.2766 13.5757 8.33754 13.5944 8.36098 13.6554C8.37504 13.7022 8.43598 13.8522 8.49691 13.9929L8.6141 14.2507L8.47348 14.3913C8.28598 14.5929 8.23441 14.7101 8.23441 14.9491C8.23441 15.2116 8.3516 15.3757 8.99379 15.9991C9.37816 16.3694 9.52348 16.4819 9.65941 16.5054C9.91723 16.5569 10.1188 16.496 10.3297 16.3179L10.5219 16.1538L10.7704 16.2663C10.911 16.3272 11.061 16.3882 11.1079 16.4022C11.1688 16.4257 11.1875 16.4866 11.1875 16.6788C11.1875 16.9835 11.3 17.1851 11.5297 17.2929C11.661 17.3585 11.8438 17.3726 12.5 17.3726C13.2407 17.3726 13.3204 17.3632 13.4891 17.2694C13.7047 17.1476 13.8125 16.9413 13.8125 16.6507C13.8125 16.4866 13.8313 16.4257 13.8969 16.4022C13.9391 16.3882 14.0891 16.3272 14.2297 16.2663L14.4875 16.1491L14.6282 16.2897C14.8297 16.4772 14.9469 16.5288 15.186 16.5288C15.4485 16.5288 15.6125 16.4116 16.236 15.7694C16.6063 15.3851 16.7188 15.2397 16.7422 15.1038C16.7938 14.846 16.7329 14.6444 16.5547 14.4335L16.3907 14.2413L16.5032 13.9929C16.5641 13.8522 16.625 13.7022 16.6391 13.6554C16.6625 13.5944 16.7235 13.5757 16.9157 13.5757C17.3563 13.5757 17.6094 13.3132 17.6094 12.8538V12.6382H18.1016H18.5938V13.5851C18.5938 14.6679 18.6313 14.8179 18.95 15.0569L19.1235 15.1929L20.0094 15.2069L20.8907 15.221L21.0125 15.0991C21.1157 14.996 21.1297 14.9491 21.111 14.8038C21.0594 14.5038 21.0219 14.4944 20.15 14.4663L19.3672 14.4429V12.2632V10.0835L21.5422 10.0694C23.2532 10.0601 23.7266 10.0694 23.7594 10.1163C23.8016 10.1866 23.811 14.2788 23.7688 14.3913C23.7454 14.4569 23.6329 14.4663 22.9907 14.4663C22.2641 14.4663 22.2454 14.471 22.1329 14.5835C21.9782 14.7335 21.9735 14.9726 22.1235 15.1132C22.2266 15.2116 22.2735 15.2163 23.0657 15.2163C23.9985 15.2163 24.1532 15.1741 24.3688 14.8788L24.4766 14.7241V12.2632V9.80225L24.3688 9.64756C24.1485 9.34287 24.0125 9.31006 22.9063 9.31006H21.9219V7.73975V6.16943H22.85C23.3563 6.16943 23.8485 6.15068 23.9329 6.12256C24.1157 6.071 24.336 5.8835 24.4344 5.69131C24.486 5.58818 24.5 5.14287 24.5 3.17881V0.79287L24.3922 0.633495C24.336 0.54912 24.2141 0.427246 24.1297 0.370995L23.9704 0.263184H21.5844C19.6204 0.263184 19.175 0.277245 19.0719 0.328808C18.8797 0.427246 18.6922 0.647558 18.6407 0.83037C18.6125 0.914745 18.5938 1.40693 18.5938 1.91318V2.84131H17.0235H15.4532V1.85693C15.4532 0.750683 15.4204 0.614746 15.1157 0.394432L14.961 0.286621H12.5H10.0391L9.88441 0.394432C9.57973 0.614746 9.54691 0.750683 9.54691 1.85693V2.84131H7.9766H6.40629V1.91318C6.40629 1.40693 6.38754 0.914745 6.35941 0.83037C6.30785 0.647558 6.12035 0.427246 5.92816 0.328808C5.82504 0.277245 5.37973 0.263184 3.41566 0.263184H1.02973L0.87035 0.370995ZM14.6469 1.00381C14.6938 1.03662 14.7032 1.51006 14.6938 3.22099L14.6797 5.396H12.5H10.3204L10.3063 3.22099C10.2969 1.51006 10.3063 1.03662 10.3532 1.00381C10.386 0.985058 11.3516 0.966309 12.5 0.966309C13.6485 0.966309 14.6141 0.985058 14.6469 1.00381ZM23.7219 1.04131C23.7875 1.10693 23.7969 1.36475 23.7969 3.18818C23.7969 4.77256 23.7829 5.27881 23.7407 5.33974C23.6844 5.41475 23.511 5.41943 21.5235 5.41006L19.3672 5.396L19.3532 3.24443C19.3485 1.69756 19.3579 1.07412 19.3954 1.03193C19.4375 0.975683 19.8313 0.966309 21.5516 0.966309C23.3985 0.966309 23.6563 0.975683 23.7219 1.04131ZM13.0719 8.22725C13.0907 8.61631 13.161 8.71475 13.475 8.79443C13.5969 8.82256 13.8688 8.93037 14.0797 9.0335C14.586 9.27256 14.6704 9.27256 14.9469 8.996L15.1719 8.771L15.5797 9.1835L15.9922 9.59131L15.7672 9.81631C15.6219 9.96631 15.5469 10.0788 15.5469 10.1585C15.5469 10.2288 15.6313 10.4585 15.7297 10.6741C15.8329 10.8897 15.9407 11.1663 15.9735 11.2929C16.0485 11.6069 16.1844 11.7007 16.5594 11.7007H16.8594V12.2585V12.8163L16.536 12.8351C16.1469 12.8538 16.0485 12.9241 15.9688 13.2382C15.9407 13.3601 15.8329 13.6319 15.7297 13.8429C15.4907 14.3491 15.4907 14.4335 15.7672 14.7101L15.9922 14.9351L15.5797 15.3429L15.1719 15.7554L14.9469 15.5304C14.7969 15.3851 14.6844 15.3101 14.6047 15.3101C14.5344 15.3101 14.3047 15.3944 14.0891 15.4929C13.8735 15.596 13.5969 15.7038 13.4704 15.7366C13.1563 15.8116 13.0625 15.9476 13.0625 16.3226V16.6226H12.5047H11.9469L11.9282 16.2991C11.9094 15.9101 11.8391 15.8116 11.525 15.7319C11.4032 15.7038 11.1313 15.596 10.9204 15.4929C10.4141 15.2538 10.3297 15.2538 10.0532 15.5304L9.82816 15.7554L9.42035 15.3429L9.00785 14.9351L9.23285 14.7101C9.37816 14.5601 9.45316 14.4476 9.45316 14.3679C9.45316 14.2976 9.36879 14.0679 9.27035 13.8522C9.16723 13.6366 9.05941 13.3601 9.0266 13.2335C8.9516 12.9194 8.81566 12.8257 8.44066 12.8257H8.14066V12.2679V11.7101L8.4641 11.6913C8.85316 11.6726 8.9516 11.6022 9.03129 11.2882C9.05941 11.1663 9.16723 10.8944 9.27035 10.6835C9.50941 10.1772 9.50941 10.0929 9.23285 9.81631L9.00785 9.59131L9.42035 9.1835L9.82816 8.771L10.0532 8.996C10.2032 9.14131 10.3157 9.21631 10.3954 9.21631C10.4657 9.21631 10.6954 9.13193 10.911 9.0335C11.1266 8.93037 11.4032 8.82256 11.5297 8.78975C11.8438 8.71475 11.9375 8.57881 11.9375 8.20381V7.90381H12.4954H13.0532L13.0719 8.22725ZM5.63285 12.2632V14.4429L3.45785 14.4569C1.74691 14.4663 1.27348 14.4569 1.24066 14.4101C1.19848 14.3397 1.1891 10.2476 1.23129 10.1351C1.25941 10.0647 1.48441 10.0601 3.44848 10.0694L5.63285 10.0835V12.2632ZM14.6938 21.3054C14.7032 23.0163 14.6938 23.4897 14.6469 23.5226C14.5766 23.5647 10.4844 23.5741 10.3719 23.5319C10.3063 23.5085 10.2969 23.2694 10.2969 21.3382C10.2969 20.1429 10.311 19.1538 10.3297 19.1397C10.3438 19.121 11.3329 19.1116 12.5188 19.1163L14.6797 19.1304L14.6938 21.3054Z" fill="white"/>
<path d="M13.6391 1.82429C13.5829 1.85241 13.2313 2.27429 12.8516 2.7571L12.1673 3.63366L11.811 3.23522C11.6141 3.01491 11.4173 2.81804 11.3704 2.7946C11.2251 2.71491 11.047 2.74304 10.9204 2.8696C10.7095 3.08054 10.7751 3.23054 11.3985 3.9196C11.6985 4.2571 11.9845 4.55241 12.036 4.58054C12.2657 4.70241 12.3735 4.61335 13.147 3.62429C14.3095 2.14304 14.2954 2.16647 14.0845 1.9321C13.9532 1.78679 13.7751 1.7446 13.6391 1.82429Z" fill="white"/>
<path d="M22.7188 1.82388C22.6531 1.85669 22.2922 2.27856 21.9125 2.75669L21.2281 3.63325L20.8859 3.24888C20.4594 2.76606 20.4359 2.74731 20.2578 2.74731C20.0469 2.74731 19.9062 2.89731 19.9062 3.11763C19.9062 3.28169 19.9578 3.35669 20.4688 3.93325C21.0734 4.61294 21.2094 4.702 21.425 4.56138C21.4859 4.51919 21.9172 3.99888 22.3813 3.39888C23.0984 2.48481 23.2344 2.28794 23.2344 2.152C23.2344 2.00669 23.1031 1.80981 23.0047 1.80981C22.9813 1.80981 22.9344 1.80044 22.8969 1.78638C22.8641 1.77231 22.7844 1.79106 22.7188 1.82388Z" fill="white"/>
<path d="M12.0314 9.49736C11.4361 9.60986 10.958 9.86299 10.5268 10.2896C9.96426 10.8567 9.71582 11.4614 9.71582 12.263C9.71582 13.0786 9.96426 13.6739 10.5502 14.2552C11.0893 14.7896 11.7221 15.0474 12.5002 15.0474C13.2783 15.0474 13.9111 14.7896 14.4502 14.2552C15.0361 13.6739 15.2846 13.0786 15.2846 12.263C15.2846 11.4614 15.0361 10.8567 14.4736 10.2896C14.1268 9.94736 13.7939 9.74111 13.3439 9.5958C13.0018 9.4833 12.3549 9.43174 12.0314 9.49736ZM12.8846 10.2521C14.3283 10.5614 15.008 12.2114 14.183 13.4161C13.7611 14.0396 12.8752 14.4239 12.1861 14.2833C11.5346 14.1521 10.9908 13.7583 10.7049 13.2099C10.2736 12.3896 10.4096 11.4896 11.0705 10.8333C11.5768 10.3224 12.233 10.1161 12.8846 10.2521Z" fill="white"/>
<path d="M3.91719 2.72411L3.20469 3.63817L2.96562 3.37098C2.49687 2.83192 2.39375 2.74755 2.23906 2.74755C2.04687 2.74755 1.85938 2.93036 1.85938 3.11317C1.85938 3.26317 1.93906 3.37567 2.58125 4.09755C3.00312 4.57567 3.14844 4.66473 3.35469 4.59911C3.44844 4.57098 5.05625 2.55067 5.17812 2.3163C5.30469 2.05848 5.13594 1.81005 4.83125 1.81005H4.62969L3.91719 2.72411Z" fill="white"/>
<path d="M22.6344 10.9368C22.5782 10.9836 22.2594 11.3774 21.9172 11.818C21.5797 12.2539 21.2844 12.6336 21.2657 12.6524C21.2469 12.6758 21.1391 12.5914 21.0266 12.4696C20.4454 11.8274 20.4407 11.8227 20.2672 11.8227C19.8876 11.8227 19.7797 12.2024 20.0563 12.5305C20.361 12.8868 20.961 13.5524 21.0313 13.6086C21.1344 13.693 21.3829 13.6836 21.486 13.5852C21.5657 13.5196 22.4938 12.343 23.061 11.593C23.2672 11.3211 23.2907 11.1149 23.1266 10.9602C22.9954 10.8336 22.7657 10.8243 22.6344 10.9368Z" fill="white"/>
<path d="M19.0858 18.446C18.6499 18.6476 18.5937 18.821 18.5937 19.9929V20.9257L18.1437 20.9444C17.7405 20.9585 17.6843 20.9679 17.6046 21.071C17.4827 21.221 17.4874 21.4554 17.6233 21.5819C17.7171 21.671 17.7874 21.6851 18.1624 21.6851H18.5937V22.6132C18.5937 23.1194 18.6124 23.6116 18.6405 23.696C18.6921 23.8788 18.8796 24.0991 19.0718 24.1976C19.1749 24.2491 19.6202 24.2632 21.5843 24.2632H23.9702L24.1296 24.1554C24.214 24.0991 24.3358 23.9772 24.3921 23.8929L24.4999 23.7335V21.3476C24.4999 19.3835 24.4858 18.9382 24.4343 18.8351C24.3358 18.6429 24.1155 18.4554 23.9327 18.4038C23.839 18.3757 22.8546 18.3569 21.5233 18.3569C19.4421 18.3569 19.2593 18.3663 19.0858 18.446ZM23.7499 19.196C23.778 19.2569 23.7968 20.0163 23.7968 21.3522C23.7968 23.1616 23.7874 23.4194 23.7218 23.4851C23.6562 23.5507 23.3983 23.5601 21.5515 23.5601C19.9858 23.5601 19.4421 23.546 19.3999 23.5038C19.3577 23.4616 19.3437 22.9085 19.3437 21.3101C19.3437 20.1335 19.3577 19.1538 19.3765 19.1397C19.3905 19.121 20.3702 19.1069 21.5515 19.1069C23.628 19.1069 23.703 19.1116 23.7499 19.196Z" fill="white"/>
</svg>
