<svg width="25" height="25" viewBox="0 0 25 25" fill="none" xmlns="http://www.w3.org/2000/svg">
<path d="M2.85169 2.3163L0.5 4.36474L0.505309 11.771V19.1772L0.632714 19.4163C0.776045 19.6835 1.07863 19.9319 1.35468 19.9976C1.45554 20.0257 1.69973 20.0444 1.90146 20.0444H2.25713V20.3585C2.25713 20.8882 2.50664 21.2491 3.00033 21.446C3.23391 21.5397 3.32415 21.5444 7.87359 21.5444H12.5027V21.9101C12.5027 22.3366 12.6088 22.7304 12.8106 23.0632C13.0017 23.3866 13.5272 23.846 13.8776 24.0054C14.4721 24.2679 14.3394 24.2632 18.4801 24.2632C21.8457 24.2632 22.3394 24.2538 22.5942 24.1882C23.5285 23.9397 24.2452 23.2647 24.4416 22.4444C24.4788 22.2757 24.5 21.1507 24.5 18.9897C24.5 16.8288 24.4788 15.7038 24.4416 15.5351C24.224 14.6069 23.3056 13.8476 22.2439 13.7163C22.0421 13.6929 21.0919 13.6694 20.1364 13.6694H18.3952V8.06318V2.45693L18.7137 2.47568C18.9526 2.48974 19.064 2.52255 19.1543 2.59755L19.2711 2.70537L19.2976 7.67411C19.3242 12.5257 19.3242 12.6476 19.425 12.7132C19.5843 12.8116 19.8975 12.7976 20.0196 12.6804C20.1151 12.5866 20.1204 12.4226 20.1364 7.6788C20.1523 2.29286 20.1629 2.48037 19.8285 2.1288C19.6055 1.88974 19.2711 1.76318 18.8039 1.73037L18.4111 1.70224L18.3792 1.35068C18.3421 0.933491 18.1722 0.647552 17.8165 0.42724L17.5883 0.286615L12.3169 0.272552L7.04545 0.263178L6.93397 0.385054C6.79064 0.544428 6.79064 0.685053 6.93397 0.844429L7.04015 0.966303H12.0567C17.5192 0.966303 17.3812 0.961617 17.4927 1.22412C17.5246 1.3038 17.5458 3.53974 17.5458 7.50537V13.6601L16.1019 13.6788C14.8225 13.6976 14.6155 13.7116 14.3235 13.796C13.4688 14.0444 12.8106 14.6679 12.5823 15.4366C12.5186 15.6522 12.5027 16.0601 12.5027 17.4991V19.2944H7.06138H1.6148L1.48739 19.1772L1.35468 19.0647V11.9819V4.9038H3.12243C4.72031 4.9038 4.90611 4.89443 5.10252 4.81474C5.36264 4.70693 5.67054 4.40224 5.75017 4.15849C5.79263 4.03662 5.81387 3.41787 5.81387 2.21318C5.81387 0.511616 5.80856 0.445992 5.7077 0.356928C5.63869 0.29599 5.53252 0.263178 5.40511 0.263178C5.214 0.267866 5.10252 0.352242 2.85169 2.3163ZM4.9645 2.74287C4.9645 3.91474 4.9645 3.91474 4.83709 4.04599L4.70969 4.17724L3.33477 4.1913L1.96516 4.20537L3.45156 2.88818C4.26908 2.1663 4.94326 1.57568 4.94857 1.57568C4.95919 1.57568 4.9645 2.10068 4.9645 2.74287ZM22.5995 14.5976C22.9924 14.7663 23.3003 15.0429 23.502 15.3944L23.6241 15.6147V18.9663V22.3179L23.4489 22.6319C23.2419 23.0069 22.9127 23.2788 22.4881 23.4288L22.1908 23.5366H18.5013H14.8119L14.5093 23.4288C14.1058 23.2835 13.713 22.9647 13.5272 22.6319L13.3786 22.3647V18.9897C13.3786 15.6288 13.3786 15.6147 13.4954 15.3944C13.7289 14.9444 14.2704 14.5647 14.8066 14.4663C14.9234 14.4476 16.6486 14.4335 18.634 14.4335L22.2439 14.4429L22.5995 14.5976ZM12.5027 20.4194V20.7944H7.93729H3.36662L3.23922 20.6772C3.12774 20.5835 3.1065 20.5179 3.1065 20.3022V20.0444H7.80458H12.5027V20.4194Z" fill="white"/>
<path d="M18.0661 15.4176C17.9281 15.4551 17.737 15.5348 17.6361 15.6051C17.4025 15.7598 15.2526 18.1411 15.1623 18.3426C15.0721 18.5442 15.1092 19.0833 15.2313 19.3036C15.3534 19.5333 15.6295 19.7723 15.879 19.8801C15.9905 19.927 16.2453 19.9739 16.4417 19.988L16.8027 20.0114V20.9958C16.8027 22.1161 16.8398 22.2614 17.2114 22.4817C17.3972 22.5942 17.445 22.5989 18.3103 22.613C19.441 22.6317 19.6215 22.613 19.8657 22.4208C20.1789 22.177 20.2001 22.0833 20.2001 20.9817V19.9973H20.4868C21.0336 19.9973 21.5007 19.7489 21.7502 19.3176C21.9042 19.0598 21.936 18.6005 21.8246 18.3473C21.7768 18.2301 21.2459 17.6067 20.5824 16.8801C19.3083 15.4833 19.2287 15.4223 18.6341 15.3801C18.4483 15.3661 18.2147 15.3848 18.0661 15.4176ZM18.7403 16.163C18.8624 16.2098 20.8425 18.3426 20.9911 18.5817C21.092 18.7458 21.0601 18.9098 20.8956 19.0692C20.7416 19.2239 20.7416 19.2239 20.1577 19.238C19.3295 19.2614 19.3826 19.163 19.3508 20.6489L19.3242 21.8489H18.5014H17.6786L17.652 20.6395C17.6202 19.1723 17.6573 19.2473 16.9035 19.2473C16.2134 19.2473 15.9533 19.1255 15.9533 18.802C15.9533 18.7364 15.9798 18.6333 16.0117 18.577C16.1391 18.3708 18.1351 16.2145 18.2519 16.163C18.4112 16.0973 18.5757 16.0973 18.7403 16.163Z" fill="white"/>
<path d="M7.72487 2.40068C6.89673 2.71475 6.68439 3.70381 7.32142 4.26631C7.69302 4.59912 7.69832 4.59912 10.0872 4.59912C12.4389 4.59912 12.4654 4.59443 12.837 4.29912C13.1237 4.07412 13.2458 3.82568 13.2458 3.46006C13.2458 2.97256 13.0069 2.63506 12.5291 2.43818C12.2637 2.32568 12.2637 2.32568 10.0872 2.32568C8.26103 2.33037 7.87882 2.33975 7.72487 2.40068ZM12.2637 3.19287C12.4442 3.34756 12.4442 3.58193 12.2584 3.73662L12.1204 3.84912L10.2305 3.86318C8.14955 3.87725 7.9903 3.86318 7.85758 3.63818C7.7461 3.45068 7.75672 3.38506 7.91598 3.221L8.054 3.07568H10.0925H12.1363L12.2637 3.19287Z" fill="white"/>
<path d="M3.66933 6.92412C3.48353 7.05068 3.47822 7.32725 3.6534 7.47256L3.7755 7.57568H9.45566C15.0987 7.57568 15.1358 7.57568 15.2526 7.48193C15.4278 7.33662 15.4119 7.05068 15.2314 6.92412C15.088 6.82568 15.0774 6.82568 9.45035 6.82568C3.82328 6.82568 3.81266 6.82568 3.66933 6.92412Z" fill="white"/>
<path d="M3.63739 9.02881C3.49937 9.15068 3.49937 9.40381 3.63208 9.54912L3.73295 9.66162H9.43965C14.9765 9.66162 15.1517 9.65693 15.2578 9.57256C15.4065 9.45068 15.4118 9.16006 15.2631 9.02881C15.157 8.93506 15.088 8.93506 9.45027 8.93506C3.81258 8.93506 3.74356 8.93506 3.63739 9.02881Z" fill="white"/>
<path d="M3.66927 11.096C3.5631 11.171 3.53125 11.2319 3.53125 11.3726C3.53125 11.5132 3.5631 11.5741 3.66927 11.6491C3.8073 11.7476 3.84976 11.7476 7.48613 11.7476C11.1225 11.7476 11.165 11.7476 11.303 11.6491C11.4994 11.5132 11.4994 11.2319 11.303 11.096C11.165 10.9976 11.1225 10.9976 7.48613 10.9976C3.84976 10.9976 3.8073 10.9976 3.66927 11.096Z" fill="white"/>
<path d="M12.641 11.096C12.4445 11.2319 12.4445 11.5132 12.641 11.6491C12.7737 11.7429 12.848 11.7476 13.9628 11.7476C15.1254 11.7476 15.1413 11.7476 15.2528 11.6397C15.4227 11.4804 15.412 11.2226 15.2315 11.096C15.0988 11.0022 15.0245 10.9976 13.9363 10.9976C12.848 10.9976 12.7737 11.0022 12.641 11.096Z" fill="white"/>
<path d="M3.63742 13.2007C3.57372 13.2569 3.53125 13.3554 3.53125 13.4585C3.53125 13.5616 3.57372 13.6601 3.63742 13.7163C3.73828 13.8054 3.8126 13.8101 6.34479 13.8101C8.87697 13.8101 8.95129 13.8054 9.05215 13.7163C9.11585 13.6601 9.15832 13.5616 9.15832 13.4585C9.15832 13.3554 9.11585 13.2569 9.05215 13.2007C8.95129 13.1116 8.87697 13.1069 6.34479 13.1069C3.8126 13.1069 3.73828 13.1116 3.63742 13.2007Z" fill="white"/>
<path d="M3.66927 15.2679C3.5631 15.3429 3.53125 15.4038 3.53125 15.5444C3.53125 15.6851 3.5631 15.746 3.66927 15.821C3.8073 15.9194 3.86038 15.9194 6.34479 15.9194C8.82919 15.9194 8.88228 15.9194 9.0203 15.821C9.21672 15.6851 9.21672 15.4038 9.0203 15.2679C8.88228 15.1694 8.82919 15.1694 6.34479 15.1694C3.86038 15.1694 3.8073 15.1694 3.66927 15.2679Z" fill="white"/>
</svg>
