<svg width="24" height="24" viewBox="0 0 24 24" fill="none" xmlns="http://www.w3.org/2000/svg">
<path d="M6.07344 0.829556C5.79688 0.993618 5.69375 1.23268 5.66563 1.77174L5.64219 2.23112H5.22031C4.8875 2.23112 4.75156 2.24987 4.59219 2.32956C4.32969 2.45612 4.04375 2.78893 3.96875 3.04674L3.9125 3.25299L2.75469 3.27174L1.60156 3.2858L1.2875 3.4358C0.889063 3.6233 0.579688 3.93268 0.392188 4.33112L0.242188 4.64518V11.7702V18.8952L0.36875 19.1624C0.542188 19.5374 0.870313 19.8749 1.24531 20.0577L1.55469 20.2077L6.27031 20.2217L10.9859 20.2311L11.0422 20.3624C11.2063 20.7233 11.7641 21.4686 12.1953 21.8952C13.1 22.8046 14.2063 23.3999 15.5 23.6811C16.0578 23.803 17.5109 23.8077 18.0641 23.6858C20.675 23.1233 22.5969 21.2014 23.1688 18.5858C23.2953 18.0233 23.2953 16.5796 23.1688 16.0171C22.8875 14.7092 22.2922 13.6171 21.3828 12.7077C20.4734 11.7983 19.3813 11.2077 18.0641 10.9171C17.4922 10.7905 16.0109 10.7999 15.4438 10.9311L15.0359 11.0296L15.0219 7.83737L15.0078 4.64518L14.8625 4.34049C14.7031 4.00768 14.4219 3.69362 14.1078 3.51081C13.7422 3.29987 13.4984 3.26237 12.3594 3.26237H11.3047L11.2203 3.0233C11.1125 2.72799 10.8734 2.45612 10.6016 2.32956C10.4328 2.24987 10.3016 2.23112 9.94531 2.23112H9.5V1.74362C9.5 1.21393 9.44375 1.06393 9.15781 0.852993C9.03125 0.759243 8.96094 0.754555 7.63438 0.740492C6.28438 0.731117 6.2375 0.735806 6.07344 0.829556ZM8.88125 1.32174C8.975 1.38737 8.98438 1.42955 8.98438 1.81393V2.23112H7.60156H6.21875V1.82331C6.21875 1.20924 6.13438 1.24674 7.57344 1.24674C8.58594 1.24674 8.79219 1.25612 8.88125 1.32174ZM10.4422 2.85924C10.7422 3.0608 10.7656 3.17331 10.7656 4.28893V5.27799H7.60156H4.4375V4.25612C4.4375 3.12174 4.45625 3.03268 4.775 2.84049C4.925 2.75143 5.01875 2.74674 7.60156 2.74674H10.2734L10.4422 2.85924ZM3.92188 4.31705V4.85612H2.92344C2.21094 4.85612 1.91094 4.87018 1.86875 4.91237C1.82656 4.95456 1.8125 6.53893 1.8125 11.7514C1.8125 17.8592 1.82188 18.5436 1.8875 18.6092C1.95313 18.6749 2.40781 18.6842 6.18594 18.6842H10.4141L10.55 19.1155C10.625 19.3546 10.6953 19.5889 10.7047 19.6311C10.7281 19.7108 10.4938 19.7155 6.25625 19.7155H1.77969L1.49375 19.5702C1.18906 19.4202 1.02969 19.2608 0.860938 18.9467L0.757812 18.7546L0.74375 11.8405C0.729688 4.08268 0.70625 4.68268 1.09063 4.25612C1.29219 4.02643 1.51719 3.88581 1.78906 3.82018C1.86875 3.80143 2.37969 3.78737 2.92813 3.78268L3.92188 3.77799V4.31705ZM13.7469 3.92799C13.8781 3.9983 14.0703 4.1483 14.1734 4.26549C14.525 4.66393 14.5156 4.57487 14.5156 8.09518C14.5156 10.4014 14.5016 11.2311 14.4641 11.2311C14.4219 11.2311 13.8781 11.4842 13.475 11.6905C13.4516 11.6999 13.4375 10.1905 13.4375 8.33893C13.4375 5.77955 13.4234 4.95456 13.3813 4.91237C13.3391 4.87018 13.0344 4.85612 12.3031 4.85612H11.2812V4.31237V3.76862L12.3969 3.78737C13.4984 3.80143 13.5078 3.80143 13.7469 3.92799ZM3.92188 5.52643C3.92188 5.61081 3.94531 5.70456 3.97813 5.73737C4.05781 5.81705 11.1453 5.81705 11.225 5.73737C11.2578 5.70456 11.2812 5.61081 11.2812 5.52643V5.37174H12.1016H12.9219V8.71393V12.0514L12.5469 12.3702C11.6844 13.1014 11.0375 14.053 10.6578 15.1499C10.3813 15.9467 10.325 16.3077 10.3203 17.2639V18.1217H6.32656H2.32812V11.7467V5.37174H3.125H3.92188V5.52643ZM17.9375 11.4374C20.3422 11.9483 22.1328 13.7436 22.6531 16.1624C22.7703 16.7014 22.7703 17.9014 22.6531 18.4405C22.1328 20.8499 20.3516 22.6452 17.9609 23.1608C17.4406 23.2733 16.4938 23.3014 15.9406 23.2171C13.4328 22.828 11.4641 20.9624 10.925 18.4499C10.8078 17.8967 10.8078 16.7061 10.925 16.153C11.4828 13.5608 13.5266 11.6858 16.1563 11.353C16.4797 11.3108 17.5906 11.3671 17.9375 11.4374Z" fill="white"/>
<path d="M4.16572 8.11842C4.1001 8.1653 4.0626 8.2403 4.0626 8.32467C4.0626 8.6153 3.93135 8.60592 7.60166 8.60592C11.272 8.60592 11.1407 8.6153 11.1407 8.32467C11.1407 8.03405 11.272 8.04342 7.60166 8.04342C4.6626 8.04342 4.25947 8.0528 4.16572 8.11842Z" fill="white"/>
<path d="M4.16563 10.1341C4.1 10.181 4.0625 10.256 4.0625 10.3403C4.0625 10.5794 4.18906 10.6216 4.88281 10.6216C5.57656 10.6216 5.70313 10.5794 5.70313 10.3403C5.70313 10.1013 5.57656 10.0591 4.88281 10.0591C4.40469 10.0591 4.25 10.0731 4.16563 10.1341Z" fill="white"/>
<path d="M6.78118 10.12C6.61712 10.1997 6.59368 10.4435 6.74368 10.5466C6.83743 10.6122 7.09525 10.6216 8.89056 10.6216C11.1406 10.6216 11.1406 10.6216 11.1406 10.3403C11.1406 10.0591 11.1406 10.0591 8.914 10.0591C7.39056 10.0591 6.87025 10.0731 6.78118 10.12Z" fill="white"/>
<path d="M4.17037 12.145C4.02506 12.2435 4.02506 12.4638 4.16568 12.5622C4.25474 12.6278 4.53131 12.6372 6.22818 12.6372C8.12662 12.6372 8.19224 12.6325 8.28131 12.5435C8.39381 12.431 8.39849 12.3138 8.30943 12.1872C8.24381 12.1028 8.15943 12.0981 6.25631 12.0841C4.50787 12.0747 4.25943 12.0794 4.17037 12.145Z" fill="white"/>
<path d="M9.45305 12.1075C9.26086 12.1778 9.21399 12.3981 9.3593 12.5435C9.44367 12.6278 9.51399 12.6372 10.1937 12.6372C11.0421 12.6372 11.1546 12.5997 11.1312 12.3419C11.1077 12.1122 10.9812 12.0747 10.203 12.0794C9.82805 12.0794 9.49055 12.0935 9.45305 12.1075Z" fill="white"/>
<path d="M4.16571 14.1653C4.10008 14.2122 4.06258 14.2872 4.06258 14.3716C4.06258 14.6575 4.00633 14.6528 6.85164 14.6528C9.69696 14.6528 9.64071 14.6575 9.64071 14.3716C9.64071 14.0856 9.69696 14.0903 6.85164 14.0903C4.59227 14.0903 4.25946 14.0997 4.16571 14.1653Z" fill="white"/>
<path d="M4.20306 16.1669C4.039 16.2466 4.01556 16.4903 4.16556 16.5935C4.25462 16.6591 4.46556 16.6685 5.67962 16.6685C7.25931 16.6685 7.31556 16.6591 7.28743 16.3731C7.264 16.12 7.189 16.106 5.67962 16.106C4.68118 16.106 4.28743 16.1247 4.20306 16.1669Z" fill="white"/>
<path d="M8.37493 16.1623C8.21087 16.2513 8.18743 16.4904 8.33743 16.5935C8.56243 16.7529 8.89056 16.631 8.89056 16.3919C8.89056 16.3169 8.86243 16.2326 8.82962 16.2044C8.72181 16.1201 8.5015 16.1013 8.37493 16.1623Z" fill="white"/>
<path d="M16.2501 12.0281C15.1907 12.1266 14.1407 12.5813 13.297 13.3078C12.0313 14.4 11.3563 16.1016 11.5157 17.7844C11.7595 20.3438 13.6626 22.2703 16.2595 22.5797C16.7938 22.6453 16.7845 22.6453 17.3189 22.5797C17.9001 22.5094 18.4064 22.3781 18.9595 22.1484C19.4985 21.9234 19.4282 21.9656 19.8876 21.6188C20.3563 21.2625 20.7501 20.8688 21.1063 20.4C21.4532 19.9406 21.411 20.0109 21.636 19.4719C21.8657 18.9234 21.9923 18.4313 22.0673 17.8406C22.1376 17.2969 22.1376 17.3063 22.0673 16.7625C21.7438 14.1703 19.836 12.2766 17.2907 12.0281C16.7892 11.9813 16.8173 11.9813 16.2501 12.0281ZM16.5314 12.8906C16.5314 13.275 16.5923 13.3875 16.7892 13.3875C16.9907 13.3875 17.047 13.275 17.047 12.8859V12.5297L17.3517 12.5625C17.8579 12.6141 18.922 12.9563 18.922 13.0688C18.922 13.0922 18.8517 13.2375 18.772 13.3875C18.6407 13.6172 18.6267 13.6781 18.6642 13.7906C18.7063 13.9078 18.7392 13.9266 18.8985 13.9266C19.0673 13.9266 19.0907 13.9125 19.2313 13.6688C19.3157 13.5281 19.3954 13.3922 19.4048 13.3641C19.4517 13.2422 20.511 14.2359 20.7126 14.5922L20.7923 14.7328L20.5017 14.8922C20.2204 15.0469 20.211 15.0609 20.211 15.2391C20.211 15.3984 20.2298 15.4313 20.347 15.4734C20.4595 15.5109 20.5204 15.4969 20.7642 15.3656C21.0314 15.2203 21.0548 15.2156 21.111 15.2906C21.2517 15.4828 21.5423 16.5563 21.547 16.8891V17.0438H21.2235C20.8673 17.0438 20.7501 17.1047 20.7501 17.3016C20.7501 17.4984 20.8673 17.5594 21.2282 17.5594H21.561L21.5282 17.8453C21.4954 18.1969 21.3876 18.6141 21.2376 19.0125C21.0642 19.4766 21.0829 19.4672 20.7595 19.2891C20.5204 19.1531 20.4595 19.1391 20.347 19.1766C20.2298 19.2188 20.211 19.2516 20.211 19.4109C20.211 19.5797 20.2251 19.6031 20.4548 19.7344C20.586 19.8141 20.7126 19.8938 20.7267 19.9125C20.8392 20.025 19.5173 21.3516 19.4001 21.2438C19.3814 21.225 19.3017 21.0984 19.222 20.9672C19.0907 20.7375 19.0673 20.7234 18.8985 20.7234C18.7392 20.7234 18.7063 20.7422 18.6642 20.8594C18.6267 20.9719 18.6407 21.0328 18.7767 21.2719C18.9548 21.5953 18.9642 21.5766 18.5001 21.75C18.1017 21.9 17.6845 22.0078 17.3329 22.0406L17.047 22.0734V21.7406C17.047 21.3797 16.986 21.2625 16.7892 21.2625C16.5923 21.2625 16.5314 21.3797 16.5314 21.7359V22.0594H16.3814C16.0438 22.0547 14.9704 21.7641 14.7782 21.6234C14.7032 21.5672 14.7079 21.5438 14.8532 21.2766C14.9845 21.0328 14.9985 20.9719 14.961 20.8594C14.9188 20.7422 14.886 20.7234 14.7267 20.7234C14.5485 20.7234 14.5345 20.7328 14.3798 21.0141L14.2204 21.3047L14.0798 21.225C13.8735 21.1078 13.1845 20.4469 12.9829 20.175C12.7907 19.9078 12.7767 19.9406 13.1751 19.7063C13.3673 19.5938 13.3907 19.5563 13.3907 19.4156C13.3907 19.2984 13.3626 19.2375 13.3017 19.2C13.1563 19.125 13.0673 19.1438 12.8188 19.2938C12.697 19.3688 12.5751 19.4344 12.5517 19.4344C12.4438 19.4344 12.111 18.3844 12.0548 17.8734L12.022 17.5594H12.3735C12.7626 17.5594 12.8751 17.4984 12.8751 17.3016C12.8751 17.1047 12.7626 17.0438 12.3735 17.0438H12.022L12.0548 16.725C12.0923 16.3641 12.2704 15.7172 12.4204 15.3938L12.5235 15.1688L12.7813 15.3328C13.0532 15.5063 13.1517 15.525 13.3017 15.45C13.3626 15.4125 13.3907 15.3516 13.3907 15.2344C13.3907 15.0938 13.3673 15.0563 13.1751 14.9438C12.7907 14.7141 12.8001 14.7281 12.8751 14.5781C13.0345 14.2828 14.0188 13.3406 14.1735 13.3406C14.197 13.3406 14.2907 13.4719 14.3798 13.6313C14.5204 13.8891 14.5579 13.9266 14.6938 13.9406C15.0267 13.9734 15.0688 13.7625 14.8204 13.3172L14.6563 13.0266L14.8767 12.9328C15.3642 12.7266 16.0251 12.5531 16.3579 12.5484L16.5314 12.5438V12.8906Z" fill="white"/>
<path d="M16.3813 15.4406C16.175 15.6515 16.1094 15.75 16.1094 15.8531C16.1094 16.0359 16.1844 16.1062 16.3766 16.1062H16.5313V16.3781C16.5313 16.6265 16.5219 16.6547 16.3953 16.7297C16.0109 16.9547 16.0203 17.6437 16.4141 17.8875C16.7234 18.0797 17.2156 17.9718 17.375 17.6765L17.4359 17.5593H18.4156C19.3813 17.5593 19.3953 17.5593 19.3672 17.6531C19.3203 17.8031 19.4609 17.9812 19.6203 17.9812C19.7188 17.9812 19.8172 17.9109 20.0375 17.6812C20.1969 17.5172 20.3281 17.3437 20.3281 17.3015C20.3281 17.2593 20.1969 17.0859 20.0375 16.9218C19.8172 16.6922 19.7188 16.6218 19.6203 16.6218C19.4609 16.6218 19.3203 16.8 19.3672 16.95C19.3953 17.0437 19.3813 17.0437 18.4203 17.0437H17.4406L17.3656 16.9125C17.3234 16.8422 17.2344 16.7531 17.1688 16.7156C17.0609 16.6593 17.0469 16.6265 17.0469 16.3781V16.1062H17.2016C17.3938 16.1062 17.4688 16.0359 17.4688 15.8531C17.4688 15.6609 16.9813 15.1687 16.7891 15.1687C16.6906 15.1687 16.5875 15.239 16.3813 15.4406ZM16.925 17.2406C16.9625 17.3062 16.9578 17.339 16.8969 17.4C16.7563 17.5406 16.5453 17.3578 16.6719 17.2031C16.7469 17.1187 16.8547 17.1328 16.925 17.2406Z" fill="white"/>
</svg>
