<svg width="24" height="24" viewBox="0 0 24 24" fill="none" xmlns="http://www.w3.org/2000/svg">
<path d="M11.5766 0.757324C11.3891 0.832324 11.375 0.940137 11.375 2.09795V3.20889L11.1219 2.96514C10.8172 2.6792 10.6859 2.66045 10.475 2.8667C10.2406 3.10576 10.2969 3.21357 10.9906 3.90732C11.5203 4.43701 11.6094 4.50732 11.75 4.50732C11.8906 4.50732 11.9797 4.43701 12.5094 3.90732C13.2031 3.21357 13.2594 3.10576 13.025 2.8667C12.8141 2.66045 12.6828 2.6792 12.3781 2.96514L12.125 3.20889V2.08389C12.125 1.07607 12.1156 0.944824 12.0453 0.855762C11.9469 0.743262 11.7266 0.691699 11.5766 0.757324Z" fill="white"/>
<path d="M5.91406 2.32751C5.84375 2.39313 5.79688 2.49626 5.79688 2.57126C5.79688 2.65563 6.00313 3.06813 6.33594 3.65876C6.66875 4.24469 6.84219 4.59626 6.79063 4.57751C6.32188 4.39938 6.0125 4.46969 5.95625 4.76969C5.9 5.07907 6.00313 5.15407 6.87969 5.40719C7.64375 5.63219 7.75625 5.64626 7.92031 5.52438C8.01875 5.45876 8.42188 4.07594 8.42188 3.81344C8.42188 3.60251 8.28125 3.47594 8.05156 3.47594C7.82188 3.47594 7.70469 3.60719 7.625 3.94938C7.57813 4.14157 7.55469 4.17438 7.50781 4.12282C7.475 4.09001 7.24531 3.69157 6.99688 3.24157C6.74375 2.79157 6.48594 2.37438 6.425 2.31344C6.27031 2.17751 6.05938 2.17751 5.91406 2.32751Z" fill="white"/>
<path d="M17.075 2.31362C17.0141 2.37456 16.7563 2.79175 16.5031 3.24175C16.2547 3.69175 16.025 4.09018 15.9922 4.123C15.9453 4.17456 15.9219 4.14175 15.875 3.94956C15.7953 3.60737 15.6781 3.47612 15.4484 3.47612C15.2188 3.47612 15.0781 3.60268 15.0781 3.81362C15.0781 4.07612 15.4813 5.45893 15.5797 5.52456C15.7438 5.64643 15.8563 5.63237 16.6203 5.41206C17.4969 5.15425 17.6 5.08393 17.5438 4.76987C17.4875 4.46987 17.1781 4.39956 16.7094 4.57768C16.6625 4.59643 16.8406 4.2355 17.1688 3.65893C17.5016 3.06831 17.7031 2.65581 17.7031 2.57143C17.7031 2.26675 17.3094 2.10268 17.075 2.31362Z" fill="white"/>
<path d="M11.0234 5.58076C10.5688 5.71201 10.25 5.9042 9.89375 6.26045C9.37344 6.78076 9.125 7.37139 9.125 8.08389C9.125 8.84795 9.36875 9.44795 9.89375 9.97295C10.4094 10.4886 11.0188 10.7417 11.75 10.7417C12.4813 10.7417 13.0906 10.4886 13.6063 9.97295C14.1313 9.44795 14.375 8.84795 14.375 8.08389C14.375 7.37139 14.1266 6.78076 13.6063 6.26045C13.0672 5.72139 12.4953 5.48701 11.7219 5.49639C11.4734 5.49639 11.1922 5.53389 11.0234 5.58076ZM12.5234 6.41982C13.2781 6.77607 13.7328 7.62451 13.5875 8.40732C13.4375 9.21357 12.8469 9.8042 12.0406 9.9542C11.0703 10.1323 10.1047 9.4292 9.9125 8.40732C9.74375 7.49795 10.3906 6.52295 11.3141 6.28857C11.6469 6.2042 12.1859 6.26514 12.5234 6.41982Z" fill="white"/>
<path d="M1.83595 6.40576C1.7047 6.53701 1.68595 6.73389 1.78907 6.88389C1.82657 6.94014 2.25782 7.20732 2.75001 7.48389C3.2422 7.76045 3.6547 8.0042 3.66407 8.02295C3.67814 8.04639 3.58439 8.08389 3.45314 8.1167C3.11564 8.19639 2.98439 8.31357 2.98439 8.54326C2.98439 8.77295 3.11095 8.91357 3.32657 8.91357C3.58439 8.91357 4.9672 8.51045 5.03282 8.41201C5.1547 8.24795 5.14064 8.13545 4.92032 7.37139C4.66251 6.49482 4.5922 6.3917 4.27814 6.44795C3.97814 6.5042 3.90782 6.81357 4.08595 7.28232C4.1047 7.33389 3.75314 7.16045 3.1672 6.82764C2.57657 6.49482 2.16407 6.28857 2.0797 6.28857C2.0047 6.28857 1.90157 6.33545 1.83595 6.40576Z" fill="white"/>
<path d="M20.3328 6.82764C19.7468 7.16045 19.3953 7.33389 19.414 7.28232C19.5921 6.81357 19.5218 6.5042 19.2218 6.44795C18.9078 6.3917 18.8375 6.49482 18.5796 7.37139C18.3593 8.13545 18.3453 8.24795 18.4671 8.41201C18.5328 8.51045 19.9156 8.91357 20.1781 8.91357C20.389 8.91357 20.5156 8.77295 20.5156 8.54326C20.5156 8.31357 20.3843 8.19639 20.0421 8.1167C19.85 8.06982 19.8171 8.04639 19.8687 7.99951C19.9015 7.9667 20.3 7.73701 20.75 7.48857C21.2 7.23545 21.6171 6.97764 21.6781 6.9167C21.889 6.68232 21.725 6.28857 21.4203 6.28857C21.3359 6.28857 20.9234 6.49482 20.3328 6.82764Z" fill="white"/>
<path d="M2.4875 10.8821C2.35156 10.9337 2.23438 11.1071 2.23438 11.2478C2.23438 11.3134 2.32812 11.454 2.47344 11.6134L2.71719 11.8665H1.59219C0.55625 11.8665 0.453125 11.8759 0.354688 11.9556C0.270313 12.0212 0.242188 12.0915 0.242188 12.2415C0.242188 12.3915 0.270313 12.4618 0.354688 12.5274C0.453125 12.6071 0.55625 12.6165 1.59219 12.6165H2.71719L2.47344 12.8696C2.20156 13.1603 2.17344 13.2915 2.34688 13.4884C2.43125 13.5868 2.49688 13.6196 2.62813 13.6196C2.79219 13.6196 2.84844 13.5728 3.41094 13.0103C4.20781 12.204 4.20781 12.279 3.42031 11.4868C2.82031 10.8868 2.68438 10.7978 2.4875 10.8821Z" fill="white"/>
<path d="M20.7264 10.8774C20.6749 10.9009 20.3749 11.1821 20.0608 11.5009C19.2968 12.279 19.2921 12.2087 20.0889 13.0103C20.6514 13.5728 20.7077 13.6196 20.8718 13.6196C21.003 13.6196 21.0686 13.5868 21.153 13.4884C21.3264 13.2915 21.2983 13.1603 21.0264 12.8696L20.7827 12.6165H21.9077C22.9436 12.6165 23.0468 12.6071 23.1452 12.5274C23.2296 12.4618 23.2577 12.3915 23.2577 12.2415C23.2577 12.0915 23.2296 12.0212 23.1452 11.9556C23.0468 11.8759 22.9436 11.8665 21.9077 11.8665H20.7827L21.0264 11.6134C21.2936 11.3228 21.3264 11.1868 21.1624 11.004C21.0405 10.8681 20.8671 10.8212 20.7264 10.8774Z" fill="white"/>
<path d="M10.3436 11.4683C8.19207 11.7776 6.99675 12.7292 6.52332 14.5011C6.36394 15.0917 6.28425 16.0292 6.35457 16.4417C6.49519 17.2433 7.12332 17.8808 7.94363 18.0495C8.11238 18.0823 9.35925 18.1011 11.8108 18.1011C14.9139 18.1011 15.4718 18.0917 15.7108 18.0308C16.5171 17.8198 17.0843 17.2339 17.2389 16.4417C17.3139 16.0761 17.2296 15.0917 17.0702 14.4917C16.8452 13.6526 16.3905 12.9261 15.7905 12.4479C15.4718 12.1948 14.6093 11.7683 14.2014 11.6605C13.4983 11.473 13.1374 11.4355 11.9608 11.4167C11.1358 11.4073 10.6577 11.4214 10.3436 11.4683ZM13.2499 12.2417C13.4421 12.2745 13.6202 12.3167 13.6436 12.3401C13.6624 12.3589 13.3718 12.8276 12.9968 13.3854L12.3077 14.3979H11.7499H11.1921L10.5077 13.3948C10.1327 12.8417 9.828 12.3776 9.828 12.3683C9.828 12.3308 10.2686 12.2464 10.6999 12.1948C11.1921 12.1386 12.8093 12.1714 13.2499 12.2417ZM15.5233 13.2917C16.1468 13.9151 16.4186 14.6276 16.4702 15.7386C16.503 16.4136 16.4655 16.5542 16.1796 16.8729C15.9311 17.1495 15.6358 17.2854 15.2046 17.3323L14.8905 17.3651V16.7558C14.8905 16.1136 14.8436 15.8792 14.703 15.8042C14.5483 15.7198 14.3327 15.7526 14.2108 15.8745C14.0983 15.9823 14.0936 16.0058 14.0936 16.6714V17.3511H11.7733H9.453V16.6714C9.453 16.0058 9.44832 15.9823 9.33582 15.8745C9.21394 15.7526 8.99832 15.7198 8.84363 15.8042C8.703 15.8792 8.65613 16.1136 8.65613 16.7558V17.3651L8.37488 17.3323C7.80769 17.2667 7.43269 17.0417 7.23582 16.6433C7.128 16.4276 7.10925 16.3386 7.10925 15.9636C7.10925 15.1808 7.3155 14.337 7.63425 13.8026C7.71863 13.6573 7.90613 13.4229 8.05144 13.273C8.328 12.987 8.94675 12.5886 9.02644 12.6401C9.05457 12.6542 9.44363 13.212 9.89363 13.8776C10.3436 14.5433 10.7468 15.1011 10.7889 15.1198C10.9108 15.1667 12.6358 15.1526 12.7249 15.1058C12.7671 15.0823 13.1843 14.5011 13.6483 13.8167L14.4874 12.5745L14.8202 12.7433C15.0452 12.8605 15.2655 13.0339 15.5233 13.2917Z" fill="white"/>
<path d="M3.07801 15.6636C3.01707 15.7245 2.98426 15.8183 2.98426 15.9401C2.98426 16.1698 3.11551 16.287 3.45301 16.3667C3.58426 16.3995 3.67801 16.437 3.66395 16.4604C3.65457 16.4792 3.24207 16.7229 2.74989 16.9995C2.2577 17.2761 1.82645 17.5433 1.78895 17.5995C1.62489 17.8386 1.79832 18.1948 2.07957 18.1948C2.16395 18.1948 2.57645 17.9886 3.16707 17.6558C3.75301 17.3229 4.10457 17.1495 4.08582 17.2011C3.9077 17.6698 3.97801 17.9792 4.27801 18.0354C4.59207 18.0917 4.66239 17.9886 4.9202 17.112C5.04207 16.6901 5.13114 16.3011 5.12176 16.2495C5.0702 16.0339 4.97176 15.9823 4.22645 15.7761C3.3827 15.5464 3.21395 15.5276 3.07801 15.6636Z" fill="white"/>
<path d="M19.2547 15.7808C18.5281 15.9823 18.4297 16.0339 18.3781 16.2495C18.3687 16.3011 18.4578 16.6901 18.5797 17.112C18.8375 17.9886 18.9078 18.0917 19.2219 18.0354C19.5219 17.9792 19.5922 17.6698 19.4141 17.2011C19.3953 17.1495 19.7469 17.3229 20.3328 17.6558C20.9234 17.9886 21.3359 18.1948 21.4203 18.1948C21.725 18.1948 21.8891 17.8011 21.6781 17.5667C21.6172 17.5058 21.2 17.2479 20.75 16.9948C20.3 16.7464 19.9016 16.5167 19.8687 16.4839C19.8172 16.437 19.85 16.4136 20.0422 16.3667C20.3844 16.287 20.5156 16.1698 20.5156 15.9401C20.5156 15.6964 20.3891 15.5698 20.1547 15.5745C20.0562 15.5745 19.6484 15.6683 19.2547 15.7808Z" fill="white"/>
<path d="M6.85625 19.0759C6.00781 19.329 5.9 19.404 5.95625 19.7134C6.0125 20.0134 6.32188 20.0837 6.79063 19.9056C6.84219 19.8868 6.66875 20.2384 6.33594 20.8243C6.00313 21.415 5.79688 21.8275 5.79688 21.9118C5.79688 22.2165 6.19063 22.3806 6.425 22.165C6.48594 22.1087 6.74375 21.6915 6.99688 21.2415C7.24531 20.7915 7.475 20.3931 7.50781 20.3603C7.55469 20.3087 7.57813 20.3415 7.625 20.5337C7.70469 20.8759 7.82188 21.0072 8.05156 21.0072C8.28125 21.0072 8.42188 20.8806 8.42188 20.6697C8.42188 20.5478 8.19688 19.6337 8.04219 19.1415C7.99531 18.9962 7.79844 18.8462 7.6625 18.8556C7.62969 18.8556 7.26406 18.9587 6.85625 19.0759Z" fill="white"/>
<path d="M15.6313 18.9212C15.5609 18.9587 15.4859 19.0571 15.4578 19.1415C15.3031 19.6337 15.0781 20.5477 15.0781 20.6696C15.0781 20.8805 15.2188 21.0071 15.4484 21.0071C15.6781 21.0071 15.7953 20.8759 15.875 20.5337C15.9219 20.3415 15.9453 20.3087 15.9922 20.3602C16.025 20.393 16.2547 20.7915 16.5031 21.2415C16.7563 21.6915 17.0141 22.1087 17.075 22.1696C17.3094 22.3805 17.7031 22.2165 17.7031 21.9118C17.7031 21.8274 17.5016 21.4149 17.1688 20.8243C16.8406 20.2477 16.6625 19.8868 16.7094 19.9055C17.1781 20.0837 17.4875 20.0134 17.5438 19.7134C17.6 19.404 17.4922 19.329 16.6438 19.0759C16.2359 18.954 15.8656 18.8555 15.8281 18.8555C15.7906 18.8555 15.7016 18.8837 15.6313 18.9212Z" fill="white"/>
<path d="M10.9906 20.5714C10.2969 21.2698 10.2406 21.3776 10.475 21.6167C10.6859 21.8229 10.8172 21.8042 11.1219 21.5183L11.375 21.2745V22.4229C11.375 23.4823 11.3844 23.5854 11.4641 23.6839C11.5297 23.7683 11.6 23.7964 11.75 23.7964C11.9 23.7964 11.9703 23.7683 12.0359 23.6839C12.1156 23.5854 12.125 23.4823 12.125 22.4229V21.2745L12.3781 21.5183C12.6828 21.8042 12.8141 21.8229 13.025 21.6167C13.2594 21.3776 13.2031 21.2698 12.5094 20.5714C11.9797 20.0464 11.8906 19.9761 11.75 19.9761C11.6094 19.9761 11.5203 20.0464 10.9906 20.5714Z" fill="white"/>
</svg>
