<svg width="23" height="23" viewBox="0 0 23 23" fill="none" xmlns="http://www.w3.org/2000/svg">
<path d="M1.75 0.387207V0.762207H2.125H2.5V0.387207V0.012207H2.125H1.75V0.387207Z" fill="white"/>
<path d="M6.22656 0.0684566C6.175 0.0965805 5.95 0.293457 5.72969 0.513769L5.32656 0.907518L4.72656 0.73877C4.07969 0.55127 3.91094 0.546581 3.67656 0.710644C3.50781 0.83252 3.37656 1.15127 3.40938 1.34814C3.42344 1.42314 3.7 1.97158 4.01875 2.56689L4.6 3.64502L4.45 3.81377C3.78906 4.54033 3.15625 5.96533 2.94531 7.20283C2.84219 7.79814 2.84688 9.69189 2.95 10.0481C3.15156 10.7419 3.7375 11.3325 4.42656 11.5481C4.70312 11.6325 4.97969 11.6372 12.0906 11.6372C16.15 11.6372 19.4688 11.6513 19.4688 11.67C19.4641 11.6935 19.2906 12.045 19.0797 12.4575L18.6953 13.2075L17.6922 13.6341L16.6891 14.0653L16.5578 13.7888C16.3938 13.4419 16.0422 13.095 15.6859 12.9169L15.4141 12.7856H11.8281C8.32188 12.7856 8.22813 12.7856 7.67969 12.8888C6.42813 13.1231 5.06875 13.62 4.225 14.1497C4.12656 14.2106 4.0375 14.2622 4.02344 14.2622C4.00938 14.2622 4 14.0372 4 13.756C4 13.1888 3.93906 13.0247 3.6625 12.856C3.51719 12.7669 3.42344 12.7622 2.125 12.7622C0.826563 12.7622 0.732813 12.7669 0.5875 12.856C0.503125 12.9075 0.395313 13.0153 0.34375 13.0997C0.25 13.2497 0.25 13.3481 0.25 17.6372C0.25 21.9263 0.25 22.0247 0.34375 22.1747C0.395313 22.2591 0.503125 22.3669 0.5875 22.4185C0.732813 22.5075 0.826563 22.5122 2.125 22.5122C3.42344 22.5122 3.51719 22.5075 3.6625 22.4185C3.93906 22.2497 4 22.0856 4 21.5185V21.0169L8.88906 20.9981C13.2531 20.9841 13.8156 20.9747 14.1719 20.9044C16.4078 20.4544 18.0906 19.5778 19.5859 18.0825C20.8703 16.8028 21.7656 15.2419 22.2063 13.531C22.375 12.8888 22.5625 11.8153 22.5625 11.5106C22.5625 10.981 22.2297 10.47 21.7328 10.245C21.5078 10.1419 21.4328 10.1325 21.0953 10.1513C20.8844 10.1606 20.6641 10.1888 20.6078 10.2075L20.5 10.2403V9.43877V8.63721H20.7812C21.1375 8.63721 21.25 8.54346 21.25 8.25283C21.25 8.05127 21.25 8.05127 19.6656 6.47158L18.0859 4.88721H17.8797C17.6828 4.88721 17.6547 4.90596 17.2141 5.34189L16.75 5.79658V3.18564C16.75 0.635643 16.75 0.574707 16.6562 0.480957C16.5672 0.391893 16.5016 0.387207 14.5 0.387207C12.4984 0.387207 12.4328 0.391893 12.3438 0.480957C12.2547 0.570019 12.25 0.635643 12.25 2.73096V4.88721H11.5094H10.7688L10.5672 4.47471C10.4547 4.24971 10.3047 3.97783 10.2297 3.87002L10.0984 3.66846L10.5906 2.47314C10.9188 1.66689 11.0781 1.22158 11.0781 1.09971C11.0781 0.757519 10.7453 0.434082 10.3938 0.434082C10.3141 0.434082 10.0609 0.527832 9.83125 0.640331L9.40938 0.841894L9.16094 0.499706C8.88906 0.129395 8.71094 0.012207 8.42969 0.012207C8.2 0.012207 8.05469 0.0965805 7.72656 0.429394C7.57188 0.588768 7.43594 0.715332 7.42188 0.715332C7.40313 0.715332 7.3 0.588768 7.1875 0.434082C7.07969 0.284081 6.92031 0.124706 6.83594 0.0825195C6.65781 0.00283051 6.3625 -0.00654411 6.22656 0.0684566ZM6.71875 1.16533C6.95313 1.47471 7.15 1.60596 7.38438 1.60596C7.65156 1.60596 7.78281 1.53564 8.125 1.20283L8.44375 0.893456L8.67344 1.20283C9.05313 1.71846 9.34375 1.79814 9.87344 1.53096C10 1.46533 10.1125 1.41846 10.1219 1.43252C10.1313 1.44189 9.9625 1.87783 9.74688 2.40752L9.35313 3.36377L8.87969 3.37783C8.61719 3.38252 8.40625 3.37783 8.40625 3.36377C8.40625 3.34971 8.50938 3.13408 8.63594 2.88096L8.86563 2.42158L8.51875 2.24814C8.32656 2.15439 8.1625 2.07471 8.15781 2.07471C8.15313 2.07471 7.99844 2.37002 7.82031 2.73096L7.49688 3.38721L7.1875 3.38252H6.88281L6.61563 2.82002L6.34375 2.26221L6.00625 2.43096C5.81875 2.52471 5.65938 2.60439 5.65 2.61377C5.64531 2.61846 5.71563 2.78721 5.80469 2.98408C5.89375 3.18096 5.96875 3.35439 5.96875 3.36846C5.96875 3.37783 5.8375 3.38721 5.67813 3.38721H5.38281L4.88125 2.45439C4.6 1.94346 4.375 1.51221 4.375 1.49814C4.375 1.48408 4.47344 1.49814 4.6 1.53564C5.51406 1.80752 5.56563 1.79814 6.08125 1.28252C6.29219 1.07158 6.475 0.902832 6.48906 0.902832C6.50781 0.902832 6.60625 1.02002 6.71875 1.16533ZM16 3.84189V6.54658L15.25 7.30127C14.5234 8.03721 14.5 8.06533 14.5 8.25283C14.5 8.54346 14.6125 8.63721 14.9688 8.63721H15.25V9.76221V10.8872H14.125H13V6.01221V1.13721H14.5H16V3.84189ZM9.52188 4.26377C9.57344 4.33877 9.66719 4.50752 9.7375 4.63877L9.85938 4.88721H9.46094C8.81406 4.88721 8.875 4.56377 8.875 7.98096V10.8872H7.06094C6.03438 10.8872 5.11094 10.8638 4.94219 10.8403C4.57656 10.7794 4.33281 10.6575 4.09375 10.4185C3.67188 9.99658 3.57813 9.49971 3.65781 8.18252C3.71875 7.23564 3.82656 6.74814 4.14531 5.94189C4.375 5.36064 4.80156 4.62471 5.06406 4.33408L5.25156 4.13721H7.34219H9.43281L9.52188 4.26377ZM12.25 8.26221V10.8872H10.9375H9.625V8.26221V5.63721H10.9375H12.25V8.26221ZM18.9062 6.87939L19.9141 7.88721H17.875H15.8359L16.8438 6.87939C17.3969 6.32627 17.8609 5.87158 17.875 5.87158C17.8891 5.87158 18.3531 6.32627 18.9062 6.87939ZM19.75 9.76221V10.8872H19.375H19V10.0435C19 8.92314 19.0938 9.01221 17.875 9.01221C16.6562 9.01221 16.75 8.92314 16.75 10.0435V10.8872H16.375H16V9.76221V8.63721H17.875H19.75V9.76221ZM18.25 10.3247V10.8872H17.875H17.5V10.3247V9.76221H17.875H18.25V10.3247ZM21.4703 11.0278C21.8125 11.2341 21.8266 11.4403 21.5781 12.6638C21.2688 14.2106 20.6734 15.5138 19.7266 16.7231C19.3938 17.145 18.5547 17.9794 18.1328 18.2981C16.9984 19.1653 15.6672 19.7747 14.2891 20.0513C13.4031 20.2294 12.5125 20.2622 8.11563 20.2622H4V17.7544V15.2419L4.29063 15.0544C4.79688 14.731 5.83281 14.2388 6.44219 14.0372C7.84375 13.5731 8.69688 13.4981 12.4844 13.5216C14.8703 13.5356 15.1 13.5403 15.2734 13.62C15.6953 13.8075 15.9531 14.1966 15.9531 14.6372C15.9531 15.0778 15.6953 15.4669 15.2734 15.6544C15.1 15.7341 14.8516 15.7388 11.9828 15.7528L8.875 15.7669V16.1419V16.5169L12.1469 16.5028L15.4141 16.4888L15.6953 16.3528C16 16.2028 16.3656 15.87 16.4969 15.6169C16.5438 15.5278 16.6234 15.331 16.6797 15.181L16.7734 14.9044L18.0297 14.3653L19.2859 13.8263L19.9656 12.4716C20.7063 10.995 20.7531 10.9341 21.1328 10.9341C21.2359 10.9341 21.3859 10.9763 21.4703 11.0278ZM3.25 17.6372V21.7622H2.125H1V17.6372V13.5122H2.125H3.25V17.6372Z" fill="white"/>
<path d="M13.75 2.26221V2.63721H13.9375H14.125V2.26221V1.88721H13.9375H13.75V2.26221Z" fill="white"/>
<path d="M14.875 2.26221V2.63721H15.0625H15.25V2.26221V1.88721H15.0625H14.875V2.26221Z" fill="white"/>
<path d="M13.75 3.76221V4.13721H13.9375H14.125V3.76221V3.38721H13.9375H13.75V3.76221Z" fill="white"/>
<path d="M14.875 3.76221V4.13721H15.0625H15.25V3.76221V3.38721H15.0625H14.875V3.76221Z" fill="white"/>
<path d="M13.75 5.26221V5.63721H13.9375H14.125V5.26221V4.88721H13.9375H13.75V5.26221Z" fill="white"/>
<path d="M14.875 5.26221V5.63721H15.0625H15.25V5.26221V4.88721H15.0625H14.875V5.26221Z" fill="white"/>
<path d="M13.75 6.76221V7.13721H13.9375H14.125V6.76221V6.38721H13.9375H13.75V6.76221Z" fill="white"/>
<path d="M14.875 6.76221V7.13721H15.0625H15.25V6.76221V6.38721H15.0625H14.875V6.76221Z" fill="white"/>
<path d="M6.62483 5.82471V6.01221H6.34358C5.88889 6.01221 5.87483 6.04033 5.87483 6.94971C5.87483 7.93408 5.83264 7.88721 6.71858 7.88721H7.37483V8.07471V8.26221H6.62483H5.87483V8.54346C5.87483 8.92783 5.95921 9.01221 6.34358 9.01221H6.62483V9.19971V9.38721H6.99983H7.37483V9.19971V9.01221H7.65608C8.11077 9.01221 8.12483 8.98408 8.12483 8.07471C8.12483 7.09033 8.16702 7.13721 7.28108 7.13721H6.62483V6.94971V6.76221H7.37483H8.12483V6.48096C8.12483 6.26064 8.10608 6.18096 8.03108 6.10596C7.95608 6.03096 7.87639 6.01221 7.65608 6.01221H7.37483V5.82471V5.63721H6.99983H6.62483V5.82471Z" fill="white"/>
<path d="M10.375 6.76221V7.13721H10.5625H10.75V6.76221V6.38721H10.5625H10.375V6.76221Z" fill="white"/>
<path d="M11.5 6.76221V7.13721H11.6875H11.875V6.76221V6.38721H11.6875H11.5V6.76221Z" fill="white"/>
<path d="M10.375 8.26221V8.63721H10.5625H10.75V8.26221V7.88721H10.5625H10.375V8.26221Z" fill="white"/>
<path d="M11.5 8.26221V8.63721H11.6875H11.875V8.26221V7.88721H11.6875H11.5V8.26221Z" fill="white"/>
<path d="M10.375 9.76221V10.1372H10.5625H10.75V9.76221V9.38721H10.5625H10.375V9.76221Z" fill="white"/>
<path d="M11.5 9.76221V10.1372H11.6875H11.875V9.76221V9.38721H11.6875H11.5V9.76221Z" fill="white"/>
<path d="M1.75 15.1997V15.7622H2.125H2.5V15.1997V14.6372H2.125H1.75V15.1997Z" fill="white"/>
<path d="M20.125 0.387207V0.762207H19.75H19.375V1.13721V1.51221H19.75H20.125V1.88721V2.26221H20.5H20.875V1.88721V1.51221H21.25H21.625V1.13721V0.762207H21.25H20.875V0.387207V0.012207H20.5H20.125V0.387207ZM20.875 1.13721V1.51221H20.5H20.125V1.13721V0.762207H20.5H20.875V1.13721Z" fill="white"/>
<path d="M1 3.01221V3.38721H0.625H0.25V3.76221V4.13721H0.625H1V4.51221V4.88721H1.375H1.75V4.51221V4.13721H2.125H2.5V3.76221V3.38721H2.125H1.75V3.01221V2.63721H1.375H1V3.01221ZM1.75 3.76221V4.13721H1.375H1V3.76221V3.38721H1.375H1.75V3.76221Z" fill="white"/>
<path d="M22 3.01221V3.38721H22.375H22.75V3.01221V2.63721H22.375H22V3.01221Z" fill="white"/>
<path d="M19.375 4.13721V4.51221H19.75H20.125V4.13721V3.76221H19.75H19.375V4.13721Z" fill="white"/>
<path d="M0.25 6.76221V7.13721H0.625H1V6.76221V6.38721H0.625H0.25V6.76221Z" fill="white"/>
</svg>
