<svg width="24" height="25" viewBox="0 0 24 25" fill="none" xmlns="http://www.w3.org/2000/svg">
<path d="M14.0234 1.01171C13.7375 1.14765 13.475 1.40547 13.3344 1.6914L13.2266 1.90703V4.81328V7.71953L13.3531 7.95859C13.5125 8.25859 13.8453 8.55859 14.1266 8.65234C14.2531 8.69453 14.5016 8.72734 14.7125 8.72734H15.0781V9.6414C15.0781 10.5555 15.0781 10.5602 15.1953 10.6727C15.3172 10.7992 15.4813 10.8227 15.65 10.7383C15.7109 10.7055 16.1797 10.2461 16.6906 9.70703L17.6234 8.73203L20.0188 8.71796C22.3859 8.7039 22.4141 8.7039 22.6063 8.60078C22.9203 8.43203 23.0797 8.27265 23.2297 7.96796L23.375 7.68203V4.83672C23.375 1.57421 23.3891 1.70547 22.9813 1.29296C22.5594 0.875778 22.8453 0.899215 18.2703 0.899215H14.2578L14.0234 1.01171ZM22.2781 1.76171C22.3578 1.80859 22.4656 1.9164 22.5125 1.99609C22.5969 2.13203 22.6016 2.28672 22.6156 4.60234C22.625 5.95703 22.6156 7.17578 22.6016 7.3164C22.5781 7.50859 22.5359 7.60234 22.4141 7.73828L22.2594 7.90703L19.7563 7.93046C18.3828 7.94453 17.2531 7.96328 17.2438 7.96796C17.2344 7.97265 16.925 8.28671 16.5547 8.6664L15.8797 9.36015L15.875 8.78359C15.875 8.20703 15.875 8.20234 15.7391 8.0664C15.6031 7.93046 15.5984 7.93046 15.0219 7.93046C14.5391 7.93046 14.4219 7.9164 14.3 7.8414C13.9953 7.6539 14 7.70078 14 4.81797C14 2.04296 14 2.01953 14.225 1.81797C14.2812 1.77109 14.3938 1.71484 14.4781 1.69609C14.5625 1.67265 16.3203 1.65859 18.3828 1.66328C21.9688 1.67265 22.1375 1.67734 22.2781 1.76171Z" fill="white"/>
<path d="M17.8063 1.97749C17.7219 2.02905 17.6141 2.13687 17.5578 2.22124C17.4641 2.37124 17.4641 2.41343 17.4922 3.75874C17.511 4.51812 17.5438 5.23999 17.5672 5.35718C17.6844 5.90093 18.3266 6.13062 18.7719 5.78843C19.0391 5.58687 19.0532 5.4978 19.1141 3.90874L19.1703 2.45562L19.0578 2.25405C18.9032 1.98218 18.7016 1.88374 18.2891 1.88374C18.0453 1.88374 17.9235 1.90718 17.8063 1.97749ZM18.3547 2.97124C18.35 3.1353 18.3313 3.41187 18.3125 3.59468C18.2844 3.8853 18.2797 3.85249 18.275 3.29937C18.2703 2.91499 18.2844 2.68062 18.3125 2.68062C18.3407 2.68062 18.3547 2.80718 18.3547 2.97124Z" fill="white"/>
<path d="M17.8766 6.10684C17.3844 6.36934 17.2907 7.05841 17.6985 7.46622C18.2375 8.00528 19.1563 7.63497 19.1563 6.88028C19.1563 6.52403 18.9829 6.23341 18.6782 6.07403C18.4954 5.98028 18.0875 5.99434 17.8766 6.10684ZM18.3594 6.84278C18.3594 6.90372 18.3032 6.94591 18.2563 6.91778C18.2094 6.88966 18.2516 6.80528 18.3172 6.80528C18.3407 6.80528 18.3594 6.82403 18.3594 6.84278Z" fill="white"/>
<path d="M2.31413 9.35547C2.08913 9.43984 1.96726 9.54766 1.85476 9.76797C1.77038 9.93203 1.76569 10.0867 1.76569 12.5945V15.243H1.03913C0.373506 15.243 0.303194 15.2523 0.218819 15.3367C0.129756 15.4258 0.125069 15.4914 0.125069 16.7148C0.125069 18.3508 0.0406939 18.2148 1.03444 18.2336L1.76569 18.2477V20.882C1.76569 23.3477 1.77507 23.5305 1.85476 23.7086C1.90163 23.8164 2.01413 23.9523 2.09851 24.0133L2.25788 24.1258L6.42976 24.1398C8.72663 24.1445 10.6532 24.1398 10.7188 24.1258C10.8735 24.0883 13.611 21.3648 13.7001 21.1633C13.7563 21.0367 13.7657 20.1039 13.7657 15.4773C13.7657 10.1383 13.761 9.93672 13.6766 9.76797C13.5641 9.54766 13.4423 9.43984 13.2173 9.35547C12.9548 9.26172 2.57663 9.26172 2.31413 9.35547ZM12.9594 15.3695L12.9688 20.6336H11.7782C10.1282 20.6336 10.2032 20.5539 10.2032 22.2742V23.3992L6.39694 23.3898L2.58601 23.3758L2.57194 20.807L2.56257 18.243H2.89069H3.21882V18.543C3.21882 18.9133 3.34538 19.1242 3.62194 19.2227C3.97351 19.3445 4.04382 19.307 5.47819 18.182C6.68288 17.2352 6.80944 17.1227 6.86569 16.9445C6.91257 16.7945 6.91726 16.7055 6.87507 16.5602C6.82351 16.3586 6.76726 16.3117 4.44694 14.4789C4.20788 14.2914 4.10476 14.2398 3.92663 14.2211C3.47663 14.1789 3.21882 14.4461 3.21882 14.9477V15.243H2.89069H2.56257V12.6977C2.56257 11.2961 2.57663 10.1336 2.59538 10.1195C2.60944 10.1008 4.94851 10.0914 7.78444 10.0961L12.9454 10.1102L12.9594 15.3695ZM5.08913 16.0164C5.58132 16.4008 5.97976 16.7289 5.97976 16.743C5.97976 16.757 5.54382 17.1086 5.00944 17.5211L4.03913 18.2758L4.02507 18.0602C4.01101 17.7414 3.97819 17.6477 3.86569 17.5398C3.76726 17.4508 3.70632 17.4461 2.31882 17.4461H0.875069V16.743V16.0398H2.30944H3.74382L3.87976 15.9039C4.00163 15.782 4.01569 15.7352 4.01569 15.4773C4.01569 15.1961 4.02038 15.1867 4.10944 15.2477C4.15632 15.2852 4.60163 15.6273 5.08913 16.0164ZM12.3594 21.4445C12.3594 21.4492 12.0548 21.7586 11.6798 22.1336L11.0001 22.8133V22.1195V21.4305H11.6798C12.0548 21.4305 12.3594 21.4352 12.3594 21.4445Z" fill="white"/>
<path d="M4.34843 12.1213C4.19374 12.2854 4.20311 12.5572 4.36718 12.6979L4.48905 12.8057H7.76093C11 12.8057 11.0375 12.8057 11.1594 12.7072C11.3234 12.576 11.3328 12.2619 11.1734 12.1119L11.0656 12.0088H7.76093H4.45155L4.34843 12.1213Z" fill="white"/>
<path d="M5.93278 14.301C5.78747 14.4463 5.76403 14.5775 5.85309 14.7416C5.97028 14.9619 5.91872 14.9572 8.54372 14.9619C10.9953 14.9619 11.0375 14.9619 11.1593 14.8635C11.2578 14.7885 11.2812 14.7275 11.2812 14.5635C11.2812 14.3994 11.2578 14.3385 11.1593 14.2635C11.0375 14.165 10.9906 14.165 8.55309 14.165H6.06872L5.93278 14.301Z" fill="white"/>
<path d="M7.59693 16.3869C7.4235 16.4619 7.34381 16.6588 7.39537 16.8604C7.47037 17.1182 7.45162 17.1182 9.336 17.1182C11.0235 17.1182 11.0797 17.1135 11.1782 17.0244C11.2907 16.9213 11.3188 16.6635 11.2344 16.5088C11.1454 16.34 10.9391 16.3213 9.31725 16.3213C8.0985 16.326 7.70943 16.34 7.59693 16.3869Z" fill="white"/>
<path d="M5.93299 18.6133C5.78299 18.7352 5.7783 19.0445 5.9283 19.1898L6.03611 19.2977L8.45955 19.3117C9.7908 19.3164 10.9299 19.3117 10.9908 19.2977C11.2767 19.2273 11.3892 18.8195 11.1783 18.618C11.0799 18.5242 11.0283 18.5242 8.55799 18.5242C6.15799 18.5242 6.03611 18.5289 5.93299 18.6133Z" fill="white"/>
<path d="M4.36729 20.7885C4.26885 20.8682 4.24072 20.9385 4.24072 21.0791C4.24072 21.2197 4.26885 21.29 4.36729 21.3697L4.48916 21.4775H6.59385H8.69853L8.81572 21.3697C9.00322 21.2104 9.01728 21.0088 8.86728 20.8307L8.74072 20.6807H6.61729H4.48916L4.36729 20.7885Z" fill="white"/>
<path d="M18.1203 12.665C18.0781 12.6885 17.9938 12.8338 17.9375 12.9791C17.8766 13.1291 17.8156 13.2697 17.7969 13.2885C17.7781 13.3119 17.6 13.401 17.4031 13.4854L17.0422 13.64L16.7844 13.5275C16.3391 13.3307 16.3016 13.3447 15.725 13.9213C15.1531 14.4932 15.1484 14.5072 15.3359 14.9338L15.4531 15.201L15.3031 15.5947L15.1484 15.9838L14.8531 16.0869C14.4313 16.2369 14.4219 16.2604 14.4219 17.0947C14.4219 17.915 14.4266 17.9244 14.8906 18.1025L15.1484 18.201L15.3031 18.59L15.4531 18.9791L15.3359 19.2463C15.1438 19.6775 15.1531 19.6963 15.725 20.2682C16.2969 20.84 16.3344 20.8541 16.7609 20.6572L17.0094 20.54L17.3984 20.69L17.7922 20.8447L17.8906 21.1025C18.0688 21.5666 18.0781 21.5713 18.8984 21.5713C19.7281 21.5713 19.7516 21.5619 19.9062 21.1447C20 20.8963 20.0375 20.8494 20.1828 20.7885C20.2766 20.7557 20.4453 20.6807 20.5625 20.6291L20.7734 20.5354L21.0453 20.6525C21.4766 20.8447 21.4953 20.84 22.0672 20.2729C22.6484 19.701 22.6625 19.6588 22.4656 19.2041L22.3484 18.9463L22.4797 18.651C22.5547 18.4916 22.625 18.3275 22.6391 18.2854C22.6531 18.2432 22.7844 18.1635 22.9391 18.1025C23.375 17.9338 23.375 17.9291 23.375 17.0713C23.375 16.2275 23.3891 16.2604 22.9391 16.0775L22.6672 15.9697L22.5125 15.59L22.3625 15.2057L22.4703 14.9619C22.6672 14.5119 22.6438 14.451 22.0953 13.8979C21.5422 13.3494 21.4719 13.326 21.0359 13.5275L20.7969 13.6354L20.4078 13.4807L20.0234 13.326L19.9203 13.0588C19.7422 12.6088 19.7656 12.6182 18.9266 12.6182C18.5234 12.6182 18.1625 12.6416 18.1203 12.665ZM19.2734 13.6354C19.3906 13.9494 19.4516 14.0057 19.8031 14.1182C19.9719 14.1744 20.2297 14.2775 20.3797 14.3572C20.7078 14.5213 20.7781 14.526 21.0828 14.39L21.3219 14.2916L21.5094 14.4838L21.7016 14.676L21.6031 14.9197C21.4719 15.2338 21.4719 15.2854 21.6359 15.6135C21.7156 15.7635 21.8188 16.026 21.875 16.1947C21.9875 16.5416 22.0297 16.5885 22.3625 16.7244L22.6016 16.8182V17.09V17.3619L22.3672 17.4557C22.0438 17.5822 21.9875 17.6432 21.8703 18.0041C21.8141 18.1729 21.7109 18.426 21.6359 18.5572C21.4719 18.8525 21.4672 18.9416 21.6031 19.265L21.7063 19.5135L21.5141 19.701L21.3266 19.8932L21.1016 19.7947C20.7969 19.6588 20.6656 19.6682 20.2953 19.8557C20.1172 19.9447 19.8781 20.0432 19.7563 20.0713C19.4984 20.1369 19.3859 20.2494 19.2734 20.5494L19.1891 20.7744H18.9125C18.6359 20.7744 18.6359 20.7744 18.5656 20.601C18.4203 20.2166 18.3969 20.1979 17.9844 20.0432C17.7641 19.9682 17.4969 19.8557 17.3891 19.7994C17.1453 19.6729 16.9906 19.6729 16.7234 19.7947L16.5125 19.8885L16.3063 19.6822L16.1 19.476L16.1984 19.2838C16.3297 19.026 16.3203 18.8525 16.1609 18.5338C16.0906 18.3885 15.9828 18.1213 15.9219 17.9432L15.8188 17.6244L15.5188 17.4885L15.2188 17.3525V17.0713C15.2188 16.9025 15.2375 16.79 15.2703 16.79C15.2938 16.79 15.4297 16.7385 15.5703 16.6729C15.8141 16.5557 15.8234 16.5416 15.9219 16.2416C15.9781 16.0729 16.0813 15.8104 16.1609 15.6604C16.325 15.3369 16.3297 15.1916 16.1984 14.8916L16.1 14.6666L16.2922 14.4791L16.4797 14.2869L16.7281 14.39C17.0422 14.5166 17.1688 14.5213 17.375 14.3947C17.4641 14.3385 17.7266 14.2213 17.9563 14.1369C18.1859 14.0525 18.3922 13.9541 18.4156 13.9213C18.4344 13.8885 18.4906 13.7619 18.5328 13.6354L18.6172 13.415H18.9031H19.1891L19.2734 13.6354Z" fill="white"/>
<path d="M18.2704 14.8494C17.8907 14.9525 17.5719 15.14 17.2579 15.4541C16.3579 16.3541 16.3579 17.8259 17.2532 18.7212C18.7204 20.1884 21.2235 19.1666 21.2188 17.0994C21.2188 16.8931 21.1907 16.6119 21.1532 16.4853C20.9469 15.7025 20.3329 15.0837 19.536 14.8494C19.2219 14.7556 18.6126 14.7556 18.2704 14.8494ZM19.5547 15.7119C19.8501 15.8572 20.136 16.1431 20.286 16.4384C20.4454 16.7666 20.4501 17.4134 20.2907 17.7322C20.1454 18.0275 19.836 18.3275 19.5313 18.4728C19.1563 18.6509 18.6313 18.6462 18.261 18.4634C17.9516 18.3134 17.6422 17.9994 17.5016 17.69C17.3563 17.3759 17.361 16.8087 17.5063 16.4853C17.6844 16.0962 18.0782 15.7494 18.5001 15.6134C18.7344 15.5384 19.3063 15.59 19.5547 15.7119Z" fill="white"/>
</svg>
