<svg width="24" height="25" viewBox="0 0 24 25" fill="none" xmlns="http://www.w3.org/2000/svg">
<path d="M6.65 0.99785C6.31719 1.1291 5.975 1.47129 5.84844 1.81348C5.76875 2.02441 5.75 2.18379 5.75 2.61035V3.14941H4.87344C3.88906 3.14941 3.78125 3.17754 3.59375 3.48691C3.5 3.6416 3.5 3.74004 3.5 10.79V17.9338L1.98125 19.4619C0.59375 20.8494 0.44375 21.0135 0.303125 21.3135C0.157813 21.6275 0.148438 21.6697 0.148438 22.1807C0.148438 22.6916 0.157813 22.7385 0.298438 23.0338C0.490625 23.4463 0.828125 23.7838 1.24063 23.976C1.53594 24.1166 1.58281 24.126 2.09375 24.126C2.59063 24.126 2.65625 24.1166 2.92344 23.99C3.0875 23.915 3.24219 23.826 3.275 23.7885C3.40625 23.6244 3.48594 23.6291 3.58906 23.7979C3.64063 23.8869 3.75313 24.0041 3.8375 24.0557C3.99219 24.1494 4.06719 24.1494 11.375 24.1494C18.6594 24.1494 18.7578 24.1494 18.9125 24.0557C19.2078 23.8729 19.25 23.7416 19.25 22.94C19.25 22.551 19.2641 22.2275 19.2828 22.2275C19.4844 22.2275 22.5172 21.6322 22.6813 21.5619C22.9344 21.4541 23.1969 21.1869 23.3047 20.9338C23.3422 20.84 23.375 20.6244 23.375 20.4604C23.375 20.0947 21.2375 1.8791 21.1672 1.66348C21.0219 1.21348 20.5766 0.899414 20.0703 0.899414C19.9156 0.899414 17.4922 1.21348 14.6938 1.60254C11.8953 1.98691 9.58438 2.30566 9.55625 2.30566C9.53281 2.30566 9.5 2.22129 9.48594 2.11816C9.425 1.65879 9.02188 1.16191 8.57656 0.993164C8.36094 0.913475 8.21563 0.899414 7.61094 0.9041C7.01094 0.9041 6.86094 0.918163 6.65 0.99785ZM8.1125 1.69629C8.55313 1.79473 8.70781 2.04785 8.74063 2.68535L8.76406 3.14941H8.37969H8V2.77441V2.39941H7.625H7.25V2.77441V3.14941H6.87031H6.48594L6.50938 2.68535C6.54219 2.05723 6.70156 1.79473 7.11406 1.69629C7.33438 1.64473 7.89219 1.64473 8.1125 1.69629ZM20.3375 1.83691C20.4125 1.94004 20.5859 3.31816 21.5 11.0947C22.0953 16.1197 22.5781 20.3104 22.5781 20.4135C22.5781 20.6244 22.5172 20.751 22.3859 20.8213C22.3344 20.8494 21.6547 20.99 20.8766 21.126C20.0984 21.2666 19.4141 21.3932 19.3578 21.4072L19.25 21.4307V12.5385C19.25 3.80098 19.25 3.63691 19.1562 3.4916C19.1094 3.40723 19.0109 3.3041 18.9359 3.25723C18.8141 3.17754 18.5375 3.17285 14.1594 3.14941L9.51406 3.12598L14.6281 2.41348C17.4406 2.02441 19.8547 1.70566 19.9953 1.71035C20.2063 1.71973 20.2625 1.73848 20.3375 1.83691ZM5.75 4.61191C5.75 5.41816 5.79688 5.58223 6.08281 5.8541C6.30313 6.06035 6.5375 6.14941 6.875 6.14941C7.2125 6.14941 7.44688 6.06035 7.66719 5.8541C7.95313 5.58223 8 5.41816 8 4.61191V3.89941H8.375H8.75V4.64941V5.39941H9.125H9.5V4.64941V3.89941H14H18.5V13.6494V23.3994H11.375H4.25V23.1322V22.8604L6.49531 20.6104L8.74063 18.3604L9.27031 16.7525L9.80469 15.1494H13.775H17.75V14.7744V14.3994H13.5453H9.33594L7.625 14.9666L5.91406 15.5338L5.08438 16.3635L4.25 17.1885V10.5416V3.89941H5H5.75V4.61191ZM7.25 4.43848C7.25 5.06191 7.18438 5.28223 6.99688 5.33379C6.61719 5.42754 6.5 5.2166 6.5 4.43848V3.89941H6.875H7.25V4.43848ZM8.82969 15.4963C8.81563 15.5338 8.77813 15.6463 8.74531 15.7541C8.7125 15.8619 8.675 15.9463 8.65625 15.9463C8.61406 15.9463 8.30938 15.6229 8.33281 15.6041C8.35625 15.5807 8.75938 15.44 8.81563 15.4354C8.83438 15.4307 8.84375 15.4588 8.82969 15.4963ZM7.89688 16.3822L8.375 16.8604L8.29531 17.1088C8.25313 17.24 8.20625 17.3525 8.1875 17.3525C8.14531 17.3525 6.90313 16.0916 6.92188 16.0729C6.94531 16.0541 7.33906 15.9088 7.39063 15.9041C7.40469 15.8994 7.62969 16.115 7.89688 16.3822ZM6.96875 17.3291L7.78906 18.1494L5.82969 20.1088L3.875 22.0635L3.04531 21.2291L2.21094 20.3994L4.15625 18.4541C5.225 17.3854 6.11094 16.5088 6.125 16.5088C6.13906 16.5088 6.51875 16.8791 6.96875 17.3291ZM2.46875 21.8291L3.28906 22.6494L3.03125 22.9072C2.89062 23.0525 2.68906 23.2072 2.58125 23.2588C2.31875 23.3854 1.86406 23.3854 1.59688 23.2541C1.36719 23.1463 1.08125 22.851 0.9875 22.6213C0.903125 22.415 0.903125 21.9416 0.992188 21.7307C1.05313 21.5807 1.55469 21.0088 1.62031 21.0088C1.63438 21.0088 2.01875 21.3791 2.46875 21.8291Z" fill="white"/>
<path d="M10.25 8.39941V12.1494H14H17.75V8.39941V4.64941H14H10.25V8.39941ZM17 8.39941V11.3994H16.7984H16.5969L16.4703 10.6588C16.2922 9.63223 16.0438 9.15879 15.4578 8.76504C15.3406 8.68535 15.2375 8.61504 15.2281 8.61035C15.2234 8.60566 15.275 8.48848 15.3453 8.34785C15.5281 8.00098 15.5516 7.46191 15.4062 7.07285C14.9422 5.84004 13.0578 5.84004 12.5938 7.07285C12.4484 7.46191 12.4719 8.00098 12.6547 8.34785C12.725 8.48848 12.7766 8.60566 12.7719 8.61035C12.7625 8.61504 12.6594 8.68535 12.5422 8.76504C11.9563 9.15879 11.7078 9.63223 11.5297 10.6588L11.4031 11.3994H11.2016H11V8.39941V5.39941H14H17V8.39941ZM14.3656 7.04004C14.975 7.41035 14.7125 8.35254 14 8.35254C13.6016 8.35254 13.2969 8.04785 13.2969 7.64941C13.2969 7.25098 13.6016 6.94629 14 6.94629C14.1266 6.94629 14.2719 6.98379 14.3656 7.04004ZM14.7734 9.30879C15.2797 9.54316 15.5375 9.94629 15.6641 10.6963C15.7016 10.94 15.7484 11.1979 15.7625 11.2682L15.7906 11.3994H14H12.2094L12.2375 11.2682C12.2516 11.1979 12.2984 10.94 12.3359 10.6963C12.3781 10.4525 12.4625 10.1432 12.5188 10.0119C12.7109 9.59004 13.1141 9.27598 13.5734 9.1916C13.925 9.13066 14.5063 9.18691 14.7734 9.30879Z" fill="white"/>
<path d="M5 7.27441V7.64941H7.25H9.5V7.27441V6.89941H7.25H5V7.27441Z" fill="white"/>
<path d="M5 8.77441V9.14941H7.25H9.5V8.77441V8.39941H7.25H5V8.77441Z" fill="white"/>
<path d="M5 10.2744V10.6494H7.25H9.5V10.2744V9.89941H7.25H5V10.2744Z" fill="white"/>
<path d="M5 11.7744V12.1494H7.25H9.5V11.7744V11.3994H7.25H5V11.7744Z" fill="white"/>
<path d="M5 13.2744V13.6494H11.375H17.75V13.2744V12.8994H11.375H5V13.2744Z" fill="white"/>
<path d="M12.5 21.1494V22.6494H15.125H17.75V21.1494V19.6494H15.125H12.5V21.1494ZM17 21.1494V21.8994H15.125H13.25V21.1494V20.3994H15.125H17V21.1494Z" fill="white"/>
<path d="M8.75 20.7744V21.1494H10.25H11.75V20.7744V20.3994H10.25H8.75V20.7744Z" fill="white"/>
<path d="M8.75 22.2744V22.6494H10.25H11.75V22.2744V21.8994H10.25H8.75V22.2744Z" fill="white"/>
</svg>
