<svg width="25" height="25" viewBox="0 0 25 25" fill="none" xmlns="http://www.w3.org/2000/svg">
<path d="M11.0625 0.333007C9.42183 0.60957 8.02964 1.32207 6.86245 2.48457C5.48901 3.86269 4.79058 5.44707 4.60776 7.61738L4.57026 8.05332L4.22808 8.14238C4.04058 8.18926 3.71245 8.31113 3.49214 8.41426C2.46089 8.89707 1.71089 9.63301 1.21401 10.6455C0.839014 11.4143 0.778076 11.7096 0.778076 12.7314C0.778076 13.5424 0.787451 13.6268 0.909326 14.0205C1.05464 14.5033 1.3312 15.0986 1.54214 15.3893C1.67339 15.5721 1.7062 15.5908 1.8937 15.5908C2.31089 15.5908 2.36714 15.2768 2.0437 14.7518C1.9312 14.5689 1.77183 14.2127 1.68745 13.9643C1.55151 13.5611 1.52808 13.4299 1.50933 12.8721C1.49526 12.3377 1.50464 12.1736 1.58901 11.8268C1.77651 11.0393 2.1562 10.383 2.7562 9.81582C3.32339 9.28145 3.95151 8.9627 4.76245 8.79863C5.35776 8.67676 5.41401 8.62051 5.37183 8.18457C5.33433 7.75801 5.4187 6.88613 5.55464 6.31894C6.21089 3.58144 8.42808 1.52363 11.1984 1.07832C11.7 0.998632 12.7171 0.989257 13.2187 1.05957C14.5218 1.24238 15.8953 1.88457 16.8281 2.73301C17.1656 3.04238 17.2875 3.12207 17.4375 3.12207C17.5921 3.12207 17.7656 2.91582 17.7656 2.72832C17.7656 2.5877 17.7187 2.52676 17.3812 2.20801C16.3875 1.28457 14.9671 0.595508 13.575 0.356444C12.9281 0.248632 11.6437 0.23457 11.0625 0.333007Z" fill="white"/>
<path d="M18.1219 3.64238C17.9672 3.76426 17.9578 4.01738 18.0984 4.22363C18.4031 4.67363 18.8062 5.62051 18.9609 6.25332C19.0781 6.74551 19.1156 6.77832 19.6125 6.83457C21.614 7.0502 23.325 8.54082 23.8687 10.5283C23.9625 10.8799 23.9765 11.0299 23.9719 11.7705C23.9719 12.4783 23.9531 12.6705 23.8687 12.9752C23.3344 14.9205 21.7875 16.3314 19.8515 16.6455C19.6219 16.683 19.1297 16.7158 18.764 16.7158H18.0984L18.0844 14.8033L18.0703 12.8908L17.939 12.6893C17.8687 12.5814 17.7281 12.4361 17.625 12.3658C17.5219 12.2955 17.4422 12.2299 17.4422 12.2158C17.4422 12.2018 17.5219 12.1361 17.6156 12.0658C17.714 11.9955 17.8594 11.8502 17.9344 11.7424L18.0703 11.5455L18.0844 9.63301C18.0984 7.81426 18.0937 7.71113 18.0047 7.5377C17.5922 6.72676 15.989 6.17363 13.6219 6.02363C11.5265 5.8877 9.17342 6.25801 8.16092 6.88145C7.89842 7.04551 7.59373 7.34082 7.49529 7.5377C7.40623 7.71113 7.40154 7.81426 7.4156 9.63301L7.42967 11.5455L7.57029 11.7471C7.64998 11.8596 7.7906 12.0049 7.88435 12.0705C7.98279 12.1361 8.05779 12.2018 8.05779 12.2158C8.05779 12.2299 7.95467 12.3143 7.83279 12.4127C7.70154 12.5111 7.5656 12.6658 7.50467 12.7877C7.41092 12.9893 7.40623 13.0549 7.40623 14.8549V16.7158H6.29529C5.68123 16.7158 5.04373 16.6924 4.87498 16.6689C4.42498 16.5939 3.90935 16.4111 3.49217 16.1768C3.27185 16.0502 3.0656 15.9658 2.97654 15.9658C2.70935 15.9658 2.53592 16.2799 2.67185 16.5283C2.77498 16.7205 3.70779 17.1752 4.33592 17.3346C4.67342 17.4236 4.87967 17.433 6.35154 17.4518L7.99217 17.4705L8.3531 17.6439L8.71404 17.8174L8.71873 18.4596V19.1064H8.48904C8.14685 19.1064 8.0156 19.2283 8.0156 19.5564V19.8096H4.48592C0.998417 19.8096 0.956229 19.8096 0.853104 19.9033C0.698417 20.0486 0.712479 20.3346 0.871854 20.4611C0.993729 20.5596 1.02654 20.5596 4.50467 20.5596H8.0156V20.8127C8.0156 21.033 8.03435 21.0799 8.13748 21.1643C8.25467 21.2533 8.32498 21.2627 9.07498 21.2627C9.52029 21.2627 9.91873 21.2486 9.96092 21.2346C10.1297 21.1689 10.1719 20.9674 10.1719 20.1846C10.1719 19.1955 10.1297 19.1064 9.67498 19.1064H9.46873V18.5861C9.46873 18.0658 9.46873 18.0658 9.57654 18.0939C9.7781 18.1502 11.025 18.3564 11.1609 18.3564H11.2969V20.2221V22.083L10.9078 22.4721L10.5234 22.8564H6.68904H2.85935V22.5846C2.85935 22.1533 2.85935 22.1533 1.79529 22.1533C0.993729 22.1533 0.895292 22.1627 0.829667 22.2377C0.759354 22.3127 0.749979 22.4533 0.749979 23.2174C0.749979 24.0189 0.759354 24.1174 0.834354 24.183C0.909354 24.2533 1.04998 24.2627 1.81404 24.2627C2.85935 24.2627 2.85935 24.2627 2.85935 23.8268V23.5596H6.87654H10.8937L11.4703 22.983L12.0469 22.4064V20.4189V18.4268H12.75H13.4531V20.4189V22.4064L14.0297 22.983L14.6062 23.5596H18.6234H22.6406V23.8314C22.6406 24.2627 22.6406 24.2627 23.7047 24.2627C24.5062 24.2627 24.6047 24.2533 24.6703 24.1783C24.7406 24.1033 24.75 23.9627 24.75 23.1986C24.75 22.3971 24.7406 22.2986 24.6656 22.233C24.5906 22.1627 24.45 22.1533 23.6859 22.1533C22.6406 22.1533 22.6406 22.1533 22.6406 22.5893V22.8564H18.8062H14.9765L14.5875 22.4674L14.2031 22.083V20.2174V18.3564H14.339C14.4797 18.3564 15.7312 18.1502 15.9281 18.0939C16.0312 18.0658 16.0312 18.0658 16.0312 18.5861V19.1064H15.825C15.3703 19.1064 15.3281 19.1955 15.3281 20.1846C15.3281 20.9674 15.3703 21.1689 15.539 21.2346C15.5812 21.2486 15.9797 21.2627 16.425 21.2627C17.175 21.2627 17.2453 21.2533 17.3625 21.1643C17.4656 21.0799 17.4844 21.033 17.4844 20.8127V20.5596H20.9953C24.4734 20.5596 24.5062 20.5596 24.6281 20.4611C24.7875 20.3346 24.8015 20.0486 24.6469 19.9033C24.5437 19.8096 24.5015 19.8096 21.014 19.8096H17.4844V19.5564C17.4844 19.2283 17.3531 19.1064 17.0109 19.1064H16.7812V18.4596L16.7859 17.8174L17.1469 17.6393L17.5125 17.4658H18.4922C19.1062 17.4658 19.6453 17.4377 19.9219 17.4002C22.3453 17.0346 24.2344 15.1924 24.6844 12.7549C24.8015 12.1221 24.7547 10.9502 24.5953 10.3268C24.3469 9.38457 23.8734 8.53613 23.1937 7.82363C22.2797 6.87207 21.2062 6.31426 19.8703 6.09863C19.7062 6.0752 19.7015 6.07051 19.5797 5.65332C19.3594 4.92676 18.8578 3.88613 18.6047 3.63301C18.4875 3.51582 18.2765 3.52051 18.1219 3.64238ZM13.7765 6.78301C15.3328 6.89082 16.725 7.27988 17.1937 7.72988C17.3906 7.92207 17.3859 8.04395 17.1703 8.23145C16.4203 8.89238 14.0578 9.31426 11.9203 9.17363C11.0015 9.1127 10.1672 8.98145 9.56248 8.8127C8.79842 8.59238 8.15623 8.2127 8.15623 7.97832C8.15623 7.82363 8.41404 7.60332 8.81248 7.41582C9.93748 6.88613 11.85 6.64238 13.7765 6.78301ZM8.3531 9.16426C8.79842 9.42207 9.97498 9.72676 11.0203 9.85332C11.789 9.94707 13.5281 9.96113 14.2969 9.87676C15.5109 9.74551 16.4578 9.49707 17.3109 9.08457C17.3297 9.0752 17.3437 9.56738 17.3437 10.1768V11.2877L17.1937 11.433C16.8469 11.7564 15.7781 12.1268 14.7937 12.2627C14.4656 12.3096 14.3484 12.3471 14.264 12.4314C14.1187 12.5814 14.1234 12.7971 14.2781 12.9518C14.3906 13.0643 14.4187 13.0689 14.6859 13.0408C15.0703 12.9986 15.8344 12.8439 16.2469 12.7221L16.5797 12.6283L16.8094 12.7455C17.1047 12.8955 17.3437 13.1158 17.3437 13.2377C17.3437 13.6361 16.139 14.1377 14.6672 14.3533C13.95 14.4564 12.2672 14.4939 11.489 14.4189C11.1515 14.3908 10.8375 14.3768 10.7812 14.3955C10.7297 14.4096 10.6547 14.4893 10.6125 14.5643C10.5234 14.7424 10.589 14.9861 10.7484 15.0658C11.0531 15.2205 13.1765 15.2627 14.3297 15.1455C15.4734 15.0236 16.5937 14.7424 17.1469 14.4424L17.3437 14.3299V15.4455V16.5564L17.1937 16.7018C16.5094 17.3627 14.0719 17.8033 11.9015 17.658C10.1953 17.5455 8.79842 17.1752 8.31092 16.7018L8.15623 16.5564V15.4455V14.3299L8.35779 14.4424C8.70467 14.6346 9.25779 14.7986 9.39373 14.7471C9.56248 14.6861 9.67029 14.4986 9.63279 14.3299C9.59529 14.1611 9.49685 14.0721 9.25779 13.9971C8.98123 13.908 8.47498 13.6455 8.30623 13.5049C8.21248 13.4252 8.15623 13.3361 8.15623 13.2611C8.15623 13.1158 8.37185 12.9049 8.68123 12.7502L8.91092 12.633L9.57654 12.8018C10.4015 13.0033 11.1422 13.1018 12.1219 13.1393L12.8812 13.1674L13.0031 13.0455C13.1484 12.9002 13.1625 12.6939 13.0359 12.5393C12.9515 12.4361 12.9047 12.4268 12.2062 12.3986C10.3359 12.3143 8.85935 11.9439 8.30623 11.4283L8.15623 11.2877V10.1814C8.15623 9.57207 8.1656 9.0752 8.17498 9.0752C8.18904 9.0752 8.26873 9.11738 8.3531 9.16426ZM9.42185 20.1846V20.5127H9.09373H8.7656V20.1846V19.8564H9.09373H9.42185V20.1846ZM16.7344 20.1846V20.5127H16.4062H16.0781V20.1846V19.8564H16.4062H16.7344V20.1846ZM2.15623 23.208V23.5596H1.80467H1.4531V23.208V22.8564H1.80467H2.15623V23.208ZM24.0469 23.208V23.5596H23.6953H23.3437V23.208V22.8564H23.6953H24.0469V23.208Z" fill="white"/>
<path d="M10.6829 10.7581C10.5376 10.8753 10.5329 11.1472 10.6782 11.2878C10.8048 11.4191 11.0673 11.4237 11.2032 11.3019C11.3298 11.1847 11.3298 10.8894 11.2032 10.7628C11.086 10.6456 10.8282 10.6409 10.6829 10.7581Z" fill="white"/>
<path d="M14.2546 10.7909C14.1281 10.9549 14.1327 11.1049 14.2687 11.2596C14.4984 11.5315 14.9062 11.3768 14.9062 11.0253C14.9062 10.8096 14.7609 10.669 14.5312 10.669C14.3906 10.669 14.3296 10.6971 14.2546 10.7909Z" fill="white"/>
<path d="M12.4921 10.8799C12.2578 11.1096 12.4218 11.5127 12.75 11.5127C12.839 11.5127 12.9375 11.4705 13.0078 11.3955C13.0828 11.3252 13.125 11.2268 13.125 11.1377C13.125 11.0486 13.0828 10.9502 13.0078 10.8799C12.9375 10.8049 12.839 10.7627 12.75 10.7627C12.6609 10.7627 12.5625 10.8049 12.4921 10.8799Z" fill="white"/>
<path d="M10.7062 16.0314C10.4296 16.2658 10.589 16.6689 10.9499 16.6689C11.1702 16.6689 11.2968 16.533 11.2968 16.2986C11.2968 15.9611 10.9593 15.8111 10.7062 16.0314Z" fill="white"/>
<path d="M14.3625 15.9705C14.1422 16.083 14.1 16.3783 14.2735 16.5517C14.5078 16.7908 14.9063 16.6361 14.9063 16.308C14.9063 16.0314 14.6063 15.8486 14.3625 15.9705Z" fill="white"/>
<path d="M12.4734 16.1815C12.3 16.4018 12.3703 16.6643 12.6234 16.758C12.8578 16.8471 13.1203 16.6737 13.125 16.4299C13.125 16.2237 12.9609 16.0596 12.75 16.0596C12.6094 16.0596 12.5484 16.0877 12.4734 16.1815Z" fill="white"/>
</svg>
