<svg width="24" height="19" viewBox="0 0 24 19" fill="none" xmlns="http://www.w3.org/2000/svg">
<path d="M0.99224 0.613365C0.645365 0.674301 0.37349 0.880552 0.190677 1.22743C0.106302 1.3868 0.101615 1.64462 0.0875522 7.52743C0.0734897 14.4087 0.0547397 14.0009 0.406302 14.3524C0.734427 14.6806 0.720365 14.6806 3.86099 14.6806H6.64068V15.379V16.0821L6.0313 17.0337C5.37974 18.0462 5.32349 18.1915 5.51568 18.3837C5.60943 18.4774 5.67036 18.4774 9.51411 18.4774C13.7891 18.4774 13.5829 18.4915 13.6485 18.2056C13.686 18.0227 13.6626 17.9712 12.9922 16.9306L12.4063 16.0165V15.3227V14.6337H13.5782H14.7501V15.3696C14.7501 16.0493 14.7594 16.129 14.8626 16.3493C14.9938 16.6259 15.2141 16.8181 15.5282 16.9118C15.8235 17.0009 22.2688 17.0102 22.6157 16.9212C22.9204 16.8462 23.2907 16.4759 23.3657 16.1712C23.4079 16.0071 23.4219 14.5727 23.4219 10.6587C23.4219 4.73368 23.4407 5.04305 23.0938 4.69618C22.7797 4.38211 22.6672 4.36805 20.6938 4.36805H18.9688V2.89618V1.4243L18.8376 1.17587C18.6688 0.852427 18.4251 0.678989 18.0547 0.618052C17.736 0.56649 1.29693 0.561802 0.99224 0.613365ZM17.9985 1.36337C18.1954 1.43836 18.2188 1.61649 18.2188 3.01336V4.32118H17.0235C16.3532 4.32118 15.7297 4.34461 15.5985 4.37274C15.2751 4.44305 15.0219 4.63524 14.8719 4.93524L14.7501 5.18368V7.89305V10.6024H7.81255H0.875052V6.07899V1.55087L0.99224 1.43836L1.10474 1.32118H9.49536C14.5438 1.32118 17.9282 1.33993 17.9985 1.36337ZM22.5313 5.25868C22.611 5.33836 22.625 5.41336 22.625 5.84461V6.3368H19.0579H15.4907L15.5094 5.8493C15.5329 5.08055 15.1016 5.16493 19.0719 5.16493C22.3766 5.16493 22.4375 5.16493 22.5313 5.25868ZM22.625 11.5399V15.9977L22.5079 16.1102L22.3954 16.2274H19.0719C15.8657 16.2274 15.7391 16.2227 15.636 16.1384L15.5235 16.0493L15.5094 11.5681L15.5001 7.0868H19.0626H22.625V11.5399ZM14.7501 12.6415V13.8837H7.9063C1.12349 13.8837 1.06255 13.8837 0.968802 13.7899C0.87974 13.7009 0.875052 13.6352 0.875052 12.5477V11.3993H7.81255H14.7501V12.6415ZM11.6563 15.2196V15.8056H9.52349H7.39068V15.2196V14.6337H9.52349H11.6563V15.2196ZM12.1907 17.1181C12.3876 17.4274 12.5469 17.6899 12.5469 17.704C12.5469 17.7181 11.1969 17.7274 9.54224 17.7274C7.89224 17.7274 6.54693 17.7087 6.5563 17.6899C6.56568 17.6712 6.72505 17.404 6.91724 17.104L7.26411 16.5556H9.55161H11.8344L12.1907 17.1181Z" fill="white"/>
<path d="M11.9658 2.64316C11.9002 2.73691 11.8908 3.10254 11.8908 5.69004V8.63379H10.7892H9.68767V6.15879C9.68767 4.66348 9.66892 3.62285 9.64079 3.51973C9.5611 3.23848 9.21423 3.14941 9.00798 3.36035L8.89079 3.47285V6.05566V8.63379H7.78923H6.68767V6.43535C6.68767 4.28379 6.68767 4.23691 6.58923 4.11504C6.46267 3.95566 6.13923 3.9416 6.00329 4.0916C5.91892 4.18535 5.91423 4.30254 5.90017 6.41191L5.8861 8.63379H4.78923H3.68767V6.76348V4.88848L3.56579 4.79473C3.49548 4.73848 3.38298 4.69629 3.31267 4.69629C3.24235 4.69629 3.12985 4.73848 3.05954 4.79473L2.93767 4.88848V6.76348V8.63379H2.56267C2.2486 8.63379 2.1736 8.64785 2.09392 8.72754C1.95798 8.86348 1.96267 9.1916 2.10798 9.32754L2.21579 9.43066H7.83142H13.4424L13.5549 9.31348C13.7002 9.17285 13.7049 8.97129 13.5736 8.80254C13.4845 8.68535 13.4564 8.68066 13.058 8.68066H12.6408V5.7041C12.6408 2.78848 12.6408 2.72754 12.547 2.63379C12.4111 2.49785 12.0642 2.50254 11.9658 2.64316Z" fill="white"/>
<path d="M18.4344 8.12286C17.9047 8.25411 17.1406 8.80723 17.1406 9.05567C17.1453 9.24317 17.2156 9.32754 18.0875 10.1713C19.1844 11.24 19.0063 11.2447 20.1313 10.1197C20.8766 9.36973 20.9891 9.23848 20.9938 9.10723C20.9984 8.91036 20.8719 8.74629 20.525 8.51192C20.0609 8.18848 19.7797 8.10411 19.1562 8.09004C18.8609 8.08067 18.5328 8.09473 18.4344 8.12286ZM19.7141 8.97598C19.8547 9.03223 19.9766 9.10254 19.9859 9.12598C19.9953 9.15411 19.7891 9.38379 19.5312 9.64161L19.0625 10.1104L18.5703 9.61817L18.0781 9.12598L18.2094 9.06036C18.6219 8.84004 19.2969 8.80254 19.7141 8.97598Z" fill="white"/>
<path d="M17.1877 10.9726C16.4377 11.7695 16.3345 13.1101 16.9486 14.0617C17.4361 14.8117 18.0924 15.1867 18.9924 15.2336C19.8033 15.2711 20.3705 15.0601 20.9189 14.5164C21.4299 14.0148 21.6877 13.3961 21.6877 12.6883C21.6877 12.032 21.4627 11.4555 21.0361 11.0148C20.6189 10.5883 20.6002 10.593 19.7705 11.4226L19.0861 12.0976L18.4017 11.4226C17.7924 10.818 17.7033 10.743 17.5627 10.743C17.4314 10.743 17.3611 10.7851 17.1877 10.9726ZM18.7252 13.6492L18.7392 14.4461L18.5377 14.3711C18.0314 14.193 17.6002 13.7945 17.4127 13.3305C17.2533 12.9273 17.2627 12.3601 17.4361 11.9851L17.5674 11.7086L18.1392 12.2805L18.7111 12.8523L18.7252 13.6492ZM20.8205 12.6883C20.8205 13.0773 20.8017 13.1992 20.7127 13.3867C20.5064 13.832 20.0986 14.2258 19.6814 14.3711L19.4986 14.4367L19.4658 13.6586L19.433 12.8805L20.0095 12.3039L20.5861 11.7226L20.7033 11.9711C20.8017 12.1867 20.8205 12.2851 20.8205 12.6883Z" fill="white"/>
<path d="M9.00781 12.2947C8.82969 12.3463 8.75 12.4541 8.75 12.651C8.75 12.7588 8.7875 12.8479 8.86719 12.9229C8.975 13.0354 9.00781 13.04 9.5375 13.04C10.0344 13.04 10.1094 13.0307 10.2219 12.9416C10.3109 12.8713 10.3438 12.801 10.3438 12.6838C10.3438 12.4588 10.2781 12.3557 10.1047 12.2947C9.92656 12.2338 9.20938 12.2338 9.00781 12.2947Z" fill="white"/>
</svg>
