<svg width="25" height="24" viewBox="0 0 25 24" fill="none" xmlns="http://www.w3.org/2000/svg">
<path d="M1.24219 0.763769C1.03594 0.871582 0.9375 0.970018 0.839063 1.16221C0.754688 1.32627 0.75 1.46689 0.75 3.23408V5.13252L0.871875 5.22627C1.03594 5.35283 1.18594 5.34814 1.34531 5.21221C1.46719 5.10908 1.47188 5.07627 1.49063 4.62627L1.50938 4.15283H12.7547H24V11.3247C24 18.3653 24 18.4919 23.9109 18.5435C23.8594 18.5669 23.5547 18.5903 23.2313 18.5903H22.6406V18.0747C22.6406 17.62 22.6313 17.5497 22.5469 17.4653C22.4484 17.3669 22.2234 17.3435 22.0781 17.4185C21.9047 17.5122 21.8906 17.6903 21.8906 19.9778V22.1997H21H20.1094V21.7778C20.1094 21.3185 20.0531 21.1356 19.8656 21.0091C19.7766 20.9435 19.5 20.9341 17.7984 20.9341H15.8344L15.675 21.0935L15.5156 21.2528V21.7263V22.1997H14.6016H13.6875V17.1138V12.0278H17.7891H21.8859L21.9 14.1419L21.9141 16.256L22.0453 16.3685C22.2047 16.5044 22.3547 16.5138 22.5188 16.3825L22.6406 16.2888V14.0294C22.6406 11.8591 22.6359 11.7653 22.5469 11.6153C22.4953 11.531 22.3875 11.4231 22.3031 11.3716C22.1531 11.2778 22.0734 11.2778 17.7656 11.2872C13.4672 11.3013 13.3781 11.3013 13.2563 11.395C13.1859 11.4466 13.0828 11.5731 13.0313 11.681C12.9422 11.8638 12.9375 11.9575 12.9375 15.2294V18.5903H12.0563H11.1703L11.1094 18.3888C10.9922 17.9856 10.5516 17.2356 10.3125 17.02C10.1484 16.87 9.85781 16.8935 9.63281 17.0716L9.44531 17.2169L9.14062 16.9685C8.77031 16.6638 8.21719 16.3825 7.71094 16.2372C7.21875 16.1013 6.28594 16.0872 5.78906 16.2185C4.65938 16.5091 3.66563 17.32 3.20625 18.3325L3.08906 18.5903H2.38594C1.9875 18.5903 1.64063 18.5669 1.58906 18.5435C1.5 18.4919 1.5 18.3794 1.5 12.5763C1.5 8.63408 1.48125 6.60439 1.45312 6.48721C1.425 6.38877 1.36406 6.29033 1.3125 6.26221C1.16719 6.18721 0.946875 6.20596 0.84375 6.30908C0.75 6.40283 0.75 6.44502 0.759375 12.5856L0.773438 18.7685L0.91875 18.9466C1.17656 19.2653 1.33125 19.3169 2.15625 19.331L2.88281 19.3497L2.86875 19.931C2.85469 20.4044 2.87344 20.5919 2.95312 20.9013C3.29531 22.2606 4.26563 23.2778 5.625 23.7091C5.93438 23.8028 6.07031 23.8169 6.72656 23.8169C7.45313 23.8169 7.49063 23.8075 7.92188 23.6622C8.42813 23.4841 8.77031 23.3013 9.12656 23.0106C9.2625 22.8981 9.38906 22.8091 9.40313 22.8091C9.41719 22.8091 9.49219 22.8606 9.57188 22.9263C9.77344 23.095 10.0266 23.0856 10.2422 22.8981C10.4766 22.6919 10.8891 22.0497 11.0578 21.6278C11.2969 21.0325 11.3625 20.695 11.3625 19.9872L11.3672 19.3403H12.15H12.9328L12.9469 20.9013L12.9609 22.4669L13.0969 22.6403C13.3172 22.9356 13.4016 22.9497 14.6859 22.9497C15.8016 22.9497 15.8344 22.945 15.9891 22.8419C16.1906 22.706 16.2609 22.5091 16.2609 22.045L16.2656 21.6841H17.8125H19.3594V22.0872C19.3594 22.5653 19.4391 22.7669 19.6641 22.8747C19.7906 22.9356 20.0156 22.9497 20.9391 22.9497C22.2047 22.9497 22.35 22.9169 22.5375 22.6122C22.6359 22.4528 22.6406 22.4013 22.6406 20.8966V19.3497L23.3578 19.331C24.1688 19.3169 24.3234 19.2653 24.5813 18.9466L24.7266 18.7685L24.7406 10.0544C24.75 2.07627 24.7453 1.32627 24.675 1.18564C24.5672 0.974707 24.4688 0.876268 24.2719 0.773144C24.1031 0.688768 23.7938 0.684082 12.7406 0.684082C2.46563 0.688768 1.36875 0.693457 1.24219 0.763769ZM23.9906 2.42783L24 3.40283H12.75H1.5V2.45127C1.5 1.92627 1.51406 1.48096 1.53281 1.46689C1.54688 1.44814 6.60469 1.43877 12.7688 1.44346L23.9766 1.45752L23.9906 2.42783ZM7.29844 16.9263C7.69219 17.0013 8.39063 17.3153 8.66719 17.5497L8.82188 17.681L7.64531 18.5669C6.99375 19.0497 6.44531 19.4856 6.42188 19.5325C6.39375 19.5794 6.375 19.6919 6.375 19.7856C6.375 19.9872 6.42656 20.0435 7.47656 21.0044C7.86563 21.3606 8.325 21.7919 8.50313 21.9606L8.82656 22.2653L8.65313 22.4153C8.18906 22.8185 7.39688 23.0903 6.70312 23.0903C5.85 23.0903 5.14219 22.795 4.52344 22.1763C3.90469 21.5575 3.60938 20.8544 3.60938 19.9966C3.61406 18.8856 4.09688 17.9903 5.03438 17.3716C5.69531 16.931 6.49219 16.7716 7.29844 16.9263ZM10.1344 18.0841C10.6031 18.8903 10.7578 19.9778 10.5234 20.8638C10.4438 21.1872 10.1344 21.8294 9.97031 22.031L9.85781 22.1716L8.57344 20.9763L7.28906 19.7856L8.60156 18.7919C9.32344 18.2481 9.92344 17.7981 9.9375 17.7981C9.95156 17.7935 10.0406 17.9247 10.1344 18.0841Z" fill="white"/>
<path d="M2.85938 2.13721C2.71406 2.28252 2.73281 2.57314 2.8875 2.69502L3.01406 2.79346H9.28125H15.5484L15.675 2.69502C15.8297 2.57314 15.8484 2.28252 15.7031 2.13721C15.6094 2.04346 15.5484 2.04346 9.28125 2.04346C3.01406 2.04346 2.95313 2.04346 2.85938 2.13721Z" fill="white"/>
<path d="M19.3266 2.11375C19.1203 2.25906 19.1531 2.63406 19.3875 2.74187C19.7672 2.91531 20.1703 2.66218 20.0813 2.30593C20.0391 2.1325 19.8891 2.04343 19.6406 2.04343C19.5234 2.04343 19.3828 2.07625 19.3266 2.11375Z" fill="white"/>
<path d="M20.6344 2.15127C20.5688 2.22158 20.5312 2.32002 20.5312 2.42783C20.5312 2.65752 20.7 2.79346 20.9859 2.79346C21.3609 2.79346 21.5484 2.45127 21.3234 2.16533C21.2438 2.06221 21.1922 2.04346 20.9813 2.04346C20.7844 2.04346 20.7141 2.06689 20.6344 2.15127Z" fill="white"/>
<path d="M21.9608 2.16064C21.8202 2.29658 21.8062 2.50283 21.928 2.65283C22.0546 2.8122 22.4343 2.83564 22.6077 2.6997C22.7671 2.57314 22.7858 2.28252 22.6405 2.1372C22.4952 1.99189 22.1108 2.00595 21.9608 2.16064Z" fill="white"/>
<path d="M6.23445 4.85124C4.70163 5.18405 3.52976 6.26217 3.01882 7.80905C2.89695 8.18405 2.88757 8.25905 2.88757 9.0278C2.88288 9.92311 2.92038 10.134 3.18757 10.7809C3.3657 11.2028 3.75007 11.7981 3.92351 11.9153C4.05007 11.9997 4.19538 12.0044 7.15788 12.0044C10.7344 12.0044 10.3501 12.0606 10.7438 11.484C10.9969 11.1137 11.2126 10.6356 11.3532 10.1153C11.4985 9.5903 11.4985 8.60124 11.3532 8.02936C10.9782 6.52936 9.85788 5.36686 8.35788 4.92155C7.7907 4.7528 6.82038 4.71999 6.23445 4.85124ZM7.88445 5.58249C9.84851 5.99499 11.1141 8.0153 10.6173 9.94655C10.5329 10.2653 10.3219 10.734 10.1157 11.0528L9.97507 11.2778H9.56257H9.15007L9.13132 10.6544C9.11726 10.0731 9.10788 10.0169 8.96726 9.71686C8.87351 9.52467 8.71882 9.30436 8.56413 9.14499L8.31101 8.89186L8.44695 8.6153C8.78445 7.93561 8.59695 7.14811 8.00632 6.7403C7.72507 6.5528 7.48132 6.4778 7.12038 6.48249C6.31882 6.48717 5.70945 7.10592 5.70476 7.93092C5.70476 8.2403 5.72351 8.3153 5.86413 8.59186L6.02351 8.90592L5.78445 9.13092C5.33445 9.5528 5.15632 10.0403 5.15632 10.8325V11.2778H4.76257C4.36882 11.2778 4.36413 11.2778 4.25163 11.1231C4.05476 10.8653 3.79695 10.2981 3.69851 9.9278C3.57663 9.44499 3.57663 8.69967 3.7032 8.2028C4.03601 6.88092 5.07195 5.87311 6.39851 5.58249C6.7782 5.49811 7.50007 5.49811 7.88445 5.58249ZM7.50945 7.32155C7.83757 7.4903 7.96882 8.01999 7.7532 8.30592C7.50945 8.63405 7.17663 8.7278 6.8532 8.56374C6.39851 8.32936 6.30945 7.7903 6.67038 7.44342C6.92351 7.19967 7.1907 7.16217 7.50945 7.32155ZM7.80476 9.51998C8.23601 9.76842 8.38601 10.1012 8.3907 10.795V11.2778H7.14851H5.90632V10.8325C5.90632 10.2606 6.01413 9.96061 6.30945 9.68405C6.60007 9.41686 6.72195 9.37467 7.19538 9.38874C7.53288 9.39342 7.63132 9.41686 7.80476 9.51998Z" fill="white"/>
<path d="M13.8375 4.87015L13.7344 4.97797V7.49984C13.7344 10.317 13.725 10.2467 14.0532 10.3405C14.1703 10.378 15.2766 10.3873 17.6391 10.378L21.0563 10.3639L21.1735 10.228C21.3047 10.0733 21.2953 9.8764 21.1547 9.72172C21.0844 9.64203 20.9063 9.63734 17.7797 9.63734H14.4844V8.89672V8.16078L15.3703 7.51859L16.2563 6.87172L16.4344 6.94672C16.5563 6.99828 16.7063 7.01703 16.8891 7.00297L17.161 6.98422L17.4094 7.26547C17.6063 7.49047 17.6485 7.57015 17.6203 7.64515C17.55 7.82797 17.5735 8.27328 17.6672 8.45609C18.0703 9.2389 19.186 9.21078 19.5188 8.40922C19.561 8.31078 19.5938 8.11859 19.5938 7.97797V7.72484L20.011 7.39672L20.4235 7.06859L20.6719 7.13422C21.1125 7.24672 21.5157 7.10609 21.7688 6.74047C21.961 6.46859 21.9985 5.99984 21.8532 5.7139C21.3422 4.72015 19.8375 5.11859 19.9313 6.22484L19.95 6.47328L19.5282 6.80609C19.125 7.12015 19.1016 7.13422 18.9844 7.07328C18.9141 7.03578 18.7453 7.01234 18.5438 7.01703L18.2203 7.0264L17.9719 6.74515C17.7328 6.47797 17.7235 6.45453 17.7657 6.30453C17.9063 5.81234 17.6907 5.31547 17.236 5.08109C16.95 4.93578 16.4813 4.97328 16.2094 5.16547C15.9282 5.36234 15.7828 5.64359 15.7828 5.99047V6.26703L15.1453 6.73578L14.5078 7.20453L14.4844 6.07484C14.461 4.95453 14.461 4.94047 14.3485 4.8514C14.1985 4.72953 13.9641 4.73422 13.8375 4.87015ZM16.9922 5.84047C17.1563 6.02328 16.9641 6.30453 16.7203 6.24359C16.5469 6.2014 16.4813 5.95765 16.6032 5.80297C16.6782 5.7139 16.8985 5.73734 16.9922 5.84047ZM21.1032 5.96703C21.2063 6.06078 21.2157 6.2764 21.1172 6.35609C21.0797 6.3889 20.9907 6.41234 20.9203 6.41234C20.686 6.41234 20.5828 6.09828 20.775 5.96234C20.911 5.86859 20.9953 5.86859 21.1032 5.96703ZM18.7594 7.84203C18.8625 7.93578 18.8672 8.08109 18.7641 8.19359C18.6188 8.35765 18.3282 8.24047 18.3282 8.01547C18.3282 7.79047 18.586 7.68734 18.7594 7.84203Z" fill="white"/>
<path d="M4.0875 12.9184C3.83437 13.073 3.79688 13.2277 3.79688 14.1887C3.79688 14.8777 3.81094 15.0652 3.87187 15.1965C4.02187 15.5059 3.90469 15.4965 7.18125 15.4965C10.4391 15.4965 10.275 15.5105 10.4297 15.2152C10.5375 15.0043 10.5328 13.2887 10.4203 13.1012C10.2516 12.8199 10.3172 12.8246 7.13906 12.8246C4.31719 12.8246 4.2375 12.8293 4.0875 12.9184ZM9.75 14.1605V14.7465H7.14844H4.54687V14.1605V13.5746H7.14844H9.75V14.1605Z" fill="white"/>
<path d="M15.3985 12.9186C15.347 12.9374 15.2532 13.0124 15.1876 13.0827C15.0704 13.2046 15.0704 13.2233 15.0563 14.0671C15.0376 15.0421 15.0751 15.1874 15.3423 15.328C15.4782 15.403 15.7126 15.4077 17.8735 15.3936L20.2595 15.3796L20.3954 15.2249L20.5313 15.0749V14.1468C20.5313 13.1343 20.5173 13.0827 20.2501 12.9421C20.1329 12.8811 19.7673 12.8718 17.8032 12.8764C16.5329 12.8764 15.4501 12.8952 15.3985 12.9186ZM19.7813 14.1374V14.653H17.7892H15.797V14.1374V13.6218H17.7892H19.7813V14.1374Z" fill="white"/>
<path d="M15.1451 16.4623C15.0326 16.6029 15.0233 16.706 15.0983 16.8748C15.178 17.0482 15.3655 17.0998 15.8342 17.0857C16.3405 17.0623 16.453 16.9919 16.453 16.706C16.453 16.3919 16.3545 16.3404 15.7545 16.3404C15.2576 16.3404 15.2389 16.3451 15.1451 16.4623Z" fill="white"/>
<path d="M17.1093 16.4435C16.9921 16.5747 16.9874 16.8091 17.1046 16.9544L17.1937 17.0669H18.764C20.2406 17.0669 20.339 17.0622 20.4328 16.9778C20.564 16.856 20.5687 16.5653 20.4374 16.4341C20.3484 16.345 20.2828 16.3403 18.7734 16.3403C17.2218 16.3403 17.2077 16.3403 17.1093 16.4435Z" fill="white"/>
<path d="M15.1451 17.9623C15.0326 18.1029 15.0233 18.206 15.0983 18.3748C15.178 18.5482 15.3655 18.5998 15.8342 18.5857C16.3405 18.5623 16.453 18.4919 16.453 18.206C16.453 17.8919 16.3545 17.8404 15.7545 17.8404C15.2576 17.8404 15.2389 17.8451 15.1451 17.9623Z" fill="white"/>
<path d="M17.1186 17.9481C16.992 18.0841 16.9873 18.3091 17.1045 18.4544L17.1936 18.5669H18.7639C20.2405 18.5669 20.3389 18.5622 20.4327 18.4778C20.5639 18.356 20.5686 18.0653 20.4373 17.9341C20.3483 17.845 20.2827 17.8403 18.7827 17.8403H17.217L17.1186 17.9481Z" fill="white"/>
<path d="M15.1451 19.4623C15.0326 19.6029 15.0233 19.706 15.0983 19.8748C15.178 20.0482 15.3655 20.0998 15.8342 20.0857C16.3405 20.0623 16.453 19.9919 16.453 19.706C16.453 19.3919 16.3545 19.3404 15.7545 19.3404C15.2576 19.3404 15.2389 19.3451 15.1451 19.4623Z" fill="white"/>
<path d="M17.1186 19.4481C16.992 19.5841 16.9873 19.8091 17.1045 19.9544L17.1936 20.0669H18.7639C20.2405 20.0669 20.3389 20.0622 20.4327 19.9778C20.5639 19.856 20.5686 19.5653 20.4373 19.4341C20.3483 19.345 20.2827 19.3403 18.7827 19.3403H17.217L17.1186 19.4481Z" fill="white"/>
</svg>
