<svg width="25" height="25" viewBox="0 0 25 25" fill="none" xmlns="http://www.w3.org/2000/svg">
<path d="M6.63133 0.35215C6.10633 0.520901 5.59539 0.947464 5.35633 1.43027C5.08445 1.96465 5.09383 1.66934 5.09383 8.25996V14.3115L4.70945 14.335C4.25008 14.3631 4.04851 14.4428 3.78133 14.6818C3.52351 14.9162 3.39695 15.174 3.36883 15.5256C3.34539 15.8443 3.40633 16.0881 3.57508 16.3553L3.69226 16.5334L3.59383 16.6693C3.4532 16.8662 3.35945 17.1662 3.35945 17.4193V17.6397L2.96101 17.7381C1.70476 18.0475 0.809451 18.9897 0.565701 20.2647C0.293826 21.7037 1.00164 23.1334 2.30945 23.7709C2.94695 24.0803 2.85789 24.0756 6.85164 24.0756C10.2454 24.0756 10.4704 24.0662 10.6485 23.9865C11.1313 23.7662 11.3798 23.3959 11.4126 22.8615C11.4313 22.5287 11.422 22.4865 11.2719 22.2006L11.1126 21.8912L11.2204 21.7272C11.2813 21.6381 11.3563 21.4553 11.3844 21.3193L11.4454 21.0756H11.6376H11.8344L11.8673 21.4834C11.9657 22.7162 12.636 23.6256 13.7891 24.1037L14.1173 24.2397L18.0501 24.2537C21.4532 24.2631 22.0204 24.2537 22.2688 24.1928C23.0704 23.9912 23.8016 23.4053 24.1673 22.6693C24.5188 21.9522 24.5048 22.2568 24.4907 16.0225L24.4766 10.4584L24.3735 10.1537C24.0641 9.24434 23.3376 8.52246 22.4376 8.22246C22.1657 8.12871 22.011 8.11934 20.9751 8.10059L19.8173 8.08184L19.8032 6.1084L19.7891 4.13028L19.6204 3.77402C19.4423 3.40371 19.3344 3.27715 18.2657 2.16153C17.9938 1.87559 17.5719 1.43027 17.3235 1.16778C16.8454 0.6709 16.5923 0.488089 16.1657 0.347464C15.9219 0.267776 15.6313 0.263088 11.4032 0.267776C7.1657 0.267776 6.88445 0.272463 6.63133 0.35215ZM15.8751 2.57871V4.10215L15.9876 4.2334L16.1001 4.36465L17.5579 4.37871L19.0157 4.39278V6.23965V8.09121H16.7282C14.5907 8.09121 14.4126 8.0959 14.0704 8.18496C13.0954 8.4334 12.2516 9.26778 11.9516 10.2756C11.8766 10.5287 11.8673 10.9412 11.8532 15.4131L11.8391 20.2787H11.5157C11.2485 20.2787 11.1829 20.2647 11.1454 20.1943C11.1079 20.1287 11.1266 20.0678 11.2063 19.9459C11.4829 19.5381 11.497 18.9522 11.2391 18.535C11.1079 18.324 11.0985 18.2912 11.1594 18.2209C11.4829 17.8647 11.5063 17.1334 11.211 16.6975L11.0985 16.5287L11.211 16.36C11.3704 16.1209 11.436 15.8537 11.4079 15.5209C11.3844 15.1834 11.2626 14.9303 11.0141 14.6912C10.6532 14.3397 10.7282 14.349 8.1782 14.335L5.8907 14.3209V8.30684C5.8907 3.36621 5.90008 2.25528 5.95633 2.08184C6.08758 1.64121 6.42976 1.28028 6.86101 1.12559C7.00633 1.07403 7.86414 1.06465 11.4594 1.05996H15.8751V2.57871ZM17.7454 2.78965L18.5094 3.59121H17.5907H16.6719V2.61621L16.6766 1.6459L16.8266 1.81465C16.911 1.9084 17.3235 2.34434 17.7454 2.78965ZM21.9782 8.89278C22.8173 9.06621 23.5438 9.81621 23.7032 10.6647C23.7735 11.0303 23.7688 21.4131 23.6985 21.7412C23.5579 22.4209 23.0938 23.0115 22.4563 23.3115L22.086 23.4897L18.2891 23.5037C14.6188 23.5131 14.4829 23.5131 14.1876 23.424C13.3438 23.1662 12.7485 22.4443 12.636 21.5443C12.6079 21.2865 12.5938 19.2803 12.6032 15.8959L12.6173 10.6459L12.7251 10.3693C13.0063 9.62403 13.5595 9.11309 14.2954 8.91153C14.4923 8.85996 15.1954 8.8459 18.1344 8.8459C20.5813 8.84121 21.8095 8.85996 21.9782 8.89278ZM10.3204 15.1881C10.5829 15.3006 10.6907 15.6053 10.5595 15.8631C10.4188 16.135 10.4891 16.1303 7.3907 16.1303C4.31101 16.1303 4.3907 16.135 4.23601 15.8725C4.13758 15.7084 4.13758 15.5818 4.22195 15.4084C4.37195 15.1225 4.32508 15.1225 7.38133 15.1225C9.6782 15.1225 10.1891 15.1318 10.3204 15.1881ZM10.4188 17.035C10.6298 17.2037 10.6766 17.4193 10.5501 17.6584C10.4141 17.9256 10.3438 17.935 8.29539 17.935H6.42976L6.0782 17.8084C5.76883 17.7006 5.63758 17.6818 4.97664 17.6631C4.48445 17.649 4.21258 17.6256 4.19383 17.5881C4.10945 17.4615 4.16101 17.2647 4.3157 17.11L4.47508 16.9506H7.40007C10.0954 16.9506 10.3298 16.96 10.4188 17.035ZM6.05945 18.6381C7.37195 19.285 7.85945 20.7568 7.18914 22.0318C6.98289 22.4303 6.50476 22.899 6.12508 23.0818C5.72664 23.2693 5.48289 23.3209 5.01883 23.3256C4.35789 23.3256 3.7532 23.0772 3.28914 22.6037C2.31883 21.624 2.30945 20.11 3.2657 19.1537C3.81883 18.6006 4.34851 18.3943 5.15008 18.4178C5.63758 18.4318 5.67039 18.4412 6.05945 18.6381ZM2.41726 18.9662C2.19695 19.2662 2.16414 19.2943 2.00945 19.2943H1.8407L2.00476 19.1256C2.13133 18.9897 2.59539 18.6381 2.64226 18.6381C2.65164 18.6381 2.54851 18.7834 2.41726 18.9662ZM10.4657 18.8912C10.7235 19.149 10.6673 19.4772 10.3438 19.6459C10.236 19.7022 9.99226 19.7162 9.12976 19.7162H8.05164L7.9532 19.5006C7.90164 19.3787 7.77507 19.1584 7.67195 19.0084L7.48445 18.7318H8.89539H10.3063L10.4657 18.8912ZM1.84539 20.3022L1.79851 20.56H1.54539C1.26883 20.56 1.25945 20.5412 1.34851 20.2178C1.39539 20.0443 1.39539 20.0443 1.64383 20.0443H1.89226L1.84539 20.3022ZM10.4891 20.6912C10.686 20.9068 10.6766 21.1272 10.4657 21.3381L10.3063 21.4975H9.24226C8.2907 21.4975 8.18289 21.4881 8.20633 21.4225C8.22039 21.3803 8.23445 21.16 8.23445 20.9303V20.5084L9.29383 20.5225L10.3532 20.5365L10.4891 20.6912ZM1.8407 21.4365C1.85476 21.5115 1.88758 21.6381 1.90633 21.7178L1.94383 21.8725H1.71414C1.49383 21.8725 1.47508 21.8631 1.41883 21.7178C1.38601 21.6381 1.34383 21.5115 1.32508 21.4365C1.29695 21.31 1.29695 21.31 1.55476 21.31C1.79383 21.31 1.81258 21.3193 1.8407 21.4365ZM10.3813 22.3881C10.6673 22.5615 10.7048 22.8803 10.4657 23.1193L10.3063 23.2787H8.75008H7.19383L7.43289 23.0209C7.56414 22.8756 7.7282 22.6553 7.79851 22.5287L7.92976 22.2943H9.0782C10.1423 22.2943 10.236 22.3037 10.3813 22.3881ZM2.48758 22.8662L2.6657 23.1053L2.48758 23.0022C2.38445 22.9412 2.22976 22.8334 2.1407 22.7584L1.98133 22.6225L2.1407 22.6272C2.28133 22.6272 2.33289 22.6647 2.48758 22.8662Z" fill="white"/>
<path d="M7.90621 5.18506C7.78433 5.30693 7.78433 5.56006 7.90152 5.70537L7.99058 5.81787H11.2953C14.4781 5.81787 14.6046 5.81318 14.6984 5.72881C14.8296 5.60693 14.8343 5.31631 14.7031 5.18506C14.6093 5.09131 14.5484 5.09131 11.3046 5.09131C8.0609 5.09131 7.99996 5.09131 7.90621 5.18506Z" fill="white"/>
<path d="M15.5939 5.18506C15.4627 5.31631 15.4674 5.60693 15.5986 5.72881C15.683 5.8085 15.7721 5.81787 16.3017 5.81787C16.8596 5.81787 16.9111 5.8085 17.0096 5.71475C17.1361 5.58818 17.1408 5.31631 17.0189 5.18037C16.9486 5.10068 16.8736 5.09131 16.3111 5.09131C15.7486 5.09131 15.6783 5.10068 15.5939 5.18506Z" fill="white"/>
<path d="M7.93438 6.92412C7.84063 6.99912 7.8125 7.06006 7.8125 7.20068C7.8125 7.34131 7.84063 7.40225 7.93438 7.47725C8.04688 7.56631 8.12188 7.57568 8.73594 7.57568C9.10625 7.57568 9.44844 7.55693 9.49531 7.52881C9.64063 7.45381 9.71094 7.22412 9.64063 7.06006C9.60781 6.98037 9.54219 6.896 9.49531 6.87256C9.44844 6.84443 9.10625 6.82568 8.73594 6.82568C8.12188 6.82568 8.04688 6.83506 7.93438 6.92412Z" fill="white"/>
<path d="M10.4656 6.92412C10.3719 6.99912 10.3438 7.06006 10.3438 7.20068C10.3438 7.34131 10.3719 7.40225 10.4656 7.47725C10.5875 7.57568 10.625 7.57568 13.7375 7.57568C16.2453 7.571 16.8969 7.56162 16.9625 7.51006C17.0891 7.41631 17.1453 7.21943 17.0891 7.07412C16.9953 6.821 17.1266 6.83037 13.7375 6.82568C10.625 6.82568 10.5875 6.82568 10.4656 6.92412Z" fill="white"/>
<path d="M9.21875 8.19424C9.15312 8.26455 9.125 8.3583 9.125 8.51299C9.125 8.72861 9.12031 8.7333 8.94687 8.78486C8.69844 8.85986 8.40312 9.13174 8.30469 9.36611C8.1875 9.66143 8.19687 10.1771 8.32344 10.4255C8.50156 10.7771 8.69844 10.9177 9.39687 11.1849C9.99687 11.4146 10.2172 11.7005 10.1375 12.1364C10.0766 12.4646 9.83281 12.638 9.42969 12.638C9.15781 12.638 8.95156 12.5489 8.7125 12.338C8.60469 12.2349 8.47812 12.1692 8.40781 12.1692C8.27187 12.1692 8.09375 12.3614 8.09375 12.5067C8.09375 12.7786 8.44531 13.1021 8.87656 13.2286C9.12031 13.2989 9.125 13.3036 9.125 13.4817C9.125 13.7302 9.25156 13.8755 9.47656 13.8755C9.70156 13.8755 9.82812 13.7302 9.82812 13.4771C9.82812 13.3411 9.85156 13.2849 9.9125 13.2661C10.3297 13.1349 10.6531 12.8489 10.7703 12.5161C10.8641 12.2442 10.8547 11.6302 10.7516 11.363C10.6203 11.0255 10.2922 10.7583 9.75312 10.5521C9.22812 10.3458 9.03125 10.2192 8.94219 10.0411C8.84844 9.84424 8.94219 9.56768 9.13906 9.45049C9.34531 9.32393 9.82344 9.32393 10.1047 9.45049C10.4562 9.60986 10.6625 9.55361 10.7328 9.26768C10.7937 9.01455 10.5078 8.78018 10.0484 8.71924L9.82812 8.68643V8.48486C9.82812 8.33955 9.8 8.25049 9.73437 8.18486C9.60781 8.0583 9.34531 8.0583 9.21875 8.19424Z" fill="white"/>
<path d="M14.5156 9.6335C14.1172 9.76006 13.8078 10.0694 13.6906 10.4585C13.6297 10.6741 13.6203 10.8897 13.6344 11.5741C13.6531 12.5163 13.6859 12.6476 14.0047 12.9616C14.2953 13.2569 14.3563 13.271 15.3688 13.2851C16.25 13.2991 16.2922 13.2991 16.3859 13.2054C16.5359 13.0554 16.5219 12.7647 16.3625 12.6429C16.2453 12.5538 16.175 12.5444 15.4719 12.5444H14.7031L14.5531 12.4085L14.3984 12.2726L14.3844 11.5038C14.375 10.8054 14.3797 10.7257 14.4688 10.5851C14.5203 10.5007 14.6188 10.4116 14.6844 10.3882C14.7547 10.3601 16.1141 10.3413 18.2281 10.3413H21.65L21.8094 10.5007L21.9688 10.6601V11.4147C21.9688 12.2116 21.9313 12.3897 21.7484 12.4788C21.7016 12.5022 20.7172 12.5304 19.5641 12.5444L17.4594 12.5679L17.3703 12.6804C17.2484 12.8304 17.2531 13.0647 17.3891 13.1913C17.4969 13.2944 17.5063 13.2944 19.6578 13.2944H21.8188L22.0672 13.1632C22.3484 13.0179 22.5969 12.7272 22.6719 12.4601C22.7375 12.221 22.7328 10.6319 22.6625 10.4304C22.5688 10.1444 22.3625 9.896 22.1 9.75537L21.8516 9.61475L18.2422 9.60537C16.2594 9.60068 14.5813 9.61475 14.5156 9.6335Z" fill="white"/>
<path d="M14.0001 14.0069C13.6673 14.2366 13.6485 14.2929 13.6344 15.1835C13.6204 15.9476 13.6251 15.9991 13.7282 16.2007C13.8079 16.3554 13.8923 16.4397 14.0469 16.5147C14.2344 16.6132 14.3188 16.6226 15.0032 16.6226C15.8657 16.6226 16.0673 16.5663 16.2594 16.2569C16.3626 16.0929 16.3673 16.0366 16.3673 15.2632C16.3673 14.3444 16.3344 14.2226 16.0157 14.0116C15.8704 13.9085 15.8141 13.9038 15.0079 13.9038C14.2016 13.9038 14.1454 13.9085 14.0001 14.0069ZM15.6313 15.2491L15.6173 15.8491L14.9985 15.8632L14.3751 15.8772V15.2632V14.6538H15.0079H15.6454L15.6313 15.2491Z" fill="white"/>
<path d="M17.2578 13.9507C17.2063 13.9694 17.1125 14.0351 17.0516 14.0913C16.8453 14.2882 16.8125 14.4569 16.8125 15.2679C16.8125 16.121 16.85 16.2569 17.1313 16.4726L17.2953 16.5991H18.1766C19.1562 16.5991 19.1938 16.5897 19.4281 16.2476C19.5266 16.1022 19.5312 16.046 19.5312 15.2444C19.5312 14.2976 19.4984 14.1851 19.1938 13.9976C19.0531 13.9132 18.9594 13.9038 18.1953 13.9085C17.7313 13.9085 17.3094 13.9272 17.2578 13.9507ZM18.7813 15.2632V15.8726H18.1719H17.5625V15.2632V14.6538H18.1719H18.7813V15.2632Z" fill="white"/>
<path d="M20.3844 13.9972C20.0797 14.1847 20.0469 14.2972 20.0469 15.2441C20.0469 16.0457 20.0516 16.1019 20.1547 16.2472C20.3797 16.5801 20.4359 16.5988 21.3266 16.6129C22.0906 16.6269 22.1422 16.6222 22.3437 16.5191C22.4984 16.4394 22.5828 16.3551 22.6625 16.2004C22.7656 15.9988 22.7703 15.9472 22.7562 15.1832C22.7422 14.2926 22.7234 14.2363 22.3906 14.0066C22.2453 13.9082 22.1891 13.9035 21.3875 13.9035C20.6234 13.9035 20.525 13.9129 20.3844 13.9972ZM22.0156 15.2629V15.8722H21.4062H20.7969V15.2629V14.6535H21.4062H22.0156V15.2629Z" fill="white"/>
<path d="M14.0704 17.1193C13.672 17.3256 13.611 17.5177 13.6345 18.5068C13.6485 19.2709 13.6485 19.2802 13.7798 19.449C14.0095 19.7537 14.0845 19.7724 15.0548 19.7537C16.011 19.7396 16.0767 19.7209 16.2735 19.3834C16.3579 19.2381 16.3673 19.1396 16.3673 18.4037C16.3673 17.4662 16.3298 17.3443 15.9876 17.1521C15.8189 17.0537 15.7439 17.0443 15.0079 17.0443C14.3751 17.0443 14.1829 17.0584 14.0704 17.1193ZM15.6314 18.4131L15.6454 19.0131H15.0079H14.3751V18.4037V17.7896L14.9985 17.8037L15.6173 17.8177L15.6314 18.4131Z" fill="white"/>
<path d="M17.258 17.1101C17.0658 17.1944 16.8689 17.4335 16.8361 17.621C16.8174 17.7054 16.8127 18.1132 16.8221 18.5304C16.8361 19.3694 16.8596 19.4351 17.1877 19.6554C17.333 19.7585 17.3893 19.7632 18.158 19.7632C19.0721 19.7632 19.2127 19.7304 19.4049 19.4632C19.5033 19.3226 19.508 19.2757 19.508 18.4038C19.508 17.3679 19.4939 17.321 19.1283 17.1382C18.9596 17.0538 18.8471 17.0444 18.1674 17.0444C17.633 17.0491 17.3564 17.0679 17.258 17.1101ZM18.7814 18.4038V19.0132H18.1721H17.5627V18.4038V17.7944H18.1721H18.7814V18.4038Z" fill="white"/>
<path d="M20.586 17.1335C20.3656 17.2366 20.1688 17.4335 20.0985 17.621C20.0656 17.7101 20.0469 18.4929 20.0469 19.8851C20.0469 22.2757 20.0375 22.2054 20.3938 22.5194C20.6375 22.7304 20.8344 22.7726 21.5094 22.7538C22.0813 22.7398 22.1094 22.7351 22.3063 22.5991C22.4375 22.5054 22.5547 22.3694 22.6391 22.2007L22.7703 21.9429L22.7563 19.8335C22.7422 17.7991 22.7375 17.7194 22.6438 17.5366C22.5922 17.4335 22.4563 17.2835 22.3485 17.2085C22.1516 17.0679 22.1422 17.0679 21.4625 17.0538C20.8672 17.0444 20.75 17.0538 20.586 17.1335ZM21.9406 17.8694C22.0063 17.9304 22.0156 18.1788 22.0156 19.8851C22.0156 22.2007 22.0719 22.0132 21.3969 22.0132C21.0641 22.0132 20.9516 21.9944 20.8813 21.9335C20.8016 21.8632 20.7969 21.7366 20.7969 19.8804C20.7969 18.4085 20.811 17.8929 20.8531 17.8507C20.9422 17.7616 21.8469 17.7757 21.9406 17.8694Z" fill="white"/>
<path d="M14.0704 20.1194C13.672 20.3257 13.611 20.5179 13.6345 21.5069C13.6485 22.271 13.6485 22.2804 13.7798 22.4491C14.0048 22.7444 14.0845 22.7632 15.022 22.7632C15.8142 22.7632 15.8704 22.7585 16.0157 22.6554C16.3345 22.4444 16.3673 22.3226 16.3673 21.4038C16.3673 20.6257 16.3626 20.5741 16.2548 20.4054C16.0626 20.0913 15.8985 20.0444 14.9985 20.0444C14.3751 20.0444 14.1829 20.0585 14.0704 20.1194ZM15.6314 21.2538C15.6407 21.4929 15.636 21.7647 15.622 21.8538L15.5892 22.0132H14.9845H14.3751V21.4038V20.7897L14.9939 20.8038L15.6126 20.8179L15.6314 21.2538Z" fill="white"/>
<path d="M17.258 20.1101C17.0658 20.1944 16.8689 20.4335 16.8361 20.621C16.8174 20.7054 16.8127 21.1132 16.8221 21.5304C16.8361 22.3694 16.8596 22.4351 17.1877 22.6554C17.333 22.7585 17.3893 22.7632 18.158 22.7632C19.0721 22.7632 19.2127 22.7304 19.4049 22.4632C19.4986 22.3272 19.508 22.2616 19.5221 21.4601C19.5361 20.6491 19.5314 20.5976 19.433 20.4194C19.2502 20.096 19.0721 20.0444 18.1674 20.0444C17.633 20.0491 17.3564 20.0679 17.258 20.1101ZM18.7814 21.4038V22.0132H18.1721H17.5627V21.4038V20.7944H18.1721H18.7814V21.4038Z" fill="white"/>
<path d="M4.79839 19.0225C4.75621 19.0553 4.69058 19.1584 4.65308 19.2475C4.61558 19.3412 4.53121 19.4444 4.46089 19.4819C4.25464 19.5897 4.10933 19.8944 4.10933 20.2037C4.10933 20.6866 4.31089 20.9209 4.92027 21.1459C5.20152 21.2537 5.31871 21.4037 5.24371 21.5678C5.16402 21.7412 4.89214 21.7272 4.67183 21.5444C4.47964 21.3756 4.34371 21.3662 4.17496 21.5162C3.92183 21.7319 4.03902 22.1116 4.41871 22.2944C4.55464 22.36 4.63433 22.435 4.65308 22.51C4.74214 22.8616 5.31871 22.8381 5.39839 22.4819C5.41714 22.4022 5.44996 22.3412 5.47808 22.3412C5.58121 22.3412 5.80621 22.135 5.89996 21.9522C6.04058 21.6803 6.04058 21.2209 5.89996 20.9537C5.79214 20.7381 5.59996 20.6022 5.16402 20.4194C4.95777 20.3303 4.87808 20.2741 4.86871 20.1991C4.84527 20.0491 5.05152 20.0069 5.33277 20.1053C5.62339 20.2084 5.68433 20.2037 5.82027 20.0678C6.05464 19.8381 5.93277 19.51 5.57652 19.3881C5.48746 19.3553 5.40777 19.285 5.37496 19.1959C5.34214 19.1209 5.27652 19.0366 5.22964 19.0131C5.11246 18.9475 4.89214 18.9569 4.79839 19.0225Z" fill="white"/>
</svg>
