<svg width="24" height="23" viewBox="0 0 24 23" fill="none" xmlns="http://www.w3.org/2000/svg">
<path d="M11.4092 0.457325C10.8326 0.583887 10.2514 0.963575 9.92323 1.42764C9.62791 1.84483 9.18729 2.65576 9.18729 2.77764C9.18729 2.91826 9.43573 3.15264 9.58573 3.15264C9.75916 3.15264 9.87635 3.0167 10.2185 2.40264C10.5748 1.76514 10.8139 1.51201 11.2404 1.31045C11.5264 1.17451 11.5967 1.16045 11.9998 1.16045C12.4029 1.16045 12.4732 1.17451 12.7592 1.31045C12.9326 1.39014 13.1623 1.54951 13.2748 1.66201C13.4248 1.81201 14.681 3.98232 18.267 10.2823C20.906 14.9089 23.0951 18.7808 23.1373 18.8792C23.4982 19.7417 23.0764 20.7683 22.181 21.2089L21.867 21.3636H11.9998H2.1326L1.82791 21.2183C0.890415 20.7729 0.482602 19.6995 0.904477 18.7948C0.970102 18.6589 2.81698 15.3964 5.01541 11.5433C7.9826 6.33545 9.01385 4.49795 9.01385 4.38076C9.02323 4.07607 8.64823 3.89326 8.42323 4.09951C8.29666 4.21201 0.266977 18.3026 0.116977 18.6683C-0.00958525 18.9823 -0.0377102 19.8308 0.0701023 20.1964C0.341977 21.1433 1.10135 21.8792 2.00135 22.0667C2.47948 22.1698 21.5201 22.1698 21.9982 22.0667C22.8935 21.8792 23.6576 21.1386 23.9295 20.1964C24.0326 19.8448 24.0092 19.0386 23.8826 18.6917C23.7935 18.4386 14.4748 2.02295 14.1185 1.49326C13.5467 0.640139 12.4685 0.227638 11.4092 0.457325Z" fill="white"/>
<path d="M11.6297 2.27123C11.4234 2.37904 11.3484 2.51498 6.61406 10.8165L1.80469 19.254V19.54C1.80469 19.779 1.82344 19.8493 1.94063 19.9993C2.19375 20.3322 1.38281 20.3087 12 20.3087C22.6172 20.3087 21.8063 20.3322 22.0594 19.9993C22.1766 19.8493 22.1953 19.779 22.1953 19.54C22.1953 19.2681 22.1766 19.2212 21.7781 18.5275C21.5484 18.129 21.3188 17.7634 21.2719 17.7165C21.1453 17.6087 20.9484 17.6134 20.7938 17.7353C20.5828 17.8993 20.625 18.0587 21.0703 18.8368L21.4688 19.5353L16.7344 19.5493C14.1281 19.554 9.87188 19.554 7.26562 19.5493L2.53594 19.5353L7.24688 11.2619C9.83438 6.71029 11.9766 2.98841 12 2.98841C12.0234 2.98841 13.7719 6.02591 15.8859 9.73841C17.9953 13.4509 19.7719 16.5447 19.8281 16.615C20.0344 16.8822 20.4844 16.7228 20.4844 16.3853C20.4844 16.315 18.8391 13.3806 16.5375 9.3306C12.2344 1.77435 12.5156 2.22435 12.0516 2.18216C11.8875 2.16341 11.7844 2.18685 11.6297 2.27123Z" fill="white"/>
<path d="M3.65597 3.94502C1.46222 4.66689 0.0372206 6.83721 0.280971 9.08721C0.360658 9.82783 0.426283 9.94971 0.745033 9.94971C0.951283 9.94971 1.10128 9.78096 1.08722 9.57471C1.08722 9.56064 1.06378 9.34502 1.03566 9.09189C0.895033 7.84033 1.34035 6.58877 2.24503 5.67939C2.76066 5.16846 3.17785 4.91064 3.93722 4.65283C4.34972 4.51221 4.43878 4.46533 4.49035 4.35752C4.60753 4.11377 4.4341 3.80908 4.18566 3.80908C4.11066 3.81377 3.87628 3.87002 3.65597 3.94502Z" fill="white"/>
<path d="M19.5936 3.90254C19.4623 4.03379 19.4248 4.22598 19.5045 4.3666C19.5561 4.46035 19.6826 4.52598 20.0623 4.65723C20.8217 4.91035 21.2389 5.16816 21.7545 5.6791C22.6545 6.5791 23.1045 7.84473 22.9686 9.06348C22.9404 9.30254 22.9076 9.50879 22.8983 9.52754C22.8608 9.59316 22.9779 9.85566 23.0623 9.90254C23.1748 9.96348 23.3717 9.96348 23.4842 9.90254C23.6014 9.8416 23.6623 9.63535 23.7186 9.09629C23.8123 8.25723 23.6529 7.33848 23.2686 6.53223C22.6733 5.27129 21.6186 4.34785 20.3061 3.93066C19.842 3.78535 19.7154 3.78066 19.5936 3.90254Z" fill="white"/>
<path d="M4.33586 5.84329C3.37023 6.14797 2.63429 6.94016 2.36711 7.95735C2.28273 8.28547 2.27804 9.05422 2.35773 9.29329C2.45617 9.57454 2.78429 9.64954 2.99992 9.43391C3.07961 9.35422 3.08429 9.29797 3.06086 8.85735C3.03742 8.44485 3.04679 8.32297 3.13117 8.04641C3.35148 7.33391 3.86242 6.80891 4.57492 6.57454C5.00617 6.42922 5.13742 6.1761 4.9171 5.89954C4.80929 5.7636 4.64523 5.74485 4.33586 5.84329Z" fill="white"/>
<path d="M19.1062 5.88566C18.9609 6.03566 18.9421 6.28879 19.0687 6.40129C19.1155 6.44347 19.2796 6.52316 19.4296 6.57472C20.1515 6.82316 20.6484 7.3341 20.8687 8.0466C20.953 8.32316 20.9624 8.44504 20.939 8.85754C20.9155 9.29816 20.9202 9.35441 20.9999 9.4341C21.2202 9.65441 21.539 9.5841 21.6421 9.29347C21.7218 9.05441 21.7171 8.28566 21.6327 7.95754C21.4687 7.32941 21.1312 6.79035 20.6577 6.39191C20.3577 6.13879 19.739 5.8341 19.4437 5.7966C19.2515 5.76847 19.214 5.77785 19.1062 5.88566Z" fill="white"/>
<path d="M11.4606 7.81181C11.334 7.86806 11.1372 8.01337 11.034 8.13056C10.6778 8.51493 10.6825 8.48212 10.6965 11.3368C10.7106 13.8587 10.7106 13.8634 10.8184 14.0602C10.9497 14.3134 11.184 14.5477 11.4184 14.6649C11.6762 14.7915 12.3231 14.7915 12.5856 14.6602C12.8528 14.529 13.1059 14.2431 13.2184 13.9524C13.3075 13.704 13.3122 13.5962 13.3122 11.2665C13.3122 8.51025 13.3122 8.50556 12.97 8.13525C12.6981 7.83993 12.3887 7.69931 11.9997 7.69931C11.7793 7.69931 11.6293 7.73212 11.4606 7.81181ZM12.2997 8.54775C12.5668 8.75868 12.5622 8.71181 12.5622 11.2384C12.5622 13.7931 12.5622 13.7837 12.2856 13.9477C12.009 14.1118 11.6434 14.004 11.5075 13.7181C11.4043 13.4977 11.3997 8.98368 11.5075 8.77743C11.6106 8.57587 11.7981 8.44931 11.9997 8.44931C12.1075 8.44931 12.2247 8.48681 12.2997 8.54775Z" fill="white"/>
<path d="M11.5313 15.4668C11.2125 15.584 10.8516 15.9637 10.7531 16.3012C10.5563 16.9902 10.875 17.6793 11.5125 17.9465C11.6156 17.9887 11.8219 18.0215 12.0094 18.0215C12.9141 18.0215 13.5047 17.1965 13.2469 16.3012C13.1813 16.0902 13.111 15.9777 12.9235 15.7855C12.5438 15.4059 12.0375 15.2887 11.5313 15.4668ZM12.2391 16.2074C12.4031 16.2918 12.5625 16.5355 12.5625 16.6902C12.5625 17.1777 11.9625 17.4496 11.6297 17.1215C11.3578 16.8449 11.4047 16.4324 11.7281 16.2309C11.9156 16.1184 12.0516 16.1137 12.2391 16.2074Z" fill="white"/>
</svg>
