<svg width="24" height="24" viewBox="0 0 24 24" fill="none" xmlns="http://www.w3.org/2000/svg">
<path d="M3.46418 0.633303C2.97199 0.792677 2.60168 1.1208 2.35324 1.62236L2.22668 1.88018L2.21261 11.3349L2.20324 20.7942H1.31261C0.445426 20.7942 0.426676 20.7989 0.295426 20.9067C0.168863 21.0146 0.164176 21.038 0.150113 21.5302C0.117301 22.4255 0.257926 22.9505 0.632926 23.3677C0.853238 23.6067 1.27511 23.8271 1.64074 23.8833C2.07199 23.9536 16.7064 23.9536 17.0861 23.8833C17.6439 23.7802 18.0657 23.4614 18.3142 22.9599L18.4454 22.6927L18.4595 19.7302L18.4736 16.7677L20.7564 16.7536C23.0017 16.7396 23.0439 16.7396 23.2314 16.6364C23.4704 16.5099 23.6907 16.2614 23.7704 16.0271C23.8267 15.8817 23.8361 14.7849 23.8361 9.8958V3.94268L23.7329 3.75518C23.6767 3.65205 23.5642 3.50205 23.4751 3.41768C23.1704 3.12705 23.1423 3.12236 20.6907 3.12236H18.4689V2.5833C18.4689 2.1708 18.4454 1.9833 18.3798 1.79111C18.1876 1.24736 17.7611 0.825489 17.2173 0.642677C16.9267 0.544239 16.8939 0.544239 10.3267 0.548927C4.12043 0.548927 3.71261 0.553616 3.46418 0.633303ZM17.1329 1.47705C17.5595 1.7208 17.7142 2.06768 17.7189 2.75674V3.12236H15.5298H13.3361L13.097 3.23487C12.8251 3.36143 12.5814 3.62861 12.5157 3.87705C12.4829 3.98955 12.4736 6.21143 12.4782 10.0458L12.4923 16.0458L12.6329 16.2708C12.7314 16.4255 12.8532 16.538 13.0314 16.6411L13.2892 16.7864L15.5064 16.8005L17.7189 16.8146V19.4958C17.7189 21.1599 17.7001 22.2567 17.6673 22.388C17.5642 22.8427 17.2267 23.1427 16.7861 23.1755C16.3782 23.2036 16.0407 23.0021 15.8298 22.5989C15.7454 22.4396 15.7267 22.3083 15.7126 21.7177C15.6939 21.0474 15.6892 21.0239 15.5767 20.9349C15.4595 20.8458 15.3798 20.8411 12.6704 20.8411H9.88605L10.6876 19.2567L11.4845 17.6677V10.9692C11.4845 6.58643 11.4657 4.20986 11.4376 4.09736C11.4095 3.99893 11.3111 3.8583 11.2079 3.76455C10.9689 3.54893 10.8282 3.53486 9.39855 3.55361C8.15168 3.56768 8.08136 3.58643 7.86574 3.88174L7.75793 4.03643L7.74386 10.8427L7.73449 17.6536L8.50793 19.2005L9.28136 20.7474H6.14074H3.00011V11.4427C3.00011 3.74111 3.00949 2.10987 3.06105 1.9833C3.15949 1.75361 3.35168 1.54737 3.57668 1.43955L3.77355 1.34111H10.3361H16.8986L17.1329 1.47705ZM22.9642 4.04111C23.0626 4.16768 23.0626 4.16768 23.0626 9.95205V15.7364L22.9454 15.8489L22.8329 15.9661H18.1407C13.5751 15.9661 13.4532 15.9661 13.3642 15.8771C13.3126 15.8255 13.2611 15.6942 13.2423 15.5817C13.2282 15.4692 13.2189 12.8396 13.2282 9.74111L13.2423 4.09736L13.3548 4.0083C13.4626 3.92393 13.6079 3.91924 18.1642 3.91924H22.8704L22.9642 4.04111ZM10.7345 8.11455V11.888H9.63293H8.53136V8.11455V4.34111H9.63293H10.7345V8.11455ZM10.7345 15.0521V17.4661L10.1861 18.5677L9.63293 19.6692L9.08449 18.5817L8.53605 17.4896V15.0614L8.53136 12.638H9.63293H10.7345V15.0521ZM14.9532 21.9989C14.9579 22.4161 15.0095 22.688 15.1407 22.9646C15.1923 23.0677 15.2345 23.1614 15.2345 23.1708C15.2345 23.1802 12.1829 23.1802 8.45168 23.1755L1.66418 23.1614L1.44386 23.0302C1.10636 22.8333 0.970426 22.5661 0.946988 22.0505L0.928238 21.638H7.94074H14.9532V21.9989Z" fill="white"/>
<path d="M4.17195 6.08506C4.0407 6.23037 4.04538 6.49756 4.18601 6.62881C4.29382 6.72725 4.33132 6.73193 5.39538 6.73193C6.48757 6.73193 6.50163 6.73193 6.60007 6.62412C6.73132 6.4835 6.73132 6.26787 6.60476 6.10381L6.51101 5.98193H5.3907C4.29851 5.98193 4.2657 5.98662 4.17195 6.08506Z" fill="white"/>
<path d="M4.19536 9.98506C4.05005 10.1304 4.04067 10.3741 4.16723 10.5335L4.2563 10.646H5.39067H6.52505L6.61411 10.5335C6.72661 10.3929 6.72661 10.1491 6.61411 10.0085C6.52505 9.896 6.51567 9.896 5.4188 9.88193L4.31255 9.86787L4.19536 9.98506Z" fill="white"/>
<path d="M4.28447 13.8757C4.0454 13.9835 3.99853 14.2976 4.1954 14.4897L4.3079 14.6069H5.39072H6.47353L6.58603 14.4897C6.74541 14.3351 6.74541 14.1007 6.58134 13.946C6.46416 13.8335 6.45009 13.8335 5.44697 13.8241C4.66416 13.8147 4.39697 13.8241 4.28447 13.8757Z" fill="white"/>
<path d="M4.18128 17.9022C4.04534 18.0429 4.04534 18.3054 4.17191 18.4413C4.26566 18.5397 4.29847 18.5444 5.39066 18.5444C6.48284 18.5444 6.51566 18.5397 6.60941 18.4413C6.73128 18.3101 6.73128 18.0757 6.60472 17.9163L6.51097 17.7944H5.39534C4.29378 17.7944 4.27972 17.7944 4.18128 17.9022Z" fill="white"/>
<path d="M14.6344 5.24103C14.5547 5.30197 14.4422 5.4379 14.386 5.54572C14.2969 5.72853 14.2922 5.8129 14.3063 6.72228L14.3204 7.70197L14.4563 7.8754C14.7001 8.19884 14.5454 8.18947 18.2297 8.1754C21.5063 8.16134 21.5579 8.16134 21.6844 8.0629C21.9985 7.82853 22.0079 7.80509 22.0219 6.72697C22.036 5.79884 22.0313 5.72853 21.9376 5.53634C21.8813 5.41915 21.7688 5.2879 21.6844 5.23165C21.5297 5.1379 21.4688 5.1379 18.1594 5.1379H14.7891L14.6344 5.24103ZM21.2344 6.6379V7.3879H18.1641H15.0938V6.6379V5.8879H18.1641H21.2344V6.6379Z" fill="white"/>
<path d="M15.0096 9.68506C14.8971 9.79287 14.869 10.046 14.9534 10.2007C15.0143 10.3179 15.2815 10.3882 15.6565 10.3882C16.0315 10.3882 16.2987 10.3179 16.3596 10.2007C16.4534 10.0319 16.4159 9.79287 16.2846 9.68975C16.1768 9.60537 16.0924 9.59131 15.6377 9.59131C15.1737 9.59131 15.0987 9.60068 15.0096 9.68506Z" fill="white"/>
<path d="M17.4844 9.68469C17.4188 9.75031 17.3906 9.83938 17.3906 9.98C17.3906 10.2753 17.4938 10.3503 17.925 10.3784C18.6047 10.4206 18.8906 10.3034 18.8906 9.98469C18.8906 9.905 18.8484 9.78313 18.7922 9.71281C18.6984 9.59563 18.6844 9.59094 18.1359 9.59094C17.6391 9.59094 17.5688 9.60031 17.4844 9.68469Z" fill="white"/>
<path d="M19.9924 9.70807C19.7721 9.92369 19.8705 10.2659 20.1752 10.3456C20.4611 10.4253 21.1596 10.3784 21.2768 10.2753C21.4502 10.1206 21.4221 9.74088 21.2346 9.63775C21.1877 9.60963 20.9111 9.59088 20.6252 9.59088C20.1377 9.59088 20.1002 9.59557 19.9924 9.70807Z" fill="white"/>
<path d="M15.1079 11.7944C14.8735 11.8882 14.8266 12.2866 15.0282 12.446C15.136 12.5304 15.2204 12.5444 15.6563 12.5444C16.0922 12.5444 16.1766 12.5304 16.2844 12.446C16.4672 12.3007 16.4579 12.0335 16.261 11.8694C16.1297 11.7569 16.0876 11.7476 15.6657 11.7522C15.4172 11.7522 15.1641 11.771 15.1079 11.7944Z" fill="white"/>
<path d="M17.5125 11.846C17.4141 11.921 17.3906 11.9819 17.3906 12.1366C17.3906 12.4882 17.4984 12.5444 18.1641 12.5444C18.6281 12.5444 18.6656 12.5351 18.7734 12.4272C18.9609 12.2444 18.9047 11.9069 18.6703 11.7991C18.6094 11.771 18.3516 11.7476 18.0984 11.7476C17.7047 11.7476 17.6203 11.7616 17.5125 11.846Z" fill="white"/>
<path d="M20.0767 11.7944C19.8517 11.8882 19.8049 12.2397 19.9924 12.4272C20.1002 12.5397 20.1377 12.5444 20.6252 12.5444C20.9111 12.5444 21.1877 12.5257 21.2346 12.4976C21.3424 12.4413 21.4174 12.221 21.3892 12.0616C21.3424 11.8226 21.2252 11.771 20.6767 11.7616C20.4049 11.7522 20.133 11.771 20.0767 11.7944Z" fill="white"/>
<path d="M15 14.0913C14.9391 14.1522 14.9062 14.246 14.9062 14.3726C14.9062 14.7007 15 14.7476 15.6562 14.7476C16.1719 14.7476 16.2234 14.7382 16.3125 14.6444C16.4437 14.4991 16.4391 14.2319 16.2984 14.1007C16.2 14.0069 16.1391 13.9976 15.6422 13.9976C15.1547 13.9976 15.0844 14.0069 15 14.0913Z" fill="white"/>
<path d="M17.4704 14.0817C17.3579 14.2083 17.3673 14.5364 17.4845 14.6536C17.5829 14.7521 17.6814 14.7614 18.3283 14.7521C18.6376 14.7427 18.6939 14.7286 18.7876 14.6255C18.9376 14.4567 18.9095 14.1521 18.7314 14.0349C18.7033 14.0161 18.4267 13.9974 18.1126 13.9974C17.6204 13.9974 17.5361 14.0067 17.4704 14.0817Z" fill="white"/>
<path d="M19.9734 14.1194C19.9172 14.1897 19.875 14.3022 19.875 14.3726C19.875 14.4429 19.9172 14.5554 19.9734 14.6257C20.0672 14.7429 20.0812 14.7476 20.625 14.7476C21.2906 14.7476 21.3891 14.7007 21.3891 14.3819C21.3891 14.0351 21.3141 13.9976 20.6437 13.9976C20.0812 13.9976 20.0672 13.9976 19.9734 14.1194Z" fill="white"/>
</svg>
