<svg width="21" height="25" viewBox="0 0 21 25" fill="none" xmlns="http://www.w3.org/2000/svg">
<path d="M9.8829 0.647072C7.63759 1.94082 4.95634 3.1127 2.42977 3.90957C2.01727 4.04082 1.45946 4.21895 1.19227 4.30332C0.4329 4.54238 0.5079 4.14395 0.5079 7.89395C0.5079 11.1893 0.52665 11.6439 0.718837 12.7549C1.34227 16.4064 3.22196 19.5611 6.20321 21.9611C7.06571 22.6596 7.9704 23.2361 8.92196 23.6955C9.77977 24.1127 10.2063 24.2393 10.7501 24.2393C11.2938 24.2393 11.7204 24.1127 12.5782 23.6955C14.622 22.7064 16.6048 21.0564 18.011 19.1768C19.6891 16.9408 20.6454 14.4705 20.9313 11.6346C20.9735 11.2455 20.9923 10.0643 20.9923 7.89395C20.9923 4.7627 20.9923 4.72051 20.8938 4.58926C20.7954 4.45332 20.7251 4.4252 19.2345 3.96582C16.8438 3.2252 14.0126 1.99707 11.7016 0.693947C10.7173 0.136135 10.7641 0.140821 9.8829 0.647072ZM11.3313 1.71113C13.6141 3.00488 16.8016 4.35957 19.3423 5.11426L19.9376 5.29238V8.1002C19.9376 10.2893 19.9235 11.058 19.8673 11.5877C19.5813 14.3111 18.5876 16.7533 16.9095 18.8721C16.1829 19.7908 14.7907 21.0658 13.6798 21.8299C12.8923 22.3736 11.7485 22.9596 11.1157 23.1424L10.7501 23.2502L10.3891 23.1424C9.75165 22.9596 8.6079 22.3736 7.8204 21.8299C6.70946 21.0658 5.31727 19.7908 4.59071 18.8721C2.91259 16.7533 1.91884 14.3111 1.6329 11.5877C1.57665 11.058 1.56259 10.2893 1.56259 8.1002V5.29238L2.16259 5.11426C4.80165 4.32676 7.90946 3.00957 10.1876 1.70176C10.4829 1.52832 10.736 1.39238 10.7454 1.3877C10.7501 1.3877 11.0173 1.53301 11.3313 1.71113Z" fill="white"/>
<path d="M6.87798 4.45332C6.53111 4.8002 6.75611 5.3252 7.2483 5.3252C7.54361 5.3252 7.74517 5.11426 7.74986 4.8002C7.74986 4.61738 7.72642 4.55645 7.60455 4.43926C7.48736 4.31738 7.42173 4.29395 7.2483 4.29395C7.07017 4.29395 7.01392 4.31738 6.87798 4.45332Z" fill="white"/>
<path d="M5.66426 4.90333C5.58926 4.92208 5.18613 5.0627 4.77363 5.21739C4.36113 5.37208 3.72363 5.60176 3.35332 5.72364C2.44394 6.02364 2.50019 5.91583 2.50019 7.35489C2.50019 8.5502 2.51894 8.66739 2.74394 8.78458C2.97832 8.90645 3.20801 8.87364 3.38613 8.69551L3.53144 8.5502V7.66895V6.7877L3.77988 6.70801C4.19238 6.57208 5.93613 5.92989 6.06738 5.85958C6.13769 5.82676 6.22676 5.71895 6.27363 5.6252C6.46113 5.22676 6.10488 4.80489 5.66426 4.90333Z" fill="white"/>
<path d="M14.9405 7.54713C14.8093 7.57995 14.6077 7.65963 14.4952 7.72995C14.3827 7.79557 13.1312 9.00963 11.7108 10.4299L9.1374 13.0128L8.1249 12.0096C7.44053 11.3299 7.04678 10.9784 6.90146 10.9128C5.77178 10.3737 4.51553 11.1424 4.50146 12.3799C4.50146 12.769 4.56709 12.9987 4.77803 13.3174C5.00303 13.6596 8.10146 16.7299 8.34521 16.8518C8.45303 16.9034 8.6874 16.9737 8.86553 17.0065C9.27803 17.0768 9.6999 16.9831 10.0608 16.744C10.1968 16.6549 11.7437 15.1409 13.4968 13.3784C15.9765 10.894 16.7218 10.1253 16.8108 9.93776C17.3593 8.84557 16.6796 7.60338 15.4843 7.50963C15.3062 7.49557 15.0812 7.50963 14.9405 7.54713ZM15.7749 8.74244C15.8452 8.82213 15.9155 8.93932 15.9343 9.00495C16.014 9.32838 16.0702 9.26276 12.6343 12.6987L9.36709 15.9659H9.15146C8.9874 15.9659 8.89365 15.9331 8.75303 15.8299C8.43896 15.6003 5.6499 12.7643 5.59834 12.6237C5.52334 12.4268 5.5374 12.2581 5.64053 12.0893C5.80459 11.8128 6.19365 11.7096 6.4374 11.869C6.50303 11.9112 7.08428 12.4737 7.72646 13.1112L8.90303 14.2784H9.13271H9.3624L12.1796 11.4706C13.7265 9.92838 15.0343 8.63932 15.0858 8.6112C15.1374 8.58307 15.2827 8.56432 15.4093 8.5737C15.5968 8.59245 15.6671 8.62057 15.7749 8.74244Z" fill="white"/>
<path d="M16.2436 16.4908C16.1874 16.5189 15.9858 16.7533 15.803 17.0158C15.1702 17.9018 14.3499 18.783 13.5155 19.4674C13.028 19.8658 13.0046 19.8986 12.9671 20.1096C12.9108 20.4564 13.1358 20.7002 13.5061 20.7002C13.6608 20.7002 13.7499 20.6439 14.2233 20.2643C14.9358 19.6783 15.8874 18.6893 16.4218 17.9721C16.9561 17.2596 17.0358 17.1096 16.9983 16.8893C16.9468 16.5658 16.5343 16.3455 16.2436 16.4908Z" fill="white"/>
<path d="M11.9127 20.6064C11.5002 20.9252 11.7158 21.5439 12.2361 21.5439C12.4142 21.5439 12.4705 21.5205 12.6064 21.3846C12.7283 21.2627 12.7658 21.1877 12.7658 21.0564C12.7658 20.8502 12.6627 20.6299 12.5361 20.5596C12.3814 20.4799 12.0392 20.5033 11.9127 20.6064Z" fill="white"/>
</svg>
