<svg width="25" height="22" viewBox="0 0 25 22" fill="none" xmlns="http://www.w3.org/2000/svg">
<path d="M15.375 0.630958C15.0938 0.818458 15.0422 0.973145 14.9766 1.75127C14.9438 2.14033 14.9016 2.47315 14.8781 2.4919C14.8547 2.51064 14.6672 2.58565 14.4609 2.66065C14.2547 2.73096 13.9641 2.84815 13.8141 2.92315L13.5469 3.05908L13.0172 2.60908C12.7313 2.36065 12.4406 2.13564 12.375 2.11221C12.1734 2.03252 11.8313 2.05596 11.6625 2.15908C11.4328 2.29971 10.3734 3.3919 10.3172 3.54189C10.2516 3.71533 10.2516 4.07158 10.3172 4.19814C10.35 4.2544 10.5703 4.53565 10.8094 4.82158L11.25 5.3419L11.0672 5.73565C10.9688 5.95127 10.8516 6.24658 10.8047 6.38721C10.7578 6.52783 10.7063 6.66377 10.6875 6.68252C10.6688 6.70127 10.3359 6.74815 9.95156 6.78096C9.16875 6.84658 9.00938 6.90283 8.82656 7.18408C8.72344 7.33408 8.71875 7.38096 8.71875 8.33252C8.71875 9.28408 8.72344 9.33096 8.82656 9.48096C9.01406 9.76221 9.16875 9.81846 9.94688 9.8794C10.3313 9.91221 10.6641 9.95908 10.6828 9.97783C10.7016 10.0013 10.7672 10.156 10.8281 10.3247C10.8844 10.4935 11.0063 10.7841 11.0953 10.9716L11.2547 11.3138L10.9125 11.7122C10.35 12.3638 10.2656 12.5044 10.2656 12.7622C10.2656 12.8888 10.2891 13.0481 10.3172 13.1185C10.3688 13.2638 11.3109 14.2435 11.5969 14.4544C11.7422 14.5622 11.8266 14.5903 12.0281 14.5903C12.1641 14.5903 12.3234 14.5716 12.3844 14.5481C12.4453 14.5247 12.7266 14.3044 13.0172 14.056L13.5422 13.6106L13.9313 13.7888C14.1469 13.8872 14.4375 14.0044 14.5781 14.0513C14.7188 14.0981 14.8547 14.1497 14.8781 14.1731C14.9016 14.1919 14.9438 14.5247 14.9766 14.9138C15.0422 15.6919 15.0938 15.8466 15.375 16.0294C15.525 16.1325 15.5719 16.1372 16.5234 16.1372C17.475 16.1372 17.5219 16.1325 17.6719 16.0294C17.9766 15.8231 18.0094 15.7388 18.0797 14.9325C18.1172 14.5247 18.1594 14.1778 18.1781 14.1638C18.1969 14.1497 18.3281 14.0981 18.4688 14.056C18.6094 14.0091 18.9047 13.8919 19.1203 13.7888L19.5094 13.606L20.0344 14.0466C20.3203 14.2856 20.6016 14.506 20.6578 14.5388C20.7984 14.6091 21.2156 14.6044 21.3656 14.5247C21.4359 14.4872 21.7688 14.1778 22.1109 13.831C22.7672 13.1653 22.8703 12.9872 22.8047 12.6544C22.7625 12.4481 22.6875 12.3403 22.2094 11.7919L21.7922 11.3138L21.9609 10.9856C22.05 10.8028 22.1766 10.5075 22.2375 10.3247C22.2984 10.1419 22.3594 9.98252 22.3688 9.96846C22.3828 9.95908 22.6453 9.92627 22.95 9.90283C23.8547 9.82783 23.8969 9.81846 24.0984 9.63564C24.2016 9.54189 24.3 9.40127 24.3281 9.30283C24.3891 9.08252 24.3891 7.58721 24.3281 7.37627C24.2672 7.16065 24.0188 6.91221 23.8125 6.86065C23.7234 6.83721 23.4609 6.80439 23.2266 6.79033C22.9969 6.77158 22.7063 6.74815 22.5891 6.73408L22.3688 6.70596L22.2422 6.34971C22.1719 6.15283 22.0406 5.84346 21.9563 5.67002L21.7922 5.35127L22.1859 4.89658C22.725 4.26377 22.7672 4.20752 22.8 4.02002C22.8656 3.66846 22.7719 3.5044 22.1109 2.83408C21.4641 2.18252 21.3469 2.09346 21.1172 2.07002C20.7375 2.04189 20.6297 2.09815 19.9031 2.72158L19.5047 3.06377L19.2094 2.91377C19.0453 2.8294 18.75 2.70752 18.5484 2.63721C18.3469 2.5669 18.1734 2.49658 18.1641 2.48721C18.1547 2.47783 18.1219 2.18721 18.0938 1.84033C18.0328 1.04346 17.9953 0.916896 17.7891 0.715333L17.6203 0.55127L16.5797 0.537208C15.5578 0.523146 15.5344 0.523146 15.375 0.630958ZM17.2641 1.26846C17.2781 1.28721 17.3109 1.59658 17.3391 1.95752C17.4328 3.07314 17.4281 3.06846 18.0516 3.26533C18.2672 3.33565 18.6562 3.49502 18.9188 3.62158C19.425 3.87471 19.6359 3.90752 19.8281 3.77627C19.8938 3.73408 20.1469 3.52783 20.3906 3.3169C20.6344 3.11065 20.8734 2.90908 20.9203 2.87627C21 2.81533 21.0516 2.85283 21.5203 3.32158C21.8016 3.60283 22.0313 3.84658 22.0313 3.87002C22.0313 3.88877 21.8203 4.15596 21.5578 4.45596C21.2953 4.75596 21.0656 5.05127 21.0422 5.11221C20.9672 5.31377 21 5.46377 21.2109 5.88096C21.3281 6.10596 21.4875 6.49033 21.5672 6.72471C21.6422 6.96377 21.7359 7.20752 21.7734 7.26377C21.8672 7.40908 22.0594 7.45127 22.8516 7.51221C23.2406 7.54502 23.5688 7.58252 23.5922 7.60127C23.6109 7.62002 23.6203 7.96221 23.6156 8.36064L23.6016 9.08252L22.8047 9.15283C22.3688 9.19502 21.9609 9.25127 21.9047 9.28408C21.7688 9.35908 21.7313 9.43408 21.5625 9.94971C21.4875 10.1794 21.3281 10.5638 21.2063 10.7981C20.9016 11.3935 20.9109 11.4403 21.5016 12.1341C21.7547 12.4294 21.9797 12.706 22.0078 12.7435C22.0453 12.795 21.9375 12.9263 21.5391 13.3247C21.2578 13.606 21.0141 13.8403 21 13.8403C20.9813 13.8403 20.7703 13.6669 20.5266 13.4606C19.65 12.706 19.5797 12.6825 19.0406 12.9825C18.8672 13.081 18.4734 13.245 18.1688 13.3481C17.4234 13.6013 17.4422 13.5778 17.3578 14.5528C17.325 14.9747 17.2875 15.345 17.2734 15.3778C17.2594 15.4247 17.0813 15.4341 16.5141 15.4247L15.7734 15.4106L15.7172 14.731C15.6234 13.5731 15.6281 13.5825 15.0047 13.3903C14.7844 13.3247 14.3953 13.1653 14.1422 13.0388C13.4297 12.6825 13.4484 12.6778 12.5766 13.4278C12.3141 13.6528 12.0844 13.8403 12.0609 13.8403C12.0375 13.8403 11.7938 13.6106 11.5125 13.3294C11.0438 12.8606 11.0063 12.8091 11.0672 12.7294C11.1047 12.6825 11.3016 12.4435 11.5078 12.1997C11.7188 11.956 11.925 11.7028 11.9672 11.6372C12.0984 11.445 12.0656 11.206 11.85 10.7794C11.7422 10.5685 11.5781 10.1747 11.4891 9.90283C11.2781 9.29814 11.1984 9.22783 10.6547 9.18565C10.4531 9.16689 10.1063 9.14346 9.88125 9.12471L9.46875 9.0919V8.33252V7.57314L9.81094 7.54502C9.99375 7.52627 10.3453 7.49815 10.5844 7.48408C11.2078 7.43721 11.2734 7.38564 11.4891 6.76221C11.5781 6.49033 11.7422 6.09658 11.85 5.88564C12.1734 5.25283 12.1594 5.21533 11.3953 4.3294C11.1891 4.08565 11.0156 3.87471 11.0156 3.85596C11.0156 3.8419 11.25 3.59815 11.5312 3.3169C11.925 2.92315 12.0609 2.81533 12.1125 2.84815C12.15 2.87627 12.4359 3.11065 12.7453 3.37315C13.4391 3.96377 13.4578 3.96846 14.1422 3.62627C14.3953 3.49971 14.7797 3.34033 15 3.27471C15.2156 3.2044 15.4219 3.12471 15.4594 3.09658C15.6 2.97939 15.6469 2.76846 15.7031 2.07471C15.7313 1.67627 15.7641 1.32002 15.7734 1.28721C15.7875 1.24502 15.9797 1.23096 16.5188 1.23096C16.9172 1.23096 17.2547 1.24502 17.2641 1.26846Z" fill="white"/>
<path d="M15.7265 4.2076C15.2812 4.30135 14.7468 4.49823 14.6437 4.61073C14.5358 4.7326 14.5358 4.9951 14.6483 5.12166C14.7608 5.24823 14.9624 5.24354 15.3327 5.10291C16.0405 4.83573 16.8937 4.82166 17.6015 5.06541C18.164 5.26229 18.478 5.45916 18.9421 5.91854C19.3874 6.35916 19.6265 6.74354 19.8187 7.31541C19.9265 7.63416 19.9405 7.75135 19.9405 8.3326C19.9405 8.91854 19.9265 9.03104 19.814 9.36385C19.4952 10.3201 18.7265 11.1498 17.8312 11.5154C16.064 12.2373 14.053 11.3701 13.3265 9.57479C12.8905 8.49198 13.064 7.24979 13.7905 6.25135C14.0155 5.94666 14.0577 5.80135 13.9687 5.64198C13.9077 5.52479 13.6687 5.43104 13.528 5.46854C13.3312 5.51541 12.8671 6.18104 12.6515 6.71541C11.7046 9.09666 13.003 11.7357 15.4499 12.3873C16.5093 12.6685 17.7374 12.4951 18.6983 11.9326C19.0733 11.7123 19.678 11.1498 19.9452 10.7748C20.9812 9.3076 20.9858 7.35291 19.9452 5.8951C19.7155 5.57635 19.1999 5.06541 18.8905 4.85448C18.5483 4.62479 18.1265 4.42791 17.6858 4.29666C17.1655 4.14198 16.2421 4.09979 15.7265 4.2076Z" fill="white"/>
<path d="M16.2281 6.67317C15.7125 6.76223 15.2297 7.12786 15.0047 7.60598C14.8969 7.83098 14.8828 7.92473 14.8828 8.33255C14.8828 8.74036 14.8969 8.83411 15.0047 9.05911C15.3281 9.72942 16.0172 10.0904 16.7953 9.98723C17.7516 9.86536 18.4031 8.89505 18.1734 7.95286C17.9484 7.05286 17.1375 6.51848 16.2281 6.67317ZM16.9922 7.5263C17.3062 7.69973 17.5266 8.14505 17.4609 8.4638C17.3016 9.22786 16.4297 9.5138 15.8859 8.98411C15.6656 8.76848 15.5906 8.56692 15.6187 8.2388C15.675 7.55911 16.3828 7.19348 16.9922 7.5263Z" fill="white"/>
<path d="M4.69707 8.61845C4.39238 8.77314 4.29395 8.98876 4.2377 9.65439C4.20488 10.0763 4.20957 10.0622 3.85801 10.2544L3.61426 10.3856L3.17363 10.1888C2.65801 9.96376 2.41426 9.94501 2.1377 10.1044C1.98301 10.1888 1.88457 10.3247 1.55176 10.9013C1.20488 11.5059 1.15332 11.6278 1.15332 11.82C1.15332 12.1388 1.27988 12.3216 1.74863 12.6684L2.15645 12.9731V13.2825V13.5966L1.73457 13.9106C1.25645 14.2669 1.15332 14.4169 1.15332 14.7544C1.15332 14.9606 1.19551 15.0638 1.51426 15.6216C1.91738 16.32 2.05801 16.4841 2.34395 16.5591C2.56895 16.62 2.76113 16.5778 3.2627 16.3481L3.61426 16.1888L3.90957 16.3528L4.20488 16.5122L4.2377 16.9013C4.28926 17.4919 4.34551 17.6606 4.54707 17.8434C4.77207 18.045 4.93613 18.0731 5.84082 18.0497C6.41738 18.0403 6.5627 18.0216 6.67988 17.9513C6.92832 17.8013 7.02676 17.5997 7.08301 17.1403C7.15801 16.5075 7.14395 16.5309 7.45332 16.3528L7.73457 16.1888L8.09082 16.3481C8.60176 16.5825 8.77051 16.62 9.00957 16.5591C9.12207 16.5263 9.26738 16.4513 9.3377 16.3856C9.52988 16.2028 10.1768 15.045 10.2049 14.8341C10.2471 14.5013 10.0971 14.2622 9.62363 13.9153L9.21113 13.6153L9.20645 13.2919V12.9684L9.46426 12.7809C10.0877 12.3356 10.2611 12.0919 10.2002 11.7216C10.158 11.4684 9.45488 10.2591 9.26738 10.1278C9.18301 10.0669 9.03301 10.02 8.8877 10.0059C8.68613 9.99189 8.57832 10.0153 8.20801 10.1794C7.96426 10.2872 7.74863 10.3716 7.7252 10.3716C7.67363 10.3716 7.20488 10.0809 7.1627 10.0247C7.14863 10.0013 7.12051 9.79501 7.10176 9.56532C7.06426 9.10126 6.95176 8.82001 6.73613 8.66532C6.61426 8.57626 6.5252 8.56688 5.72832 8.55282C4.9877 8.54345 4.82832 8.55282 4.69707 8.61845ZM6.3752 9.84189C6.40801 10.1466 6.4502 10.4419 6.47363 10.4981C6.49707 10.5638 6.6377 10.6669 6.82988 10.7653C7.00332 10.8544 7.24238 10.995 7.35957 11.07C7.47676 11.1497 7.60801 11.2153 7.6502 11.2153C7.69238 11.2153 7.97832 11.1075 8.27832 10.9763C8.57832 10.845 8.82676 10.7466 8.83613 10.7559C8.89238 10.8263 9.42207 11.7825 9.42207 11.82C9.42207 11.8434 9.2252 12.0075 8.99082 12.1763C8.75176 12.3497 8.53145 12.5231 8.49863 12.5606C8.43301 12.6403 8.42363 13.8684 8.48457 13.9856C8.50801 14.0278 8.7377 14.2106 8.99082 14.3981L9.45957 14.7403L9.15488 15.2747C8.98613 15.57 8.82676 15.8091 8.80332 15.8091C8.77988 15.8091 8.54082 15.7153 8.27832 15.5981C8.01113 15.4809 7.72988 15.3872 7.65488 15.3872C7.57988 15.3872 7.44395 15.4434 7.35488 15.5091C7.26582 15.5747 7.05488 15.7013 6.88613 15.7856C6.71738 15.87 6.55332 15.9778 6.51582 16.02C6.47832 16.0669 6.41738 16.3528 6.3752 16.695L6.30488 17.2856H5.67207H5.03926L4.96426 16.6997C4.92676 16.3763 4.8752 16.0809 4.85645 16.0388C4.8377 16.0013 4.7252 15.9169 4.60332 15.8606C4.48145 15.8044 4.25645 15.6731 4.09707 15.57C3.92832 15.4622 3.75957 15.3872 3.6752 15.3872C3.6002 15.3872 3.32832 15.4809 3.0752 15.5981C2.81738 15.7153 2.5877 15.8091 2.55957 15.8091C2.50801 15.8091 1.92207 14.8294 1.92676 14.7497C1.92676 14.7263 2.14238 14.5481 2.40488 14.3559L2.88301 14.0044L2.89707 13.3716C2.90176 13.0247 2.89707 12.6966 2.8877 12.6403C2.87363 12.5888 2.64863 12.3919 2.39082 12.2044C2.13301 12.0122 1.92207 11.8434 1.92207 11.8247C1.92207 11.7731 2.47988 10.8028 2.52676 10.7747C2.54551 10.7606 2.79863 10.8591 3.08926 10.9856C3.37988 11.1122 3.65645 11.2153 3.70332 11.2153C3.7502 11.2153 3.89082 11.145 4.01738 11.0559C4.14395 10.9669 4.37832 10.8309 4.5377 10.7513C4.69707 10.6716 4.84707 10.5684 4.87051 10.5216C4.89395 10.4747 4.94082 10.1794 4.97363 9.86532L5.03457 9.29345H5.67676H6.31895L6.3752 9.84189Z" fill="white"/>
<path d="M5.20312 11.5247C4.67344 11.67 4.25625 12.0169 4.0125 12.5278C3.88125 12.8044 3.86719 12.8747 3.86719 13.2919C3.86719 13.7419 3.87187 13.756 3.99844 13.8685C4.29844 14.1263 4.6875 13.8825 4.6125 13.4841C4.56562 13.2403 4.63125 12.931 4.77187 12.72C5.25 12.0075 6.25312 12.0591 6.62812 12.8138C6.825 13.2169 6.77344 13.6388 6.48281 13.9763C6.24375 14.2575 5.99531 14.356 5.54531 14.356C5.18906 14.356 5.15625 14.3653 5.06719 14.4778C4.93594 14.6419 4.94531 14.7919 5.08125 14.9513C5.19375 15.0778 5.20781 15.0825 5.68125 15.0825C6.13125 15.0825 6.1875 15.0731 6.47344 14.9325C6.84375 14.7497 7.17656 14.4122 7.34531 14.0466C7.51875 13.6622 7.54687 13.1231 7.40625 12.7153C7.0875 11.7731 6.15469 11.2716 5.20312 11.5247Z" fill="white"/>
<path d="M1.41568 18.7294C1.19068 18.8138 0.951619 19.0247 0.839119 19.2356C0.750056 19.4138 0.745369 19.4935 0.759431 20.4028L0.773494 21.3778L0.914119 21.5794C0.993806 21.6872 1.14849 21.8278 1.26099 21.8888L1.46724 21.9966H11.1376H20.8079L20.9063 21.8935C21.0329 21.7528 21.0282 21.5231 20.8922 21.3966L20.7844 21.2935H18.3376H15.8907V20.356V19.4185H19.8469C23.6719 19.4185 23.8079 19.4231 23.911 19.5075C24.0188 19.5966 24.0235 19.6153 24.0235 20.3513C24.0235 21.0075 24.0141 21.1153 23.9391 21.1856C23.8688 21.2606 23.7376 21.2747 22.9407 21.2935C22.1016 21.3169 22.0172 21.3263 21.9563 21.406C21.8579 21.5419 21.8719 21.7903 21.9844 21.9028C22.0735 21.9919 22.1391 21.9966 23.0532 21.9966C23.986 21.9966 24.0422 21.9919 24.2391 21.8888C24.3516 21.8278 24.511 21.6872 24.586 21.5794L24.7266 21.3778L24.7407 20.4028C24.7547 19.4981 24.7501 19.4091 24.661 19.2403C24.5438 19.0106 24.286 18.795 24.0516 18.72C23.7891 18.645 1.63599 18.6544 1.41568 18.7294ZM2.99068 19.456C2.98599 19.4747 2.76568 19.8966 2.50787 20.3935L2.03912 21.2981L1.83287 21.2794C1.49068 21.2419 1.47662 21.2091 1.47662 20.3513C1.47662 19.3763 1.43443 19.4185 2.35318 19.4185C2.71412 19.4185 3.00006 19.4325 2.99068 19.456ZM5.61568 19.456C5.61099 19.4794 5.39068 19.9013 5.13287 20.3935L4.66412 21.2935H3.78287C3.29537 21.2935 2.90631 21.2794 2.91568 21.256C2.92506 21.2372 3.14068 20.8153 3.39849 20.3231L3.86724 19.4185H4.74849C5.23599 19.4185 5.62506 19.4372 5.61568 19.456ZM8.24068 19.456C8.23599 19.4794 8.01568 19.9013 7.75787 20.3935L7.28912 21.2935H6.40787C5.92037 21.2935 5.53131 21.2794 5.54068 21.256C5.55006 21.2372 5.76568 20.8153 6.02349 20.3231L6.49224 19.4185H7.37349C7.86099 19.4185 8.25006 19.4372 8.24068 19.456ZM10.8657 19.456C10.861 19.4794 10.6407 19.9013 10.3829 20.3935L9.91412 21.2935H9.03287C8.54537 21.2935 8.15631 21.2794 8.16568 21.256C8.17506 21.2372 8.39068 20.8153 8.64849 20.3231L9.11724 19.4185H9.99849C10.486 19.4185 10.8751 19.4372 10.8657 19.456ZM13.4907 19.4606C13.486 19.4841 13.2657 19.906 13.0079 20.3981L12.5391 21.2935H11.6579C11.1704 21.2935 10.7813 21.2794 10.7907 21.256C10.8469 21.1247 11.6954 19.5263 11.7329 19.4747C11.7844 19.4091 13.5188 19.3903 13.4907 19.4606ZM15.1407 20.356V21.2935H14.2688H13.4016L13.8563 20.4122C14.1047 19.9294 14.3297 19.5075 14.3579 19.4747C14.386 19.4372 14.5313 19.4185 14.7704 19.4185H15.1407V20.356Z" fill="white"/>
</svg>
