<svg width="25" height="21" viewBox="0 0 25 21" fill="none" xmlns="http://www.w3.org/2000/svg">
<path d="M8.42031 4.27627L4.5625 8.12939V8.36377V8.59814L10.3188 14.3497L16.0703 20.106H16.3047H16.5391L20.3922 16.2481L24.25 12.395V12.1606V11.9263L21.9672 9.64346C20.4344 8.11533 19.6375 7.35127 19.5531 7.32783C19.375 7.28564 19.2016 7.33721 19.0656 7.47314C18.9766 7.56221 18.9531 7.63721 18.9531 7.81064V8.03096L20.7203 9.80283L22.4922 11.5747H18.3156C13.5859 11.5747 13.8625 11.5981 13.4688 11.1997C13.0703 10.806 13.0938 11.0825 13.0938 6.35283V2.17627L14.7953 3.87314C16.6 5.68252 16.6281 5.70127 16.9328 5.57471C17.125 5.49971 17.2188 5.33564 17.2188 5.09658V4.89502L14.9781 2.65908L12.7422 0.418457H12.5078H12.2734L8.42031 4.27627ZM12.1094 4.94189V7.87158H9.17031H6.22656L9.15625 4.94189C10.7688 3.32939 12.0906 2.01221 12.0953 2.01221C12.1047 2.01221 12.1094 3.32939 12.1094 4.94189ZM12.1094 9.73721C12.1094 10.97 12.2313 11.3778 12.7609 11.9075C13.2906 12.4372 13.6984 12.5591 14.9313 12.5591H15.8125V15.4888C15.8125 17.1013 15.8078 18.4185 15.7984 18.4185C15.7938 18.4185 13.6375 16.2669 11.0078 13.6372L6.22656 8.85596H9.17031H12.1094V9.73721ZM22.6562 12.5731C22.6562 12.5778 21.3391 13.8997 19.7266 15.5122L16.7969 18.4419V15.4981V12.5591H19.7266C21.3391 12.5591 22.6562 12.5638 22.6562 12.5731Z" fill="white"/>
<path d="M0.371777 5.36846C0.19834 5.54658 0.19834 5.88408 0.371777 6.06221L0.49834 6.18408H1.46865H2.43896L2.56553 6.06221C2.73896 5.88408 2.73896 5.54658 2.56553 5.36846L2.43896 5.24658H1.46865H0.49834L0.371777 5.36846Z" fill="white"/>
<path d="M3.41406 5.35908C3.20312 5.57002 3.20312 5.86064 3.41406 6.07158L3.52656 6.18408H4.62813C5.725 6.18408 5.72969 6.18408 5.86094 6.07158C5.97344 5.97314 5.99219 5.92158 5.99219 5.71533C5.99219 5.50908 5.97344 5.45752 5.86094 5.35908C5.72969 5.24658 5.725 5.24658 4.62813 5.24658H3.52656L3.41406 5.35908Z" fill="white"/>
<path d="M17.889 6.0997C17.8327 6.12782 17.753 6.22157 17.7108 6.31064C17.5046 6.74657 17.9218 7.16376 18.353 6.9622C18.8077 6.74657 18.6624 6.03876 18.1702 6.04814C18.0718 6.04814 17.9452 6.07157 17.889 6.0997Z" fill="white"/>
<path d="M0.371777 10.2903C0.19834 10.4685 0.19834 10.806 0.371777 10.9841L0.49834 11.106H2.0874H3.68115L3.81709 10.97C3.9249 10.8622 3.95303 10.7919 3.95303 10.6372C3.95303 10.4825 3.9249 10.4122 3.81709 10.3044L3.68115 10.1685H2.0874H0.49834L0.371777 10.2903Z" fill="white"/>
<path d="M4.5109 10.3044C4.20152 10.6138 4.41715 11.106 4.86246 11.106C5.18121 11.106 5.3359 10.956 5.3359 10.6372C5.3359 10.431 5.31715 10.3794 5.20465 10.281C5.00777 10.1122 4.69371 10.1216 4.5109 10.3044Z" fill="white"/>
<path d="M3.57344 12.8825C3.46563 12.9903 3.4375 13.0606 3.4375 13.2153C3.4375 13.37 3.46563 13.4403 3.57344 13.5481L3.70938 13.6841H5.24219H6.77031L6.88281 13.5716C7.09375 13.3606 7.09375 13.07 6.88281 12.8591L6.77031 12.7466H5.24219H3.70938L3.57344 12.8825Z" fill="white"/>
<path d="M1.6375 15.8685C1.53906 15.9669 1.51562 16.0372 1.51562 16.2153C1.51562 16.3935 1.53906 16.4638 1.6375 16.5622L1.76406 16.6841H5.28906H8.81406L8.94063 16.5622C9.11406 16.3841 9.11406 16.0466 8.94063 15.8685L8.81406 15.7466H5.28906H1.76406L1.6375 15.8685Z" fill="white"/>
</svg>
