<svg width="25" height="25" viewBox="0 0 25 25" fill="none" xmlns="http://www.w3.org/2000/svg">
<path d="M15.1656 0.360842C15.0531 0.417091 14.9125 0.529591 14.8516 0.60928C14.6078 0.928028 14.5938 1.01709 14.5938 2.27334V3.44053L13.7875 3.45928C12.9953 3.47334 12.9719 3.47803 12.7516 3.60459C12.4938 3.75928 12.3203 3.99365 12.2547 4.29365C12.2219 4.42959 12.2031 5.8499 12.2031 8.19365V11.8874H11.1859L10.1641 11.8827L10.5813 11.4937L10.9938 11.1093L10.6562 10.2983C10.4734 9.85303 10.2953 9.43584 10.2672 9.37022L10.2156 9.24834L9.69063 9.27178L9.16563 9.29522L8.86563 8.99522L8.57031 8.69522V8.15615V7.61709L7.65625 7.2374L6.74688 6.8624L6.36719 7.26553L5.99219 7.67334L5.60313 7.66865H5.21406L4.96563 7.39678C4.82969 7.25147 4.66563 7.06865 4.6 6.99365L4.48281 6.85303L3.54531 7.24209L2.60781 7.63115L2.63125 8.17022L2.65469 8.70928L2.35938 9.00459L2.06875 9.2999L1.52031 9.27647L0.976562 9.25303L0.634375 10.0968C0.446875 10.5608 0.278125 10.9827 0.26875 11.0343C0.25 11.0999 0.334375 11.2077 0.620313 11.4702L1 11.8124V12.2437V12.6749L0.625 13.0124C0.41875 13.1999 0.25 13.3733 0.25 13.4062C0.25 13.4343 0.41875 13.8562 0.620313 14.3437L0.990625 15.2296L1.54375 15.2202L2.10156 15.2108L2.37813 15.4874L2.65 15.7687L2.63594 16.3171L2.61719 16.8608L3.46094 17.2124C3.925 17.4046 4.34688 17.5733 4.39844 17.5874C4.46875 17.6062 4.57656 17.5171 4.85781 17.2077L5.22344 16.8093H5.60781H5.99219L6.37188 17.2171L6.74688 17.6249L7.66094 17.2499L8.57031 16.8749V16.3265V15.778L8.85625 15.4921L9.14688 15.2015L9.58281 15.2108C9.82656 15.2155 10.0656 15.2296 10.1172 15.2437C10.2016 15.2624 10.2578 15.1546 10.6047 14.3202L10.9984 13.3733L10.8625 13.2562C10.7875 13.1905 10.6047 13.0265 10.4547 12.8905L10.1828 12.6374H11.1906H12.2031V16.3265C12.2031 18.6749 12.2219 20.0952 12.2547 20.2312C12.3203 20.5312 12.4938 20.7655 12.7516 20.9202C12.9719 21.0468 12.9953 21.0515 13.7875 21.0655L14.5938 21.0843V22.2702V23.4562L14.725 23.6999C14.8 23.8452 14.9313 24.0046 15.0531 24.0937L15.2594 24.239L17.1766 24.253L19.0938 24.2671V23.9108V23.5593H18.0156H16.9375V20.6999V17.8405H19.4453H21.9531V20.6999V23.5593H20.8516H19.75V23.9108V24.2624H21.6156C23.6922 24.2624 23.7109 24.2577 23.9875 23.9296C24.2547 23.6108 24.25 23.6999 24.25 20.6999C24.25 17.6765 24.2547 17.7421 23.9781 17.4515C23.9078 17.3765 23.7672 17.2687 23.6641 17.2171C23.4766 17.114 23.4672 17.114 19.6328 17.0999C17.5188 17.0905 15.6766 17.0999 15.5453 17.114C15.1891 17.1562 14.8891 17.3718 14.725 17.6952L14.5938 17.953V19.139V20.3249H13.9375C13.2109 20.3249 13.075 20.2874 13 20.0765C12.9719 19.9827 12.9531 18.7124 12.9531 16.289V12.6374H13.7734H14.5938V13.7718C14.5938 14.4327 14.6172 14.9858 14.6453 15.089C14.7063 15.3187 14.9875 15.628 15.2266 15.7358C15.4047 15.8202 15.6484 15.8249 19.4266 15.8249H23.4438L23.6922 15.6937C23.8516 15.614 23.9969 15.4874 24.0859 15.3608L24.2266 15.1593L24.2406 12.3187L24.25 9.47803L24.1328 9.23428C24.0063 8.97647 23.7719 8.77959 23.4953 8.6999C23.2469 8.6249 15.5688 8.63897 15.325 8.70928C15.0719 8.78428 14.725 9.13115 14.65 9.38428C14.6125 9.51553 14.5938 9.96084 14.5938 10.7343V11.8874H13.7734H12.9531V8.23584C12.9531 5.8124 12.9719 4.54209 13 4.44834C13.075 4.2374 13.2109 4.1999 13.9375 4.1999H14.5938V5.38584V6.57178L14.725 6.82959C14.8891 7.15303 15.1891 7.36865 15.5453 7.41084C15.6766 7.4249 17.5188 7.43428 19.6328 7.4249C23.4672 7.41084 23.4766 7.41084 23.6641 7.30772C23.7672 7.25615 23.9078 7.14834 23.9781 7.07334C24.2547 6.78272 24.25 6.84834 24.25 3.8249C24.25 0.824903 24.2547 0.913967 23.9875 0.595217C23.7109 0.267092 23.6922 0.262403 21.6156 0.262403H19.75V0.613966V0.965528H21.4094C22.3188 0.965528 23.1344 0.979591 23.2141 0.993654C23.5 1.0499 23.5047 1.08272 23.4906 2.67647L23.4766 4.12022L22.6375 3.19678C22.1781 2.69053 21.7844 2.27803 21.7656 2.27803C21.7469 2.27803 21.3344 2.74209 20.8516 3.30928C20.3641 3.87647 19.9516 4.34053 19.9234 4.34053C19.9 4.34053 19.6609 4.13897 19.3938 3.89053C19.1266 3.64209 18.8875 3.45459 18.8594 3.47334C18.8359 3.4874 18.1844 4.21397 17.4203 5.08115L16.0328 6.66084H15.775C15.3156 6.65615 15.3438 6.84834 15.3438 3.82959C15.3484 1.02178 15.3391 1.11084 15.5969 1.0124C15.6766 0.98428 16.3563 0.965528 17.4109 0.965528H19.0938V0.613966V0.262403H17.2328C15.4234 0.262403 15.3625 0.267092 15.1656 0.360842ZM22.7219 4.4249L23.5047 5.28272L23.4906 5.89678C23.4766 6.49209 23.4719 6.51553 23.3594 6.5999C23.2469 6.67959 23.1297 6.68428 21.1188 6.6749L19 6.66084L20.3875 5.02959C21.7188 3.47334 21.7844 3.40303 21.8594 3.48272C21.9062 3.52959 22.2906 3.95147 22.7219 4.4249ZM19.2016 4.75303L19.4266 4.97803L18.6953 5.83115L17.9688 6.68428H17.5H17.0312L17.9828 5.60615C18.5031 5.01553 18.9391 4.52803 18.9531 4.52803C18.9672 4.52803 19.0797 4.63115 19.2016 4.75303ZM5.60781 8.41865H6.36719L6.6625 8.09053L6.95313 7.76709L7.38906 7.9499L7.82031 8.12803L7.80625 8.56865L7.79219 9.00459L8.32656 9.53897L8.86563 10.0687L9.29219 10.0546L9.72344 10.0358L9.90625 10.4671L10.0891 10.903L9.76094 11.189L9.4375 11.4796V12.2437V13.003L9.76094 13.2937L10.0844 13.5796L9.90625 14.0108L9.72813 14.4421H9.27813H8.83281L8.3125 14.9577L7.79219 15.4733L7.80625 15.914L7.82031 16.3593L7.38438 16.5374L6.94844 16.7202L6.70469 16.453C6.56875 16.3077 6.44219 16.1577 6.42344 16.1249C6.39531 16.0733 6.21719 16.0593 5.62656 16.0593H4.86719L4.5625 16.3874L4.25781 16.7202L3.82188 16.5421L3.38125 16.364L3.40938 15.9187L3.4375 15.4687L2.90781 14.9437L2.37344 14.414L1.93281 14.4421L1.49219 14.4749L1.31406 14.0343L1.13594 13.5983L1.44063 13.3124L1.75 13.0312V12.2296C1.75 11.789 1.73125 11.4187 1.70781 11.4093C1.68438 11.3999 1.54844 11.2827 1.40313 11.1468L1.13594 10.8937L1.31406 10.453L1.49219 10.0124L1.9375 10.0405L2.38281 10.0687L2.89844 9.54834L3.41406 9.02334V8.57334V8.12334L3.83594 7.94522L4.25781 7.76709L4.55313 8.09053L4.85313 8.41865H5.60781ZM23.3781 9.50147L23.5 9.59522V12.2437C23.5 14.8265 23.5 14.8874 23.4062 14.9812C23.3125 15.0749 23.2516 15.0749 19.4266 15.0749H15.5359L15.4422 14.953C15.3438 14.8312 15.3438 14.789 15.3438 12.2296V9.63272L15.4609 9.52022L15.5734 9.40303H19.4125C23.2281 9.40303 23.2516 9.40303 23.3781 9.50147ZM16.1875 18.3796V18.9187H15.7656H15.3438V18.5155C15.3438 17.9296 15.4141 17.8499 15.9203 17.8452L16.1875 17.8405V18.3796ZM23.3781 17.939C23.4953 18.028 23.5 18.0562 23.5 18.478V18.9187H23.1016H22.7031V18.3796V17.8405H22.9797C23.1859 17.8405 23.2844 17.864 23.3781 17.939ZM16.1875 19.9968V20.3249H15.7656H15.3438V19.9968V19.6687H15.7656H16.1875V19.9968ZM23.5 19.9968V20.3249H23.1016H22.7031V19.9968V19.6687H23.1016H23.5V19.9968ZM16.1875 21.403V21.7312H15.7656H15.3438V21.403V21.0749H15.7656H16.1875V21.403ZM23.5 21.403V21.7312H23.1016H22.7031V21.403V21.0749H23.1016H23.5V21.403ZM16.1875 23.0202V23.5593H15.9578C15.6906 23.5593 15.4938 23.4983 15.4094 23.3812C15.3672 23.3296 15.3484 23.1515 15.3438 22.889V22.4812H15.7656H16.1875V23.0202ZM23.5 22.8983C23.5 23.4468 23.4531 23.5124 23.0172 23.5452L22.7031 23.5733V23.0249V22.4812H23.1016H23.5V22.8983Z" fill="white"/>
<path d="M4.83927 9.88564C3.95334 10.1856 3.36271 10.8466 3.17521 11.7466C3.01115 12.5435 3.2549 13.3872 3.82209 13.9778C4.30021 14.4794 4.85334 14.6997 5.62209 14.6997C7.05177 14.6997 8.07365 13.6638 8.07834 12.2153C8.07834 11.5685 7.88146 11.0575 7.44552 10.5794C7.15021 10.256 6.7424 9.98877 6.35334 9.87158C5.92209 9.73564 5.25646 9.74502 4.83927 9.88564ZM6.1799 10.6169C7.35646 11.0294 7.7174 12.5481 6.85021 13.4294C6.27834 14.006 5.55177 14.1325 4.84396 13.7763C4.1549 13.4341 3.7799 12.7169 3.90646 11.995C4.02834 11.2966 4.45021 10.795 5.0924 10.5981C5.38771 10.5044 5.8799 10.5138 6.1799 10.6169Z" fill="white"/>
<path d="M19.0469 12.2388V14.3716H19.4219H19.7969V12.2388V10.106H19.4219H19.0469V12.2388Z" fill="white"/>
<path d="M17.6406 12.2388V13.4341H18.0156H18.3906V12.2388V11.0435H18.0156H17.6406V12.2388Z" fill="white"/>
<path d="M20.4531 12.2388V13.4341H20.8281H21.2031V12.2388V11.0435H20.8281H20.4531V12.2388Z" fill="white"/>
<path d="M16.2344 12.2388V12.9653H16.6094H16.9844V12.2388V11.5122H16.6094H16.2344V12.2388Z" fill="white"/>
<path d="M21.8594 12.2388V12.9653H22.2344H22.6094V12.2388V11.5122H22.2344H21.8594V12.2388Z" fill="white"/>
<path d="M16.8438 2.37158V2.74658H17.2188H17.5938V2.37158V1.99658H17.2188H16.8438V2.37158Z" fill="white"/>
<path d="M18.25 2.37158V2.74658H18.625H19V2.37158V1.99658H18.625H18.25V2.37158Z" fill="white"/>
</svg>
