<svg width="25" height="21" viewBox="0 0 25 21" fill="none" xmlns="http://www.w3.org/2000/svg">
<path d="M7.33574 0.226269C7.0123 0.310644 6.80137 0.470019 6.39824 0.943457C6.16855 1.21064 5.96231 1.45439 5.93418 1.48252C5.89199 1.52939 5.84043 1.52471 5.69512 1.44971C5.34824 1.28096 5.02481 1.25283 3.37949 1.27158C1.85137 1.28564 1.79512 1.29033 1.57012 1.39346C1.29355 1.52002 1.01699 1.77783 0.876367 2.03564C0.77793 2.21846 0.773242 2.27939 0.75918 4.06533L0.745117 5.90752L0.857617 6.15596C0.998242 6.46064 1.25605 6.72783 1.54199 6.85908C1.74824 6.95283 1.82324 6.95752 3.58574 6.95752H5.41387L5.64355 6.84033C5.93418 6.69033 6.25293 6.33877 6.34668 6.05752C6.39824 5.90283 6.42168 5.66846 6.42168 5.26064V4.68408L7.48105 3.45127C8.0623 2.77627 8.59199 2.13408 8.65762 2.02627C8.80293 1.77783 8.8498 1.35596 8.76543 1.05127C8.69512 0.798144 8.40449 0.451269 8.15605 0.324707C7.9498 0.221582 7.54199 0.170019 7.33574 0.226269ZM7.75293 0.999707C8.07637 1.13564 8.15137 1.44502 7.93106 1.73564C7.86074 1.82471 7.13887 2.67314 6.32793 3.62002C5.19824 4.94189 4.81855 5.35439 4.71074 5.38252C4.43887 5.45752 4.32637 5.35908 3.64199 4.47783C3.11699 3.79814 2.9998 3.61533 2.9998 3.48877C2.9998 3.31064 3.14512 3.10439 3.31855 3.03877C3.54355 2.95439 3.71699 3.06221 4.07324 3.51221C4.42949 3.96689 4.58887 4.05596 4.7998 3.91533C4.86074 3.87783 5.45137 3.21221 6.11699 2.43877C7.16699 1.21533 7.37793 0.995019 7.58418 0.938769C7.58887 0.934082 7.66855 0.962207 7.75293 0.999707ZM5.30137 2.09189C5.34355 2.13408 5.28262 2.23721 5.01543 2.55127C4.82793 2.77158 4.66387 2.94971 4.64043 2.94971C4.62168 2.94971 4.52324 2.84658 4.41543 2.72002C4.07793 2.32158 3.60449 2.17627 3.10762 2.31689C2.89199 2.37783 2.78418 2.44814 2.60137 2.63564C2.45605 2.78564 2.34355 2.95439 2.30605 3.07158C2.22637 3.35283 2.23574 3.73721 2.33887 3.95752C2.42324 4.14971 3.45449 5.51846 3.71699 5.79502C4.17168 6.27783 5.05293 6.25908 5.50762 5.75752C5.6248 5.62627 5.67168 5.59814 5.67168 5.65439C5.67168 5.79033 5.49824 6.03877 5.33418 6.13721C5.18887 6.22627 5.09512 6.23096 3.58574 6.23096C1.7998 6.23096 1.7623 6.22627 1.57012 5.89814C1.48105 5.74814 1.47637 5.64033 1.4623 4.33252C1.45293 3.55908 1.45762 2.81377 1.47637 2.67783C1.51387 2.38721 1.70137 2.13408 1.94043 2.05908C2.16074 1.99346 5.23105 2.02158 5.30137 2.09189Z" fill="white"/>
<path d="M10.5422 1.30908C10.0969 1.38408 9.68438 1.69814 9.49688 2.10127C9.40313 2.30752 9.39844 2.38252 9.39844 4.12158C9.39844 5.91689 9.39844 5.92627 9.51094 6.17002C9.65156 6.48408 9.94219 6.75596 10.2844 6.88252L10.5516 6.98096L17.1469 6.97158L23.7422 6.95752L23.9578 6.85908C24.2438 6.72783 24.5016 6.46064 24.6422 6.15596L24.7547 5.90752L24.7406 4.06533C24.7266 2.27939 24.7219 2.21846 24.6234 2.03564C24.4828 1.77783 24.2109 1.52002 23.9297 1.39346L23.6953 1.28564L20.8594 1.27158C19.2984 1.26221 17.9531 1.27158 17.8688 1.28564C17.5453 1.34658 17.4141 1.69814 17.6391 1.90908C17.7469 2.00752 17.7516 2.00752 20.6578 2.02158C23.5172 2.03564 23.5734 2.03564 23.7 2.13408C23.7703 2.18564 23.8734 2.28877 23.925 2.35908C24.0188 2.48564 24.0234 2.54658 24.0234 4.11221C24.0234 5.65439 24.0188 5.74814 23.9297 5.89814C23.8781 5.98252 23.7609 6.09502 23.6719 6.14189C23.5172 6.22627 23.2594 6.23096 17.0578 6.23096H10.6078L10.4484 6.12314C10.1297 5.91221 10.125 5.87471 10.125 4.12158C10.125 2.36377 10.1297 2.32158 10.4578 2.12939C10.6125 2.04033 10.7156 2.03564 13.5281 2.02158C16.3828 2.00752 16.4438 2.00752 16.5281 1.91377C16.6453 1.78252 16.6359 1.52002 16.5094 1.38877L16.4016 1.28564L13.5797 1.28096C12.0281 1.27627 10.6594 1.29033 10.5422 1.30908Z" fill="white"/>
<path d="M11.6387 3.79334C11.4184 3.8824 11.3668 4.22459 11.545 4.39334L11.6528 4.49646H17.0668C22.9731 4.49646 22.6356 4.51052 22.7059 4.23396C22.7481 4.06521 22.6637 3.86365 22.5184 3.79802C22.3731 3.7324 11.7981 3.72771 11.6387 3.79334Z" fill="white"/>
<path d="M7.125 6.96685C6.89531 7.06528 6.75 7.20122 6.29531 7.73091C6.075 7.98872 5.8875 8.19966 5.87344 8.19966C5.86406 8.19966 5.76562 8.15278 5.65781 8.09185C5.46563 7.98872 5.42813 7.98872 3.62813 7.97466L1.79531 7.9606L1.5 8.11528C1.16719 8.28872 0.895313 8.59341 0.801563 8.90278C0.76875 9.01997 0.75 9.65747 0.75 10.8106C0.75 12.7559 0.759375 12.8168 1.07344 13.1778C1.17188 13.2903 1.35469 13.4309 1.48125 13.4965L1.71094 13.6137L3.52969 13.6278L5.35313 13.6418L5.60156 13.5247C5.92969 13.3747 6.20625 13.084 6.32812 12.7653C6.40313 12.559 6.42188 12.3997 6.42188 11.9356V11.359L7.50469 10.0981C8.14688 9.3481 8.63438 8.73872 8.7 8.5981C8.99063 7.98403 8.71875 7.26216 8.08594 6.97622C7.85625 6.86841 7.35938 6.86372 7.125 6.96685ZM7.92656 7.7731C8.08594 7.93247 8.10938 8.16216 7.98281 8.34028C7.93594 8.40591 7.21406 9.26372 6.37031 10.2434C4.99688 11.8465 4.81875 12.034 4.66875 12.0622C4.575 12.0809 4.4625 12.0715 4.41094 12.0481C4.29375 11.9825 4.01719 11.6543 3.45469 10.9043C3.075 10.4075 3 10.2809 3 10.1403C3 9.80747 3.38906 9.59185 3.68438 9.7606C3.74063 9.79341 3.90938 9.97622 4.05938 10.1684C4.39219 10.5997 4.43906 10.6325 4.62656 10.6372C4.81875 10.6372 4.82344 10.6325 6.16406 9.05747C6.75938 8.35903 7.29375 7.75435 7.35938 7.71216C7.54688 7.59497 7.76719 7.61841 7.92656 7.7731ZM5.29219 8.75747C5.37188 8.80903 5.38125 8.79497 4.95 9.30122C4.79531 9.47935 4.65938 9.63872 4.65 9.65278C4.64063 9.66216 4.57969 9.60122 4.50938 9.51216C4.18594 9.09497 3.91875 8.94966 3.46875 8.94966C2.92969 8.94966 2.50313 9.2356 2.32031 9.71841C2.22188 9.97622 2.24063 10.4403 2.35781 10.684C2.44688 10.8622 3.47344 12.2028 3.71719 12.4559C3.97031 12.7231 4.19531 12.8168 4.59375 12.8168C5.00156 12.8168 5.16563 12.7465 5.475 12.4512C5.58281 12.3434 5.67188 12.2825 5.67188 12.3153C5.67188 12.4606 5.52188 12.7043 5.38125 12.7934C5.23594 12.8825 5.14688 12.8872 3.59531 12.8872C1.8 12.8872 1.79531 12.8872 1.58438 12.5965L1.47656 12.4418V10.8247C1.47656 9.02466 1.48125 8.99653 1.79531 8.80903C1.93594 8.71997 2.03906 8.71528 3.58594 8.71528C4.49063 8.71528 5.25469 8.73403 5.29219 8.75747Z" fill="white"/>
<path d="M10.2796 8.04502C9.99363 8.14346 9.64207 8.47627 9.51082 8.77158C9.39832 9.01533 9.39832 9.04814 9.38426 10.6606C9.37019 11.8138 9.38426 12.3763 9.42176 12.5591C9.51551 12.9716 9.76394 13.3044 10.1483 13.5106L10.3358 13.6138H17.0624H23.7889L24.0186 13.4966C24.1452 13.431 24.328 13.2903 24.4264 13.1778C24.7405 12.8169 24.7499 12.756 24.7499 10.8106C24.7499 9.65752 24.7311 9.02002 24.6983 8.90283C24.6046 8.59814 24.3327 8.28877 24.0046 8.12002L23.7093 7.96533L17.0952 7.97002C11.3436 7.97002 10.4483 7.98408 10.2796 8.04502ZM23.7046 8.80908C24.0186 8.99658 24.0233 9.02471 24.0233 10.8247V12.4419L23.9155 12.5966C23.6905 12.9106 24.1921 12.8872 17.0624 12.8872C9.82957 12.8872 10.4249 12.9153 10.2233 12.5591C10.1296 12.3903 10.1249 12.32 10.1249 10.82C10.1249 9.07158 10.1296 9.03408 10.4483 8.82314L10.6077 8.71533H17.0811C23.4186 8.71533 23.5593 8.71533 23.7046 8.80908Z" fill="white"/>
<path d="M11.531 10.5529C11.4091 10.6841 11.4091 10.9373 11.5263 11.0544C11.5778 11.106 11.6903 11.1623 11.7747 11.1763C11.8591 11.1904 14.3107 11.1951 17.2169 11.1904L22.5091 11.1763L22.6216 11.0451C22.7575 10.8857 22.7669 10.7357 22.6357 10.5716L22.5419 10.4498H17.0857H11.6294L11.531 10.5529Z" fill="white"/>
<path d="M1.34049 14.6873C1.10612 14.7764 0.85299 15.0201 0.792053 15.2311C0.763928 15.3342 0.749865 16.1779 0.75924 17.5842L0.773303 19.7686L0.918615 19.9514C1.22799 20.3357 1.10612 20.317 3.56237 20.317C5.73737 20.317 5.74205 20.317 5.93893 20.2092C6.05143 20.1529 6.19674 20.017 6.26705 19.9092L6.3983 19.7123L6.41237 17.5326L6.42174 15.3482L6.31862 15.1373C6.25299 15.0154 6.12643 14.8701 6.00924 14.7857L5.80299 14.6451L3.66549 14.6357C1.92643 14.6264 1.49049 14.6357 1.34049 14.6873ZM5.58268 15.4186C5.66705 15.4654 5.67174 15.5404 5.67174 17.4811C5.67174 19.4217 5.66705 19.4967 5.58268 19.5436C5.52174 19.5717 4.80455 19.5904 3.57643 19.5904C1.99205 19.5904 1.64049 19.5811 1.56549 19.5248C1.48112 19.4592 1.47643 19.3748 1.46237 17.5279C1.45299 15.8404 1.45768 15.5779 1.5233 15.4842L1.59362 15.3717H3.54362C4.79518 15.3717 5.52174 15.3904 5.58268 15.4186Z" fill="white"/>
<path d="M10.392 14.6872C9.91389 14.8184 9.52482 15.2356 9.4217 15.7231C9.38889 15.8919 9.37482 16.5294 9.3842 17.6309C9.39826 19.2106 9.40295 19.295 9.4967 19.5013C9.62795 19.7825 9.93264 20.0872 10.2139 20.2184C10.4248 20.3169 10.4764 20.3169 13.3123 20.3309C15.2576 20.3403 16.2514 20.3309 16.3639 20.2981C16.5608 20.2372 16.6639 20.0544 16.6123 19.8528C16.5467 19.5809 16.6404 19.5903 13.5233 19.5903C10.8279 19.5903 10.6545 19.5856 10.4998 19.5013C10.4108 19.4544 10.2936 19.3606 10.242 19.2903C10.1529 19.1684 10.1483 19.0981 10.1483 17.4809C10.1483 15.8544 10.1529 15.7981 10.2467 15.6669C10.2983 15.5966 10.4154 15.4981 10.5045 15.4559C10.6545 15.3763 11.0623 15.3716 17.0811 15.3716H23.4936L23.6717 15.47C24.0233 15.6669 24.0233 15.6622 24.0233 17.4809C24.0233 19.0091 24.0186 19.1075 23.9295 19.2528C23.8779 19.3372 23.7514 19.445 23.6483 19.4966C23.4608 19.5856 23.3483 19.5903 20.5967 19.5903H17.7326L17.6342 19.6981C17.4373 19.9091 17.5404 20.2466 17.8217 20.3169C17.8826 20.3309 19.2279 20.3403 20.8123 20.3309L23.6951 20.3169L23.9295 20.2091C24.2342 20.0684 24.5014 19.8106 24.6373 19.52C24.7498 19.2856 24.7498 19.2809 24.7498 17.4809C24.7498 15.6809 24.7498 15.6763 24.6373 15.4372C24.5061 15.1513 24.2529 14.8981 23.9576 14.7528L23.742 14.645L17.1795 14.6356C11.9014 14.6309 10.5748 14.6403 10.392 14.6872Z" fill="white"/>
<path d="M11.559 17.2044C11.3949 17.3356 11.3903 17.5794 11.5543 17.7388L11.6668 17.856H17.034C20.9246 17.856 22.434 17.8419 22.5184 17.8044C22.6637 17.7388 22.7481 17.5372 22.7059 17.3685C22.6356 17.0919 22.9731 17.106 17.0809 17.106C11.6903 17.106 11.6856 17.106 11.559 17.2044Z" fill="white"/>
</svg>
