<svg width="23" height="25" viewBox="0 0 23 25" fill="none" xmlns="http://www.w3.org/2000/svg">
<path d="M3.20474 0.347069C3.12974 0.426758 3.12505 0.736132 3.12505 3.86269V7.28926L2.92817 7.2002C2.78755 7.13457 2.6188 7.10645 2.37036 7.10645C2.06567 7.10645 1.97192 7.12519 1.72817 7.25176C1.40005 7.41582 1.24067 7.58457 1.06724 7.9502L0.945361 8.20801L0.931299 12.6143L0.917236 17.0252L2.02349 18.9377L3.12505 20.8455V21.2674V21.6846H2.6563C1.96255 21.6846 2.00005 21.6143 2.00005 22.9643C2.00005 23.8736 2.01411 24.0705 2.07505 24.1596L2.14536 24.2627H5.82036H9.49536L9.56567 24.1596C9.62661 24.0705 9.64067 23.8736 9.64067 22.9643C9.64067 21.6143 9.67817 21.6846 8.98442 21.6846H8.51567V19.5986V17.5127H9.55161C10.7891 17.5127 10.8594 17.4939 10.8594 17.1283C10.8594 16.8189 10.8125 16.8096 9.47661 16.8096L8.30474 16.8049L7.22661 14.9299C6.55161 13.7533 6.07817 12.9799 5.96099 12.858C5.66567 12.5627 5.33286 12.4314 4.88286 12.4314C4.49849 12.4314 4.09536 12.558 3.96411 12.7127C3.93599 12.7502 3.8938 12.7783 3.87036 12.7783C3.84692 12.7783 3.82817 10.8799 3.82817 8.39551V4.0127H6.50005H9.17192V6.04707C9.17192 7.96426 9.17661 8.08613 9.26099 8.18926C9.35942 8.31113 9.62661 8.33926 9.7438 8.24082C9.7813 8.21269 10.2454 7.43926 10.7704 6.52519C11.2954 5.61113 11.7407 4.87988 11.7641 4.89863C11.7829 4.91738 12.2094 5.64863 12.7157 6.52519C13.2172 7.39707 13.6719 8.15644 13.7188 8.20332C13.8313 8.31582 14.0657 8.32051 14.1875 8.20801C14.2766 8.12363 14.2813 8.06738 14.2813 6.06582V4.0127H16.9766H19.6719V8.42363V12.8299L19.5219 12.7127C19.2547 12.5111 18.9735 12.4268 18.5891 12.4268C18.2844 12.4268 18.1907 12.4502 17.9235 12.5814C17.7454 12.6705 17.5485 12.8111 17.4641 12.9096C17.3844 13.008 16.836 13.9174 16.25 14.9346L15.1813 16.7861L13.9813 16.8002L12.786 16.8096L12.6875 16.9408C12.5657 17.0908 12.5891 17.3064 12.7391 17.4283C12.8282 17.5033 12.9594 17.5127 13.8875 17.5127H14.9375V19.5986V21.6846H14.4782C13.8032 21.6846 13.836 21.6189 13.836 22.9736C13.836 23.9814 13.8407 24.0752 13.925 24.1643L14.0141 24.2627H17.6516C19.6532 24.2627 21.3125 24.2439 21.3407 24.2252C21.4766 24.1361 21.5 23.9674 21.5 22.9596C21.5 21.9893 21.4954 21.9236 21.4016 21.8064C21.3079 21.6893 21.2891 21.6846 20.8391 21.6846H20.375V21.2533V20.8221L21.4532 18.9518L22.5313 17.0814V12.6658C22.5313 7.69238 22.5547 8.00176 22.1704 7.5752C22.0532 7.44394 21.8704 7.28926 21.7625 7.23769C21.5 7.10176 20.9329 7.06894 20.6282 7.17207C20.5063 7.21426 20.3985 7.24707 20.3891 7.24707C20.3797 7.24707 20.375 5.71894 20.375 3.84863C20.375 0.511131 20.375 0.450195 20.2813 0.356445C20.1875 0.262695 20.1266 0.262695 11.736 0.262695C3.60317 0.262695 3.27505 0.267382 3.20474 0.347069ZM9.17192 2.11426V3.30957H6.50005H3.82817V2.11426V0.918945H6.50005H9.17192V2.11426ZM13.625 3.78769V6.65644L12.7016 5.05332C12.1907 4.17207 11.7594 3.4502 11.7454 3.4502C11.7266 3.4502 11.3282 4.12051 10.8594 4.93613C10.386 5.75644 9.97349 6.46894 9.94067 6.52051C9.88442 6.59551 9.87505 6.17363 9.87505 3.76426V0.918945H11.75H13.625V3.78769ZM19.6719 2.11426V3.30957H16.9766H14.2813V2.11426V0.918945H16.9766H19.6719V2.11426ZM2.75005 7.91738C2.83911 7.97363 2.95161 8.09551 3.00317 8.18457C3.10161 8.34394 3.10161 8.41426 3.1063 11.1658L3.11099 13.9877L4.48442 16.3689C5.23911 17.6814 5.87661 18.7783 5.90005 18.8111C5.94224 18.8674 6.03599 18.8252 6.49067 18.5486C6.53755 18.5252 6.23286 17.958 5.32349 16.383C4.64849 15.2111 4.0813 14.1799 4.06255 14.0861C3.96411 13.5518 4.48911 13.0314 5.02349 13.1346C5.38911 13.2002 5.45942 13.2986 6.6688 15.3939L7.81255 17.3768V19.533V21.6846H5.82036H3.82817V21.1549V20.6299L2.72661 18.7221L1.62505 16.8096L1.63442 12.5814C1.64849 8.40957 1.64849 8.34863 1.74692 8.18457C1.88755 7.94551 2.11255 7.80957 2.37505 7.80957C2.52505 7.80957 2.64692 7.84238 2.75005 7.91738ZM21.5047 7.92207C21.8469 8.15644 21.8282 7.87519 21.8282 12.6143V16.8658L20.75 18.7361L19.6719 20.6018V21.1455V21.6846H17.6563H15.6407V19.5564V17.4236L16.7704 15.4643C17.4172 14.3346 17.961 13.4439 18.0547 13.3549C18.4625 12.9705 19.0954 13.0877 19.3438 13.5986C19.536 13.9924 19.5266 14.0064 18.2047 16.3033C17.5438 17.4471 16.9954 18.4127 16.9766 18.4502C16.9625 18.4971 17.0047 18.5533 17.1032 18.6096C17.1875 18.6564 17.3235 18.7361 17.4079 18.7877L17.5532 18.8721L18.9641 16.4252L20.375 13.9783V11.1986C20.375 8.20801 20.375 8.23145 20.6141 7.99707C20.7641 7.85645 20.8766 7.81426 21.125 7.81426C21.275 7.80957 21.3875 7.84238 21.5047 7.92207ZM8.93755 22.9971V23.6064H5.82036H2.70317V22.9971V22.3877H5.82036H8.93755V22.9971ZM20.7969 22.9971V23.6064H17.6563H14.5157V22.9971V22.3877H17.6563H20.7969V22.9971Z" fill="white"/>
</svg>
