<svg width="25" height="25" viewBox="0 0 25 25" fill="none" xmlns="http://www.w3.org/2000/svg">
<path d="M12.0312 0.304394C11.6281 0.435644 11.2156 0.782519 11.0468 1.12939C10.8781 1.47627 10.8593 1.76689 10.8593 4.04033V6.25752L10.0015 6.27158C9.14841 6.28564 9.13903 6.28564 8.97497 6.41221C8.76872 6.57158 8.63278 6.89033 8.67028 7.13877C8.69841 7.36846 11.7265 15.0935 11.8531 15.2763C11.9703 15.4403 12.275 15.5903 12.5 15.5903C12.725 15.5903 13.0297 15.4403 13.1422 15.281C13.2734 15.0981 16.3015 7.36846 16.3297 7.13877C16.3672 6.89033 16.2312 6.57158 16.025 6.41221C15.8609 6.28564 15.8515 6.28564 14.9984 6.27158L14.1406 6.25752V4.04033C14.1406 2.81689 14.1218 1.71533 14.0937 1.58408C14 1.07314 13.6812 0.646582 13.2265 0.412207C13.0343 0.313769 12.9172 0.290332 12.5703 0.276269C12.3406 0.271582 12.0968 0.280956 12.0312 0.304394ZM12.8703 1.20439C13.0859 1.33564 13.189 1.46689 13.2453 1.70127C13.2781 1.82783 13.2968 2.77002 13.2968 4.37783V6.85752L13.4187 6.97002C13.5359 7.08252 13.5547 7.08252 14.5015 7.09658C15.3734 7.11064 15.4578 7.12002 15.4297 7.19033C14.9843 8.37627 12.5234 14.606 12.5 14.606C12.4765 14.606 10.0156 8.37627 9.57028 7.19033C9.54216 7.12002 9.62653 7.11064 10.4984 7.09658C11.4453 7.08252 11.464 7.08252 11.5812 6.97002L11.7031 6.85752V4.37783C11.7031 1.84189 11.7172 1.60752 11.8859 1.40127C12.0312 1.22314 12.275 1.10596 12.5 1.10596C12.6312 1.10596 12.7718 1.14346 12.8703 1.20439Z" fill="white"/>
<path d="M8.15945 10.3169C4.29227 11.231 1.5032 13.2232 0.715703 15.6326C0.53289 16.1904 0.486015 16.5654 0.51414 17.2732C0.542265 18.0466 0.636015 18.4029 0.992265 19.1294C2.22508 21.6419 5.61883 23.531 9.97352 24.1263C10.9954 24.2622 13.2407 24.2997 14.3282 24.1966C19.0063 23.7513 22.7751 21.7544 24.0548 19.0451C24.4157 18.2857 24.4766 17.9904 24.472 17.0435C24.472 16.2888 24.4626 16.1904 24.3407 15.8013C23.7173 13.7576 21.786 12.0326 18.8985 10.9357C17.8954 10.556 16.4001 10.1669 16.1563 10.2232C15.9641 10.2654 15.8516 10.4107 15.8516 10.6216C15.8516 10.8185 16.0157 11.0435 16.1563 11.0435C16.2923 11.0435 17.6657 11.4091 18.1485 11.5732C23.0188 13.2372 24.9735 16.6404 22.747 19.5841C21.4485 21.2951 18.847 22.6216 15.7251 23.156C14.5016 23.3669 14.1407 23.3951 12.5001 23.3951C10.8595 23.3951 10.4985 23.3669 9.27039 23.156C5.11258 22.4435 2.02352 20.3716 1.43289 17.906C1.3532 17.5591 1.33914 17.3904 1.35789 16.9263C1.38133 16.2982 1.45633 15.9841 1.6907 15.4685C2.27664 14.2029 3.4907 13.106 5.25789 12.2388C6.27039 11.7419 7.40945 11.3482 8.52977 11.1091C8.99852 11.0107 9.14852 10.8935 9.14852 10.6263C9.14852 10.2279 8.88602 10.1435 8.15945 10.3169Z" fill="white"/>
<path d="M8.70328 11.892C5.54391 12.717 3.58453 14.3061 3.30797 16.2608C3.18141 17.1748 3.50484 18.1733 4.18453 18.9655C5.51578 20.5217 8.06578 21.5717 11.1314 21.8295C11.9658 21.8998 13.8595 21.8577 14.6095 21.7545C16.6205 21.4827 18.2752 20.9108 19.5783 20.053C20.1127 19.7014 20.9564 18.8577 21.2142 18.417C22.072 16.9592 21.8283 15.3748 20.5533 14.0905C19.5455 13.0733 17.9752 12.2811 16.0673 11.8358C15.4955 11.7045 15.2939 11.7748 15.233 12.1311C15.2142 12.267 15.233 12.3186 15.3408 12.4358C15.458 12.5577 15.5798 12.6045 16.147 12.7498C18.1486 13.2561 19.6861 14.1748 20.4267 15.3045C21.0595 16.2608 21.0173 17.1889 20.3002 18.1967C19.372 19.5092 16.9486 20.6061 14.2345 20.9436C13.583 21.0233 11.4173 21.0233 10.7658 20.9436C8.05172 20.6061 5.62828 19.5092 4.70016 18.1967C3.98297 17.1889 3.94078 16.2608 4.57359 15.3045C5.31422 14.1748 6.85641 13.2561 8.85328 12.7498C9.42047 12.6045 9.54234 12.5577 9.65953 12.4358C9.77203 12.3186 9.78609 12.267 9.76266 12.1311C9.70172 11.7467 9.46266 11.6905 8.70328 11.892Z" fill="white"/>
<path d="M9.37832 13.4577C7.90645 13.8936 6.79082 14.6202 6.34551 15.4405C5.99864 16.078 5.99864 16.8327 6.3502 17.4842C6.55176 17.8592 7.15645 18.4405 7.67207 18.7452C9.90801 20.0717 13.7752 20.2639 16.4377 19.1858C17.183 18.8811 17.6611 18.5811 18.1252 18.1217C18.5564 17.6905 18.7393 17.4045 18.8518 16.9733C19.2127 15.5764 18.1205 14.292 15.9596 13.5655C15.6502 13.4624 15.2799 13.3686 15.1439 13.3545C14.9236 13.3311 14.8721 13.3405 14.7736 13.4342C14.6236 13.5749 14.5861 13.767 14.6752 13.9405C14.7502 14.0905 14.8439 14.1374 15.3127 14.2592C16.3346 14.5311 17.3705 15.1264 17.7736 15.6749C18.2471 16.3124 18.1439 16.9405 17.4689 17.5733C15.7721 19.1624 11.3424 19.5233 8.62832 18.2858C7.67207 17.8499 7.02051 17.203 6.94082 16.6077C6.82364 15.7592 7.83145 14.8452 9.43926 14.3483C10.2268 14.0999 10.2455 14.0905 10.3252 13.9405C10.4096 13.7717 10.3814 13.5983 10.2408 13.4436C10.1096 13.3077 9.8752 13.3124 9.37832 13.4577Z" fill="white"/>
<path d="M10.1281 14.9998C9.27031 15.3326 8.89531 15.7123 8.89062 16.2608C8.89062 16.7248 9.16719 17.067 9.79063 17.367C11.2344 18.0654 13.9203 18.0467 15.2891 17.3342C15.8563 17.0342 16.1094 16.7014 16.1094 16.2608C16.1047 15.7076 15.725 15.3279 14.8578 14.9998C14.4594 14.8498 14.3094 14.8545 14.1359 15.0233C13.8688 15.2904 14.0047 15.6186 14.4359 15.7592C14.9984 15.942 15.3313 16.1811 15.2375 16.3311C15.0922 16.5701 14.2625 16.8654 13.4563 16.9733C12.1906 17.1373 10.8031 16.9639 10.0438 16.5373C9.73906 16.3686 9.6875 16.2842 9.80469 16.1529C9.91719 16.0311 10.2266 15.867 10.5641 15.7592C10.9953 15.6186 11.1313 15.2904 10.8641 15.0233C10.6953 14.8545 10.5219 14.8498 10.1281 14.9998Z" fill="white"/>
</svg>
