<svg width="23" height="23" viewBox="0 0 23 23" fill="none" xmlns="http://www.w3.org/2000/svg">
<path d="M3.04063 0.45332C1.98125 0.762695 1.55 0.908007 1.50313 0.968945C1.45625 1.03926 1.4375 1.22676 1.4375 1.70957V2.35645H1.11406C0.860938 2.35645 0.767188 2.37519 0.66875 2.45488L0.546875 2.54863V10.6814C0.546875 18.7486 0.546875 18.8096 0.640625 18.9033C0.734375 18.9971 0.795313 18.9971 5.16406 18.9971H9.59375V19.6533V20.3049L7.93906 20.3189L6.28438 20.333L6.08281 20.4643C5.83906 20.6236 5.62344 20.9564 5.58125 21.2283C5.51562 21.683 5.76875 22.1939 6.16719 22.4049L6.37813 22.5127L11.7969 22.5033L17.2156 22.4893L17.4172 22.358C17.6609 22.1986 17.8766 21.8658 17.9188 21.5939C17.9844 21.1393 17.7313 20.6283 17.3328 20.4174C17.1266 20.3096 17.1125 20.3096 15.5141 20.3096H13.9063V19.6533V18.9971H16.5547H19.1984L19.4 19.1002C19.55 19.1799 19.7 19.2127 19.9859 19.2221C20.3188 19.2408 20.4031 19.2268 20.6375 19.1189C20.8953 19.0018 20.9281 18.9971 21.8328 18.9971C22.7047 18.9971 22.7703 18.9924 22.8594 18.9033C22.9531 18.8096 22.9531 18.7486 22.9531 10.6814V2.54863L22.8313 2.45488L22.7047 2.35645H15.3313H7.95313V1.65332C7.95313 0.99707 7.94844 0.950195 7.85938 0.90332C7.6625 0.800194 4.83594 0.0126953 4.67656 0.0173817C4.58281 0.0220699 3.84688 0.214256 3.04063 0.45332ZM6.09688 0.95957L7.45156 1.34863L7.42344 2.47363C7.39531 3.68769 7.33438 4.06738 7.09063 4.62988C6.69219 5.52051 5.8625 6.30332 4.97188 6.62207L4.69063 6.72051L4.43281 6.62207C3.52813 6.26582 2.85313 5.64238 2.42188 4.77051C2.07031 4.05801 2.0375 3.87988 2.01406 2.52051L1.99063 1.34863L3.29844 0.968945C4.01563 0.758007 4.63438 0.58457 4.67188 0.579882C4.70938 0.579882 5.35156 0.748632 6.09688 0.95957ZM1.4375 3.12519C1.4375 4.11426 1.87813 5.24863 2.55781 6.01738C3.14375 6.67832 4.31563 7.32988 4.80781 7.26426C5.075 7.23144 5.68438 6.95957 6.06406 6.70644C7.175 5.96113 7.87813 4.73769 7.93906 3.44394L7.96719 2.91895H15.1766H22.3906V9.48144V16.0439H21.6031H20.8156L20.1406 15.4064C19.7656 15.0549 19.4 14.7268 19.3203 14.6799C19.1375 14.5674 18.8469 14.5674 18.6547 14.6846L18.5047 14.7736L17.8672 14.183C17.3797 13.7236 17.2344 13.5596 17.2344 13.4658C17.2297 13.2502 17.0656 12.9783 16.7984 12.7486L16.5313 12.5236L16.7141 12.1627C17.3563 10.8689 17.4641 9.27051 17 7.87832C15.9219 4.65801 12.2469 3.12519 9.19531 4.62988C6.54688 5.93301 5.37969 8.98457 6.45781 11.783C6.81406 12.7064 7.63906 13.7471 8.45469 14.3002C9.34063 14.9002 10.6016 15.2939 11.6656 15.2939C12.6313 15.2939 13.7188 15.0033 14.5156 14.5299L14.7828 14.3705L15.0969 14.6424C15.3875 14.8955 15.6828 15.0408 15.8422 15.0033C15.875 14.9939 16.1563 15.2283 16.4609 15.5143L17.0234 16.0439H9.06406H1.10938V9.48144V2.91895H1.27344C1.4375 2.91895 1.4375 2.91895 1.4375 3.12519ZM12.8984 4.76582C14.3984 5.15019 15.6969 6.25644 16.3016 7.65801C16.6297 8.41269 16.6906 8.74082 16.6906 9.66894C16.6906 10.4096 16.6766 10.5361 16.5641 10.958C16.4891 11.2393 16.325 11.6518 16.1516 11.9939C15.9219 12.4486 15.875 12.5799 15.9125 12.6502C15.9406 12.7018 16.1234 12.8986 16.3156 13.0908C16.5125 13.283 16.6719 13.4658 16.6719 13.4939C16.6719 13.5596 15.8375 14.4502 15.7766 14.4502C15.7531 14.4502 15.5656 14.2908 15.3547 14.0986C15.1484 13.9064 14.9328 13.7377 14.8719 13.7189C14.7922 13.7002 14.6797 13.7471 14.4641 13.8877C12.9641 14.858 11.0422 14.9939 9.52344 14.2393C9.0125 13.9861 8.19688 13.3814 7.90156 13.0393C7.33438 12.3736 6.97813 11.7033 6.78125 10.9346C6.48125 9.76269 6.59375 8.60957 7.11406 7.51269C7.82656 6.0127 9.16719 4.99082 10.8359 4.67676C11.3938 4.57363 12.2984 4.61113 12.8984 4.76582ZM17.5203 14.6424C17.8297 14.9283 18.0781 15.1768 18.0781 15.1955C18.0781 15.2096 17.9656 15.3502 17.825 15.5049L17.5766 15.7814L17.0094 15.2471C16.6953 14.9518 16.4375 14.6893 16.4375 14.6611C16.4375 14.6189 16.9062 14.1221 16.9438 14.1221C16.9578 14.1221 17.2156 14.3564 17.5203 14.6424ZM20.0375 16.1049C21.05 17.0611 21.1719 17.2111 21.1719 17.5486C21.1719 17.6236 21.1391 17.7643 21.1016 17.8627C21.0172 18.0549 20.6094 18.5002 20.4125 18.6033C20.2156 18.7064 19.8219 18.6877 19.6156 18.5611C19.4328 18.4533 17.5625 16.7143 17.5625 16.6533C17.5625 16.5877 18.9453 15.1486 18.9969 15.1627C19.025 15.1721 19.4938 15.5939 20.0375 16.1049ZM17.0188 16.7799C17.0469 16.9299 17.1641 17.0658 17.8109 17.6939L18.5703 18.4299L9.84219 18.4346H1.10938V17.5205V16.6064H9.05H16.9906L17.0188 16.7799ZM22.3906 17.5205V18.4346H21.9219H21.4578L21.5797 18.1955C21.8047 17.7455 21.7672 17.1221 21.4906 16.7377L21.4016 16.6064H21.8938H22.3906V17.5205ZM13.3438 19.6533V20.3096H11.75H10.1562V19.6533V18.9971H11.75H13.3438V19.6533ZM17.1641 21.0221C17.4547 21.2893 17.4125 21.6596 17.0609 21.8893C16.9391 21.9689 16.6625 21.9736 11.9141 21.9877C9.15781 21.9971 6.80938 21.9877 6.69688 21.9736C6.44375 21.9361 6.18594 21.7205 6.14375 21.5049C6.11094 21.3221 6.20469 21.1111 6.3875 20.9705L6.51406 20.8721H11.7547H17L17.1641 21.0221Z" fill="white"/>
<path d="M4.20312 1.82213C3.67813 1.96275 3.25156 2.32369 3.0125 2.82525C2.87656 3.1065 2.86719 3.16744 2.86719 3.64557C2.86719 4.10494 2.88125 4.18932 2.99375 4.42838C3.66406 5.86275 5.69375 5.89088 6.39219 4.47525C6.56094 4.13307 6.57031 4.10025 6.57031 3.65025C6.56563 3.01275 6.45313 2.72213 6.05938 2.33307C5.53438 1.81275 4.89688 1.63463 4.20312 1.82213ZM5.15 2.40338C5.47813 2.52525 5.69844 2.71275 5.86719 3.01744C5.98906 3.23775 6.00781 3.31744 6.00781 3.64557C6.00781 3.94088 5.98438 4.06275 5.9 4.21744C5.55313 4.87369 4.78438 5.14088 4.14219 4.82213C3.65938 4.58775 3.40625 4.16119 3.40625 3.60338C3.41094 2.71275 4.31563 2.08932 5.15 2.40338Z" fill="white"/>
<path d="M4.89689 3.3079L4.55001 3.69697L4.34376 3.54228C4.12345 3.37353 3.96876 3.3454 3.85626 3.46259C3.76251 3.55634 3.75782 3.78134 3.85626 3.87509C3.89376 3.91728 4.05314 4.04384 4.20314 4.16103C4.46095 4.3579 4.63439 4.41415 4.7422 4.33447C4.78907 4.30165 5.3047 3.71572 5.5297 3.44384C5.74064 3.18134 5.66095 2.91884 5.37501 2.91884C5.2672 2.91884 5.17814 2.99384 4.89689 3.3079Z" fill="white"/>
<path d="M11.0752 5.30957C9.37828 5.57675 7.99078 6.73925 7.49391 8.30957C7.21266 9.18613 7.22672 10.283 7.52672 11.1408C8.40328 13.6486 11.347 14.7971 13.7142 13.5596C15.2611 12.7486 16.1283 11.2252 16.0486 9.458C15.9595 7.46113 14.6095 5.84863 12.6408 5.37988C12.2564 5.29082 11.4408 5.25332 11.0752 5.30957ZM12.7064 5.98925C13.433 6.20019 13.958 6.52832 14.497 7.10488C14.872 7.50332 15.2048 8.10332 15.3595 8.63769C15.5517 9.30332 15.5377 10.1518 15.3267 10.8174C15.2564 11.0518 14.9611 11.6752 14.8955 11.7455C14.872 11.7689 14.7314 11.6611 14.5814 11.5064C14.2627 11.1877 13.9111 11.0049 13.4798 10.9393C13.0908 10.8736 10.4095 10.8736 10.0205 10.9393C9.85641 10.9627 9.60328 11.0424 9.45797 11.108C9.20953 11.2252 8.79235 11.5908 8.65172 11.8205L8.58141 11.933L8.42672 11.6939C8.05172 11.1033 7.85953 10.4377 7.85953 9.68769C7.85953 9.11582 7.92047 8.77363 8.0986 8.30488C8.51578 7.21738 9.4111 6.37832 10.5361 6.01738C11.2158 5.79707 12.008 5.78769 12.7064 5.98925ZM13.7283 11.6002C14.0048 11.7268 14.347 12.0408 14.4033 12.2143C14.4267 12.2939 14.3845 12.3596 14.1783 12.5518C13.7564 12.9408 13.2127 13.2221 12.5423 13.4049C12.1392 13.5127 11.2345 13.5127 10.7892 13.4049C10.3345 13.2877 9.6736 12.9643 9.30328 12.6689L8.98922 12.4205L9.06422 12.2752C9.20016 12.0127 9.36891 11.8205 9.58453 11.6986C9.97828 11.4643 10.1048 11.4549 11.8439 11.4643L13.4611 11.4736L13.7283 11.6002Z" fill="white"/>
<path d="M11.225 7.24556C10.7422 7.42837 10.4187 7.71899 10.2078 8.16899C10.1 8.39399 10.0859 8.48774 10.0906 8.87212C10.0953 9.41587 10.1844 9.65024 10.5312 10.0159C10.8781 10.3815 11.2344 10.5315 11.75 10.5315C12.0875 10.5315 12.1906 10.5127 12.4437 10.4002C13.7281 9.80962 13.7703 7.98149 12.5094 7.36274C12.2422 7.23149 12.1391 7.20806 11.7969 7.19399C11.5484 7.18931 11.3328 7.20806 11.225 7.24556ZM12.1953 7.83618C12.5937 8.01431 12.875 8.45493 12.875 8.89087C12.875 9.26587 12.5937 9.68774 12.2187 9.87993C11.7312 10.1331 11.0187 9.88931 10.7609 9.37837C10.3812 8.63306 10.9156 7.74712 11.75 7.74712C11.9 7.74712 12.0875 7.78462 12.1953 7.83618Z" fill="white"/>
<path d="M2.31875 17.3611C2.20625 17.4267 2.20625 17.6939 2.31875 17.7924C2.50625 17.9611 2.84375 17.8345 2.84375 17.5955C2.84375 17.3564 2.54844 17.2252 2.31875 17.3611Z" fill="white"/>
</svg>
