<svg width="25" height="25" viewBox="0 0 25 25" fill="none" xmlns="http://www.w3.org/2000/svg">
<path d="M1.8748 0.304874C1.48105 0.426749 1.0873 0.764249 0.885742 1.15331L0.773242 1.36425L0.75918 3.70331L0.745117 6.04237L0.848242 6.15019C0.998242 6.30956 1.30293 6.30487 1.45762 6.14081L1.57012 6.01894L1.59355 3.80175C1.61699 1.65019 1.62168 1.57987 1.71543 1.45331C1.76699 1.383 1.87012 1.27987 1.94043 1.22831C2.06699 1.13456 2.1373 1.12987 4.28887 1.10644L6.50605 1.083L6.62793 0.970499C6.79199 0.815812 6.79668 0.511124 6.64199 0.365812C6.53418 0.262687 6.52949 0.262687 4.26074 0.267374C3.01387 0.267374 1.94043 0.286124 1.8748 0.304874Z" fill="white"/>
<path d="M18.853 0.370499C18.703 0.529874 18.7123 0.820499 18.8717 0.970499L18.9936 1.083L21.2108 1.10644C23.3623 1.12987 23.4327 1.13456 23.5592 1.22831C23.6295 1.27987 23.7327 1.383 23.7842 1.45331C23.878 1.57987 23.8827 1.65019 23.9061 3.80175L23.9295 6.01894L24.042 6.14081C24.1967 6.30487 24.5014 6.30956 24.6514 6.15019L24.7545 6.04237L24.7405 3.70331L24.7264 1.36425L24.5998 1.12987C24.4498 0.848624 24.1452 0.548624 23.8592 0.398624L23.6483 0.286124L21.3045 0.272062L18.9561 0.257999L18.853 0.370499Z" fill="white"/>
<path d="M11.3903 1.90786C8.62941 2.24536 7.12941 3.58599 6.99816 5.84068C6.96535 6.42192 7.04035 7.12974 7.19972 7.75786C7.26066 8.00161 7.30754 8.20317 7.29816 8.20786C7.29347 8.21255 7.19035 8.25005 7.06847 8.29692C6.50129 8.50786 6.18254 9.32349 6.39347 10.0266L6.4591 10.2469H3.7216H0.979411L0.866911 10.3641C0.721599 10.5047 0.707536 10.7954 0.838786 10.9547L0.927849 11.0672L3.88097 11.0813C6.62785 11.0907 6.83879 11.1 6.86691 11.175C6.88566 11.2172 6.91379 11.4375 6.93722 11.6579C6.99816 12.2813 7.23722 12.6422 7.71535 12.8204L7.94504 12.9094L8.00129 13.2891C8.1091 14.0719 8.34816 14.6579 8.71847 15.0469L8.94816 15.286L8.85441 16.0125C8.80285 16.411 8.75597 16.7391 8.75129 16.7391C8.7466 16.7438 7.85597 17.0157 6.77316 17.3485C5.69035 17.6766 4.70129 18.0047 4.57472 18.0704C4.06847 18.3375 3.67472 18.8813 3.56222 19.4766C3.50129 19.8 3.50129 21.0938 3.56222 21.3047C3.61379 21.4875 3.80129 21.7079 3.99347 21.8063C4.18566 21.9047 21.3138 21.9047 21.506 21.8063C21.6982 21.7079 21.8857 21.4875 21.9372 21.3047C21.9982 21.0938 21.9982 19.8 21.9372 19.4766C21.8247 18.8813 21.431 18.3375 20.9247 18.0704C20.7982 18.0047 19.8091 17.6766 18.7263 17.3485C17.6435 17.0157 16.7528 16.7438 16.7482 16.7391C16.7435 16.7391 16.6966 16.411 16.645 16.0125L16.5513 15.286L16.781 15.0469C16.9028 14.9157 17.0622 14.7 17.1278 14.5688C17.2872 14.2547 17.4747 13.6032 17.5122 13.2188C17.5357 12.9985 17.5638 12.9047 17.62 12.886C17.9997 12.7688 18.2763 12.5485 18.431 12.2485C18.4872 12.136 18.5388 11.9016 18.5622 11.6579C18.5857 11.4375 18.6138 11.2172 18.6325 11.175C18.6607 11.1 18.8716 11.0907 21.6185 11.0813L24.5716 11.0672L24.6607 10.9547C24.7919 10.7954 24.7778 10.5047 24.6325 10.3641L24.52 10.2469H21.7778H19.0403L19.1107 10.0219C19.1528 9.8813 19.1716 9.68442 19.1575 9.46411C19.1247 8.8688 18.7966 8.39067 18.3372 8.26411C18.1966 8.22661 18.145 8.1938 18.1638 8.13755C18.3794 7.4438 18.4872 6.6188 18.4544 5.91099C18.4216 5.20786 18.2997 4.72974 18.0138 4.15318C17.831 3.79224 17.7138 3.63286 17.3903 3.30943C16.6732 2.59224 15.881 2.22193 14.5075 1.9688C14.0107 1.87974 11.9575 1.83755 11.3903 1.90786ZM14.3857 2.81255C16.1997 3.15474 17.1466 3.8813 17.5075 5.20786C17.5966 5.53599 17.6528 6.45005 17.6013 6.71255L17.5685 6.89536L17.4841 6.65161C17.3622 6.30942 17.0341 5.67192 16.8419 5.40943C16.6591 5.1563 16.3075 4.83286 16.1013 4.72974C15.9325 4.64067 15.5294 4.6313 15.3747 4.71568C15.3091 4.74849 15.1122 4.91724 14.9294 5.09068C14.3575 5.63442 13.8278 5.81255 12.7497 5.81255C11.6575 5.81255 11.1466 5.63911 10.5419 5.06255C10.1388 4.67817 9.93254 4.58911 9.6091 4.66411C9.30441 4.72974 8.94816 5.01099 8.65285 5.41411C8.46066 5.67661 8.10441 6.37974 7.98722 6.7313L7.90285 6.98911L7.87004 6.80161C7.76222 6.23442 7.86066 5.41411 8.11379 4.76255C8.54035 3.6563 9.69347 2.97193 11.5169 2.74693C12.0325 2.6813 13.931 2.72349 14.3857 2.81255ZM10.0028 5.74693C10.3075 6.06099 10.6732 6.27661 11.1841 6.44536C12.131 6.76411 13.3685 6.76411 14.32 6.44536C14.8357 6.27192 15.131 6.09849 15.4778 5.7563L15.7497 5.4938L15.895 5.62974C16.3544 6.06567 16.7669 7.00317 17.006 8.13755C17.0575 8.3813 17.0997 8.65786 17.0997 8.74692C17.1044 8.86411 17.1372 8.93911 17.231 9.02349C17.3435 9.11724 17.3903 9.12661 17.5966 9.09849C17.995 9.04692 18.0935 9.0563 18.2013 9.16411C18.3419 9.30474 18.3372 9.67036 18.1919 9.99849L18.0841 10.2469H12.7497H7.42004L7.30754 10.0032C7.23254 9.8438 7.19504 9.67974 7.19504 9.5063C7.19504 9.28599 7.21379 9.23911 7.33097 9.13599C7.4341 9.05161 7.49972 9.02817 7.58879 9.05161C7.65441 9.06567 7.80441 9.08911 7.9216 9.10317C8.17941 9.13599 8.32472 9.02349 8.36691 8.76099C8.61066 7.35005 9.00441 6.29068 9.47785 5.76567C9.6091 5.62505 9.72629 5.51255 9.74504 5.51255C9.7591 5.51255 9.87629 5.62036 10.0028 5.74693ZM17.7466 11.1938C17.7325 11.2547 17.7185 11.4094 17.7185 11.5454C17.7185 11.8875 17.5966 12.0235 17.2357 12.0704C16.8138 12.1266 16.7622 12.2016 16.6966 12.8438C16.6638 13.1391 16.5841 13.5657 16.5138 13.7954C16.3966 14.175 16.3638 14.2313 16.0778 14.5125C15.7778 14.8172 15.3841 15.0938 14.8357 15.3985C14.681 15.4875 14.3857 15.7172 14.1794 15.9188C13.195 16.8563 12.3044 16.8469 11.2966 15.8954C11.0716 15.6797 10.795 15.4594 10.6825 15.4032C10.0263 15.0704 9.29972 14.4938 9.13566 14.1797C8.99504 13.8985 8.8591 13.35 8.81222 12.8485C8.7841 12.5907 8.74191 12.3329 8.7091 12.2766C8.64816 12.1594 8.49816 12.0938 8.20285 12.0563C7.90754 12.0235 7.78097 11.8688 7.78097 11.5454C7.78097 11.4094 7.76691 11.2547 7.75285 11.1938L7.72472 11.0907H12.7497H17.7747L17.7466 11.1938ZM10.0685 16.0454C10.2419 16.1391 10.5653 16.3875 10.7857 16.5985C12.0091 17.7516 13.4903 17.7516 14.7138 16.5985C15.0513 16.2797 15.7216 15.8204 15.7685 15.8813C15.7778 15.886 15.8107 16.1532 15.8482 16.4719L15.9185 17.0438L15.7778 17.3063C15.4825 17.8547 14.831 18.2954 13.9919 18.5063C13.6357 18.5954 13.4435 18.6094 12.7497 18.6094C11.8028 18.6094 11.3482 18.525 10.7341 18.2297C10.3263 18.0329 9.82472 17.5641 9.67472 17.2407C9.58566 17.0485 9.58566 17.0204 9.65129 16.4579C9.68879 16.1344 9.73097 15.8719 9.74035 15.8719C9.74972 15.8719 9.89972 15.9516 10.0685 16.0454ZM9.06535 17.8829C9.68879 18.8954 11.0388 19.4813 12.7591 19.4813C14.4607 19.4813 15.8107 18.8954 16.4388 17.8829C16.5325 17.7282 16.6216 17.6063 16.6357 17.6063C16.6497 17.6063 17.5169 17.8688 18.5575 18.1875C19.9122 18.6047 20.5075 18.811 20.6388 18.9047C20.7419 18.975 20.8919 19.1532 20.9716 19.2938C21.1122 19.5469 21.1169 19.5657 21.1357 20.2875L21.1497 21.0282H12.7497H4.34972L4.36379 20.2875C4.38254 19.5657 4.38722 19.5469 4.52785 19.2938C4.60754 19.1532 4.75754 18.975 4.86066 18.9047C4.99191 18.811 5.58722 18.6047 6.91847 18.1922C7.94504 17.8735 8.81222 17.611 8.84035 17.611C8.86847 17.6063 8.9716 17.7329 9.06535 17.8829Z" fill="white"/>
<path d="M0.848242 18.3751L0.745117 18.483L0.75918 20.822L0.773242 23.1611L0.885742 23.372C1.03574 23.658 1.33574 23.9626 1.61699 24.1126L1.85137 24.2392L4.19043 24.2533L6.52949 24.2673L6.6373 24.1642C6.79668 24.0142 6.79199 23.7095 6.62793 23.5548L6.50605 23.4423L4.28887 23.4189C2.1373 23.3955 2.06699 23.3908 1.94043 23.297C1.87012 23.2455 1.76699 23.1423 1.71543 23.072C1.62168 22.9455 1.61699 22.8751 1.59355 20.7236L1.57012 18.5064L1.45762 18.3845C1.30293 18.2205 0.998242 18.2158 0.848242 18.3751Z" fill="white"/>
<path d="M24.042 18.3845L23.9295 18.5064L23.906 20.7236C23.8826 22.8751 23.8779 22.9455 23.7841 23.072C23.7326 23.1423 23.6295 23.2455 23.5591 23.297C23.4326 23.3908 23.3623 23.3955 21.2107 23.4189L18.9935 23.4423L18.8716 23.5548C18.7076 23.7095 18.7029 24.0142 18.8623 24.1642L18.9701 24.2673L21.3091 24.2533L23.6482 24.2392L23.8826 24.1126C24.1638 23.9626 24.4638 23.658 24.6138 23.372L24.7263 23.1611L24.7404 20.822L24.7545 18.483L24.6513 18.3751C24.5013 18.2158 24.1966 18.2205 24.042 18.3845Z" fill="white"/>
</svg>
