<svg width="21" height="25" viewBox="0 0 21 25" fill="none" xmlns="http://www.w3.org/2000/svg">
<path d="M1.09375 0.936819C0.910938 1.05401 0.807813 1.15713 0.7 1.34932L0.554688 1.60713V10.7618V19.9212L0.685938 20.0337C0.845313 20.1696 0.995313 20.179 1.15938 20.0478L1.28125 19.954V10.9399C1.28125 4.77588 1.29531 1.87901 1.32813 1.78526C1.43125 1.49463 0.878125 1.51338 9.68125 1.51338H17.7438L17.8563 1.64463L17.9688 1.77588V3.76807V5.76026L18.0859 5.87276C18.2359 6.02744 18.475 6.03213 18.6156 5.88213C18.7188 5.77432 18.7188 5.76494 18.7188 3.74463C18.7188 2.33838 18.7 1.65401 18.6625 1.53213C18.5922 1.28838 18.3203 0.983694 18.0906 0.875881C17.9078 0.791506 17.5609 0.786819 9.625 0.786819H1.34688L1.09375 0.936819Z" fill="white"/>
<path d="M3.10474 3.85215C2.82349 3.95059 2.65474 4.10528 2.52349 4.36309L2.40161 4.61153L2.41567 6.60371L2.42974 8.5959L2.56099 8.79278C2.6313 8.90059 2.77661 9.0459 2.88442 9.11621L3.0813 9.24746L5.05005 9.26153C7.23442 9.27559 7.25786 9.27559 7.55786 8.98028C7.87661 8.6709 7.86724 8.73653 7.8813 6.69278C7.90005 4.5084 7.89067 4.43809 7.56724 4.11465C7.41255 3.95996 7.28599 3.88028 7.1313 3.84278C6.80786 3.7584 3.33442 3.76778 3.10474 3.85215ZM7.02349 4.65371L7.14067 4.76621V6.51934C7.14067 8.22559 7.13599 8.27715 7.04224 8.39903L6.94849 8.5209H5.1438C3.40474 8.5209 3.33911 8.51621 3.25005 8.42715C3.16099 8.33809 3.1563 8.27246 3.1563 6.52871C3.1563 4.73809 3.1563 4.72871 3.25942 4.63028C3.35786 4.54121 3.41411 4.53653 5.13442 4.53653H6.91099L7.02349 4.65371Z" fill="white"/>
<path d="M5.38277 6.0835L4.86246 6.59912L4.65621 6.38818C4.48277 6.21475 4.42184 6.17725 4.27652 6.17725C4.14059 6.17725 4.07496 6.20537 4.00465 6.29912C3.81715 6.53818 3.89215 6.71631 4.36559 7.171C4.65621 7.45225 4.71715 7.48975 4.87652 7.48975C5.04527 7.48975 5.09684 7.45225 5.7484 6.796C6.39059 6.15381 6.43746 6.09287 6.43746 5.92881C6.43746 5.69912 6.30621 5.56787 6.07652 5.56787C5.92184 5.56787 5.85621 5.61475 5.38277 6.0835Z" fill="white"/>
<path d="M9.42819 4.67725C9.311 4.79912 9.29225 4.846 9.31569 4.97256C9.37194 5.27256 9.4235 5.28662 10.586 5.28662C11.7485 5.28662 11.8001 5.27256 11.8563 4.97256C11.8798 4.846 11.861 4.79912 11.7438 4.67725L11.6032 4.53662H10.586H9.56882L9.42819 4.67725Z" fill="white"/>
<path d="M12.9765 4.59287C12.7468 4.71474 12.7 4.9538 12.864 5.16474L12.9578 5.28662H14.8047C16.8531 5.28662 16.8109 5.2913 16.8718 4.97255C16.8953 4.84599 16.8765 4.79912 16.7593 4.67724L16.6187 4.53662H14.8422C13.6515 4.5413 13.0375 4.55537 12.9765 4.59287Z" fill="white"/>
<path d="M9.39536 6.20537C9.26411 6.36943 9.27348 6.51943 9.40942 6.67881L9.52192 6.81006H12.4516C15.2641 6.81006 15.386 6.80537 15.4797 6.721C15.611 6.59912 15.6157 6.3085 15.4844 6.17725C15.3907 6.0835 15.3297 6.0835 12.4422 6.0835H9.48911L9.39536 6.20537Z" fill="white"/>
<path d="M18.1656 6.92725C18.1093 6.95068 18.039 7.02568 18.0156 7.09131C17.9875 7.16631 17.9687 8.36162 17.9687 10.2226V13.2319L16.8718 15.1304L15.775 17.0288L14.3593 17.0522L12.9437 17.0757L12.8546 17.1882C12.7328 17.3382 12.7421 17.5491 12.8828 17.6851L12.9953 17.8022H14.1484C14.7812 17.8022 15.2968 17.8116 15.2968 17.8257C15.2968 17.8397 15.2078 18.0085 15.1 18.2007L14.8984 18.5522H12.2359H9.5687L9.42808 18.6929C9.31089 18.8147 9.29214 18.8616 9.31558 18.9882C9.37651 19.2929 9.24058 19.2788 11.9687 19.3022L14.4484 19.3257L14.2281 19.7101L14.0078 20.0991H12.8265C11.7015 20.0991 11.6359 20.1038 11.5468 20.1929C11.425 20.3147 11.425 20.5679 11.5421 20.7132C11.6312 20.821 11.6546 20.8257 12.5921 20.8491L13.5531 20.8726L13.1359 21.5991C12.5968 22.5366 12.5546 22.6585 12.5593 23.3101C12.5593 23.5913 12.5734 23.8819 12.5921 23.9569L12.625 24.0835L7.10776 24.0741C1.06089 24.0601 1.4312 24.0788 1.32808 23.7835C1.29995 23.7038 1.2812 23.1366 1.2812 22.4382C1.2812 21.2522 1.2812 21.2241 1.17808 21.1304C0.971826 20.9382 0.624951 21.0507 0.554639 21.3319C0.535889 21.3929 0.531201 22.0116 0.540576 22.7054L0.554639 23.9663L0.699951 24.2241C0.807764 24.4163 0.910889 24.5194 1.0937 24.6319L1.34683 24.7866H9.62495C17.5609 24.7866 17.9078 24.7819 18.0906 24.6976C18.3203 24.5897 18.5921 24.2851 18.6625 24.0413C18.7046 23.9147 18.7187 22.9257 18.7187 20.5491V17.2397L19.825 15.3319C20.9828 13.3397 21.0343 13.2226 20.8562 13.0257C20.8093 12.9741 20.3828 12.7069 19.9046 12.4351C19.1781 12.0132 19.0093 11.9382 18.8781 11.9522L18.7187 11.971V9.54287V7.11006L18.6015 6.99756C18.4843 6.87568 18.3484 6.85693 18.1656 6.92725ZM19.5531 13.1147C19.7921 13.2507 19.9984 13.3819 20.0125 13.4007C20.0359 13.4382 19.6234 14.1929 19.5765 14.1929C19.5343 14.1929 18.625 13.6679 18.625 13.6444C18.625 13.5929 19.0703 12.8429 19.0937 12.8522C19.1078 12.8616 19.314 12.9788 19.5531 13.1147ZM18.7562 14.6194C18.9812 14.7507 19.1734 14.8679 19.1828 14.8772C19.1968 14.8866 18.9953 15.2569 18.864 15.4538C18.8312 15.5054 18.7281 15.4632 18.3343 15.2429L17.8421 14.971L18.0296 14.6476C18.1562 14.4319 18.2359 14.3382 18.2828 14.3522C18.3156 14.3663 18.5312 14.4882 18.7562 14.6194ZM17.9593 15.9085C18.2078 16.0538 18.4187 16.1757 18.4281 16.1851C18.4328 16.1897 18.0296 16.9116 17.5234 17.7835C16.7406 19.1335 16.6093 19.3913 16.6328 19.5132C16.675 19.7569 16.9375 19.8882 17.1906 19.7897C17.2281 19.7757 17.4156 19.4944 17.6031 19.171L17.9453 18.5804L17.9593 21.1679C17.964 22.9679 17.9546 23.7882 17.9171 23.8538C17.8093 24.0647 17.6406 24.0835 16.0796 24.0835H14.6125L14.8234 23.8538C14.9453 23.7272 15.1984 23.3429 15.3953 23.0007C15.5921 22.6538 15.939 22.0585 16.1593 21.6741C16.3796 21.2851 16.5625 20.9241 16.5625 20.8679C16.5625 20.6944 16.389 20.521 16.2109 20.521C16.1265 20.521 16.0234 20.5351 15.9812 20.5491C15.9437 20.5632 15.5781 21.1585 15.1703 21.871C14.7062 22.6819 14.3546 23.2397 14.2281 23.371C14.1062 23.4929 13.8859 23.6382 13.689 23.7319L13.3515 23.8913L13.3093 23.5772C13.2296 22.9444 13.1828 23.0429 15.2546 19.4522C17.5281 15.5147 17.4531 15.646 17.4812 15.646C17.4953 15.646 17.7109 15.7632 17.9593 15.9085Z" fill="white"/>
<path d="M9.4514 7.65381C9.31546 7.75225 9.27328 7.96318 9.36234 8.13662C9.4514 8.31475 9.51234 8.3335 9.92484 8.3335C10.3608 8.3335 10.5155 8.23506 10.5155 7.9585C10.5155 7.67725 10.3608 7.5835 9.91078 7.5835C9.66703 7.5835 9.52171 7.60693 9.4514 7.65381Z" fill="white"/>
<path d="M11.5749 7.68193C11.4015 7.81787 11.4015 8.09912 11.5749 8.23506C11.6921 8.32881 11.7577 8.3335 12.7515 8.3335H13.8015L13.914 8.21631C13.989 8.146 14.0312 8.04756 14.0312 7.9585C14.0312 7.86943 13.989 7.771 13.914 7.70068L13.8015 7.5835H12.7515C11.7577 7.5835 11.6921 7.58818 11.5749 7.68193Z" fill="white"/>
<path d="M2.99219 10.1428C2.77188 10.26 2.58906 10.4475 2.49531 10.6538C2.41563 10.8272 2.40625 10.9913 2.40625 12.7772C2.40625 14.4225 2.41563 14.7366 2.48125 14.8866C2.57031 15.1069 2.75313 15.2991 2.98281 15.4163C3.15156 15.5053 3.25938 15.5053 5.18594 15.496L7.21563 15.4819L7.4125 15.3553C7.51562 15.285 7.66563 15.1257 7.73594 15.0038L7.86719 14.7788V12.7866V10.7944L7.75 10.5835C7.68438 10.471 7.53906 10.3116 7.43125 10.2319L7.225 10.0913L5.18125 10.0819C3.38125 10.0725 3.11406 10.0772 2.99219 10.1428ZM7.05156 10.9069C7.13594 11.01 7.14062 11.1132 7.14062 12.7913C7.14062 14.4882 7.13594 14.5725 7.05156 14.6569C7 14.7085 6.8875 14.7647 6.80313 14.7788C6.71875 14.7928 5.90781 14.8022 5.00313 14.7928C3.45625 14.7788 3.34844 14.7741 3.25469 14.6897C3.15625 14.6007 3.15625 14.5725 3.15625 12.7866C3.15625 11.1178 3.16094 10.9678 3.24063 10.9022C3.28281 10.86 3.35313 10.8178 3.39063 10.8038C3.42813 10.7897 4.24844 10.7803 5.20938 10.785L6.9625 10.7944L7.05156 10.9069Z" fill="white"/>
<path d="M5.42502 12.3272L4.89533 12.8476L4.66096 12.6319C4.38439 12.3741 4.20627 12.3413 4.02346 12.5288C3.80314 12.7444 3.85471 12.8897 4.30002 13.3444C4.67033 13.7194 4.70783 13.7476 4.89064 13.7476C5.07814 13.7476 5.10627 13.7194 5.75783 13.0632C6.40939 12.4069 6.43752 12.3741 6.43752 12.1913C6.43752 12.0366 6.40939 11.9757 6.31564 11.9007C6.08596 11.7179 5.99689 11.7601 5.42502 12.3272Z" fill="white"/>
<path d="M9.42337 10.9022C9.28274 11.0569 9.27337 11.2538 9.40462 11.4085L9.52181 11.5444H10.5812C11.6124 11.5444 11.6406 11.5397 11.7437 11.4413C11.889 11.296 11.8843 11.0241 11.739 10.9069C11.6406 10.8272 11.5374 10.8179 10.5624 10.8179C9.59212 10.8179 9.49368 10.8272 9.42337 10.9022Z" fill="white"/>
<path d="M12.864 10.94C12.6812 11.1697 12.7796 11.4744 13.0562 11.5447C13.1171 11.5587 13.9515 11.5681 14.9125 11.5587L16.6656 11.5447L16.7781 11.4134C16.914 11.254 16.9234 11.104 16.7921 10.94L16.6984 10.8181H14.8281H12.9578L12.864 10.94Z" fill="white"/>
<path d="M9.43281 12.4069C9.34844 12.4726 9.32031 12.5429 9.32031 12.6929C9.32031 12.8429 9.34844 12.9132 9.43281 12.9788C9.53594 13.0632 9.66719 13.0679 12.4375 13.0679C15.2922 13.0679 15.3344 13.0679 15.4562 12.9694C15.6203 12.8429 15.625 12.5663 15.4703 12.421L15.3625 12.3179H12.4516C9.66719 12.3179 9.53594 12.3226 9.43281 12.4069Z" fill="white"/>
<path d="M9.43282 13.9538C9.31094 14.0804 9.29219 14.1272 9.31563 14.2538C9.3625 14.5069 9.48907 14.5679 9.93438 14.5679C10.4031 14.5679 10.5156 14.4976 10.5156 14.2022C10.5156 13.9257 10.3984 13.846 9.94844 13.8226C9.5875 13.8085 9.57813 13.8132 9.43282 13.9538Z" fill="white"/>
<path d="M11.6547 13.8647C11.4437 13.9538 11.3828 14.3101 11.5469 14.4741C11.6359 14.5632 11.7015 14.5679 12.7328 14.5679C13.8156 14.5679 13.8297 14.5679 13.9281 14.4601C14.0547 14.3241 14.0594 14.0991 13.9422 13.9538C13.8531 13.8413 13.8437 13.8413 12.8031 13.8319C12.2312 13.8272 11.7109 13.8413 11.6547 13.8647Z" fill="white"/>
<path d="M3.08594 16.3536C2.875 16.4145 2.61719 16.6489 2.50469 16.8786C2.41094 17.0755 2.40625 17.1505 2.40625 19.0301V20.9801L2.5375 21.2286C2.63125 21.4114 2.72969 21.5192 2.89844 21.6223L3.12344 21.763L4.97969 21.777C7.17344 21.7958 7.23906 21.7864 7.5625 21.4583C7.89062 21.1348 7.9 21.0692 7.88125 18.8801C7.86719 16.8551 7.87188 16.9067 7.57656 16.6114C7.27656 16.302 7.27188 16.302 5.14844 16.3067C4.09375 16.3067 3.16563 16.3301 3.08594 16.3536ZM7.04219 17.1739C7.13594 17.2958 7.14062 17.3473 7.14062 19.0536V20.8067L7.02344 20.9192L6.91094 21.0364H5.17188C3.44688 21.0364 3.29219 21.0223 3.19375 20.877C3.175 20.8489 3.15625 20.0192 3.15625 19.0301C3.15625 17.3005 3.16094 17.2348 3.25 17.1458C3.33906 17.0567 3.40469 17.052 5.14375 17.052H6.94844L7.04219 17.1739Z" fill="white"/>
<path d="M5.39684 18.5849L4.89059 19.0911L4.69371 18.8943C4.58121 18.7911 4.44528 18.688 4.38434 18.6693C4.13121 18.5943 3.85934 18.8661 3.92496 19.1286C3.93903 19.1849 4.12653 19.4099 4.34215 19.6208C4.90934 20.1693 4.87184 20.1786 5.74371 19.3161C6.41403 18.6505 6.43746 18.6224 6.43746 18.4302C6.43746 18.1864 6.32965 18.0833 6.08121 18.0833C5.91246 18.0833 5.86559 18.1161 5.39684 18.5849Z" fill="white"/>
<path d="M9.43281 17.1413C9.34844 17.2069 9.32031 17.2772 9.32031 17.4272C9.32031 17.5772 9.34844 17.6476 9.43281 17.7132C9.53125 17.7929 9.62969 17.8022 10.5719 17.8022C11.1391 17.8022 11.6359 17.7835 11.6828 17.7554C11.8281 17.6804 11.8984 17.4507 11.8281 17.2866C11.7953 17.2069 11.7297 17.1226 11.6828 17.0991C11.6359 17.071 11.1391 17.0522 10.5719 17.0522C9.62969 17.0522 9.53125 17.0616 9.43281 17.1413Z" fill="white"/>
<path d="M9.39536 20.221C9.26411 20.3851 9.27348 20.5351 9.40942 20.6944C9.51723 20.821 9.54067 20.8257 9.92973 20.8257C10.3 20.8257 10.3422 20.8163 10.4266 20.7132C10.5438 20.5679 10.5438 20.3147 10.4219 20.1929C10.3422 20.1132 10.2672 20.0991 9.91098 20.0991C9.51255 20.0991 9.48442 20.1038 9.39536 20.221Z" fill="white"/>
</svg>
