<svg width="24" height="24" viewBox="0 0 24 24" fill="none" xmlns="http://www.w3.org/2000/svg">
<path d="M10.3845 0.717405C10.0798 0.867405 10.0235 1.00803 10.0095 1.69241C9.99539 2.26428 10.0001 2.31116 10.1032 2.46115C10.2532 2.68616 10.422 2.79866 10.647 2.82678L10.8438 2.85491V3.17366V3.4924L10.6704 3.52522C9.43289 3.73616 8.01258 4.35959 6.90633 5.1799C6.4657 5.50803 5.66883 6.27678 5.31258 6.71272C3.1282 9.42678 2.69695 13.1674 4.20164 16.2987C5.23758 18.4549 7.10789 20.119 9.37195 20.9018C11.0126 21.469 12.8782 21.5487 14.5563 21.1268C14.8235 21.0565 14.8751 21.0565 14.8985 21.1127C14.9641 21.2815 15.3063 21.7408 15.597 22.0502C15.9485 22.4205 16.5204 22.8283 16.9657 23.0252C17.7907 23.3908 18.9157 23.4846 19.797 23.2643C21.5876 22.8096 22.8579 21.3565 23.0829 19.519C23.2751 17.9487 22.5016 16.2658 21.1985 15.4127L20.8891 15.2158L21.0016 14.8268C21.2782 13.8752 21.3954 12.6143 21.3016 11.6065C21.086 9.35178 20.1813 7.46272 18.5688 5.91116C17.8141 5.18459 17.2751 4.80022 16.3516 4.34084C15.4751 3.90959 14.7438 3.65647 13.9751 3.52522L13.797 3.4924V3.16897C13.797 2.85022 13.8016 2.84084 13.9141 2.84084C14.2329 2.84084 14.547 2.56897 14.6454 2.21741C14.6782 2.10491 14.6876 1.83772 14.6782 1.58928C14.6595 1.22366 14.636 1.12522 14.5329 0.975218C14.3126 0.637718 14.3079 0.637718 12.311 0.637718C10.7735 0.637718 10.5204 0.651781 10.3845 0.717405ZM13.8813 1.72522L13.8954 2.04397H12.3438H10.797V1.71584V1.38772L12.3345 1.39709L13.8673 1.41116L13.8813 1.72522ZM13.0001 3.10803V3.37991H12.3204H11.6407V3.10803V2.84084H12.3204H13.0001V3.10803ZM13.0001 4.20491C14.772 4.36428 16.4173 5.06741 17.7345 6.22522C20.0782 8.29241 21.0579 11.4799 20.261 14.4893C20.2095 14.6955 20.1626 14.869 20.1579 14.8737C20.1532 14.8783 20.0266 14.8455 19.8766 14.808C19.6657 14.7471 19.6141 14.7143 19.6329 14.658C19.6516 14.6158 19.7173 14.3627 19.7782 14.0908C20.0454 12.9143 20.0266 11.6533 19.722 10.4815C18.9766 7.60803 16.7313 5.49866 13.7501 4.87053C13.1313 4.73928 11.411 4.75334 10.7829 4.89397C7.65164 5.58772 5.32664 7.98772 4.79695 11.0721C4.68445 11.719 4.66101 12.8018 4.75008 13.4299C4.97976 15.0987 5.70633 16.5518 6.92508 17.7752C8.27039 19.1205 9.78445 19.8237 11.7063 20.0018C12.4001 20.0674 13.2532 20.0112 13.9563 19.8565C14.1907 19.8049 14.3923 19.7627 14.411 19.7627C14.4251 19.7627 14.4532 19.8424 14.472 19.9362C14.486 20.0346 14.5141 20.1565 14.5282 20.2127C14.5516 20.3065 14.5188 20.3205 14.0688 20.4096C13.0001 20.6346 11.9266 20.658 10.9376 20.4846C8.83289 20.119 6.89226 18.8908 5.61258 17.1143C5.25164 16.608 4.71726 15.5487 4.52039 14.944C3.96726 13.2612 3.97664 11.4752 4.53914 9.78772C5.4532 7.05959 7.7407 5.00178 10.5673 4.36897C11.4438 4.17209 12.1516 4.12522 13.0001 4.20491ZM13.6985 5.67678C16.1782 6.23459 18.1282 8.00647 18.8548 10.369C19.0751 11.0862 19.1548 11.6346 19.1548 12.4033C19.1548 13.144 19.1079 13.5049 18.9251 14.1846L18.8032 14.6346L18.3063 14.6862C16.9704 14.8315 15.8595 15.4924 15.1141 16.5893C14.7438 17.133 14.5188 17.7752 14.3735 18.708L14.336 18.9424L13.8907 19.0455C10.9563 19.7487 7.90008 18.408 6.37195 15.7549C5.42976 14.1143 5.2282 12.0471 5.83289 10.2283C6.25945 8.94866 7.1407 7.73928 8.26101 6.89084C9.02976 6.31428 10.1688 5.82209 11.1954 5.62991C11.7016 5.54084 13.2063 5.56428 13.6985 5.67678ZM19.6329 15.5721C21.0438 15.9518 22.0798 17.1377 22.2813 18.6049C22.4454 19.7862 21.8829 21.1127 20.9173 21.8487C20.2798 22.3268 19.5251 22.5846 18.7423 22.5846C16.8954 22.5846 15.3626 21.1737 15.1798 19.294C15.161 19.1252 15.1704 18.8158 15.2032 18.6049C15.4235 16.983 16.6423 15.7455 18.2735 15.4783C18.5266 15.4408 19.347 15.4924 19.6329 15.5721Z" fill="white"/>
<path d="M12.0578 6.07058C11.9547 6.15027 11.9453 6.20652 11.9313 6.60027C11.9125 7.01746 11.9219 7.05496 12.0297 7.17683C12.1891 7.36433 12.4516 7.36902 12.6063 7.18152C12.7047 7.06902 12.7188 7.00808 12.7188 6.63308C12.7188 6.24871 12.7094 6.20183 12.6016 6.09871C12.461 5.9534 12.2125 5.94402 12.0578 6.07058Z" fill="white"/>
<path d="M7.82973 7.81903C7.69379 7.92215 7.64692 8.12372 7.72192 8.29247C7.81098 8.5034 8.2141 8.8784 8.38285 8.91122C8.56098 8.94403 8.7391 8.85028 8.81879 8.68622C8.91254 8.49403 8.82348 8.28309 8.52348 8.00184C8.30785 7.80028 8.24223 7.76278 8.09223 7.76278C7.9891 7.76278 7.87192 7.7909 7.82973 7.81903Z" fill="white"/>
<path d="M16.0891 8.03926C15.8453 8.2877 15.8125 8.33926 15.8125 8.50332C15.8125 8.77051 15.9391 8.91113 16.1828 8.91113C16.3563 8.91113 16.4031 8.87832 16.6656 8.61582C16.9281 8.35332 16.9609 8.30645 16.9609 8.13301C16.9609 7.88926 16.8203 7.7627 16.5531 7.7627C16.3891 7.7627 16.3375 7.79551 16.0891 8.03926Z" fill="white"/>
<path d="M12.0203 8.44726C11.9266 8.56913 11.9219 8.63007 11.9219 9.87695V11.1848L11.7485 11.2738C11.336 11.4848 11.0781 11.916 11.0828 12.3801C11.0828 12.8816 11.2891 13.2519 11.6922 13.4723L11.9219 13.5988V14.8738C11.9219 15.7223 11.9406 16.1863 11.9735 16.266C12.0813 16.5004 12.4328 16.5379 12.625 16.3316C12.7141 16.2332 12.7188 16.1723 12.7188 14.916V13.5988L12.9344 13.4863C13.1828 13.3504 13.3563 13.1629 13.4828 12.8769C13.5531 12.7129 13.5672 12.6004 13.5531 12.3144C13.5391 12.1176 13.4969 11.8926 13.4594 11.8176C13.3516 11.6207 13.1078 11.3816 12.8969 11.2738L12.7188 11.1848V9.87695C12.7188 8.63007 12.7141 8.56913 12.6203 8.44726C12.5453 8.34882 12.4844 8.32538 12.3203 8.32538C12.1563 8.32538 12.0953 8.34882 12.0203 8.44726ZM12.6297 12.0707C12.8078 12.2488 12.8125 12.4785 12.6485 12.6754C12.5125 12.8394 12.3578 12.8816 12.1656 12.7973C11.8516 12.666 11.7766 12.3051 12.011 12.0707C12.1141 11.9723 12.1938 11.9348 12.3203 11.9348C12.4469 11.9348 12.5266 11.9723 12.6297 12.0707Z" fill="white"/>
<path d="M6.1328 12.033C5.88905 12.1736 5.84217 12.4689 6.03905 12.6611C6.14217 12.7689 6.18905 12.7783 6.59217 12.7783C6.99061 12.7783 7.04217 12.7689 7.13123 12.6705C7.27186 12.5205 7.27186 12.2158 7.13592 12.0939C7.05623 12.0236 6.95311 12.0002 6.62967 11.9908C6.39061 11.9861 6.18905 12.0002 6.1328 12.033Z" fill="white"/>
<path d="M17.6079 12.0283C17.3735 12.1268 17.3266 12.5205 17.5282 12.6799C17.636 12.7643 17.7204 12.7783 18.0719 12.7783C18.4516 12.7783 18.4985 12.7689 18.6016 12.6611C18.7469 12.5205 18.7563 12.2721 18.6297 12.1174C18.5501 12.0143 18.4985 12.0049 18.1235 11.9955C17.8985 11.9861 17.6641 12.0002 17.6079 12.0283Z" fill="white"/>
<path d="M8.04066 16.0832C7.6516 16.4347 7.5766 16.7488 7.8391 16.955C8.03598 17.1097 8.23285 17.0488 8.5516 16.7347C8.85629 16.4347 8.91723 16.2754 8.80941 16.0691C8.72973 15.9097 8.65004 15.8722 8.42973 15.8722C8.31254 15.8722 8.21879 15.9238 8.04066 16.0832Z" fill="white"/>
<path d="M12.0391 17.583C11.9313 17.6862 11.9219 17.733 11.9219 18.1221C11.9219 18.5112 11.9313 18.558 12.0391 18.6612C12.2031 18.8299 12.4891 18.8252 12.6203 18.6565C12.7047 18.5487 12.7188 18.4643 12.7188 18.1127C12.7188 17.733 12.7094 17.6862 12.6016 17.583C12.5266 17.5033 12.4375 17.4658 12.3203 17.4658C12.2031 17.4658 12.1141 17.5033 12.0391 17.583Z" fill="white"/>
<path d="M20.2188 16.9081C20.1016 16.9456 19.7922 17.2175 19.1266 17.8784L18.2032 18.7972L17.8375 18.4409C17.4016 18.0097 17.261 17.9347 16.9047 17.9347C16.5813 17.9347 16.3375 18.0565 16.1219 18.3237C15.9953 18.4831 15.9766 18.5487 15.9625 18.844C15.9485 19.1018 15.9625 19.2237 16.0235 19.3456C16.1313 19.5565 17.4719 20.9112 17.711 21.0518C17.9782 21.2065 18.2125 21.2347 18.4985 21.1503C18.7282 21.0847 18.836 20.9909 20.0547 19.7628C20.7766 19.0409 21.4 18.38 21.4469 18.2956C21.5688 18.0659 21.5594 17.5878 21.4235 17.3487C21.2641 17.0675 20.9922 16.8987 20.6594 16.8753C20.5094 16.8659 20.3078 16.88 20.2188 16.9081ZM20.6782 17.7097C20.711 17.7425 20.7344 17.8081 20.7344 17.855C20.7344 17.944 18.4657 20.2784 18.2828 20.3815C18.2078 20.419 18.086 20.3206 17.4719 19.7065C16.8719 19.1159 16.75 18.9706 16.7594 18.8722C16.7688 18.7878 16.8063 18.7503 16.886 18.7409C16.9703 18.7268 17.1063 18.83 17.5235 19.2425C18.2782 19.9925 18.1422 20.03 19.4688 18.7081C20.05 18.1268 20.5469 17.6534 20.575 17.6534C20.5985 17.6534 20.6453 17.6768 20.6782 17.7097Z" fill="white"/>
<path d="M6.64844 1.12992C6.49375 1.27992 6.48906 1.53774 6.63906 1.68774C6.71406 1.76274 6.84531 1.80961 7.1125 1.8518L7.48281 1.91274L6.94844 2.19399C4.77344 3.33774 3.07656 5.09086 1.98438 7.31742C1.24375 8.82211 0.8125 10.5799 0.8125 12.0893C0.8125 12.5159 0.821875 12.558 0.929688 12.6612C1.04219 12.7784 1.23438 12.8112 1.39844 12.7502C1.53438 12.694 1.60938 12.469 1.60938 12.0987C1.60938 10.3315 2.31719 8.09555 3.38125 6.49711C4.4875 4.84242 6.01562 3.50649 7.70781 2.7143L8.01719 2.56899L7.81563 2.9018C7.57188 3.29555 7.54375 3.51586 7.71719 3.67524C7.86719 3.81586 8.125 3.81117 8.25156 3.67055C8.35 3.56742 9.18906 2.25024 9.32031 1.99711C9.41875 1.80492 9.40938 1.64555 9.2875 1.50961C9.18906 1.4018 9.07656 1.37367 8.07344 1.20024C7.46875 1.09711 6.925 1.01274 6.86406 1.01274C6.80781 1.01274 6.70938 1.0643 6.64844 1.12992Z" fill="white"/>
<path d="M15.7655 1.46744C15.3718 1.61744 15.4234 2.10026 15.8452 2.25963C18.3999 3.18776 20.4109 4.90338 21.7327 7.27057C21.878 7.52838 22.028 7.81901 22.0702 7.91276L22.1405 8.08619L21.803 7.87526C21.4046 7.63151 21.2124 7.60807 21.039 7.78619C20.903 7.91744 20.889 8.11432 20.9921 8.26432C21.0296 8.32057 21.4515 8.61119 21.9296 8.90651C23.2374 9.72682 23.228 9.73151 23.4999 8.17994C23.603 7.60338 23.6874 7.05963 23.6874 6.97526C23.6874 6.52526 23.0124 6.44557 22.9187 6.88151C22.9046 6.94244 22.8718 7.11588 22.839 7.26588L22.7874 7.54244L22.5109 7.01276C21.2687 4.62213 19.1077 2.68151 16.5859 1.67838C16.0796 1.47682 15.878 1.42526 15.7655 1.46744Z" fill="white"/>
<path d="M1.52969 15.3565C1.47344 15.38 1.40312 15.4456 1.375 15.4972C1.31406 15.6097 0.953125 17.6206 0.953125 17.8362C0.953125 18.0237 1.13594 18.1784 1.35625 18.1784C1.61406 18.1784 1.7125 18.0378 1.7875 17.5925L1.84844 17.2269L2.08281 17.6769C2.62187 18.7222 3.19375 19.5144 4.04687 20.3909C4.72656 21.0894 5.15781 21.4456 5.96875 21.9894C7.68906 23.1425 9.72344 23.8034 11.7391 23.8737L12.5125 23.9019L12.6156 23.7706C12.7469 23.6019 12.7469 23.4097 12.6156 23.255C12.5125 23.1378 12.4797 23.1331 11.7953 23.0909C11.0219 23.044 10.375 22.9503 9.78906 22.805C7.15937 22.1487 4.89531 20.5597 3.41406 18.3331C3.06719 17.8175 2.54687 16.8753 2.54687 16.7675C2.54687 16.7394 2.67812 16.7956 2.84219 16.8987C3.00156 17.0019 3.18906 17.0956 3.25937 17.1144C3.39062 17.1472 3.56406 17.0769 3.65781 16.955C3.74219 16.8472 3.73281 16.5987 3.63906 16.4862C3.51719 16.3409 1.83906 15.3097 1.72656 15.3144C1.675 15.3144 1.58594 15.3331 1.52969 15.3565Z" fill="white"/>
</svg>
