<svg width="25" height="23" viewBox="0 0 25 23" fill="none" xmlns="http://www.w3.org/2000/svg">
<path d="M8.90166 1.01939C8.41885 1.15533 8.05322 1.46939 7.83291 1.94283C7.72979 2.15845 7.71104 2.26627 7.71104 2.62252C7.71104 2.98346 7.72979 3.08189 7.8376 3.32096C7.9126 3.47095 7.95479 3.61627 7.93604 3.64908C7.91729 3.67721 7.58916 4.07096 7.2001 4.52096C6.81572 4.97095 6.49229 5.34595 6.4876 5.35533C6.48291 5.36471 6.42666 5.34127 6.36572 5.30377C5.92979 5.02252 5.01572 4.94752 4.44854 5.14908C3.42666 5.51002 2.80322 6.46627 2.87822 7.55846C2.90635 8.01314 3.01416 8.27564 3.19229 8.33658C3.36572 8.39283 3.54854 8.33658 3.6376 8.19596C3.70791 8.09283 3.7126 8.04127 3.65635 7.75533C3.54385 7.16939 3.69385 6.66314 4.0876 6.26002C4.88447 5.45846 6.1876 5.68814 6.69385 6.72408C6.80166 6.94439 6.82041 7.04283 6.82041 7.38033C6.82041 7.71783 6.80166 7.81627 6.69385 8.03658C6.32354 8.78658 5.47041 9.16627 4.72979 8.90846C4.43447 8.80533 4.24229 8.81471 4.1251 8.93658C4.00791 9.06314 4.00322 9.30689 4.11572 9.43346C4.36416 9.72877 5.40947 9.82252 6.02354 9.60689C6.20166 9.54127 6.36104 9.50846 6.37979 9.52721C6.4501 9.61158 7.57979 11.1116 7.6126 11.1631C7.63135 11.2006 7.51416 11.3741 7.30791 11.6085C6.38447 12.6772 6.0001 13.9569 6.19229 15.335C6.24854 15.7663 6.46416 16.4413 6.66104 16.7975C6.73604 16.9381 6.78291 17.0694 6.76416 17.0881C6.66104 17.1772 4.77666 18.5366 4.75322 18.5366C4.73916 18.5366 4.6501 18.471 4.56104 18.396C4.34072 18.2038 3.99385 18.035 3.64697 17.9506C2.45635 17.6694 1.26572 18.3163 0.862598 19.4694C0.70791 19.9053 0.70791 20.5897 0.862598 21.0256C1.26572 22.1788 2.45635 22.8256 3.65166 22.5444C4.42041 22.3616 5.05791 21.785 5.3251 21.0256C5.47979 20.5897 5.47979 19.9053 5.3251 19.4694L5.21729 19.1647L6.17822 18.4616C6.70322 18.0772 7.15791 17.7491 7.19072 17.7303C7.22822 17.7116 7.36416 17.81 7.54229 17.9788C8.07666 18.485 8.72354 18.86 9.45479 19.085C9.83916 19.2022 9.92354 19.2116 10.7345 19.2116C11.5454 19.2116 11.6298 19.2022 12.0142 19.085C12.4032 18.9631 12.9845 18.696 13.2892 18.4944L13.4298 18.4006L14.0157 19.0616C14.8735 20.0319 14.8032 19.9053 14.6438 20.1913C14.5313 20.3975 14.5079 20.5006 14.4938 20.8569C14.4704 21.4475 14.5782 21.7381 14.9767 22.1319C15.2204 22.371 15.3188 22.4366 15.586 22.5163C15.9845 22.6428 16.2657 22.6381 16.6688 22.5163C16.936 22.4319 17.0298 22.371 17.2735 22.1319C17.6392 21.7663 17.7657 21.4569 17.7657 20.9506C17.7657 20.4444 17.6392 20.135 17.2735 19.7694C17.0298 19.5303 16.936 19.4694 16.6688 19.385C16.2892 19.2678 15.9938 19.2585 15.661 19.3616C15.5251 19.3991 15.3985 19.4272 15.3751 19.4178C15.3517 19.4085 15.0376 19.0663 14.6767 18.6585L14.0204 17.9131L14.1376 17.7678C14.6485 17.1397 14.8876 16.7272 15.0845 16.1319C15.1642 15.9022 15.2345 15.71 15.2438 15.7006C15.2579 15.6866 15.8017 15.7522 16.4579 15.8413C17.1142 15.9303 17.6532 16.0053 17.6626 16.0053C17.6673 16.0053 17.672 16.1038 17.672 16.2256C17.6767 16.8819 18.2251 17.7069 18.8907 18.0631C20.1751 18.7475 21.7642 18.1288 22.247 16.76C22.4017 16.3241 22.4017 15.6397 22.247 15.2038C22.1251 14.8569 21.9048 14.51 21.6657 14.2897L21.5063 14.1397L22.0688 13.1647L22.6313 12.185L22.9735 12.1991C23.5267 12.2225 23.897 12.0866 24.2579 11.7256C24.6235 11.36 24.7501 11.0506 24.7501 10.5444C24.7501 10.0381 24.6235 9.72877 24.2579 9.36314C24.0142 9.12408 23.9204 9.06314 23.6532 8.97877C23.2501 8.85689 22.9688 8.85221 22.5704 8.97877C22.1485 9.11002 21.7173 9.51314 21.5673 9.92564C21.3657 10.4835 21.4688 11.1772 21.8204 11.585L21.9798 11.7725L21.4407 12.7288C21.1407 13.2538 20.8829 13.6991 20.8688 13.7178C20.8501 13.7366 20.7095 13.7178 20.5548 13.685C19.6407 13.4647 18.6985 13.8022 18.136 14.5522C18.0282 14.6928 17.9017 14.9038 17.8501 15.021C17.7985 15.1335 17.7517 15.2366 17.747 15.2413C17.7329 15.2553 15.8485 15.0116 15.4876 14.9506L15.3423 14.9272L15.3142 14.4022C15.2907 14.0506 15.2579 13.8256 15.2017 13.7131C15.1267 13.5585 15.0985 13.5444 14.9017 13.5303C14.597 13.5116 14.4985 13.6241 14.5313 13.985C14.5829 14.5897 14.5501 15.2741 14.447 15.6444C13.8282 17.8569 11.4798 19.0616 9.36572 18.2506C8.7001 17.9928 7.98291 17.435 7.60322 16.8866C7.36885 16.5491 7.13916 16.0522 7.02197 15.6491C6.87197 15.1194 6.87197 14.2194 7.02197 13.6897C7.25635 12.8694 7.6876 12.2131 8.33447 11.6881C9.53916 10.7178 11.2126 10.5631 12.5579 11.2991C12.9798 11.5288 13.4345 11.9085 13.6876 12.2319C14.0298 12.6772 14.086 12.7241 14.2735 12.7241C14.4938 12.7241 14.6251 12.5881 14.6251 12.3631C14.6251 12.2272 14.5735 12.1194 14.3626 11.8475C14.2173 11.6553 13.997 11.4116 13.8751 11.3038L13.6548 11.1069L14.447 9.95846C14.8829 9.32564 15.2532 8.79596 15.272 8.77721C15.2907 8.75846 15.4548 8.79596 15.6329 8.86627C16.0688 9.02564 16.8892 9.07252 17.3438 8.95533C17.8923 8.81939 18.3142 8.57564 18.7267 8.15846C19.1532 7.72721 19.3548 7.36627 19.5095 6.75221C19.6032 6.38658 19.6079 6.18502 19.5329 5.41627C19.5235 5.31314 19.5751 5.28502 20.0767 5.07408L20.6345 4.84908L20.8032 4.99439C21.0751 5.23346 21.3048 5.31783 21.7079 5.31783C22.2657 5.31783 22.622 5.10221 22.8892 4.59595C23.0345 4.32408 23.0345 3.73346 22.8892 3.46158C22.6173 2.95533 22.2657 2.73971 21.7032 2.73971C21.4126 2.73971 21.3001 2.76314 21.1032 2.86158C20.7142 3.05377 20.4517 3.44283 20.4048 3.88814L20.3767 4.13189L19.8142 4.36158C19.5048 4.48814 19.2376 4.59595 19.2235 4.60064C19.2095 4.60533 19.1438 4.52564 19.0782 4.42252C18.7688 3.91627 18.0142 3.39596 17.3438 3.22721C16.8938 3.11471 16.0688 3.15689 15.647 3.31158C15.2157 3.47564 14.8173 3.71939 14.7329 3.87877C14.6063 4.12252 14.7985 4.42721 15.0798 4.42721C15.122 4.42721 15.2954 4.34283 15.4642 4.24439C15.8626 4.00533 16.1954 3.91158 16.6454 3.91158C18.0563 3.91158 19.1251 5.25689 18.7735 6.59752C18.511 7.60533 17.6626 8.27096 16.6407 8.27096C15.6048 8.27096 14.7657 7.60064 14.5032 6.57408C14.4282 6.28814 14.4329 6.04439 14.5126 5.45846C14.5501 5.18189 14.4282 5.03658 14.1563 5.03658C13.9173 5.03658 13.8095 5.17252 13.7345 5.58033C13.5704 6.44752 13.861 7.43658 14.4657 8.08346L14.6673 8.29908L13.8938 9.41939C13.4673 10.0381 13.1017 10.5772 13.0782 10.6147C13.0454 10.671 12.9798 10.6522 12.6704 10.5069C11.972 10.1835 11.6626 10.1225 10.711 10.1272C9.93291 10.1272 9.83447 10.1366 9.45479 10.2538C9.22979 10.3241 8.87354 10.4647 8.6626 10.5725C8.45635 10.6756 8.26885 10.746 8.2501 10.7225C8.22666 10.7038 7.92666 10.3053 7.57979 9.84127L6.94229 9.00221L7.08291 8.84752C7.42041 8.45846 7.62197 7.81627 7.57979 7.23971C7.54697 6.79439 7.45322 6.49439 7.24229 6.14283C7.15322 5.99283 7.07822 5.86158 7.07822 5.85221C7.07822 5.79596 8.55479 4.12252 8.59697 4.13189C8.6251 4.13658 8.76572 4.17408 8.90635 4.21627C9.67041 4.44127 10.5235 4.04752 10.8657 3.31158C10.9735 3.08658 10.9923 2.97877 10.9923 2.62252C10.9923 2.26627 10.9735 2.15845 10.8657 1.93814C10.5985 1.35689 10.097 1.01471 9.46416 0.977205C9.25791 0.967831 9.02822 0.981894 8.90166 1.01939ZM9.85322 1.8772C9.96104 1.95221 10.097 2.10689 10.1626 2.22408C10.3876 2.64596 10.2048 3.1897 9.7501 3.43346C9.1501 3.7522 8.39541 3.24596 8.45166 2.56158C8.50322 1.86314 9.29072 1.47877 9.85322 1.8772ZM21.9798 3.56002C22.111 3.62564 22.2657 3.87877 22.2657 4.02877C22.2657 4.17877 22.111 4.43189 21.9798 4.49752C21.6938 4.64752 21.347 4.54439 21.2157 4.26783C21.1267 4.08033 21.122 4.01939 21.1923 3.82252C21.2907 3.53658 21.6845 3.40533 21.9798 3.56002ZM23.461 9.71939C23.8173 9.88346 24.0001 10.1647 24.0001 10.5444C24.0001 10.9241 23.8173 11.2053 23.461 11.3694C23.1188 11.5288 22.7157 11.4397 22.4438 11.1491C22.2845 10.9756 22.2188 10.8022 22.2188 10.5444C22.2188 10.4319 22.2423 10.2819 22.2704 10.2069C22.3829 9.90689 22.7813 9.63033 23.1095 9.63033C23.1985 9.63033 23.3579 9.67252 23.461 9.71939ZM20.6907 14.5241C20.9907 14.6694 21.3001 14.9741 21.4642 15.2788C21.572 15.485 21.586 15.5647 21.586 15.9819C21.586 16.3991 21.572 16.4788 21.4642 16.685C21.3001 16.9944 20.9907 17.2944 20.672 17.4491C20.4517 17.5569 20.3532 17.5756 20.0157 17.5756C19.6782 17.5756 19.5798 17.5569 19.3595 17.4491C19.0407 17.2944 18.7313 16.9944 18.5673 16.685C18.4595 16.4788 18.4454 16.3991 18.4454 15.9819C18.4454 15.5647 18.4595 15.4897 18.572 15.2788C18.7876 14.871 19.1767 14.5428 19.5845 14.4256C19.9032 14.3366 20.3954 14.3788 20.6907 14.5241ZM3.76885 18.7897C4.06885 18.935 4.37822 19.2397 4.54229 19.5444C4.6501 19.7506 4.66416 19.8303 4.66416 20.2475C4.66416 20.6647 4.6501 20.7444 4.54229 20.9506C4.37822 21.26 4.06885 21.56 3.7501 21.7147C3.52979 21.8225 3.43135 21.8413 3.09385 21.8413C2.75635 21.8413 2.65791 21.8225 2.4376 21.7147C2.11885 21.56 1.80947 21.26 1.64541 20.9506C1.5376 20.7444 1.52354 20.6647 1.52354 20.2475C1.52354 19.8303 1.5376 19.7553 1.6501 19.5444C1.86572 19.1366 2.25479 18.8085 2.6626 18.6913C2.98135 18.6022 3.47354 18.6444 3.76885 18.7897ZM16.4767 20.1256C16.8329 20.2897 17.0157 20.571 17.0157 20.9506C17.0157 21.3303 16.8329 21.6116 16.4767 21.7756C16.2376 21.8881 16.0126 21.8881 15.7735 21.7756C15.4173 21.6116 15.2345 21.3303 15.2345 20.9506C15.2345 20.8381 15.2579 20.6881 15.286 20.6131C15.3985 20.3131 15.797 20.0366 16.1251 20.0366C16.2142 20.0366 16.3735 20.0788 16.4767 20.1256Z" fill="white"/>
<path d="M19.1579 15.7147C19.0501 15.8366 19.0548 16.1554 19.1626 16.2538C19.2376 16.3194 19.3688 16.3335 20.0251 16.3335C20.9063 16.3335 20.9532 16.3147 20.9532 15.9726C20.9532 15.6491 20.897 15.6304 20.0063 15.6304C19.3173 15.6304 19.2235 15.6397 19.1579 15.7147Z" fill="white"/>
<path d="M2.23602 19.9804C2.12821 20.1022 2.1329 20.421 2.24071 20.5194C2.31571 20.5851 2.44696 20.5991 3.10321 20.5991C3.98446 20.5991 4.03134 20.5804 4.03134 20.2382C4.03134 19.9147 3.97509 19.896 3.08446 19.896C2.3954 19.896 2.30165 19.9054 2.23602 19.9804Z" fill="white"/>
<path d="M15.8906 5.13975C15.764 5.28037 15.7687 5.51006 15.9047 5.63662C16.0078 5.73037 16.0594 5.73975 16.65 5.73975C17.2875 5.73975 17.2922 5.73975 17.3859 5.61787C17.5172 5.45381 17.5125 5.26631 17.3765 5.13975C17.2734 5.046 17.2219 5.03662 16.6265 5.03662C16.0312 5.03662 15.9797 5.04131 15.8906 5.13975Z" fill="white"/>
<path d="M15.4219 6.546C15.2953 6.68662 15.3 6.91631 15.4359 7.04287C15.5437 7.14131 15.5812 7.146 16.65 7.146H17.7609L17.8547 7.02412C17.9859 6.86006 17.9812 6.67256 17.8453 6.546C17.7375 6.44756 17.7 6.44287 16.6265 6.44287C15.5484 6.44287 15.5156 6.44756 15.4219 6.546Z" fill="white"/>
<path d="M4.38281 7.12256C4.30781 7.19287 4.26562 7.29131 4.26562 7.38037C4.26562 7.46943 4.30781 7.56787 4.38281 7.63818C4.49531 7.75068 4.51406 7.75537 5.22656 7.75537C5.93906 7.75537 5.95781 7.75068 6.07031 7.63818C6.14531 7.56787 6.1875 7.46943 6.1875 7.38037C6.1875 7.29131 6.14531 7.19287 6.07031 7.12256C5.95781 7.01006 5.93906 7.00537 5.22656 7.00537C4.51406 7.00537 4.49531 7.01006 4.38281 7.12256Z" fill="white"/>
<path d="M10.1251 11.9551C9.13608 12.1661 8.29702 12.9817 8.03921 13.9754C7.95015 14.3223 7.95015 15.0207 8.03921 15.3676C8.12827 15.7004 8.31577 16.1036 8.47046 16.2864C8.62046 16.4692 8.88296 16.4832 9.03765 16.3192C9.18296 16.1645 9.1689 16.0332 8.9439 15.5879C8.74233 15.1942 8.74233 15.1942 8.74233 14.6739C8.74233 14.1629 8.74702 14.1395 8.92046 13.7926C9.21577 13.1879 9.76421 12.7754 10.4251 12.6629C11.2783 12.5176 12.1501 12.9817 12.5486 13.7926C12.722 14.1395 12.7267 14.1629 12.7267 14.6645C12.7267 15.152 12.7173 15.2036 12.5767 15.5036C12.1736 16.3473 11.2876 16.8207 10.383 16.6661C10.0642 16.6145 10.0126 16.6145 9.90952 16.6848C9.74077 16.7973 9.68921 16.9614 9.7689 17.1536C9.84858 17.3411 10.0126 17.402 10.5705 17.4395C11.8736 17.5332 13.097 16.6473 13.4298 15.3629C13.5189 15.0161 13.5189 14.3176 13.4298 13.9661C13.1673 12.9629 12.3283 12.1614 11.3205 11.9504C10.9173 11.8661 10.5283 11.8661 10.1251 11.9551Z" fill="white"/>
<path d="M9.74998 13.7179C9.62342 13.8585 9.6281 14.0882 9.76404 14.2147C9.86717 14.3132 9.91404 14.3179 10.7437 14.3179H11.6203L11.714 14.196C11.8453 14.0319 11.8406 13.8444 11.7047 13.7179C11.6015 13.6194 11.5547 13.6147 10.7203 13.6147C9.88123 13.6147 9.84373 13.6194 9.74998 13.7179Z" fill="white"/>
<path d="M9.74998 15.1241C9.62342 15.2647 9.6281 15.4944 9.76404 15.621C9.86717 15.7194 9.91404 15.7241 10.7437 15.7241H11.6203L11.714 15.6022C11.8453 15.4382 11.8406 15.2507 11.7047 15.1241C11.6015 15.0257 11.5547 15.021 10.7203 15.021C9.88123 15.021 9.84373 15.0257 9.74998 15.1241Z" fill="white"/>
</svg>
