<svg width="24" height="25" viewBox="0 0 24 25" fill="none" xmlns="http://www.w3.org/2000/svg">
<path d="M8.72033 1.90762C7.25364 2.81018 6.0163 3.60465 5.97363 3.67492C5.90429 3.7722 5.88829 4.25861 5.86696 6.90144L5.84029 10.0091L3.3656 11.5332C1.64291 12.5924 0.869566 13.1005 0.816232 13.1978C0.757565 13.3113 0.746898 13.949 0.757565 16.6891L0.773565 20.0399L0.9069 20.1696C0.981568 20.2399 2.21358 21.0182 3.64293 21.8991C6.40563 23.5961 6.4163 23.6015 6.76831 23.4232C6.84831 23.38 7.96832 22.699 9.24834 21.9045C10.5337 21.1154 11.595 20.4777 11.6164 20.4885C11.6377 20.4993 12.747 21.1803 14.0857 22.0018C16.1764 23.2881 16.5498 23.4989 16.7311 23.4989C16.9071 23.4989 17.3018 23.2773 19.5738 21.8775C21.0245 20.9857 22.2565 20.1967 22.3152 20.1264C22.4058 20.0021 22.4112 19.8238 22.4218 16.6513C22.4272 13.5923 22.4218 13.295 22.3365 13.1653C22.2832 13.0843 21.2752 12.4303 19.7658 11.5007L17.2804 9.97123V6.87442V3.7722L17.1364 3.61546C17.0191 3.49116 12.427 0.62674 11.8564 0.324085C11.563 0.161947 11.483 0.205183 8.72033 1.90762ZM13.6591 2.76154C14.7364 3.4209 15.6004 3.97757 15.5844 3.99919C15.5097 4.07485 11.6537 6.43665 11.595 6.43665C11.5364 6.43665 7.64298 4.05864 7.60565 3.99378C7.56832 3.93433 11.5417 1.50768 11.627 1.53471C11.6697 1.55092 12.587 2.10219 13.6591 2.76154ZM9.06167 6.2583L11.0404 7.47432V9.94421C11.0404 11.3062 11.0244 12.4195 11.0084 12.4195C10.9924 12.4195 10.0803 11.8682 8.98167 11.1873L6.98697 9.96042V7.48513C6.98697 6.01509 7.00831 5.01525 7.03498 5.02606C7.06164 5.03146 7.97365 5.58813 9.06167 6.2583ZM16.1231 9.99285C16.0698 10.0415 12.2137 12.4195 12.1817 12.4195C12.171 12.4195 12.1604 11.3062 12.1604 9.94421V7.46351L14.1497 6.24208L16.1338 5.02065L16.1498 7.49054C16.1551 8.84168 16.1444 9.97123 16.1231 9.99285ZM18.7258 12.2033C19.7925 12.8627 20.6885 13.4193 20.7098 13.441C20.7418 13.4734 17.0084 15.8244 16.7738 15.9108C16.7044 15.9379 12.6777 13.5004 12.7204 13.4518C12.795 13.3815 16.7258 10.9819 16.7524 10.9927C16.7684 11.0035 17.6591 11.5494 18.7258 12.2033ZM8.50699 12.2411C10.0643 13.2032 10.4857 13.4842 10.4164 13.522C10.3683 13.5491 9.46167 14.1003 8.40566 14.7543C7.34965 15.4028 6.45897 15.9271 6.42697 15.9217C6.39497 15.9108 5.47762 15.3596 4.38961 14.6894L2.41092 13.4734L2.55492 13.3815C3.33893 12.8735 6.38963 11.0197 6.44297 11.0143C6.4803 11.0143 7.40831 11.5656 8.50699 12.2411ZM4.78428 16.273L5.86163 16.9323L5.86696 19.4022C5.86696 20.7641 5.85096 21.8775 5.83496 21.8775C5.81363 21.8775 4.91762 21.337 3.83494 20.6723L1.87225 19.4725L1.86691 16.9755V14.4786L2.78959 15.0461C3.29093 15.3596 4.19227 15.9108 4.78428 16.273ZM11.0404 16.9701L11.035 19.4725L9.26967 20.5534C8.29899 21.1479 7.38698 21.7045 7.24831 21.7856L6.98697 21.9423V19.4562V16.9701L9.003 15.7271C10.107 15.0407 11.019 14.4786 11.0297 14.4786C11.035 14.4732 11.0404 15.5974 11.0404 16.9701ZM21.2698 19.4779C21.2325 19.5103 20.3738 20.0453 19.3605 20.6615C18.3471 21.283 17.4671 21.8234 17.3978 21.8667L17.2804 21.9423L17.2911 19.4454L17.3071 16.9485L19.3071 15.7163L21.3072 14.484L21.3232 16.9485C21.3338 18.878 21.3178 19.4292 21.2698 19.4779ZM14.1871 15.7325L16.1338 16.9377L16.1498 19.4346L16.1604 21.9315L14.6564 21.0019C13.8244 20.4939 12.923 19.9427 12.6564 19.7751L12.1604 19.4725V17.0026C12.1604 15.6406 12.1764 14.5273 12.203 14.5273C12.2244 14.5327 13.1151 15.0731 14.1871 15.7325Z" fill="white"/>
<path d="M1.68011 0.491588C1.16277 0.669938 0.768103 1.03204 0.618767 1.48603C0.490766 1.86975 0.506766 2.44264 0.661435 2.77231C0.82677 3.13442 1.26411 3.52895 1.61611 3.63704C2.20812 3.81539 2.76813 3.69649 3.20547 3.30196C3.5788 2.95607 3.73347 2.61558 3.73347 2.11836C3.73347 1.63736 3.62147 1.30227 3.3548 0.994212C2.9548 0.534824 2.21345 0.313237 1.68011 0.491588ZM2.49612 1.75085C2.75213 2.0481 2.52812 2.58315 2.14412 2.58315C1.89345 2.58315 1.65345 2.35076 1.65345 2.10215C1.65345 1.61574 2.18145 1.38875 2.49612 1.75085Z" fill="white"/>
<path d="M18.923 2.12921C18.731 2.2319 18.667 2.36161 18.667 2.63724C18.667 2.81559 18.699 2.89666 18.8217 3.02096C19.1683 3.36686 19.7337 3.12905 19.7337 2.63724C19.7337 2.3562 19.6643 2.22649 19.467 2.12381C19.275 2.02112 19.1097 2.02112 18.923 2.12921Z" fill="white"/>
<path d="M21.6483 4.27481C21.0723 4.44235 20.5709 4.89634 20.3683 5.4422C20.2083 5.87456 20.2403 6.59877 20.4376 6.9879C20.6189 7.3446 20.9709 7.68509 21.3336 7.86885C21.5896 7.99856 21.6909 8.01477 22.1336 8.01477C22.5763 8.01477 22.6776 7.99856 22.9336 7.86885C23.2963 7.68509 23.6483 7.3446 23.8296 6.9879C24.027 6.59877 24.059 5.87456 23.8936 5.43679C23.5736 4.56666 22.5229 4.0262 21.6483 4.27481ZM22.5389 5.47462C22.891 5.70702 22.9976 6.2745 22.7416 6.58256C22.3896 6.99871 21.9203 7.01493 21.5523 6.61499C21.3603 6.40421 21.3336 5.97184 21.5043 5.71783C21.7443 5.35572 22.1976 5.24763 22.5389 5.47462Z" fill="white"/>
<path d="M1.85598 5.37189C1.66398 5.47457 1.59998 5.60428 1.59998 5.87991C1.59998 6.05827 1.63198 6.13933 1.75464 6.26364C2.10132 6.60953 2.66666 6.37173 2.66666 5.87991C2.66666 5.59888 2.59732 5.46917 2.39999 5.36648C2.20798 5.26379 2.04265 5.26379 1.85598 5.37189Z" fill="white"/>
<path d="M22.1229 21.5855C21.9309 21.6882 21.8669 21.8179 21.8669 22.0935C21.8669 22.5854 22.4323 22.8232 22.779 22.4773C22.9016 22.353 22.9336 22.2719 22.9336 22.0935C22.9336 21.8125 22.8643 21.6828 22.667 21.5801C22.475 21.4774 22.3096 21.4774 22.1229 21.5855Z" fill="white"/>
<path d="M2.92275 22.6666C2.73075 22.7693 2.66675 22.899 2.66675 23.1746C2.66675 23.3529 2.69875 23.434 2.82142 23.5583C3.16809 23.9042 3.73343 23.6664 3.73343 23.1746C3.73343 22.8936 3.66409 22.7638 3.46676 22.6612C3.27476 22.5585 3.10942 22.5585 2.92275 22.6666Z" fill="white"/>
<path d="M11.9895 22.6666C11.7975 22.7693 11.7335 22.899 11.7335 23.1746C11.7335 23.3529 11.7655 23.434 11.8882 23.5583C12.2349 23.9042 12.8002 23.6664 12.8002 23.1746C12.8002 22.8936 12.7309 22.7638 12.5335 22.6612C12.3415 22.5585 12.1762 22.5585 11.9895 22.6666Z" fill="white"/>
<path d="M0.256003 23.207C0.0640008 23.3097 0 23.4394 0 23.715C0 24.2068 0.56534 24.4446 0.912011 24.0987C1.03468 23.9744 1.06668 23.8933 1.06668 23.715C1.06668 23.434 0.997346 23.3043 0.80001 23.2016C0.608007 23.0989 0.442672 23.0989 0.256003 23.207Z" fill="white"/>
</svg>
