<svg width="24" height="24" viewBox="0 0 24 24" fill="none" xmlns="http://www.w3.org/2000/svg">
<path d="M18.6877 0.730957C17.6471 1.00283 16.7424 1.72939 16.2736 2.67627C15.9783 3.26689 15.8752 3.71221 15.8752 4.38721C15.8752 5.20283 16.0861 5.90596 16.5221 6.54346L16.6674 6.75439L15.2283 8.19346L13.7893 9.63721H11.9283C10.1236 9.63721 10.058 9.64189 9.96895 9.73096C9.84238 9.85752 9.84238 10.1669 9.96895 10.2935C10.058 10.3825 10.1236 10.3872 11.8439 10.3872H13.6252V10.856C13.6252 11.4091 13.6814 11.5122 14.0002 11.5122C14.3283 11.5122 14.3752 11.4185 14.3752 10.7716V10.2231L15.8189 8.78408L17.258 7.34502L17.4689 7.49033C18.1064 7.92627 18.8096 8.13721 19.6252 8.13721C20.3096 8.13721 20.7502 8.03408 21.3596 7.72939C21.7393 7.54189 21.8705 7.43877 22.2736 7.03564C22.6768 6.63252 22.7799 6.50127 22.9674 6.12158C23.2721 5.51221 23.3752 5.07158 23.3752 4.38721C23.3752 3.70752 23.2721 3.27158 22.9721 2.65283C22.7799 2.26846 22.6861 2.14189 22.2783 1.73408C21.8705 1.32627 21.7439 1.23252 21.3596 1.04033C20.7314 0.735644 20.3049 0.637207 19.6064 0.641894C19.2033 0.641894 18.9361 0.670019 18.6877 0.730957ZM20.3471 1.50908C21.2424 1.72471 22.0486 2.44658 22.4002 3.33252C22.5268 3.65596 22.5502 3.78252 22.5689 4.24658C22.5924 4.86064 22.5268 5.20283 22.2877 5.68564C21.8564 6.57158 20.933 7.22783 19.9768 7.33096C18.6033 7.47627 17.3658 6.72627 16.8408 5.42783C16.7002 5.08096 16.6955 5.03877 16.6955 4.38721C16.6955 3.73564 16.7002 3.69346 16.8408 3.34658C17.4221 1.91689 18.8799 1.15283 20.3471 1.50908Z" fill="white"/>
<path d="M19.1328 2.22627C18.9031 2.33408 18.6688 2.57314 18.575 2.80283C18.4625 3.07002 18.4766 3.52939 18.6078 3.78721L18.7156 3.99814L18.5141 4.04971C18.2656 4.12002 17.9516 4.39658 17.8391 4.64502C17.7688 4.79502 17.75 4.95439 17.75 5.45127C17.75 6.01377 17.7594 6.08408 17.8438 6.16846C17.9328 6.25752 17.9984 6.26221 19.625 6.26221C21.2516 6.26221 21.3172 6.25752 21.4063 6.16846C21.4906 6.08408 21.5 6.01377 21.5 5.45127C21.5 4.95439 21.4813 4.79502 21.4109 4.64502C21.2984 4.39658 20.9844 4.12002 20.7359 4.04971L20.5344 3.99814L20.6422 3.78721C20.7781 3.51533 20.7875 3.04658 20.6609 2.77002C20.5531 2.54033 20.3141 2.30596 20.0844 2.21221C19.8406 2.10908 19.3672 2.11846 19.1328 2.22627ZM19.8594 3.02783C19.9109 3.07939 19.9531 3.18252 19.9531 3.26221C19.9531 3.34189 19.9109 3.44502 19.8594 3.49658C19.8078 3.54814 19.7047 3.59033 19.625 3.59033C19.5453 3.59033 19.4422 3.54814 19.3906 3.49658C19.3391 3.44502 19.2969 3.34189 19.2969 3.26221C19.2969 3.18252 19.3391 3.07939 19.3906 3.02783C19.4422 2.97627 19.5453 2.93408 19.625 2.93408C19.7047 2.93408 19.8078 2.97627 19.8594 3.02783ZM20.4688 4.81377C20.6422 4.87471 20.75 5.08096 20.75 5.34814V5.51221H19.625H18.5V5.35283C18.5 5.09033 18.5938 4.89814 18.7531 4.82783C18.9359 4.74814 20.2438 4.73877 20.4688 4.81377Z" fill="white"/>
<path d="M0.21875 2.60596C0.125 2.69971 0.125 2.76064 0.125 12.0747C0.125 21.3888 0.125 21.4497 0.21875 21.5435C0.3125 21.6372 0.373438 21.6372 7.25 21.6372C14.1266 21.6372 14.1875 21.6372 14.2813 21.5435C14.375 21.4497 14.375 21.3888 14.375 18.8247C14.375 16.2606 14.375 16.1997 14.2813 16.106C14.1547 15.9794 13.8453 15.9794 13.7188 16.106C13.6297 16.195 13.625 16.2606 13.625 18.5435V20.8872H7.25H0.875V12.0747V3.26221H5.375H9.875V5.04346C9.875 6.76377 9.87969 6.82939 9.96875 6.91846C10.0578 7.00752 10.1234 7.01221 11.8438 7.01221H13.625V7.85596C13.625 8.63877 13.6297 8.70439 13.7188 8.79346C13.8453 8.92002 14.1547 8.92002 14.2813 8.79346C14.3703 8.70439 14.375 8.63877 14.375 7.56533V6.42627L12.4156 4.47158L10.4609 2.51221H5.38438C0.373438 2.51221 0.3125 2.51221 0.21875 2.60596ZM11.8438 5.06689L13.0391 6.26221H11.8297H10.625V5.06689C10.625 4.41064 10.6297 3.87158 10.6391 3.87158C10.6438 3.87158 11.1875 4.41064 11.8438 5.06689Z" fill="white"/>
<path d="M1.71875 4.85596C1.62969 4.94502 1.625 5.01064 1.625 6.26221C1.625 7.51377 1.62969 7.57939 1.71875 7.66846C1.8125 7.76221 1.87344 7.76221 5.375 7.76221C8.87656 7.76221 8.9375 7.76221 9.03125 7.66846C9.12031 7.57939 9.125 7.51377 9.125 6.26221C9.125 5.01064 9.12031 4.94502 9.03125 4.85596C8.9375 4.76221 8.87656 4.76221 5.375 4.76221C1.87344 4.76221 1.8125 4.76221 1.71875 4.85596ZM8.375 6.26221V7.01221H5.375H2.375V6.26221V5.51221H5.375H8.375V6.26221Z" fill="white"/>
<path d="M18.6877 8.60596C17.6846 8.86846 16.7658 9.58564 16.3018 10.481C16.1049 10.856 15.9502 11.3153 15.8986 11.6669L15.8658 11.8872H12.9643C10.1236 11.8872 10.0627 11.8872 9.96895 11.981C9.84238 12.1075 9.84238 12.4169 9.96895 12.5435C10.058 12.6325 10.1236 12.6372 11.8439 12.6372H13.6252V13.106C13.6252 13.6591 13.6814 13.7622 14.0002 13.7622C14.3189 13.7622 14.3752 13.6591 14.3752 13.106V12.6372H15.1205H15.8658L15.8986 12.8575C16.0158 13.6356 16.3768 14.3247 16.9955 14.9341C17.3752 15.3091 17.5158 15.4169 17.8908 15.6044C18.5002 15.9091 18.9408 16.0122 19.6252 16.0122C20.3096 16.0122 20.7502 15.9091 21.3596 15.6044C21.7393 15.4169 21.8705 15.3138 22.2736 14.9106C22.6768 14.5075 22.7799 14.3763 22.9674 13.9966C23.2721 13.3872 23.3752 12.9466 23.3752 12.2622C23.3752 11.5825 23.2721 11.1466 22.9721 10.5278C22.7799 10.1435 22.6861 10.0169 22.2783 9.60908C21.8705 9.20127 21.7439 9.10752 21.3596 8.91533C20.7314 8.61064 20.3049 8.51221 19.6064 8.51689C19.2033 8.51689 18.9361 8.54502 18.6877 8.60596ZM20.3471 9.38408C21.2424 9.59971 22.0486 10.3216 22.4002 11.2075C22.5268 11.531 22.5502 11.6575 22.5689 12.1216C22.5924 12.7356 22.5268 13.0778 22.2877 13.5606C21.8564 14.4466 20.933 15.1028 19.9768 15.206C18.6033 15.3513 17.3658 14.6013 16.8408 13.3028C16.7002 12.956 16.6955 12.9138 16.6955 12.2622C16.6955 11.6106 16.7002 11.5685 16.8408 11.2216C17.4221 9.79189 18.8799 9.02783 20.3471 9.38408Z" fill="white"/>
<path d="M19.1328 10.1013C18.9031 10.2091 18.6688 10.4481 18.575 10.6778C18.4625 10.945 18.4766 11.4044 18.6078 11.6622L18.7156 11.8731L18.5141 11.9247C18.2656 11.995 17.9516 12.2716 17.8391 12.52C17.7688 12.67 17.75 12.8294 17.75 13.3263C17.75 13.8888 17.7594 13.9591 17.8438 14.0435C17.9328 14.1325 17.9984 14.1372 19.625 14.1372C21.2516 14.1372 21.3172 14.1325 21.4063 14.0435C21.4906 13.9591 21.5 13.8888 21.5 13.3263C21.5 12.8294 21.4813 12.67 21.4109 12.52C21.2984 12.2716 20.9844 11.995 20.7359 11.9247L20.5344 11.8731L20.6422 11.6622C20.7781 11.3903 20.7875 10.9216 20.6609 10.645C20.5531 10.4153 20.3141 10.181 20.0844 10.0872C19.8406 9.98408 19.3672 9.99346 19.1328 10.1013ZM19.8594 10.9028C19.9109 10.9544 19.9531 11.0575 19.9531 11.1372C19.9531 11.2169 19.9109 11.32 19.8594 11.3716C19.8078 11.4231 19.7047 11.4653 19.625 11.4653C19.5453 11.4653 19.4422 11.4231 19.3906 11.3716C19.3391 11.32 19.2969 11.2169 19.2969 11.1372C19.2969 11.0575 19.3391 10.9544 19.3906 10.9028C19.4422 10.8513 19.5453 10.8091 19.625 10.8091C19.7047 10.8091 19.8078 10.8513 19.8594 10.9028ZM20.4688 12.6888C20.6422 12.7497 20.75 12.956 20.75 13.2231V13.3872H19.625H18.5V13.2278C18.5 12.9653 18.5938 12.7731 18.7531 12.7028C18.9359 12.6231 20.2438 12.6138 20.4688 12.6888Z" fill="white"/>
<path d="M1.71875 8.98096C1.65781 9.04189 1.625 9.13564 1.625 9.26221C1.625 9.38877 1.65781 9.48252 1.71875 9.54346C1.8125 9.63721 1.87344 9.63721 4.625 9.63721C7.37656 9.63721 7.4375 9.63721 7.53125 9.54346C7.65781 9.41689 7.65781 9.10752 7.53125 8.98096C7.4375 8.88721 7.37656 8.88721 4.625 8.88721C1.87344 8.88721 1.8125 8.88721 1.71875 8.98096Z" fill="white"/>
<path d="M1.71875 10.856C1.65781 10.9169 1.625 11.0106 1.625 11.1372C1.625 11.3856 1.75156 11.5122 2 11.5122C2.24844 11.5122 2.375 11.3856 2.375 11.1372C2.375 10.8888 2.24844 10.7622 2 10.7622C1.87344 10.7622 1.77969 10.795 1.71875 10.856Z" fill="white"/>
<path d="M2.84375 10.856C2.78281 10.9169 2.75 11.0106 2.75 11.1372C2.75 11.2638 2.78281 11.3575 2.84375 11.4185C2.93281 11.5075 2.99844 11.5122 4.25 11.5122C5.50156 11.5122 5.56719 11.5075 5.65625 11.4185C5.78281 11.2919 5.78281 10.9825 5.65625 10.856C5.56719 10.7669 5.50156 10.7622 4.25 10.7622C2.99844 10.7622 2.93281 10.7669 2.84375 10.856Z" fill="white"/>
<path d="M1.71875 12.356C1.65781 12.4169 1.625 12.5106 1.625 12.6372C1.625 12.8856 1.75156 13.0122 2 13.0122C2.24844 13.0122 2.375 12.8856 2.375 12.6372C2.375 12.3888 2.24844 12.2622 2 12.2622C1.87344 12.2622 1.77969 12.295 1.71875 12.356Z" fill="white"/>
<path d="M2.84375 12.356C2.78281 12.4169 2.75 12.5106 2.75 12.6372C2.75 12.7638 2.78281 12.8575 2.84375 12.9185C2.93281 13.0075 2.99844 13.0122 4.8125 13.0122C6.62656 13.0122 6.69219 13.0075 6.78125 12.9185C6.84219 12.8575 6.875 12.7638 6.875 12.6372C6.875 12.5106 6.84219 12.4169 6.78125 12.356C6.69219 12.2669 6.62656 12.2622 4.8125 12.2622C2.99844 12.2622 2.93281 12.2669 2.84375 12.356Z" fill="white"/>
<path d="M1.71875 14.231C1.65781 14.2919 1.625 14.3856 1.625 14.5122C1.625 14.6388 1.65781 14.7325 1.71875 14.7935C1.8125 14.8872 1.87344 14.8872 4.625 14.8872C7.37656 14.8872 7.4375 14.8872 7.53125 14.7935C7.65781 14.6669 7.65781 14.3575 7.53125 14.231C7.4375 14.1372 7.37656 14.1372 4.625 14.1372C1.87344 14.1372 1.8125 14.1372 1.71875 14.231Z" fill="white"/>
<path d="M9.96875 14.231C9.90781 14.2919 9.875 14.3856 9.875 14.5122C9.875 14.6388 9.90781 14.7325 9.96875 14.7935C10.0578 14.8825 10.1234 14.8872 11.9281 14.8872H13.7891L15.2328 16.331L16.6719 17.77L16.5172 17.9903C16.1 18.5763 15.875 19.3216 15.875 20.1372C15.875 20.8216 15.9781 21.2622 16.2828 21.8716C16.4703 22.2513 16.5734 22.3825 16.9766 22.7856C17.3797 23.1888 17.5109 23.2919 17.8906 23.4794C18.5 23.7841 18.9406 23.8872 19.625 23.8872C20.3094 23.8872 20.75 23.7841 21.3594 23.4794C21.7391 23.2919 21.8703 23.1888 22.2734 22.7856C22.6766 22.3825 22.7797 22.2513 22.9672 21.8716C23.2719 21.2622 23.375 20.8216 23.375 20.1372C23.375 19.4575 23.2719 19.0216 22.9719 18.4028C22.7797 18.0185 22.6859 17.8919 22.2781 17.4841C21.8703 17.0763 21.7438 16.9825 21.3594 16.7903C20.7406 16.4903 20.3047 16.3872 19.625 16.3872C18.8094 16.3872 18.0641 16.6122 17.4781 17.0294L17.2578 17.1841L15.7344 15.6606L14.2063 14.1372H12.1344C10.1234 14.1372 10.0578 14.1419 9.96875 14.231ZM20.3469 17.2591C21.2422 17.4747 22.0484 18.1966 22.4 19.0825C22.5266 19.406 22.55 19.5325 22.5688 19.9966C22.5922 20.6106 22.5266 20.9528 22.2875 21.4356C21.8563 22.3216 20.9328 22.9778 19.9766 23.081C18.6031 23.2263 17.3656 22.4763 16.8406 21.1778C16.7 20.831 16.6953 20.7888 16.6953 20.1372C16.6953 19.4856 16.7 19.4435 16.8406 19.0966C17.4219 17.6669 18.8797 16.9028 20.3469 17.2591Z" fill="white"/>
<path d="M19.1328 17.9763C18.9031 18.0841 18.6688 18.3231 18.575 18.5528C18.4625 18.82 18.4766 19.2794 18.6078 19.5372L18.7156 19.7481L18.5141 19.7997C18.2656 19.87 17.9516 20.1466 17.8391 20.395C17.7688 20.545 17.75 20.7044 17.75 21.2013C17.75 21.7638 17.7594 21.8341 17.8438 21.9185C17.9328 22.0075 17.9984 22.0122 19.625 22.0122C21.2516 22.0122 21.3172 22.0075 21.4063 21.9185C21.4906 21.8341 21.5 21.7638 21.5 21.2013C21.5 20.7044 21.4813 20.545 21.4109 20.395C21.2984 20.1466 20.9844 19.87 20.7359 19.7997L20.5344 19.7481L20.6422 19.5372C20.7781 19.2653 20.7875 18.7966 20.6609 18.52C20.5531 18.2903 20.3141 18.056 20.0844 17.9622C19.8406 17.8591 19.3672 17.8685 19.1328 17.9763ZM19.8594 18.7778C19.9109 18.8294 19.9531 18.9325 19.9531 19.0122C19.9531 19.0919 19.9109 19.195 19.8594 19.2466C19.6578 19.4481 19.2969 19.2981 19.2969 19.0122C19.2969 18.8341 19.4469 18.6841 19.625 18.6841C19.7047 18.6841 19.8078 18.7263 19.8594 18.7778ZM20.4688 20.5638C20.6422 20.6247 20.75 20.831 20.75 21.0981V21.2622H19.625H18.5V21.1028C18.5 20.8403 18.5938 20.6481 18.7531 20.5778C18.9359 20.4981 20.2438 20.4888 20.4688 20.5638Z" fill="white"/>
<path d="M8.09375 15.731C8.00469 15.82 8 15.8856 8 17.8872C8 19.8888 8.00469 19.9544 8.09375 20.0435C8.18281 20.1325 8.24844 20.1372 10.25 20.1372C12.2516 20.1372 12.3172 20.1325 12.4062 20.0435C12.4953 19.9544 12.5 19.8888 12.5 19.0122C12.5 18.1356 12.4953 18.07 12.4062 17.981C12.3453 17.92 12.2516 17.8872 12.125 17.8872C11.9984 17.8872 11.9047 17.92 11.8438 17.981C11.7594 18.0653 11.75 18.1356 11.75 18.731V19.3872H10.25H8.75V17.8872V16.3872H9.96875C11.1266 16.3872 11.1922 16.3825 11.2813 16.2935C11.3422 16.2325 11.375 16.1388 11.375 16.0122C11.375 15.8856 11.3422 15.7919 11.2813 15.731C11.1922 15.6419 11.1266 15.6372 9.6875 15.6372C8.24844 15.6372 8.18281 15.6419 8.09375 15.731Z" fill="white"/>
<path d="M11.6469 16.6544L10.625 17.6716L10.1656 17.2169C9.72969 16.7903 9.6875 16.7622 9.50469 16.7622C9.24688 16.7622 9.125 16.8841 9.125 17.1466C9.125 17.3388 9.14375 17.3669 9.77188 17.9903C10.4094 18.6278 10.4188 18.6372 10.625 18.6372H10.8359L12.0406 17.4278C13.2406 16.2325 13.25 16.2185 13.25 16.0216C13.25 15.7591 13.1281 15.6372 12.8656 15.6372C12.6734 15.6372 12.6547 15.6513 11.6469 16.6544Z" fill="white"/>
<path d="M1.71875 16.106C1.65781 16.1669 1.625 16.2606 1.625 16.3872C1.625 16.6356 1.75156 16.7622 2 16.7622C2.24844 16.7622 2.375 16.6356 2.375 16.3872C2.375 16.1388 2.24844 16.0122 2 16.0122C1.87344 16.0122 1.77969 16.045 1.71875 16.106Z" fill="white"/>
<path d="M2.84375 16.106C2.78281 16.1669 2.75 16.2606 2.75 16.3872C2.75 16.5138 2.78281 16.6075 2.84375 16.6685C2.93281 16.7575 2.99844 16.7622 4.25 16.7622C5.50156 16.7622 5.56719 16.7575 5.65625 16.6685C5.78281 16.5419 5.78281 16.2325 5.65625 16.106C5.56719 16.0169 5.50156 16.0122 4.25 16.0122C2.99844 16.0122 2.93281 16.0169 2.84375 16.106Z" fill="white"/>
<path d="M1.71875 17.606C1.65781 17.6669 1.625 17.7606 1.625 17.8872C1.625 18.1356 1.75156 18.2622 2 18.2622C2.24844 18.2622 2.375 18.1356 2.375 17.8872C2.375 17.6388 2.24844 17.5122 2 17.5122C1.87344 17.5122 1.77969 17.545 1.71875 17.606Z" fill="white"/>
<path d="M2.84375 17.606C2.78281 17.6669 2.75 17.7606 2.75 17.8872C2.75 18.0138 2.78281 18.1075 2.84375 18.1685C2.93281 18.2575 2.99844 18.2622 4.8125 18.2622C6.62656 18.2622 6.69219 18.2575 6.78125 18.1685C6.84219 18.1075 6.875 18.0138 6.875 17.8872C6.875 17.7606 6.84219 17.6669 6.78125 17.606C6.69219 17.5169 6.62656 17.5122 4.8125 17.5122C2.99844 17.5122 2.93281 17.5169 2.84375 17.606Z" fill="white"/>
</svg>
