<svg width="24" height="25" viewBox="0 0 24 25" fill="none" xmlns="http://www.w3.org/2000/svg">
<path d="M0.632812 0.352149C0.529688 0.399024 0.379688 0.511524 0.295313 0.595899C0 0.909961 0 0.900586 0 3.08965V5.07246L0.154688 5.32559C0.253125 5.49902 0.379688 5.62559 0.534375 5.72402L0.764063 5.86465L2.71406 5.87871C4.44375 5.89277 4.6875 5.8834 4.86563 5.81309C5.15156 5.70527 5.38594 5.48496 5.5125 5.2084C5.61563 4.99277 5.625 4.91309 5.625 4.20996V3.45059H6.09375C6.53438 3.45059 6.57656 3.44121 6.67969 3.3334C6.79688 3.2209 6.82969 3.02871 6.76875 2.86465C6.7125 2.71934 6.49219 2.65371 6.05156 2.65371H5.63438L5.61563 1.84277C5.60156 1.03184 5.60156 1.02715 5.46094 0.797461C5.3625 0.642774 5.23594 0.516211 5.0625 0.413086L4.80938 0.263086H2.8125C0.970313 0.263086 0.80625 0.272461 0.632812 0.352149ZM4.71563 1.16777L4.82812 1.29902V3.08027V4.86152L4.71094 4.97402L4.59844 5.09121H2.81719H1.03594L0.904688 4.97871L0.773438 4.86621L0.759375 3.1834C0.75 2.03496 0.759375 1.44902 0.796875 1.32715C0.885938 1.01777 0.914063 1.01309 2.87344 1.02715L4.60313 1.03652L4.71563 1.16777Z" fill="white"/>
<path d="M3.47803 1.93658C3.42647 1.98345 3.21553 2.31158 3.00459 2.66314C2.79365 3.01939 2.61084 3.31002 2.59678 3.31002C2.5874 3.31002 2.44209 3.22564 2.27803 3.12252C2.11397 3.01939 1.93584 2.93502 1.88428 2.93502C1.55147 2.93502 1.34522 3.2772 1.52803 3.53502C1.61709 3.66158 2.48428 4.23345 2.64834 4.27564C2.90615 4.34127 2.9999 4.23814 3.57647 3.29127C4.17647 2.3022 4.22334 2.1522 4.01709 1.96002C3.88115 1.83345 3.60928 1.82408 3.47803 1.93658Z" fill="white"/>
<path d="M7.91716 2.78958C7.74373 2.9677 7.73435 3.17395 7.89841 3.33333L8.01091 3.45051H13.889C20.5125 3.45051 20.0906 3.42708 20.4609 3.80208C20.6906 4.02708 20.8125 4.35051 20.8125 4.72551V4.95051H20.025C19.2703 4.95051 19.2281 4.9552 18.9937 5.07239C18.8578 5.13801 18.6937 5.26458 18.6328 5.34426C18.4125 5.63489 18.375 5.83645 18.375 6.73645V7.57551H16.7015C15.4547 7.57551 14.9953 7.58958 14.9062 7.63645C14.6531 7.76301 14.6109 8.07708 14.8125 8.27864C14.9015 8.3677 14.9765 8.37239 16.6406 8.37239H18.375V8.98645C18.375 9.72239 18.4219 9.9052 18.689 10.2005C19.0312 10.5802 19.0359 10.5802 21.2906 10.5661L23.2359 10.5521L23.4609 10.4115C23.5875 10.3318 23.7562 10.1771 23.8359 10.0646L23.9765 9.86301V7.76301V5.66301L23.8359 5.46145C23.7562 5.34895 23.6015 5.19426 23.489 5.11458L23.2875 4.97395L22.4484 4.95989L21.6094 4.94583V4.72083C21.6094 3.69895 20.9765 2.87395 20.0578 2.70051C19.9078 2.67239 17.6203 2.65364 13.9359 2.65364H8.0531L7.91716 2.78958ZM23.1047 5.83645C23.1562 5.88801 23.2125 6.00051 23.2265 6.08489C23.2406 6.16926 23.25 6.9802 23.2406 7.88958L23.2265 9.53489L23.114 9.65676L23.0015 9.77864H21.2015H19.4015L19.289 9.66145L19.1719 9.54895V7.77239C19.1719 6.0427 19.1765 5.99114 19.2703 5.86927L19.364 5.74739H21.1922C22.9359 5.74739 23.0203 5.75208 23.1047 5.83645Z" fill="white"/>
<path d="M21.8578 6.64741C21.8063 6.70835 21.5953 7.03647 21.3938 7.37397C21.1922 7.71616 21.0094 7.99741 20.9906 7.99741C20.9719 7.99741 20.8219 7.91303 20.6625 7.80522C20.4188 7.64585 20.3391 7.61772 20.2031 7.64116C20.0016 7.67397 19.875 7.81928 19.875 8.02085C19.875 8.23178 19.9641 8.32085 20.5266 8.6771C21.0609 9.00991 21.2063 9.04272 21.3891 8.87397C21.5297 8.74741 22.4813 7.1771 22.5234 7.00835C22.5609 6.86303 22.4531 6.61928 22.3359 6.57241C22.1672 6.51147 21.9516 6.54428 21.8578 6.64741Z" fill="white"/>
<path d="M11.0296 7.30403C10.9593 7.38371 10.9031 7.56652 10.8328 7.9509C10.7765 8.24621 10.7343 8.50402 10.7343 8.52277C10.7343 8.54152 10.7109 8.56028 10.6828 8.56028C10.5703 8.56028 9.94684 8.8884 9.67027 9.08996L9.38902 9.29621L8.90621 9.11809C8.40934 8.93059 8.18434 8.89777 8.05777 8.99621C8.02027 9.02903 7.81402 9.35246 7.60309 9.7134C7.13902 10.515 7.12496 10.6087 7.42027 10.8853C7.52809 10.9884 7.73434 11.1712 7.87496 11.2931L8.13746 11.5087L8.09527 11.8837C8.06715 12.1228 8.06715 12.404 8.09527 12.6431L8.13746 13.0181L7.87496 13.2337C7.73434 13.3556 7.52809 13.5384 7.42027 13.6415C7.12496 13.9181 7.13902 14.0165 7.57496 14.7665C7.99215 15.4837 8.07652 15.5915 8.25465 15.5915C8.32965 15.5915 8.61559 15.5118 8.89684 15.4087L9.40309 15.2306L9.53902 15.3431C9.74527 15.5072 10.2562 15.8072 10.5 15.9009C10.6171 15.9431 10.7156 15.9853 10.7203 15.9853C10.725 15.99 10.7718 16.2431 10.8281 16.5525C10.9734 17.3634 10.9171 17.3259 12 17.3259C13.0828 17.3259 13.0312 17.3634 13.1671 16.5572C13.2187 16.2525 13.2703 15.9947 13.275 15.99C13.2843 15.9853 13.4062 15.9384 13.5468 15.8775C13.7906 15.7837 14.2171 15.5259 14.4843 15.3197L14.6015 15.2259L15.089 15.4087C15.6515 15.6197 15.8343 15.6384 15.9703 15.4884C16.0265 15.4275 16.2281 15.104 16.425 14.7665C16.9125 13.9228 16.9125 13.9275 16.3218 13.4118L15.8625 13.0134L15.9093 12.6384C15.9328 12.404 15.9328 12.1181 15.9046 11.8837L15.8625 11.5087L16.3125 11.1196C16.9078 10.6087 16.9078 10.5946 16.4437 9.7884C16.0078 9.03371 15.9281 8.93528 15.7265 8.93528C15.6421 8.93528 15.3562 9.01496 15.0937 9.11809L14.6109 9.29621L14.3296 9.08996C14.0578 8.89309 13.4296 8.56028 13.3218 8.56028C13.2703 8.56028 13.2609 8.53215 13.1437 7.85715C13.0265 7.18215 13.064 7.2009 12 7.2009C11.1515 7.2009 11.1234 7.20559 11.0296 7.30403ZM12.45 8.49934C12.5203 8.9259 12.5531 9.02434 12.6609 9.13215C12.7312 9.20715 12.825 9.2634 12.8718 9.2634C13.0265 9.2634 13.7109 9.63371 14.0343 9.89152C14.25 10.065 14.4046 10.154 14.4843 10.154C14.5546 10.154 14.8171 10.079 15.0656 9.98527C15.3187 9.89152 15.525 9.8259 15.5343 9.83527C15.539 9.83996 15.6187 9.98059 15.7125 10.1353L15.8812 10.4259L15.4875 10.7634C15.2671 10.9462 15.0703 11.1431 15.0468 11.204C15.0234 11.2743 15.0328 11.4712 15.0796 11.7525C15.1453 12.1368 15.15 12.2493 15.0937 12.6384C14.9906 13.3931 14.9625 13.3275 15.6328 13.89L15.8672 14.0868L15.7031 14.3915C15.614 14.5603 15.5296 14.7009 15.5156 14.7009C15.5015 14.7009 15.2953 14.6259 15.0515 14.5368C14.8125 14.4478 14.5546 14.3728 14.4843 14.3728C14.4046 14.3728 14.25 14.4618 14.0343 14.6353C13.7109 14.8931 13.0265 15.2634 12.8718 15.2634C12.825 15.2634 12.7312 15.3197 12.6609 15.39C12.5531 15.5025 12.5203 15.6009 12.45 16.0228L12.3609 16.529H12H11.639L11.55 16.0228C11.4796 15.6009 11.4468 15.5025 11.339 15.39C11.2687 15.3197 11.175 15.2634 11.1281 15.2634C10.9734 15.2634 10.289 14.8931 9.96559 14.6353C9.74996 14.4618 9.59527 14.3728 9.51559 14.3728C9.44527 14.3728 9.18746 14.4478 8.9484 14.5368C8.70465 14.6259 8.4984 14.7009 8.48434 14.7009C8.47027 14.7009 8.3859 14.5603 8.29684 14.3915L8.13277 14.0868L8.36715 13.89C9.03746 13.3275 9.00934 13.3931 8.90621 12.6384C8.84996 12.2493 8.85465 12.1368 8.92027 11.7525C8.96715 11.4712 8.97652 11.2743 8.95309 11.204C8.92965 11.1431 8.73277 10.9462 8.51246 10.7587L8.11871 10.4259L8.28277 10.1353C8.37652 9.98059 8.45621 9.83996 8.46559 9.83527C8.47027 9.8259 8.68121 9.89152 8.93434 9.98527C9.18277 10.079 9.44527 10.154 9.51559 10.154C9.59527 10.154 9.74996 10.065 9.96559 9.89152C10.289 9.63371 10.9734 9.2634 11.1281 9.2634C11.175 9.2634 11.2687 9.20715 11.339 9.13215C11.4468 9.02434 11.4796 8.9259 11.55 8.49934L11.639 7.99778H12H12.3609L12.45 8.49934Z" fill="white"/>
<path d="M11.3953 10.0884C11.0203 10.1868 10.6969 10.379 10.4062 10.6696C9.975 11.1009 9.75 11.6446 9.75 12.2634C9.75 12.8821 9.975 13.4259 10.4062 13.8571C10.7016 14.1525 11.0203 14.34 11.4141 14.4431C11.9625 14.5837 12.6047 14.5087 13.0969 14.2415C13.4016 14.0775 13.8141 13.665 13.9781 13.3603C14.3391 12.69 14.3391 11.8368 13.9781 11.1665C13.8141 10.8618 13.4016 10.4493 13.0969 10.2853C12.6047 10.0228 11.9297 9.94308 11.3953 10.0884ZM12.4687 10.8853C12.8203 10.9884 13.2609 11.429 13.3734 11.79C13.5562 12.3618 13.4344 12.8446 13.0078 13.2806C12.7828 13.5056 12.6656 13.5853 12.4687 13.6415C12.1453 13.74 11.8406 13.7353 11.5266 13.6368C11.1703 13.5243 10.7391 13.0931 10.6266 12.7368C10.4437 12.165 10.5656 11.6821 10.9922 11.2556C11.4141 10.829 11.8875 10.7118 12.4687 10.8853Z" fill="white"/>
<path d="M4.64053 7.62725C3.81084 7.74912 3.06553 8.29287 2.69521 9.04756C2.40928 9.61943 2.39053 9.80693 2.39053 11.9913V13.946L1.57959 13.9601C0.768652 13.9741 0.763965 13.9741 0.534277 14.1147C0.412402 14.1944 0.243652 14.3491 0.163965 14.4616L0.0233398 14.6632L0.00927734 16.7022C-0.00478516 18.6991 -9.76564e-05 18.746 0.0983398 18.9476C0.215527 19.2007 0.501465 19.4491 0.745215 19.5194C0.86709 19.5569 1.51865 19.5757 2.84053 19.5757C4.99209 19.5757 4.96865 19.5757 5.31084 19.2241C5.57334 18.9522 5.6249 18.7366 5.6249 17.8788V17.1382H7.26553C9.22021 17.1382 9.23428 17.1335 9.23428 16.6976C9.23428 16.5991 9.19678 16.5101 9.12646 16.4444C9.01865 16.3413 8.9999 16.3413 7.32178 16.3413H5.6249V15.6335C5.6249 14.7616 5.5874 14.6116 5.27334 14.3022C4.96396 13.9882 4.81865 13.9507 3.91865 13.9507H3.18271L3.19678 11.921C3.21084 10.1538 3.2249 9.86318 3.29521 9.65225C3.45459 9.17881 3.91396 8.70068 4.40615 8.50381C4.65928 8.40068 4.72021 8.396 6.99834 8.37256C9.26709 8.34912 9.3374 8.34443 9.40303 8.25537C9.57178 8.02568 9.52022 7.7585 9.28115 7.63662C9.14522 7.56631 5.09053 7.55693 4.64053 7.62725ZM4.71084 14.8647L4.82803 14.9772V16.7632V18.5491L4.71084 18.6616L4.59834 18.7788H2.78896C1.06396 18.7788 0.97959 18.7741 0.895215 18.6897C0.843652 18.6382 0.787402 18.5257 0.77334 18.4413C0.759277 18.3569 0.749902 17.546 0.759277 16.6366L0.77334 14.9913L0.88584 14.8694L0.99834 14.7476H2.79834H4.59834L4.71084 14.8647Z" fill="white"/>
<path d="M3.48762 15.6286C3.43606 15.6755 3.22043 16.013 3.00481 16.3739L2.61106 17.0302L2.30637 16.8427C1.86106 16.5614 1.55168 16.6036 1.47668 16.9505C1.42981 17.1755 1.54699 17.3114 2.08606 17.6536C2.61106 17.9911 2.79856 18.0474 2.96731 17.9208C3.00949 17.8927 3.29074 17.4661 3.58606 16.9739C4.17668 15.9989 4.21887 15.8677 4.00793 15.6614C3.87199 15.5208 3.62356 15.5067 3.48762 15.6286Z" fill="white"/>
<path d="M14.6765 16.421C14.6202 16.4679 14.564 16.5804 14.5499 16.6741C14.5265 16.8101 14.5452 16.8663 14.639 16.9788L14.7562 17.1147L17.3765 17.1382C19.2421 17.1569 20.0296 17.1757 20.114 17.2179C20.3156 17.3069 20.5734 17.5601 20.6765 17.7616C20.7374 17.8741 20.7843 18.0851 20.7984 18.2913L20.8265 18.6382H20.0859C19.1812 18.6382 19.0359 18.6757 18.7265 18.9897C18.4077 19.3085 18.3749 19.4351 18.3749 20.4382V21.2632H17.9062C17.4656 21.2632 17.4234 21.2726 17.3202 21.3804C17.1702 21.5257 17.1702 21.7319 17.3156 21.9054C17.4234 22.0319 17.4515 22.0366 17.8968 22.0507L18.3656 22.0694L18.3843 22.7819C18.3984 23.4851 18.4031 23.5038 18.539 23.7288C18.6374 23.8835 18.764 24.0101 18.9374 24.1085L19.1906 24.2632H21.1874C23.4093 24.2632 23.3859 24.2632 23.7046 23.9304C23.9999 23.6163 23.9999 23.6257 23.9999 21.4366V19.4538L23.8499 19.2007C23.7468 19.0272 23.6202 18.9007 23.4656 18.8022C23.2359 18.6616 23.2312 18.6616 22.4202 18.6476L21.6093 18.6288V18.3851C21.6093 17.5319 21.2015 16.8476 20.489 16.5101L20.1796 16.3647L17.4796 16.3507C14.9484 16.3413 14.7749 16.3413 14.6765 16.421ZM23.0952 19.5476L23.2265 19.6601L23.2406 21.371C23.2546 23.3304 23.2499 23.3726 22.9359 23.4663C22.814 23.5038 22.2234 23.5132 21.0796 23.5038L19.3968 23.4897L19.2843 23.3585L19.1718 23.2272V21.446V19.6647L19.289 19.5522L19.4015 19.4351H21.1827H22.964L23.0952 19.5476Z" fill="white"/>
<path d="M21.9281 20.2789C21.8859 20.307 21.6656 20.6305 21.4406 21.0055C21.2156 21.3805 21.0047 21.6852 20.9813 21.6852C20.9531 21.6852 20.8125 21.6102 20.6719 21.5211C20.2359 21.2399 19.875 21.343 19.875 21.7414C19.875 21.943 19.95 22.018 20.5641 22.4024C21.0422 22.707 21.2438 22.7445 21.4078 22.5617C21.5906 22.3649 22.5469 20.7336 22.5469 20.6211C22.5469 20.3633 22.1578 20.1477 21.9281 20.2789Z" fill="white"/>
<path d="M11.3626 20.5179C10.7954 20.9304 10.2892 21.3147 10.2329 21.371C10.111 21.4788 10.0876 21.7507 10.186 21.8772C10.2188 21.9147 10.7204 22.3038 11.3017 22.7304C12.1501 23.3538 12.3938 23.5132 12.5157 23.5132C12.7126 23.5132 12.8392 23.4382 12.8954 23.2929C12.9938 23.0304 12.9142 22.9226 12.3188 22.4772L11.761 22.0601H13.8751C16.1017 22.0601 16.2048 22.0507 16.2845 21.8491C16.3454 21.6804 16.3126 21.4647 16.2048 21.3663C16.097 21.2632 16.0876 21.2632 13.9032 21.2632H11.7142L12.2813 20.8413C12.5907 20.6069 12.872 20.3679 12.9001 20.3069C13.0079 20.0632 12.8063 19.7632 12.5345 19.7632C12.4126 19.7632 12.1829 19.9132 11.3626 20.5179Z" fill="white"/>
</svg>
