<svg width="23" height="23" viewBox="0 0 23 23" fill="none" xmlns="http://www.w3.org/2000/svg">
<path d="M2.51094 0.321388C2.46875 0.344826 2 1.32451 1.46563 2.4917C0.448437 4.73232 0.401562 4.86357 0.59375 5.05576C0.682813 5.14482 0.748438 5.14951 1.53125 5.14951H2.375V5.99326C2.375 6.77608 2.37969 6.8417 2.46875 6.93076C2.5625 7.02451 2.62344 7.02451 6.96875 7.02451H11.375V7.77451V8.52451H6.03125C0.748438 8.52451 0.6875 8.52451 0.59375 8.61826C0.5 8.71201 0.5 8.77295 0.5 11.8995C0.5 15.0261 0.5 15.087 0.59375 15.1808C0.6875 15.2745 0.748438 15.2745 6.03125 15.2745H11.375V16.0198V16.7604L11.0609 16.8354C10.2125 17.0417 9.47656 17.6089 9.0875 18.3542C8.83906 18.8323 8.75 19.2073 8.75 19.7933C8.75 20.3558 8.83438 20.7073 9.09219 21.2042C9.4625 21.9214 10.2266 22.5214 11.0047 22.7042C11.3891 22.7933 12.1109 22.7933 12.4953 22.7042C13.5125 22.4651 14.4078 21.5745 14.675 20.5433C14.7688 20.1776 14.7734 19.4276 14.6797 19.0292C14.4875 18.2136 13.8688 17.4542 13.1 17.0839C12.8609 16.9714 12.5422 16.8495 12.3969 16.8214L12.125 16.7698V16.0198V15.2745H17.4688C22.7516 15.2745 22.8125 15.2745 22.9062 15.1808C23 15.087 23 15.0261 23 11.8995C23 8.77295 23 8.71201 22.9062 8.61826C22.8125 8.52451 22.7516 8.52451 17.4688 8.52451H12.125V7.77451V7.02451H16.3438C20.5016 7.02451 20.5625 7.02451 20.6562 6.93076C20.7406 6.84639 20.75 6.77608 20.75 6.11514V5.39795L21.6594 4.8542C22.1562 4.5542 22.5781 4.27295 22.5969 4.23076C22.6109 4.19326 22.625 3.58389 22.625 2.88076C22.625 1.93389 22.6109 1.58701 22.5688 1.53076C22.5359 1.48857 22.0672 1.18858 21.5234 0.865137C20.7641 0.41045 20.5016 0.274513 20.375 0.274513C20.2484 0.274513 19.9859 0.41045 19.2266 0.865137C18.6875 1.18858 18.2141 1.48857 18.1813 1.53076C18.1391 1.58701 18.125 1.93389 18.125 2.88076C18.125 3.58389 18.1391 4.19326 18.1531 4.23076C18.1719 4.27295 18.5938 4.5542 19.0906 4.8542L20 5.39795V5.83389V6.27451H17.375H14.75V5.7167V5.16358L15.0547 5.06045C16.0344 4.7417 16.6203 3.94014 16.625 2.91358C16.625 2.21514 16.4094 1.69951 15.9313 1.24951C15.4766 0.82295 15.0219 0.649513 14.375 0.649513C13.7281 0.649513 13.2734 0.82295 12.8188 1.24951C12.3406 1.69951 12.125 2.21514 12.125 2.91358C12.1297 3.94014 12.7156 4.7417 13.6953 5.06045L14 5.16358V5.7167V6.27451H11.5625H9.125V5.71201V5.14951H9.96875C10.7516 5.14951 10.8172 5.14482 10.9062 5.05576C10.9953 4.9667 11 4.90108 11 2.89951C11 0.897951 10.9953 0.832325 10.9062 0.743263C10.8172 0.6542 10.7516 0.649513 8.75 0.649513C6.74844 0.649513 6.68281 0.6542 6.59375 0.743263C6.50469 0.832325 6.5 0.897951 6.5 2.89951C6.5 4.90108 6.50469 4.9667 6.59375 5.05576C6.68281 5.14482 6.74844 5.14951 7.53125 5.14951H8.375V5.71201V6.27451H5.75H3.125V5.71201V5.14951H3.96875C4.75156 5.14951 4.81719 5.14482 4.90625 5.05576C5.09844 4.86357 5.05156 4.73232 4.03438 2.4917C3.4625 1.23545 3.03125 0.344826 2.97969 0.321388C2.87656 0.26045 2.60938 0.265139 2.51094 0.321388ZM21.1391 1.58232L21.875 2.01826V2.89951V3.77608L21.125 4.22608L20.375 4.67607L19.625 4.22608L18.875 3.77608V2.89951V2.02295L19.6156 1.57295C20.0188 1.3292 20.3656 1.13233 20.3797 1.13233C20.3938 1.13701 20.7359 1.33858 21.1391 1.58232ZM10.25 2.89951V4.39951H8.75H7.25V2.89951V1.39951H8.75H10.25V2.89951ZM15.0219 1.58232C15.275 1.71358 15.5609 1.99483 15.6969 2.25264C15.7859 2.42139 15.8047 2.52451 15.8047 2.89951C15.8047 3.41045 15.725 3.61201 15.4063 3.93076C15.0875 4.24951 14.8859 4.3292 14.375 4.3292C14 4.3292 13.8969 4.31045 13.7281 4.22139C13.4703 4.08076 13.1891 3.79951 13.0578 3.54639C12.9313 3.30264 12.8891 2.77764 12.9641 2.4917C13.0766 2.06983 13.5078 1.61983 13.925 1.49326C14.1781 1.41358 14.7969 1.46514 15.0219 1.58232ZM3.3875 3.02608L3.99688 4.37608L3.37344 4.39014C3.03125 4.39482 2.46875 4.39482 2.12656 4.39014L1.50313 4.37608L2.1125 3.02608C2.45 2.28545 2.73594 1.68076 2.75 1.68076C2.76406 1.68076 3.05 2.28545 3.3875 3.02608ZM22.25 11.8995V14.5245H11.75H1.25V11.8995V9.27451H11.75H22.25V11.8995ZM12.4016 17.6604C12.9172 17.8198 13.4047 18.2183 13.6813 18.6964C14.0469 19.3245 14.0469 20.2245 13.6813 20.8526C12.9266 22.1558 11.1641 22.3714 10.1469 21.2839C9.73438 20.8433 9.54688 20.3745 9.54688 19.7745C9.54688 19.0011 9.92656 18.3214 10.5828 17.8948C11.0844 17.5761 11.8203 17.4776 12.4016 17.6604Z" fill="white"/>
<path d="M3.64998 10.0572C3.61716 10.0713 3.23279 10.7979 2.79685 11.6697C1.9531 13.3479 1.90623 13.4932 2.09373 13.6807C2.18279 13.7697 2.24841 13.7744 3.87498 13.7744C5.50154 13.7744 5.56716 13.7697 5.65622 13.6807C5.84372 13.4932 5.79685 13.3479 4.95779 11.6697C4.51716 10.7979 4.1281 10.0713 4.08591 10.0525C3.99685 10.0197 3.73904 10.0197 3.64998 10.0572ZM4.31091 12.1572C4.53591 12.6072 4.71873 12.9869 4.71873 13.001C4.71873 13.015 4.33904 13.0244 3.87498 13.0244C3.41091 13.0244 3.03123 13.015 3.03123 13.001C3.03123 12.9541 3.85154 11.3369 3.87498 11.3369C3.88904 11.3369 4.08591 11.7072 4.31091 12.1572Z" fill="white"/>
<path d="M7.34375 10.1182C7.25469 10.2072 7.25 10.2729 7.25 11.8994C7.25 13.526 7.25469 13.5916 7.34375 13.6807C7.43281 13.7697 7.49844 13.7744 9.125 13.7744C10.7516 13.7744 10.8172 13.7697 10.9063 13.6807C10.9953 13.5916 11 13.526 11 11.8994C11 10.2729 10.9953 10.2072 10.9063 10.1182C10.8172 10.0291 10.7516 10.0244 9.125 10.0244C7.49844 10.0244 7.43281 10.0291 7.34375 10.1182ZM10.25 11.8994V13.0244H9.125H8V11.8994V10.7744H9.125H10.25V11.8994Z" fill="white"/>
<path d="M13.7328 10.1135C13.2406 10.2963 12.8891 10.615 12.65 11.1025C12.5328 11.3369 12.5234 11.4072 12.5234 11.8994C12.5234 12.401 12.5328 12.4572 12.6594 12.7197C12.8375 13.0807 13.1938 13.4369 13.5547 13.615C13.8172 13.7416 13.8734 13.751 14.375 13.751C14.8766 13.751 14.9328 13.7416 15.1953 13.615C15.5563 13.4369 15.9125 13.0807 16.0906 12.7197C16.2172 12.4572 16.2266 12.401 16.2266 11.8994C16.2266 11.3979 16.2172 11.3416 16.0906 11.0791C15.9125 10.7182 15.5563 10.3619 15.1953 10.1885C14.9516 10.0666 14.8531 10.0479 14.4453 10.0338C14.075 10.0244 13.925 10.0432 13.7328 10.1135ZM14.7875 10.8963C15.5047 11.1916 15.6828 12.1479 15.1203 12.6822C14.4313 13.3338 13.2969 12.851 13.2969 11.8994C13.2969 11.4775 13.5359 11.1072 13.9297 10.901C14.1125 10.8025 14.5625 10.8025 14.7875 10.8963Z" fill="white"/>
<path d="M18.6642 10.4275C18.2283 10.6479 17.8392 10.8635 17.8111 10.9057C17.7454 10.9854 17.722 12.7057 17.7783 12.8604C17.8204 12.9682 19.447 13.7744 19.6251 13.7744C19.8033 13.7744 21.4298 12.9682 21.472 12.8604C21.5095 12.7572 21.5095 11.0416 21.472 10.9385C21.4251 10.8213 19.7986 10.0244 19.6158 10.0291C19.5173 10.0291 19.1564 10.1838 18.6642 10.4275ZM20.2111 11.1354L20.7501 11.4072V11.8994V12.3963L20.1876 12.6729L19.6251 12.9494L19.0626 12.6729L18.5001 12.3963V11.8994V11.4072L19.0298 11.14C19.3158 10.9947 19.5829 10.8729 19.6111 10.8729C19.6439 10.8682 19.9158 10.99 20.2111 11.1354Z" fill="white"/>
<path d="M11.975 19.3385L11.375 19.9385L11.1406 19.7041L10.9062 19.4697L10.6109 19.765L10.3203 20.0604L10.7469 20.4775C11.15 20.876 11.1828 20.8994 11.375 20.8994C11.5766 20.8994 11.5906 20.89 12.3781 20.1025L13.1797 19.3104L12.8984 19.0244C12.7438 18.8697 12.6078 18.7432 12.5938 18.7432C12.5797 18.7432 12.3031 19.0104 11.975 19.3385Z" fill="white"/>
</svg>
