<svg width="23" height="25" viewBox="0 0 23 25" fill="none" xmlns="http://www.w3.org/2000/svg">
<path d="M1.49064 0.374707C1.05939 0.552832 0.78752 0.820019 0.576582 1.27939C0.46877 1.50908 0.445332 1.61221 0.45002 1.94971C0.45002 2.29658 0.46877 2.39033 0.595332 2.65283C0.764082 3.01846 1.05471 3.31377 1.40627 3.48721C1.63596 3.59971 1.71564 3.61377 2.15627 3.61377C2.62971 3.61377 2.66252 3.60908 2.94377 3.45439C3.30002 3.26221 3.56252 2.97158 3.70783 2.62471L3.81564 2.37158H5.58752H7.3594V3.07471V3.77783H7.7344H8.1094V2.69971V1.62158H5.96252H3.81564L3.76408 1.42002C3.64221 0.965332 3.17814 0.491894 2.70939 0.337207C2.35314 0.224707 1.81877 0.238769 1.49064 0.374707ZM2.62971 1.13408C3.04689 1.37783 3.21096 1.95439 2.99064 2.37158C2.77033 2.78408 2.25471 2.99033 1.81408 2.84502C1.59377 2.77002 1.28439 2.42783 1.21877 2.18408C1.00314 1.38252 1.90783 0.712207 2.62971 1.13408Z" fill="white"/>
<path d="M19.8655 0.323144C19.3874 0.505957 19.0405 0.820019 18.8343 1.27471C18.6889 1.59346 18.6843 2.29189 18.8296 2.60596C19.0452 3.07471 19.4202 3.42627 19.8374 3.55283L20.0155 3.60439V6.17783V8.74658H19.828H19.6405V9.12158V9.49658H20.203H20.7655L20.7749 6.56221L20.7889 3.62783L21.0186 3.53877C21.5202 3.35127 21.8764 2.97158 22.0358 2.46064C22.2936 1.63096 21.9374 0.810644 21.1405 0.398144C20.878 0.266894 20.1468 0.220019 19.8655 0.323144ZM20.9577 1.17627C21.1639 1.30752 21.3749 1.70596 21.3749 1.94971C21.3749 2.20283 21.1686 2.57314 20.9436 2.72783C20.7749 2.84502 20.7093 2.86377 20.4139 2.86377C20.128 2.86377 20.053 2.84502 19.8889 2.73721C19.6264 2.56377 19.4296 2.17002 19.4624 1.87939C19.528 1.29814 20.0483 0.904394 20.6014 1.02158C20.7046 1.04502 20.8639 1.11533 20.9577 1.17627Z" fill="white"/>
<path d="M9.46406 2.84971C9.46406 2.85908 9.40781 3.20127 9.3375 3.60908L9.21094 4.35439L8.64844 4.53252C8.33906 4.63564 7.80938 4.85127 7.46719 5.02002L6.84844 5.32939L6.22969 4.87939L5.60625 4.42939L4.43906 5.59658L3.27188 6.76377L3.68906 7.34502C3.91875 7.66377 4.12031 7.94971 4.13906 7.97783C4.15313 8.00596 4.04531 8.27314 3.89062 8.56846C3.6375 9.05127 3.23906 10.1153 3.23438 10.2981C3.23438 10.3544 3.08906 10.3919 2.54531 10.4763C2.16094 10.5372 1.81406 10.5935 1.77188 10.6075C1.69219 10.6263 1.6875 10.7435 1.6875 12.2622V13.8935L1.79531 13.9169C1.85156 13.931 2.19844 13.9919 2.55938 14.0481L3.22031 14.156L3.27656 14.381C3.36094 14.7606 3.65156 15.4966 3.91875 16.0075C4.05469 16.2747 4.15781 16.5185 4.13906 16.5466C4.12031 16.5747 3.91875 16.8606 3.68906 17.1794L3.27188 17.7606L4.43906 18.9278L5.60156 20.0903L6.225 19.645L6.84844 19.195L7.46719 19.4997C7.80938 19.6685 8.29688 19.87 8.55469 19.9544C8.8125 20.0341 9.06563 20.1138 9.11719 20.1372C9.20156 20.1653 9.22969 20.2685 9.31875 20.845C9.37969 21.2153 9.43594 21.5575 9.45 21.5997C9.47344 21.6794 9.59531 21.6841 11.1094 21.6841H12.7406L12.7688 21.5575C12.7828 21.4825 12.8391 21.1403 12.8953 20.7888L12.9984 20.1513L13.2844 20.0716C13.8188 19.9216 14.2734 19.7435 14.8078 19.4716C15.3188 19.2091 15.3469 19.1997 15.4547 19.2747C15.5203 19.3122 15.8063 19.5138 16.0922 19.72L16.6125 20.095L17.7703 18.9372C18.4125 18.2997 18.9188 17.7513 18.9 17.7278C18.8859 17.6997 18.6844 17.4138 18.4547 17.095L18.0375 16.5138L18.3234 15.9513C18.4781 15.6372 18.6984 15.1075 18.8063 14.77L19.0078 14.1513L19.6641 14.0481C20.025 13.9919 20.3672 13.931 20.4281 13.9169L20.5312 13.8935V12.2622V10.631L20.4281 10.6075C20.3672 10.5935 20.025 10.5325 19.6641 10.4763L19.0078 10.3731L18.8016 9.74033C18.6891 9.39346 18.4734 8.86377 18.3188 8.55908L18.0375 8.01064L18.4875 7.38252L18.9375 6.75439L17.775 5.59189L16.6078 4.42471L16.0266 4.84189C15.7078 5.07158 15.4219 5.27314 15.3891 5.29189C15.3563 5.31064 15.1594 5.23096 14.9344 5.10908L14.5313 4.89346L14.3766 5.24033L14.2172 5.58252L14.5969 5.79346C14.8078 5.91064 15.0609 6.06533 15.1594 6.13096C15.375 6.28096 15.3188 6.29971 16.0078 5.79814L16.5234 5.42314L17.2313 6.13096L17.9438 6.83408L17.5219 7.41533L17.1 7.99658L17.2875 8.29189C17.7281 8.99033 18.0281 9.68877 18.2297 10.5044L18.3609 11.02L19.0594 11.1372L19.7578 11.2544V12.2622V13.2653L19.0594 13.3872L18.3656 13.5044L18.2344 14.02C18.0281 14.8403 17.8125 15.3466 17.3391 16.1388L17.1047 16.5231L17.5266 17.1044L17.9438 17.6856L17.2313 18.3935L16.5234 19.0966L15.9422 18.6794C15.3609 18.2622 15.3609 18.2622 15.2391 18.3419C14.4563 18.8622 13.2984 19.345 12.5531 19.4622C12.4547 19.481 12.3656 19.5091 12.3516 19.5231C12.3422 19.5419 12.2906 19.8185 12.2344 20.1419C12.1828 20.4606 12.1266 20.77 12.1172 20.8263C12.0938 20.9341 12.0891 20.9341 11.0953 20.9341H10.0969L9.98438 20.2263L9.86719 19.5185L9.32813 19.3825C8.50781 19.1763 7.725 18.8341 7.03125 18.3747L6.85313 18.2575L6.26719 18.6747L5.68594 19.0966L4.97813 18.3841L4.27031 17.6763L4.6875 17.0997L5.1 16.5231L4.8 16.0263C4.36875 15.3044 4.06875 14.531 3.87188 13.6169C3.84844 13.4997 3.825 13.4903 3.15469 13.3825L2.46094 13.27L2.44688 12.2575L2.4375 11.2497L3.14062 11.1419C3.82969 11.0341 3.84375 11.0294 3.87188 10.9075C4.12031 9.81533 4.34063 9.25283 4.85625 8.40908L5.10469 8.00127L4.6875 7.42471L4.275 6.84814L4.97813 6.14033L5.68594 5.42783L6.2625 5.84502L6.83906 6.25752L7.32656 5.96221C8.03906 5.53096 8.59688 5.31533 9.68438 5.04346L9.87188 4.99658L9.98438 4.29346L10.0969 3.59033L11.1047 3.59971L12.1125 3.61377L12.2203 4.28877C12.2812 4.66377 12.3328 4.97314 12.3422 4.97783C12.3656 5.00127 13.4203 5.28252 13.5188 5.29189C13.5891 5.30127 13.6313 5.23564 13.7156 4.97783C13.7766 4.79971 13.8188 4.64033 13.8047 4.62158C13.7953 4.60283 13.6078 4.54189 13.3875 4.48096L12.9938 4.37783L12.8906 3.71221C12.8344 3.35127 12.7781 3.00439 12.7641 2.94346L12.7406 2.84033H11.1047C10.2047 2.84033 9.46875 2.84502 9.46406 2.84971Z" fill="white"/>
<path d="M10.5 6.94658C10.4344 6.95596 10.2563 6.98877 10.1016 7.0169C9.42189 7.13408 8.53127 7.51377 7.96877 7.93096C5.81252 9.51533 5.1422 12.3935 6.37971 14.7466C6.62346 15.2106 7.02189 15.7778 7.10158 15.7731C7.12971 15.7731 7.26564 15.67 7.40627 15.5435C7.60314 15.3653 7.65471 15.295 7.61721 15.2481C7.59377 15.2106 7.49064 15.0794 7.39689 14.9528C6.68908 14.0247 6.36564 12.6372 6.58596 11.4794C6.77814 10.4575 7.18596 9.69814 7.92189 8.98096C8.74689 8.17471 9.74064 7.74346 10.8985 7.68252C13.0781 7.57471 15.0281 9.05127 15.5766 11.231C15.7172 11.7981 15.7125 12.731 15.5719 13.3122C15.375 14.1091 14.9156 14.9153 14.3391 15.4919C12.7313 17.0997 10.186 17.2966 8.40002 15.9513C8.23596 15.8294 8.10002 15.731 8.09064 15.731C8.08127 15.731 7.96877 15.8622 7.83283 16.0169L7.59377 16.3028L7.87971 16.5278C8.72346 17.1794 9.99846 17.606 11.1094 17.606C11.85 17.606 12.8297 17.381 13.4625 17.0622C14.2547 16.6685 15.061 15.956 15.5391 15.2435C16.6969 13.4997 16.7438 11.2263 15.661 9.46846C14.9016 8.24502 13.7438 7.40596 12.3141 7.05439C11.9438 6.96533 10.7906 6.89502 10.5 6.94658Z" fill="white"/>
<path d="M14.9858 7.15264C14.8873 7.28389 14.7983 7.41982 14.7842 7.45264C14.7701 7.48545 14.8779 7.61201 15.0279 7.73857L15.2951 7.96826L15.5436 7.68701L15.7967 7.41045L15.5248 7.1667C15.3795 7.03076 15.2342 6.91826 15.2108 6.91826C15.1826 6.91826 15.0795 7.02607 14.9858 7.15264Z" fill="white"/>
<path d="M15.9656 8.16543C15.8203 8.28731 15.7031 8.39043 15.7031 8.4045C15.7031 8.41387 15.7922 8.54512 15.9 8.69043C16.0078 8.83575 16.1016 8.96231 16.1063 8.97168C16.1203 8.99512 16.7344 8.58731 16.7344 8.5545C16.7344 8.49825 16.3125 7.94981 16.2703 7.94981C16.2469 7.94981 16.1109 8.04825 15.9656 8.16543Z" fill="white"/>
<path d="M16.7578 9.31846C16.6031 9.39814 16.4672 9.46846 16.4578 9.47783C16.4437 9.49189 16.4812 9.60908 16.5422 9.74502C16.8515 10.4528 17.025 11.1278 17.0859 11.8731L17.1234 12.2622H17.4984H17.8734L17.8406 11.8263C17.7984 11.2966 17.6578 10.5747 17.5031 10.1153C17.3578 9.68408 17.1281 9.16846 17.0765 9.16846C17.0578 9.17314 16.9125 9.23877 16.7578 9.31846Z" fill="white"/>
<path d="M7.6875 12.2388V14.0903H8.0625H8.4375V13.4341V12.7778H8.95312H9.46875V13.4341V14.0903H9.84375H10.2188V12.2388V10.3872H8.95312H7.6875V12.2388ZM9.46875 11.5825V12.0278H8.95312H8.4375V11.5825V11.1372H8.95312H9.46875V11.5825Z" fill="white"/>
<path d="M10.7344 12.2388V14.0903H11.1094H11.4844V13.4341V12.7778H12.3516H13.2188V11.5825V10.3872H11.9766H10.7344V12.2388ZM12.4688 11.5825V12.0278H11.9766H11.4844V11.5825V11.1372H11.9766H12.4688V11.5825Z" fill="white"/>
<path d="M13.7812 12.2622V14.0903H14.1562H14.5312V12.2622V10.4341H14.1562H13.7812V12.2622Z" fill="white"/>
<path d="M1.72493 18.0325L1.71087 20.8966L1.48118 20.9856C0.979621 21.1731 0.623371 21.5528 0.463996 22.0638C0.206184 22.8935 0.557746 23.7044 1.35931 24.1263C1.54681 24.2247 1.63118 24.2388 2.08587 24.2388C2.58275 24.2388 2.61087 24.2341 2.89681 24.0794C3.23431 23.8966 3.464 23.6528 3.64681 23.2778C3.75931 23.0481 3.77337 22.9685 3.76868 22.5747C3.76868 22.0872 3.70306 21.881 3.43118 21.5153C3.27181 21.295 2.92025 21.0513 2.66243 20.9716L2.48431 20.92V18.4169C2.48431 16.2278 2.49368 15.9185 2.55462 15.9185C2.61087 15.9185 2.62493 15.8435 2.62493 15.5435V15.1685H2.17962H1.73431L1.72493 18.0325ZM2.52181 21.7356C2.75618 21.8481 2.9765 22.1575 3.02806 22.4294C3.13118 22.9685 2.66712 23.5169 2.10931 23.5216C1.35462 23.5263 0.895246 22.72 1.289 22.0825C1.5515 21.6606 2.06712 21.5153 2.52181 21.7356Z" fill="white"/>
<path d="M13.875 21.9185V22.9966H16.0266H18.1781L18.3188 23.2966C18.4875 23.6575 18.7781 23.9528 19.125 24.1169C19.35 24.2247 19.4438 24.2388 19.875 24.2388C20.3438 24.2388 20.3813 24.2341 20.6625 24.0794C21.0141 23.8872 21.2484 23.6388 21.4172 23.2825C21.5203 23.0575 21.5391 22.9591 21.5391 22.5747C21.5391 22.1903 21.5203 22.0919 21.4172 21.8669C21.2484 21.5106 21.0141 21.2622 20.6625 21.07C20.3813 20.9153 20.3438 20.9106 19.875 20.9106C19.4344 20.9106 19.3547 20.9247 19.125 21.0372C18.7828 21.206 18.4875 21.506 18.3234 21.8481C18.2484 22.0028 18.1875 22.1575 18.1875 22.1856C18.1875 22.2325 17.7984 22.2466 16.4062 22.2466H14.625V21.5435V20.8403H14.25H13.875V21.9185ZM20.3719 21.7872C20.8313 22.1013 20.9484 22.6685 20.6438 23.0997C20.4281 23.4091 20.1984 23.5169 19.8234 23.5028C19.4625 23.4841 19.2516 23.3669 19.0641 23.0763C18.825 22.706 18.8625 22.2888 19.1625 21.956C19.3781 21.7169 19.5469 21.6419 19.8797 21.6372C20.1047 21.6372 20.1797 21.6606 20.3719 21.7872Z" fill="white"/>
</svg>
