<svg width="24" height="25" viewBox="0 0 24 25" fill="none" xmlns="http://www.w3.org/2000/svg">
<path d="M1.08594 0.946505C0.776563 1.06838 0.471875 1.36369 0.317188 1.69182L0.195312 1.95432V6.89963V11.8449L0.326563 12.1121C0.476562 12.4168 0.74375 12.6793 1.05781 12.8246C1.26875 12.9231 1.325 12.9231 4.09531 12.9371C5.65156 12.9418 6.92188 12.9606 6.92188 12.9699C6.92188 12.984 6.34063 13.7481 5.63281 14.6715C4.925 15.5903 4.29688 16.4387 4.24063 16.5559C4.08125 16.8746 4.09063 17.4746 4.25938 17.7981C4.32969 17.9246 4.46563 18.1074 4.56406 18.2012C4.85469 18.4778 12.0266 23.9574 12.2375 24.0653C12.5 24.2012 12.9734 24.2293 13.3109 24.1309C13.5078 24.0746 13.6391 23.9949 13.8313 23.8074C14.1266 23.5262 23.0188 11.9481 23.1734 11.6434C23.3797 11.2356 23.375 11.1746 22.8359 8.28713C22.5641 6.81994 22.2875 5.46057 22.2266 5.259C21.8891 4.19494 21.0219 3.5715 19.8781 3.5715H19.5406L18.5422 2.45588C17.3375 1.11525 17.2812 1.06369 16.9672 0.946505C16.7188 0.852755 16.6016 0.852755 9.01719 0.857441C1.51719 0.857441 1.31563 0.862129 1.08594 0.946505ZM16.6953 1.70588C16.8359 1.76682 18.5328 3.63244 18.4672 3.65119C18.4484 3.65588 17.4875 3.73557 16.3391 3.82932C14.1734 3.99807 13.9813 4.03088 13.6906 4.25119C13.6063 4.31682 12.1953 6.1215 10.5547 8.259L7.56875 12.1496H4.55C1.5875 12.1496 1.52188 12.1496 1.33906 12.0512C1.19844 11.9809 1.12344 11.9012 1.05781 11.7512C0.96875 11.5543 0.96875 11.4043 0.978125 6.81994C0.992188 2.35275 0.996875 2.08557 1.07656 1.96369C1.12344 1.88869 1.22656 1.79025 1.31094 1.74338C1.45625 1.64963 1.61094 1.64963 9.01719 1.64963C14.7828 1.64963 16.6016 1.66369 16.6953 1.70588ZM20.3516 4.43869C20.9609 4.59807 21.3453 5.01994 21.5234 5.71838C21.5609 5.86369 21.8047 7.12932 22.0625 8.53088L22.5359 11.0809L22.4516 11.2496C22.3016 11.559 13.2922 23.259 13.1516 23.3293C12.9875 23.4184 12.7484 23.4184 12.5938 23.3387C12.3969 23.2356 5.17344 17.6856 5.06094 17.5496C4.925 17.3903 4.88281 17.1653 4.94375 16.9778C4.99063 16.8559 13.4281 5.79338 13.9906 5.12775C14.1031 4.99182 14.2391 4.86057 14.2906 4.83244C14.3938 4.77619 19.0766 4.38244 19.7188 4.37307C19.9156 4.37307 20.2016 4.40119 20.3516 4.43869Z" fill="white"/>
<path d="M3.83767 3.65611C3.48611 3.78268 3.2658 3.97955 3.08767 4.32643C2.93767 4.60768 2.9283 4.64986 2.94705 5.00143C2.97986 5.56861 3.24236 5.97174 3.73455 6.19205C4.05798 6.33736 4.5783 6.32799 4.89705 6.16861C5.73611 5.75143 5.91423 4.63111 5.24861 3.96549C4.90173 3.61393 4.3158 3.48736 3.83767 3.65611ZM4.53611 4.43893C4.70486 4.52799 4.85955 4.76705 4.85955 4.94518C4.85955 5.50768 4.06267 5.70924 3.80017 5.20768C3.65486 4.92174 3.74392 4.6358 4.03455 4.45768C4.21267 4.34986 4.34861 4.34518 4.53611 4.43893Z" fill="white"/>
<path d="M7.72812 3.74473C7.67187 3.7916 6.70156 5.12285 5.56719 6.70723C3.70625 9.3041 3.5 9.6041 3.5 9.76816C3.5 10.0025 3.62656 10.1338 3.86562 10.1338C3.96406 10.1338 4.07656 10.1057 4.11875 10.0729C4.19375 10.0166 8.22969 4.40566 8.32344 4.23223C8.40781 4.07754 8.37969 3.94629 8.23906 3.80098C8.07969 3.6416 7.87344 3.62285 7.72812 3.74473Z" fill="white"/>
<path d="M7.0906 7.53693C6.74373 7.64474 6.34529 8.06661 6.23748 8.42286C6.0406 9.11193 6.35935 9.81036 7.00154 10.0963C7.4656 10.3026 8.14529 10.1713 8.51092 9.80099C8.99373 9.32286 9.02654 8.45568 8.58123 7.94005C8.24842 7.55099 7.60154 7.37286 7.0906 7.53693ZM7.94373 8.46974C8.4406 9.0088 7.66248 9.73536 7.14217 9.21505C6.87498 8.95255 6.95467 8.51661 7.29685 8.33849C7.53123 8.21661 7.75154 8.26349 7.94373 8.46974Z" fill="white"/>
<path d="M18.5094 5.82626C18.2047 5.97626 18.0453 6.13563 17.8766 6.44969C17.7969 6.60438 17.7734 6.72157 17.7734 7.04032C17.7734 7.38251 17.7922 7.47157 17.9 7.67313C18.1344 8.11844 18.5141 8.36219 19.025 8.39032C19.4281 8.41376 19.7375 8.31063 20.0281 8.05751C20.3375 7.78563 20.4688 7.48563 20.4688 7.03563C20.4688 6.74969 20.4453 6.63719 20.3469 6.44032C20.0094 5.75594 19.1891 5.48407 18.5094 5.82626ZM19.3906 6.55282C19.7609 6.77313 19.7609 7.34032 19.3906 7.53251C19.1562 7.65438 18.9453 7.62157 18.7438 7.44344C18.5844 7.29813 18.5703 7.26063 18.5703 7.04032C18.5703 6.82001 18.5844 6.78251 18.7438 6.63719C18.9453 6.45438 19.1703 6.42626 19.3906 6.55282Z" fill="white"/>
<path d="M14.4408 9.1963C14.2205 9.28537 14.1314 9.53849 14.2486 9.74474C14.2814 9.80099 15.0642 10.4291 15.9876 11.1416C17.783 12.5151 17.8345 12.5432 18.0736 12.3463C18.1298 12.3041 18.458 11.8963 18.8048 11.4463C19.3533 10.7338 19.433 10.6026 19.4376 10.4479C19.4376 10.1619 19.1798 9.97912 18.9126 10.0822C18.8376 10.1104 18.5939 10.3869 18.2845 10.7901C17.9892 11.1791 17.7548 11.4416 17.722 11.4276C17.6892 11.4135 17.033 10.9213 16.2642 10.3307C15.4955 9.74005 14.8205 9.2338 14.7642 9.20568C14.647 9.14005 14.5767 9.14005 14.4408 9.1963Z" fill="white"/>
<path d="M12.8045 11.3293C12.5701 11.559 12.5842 11.5871 13.9623 13.584C14.717 14.6715 15.2842 15.4449 15.3498 15.473C15.5279 15.5574 15.6404 15.534 15.7904 15.384C15.9873 15.1824 15.9545 15.0324 15.5982 14.5215C15.4388 14.2965 15.3123 14.0949 15.3123 14.0668C15.3123 14.0246 15.8232 13.3355 15.992 13.1433C16.0342 13.0965 16.1373 13.1199 16.5123 13.2558C17.0795 13.4621 17.2623 13.4715 17.4076 13.298C17.5435 13.1433 17.5435 12.9371 17.4123 12.7918C17.3326 12.7074 16.7654 12.4824 15.2513 11.9433C14.1217 11.5402 13.1326 11.2121 13.0576 11.2121C12.9732 11.2121 12.8748 11.2543 12.8045 11.3293ZM14.6842 12.5996C14.942 12.6887 15.1623 12.7777 15.181 12.7965C15.2138 12.8293 14.8576 13.3215 14.7967 13.3215C14.7638 13.3215 14.1873 12.5058 14.1873 12.459C14.1873 12.4168 14.1873 12.4168 14.6842 12.5996Z" fill="white"/>
<path d="M11.3188 13.19C11.2812 13.2229 10.9578 13.626 10.6063 14.09C10.0531 14.8166 9.96875 14.9479 9.96875 15.0979C9.96875 15.1963 9.99688 15.3041 10.0297 15.3463C10.0578 15.3885 10.8313 15.9932 11.7453 16.6916C13.2547 17.8447 13.4234 17.9619 13.5875 17.9619C13.6953 17.9619 13.7984 17.9291 13.85 17.8775C14.0141 17.7135 15.125 16.2322 15.1672 16.1244C15.2141 15.9932 15.1531 15.7541 15.0453 15.6744C14.9281 15.59 14.6234 15.6041 14.5297 15.7025C14.4828 15.7494 14.2344 16.0635 13.9766 16.401L13.5078 17.015L13.3438 16.8885C13.25 16.8229 13.0344 16.6588 12.8656 16.5322C12.6922 16.401 12.5563 16.2744 12.5703 16.2463C12.5797 16.2135 12.725 16.0119 12.8938 15.7916C13.1563 15.4541 13.2031 15.365 13.2031 15.2057C13.2031 14.9807 13.0438 14.8213 12.8141 14.8213C12.6547 14.8213 12.4344 15.0275 12.1016 15.4963C11.9984 15.6369 11.9 15.7588 11.8859 15.7588C11.8719 15.7588 11.6516 15.5994 11.3938 15.4025C11.1406 15.2057 10.925 15.0416 10.9203 15.0369C10.9156 15.0322 11.1406 14.7275 11.4266 14.3572C11.8719 13.7666 11.9375 13.6635 11.9375 13.5041C11.9375 13.265 11.8109 13.1338 11.5719 13.1338C11.4734 13.1338 11.3609 13.1619 11.3188 13.19Z" fill="white"/>
<path d="M9.24681 16.2557C8.90931 16.3776 8.74994 16.5182 8.3515 17.0385C7.91088 17.6057 7.85931 17.7323 7.95775 17.9104C8.01869 18.0182 10.9109 20.287 11.3187 20.5448C11.4359 20.6198 11.5109 20.6338 11.6374 20.6151C11.7781 20.587 11.8531 20.5073 12.2187 20.0245C12.6687 19.4198 12.7343 19.2651 12.7343 18.8245C12.7343 18.4729 12.6359 18.1776 12.4437 17.9432C12.2234 17.676 10.4515 16.3354 10.2078 16.251C9.94994 16.162 9.49056 16.1666 9.24681 16.2557ZM9.98275 17.0291C10.2312 17.1651 11.8296 18.4354 11.8906 18.5479C12.0171 18.787 11.9703 19.0026 11.7218 19.3401C11.5999 19.5088 11.4921 19.6495 11.4828 19.6495C11.4734 19.6495 10.8828 19.2041 10.1749 18.6604L8.89056 17.676L9.04056 17.4604C9.29369 17.1135 9.4765 16.9776 9.69213 16.9776C9.79525 16.9776 9.9265 17.001 9.98275 17.0291Z" fill="white"/>
</svg>
