<svg width="25" height="19" viewBox="0 0 25 19" fill="none" xmlns="http://www.w3.org/2000/svg">
<path d="M11.0156 0.482611C10.95 0.491985 10.7625 0.543549 10.5984 0.595112C9.55313 0.923237 8.77031 1.70136 8.40938 2.77011C8.29688 3.10761 8.28281 3.23417 8.25938 3.97949C8.23594 4.92636 8.27813 5.31542 8.48906 5.93886C8.61094 6.2998 8.625 6.4123 8.625 6.90917C8.625 8.22167 9.05156 9.30917 9.88594 10.1295L10.125 10.3592V10.931V11.5029L9.77344 11.8779C9.58125 12.0795 9.40313 12.2998 9.37969 12.3654C9.34219 12.4592 9.19688 12.5295 8.38125 12.8201C7.86094 13.0076 7.28906 13.2279 7.11094 13.3076C6.83438 13.4295 6.77813 13.4435 6.67031 13.392L6.54375 13.3357L6.83906 13.167C7.2 12.9654 7.69688 12.506 7.80469 12.2764C7.88438 12.1123 7.88438 12.0935 7.78594 11.7982C7.63125 11.3154 7.59375 11.0529 7.52344 9.8248C7.44844 8.54511 7.40156 8.30136 7.11563 7.71542C6.84844 7.17636 6.32344 6.64199 5.80781 6.38886C4.51875 5.75605 2.93906 6.13105 2.1375 7.26074C1.63125 7.97792 1.51406 8.39511 1.44844 9.75449C1.40156 10.7951 1.3125 11.5029 1.19531 11.7795C1.07812 12.0607 1.10625 12.2295 1.30781 12.4826C1.52813 12.7685 1.79531 12.9795 2.17031 13.181L2.45156 13.331L1.88906 13.6123C1.44844 13.8326 1.27969 13.9498 1.11094 14.1326C0.759375 14.5264 0.75 14.5873 0.75 16.3498C0.75 17.8264 0.754688 17.892 0.84375 17.981C0.95625 18.0935 1.20469 18.1076 1.34063 18.0092C1.425 17.9435 1.42969 17.8592 1.45312 16.4482C1.47656 14.817 1.48125 14.7935 1.77188 14.5545C1.84688 14.4935 2.16094 14.3154 2.47031 14.1654L3.03281 13.8889L3.36563 14.1701C3.79688 14.5451 4.12031 14.6717 4.57031 14.6435C4.97344 14.6154 5.26875 14.4748 5.64375 14.1326L5.91094 13.8889L6.07969 13.9685C6.20625 14.0295 6.23438 14.067 6.20625 14.1279C6.00469 14.592 6.00469 14.6201 6 16.2748C6 17.817 6.00469 17.8732 6.09375 17.9717C6.225 18.1123 6.51562 18.1123 6.6375 17.9764C6.72188 17.8826 6.72656 17.7654 6.75 16.2748L6.77344 14.6764L6.90469 14.4514C6.975 14.3295 7.12031 14.1748 7.21875 14.1092C7.36875 14.006 9.59531 13.1576 9.7125 13.1529C9.73125 13.1529 9.96094 13.4717 10.2234 13.8654C10.7578 14.6623 10.8609 14.7748 11.1188 14.8404C11.4469 14.9295 11.6109 14.8639 12.0141 14.4748L12.375 14.1232V15.9748C12.375 17.7795 12.3797 17.831 12.4734 17.9529C12.6 18.117 12.8766 18.1217 13.0219 17.967C13.125 17.8592 13.125 17.8451 13.125 15.9889V14.1232L13.4672 14.4514C13.9219 14.8967 14.1844 14.967 14.5922 14.7607C14.6719 14.7232 14.9109 14.4139 15.2344 13.9264C15.5203 13.4998 15.7641 13.1529 15.7781 13.1529C15.8438 13.1529 18.0188 13.9592 18.1781 14.0389C18.4031 14.156 18.5344 14.2967 18.6516 14.5592C18.7406 14.756 18.75 14.8639 18.75 16.2279C18.75 17.7279 18.7734 17.9389 18.9375 18.0279C19.0828 18.1029 19.3078 18.0795 19.4062 17.981C19.4953 17.892 19.5 17.8264 19.5 16.2701C19.5 14.7607 19.4953 14.6389 19.4062 14.3998C19.35 14.2592 19.2469 14.0529 19.1719 13.9404L19.0359 13.7389L19.2094 13.6779L19.3781 13.6217L19.8141 14.0529L20.2453 14.4842L20.2594 16.181C20.2734 17.7748 20.2781 17.8826 20.3625 17.9764C20.4844 18.1076 20.775 18.1123 20.9062 17.981C20.9953 17.892 21 17.8264 21 16.2139V14.5357L21.45 14.0857L21.8953 13.6404L22.7391 13.8795C23.625 14.1373 23.775 14.2123 23.9297 14.4701C24.0188 14.6201 24.0234 14.7373 24.0469 16.2842C24.0703 17.8545 24.075 17.9435 24.1594 18.0092C24.2953 18.1076 24.5438 18.0935 24.6562 17.981C24.7453 17.892 24.75 17.8264 24.75 16.2139C24.75 15.2154 24.7313 14.4654 24.7031 14.3623C24.6281 14.1045 24.3797 13.7623 24.1359 13.5889C23.9766 13.4764 23.7094 13.3732 23.0813 13.1951C22.6219 13.0639 22.2141 12.9232 22.1859 12.881C22.1531 12.8389 22.125 12.717 22.125 12.6092C22.125 12.4264 22.1531 12.3889 22.4719 12.0701C23.0391 11.4982 23.25 10.9685 23.25 10.0967C23.25 9.65136 23.2641 9.55761 23.3625 9.36542C23.6016 8.89199 23.625 8.71855 23.625 7.45761C23.625 6.28574 23.625 6.27636 23.5172 6.17792C23.4094 6.0748 23.3953 6.0748 21.5531 6.0748C20.5172 6.0748 19.5891 6.09355 19.4484 6.12167C19.0266 6.20136 18.5578 6.45917 18.2625 6.78261C17.8219 7.25605 17.6625 7.67324 17.6531 8.34824C17.6484 8.73261 17.6625 8.80292 17.8219 9.16855C17.9719 9.52011 17.9953 9.62792 18.0188 10.0826C18.0609 10.9639 18.2766 11.4935 18.8063 12.042L19.125 12.3701V12.642V12.9139L18.7172 13.0357C18.4875 13.106 18.2766 13.167 18.2391 13.181C18.2016 13.1951 17.7188 13.0404 17.1656 12.8389C16.3266 12.5342 16.1531 12.4545 16.1203 12.3607C16.0969 12.2998 15.9188 12.0795 15.7266 11.8685L15.375 11.4889V10.9498V10.406L15.6375 10.1529C16.1391 9.66074 16.5281 9.00917 16.7391 8.30136C16.8188 8.04355 16.8422 7.7998 16.8609 7.15292C16.8797 6.43105 16.8984 6.29042 17.0016 6.00449C17.2359 5.34824 17.25 5.15136 17.25 2.8123C17.25 0.698236 17.2453 0.63261 17.1562 0.543549C17.0625 0.449799 17.0063 0.449799 14.1 0.454487C12.4688 0.459173 11.0813 0.473236 11.0156 0.482611ZM16.4906 3.20136L16.4766 5.20761L16.3031 5.6998C16.1344 6.18261 16.1297 6.20605 16.1109 7.03574C16.0875 7.97324 16.0406 8.17949 15.7125 8.81699C15.4969 9.22949 14.8688 9.87167 14.4375 10.1201C13.4672 10.6826 12.3141 10.7154 11.2969 10.2185C10.9172 10.031 10.7859 9.93261 10.425 9.57167C10.0688 9.21074 9.96094 9.07011 9.78281 8.6998C9.46875 8.06699 9.41719 7.82324 9.37969 6.84824C9.35156 6.13574 9.32812 5.97167 9.24844 5.79355C9.07969 5.43261 9 4.91699 9 4.19042C9 3.40761 9.07031 3.06074 9.30469 2.61074C9.6375 1.97792 10.125 1.56074 10.8047 1.33105L11.1797 1.1998H13.8422H16.5047L16.4906 3.20136ZM4.98281 6.89511C5.39062 7.00292 5.70938 7.18105 6 7.47636C6.45938 7.93574 6.68906 8.48417 6.73594 9.22011L6.76406 9.6748L6.4125 9.3373C5.82656 8.77011 4.94063 8.40449 4.00313 8.33886L3.61406 8.31074L3.22969 8.68105C3.02344 8.88261 2.81719 9.1123 2.77969 9.1873C2.65313 9.43105 2.82656 9.73105 3.09844 9.73105C3.21563 9.73105 3.30938 9.66542 3.58594 9.40292L3.92344 9.07011L4.22344 9.11699C4.65469 9.1873 4.99688 9.29511 5.32031 9.46386C5.63438 9.63261 6.12188 10.0873 6.25313 10.3451C6.3375 10.5092 6.3375 10.5232 6.25781 10.781C6.02344 11.5264 5.27344 12.0748 4.49063 12.0748C3.7125 12.0748 2.92969 11.5076 2.70938 10.7904C2.68594 10.7107 2.64844 10.5092 2.625 10.3404C2.59219 10.1014 2.55938 10.0123 2.46094 9.93261C2.39531 9.87167 2.30625 9.8248 2.26406 9.8248C2.19844 9.8248 2.19375 9.76386 2.21719 9.36542C2.23125 9.11699 2.27813 8.78417 2.32031 8.62949C2.65313 7.35449 3.825 6.59042 4.98281 6.89511ZM22.875 7.69667V8.57324L22.6875 9.00917C22.5047 9.43574 22.5 9.46386 22.5 9.9748C22.5 10.7529 22.35 11.1514 21.9141 11.5545C20.9578 12.4357 19.5094 12.1357 18.9609 10.9404C18.8156 10.617 18.75 10.256 18.75 9.73105C18.75 9.38417 18.7313 9.29511 18.6094 9.03261C18.3938 8.58261 18.3563 8.38105 18.4219 8.0623C18.525 7.54667 18.8625 7.13886 19.3406 6.94199C19.6172 6.82949 19.6313 6.8248 21.2484 6.8248H22.875V7.69667ZM11.325 11.0623C11.6672 11.2076 12.3188 11.3248 12.7688 11.3248C13.3266 11.3248 13.9266 11.1889 14.5453 10.9264C14.6203 10.8935 14.6297 10.917 14.6156 11.1889L14.6016 11.4842L13.6875 12.1076C13.1859 12.4545 12.7547 12.7264 12.7266 12.7123C12.6938 12.7029 12.2672 12.417 11.775 12.0748L10.875 11.4607V11.1748C10.875 10.8514 10.8469 10.8607 11.325 11.0623ZM2.70938 12.1264C2.97656 12.3795 3.00469 12.4217 2.99063 12.5717L2.97656 12.7357L2.64375 12.5717C2.45625 12.4779 2.21719 12.3232 2.10469 12.2248L1.90313 12.0467L1.98281 11.7654C2.025 11.6107 2.0625 11.4326 2.0625 11.3717C2.0625 11.2826 2.10469 11.3248 2.24063 11.5545C2.33438 11.7185 2.54531 11.9764 2.70938 12.1264ZM6.96563 11.6857L7.05 12.042L6.83906 12.2342C6.72188 12.342 6.49219 12.492 6.32344 12.5764L6.02344 12.7217L6.00938 12.5529C5.99531 12.4029 6.01875 12.3607 6.225 12.1732C6.47813 11.9389 6.7125 11.6435 6.80156 11.4514C6.83438 11.381 6.8625 11.3248 6.86719 11.3248C6.87656 11.3248 6.91875 11.4889 6.96563 11.6857ZM12.0797 13.2185C12.1266 13.2607 12.0469 13.3639 11.7234 13.6873L11.3063 14.1045L10.7859 13.3264C10.5 12.8951 10.2656 12.5295 10.2656 12.5107C10.2656 12.492 10.3313 12.4076 10.4156 12.3232L10.5609 12.1732L11.2922 12.6701C11.6953 12.942 12.0516 13.1904 12.0797 13.2185ZM15.1219 12.342L15.2672 12.5154L14.7516 13.2935C14.4703 13.7201 14.2266 14.0764 14.2172 14.0904C14.2078 14.0998 14.0109 13.917 13.7766 13.6873L13.3547 13.2607L14.1422 12.717C14.5734 12.417 14.9391 12.1732 14.9531 12.1732C14.9672 12.1685 15.0422 12.2482 15.1219 12.342ZM4.5 12.8014C4.74375 12.8014 5.01094 12.7826 5.09063 12.7639L5.24063 12.7264L5.25938 13.0685C5.28281 13.4014 5.27813 13.4154 5.1375 13.5654C4.73438 13.9967 4.31719 14.006 3.85781 13.5889C3.66094 13.4154 3.65625 13.406 3.70312 13.2232C3.72656 13.1201 3.75 12.9654 3.75 12.8857C3.75 12.7404 3.75469 12.7357 3.90469 12.7685C3.98438 12.7873 4.25625 12.8014 4.5 12.8014ZM20.6484 12.8014C20.8828 12.8014 21.1359 12.7873 21.2203 12.7685C21.3563 12.7357 21.3703 12.7451 21.3984 12.881C21.4313 13.0123 21.4031 13.0545 21.0422 13.4154L20.6484 13.8092L20.2641 13.4248C19.9313 13.0967 19.875 13.017 19.875 12.881C19.875 12.7264 19.875 12.7264 20.0531 12.7639C20.1469 12.7826 20.4188 12.8014 20.6484 12.8014Z" fill="white"/>
<path d="M10.7859 3.7123C9.89531 3.82012 9.75 3.98418 9.75 4.87949C9.75 5.17949 9.76875 5.46074 9.79688 5.50762C9.86719 5.64824 10.1016 5.72324 10.2609 5.65762C10.4484 5.57793 10.5 5.42793 10.5 4.93105V4.49512L11.0297 4.43887C12.7734 4.26543 14.3156 4.51387 14.9578 5.08105C15.0516 5.16074 15.1828 5.2498 15.2531 5.27793C15.5156 5.37637 15.75 5.2123 15.75 4.92168C15.75 4.7998 15.7031 4.72949 15.5063 4.55137C15.225 4.29824 14.55 3.96074 14.1094 3.84824C13.2891 3.6373 11.8828 3.58105 10.7859 3.7123Z" fill="white"/>
<path d="M19.308 8.00615C19.1627 8.12803 19.1158 8.27334 19.172 8.4374C19.2377 8.64365 19.3548 8.68584 19.9548 8.72334C20.5502 8.75615 21.0798 8.8499 21.4455 8.97646C21.7923 9.09834 21.8486 9.09834 22.0033 8.97646C22.172 8.84053 22.1767 8.55928 22.0033 8.42334C21.722 8.20303 20.8736 8.02021 19.9267 7.97334C19.5189 7.9499 19.3642 7.95928 19.308 8.00615Z" fill="white"/>
<path d="M22.758 15.1171C22.533 15.2109 22.5236 15.2577 22.5095 16.453C22.4908 17.6812 22.5049 17.8452 22.6455 17.9859C22.7674 18.1077 23.0345 18.103 23.1564 17.9812C23.2455 17.8921 23.2502 17.8265 23.2502 16.603C23.2502 15.4499 23.2408 15.3093 23.1705 15.2249C23.072 15.1077 22.8892 15.0609 22.758 15.1171Z" fill="white"/>
<path d="M2.48437 15.5765C2.25469 15.6655 2.25 15.6796 2.25 16.8187C2.25 17.8265 2.25469 17.8921 2.34375 17.9812C2.46562 18.103 2.73281 18.1077 2.85469 17.9859C2.99062 17.8499 3.00937 17.6718 2.99062 16.678C2.97656 15.853 2.96719 15.7734 2.88281 15.689C2.77969 15.5859 2.59219 15.5343 2.48437 15.5765Z" fill="white"/>
<path d="M8.48906 15.8764C8.26406 15.9655 8.25469 16.0264 8.25 16.978C8.25 17.8499 8.25 17.8733 8.35781 17.9717C8.51719 18.1217 8.775 18.1124 8.90156 17.953C8.99531 17.8358 9 17.7655 9 16.9686C9 16.1436 8.99531 16.1061 8.89688 15.9936C8.76562 15.853 8.63906 15.8155 8.48906 15.8764Z" fill="white"/>
<path d="M16.7341 15.8857C16.5185 15.9935 16.4951 16.1107 16.5091 17.0248C16.5232 17.7888 16.5326 17.8873 16.6123 17.9763C16.7341 18.1076 17.0248 18.1123 17.156 17.981C17.2451 17.892 17.2498 17.8263 17.2498 16.9732C17.2498 16.1201 17.2451 16.0545 17.156 15.9654C17.1045 15.9138 17.0435 15.8716 17.0201 15.8716C16.9966 15.8716 16.9498 15.8623 16.9123 15.8482C16.8795 15.8341 16.7998 15.8529 16.7341 15.8857Z" fill="white"/>
</svg>
