<svg width="25" height="24" viewBox="0 0 25 24" fill="none" xmlns="http://www.w3.org/2000/svg">
<path d="M5.31719 0.740847C4.97031 0.872097 4.65156 1.19553 4.52031 1.54241C4.44531 1.75335 4.42188 1.91741 4.42188 2.27835V2.74241L3.00625 2.75647L1.58594 2.77053L1.27188 2.92053C0.892188 3.09866 0.564063 3.4221 0.395313 3.77835L0.273438 4.03616L0.259375 13.2565L0.25 22.4768L0.348438 22.7346C0.475 23.0721 0.742188 23.4096 1.03281 23.5971C1.51562 23.9065 0.667188 23.8877 12.25 23.8877C23.8328 23.8877 22.9844 23.9065 23.4672 23.5971C23.7578 23.4096 24.025 23.0721 24.1516 22.7393C24.2406 22.5002 24.25 22.3783 24.25 21.2205C24.25 19.969 24.25 19.9643 24.1422 19.8658C23.9688 19.7018 23.725 19.744 23.5375 19.9643C23.5328 19.969 23.5188 20.5362 23.5047 21.2252L23.4766 22.4721L23.3359 22.6783C23.2422 22.8096 23.1063 22.9268 22.9422 23.0065L22.6844 23.1377H12.25H1.81563L1.55781 23.0065C1.39375 22.9221 1.25781 22.8096 1.16406 22.6783L1.02344 22.4721L1.00938 15.7971L1 9.1221H1.64688C2.36406 9.1221 2.42031 9.10335 2.48125 8.80803C2.5 8.70022 2.48125 8.63928 2.39219 8.53147L2.275 8.39553L1.6375 8.38147L0.995313 8.36272L1.00938 6.2721L1.02344 4.17678L1.17344 3.95647C1.27656 3.81116 1.40781 3.70335 1.57188 3.61897L1.81563 3.4971H3.11875H4.42188V4.03616C4.42188 4.70647 4.51562 5.00179 4.84375 5.32522C5.39688 5.88303 6.30625 5.88303 6.85938 5.32522C7.1875 5.00179 7.28125 4.70647 7.28125 4.03616V3.4971H12.2266H17.1719V4.03616C17.1719 4.70647 17.2656 5.00179 17.5938 5.32522C18.1469 5.88303 19.0563 5.88303 19.6094 5.32522C19.9375 5.00179 20.0312 4.70647 20.0312 4.03616V3.4971H21.3578H22.6844L22.9281 3.61897C23.0922 3.70335 23.2234 3.81116 23.3266 3.95647L23.4766 4.17678L23.4906 6.2721L23.5047 8.3721H13.8063C6.84531 8.3721 4.06563 8.38616 3.95781 8.42366C3.87813 8.45178 3.78906 8.51272 3.76563 8.5596C3.69063 8.70491 3.71406 8.92991 3.8125 9.02835C3.90625 9.1221 3.96719 9.1221 13.7031 9.1221H23.5L23.5094 13.6971L23.5234 18.2721L23.6547 18.3846C23.8141 18.5205 23.9641 18.5299 24.1281 18.3987L24.25 18.3002L24.2406 11.1705L24.2266 4.03616L24.1047 3.77835C23.9359 3.4221 23.6078 3.09866 23.2281 2.92053L22.9141 2.77053L21.475 2.75647L20.0312 2.74241V2.27835C20.0312 1.68303 19.9234 1.36897 19.6094 1.0596C19.2531 0.698658 18.6859 0.548658 18.2031 0.684597C17.7906 0.797096 17.3734 1.19553 17.2609 1.57991C17.1531 1.93616 17.35 2.18928 17.6781 2.1096C17.8188 2.07678 17.875 2.02053 17.9922 1.81428C18.1703 1.50022 18.3766 1.37366 18.6672 1.40178C18.9109 1.42991 19.0891 1.5471 19.1969 1.76741C19.2719 1.90803 19.2812 2.08147 19.2812 3.19241C19.2812 4.5846 19.2672 4.66897 18.9859 4.87522C18.8031 5.01116 18.4 5.01116 18.2172 4.87522C17.9594 4.68772 17.9219 4.53303 17.9219 3.71741C17.9219 2.99553 17.9172 2.97678 17.8047 2.86428L17.6922 2.7471H12.4844H7.28125V2.27835C7.28125 1.91741 7.25781 1.75335 7.18281 1.54241C6.91094 0.820534 6.0625 0.454908 5.31719 0.740847ZM6.24531 1.51428C6.51719 1.71585 6.53125 1.8096 6.53125 3.19241C6.53125 4.30335 6.52188 4.47678 6.44688 4.61741C6.32031 4.87053 6.14219 4.97366 5.85156 4.97366C5.56094 4.97366 5.38281 4.87053 5.25156 4.61741C5.17656 4.4721 5.17188 4.32678 5.18125 3.13616C5.19531 1.8846 5.2 1.8096 5.29375 1.68303C5.50938 1.38772 5.95938 1.30803 6.24531 1.51428Z" fill="white"/>
<path d="M2.56094 10.3878C2.37344 10.4628 2.35938 10.5659 2.35938 11.8128C2.35938 12.9378 2.36406 13.0175 2.44844 13.1018C2.58438 13.2378 2.75313 13.2565 3.925 13.2378L4.99375 13.2237L5.10625 13.0925C5.21875 12.9612 5.21875 12.9565 5.21875 11.8175C5.21875 11.0628 5.2 10.6315 5.16719 10.5565C5.13438 10.4909 5.05 10.4159 4.97031 10.3878C4.80156 10.3315 2.71094 10.3268 2.56094 10.3878ZM4.46875 11.7706V12.4503H3.78906H3.10938V11.7706V11.0909H3.78906H4.46875V11.7706Z" fill="white"/>
<path d="M19.7453 10.6268C19.6188 10.6737 19.5156 10.8424 19.5156 11.0065C19.5156 11.0627 19.6562 11.2455 19.8531 11.4471L20.1859 11.794L19.8531 12.1408C19.4828 12.5205 19.4406 12.6424 19.6234 12.844C19.7219 12.9565 19.8063 12.9846 19.9984 12.9705C20.05 12.9705 20.2328 12.8252 20.4109 12.6518L20.7391 12.3377L21.0531 12.6471C21.3484 12.9377 21.4281 12.9846 21.6391 12.9705C21.7797 12.9612 21.9062 12.7924 21.9062 12.6096C21.9062 12.4643 21.8594 12.394 21.5969 12.1174L21.2828 11.794L21.5969 11.4658C21.9062 11.1377 21.9625 11.0065 21.8781 10.7862C21.8359 10.6783 21.5922 10.5658 21.4703 10.6033C21.4141 10.6174 21.2266 10.7721 21.0531 10.9408L20.7391 11.2502L20.4109 10.9362C20.2328 10.7627 20.0641 10.6221 20.0406 10.6221C20.0125 10.6221 19.9656 10.6127 19.9281 10.6033C19.8953 10.5893 19.8109 10.6033 19.7453 10.6268Z" fill="white"/>
<path d="M8.46719 11.3347L7.79687 12.005L7.48281 11.691C7.14062 11.3581 6.98125 11.2831 6.80312 11.3769C6.64844 11.4566 6.58281 11.5644 6.57812 11.7191C6.57812 11.8316 6.67187 11.9488 7.07969 12.366C7.59062 12.8816 7.70312 12.9566 7.9 12.8956C8.03125 12.8535 9.5125 11.4003 9.61094 11.2128C9.74219 10.9644 9.56406 10.6691 9.28281 10.6691C9.15156 10.6691 9.04844 10.7535 8.46719 11.3347Z" fill="white"/>
<path d="M12.686 11.3345L12.0157 12.0001L11.6688 11.6626C11.3032 11.3064 11.1907 11.2595 10.9938 11.4001C10.8344 11.5126 10.7875 11.6767 10.8625 11.8548C10.9469 12.0517 11.7719 12.8579 11.9313 12.8954C12.0016 12.9142 12.0953 12.9142 12.1422 12.9001C12.1891 12.8861 12.6016 12.497 13.061 12.0376C13.7922 11.3017 13.8907 11.1845 13.8907 11.0486C13.8907 10.847 13.7125 10.6689 13.511 10.6689C13.3797 10.6689 13.2719 10.7533 12.686 11.3345Z" fill="white"/>
<path d="M16.9188 11.3252L16.2531 11.9814L15.9953 11.7189C15.5922 11.3064 15.3859 11.2361 15.1797 11.4424C15.1 11.5174 15.0625 11.6064 15.0625 11.7143C15.0625 11.8502 15.1281 11.9346 15.5922 12.3939C16.0188 12.8158 16.1547 12.9189 16.2578 12.9189C16.3703 12.9189 16.5438 12.7689 17.2516 12.0658C18.0484 11.2736 18.1094 11.1986 18.1094 11.0439C18.1094 10.8236 17.9547 10.6689 17.7391 10.6689C17.6031 10.6689 17.5 10.7486 16.9188 11.3252Z" fill="white"/>
<path d="M19.4875 14.6111C19.3 14.7049 19.2812 14.8408 19.2812 16.0314C19.2812 17.1143 19.2859 17.1799 19.3797 17.2971L19.4734 17.4189H20.7156C21.8922 17.4189 21.9578 17.4143 22.0469 17.3252C22.1359 17.2361 22.1406 17.1705 22.1406 16.0174C22.1406 14.8924 22.1359 14.7939 22.0516 14.6955C21.9625 14.583 21.9578 14.583 20.7719 14.5736C20.0125 14.5689 19.5484 14.583 19.4875 14.6111ZM21.3906 15.9893V16.6689H20.7109H20.0312V15.9893V15.3096H20.7109H21.3906V15.9893Z" fill="white"/>
<path d="M15.4984 14.8408C15.3719 14.8924 15.2969 15.0283 15.2969 15.2111C15.2969 15.3236 15.3625 15.4268 15.6063 15.6846L15.9203 16.0127L15.6063 16.3361C15.3484 16.608 15.2969 16.6877 15.2969 16.8189C15.2969 17.0299 15.4563 17.1846 15.6719 17.1846C15.8078 17.1846 15.8828 17.133 16.15 16.8705L16.4641 16.5611L16.7969 16.8705C17.0875 17.1471 17.1484 17.1846 17.3078 17.1846C17.4531 17.1846 17.5141 17.1564 17.5891 17.0627C17.7672 16.833 17.7016 16.6455 17.2938 16.2518L17.0313 15.9939L17.3594 15.6564C17.5516 15.4596 17.6875 15.2768 17.6875 15.2252C17.6875 14.958 17.4391 14.7471 17.2094 14.8221C17.1484 14.8408 16.9656 14.9861 16.7922 15.1502L16.4875 15.4502L16.2297 15.1877C15.8688 14.8174 15.7234 14.7518 15.4984 14.8408Z" fill="white"/>
<path d="M4.21563 15.5393L3.55469 16.1956L3.21719 15.8674C2.8375 15.5112 2.70625 15.469 2.48125 15.6424C2.3875 15.7128 2.35938 15.7784 2.35938 15.9096C2.35938 16.069 2.40625 16.1299 2.875 16.5987C3.59688 17.3159 3.49844 17.3346 4.5625 16.2706C5.34063 15.4924 5.40625 15.4174 5.40625 15.2581C5.40625 15.0424 5.25156 14.8878 5.03125 14.8878C4.89062 14.8878 4.80156 14.9628 4.21563 15.5393Z" fill="white"/>
<path d="M8.46719 15.5534L7.80156 16.219L7.45 15.8815C7.16875 15.6096 7.075 15.544 6.95781 15.544C6.75625 15.544 6.57812 15.7268 6.57812 15.9237C6.57812 16.0502 6.65313 16.1487 7.075 16.5799C7.60938 17.1237 7.74063 17.194 7.97031 17.0721C8.17656 16.9643 9.61563 15.4924 9.64844 15.3518C9.68594 15.2065 9.57812 14.9627 9.46094 14.9159C9.22188 14.8268 9.14219 14.8784 8.46719 15.5534Z" fill="white"/>
<path d="M12.6858 15.5533L12.0155 16.2189L11.6686 15.8814C11.4671 15.6845 11.2843 15.5439 11.228 15.5439C10.9421 15.5439 10.7546 15.797 10.8483 16.0502C10.9046 16.2002 11.6546 16.9736 11.8421 17.072C12.0858 17.2033 12.189 17.133 13.0608 16.2517C13.8202 15.4924 13.8905 15.408 13.8905 15.258C13.8905 15.0424 13.7311 14.8877 13.5155 14.8877C13.3749 14.8877 13.2811 14.9627 12.6858 15.5533Z" fill="white"/>
<path d="M2.45312 18.9191C2.36406 19.0082 2.35938 19.0738 2.35938 20.2269C2.35938 21.3519 2.36406 21.4503 2.44844 21.5488C2.5375 21.6613 2.54219 21.6613 3.7 21.6753C4.94219 21.6894 5.07344 21.6707 5.16719 21.4691C5.2 21.3941 5.21875 20.9582 5.21875 20.2128C5.21875 19.13 5.21406 19.0644 5.12031 18.9472L5.02656 18.8253H3.78438C2.60781 18.8253 2.54219 18.83 2.45312 18.9191ZM4.46875 20.255V20.9347H3.78906H3.10938V20.255V19.5753H3.78906H4.46875V20.255Z" fill="white"/>
<path d="M6.67656 18.9472C6.58281 19.0644 6.57812 19.13 6.57812 20.2128C6.57812 20.9582 6.59688 21.3941 6.62969 21.4691C6.72344 21.6707 6.85469 21.6894 8.09688 21.6753C9.25469 21.6613 9.25938 21.6613 9.34844 21.5488C9.43281 21.4503 9.4375 21.3519 9.4375 20.2363C9.4375 19.0878 9.43281 19.0269 9.34375 18.9285C9.25 18.8253 9.22188 18.8253 8.00781 18.8253H6.77031L6.67656 18.9472ZM8.6875 20.255V20.9347H8.00781H7.32812V20.255V19.5753H8.00781H8.6875V20.255Z" fill="white"/>
<path d="M10.9328 18.9143L10.8203 19.0033V20.2268C10.8203 21.4361 10.8203 21.4502 10.9281 21.5533C11.0313 21.6611 11.0453 21.6611 12.25 21.6611C13.4547 21.6611 13.4688 21.6611 13.5719 21.5533C13.6797 21.4502 13.6797 21.4361 13.6797 20.2268V19.0033L13.5672 18.9143C13.4688 18.8299 13.3703 18.8252 12.25 18.8252C11.1297 18.8252 11.0313 18.8299 10.9328 18.9143ZM12.9531 20.2549V20.9346H12.25H11.5469V20.2549V19.5752H12.25H12.9531V20.2549Z" fill="white"/>
<path d="M15.1562 18.9285C15.0672 19.0269 15.0625 19.0878 15.0625 20.2363C15.0625 21.3519 15.0672 21.4503 15.1516 21.5488C15.2406 21.6613 15.2453 21.6613 16.4031 21.6753C17.6453 21.6894 17.7766 21.6707 17.8703 21.4691C17.9031 21.3941 17.9219 20.9582 17.9219 20.2128C17.9219 19.13 17.9172 19.0644 17.8234 18.9472L17.7297 18.8253H16.4922C15.2781 18.8253 15.25 18.8253 15.1562 18.9285ZM17.1719 20.255V20.9347H16.4922H15.8125V20.255V19.5753H16.4922H17.1719V20.255Z" fill="white"/>
</svg>
