<svg width="24" height="24" viewBox="0 0 24 24" fill="none" xmlns="http://www.w3.org/2000/svg">
<path d="M3.46094 1.03106C2.98281 1.18106 2.60781 1.47169 2.37344 1.86075C2.05938 2.39043 2.07813 1.72481 2.07813 11.7936C2.07813 17.9295 2.06406 20.967 2.03125 21.0842C1.90938 21.5154 1.49219 21.8436 0.976563 21.9139C0.648438 21.9607 0.53125 22.0732 0.53125 22.3404C0.53125 22.4811 0.559375 22.542 0.653125 22.617C0.770313 22.7107 0.835938 22.7154 1.975 22.7154H3.17031L3.71875 22.4248L4.26719 22.1342L4.58594 22.4248C5.00781 22.8092 5.05 22.8092 5.80938 22.3826L6.4 22.0545L7.00469 22.3826C7.3375 22.5654 7.66094 22.7154 7.72656 22.7154C7.7875 22.7154 8.15781 22.5889 8.54688 22.4342L9.25 22.1529L9.71406 22.4342C9.96719 22.5889 10.2344 22.7154 10.3 22.7154C10.3656 22.7154 10.675 22.5889 10.9844 22.4342L11.5422 22.1529L12.1469 22.4342L12.7469 22.7154H13.9516H15.1516L15.5641 22.9217C16.9609 23.6295 18.5641 23.7561 20.0219 23.2826C22.0141 22.6311 23.5375 20.8732 23.8984 18.8061C24.0344 18.0279 23.9734 16.9217 23.7484 16.1576C23.3922 14.9201 22.5391 13.7576 21.4375 13.0123C20.4953 12.3748 19.1547 11.9857 18.0484 12.0373L17.6875 12.0514V11.1748V10.2982L20.1156 10.2842L22.5391 10.2701L22.8531 10.1201C23.2656 9.92794 23.6031 9.59044 23.7953 9.17794L23.9453 8.86387L23.9594 7.49512L23.9734 6.12169L23.8563 6.0045L23.7391 5.88731H22.2859H20.8328L20.8188 4.13887L20.8047 2.39512L20.6453 2.067C20.4438 1.65919 20.1297 1.34981 19.7172 1.14356L19.3984 0.988873L11.5234 0.979498C5.25156 0.97481 3.61094 0.984184 3.46094 1.03106ZM17.1719 1.917C16.9 2.37637 16.9141 2.05293 16.8906 7.33106L16.8672 12.1732L16.3891 12.3326C15.4891 12.6326 14.8328 13.0451 14.1438 13.7342C12.9672 14.9107 12.3672 16.4529 12.4563 18.0748C12.5312 19.467 12.9859 20.5498 13.9844 21.7404L14.1344 21.9186H13.5438H12.9578L12.3156 21.6139C11.9641 21.4451 11.6125 21.3092 11.5375 21.3092C11.4672 21.3092 11.1719 21.4264 10.8906 21.567C10.6094 21.7076 10.3563 21.8248 10.3328 21.8248C10.3094 21.8248 10.0938 21.7076 9.85469 21.567C9.60625 21.417 9.3625 21.3092 9.2875 21.3092C9.2125 21.3092 8.84219 21.4357 8.4625 21.5904L7.77344 21.8764L7.16406 21.5389C6.78906 21.3326 6.49844 21.1967 6.41406 21.1967C6.32031 21.1967 6.0625 21.3092 5.71094 21.5061L5.15313 21.8201L4.91406 21.5951C4.58125 21.2764 4.44531 21.2014 4.29063 21.2295C4.22031 21.2436 3.89219 21.4076 3.55469 21.5857C3.07656 21.8482 2.90313 21.9186 2.74844 21.9186C2.52813 21.9186 2.50938 21.8951 2.61719 21.7451C2.65938 21.6889 2.725 21.5482 2.77188 21.4404C2.84688 21.2529 2.85156 20.5873 2.875 11.9107L2.89844 2.58262L3.00156 2.39512C3.13281 2.15137 3.32031 1.97794 3.57813 1.86075C3.78906 1.767 3.85 1.76231 10.525 1.76231H17.2609L17.1719 1.917ZM19.3516 1.87481C19.6328 2.00606 19.8063 2.18419 19.9328 2.46544C20.0266 2.67168 20.0312 2.76075 20.0312 5.56387C20.0312 7.28887 20.05 8.5545 20.0781 8.7045C20.1063 8.84512 20.1859 9.0795 20.2563 9.22481L20.3922 9.49669H19.0375H17.6828L17.6969 6.08418C17.7109 2.21231 17.6875 2.45606 18.1094 2.07637C18.4797 1.74356 18.925 1.67325 19.3516 1.87481ZM23.1719 7.63106C23.1719 8.53106 23.1672 8.59669 23.0594 8.82168C22.9375 9.08419 22.6328 9.37481 22.3891 9.4545C22.3 9.48262 22.0938 9.49669 21.9297 9.48731C21.5359 9.46387 21.2359 9.28106 21.0344 8.94356C20.8469 8.63418 20.8281 8.517 20.8281 7.51387V6.68419H22H23.1719V7.63106ZM18.8031 12.8717C21.2031 13.1764 23.05 15.1592 23.1578 17.5639C23.2234 18.9889 22.7547 20.2123 21.7516 21.2482C20.7297 22.3029 19.4172 22.8232 17.9734 22.7482C16.7172 22.6826 15.5969 22.1857 14.7063 21.2904C12.9859 19.5607 12.7656 16.9357 14.1719 14.9389C15.2219 13.4576 17.0266 12.6514 18.8031 12.8717Z" fill="white"/>
<path d="M5.18587 5.47497C5.04994 5.5406 4.96556 5.75153 5.00775 5.92966C5.07337 6.23435 4.77337 6.2156 9.90619 6.2156H14.5796L14.6781 6.10778C14.8234 5.9531 14.8187 5.68591 14.664 5.53591L14.5515 5.41872L9.92025 5.42341C6.77962 5.42341 5.25619 5.44216 5.18587 5.47497Z" fill="white"/>
<path d="M5.27969 7.84189C5.13906 7.87002 4.98438 8.07158 4.98438 8.23096C4.98438 8.30127 5.02656 8.41377 5.08281 8.48408L5.17656 8.60596H9.8875C14.5328 8.60596 14.5937 8.60596 14.6875 8.51221C14.7906 8.40908 14.8141 8.14658 14.7344 7.99658C14.7109 7.94971 14.6219 7.88877 14.5422 7.86064C14.4344 7.82314 13.0703 7.80908 9.8875 7.81377C7.40781 7.81846 5.33594 7.83252 5.27969 7.84189Z" fill="white"/>
<path d="M5.10154 10.3638C4.93748 10.5231 4.94685 10.7294 5.12029 10.9075L5.26091 11.0435L9.92966 11.0341L14.6031 11.02L14.6922 10.9075C14.8187 10.7528 14.8094 10.4763 14.6734 10.3497L14.5656 10.2466H9.88748H5.21404L5.10154 10.3638Z" fill="white"/>
<path d="M5.18587 12.6934C5.04994 12.759 4.96556 12.9699 5.00775 13.148C5.07337 13.448 4.82494 13.434 9.39525 13.434C13.5296 13.434 13.5484 13.434 13.6749 13.3355C13.7734 13.2605 13.7968 13.1996 13.7968 13.0355C13.7968 12.8715 13.7734 12.8105 13.6749 12.7355C13.5484 12.6371 13.5296 12.6371 9.41869 12.6418C6.62962 12.6418 5.25619 12.6605 5.18587 12.6934Z" fill="white"/>
<path d="M5.23741 15.0747C4.98897 15.1731 4.91397 15.4872 5.08272 15.7028L5.17647 15.8247H8.57022H11.964L12.0577 15.7028C12.189 15.5388 12.1796 15.3419 12.0437 15.1825L11.9312 15.0513L8.63116 15.0419C6.82179 15.0372 5.28897 15.0513 5.23741 15.0747Z" fill="white"/>
<path d="M5.10154 17.5825C4.93748 17.7419 4.94685 17.9481 5.12029 18.1263L5.26091 18.2622L8.37341 18.2528C11.3031 18.2388 11.4953 18.2341 11.5844 18.1544C11.7578 17.995 11.739 17.6153 11.5469 17.5122C11.4906 17.4841 10.2859 17.4653 8.33591 17.4653H5.21404L5.10154 17.5825Z" fill="white"/>
<path d="M17.9312 13.6828C17.8281 13.7906 17.8281 13.8093 17.8281 15.6046V17.4187H16.7125C15.6062 17.4187 15.5922 17.4187 15.4937 17.5265C15.2875 17.7421 15.3953 18.1218 15.6812 18.1921C15.7422 18.2062 16.375 18.2156 17.0922 18.2062L18.4 18.1921L18.5125 18.0609L18.625 17.9296V15.914C18.625 13.7952 18.6156 13.6828 18.414 13.6031C18.2453 13.5421 18.0297 13.5749 17.9312 13.6828Z" fill="white"/>
</svg>
