<svg width="25" height="25" viewBox="0 0 25 25" fill="none" xmlns="http://www.w3.org/2000/svg">
<path d="M0.870313 0.370995C0.785938 0.427244 0.664062 0.549118 0.607813 0.633493L0.5 0.79287V10.9741V21.1554L0.607813 21.3147C0.804688 21.6054 0.978125 21.6851 1.41875 21.6851H1.8125V22.0366C1.8125 22.4491 1.88281 22.6507 2.08906 22.8241C2.27188 22.9741 2.50625 23.0444 2.84844 23.0444H3.11563L3.13438 23.3866C3.14375 23.6632 3.17656 23.771 3.275 23.921C3.51875 24.2913 3.04063 24.2632 9.43438 24.2632H15.1438L16.8594 22.5522L18.5703 20.8413L18.5844 19.0413L18.5984 17.2413L18.9828 17.2085C19.1938 17.1944 19.4984 17.1569 19.6531 17.1335C20.4125 17.021 21.5891 16.5522 21.6922 16.3226C21.7953 16.1022 21.6172 15.7788 21.3875 15.7788C21.3266 15.7788 21.1016 15.8632 20.8859 15.9616C19.4422 16.6413 17.8906 16.6226 16.4609 15.9241C16.2031 15.7976 15.8563 15.5913 15.6969 15.4694L15.3969 15.2491L17.1031 13.5429C18.0359 12.6101 18.8234 11.8413 18.8516 11.8413C18.9406 11.8413 23.3984 13.0272 23.4359 13.0601C23.5297 13.1444 23.0938 13.9788 22.6625 14.5413C22.4 14.8882 22.3719 15.0616 22.5547 15.2397C22.8172 15.5069 23.0516 15.3663 23.5391 14.6304C24.2188 13.6085 24.5 12.6476 24.5 11.3632C24.5 9.821 23.9656 8.47568 22.9156 7.37881C21.8797 6.296 20.5719 5.696 19.0063 5.58349L18.5469 5.55068V4.45849C18.5469 3.40381 18.5422 3.36631 18.4391 3.21162C18.2422 2.92099 18.0688 2.84131 17.6281 2.84131H17.2344V2.49912C17.2344 1.86631 16.9391 1.57568 16.2922 1.57568H15.9313L15.9172 1.18662C15.9031 0.858494 15.8797 0.764744 15.7719 0.60537C15.5281 0.235056 16.1797 0.263182 8.17344 0.263182H1.02969L0.870313 0.370995ZM15.0969 0.994431C15.1531 1.01787 15.1719 1.09287 15.1719 1.29912V1.57568L11.0188 1.58506L6.86094 1.59912L6.76719 1.72568C6.6875 1.83349 6.67813 1.88506 6.71563 2.03037C6.74375 2.14287 6.8 2.22724 6.875 2.26474C6.96875 2.31162 8.01406 2.32568 11.7406 2.32568H16.4844V2.58349V2.84131H10.1H3.71094L3.52813 2.94912C3.41094 3.01474 3.30313 3.13193 3.23281 3.25849L3.125 3.46474V12.8819V22.2991L2.85781 22.2851L2.58594 22.271L2.57188 12.3007L2.5625 2.33037L3.92188 2.31631C5.42188 2.30224 5.39844 2.30693 5.45 1.99287C5.46875 1.87099 5.45 1.80068 5.375 1.70224L5.27656 1.57568H3.84219C2.44531 1.57568 2.40781 1.58037 2.225 1.67881C2.12188 1.73974 1.98594 1.87099 1.925 1.97881L1.8125 2.17099V11.5507V20.9351H1.53125H1.25V10.9788C1.25 3.05693 1.26406 1.01787 1.31094 0.999119C1.39531 0.961618 15.0078 0.961618 15.0969 0.994431ZM17.8156 3.66631C17.8297 3.70849 17.8438 4.16787 17.8438 4.68818V5.63975L17.6469 5.66787C17.3 5.71474 16.6203 5.93506 16.2078 6.12724C14.8063 6.78349 13.6766 8.04912 13.1844 9.51162C12.9594 10.196 12.8984 10.5851 12.8984 11.396C12.9031 12.2257 12.9688 12.6522 13.2125 13.3413C13.7469 14.8647 14.9 16.1022 16.3813 16.7444C16.7563 16.9038 17.5719 17.1382 17.7547 17.1382C17.8391 17.1382 17.8438 17.2038 17.8438 18.7085V20.2741L16.4703 20.2882L15.0922 20.3022L14.9188 20.4382C14.5813 20.6913 14.5625 20.7897 14.5625 22.2569V23.5601H9.29375C6.39688 23.5601 3.99219 23.546 3.95 23.5319C3.87969 23.5038 3.875 22.5851 3.875 13.5804C3.875 8.11943 3.88906 3.63818 3.90781 3.62412C3.92188 3.60537 7.05313 3.59131 10.8641 3.59131C17.1313 3.59131 17.7875 3.59599 17.8156 3.66631ZM19.3906 6.38037C19.9625 6.46474 20.4031 6.60068 20.3844 6.68506C20.375 6.72256 19.925 7.74443 19.3813 8.95381L18.3922 11.1616L16.625 12.9382L14.8531 14.7147L14.6141 14.3913C12.6688 11.7616 13.7375 7.96943 16.775 6.71318C17.6609 6.34756 18.4906 6.23974 19.3906 6.38037ZM21.5188 7.18662C21.9828 7.49131 22.6859 8.21787 22.9953 8.71943C23.3 9.20693 23.5391 9.82568 23.6656 10.4351C23.7406 10.796 23.7547 11.0116 23.7406 11.5694C23.7313 11.9491 23.7078 12.2726 23.6938 12.2866C23.6609 12.3194 19.3438 11.1944 19.2828 11.1382C19.2406 11.1007 21.0828 6.96631 21.1438 6.96631C21.1625 6.96631 21.3313 7.06474 21.5188 7.18662ZM16.3484 21.9616C15.8563 22.4726 15.4203 22.9179 15.3828 22.9507C15.3219 23.0022 15.3125 22.8991 15.3125 22.0507C15.3125 21.521 15.3266 21.0757 15.3453 21.0616C15.3594 21.0429 15.7953 21.0288 16.3109 21.0288H17.2438L16.3484 21.9616Z" fill="white"/>
<path d="M5.96563 6.12725C5.81094 6.24912 5.79219 6.53975 5.9375 6.68506C6.03125 6.77881 6.09219 6.77881 9.64063 6.77881C13.1891 6.77881 13.25 6.77881 13.3438 6.68506C13.4047 6.62412 13.4375 6.53037 13.4375 6.40381C13.4375 6.27725 13.4047 6.1835 13.3438 6.12256C13.25 6.02881 13.1891 6.02881 9.66875 6.02881C6.12031 6.02881 6.0875 6.02881 5.96563 6.12725Z" fill="white"/>
<path d="M5.97035 8.70068C5.81097 8.82725 5.79222 9.11787 5.93754 9.26318C6.03129 9.35693 6.09222 9.35693 8.84379 9.35693C11.5953 9.35693 11.6563 9.35693 11.75 9.26318C11.8625 9.15068 11.8766 8.85537 11.7782 8.71943C11.7125 8.63506 11.6188 8.63037 8.90004 8.61631C6.11097 8.60693 6.09222 8.60693 5.97035 8.70068Z" fill="white"/>
<path d="M5.96563 11.2835C5.81094 11.4054 5.79219 11.696 5.9375 11.8413C6.02656 11.9304 6.09219 11.9351 8.46875 11.9351C10.8453 11.9351 10.9109 11.9304 11 11.8413C11.0938 11.7476 11.1313 11.4522 11.0563 11.3444C10.9578 11.1944 10.8125 11.1851 8.45469 11.1851C6.13438 11.1851 6.0875 11.1851 5.96563 11.2835Z" fill="white"/>
<path d="M8.38439 15.1696C8.32814 15.1931 8.25783 15.2681 8.23439 15.3337C8.20627 15.404 8.18752 15.9384 8.18752 16.5337V17.6071H7.44221C6.76252 17.6071 6.68752 17.6165 6.57502 17.7056L6.45314 17.7993V19.1587V20.5134H6.26564C5.90939 20.5134 5.72189 20.865 5.93283 21.1275L6.02189 21.24L9.36877 21.254C11.7266 21.2634 12.7485 21.2493 12.8375 21.2118C13.0766 21.1134 13.1188 20.7337 12.9078 20.5837C12.8516 20.5462 12.7297 20.5134 12.6313 20.5134H12.4531V18.7134V16.9087L12.3313 16.815C12.2188 16.7259 12.1438 16.7165 11.4641 16.7165H10.7188V16.0837C10.7188 15.4087 10.6813 15.2587 10.4985 15.1743C10.3625 15.1134 8.54377 15.1087 8.38439 15.1696ZM9.96877 18.1931V20.5134H9.45314H8.93752V18.1931V15.8728H9.45314H9.96877V18.1931ZM11.7031 18.99V20.5134H11.211H10.7188V18.99V17.4665H11.211H11.7031V18.99ZM8.18752 19.4353V20.5134H7.69533H7.20314V19.4353V18.3571H7.69533H8.18752V19.4353Z" fill="white"/>
</svg>
