<svg width="25" height="23" viewBox="0 0 25 23" fill="none" xmlns="http://www.w3.org/2000/svg">
<path d="M14.828 0.527832C14.2984 0.602831 13.6187 0.762207 13.1265 0.930956C12.4655 1.15596 11.514 1.63877 10.9843 2.01377C10.4359 2.40752 9.60148 3.23252 9.23585 3.74814C8.6546 4.56377 8.24679 5.56221 8.0921 6.52314L8.01241 7.03408L7.63741 7.06221C6.0296 7.19814 4.28116 7.87783 2.94523 8.89033C1.57648 9.92627 0.592101 11.4778 0.320226 13.0153C0.226476 13.5638 0.226476 14.5903 0.324913 15.1575C0.517101 16.2778 1.05616 17.4122 1.82023 18.3122L2.0921 18.631L2.11554 19.0856C2.14835 19.8216 1.91398 20.5013 1.42648 21.0825C1.21554 21.331 1.18741 21.3825 1.18741 21.5794C1.18741 21.7528 1.21085 21.8231 1.30929 21.9216C1.42648 22.0341 1.46398 22.0435 1.86241 22.0435C2.89835 22.0435 4.05616 21.6075 4.9421 20.895L5.26554 20.6325L5.5796 20.7263C6.55929 21.0169 7.5296 21.1247 8.78116 21.0919C9.55929 21.0731 9.84991 21.045 10.3093 20.9466C13.5859 20.2528 16.0187 17.8716 16.4265 14.9466L16.478 14.5622L17.0734 14.506C17.7062 14.445 18.4046 14.3138 18.9202 14.1638L19.2343 14.07L19.5577 14.3325C20.4437 15.045 21.6015 15.481 22.6374 15.481C23.0359 15.481 23.0734 15.4716 23.1905 15.3591C23.289 15.2606 23.3124 15.1903 23.3124 15.0169C23.3124 14.82 23.2843 14.7685 23.0734 14.52C22.5859 13.9388 22.3515 13.2591 22.3843 12.5231L22.4077 12.0685L22.6796 11.7497C23.4577 10.831 23.9874 9.70596 24.1796 8.54814C24.3015 7.84033 24.2593 6.67783 24.0952 6.04502C23.7952 4.90596 23.2046 3.88877 22.328 3.01221C21.1234 1.80283 19.553 0.991894 17.6968 0.616894C17.2937 0.537207 16.9937 0.513769 16.164 0.499706C15.5968 0.495018 14.9968 0.504395 14.828 0.527832ZM17.1859 1.54033C20.228 1.96221 22.6749 4.02939 23.1999 6.62158C23.3171 7.20283 23.2702 8.26221 23.1015 8.87158C22.8765 9.68721 22.4499 10.47 21.8405 11.1872C21.4655 11.6325 21.414 11.806 21.414 12.6685C21.414 13.32 21.4796 13.6903 21.6765 14.1544C21.7796 14.4028 21.7655 14.4028 21.2734 14.2013C20.814 14.0185 20.3546 13.7138 19.8999 13.306C19.5155 12.9544 19.4546 12.9403 19.0187 13.095C18.5687 13.2497 17.8421 13.4138 17.2749 13.4888C16.4171 13.6013 16.4968 13.6388 16.4077 13.0763C16.1687 11.6185 15.4562 10.3013 14.3359 9.25596L13.9749 8.91846H17.1155H20.2515L20.378 8.79658C20.5515 8.61846 20.5515 8.28096 20.378 8.10283L20.2515 7.98096H16.3984H12.5452L12.1515 7.79814C11.364 7.43721 10.2671 7.14658 9.38116 7.06689C8.96398 7.02939 8.98273 7.06221 9.09054 6.53721C9.32491 5.38877 9.84991 4.43252 10.7265 3.55127C12.339 1.93408 14.7062 1.19346 17.1859 1.54033ZM9.1796 8.04658C9.67179 8.07471 10.328 8.20596 10.8859 8.37939C13.2718 9.13877 15.0015 10.9388 15.4093 13.0903C15.503 13.5638 15.503 14.5294 15.4187 15.0122C15.2218 16.1138 14.6546 17.1544 13.7734 18.0356C12.414 19.395 10.5718 20.1263 8.49991 20.1263C7.44523 20.1263 6.39991 19.9669 5.5421 19.6763C5.03585 19.5028 4.99366 19.5122 4.59991 19.8685C4.14523 20.2763 3.7046 20.5669 3.23585 20.7591C3.02491 20.8435 2.82804 20.9185 2.79991 20.9185C2.77648 20.9185 2.82804 20.7028 2.9171 20.4356C3.07648 19.9763 3.08116 19.9294 3.08585 19.2778C3.08585 18.3638 3.03898 18.1997 2.65929 17.7497C2.23741 17.2575 2.00773 16.906 1.74523 16.3528C1.39835 15.6216 1.27648 15.1294 1.24835 14.281C1.21085 13.2966 1.3421 12.6872 1.75929 11.8294C2.65929 9.99658 4.70773 8.56221 7.02335 8.14033C7.44991 8.06533 8.35929 7.99033 8.6171 8.01377C8.69679 8.01846 8.94991 8.03721 9.1796 8.04658Z" fill="white"/>
<path d="M11.9031 5.29033C11.8047 5.38877 11.7812 5.45908 11.7812 5.63721C11.7812 5.81533 11.8047 5.88564 11.9031 5.98408C12.0016 6.08252 12.0719 6.10596 12.25 6.10596C12.4281 6.10596 12.4984 6.08252 12.5969 5.98408C12.6953 5.88564 12.7188 5.81533 12.7188 5.63721C12.7188 5.45908 12.6953 5.38877 12.5969 5.29033C12.4984 5.19189 12.4281 5.16846 12.25 5.16846C12.0719 5.16846 12.0016 5.19189 11.9031 5.29033Z" fill="white"/>
<path d="M13.7781 5.29033C13.6797 5.38877 13.6562 5.45908 13.6562 5.63721C13.6562 5.81533 13.6797 5.88564 13.7781 5.98408L13.9047 6.10596H17.0781H20.2516L20.3781 5.98408C20.4766 5.88564 20.5 5.81533 20.5 5.63721C20.5 5.45908 20.4766 5.38877 20.3781 5.29033L20.2516 5.16846H17.0781H13.9047L13.7781 5.29033Z" fill="white"/>
<path d="M4.12187 12.7903C4.02344 12.8888 4 12.9591 4 13.1372C4 13.4466 4.15937 13.606 4.46875 13.606C4.64687 13.606 4.71719 13.5825 4.81562 13.4841C4.98906 13.306 4.98906 12.9685 4.81562 12.7903C4.71719 12.6919 4.64687 12.6685 4.46875 12.6685C4.29062 12.6685 4.22031 12.6919 4.12187 12.7903Z" fill="white"/>
<path d="M5.99678 12.7903C5.82334 12.9685 5.82334 13.306 5.99678 13.4841L6.12334 13.606H9.29678H12.4702L12.5968 13.4841C12.6952 13.3856 12.7187 13.3153 12.7187 13.1372C12.7187 12.9591 12.6952 12.8888 12.5968 12.7903L12.4702 12.6685H9.29678H6.12334L5.99678 12.7903Z" fill="white"/>
<path d="M4.12178 15.6028C3.94834 15.781 3.94834 16.1185 4.12178 16.2966L4.24834 16.4185H8.35928H12.4702L12.5968 16.2966C12.7702 16.1185 12.7702 15.781 12.5968 15.6028L12.4702 15.481H8.35928H4.24834L4.12178 15.6028Z" fill="white"/>
</svg>
