<svg width="23" height="25" viewBox="0 0 23 25" fill="none" xmlns="http://www.w3.org/2000/svg">
<path d="M4.35943 0.314257C3.92818 0.487694 3.70318 0.881445 3.70318 1.46738V1.85176L2.73286 1.86582C1.77661 1.87988 1.75318 1.88457 1.47661 2.01113C0.9563 2.25488 0.590676 2.71426 0.473488 3.2627C0.431301 3.45488 0.421926 5.92051 0.431301 13.2283L0.445363 22.9361L0.632863 23.3064C0.853176 23.733 1.14849 24.0096 1.57036 24.1643L1.83286 24.2627L11.311 24.2533L20.7891 24.2393L21.0563 24.1127C21.4079 23.9486 21.7219 23.6252 21.9047 23.2408L22.0547 22.9268L22.0688 13.2236C22.0829 3.04238 22.0875 3.22988 21.8813 2.82207C21.7266 2.51738 21.3563 2.16113 21.0329 2.01582C20.7469 1.87988 20.7282 1.87988 19.7719 1.86582L18.7969 1.85176V1.46269C18.7969 0.975195 18.6516 0.64707 18.3375 0.426758C18.15 0.300194 18.0938 0.286133 17.7001 0.27207C17.1844 0.253319 16.9875 0.323631 16.7204 0.637695C16.5282 0.862694 16.4532 1.12051 16.4532 1.54707V1.85645H11.2501H6.04693V1.54707C6.04693 1.12051 5.97193 0.862694 5.77974 0.637695C5.52661 0.342382 5.32505 0.262695 4.86567 0.267382C4.65005 0.267382 4.42505 0.290819 4.35943 0.314257ZM5.1938 1.13457C5.27818 1.23301 5.29693 1.30801 5.29693 1.55644V1.85645H4.87505H4.45318V1.55644C4.45318 1.17676 4.4813 1.11113 4.65943 1.03144C4.84693 0.947069 5.05786 0.989258 5.1938 1.13457ZM17.8079 1.01738C18.0047 1.08769 18.0469 1.18144 18.0469 1.54707V1.85645H17.625H17.2032V1.55644C17.2032 1.22832 17.3063 1.03613 17.4985 0.998632C17.5547 0.989258 17.6157 0.975195 17.6297 0.970507C17.6438 0.970507 17.7235 0.989258 17.8079 1.01738ZM3.71255 3.30019C3.72661 3.97051 3.7313 4.00332 3.85786 4.19082C4.09224 4.55176 4.59849 4.77207 4.91724 4.66426C5.08599 4.60332 5.1563 4.50019 5.1563 4.30332C5.1563 4.13457 5.00161 3.98926 4.77192 3.94707C4.49536 3.89551 4.45318 3.79707 4.45318 3.15957V2.60645H10.4532H16.4532V3.15957C16.4532 3.84863 16.5235 4.11582 16.7672 4.35019C17.0063 4.5752 17.2219 4.67832 17.4844 4.68769C17.775 4.69238 17.9063 4.58457 17.9063 4.33144C17.9063 4.12051 17.775 3.96582 17.5969 3.96582C17.5266 3.96582 17.4188 3.90957 17.3391 3.82988C17.2032 3.69394 17.2032 3.68457 17.2032 3.15019V2.60645H18.8579C20.7001 2.60645 20.7188 2.61113 21.0329 2.93926C21.3141 3.23926 21.3282 3.32832 21.3282 5.18926V6.87207H13.786H6.24849L6.12193 6.97051C5.95786 7.10176 5.95318 7.34551 6.11724 7.50488L6.22974 7.62207H13.7813H21.3282V12.2252C21.3282 16.7814 21.3282 16.8283 21.2297 17.0252C21.1735 17.1471 21.061 17.2736 20.9625 17.3346C20.7938 17.4377 20.7469 17.4424 19.3125 17.4658L17.8313 17.4893L17.5219 17.6439C17.1563 17.8221 16.9172 18.0846 16.7766 18.4502C16.6969 18.6611 16.6875 18.8158 16.6875 20.0018C16.6875 20.8033 16.6688 21.3939 16.636 21.5205C16.561 21.8111 16.3172 22.0408 16.0125 22.1064C15.8485 22.1393 13.6219 22.1533 8.88286 22.1439L1.99224 22.1299L1.76724 22.0174C1.52349 21.9002 1.33599 21.6846 1.23755 21.4174C1.18599 21.2721 1.17661 19.9971 1.17193 14.4283V7.62207H3.13599C4.99224 7.62207 5.10474 7.61738 5.20786 7.53301C5.36255 7.40644 5.36255 7.08769 5.20786 6.96113C5.10474 6.87676 4.99224 6.87207 3.13599 6.87207H1.17193V5.18926C1.17193 3.32832 1.18599 3.23926 1.46724 2.93926C1.74849 2.64394 1.88911 2.60645 2.84536 2.60645H3.6938L3.71255 3.30019ZM19.1016 19.9033C18.1782 20.8268 17.4188 21.5814 17.4141 21.5768C17.4141 21.5721 17.4235 20.9252 17.4375 20.1377C17.461 18.7502 17.4657 18.7033 17.5641 18.5627C17.625 18.4783 17.761 18.3705 17.8688 18.3143C18.061 18.2205 18.1407 18.2158 19.4297 18.2158H20.7891L19.1016 19.9033ZM21.2813 22.758C21.211 23.0299 20.986 23.3018 20.7329 23.4236L20.5079 23.5361L11.4188 23.5502C5.39068 23.5549 2.24068 23.5455 2.06724 23.5127C1.92661 23.4846 1.72974 23.4143 1.6313 23.3486C1.45318 23.2314 1.25161 22.9314 1.20005 22.7064L1.17193 22.5799L1.43911 22.7064L1.71099 22.833H9.35161H16.9922L17.2735 22.6783C17.4985 22.5564 17.9438 22.1393 19.4297 20.6533L21.3047 18.7783L21.3188 20.6814C21.3235 21.8533 21.3094 22.6502 21.2813 22.758Z" fill="white"/>
<path d="M2.90625 9.06582C2.80313 9.12207 2.7 9.22988 2.63906 9.35645C2.53594 9.55332 2.53125 9.61895 2.53125 10.5236C2.53125 11.6346 2.56875 11.7893 2.90156 11.9721C3.07031 12.0705 3.14062 12.0752 4.0875 12.0752C5.18438 12.0752 5.30156 12.0518 5.50781 11.7752C5.59688 11.6533 5.60156 11.5783 5.60156 10.5283C5.60156 9.46895 5.59688 9.40332 5.50313 9.27676C5.30625 9.00488 5.18906 8.98145 4.07813 8.98145C3.19219 8.98145 3.04688 8.99082 2.90625 9.06582ZM4.875 10.5283V11.3252H4.07813H3.28125V10.5283V9.73145H4.07813H4.875V10.5283Z" fill="white"/>
<path d="M7.69685 9.06113C7.61248 9.10332 7.49529 9.20176 7.43904 9.28145C7.3406 9.41738 7.33591 9.47832 7.32185 10.4674C7.30779 11.4424 7.31248 11.5174 7.40623 11.6955C7.57966 12.0424 7.71091 12.0752 8.86404 12.0752C9.96091 12.0752 10.0828 12.0518 10.2797 11.7752C10.3781 11.6346 10.3828 11.5924 10.3828 10.5189C10.3828 9.47363 10.3781 9.40332 10.2844 9.27676C10.0875 9.00488 9.97029 8.98145 8.85935 8.98145C8.02498 8.98145 7.82341 8.99551 7.69685 9.06113ZM9.65623 10.5283V11.3252H8.85935H8.06248V10.5283V9.73145H8.85935H9.65623V10.5283Z" fill="white"/>
<path d="M12.4734 9.06582C12.3844 9.10801 12.2672 9.20645 12.2156 9.27676C12.1219 9.40332 12.1172 9.47363 12.1172 10.5189C12.1172 11.5924 12.1219 11.6346 12.2203 11.7752C12.4172 12.0518 12.5391 12.0752 13.6359 12.0752C14.7891 12.0752 14.9203 12.0424 15.0937 11.6955C15.1875 11.5174 15.1922 11.4424 15.1781 10.4674C15.1641 9.47832 15.1594 9.41738 15.0609 9.28145C14.8641 9.00488 14.7469 8.98145 13.6312 8.98145C12.7734 8.98145 12.6094 8.99082 12.4734 9.06582ZM14.4375 10.5283V11.3252H13.6406H12.8437V10.5283V9.73145H13.6406H14.4375V10.5283Z" fill="white"/>
<path d="M17.2547 9.06582C17.1656 9.10801 17.0484 9.20645 16.9969 9.27676C16.9031 9.40332 16.8984 9.46895 16.8984 10.5283C16.8984 11.5783 16.9031 11.6533 16.9922 11.7752C17.1984 12.0518 17.3156 12.0752 18.4125 12.0752C19.3594 12.0752 19.4297 12.0705 19.5984 11.9721C19.9313 11.7893 19.9688 11.6346 19.9688 10.5236C19.9688 9.61895 19.9641 9.55332 19.8656 9.35645C19.6828 9.00488 19.5938 8.98145 18.4219 8.98145C17.5547 8.98145 17.3906 8.99082 17.2547 9.06582ZM19.2188 10.5283V11.3252H18.4219H17.625V10.5283V9.73145H18.4219H19.2188V10.5283Z" fill="white"/>
<path d="M2.85936 13.4439C2.5453 13.6595 2.52655 13.7533 2.54061 14.9205C2.55467 15.8861 2.55936 15.9705 2.65311 16.0877C2.88749 16.4064 2.90624 16.4111 4.02186 16.4252C5.01092 16.4392 5.04374 16.4392 5.2453 16.3314C5.60155 16.1392 5.62499 16.0549 5.62499 14.8642C5.62499 13.7111 5.60624 13.6267 5.28749 13.4345C5.14686 13.3502 5.04842 13.3408 4.07342 13.3408C3.05155 13.3408 3.00936 13.3455 2.85936 13.4439ZM4.87499 14.8877V15.6845H4.07811H3.28124V14.8877V14.0908H4.07811H4.87499V14.8877Z" fill="white"/>
<path d="M7.63594 13.4486C7.34063 13.6455 7.3125 13.7627 7.3125 14.8596C7.3125 15.7549 7.32188 15.858 7.41094 16.0408C7.48125 16.1861 7.56094 16.2658 7.70625 16.3361C7.88438 16.4252 7.99219 16.4346 8.85938 16.4346C9.96563 16.4346 10.1203 16.3971 10.3031 16.0643C10.4016 15.8955 10.4063 15.8252 10.4063 14.883C10.4063 13.758 10.3828 13.6455 10.0828 13.4486C9.92813 13.3455 9.88594 13.3408 8.85938 13.3408C7.83281 13.3408 7.79063 13.3455 7.63594 13.4486ZM9.65625 14.8877V15.6846H8.85938H8.0625V14.8877V14.0908H8.85938H9.65625V14.8877Z" fill="white"/>
<path d="M12.4172 13.4486C12.1172 13.6455 12.0938 13.758 12.0938 14.883C12.0938 15.8252 12.0984 15.8955 12.1969 16.0643C12.3797 16.3971 12.5344 16.4346 13.6406 16.4346C14.5078 16.4346 14.6156 16.4252 14.7938 16.3361C14.9391 16.2658 15.0188 16.1861 15.0891 16.0408C15.1781 15.858 15.1875 15.7549 15.1875 14.8596C15.1875 13.7627 15.1594 13.6455 14.8641 13.4486C14.7094 13.3455 14.6672 13.3408 13.6406 13.3408C12.6141 13.3408 12.5719 13.3455 12.4172 13.4486ZM14.4375 14.8877V15.6846H13.6406H12.8438V14.8877V14.0908H13.6406H14.4375V14.8877Z" fill="white"/>
<path d="M17.2547 13.5189C17.1656 13.5611 17.0484 13.6596 16.9969 13.7299C16.9031 13.8564 16.8984 13.9221 16.8984 14.9814C16.8984 16.0314 16.9031 16.1064 16.9922 16.2283C17.1984 16.5049 17.3156 16.5283 18.4125 16.5283C19.3594 16.5283 19.4297 16.5236 19.5984 16.4252C19.9313 16.2424 19.9688 16.0877 19.9688 14.9768C19.9688 14.0721 19.9641 14.0064 19.8656 13.8096C19.6828 13.458 19.5938 13.4346 18.4219 13.4346C17.5547 13.4346 17.3906 13.4439 17.2547 13.5189ZM19.2188 14.9814V15.7783H18.4219H17.625V14.9814V14.1846H18.4219H19.2188V14.9814Z" fill="white"/>
<path d="M2.85469 17.808C2.55938 18.0049 2.53125 18.1221 2.53125 19.2236C2.53125 20.3252 2.55938 20.4424 2.85469 20.6393C3.00938 20.7424 3.04688 20.7471 4.10625 20.7471H5.19375L5.34375 20.6252C5.61094 20.3955 5.625 20.3346 5.625 19.2236C5.625 18.1127 5.61094 18.0518 5.34375 17.8221L5.19375 17.7002H4.10625C3.04688 17.7002 3.00938 17.7049 2.85469 17.808ZM4.875 19.2236V20.0439H4.07813H3.28125V19.2236V18.4033H4.07813H4.875V19.2236Z" fill="white"/>
<path d="M7.64062 17.8033C7.34063 18.0049 7.3125 18.1174 7.3125 19.2236C7.3125 20.3299 7.34063 20.4424 7.64062 20.6439C7.8 20.7517 7.81875 20.7517 8.91094 20.7377L10.0219 20.7236L10.1531 20.6064C10.3828 20.3908 10.4063 20.2689 10.4063 19.2236C10.4063 18.1783 10.3828 18.0564 10.1531 17.8408L10.0219 17.7236L8.91094 17.7095C7.81875 17.6955 7.8 17.6955 7.64062 17.8033ZM9.65625 19.2236V20.0439H8.85938H8.0625V19.2236V18.4033H8.85938H9.65625V19.2236Z" fill="white"/>
<path d="M12.4922 17.747C12.3656 17.7986 12.2063 17.9767 12.1453 18.1361C12.1172 18.2111 12.0938 18.4361 12.0938 18.6424C12.0938 18.9799 12.1078 19.0267 12.2109 19.1299C12.2812 19.2049 12.3797 19.247 12.4688 19.247C12.5578 19.247 12.6562 19.2049 12.7266 19.1299C12.8297 19.0314 12.8438 18.9752 12.8438 18.708V18.4033H13.6406H14.4375V19.2236V20.0439H13.6453H12.8531L12.825 19.9267C12.8063 19.8517 12.7313 19.7767 12.6328 19.7299C12.4781 19.6549 12.4594 19.6549 12.3047 19.7299C12.0281 19.8611 12.0234 20.2455 12.3047 20.5502L12.4594 20.7236L13.5797 20.7377C14.6813 20.7517 14.7 20.7517 14.8594 20.6439C15.1594 20.4424 15.1875 20.3299 15.1875 19.2236C15.1875 18.122 15.1594 18.0049 14.8641 17.808C14.7094 17.7049 14.6719 17.7002 13.6453 17.7049C13.0641 17.7049 12.5438 17.7236 12.4922 17.747Z" fill="white"/>
</svg>
