<svg width="25" height="25" viewBox="0 0 25 25" fill="none" xmlns="http://www.w3.org/2000/svg">
<path d="M9.84363 0.557228C8.29676 0.716602 6.80144 1.29317 5.58269 2.20254C5.02488 2.62441 4.92176 2.73692 4.92176 2.93379C4.92176 3.1541 5.05301 3.29004 5.27801 3.29004C5.41394 3.29004 5.51707 3.23379 5.80769 2.99941C8.24051 1.03535 11.5311 0.725979 14.2639 2.20254C14.9296 2.56348 15.5014 2.99473 16.0921 3.58067C16.3921 3.88535 16.6405 4.15254 16.6405 4.17598C16.6405 4.19942 16.3124 4.79942 15.9139 5.51192C15.1546 6.8666 15.103 7.00254 15.2811 7.18067C15.3983 7.29785 15.6843 7.30723 15.8061 7.19942C15.8483 7.15723 16.1671 6.61817 16.5093 6.0041C17.0577 5.02442 17.1421 4.89785 17.1936 4.96816C17.3436 5.16973 17.7796 6.12598 17.9296 6.59473C18.1921 7.3916 18.2905 8.05254 18.2905 8.93848C18.2858 9.35098 18.2718 9.80567 18.2483 9.94629L18.2108 10.2041L17.1327 10.2275C16.4671 10.2416 16.0077 10.2744 15.9327 10.3072C15.7546 10.3869 15.478 10.64 15.3843 10.8088C15.3139 10.9354 15.2999 11.1932 15.2811 13.0119L15.2577 15.0697L14.8921 15.3182C13.8796 15.9979 12.5436 16.4807 11.3811 16.5838L11.0155 16.6166V12.726C11.0155 8.85879 11.0155 8.83535 10.9171 8.70879L10.8233 8.58692H6.89988H2.97176L2.98582 8.38535C3.08426 6.9791 3.58113 5.63379 4.46238 4.41035C4.73426 4.03535 4.76238 3.82442 4.56551 3.66973C4.39207 3.53379 4.20926 3.54317 4.05457 3.69785C3.83894 3.91817 3.28582 4.78066 3.04676 5.27754C2.58269 6.24317 2.33894 7.18067 2.24051 8.33848C2.19363 8.94316 2.19363 9.01348 2.26863 9.12598C2.31082 9.1916 2.39988 9.2666 2.46551 9.29004C2.53582 9.31816 4.09676 9.33692 6.42644 9.33692H10.2655V13.2416V17.151L10.3827 17.2588C10.4952 17.3666 10.5139 17.3666 11.1421 17.3385C12.4874 17.2775 13.9077 16.8369 15.0233 16.1432L15.2577 15.9979L15.2718 20.165L15.2811 24.3322L15.403 24.426C15.5249 24.5197 15.5764 24.5244 17.5405 24.5244H19.5514L19.6639 24.4072L19.7811 24.2947V22.8369V21.3791L19.6639 21.2666C19.5139 21.1119 19.2749 21.1072 19.1343 21.2572C19.0358 21.365 19.0311 21.3979 19.0311 22.5697V23.7744H17.5311H16.0311V17.4744V11.1697L16.153 11.076C16.2749 10.9822 16.3358 10.9775 17.5311 10.9775C18.6983 10.9775 18.7921 10.9822 18.8952 11.0666L19.0077 11.1557L19.0311 15.726C19.0499 19.3588 19.0686 20.3057 19.1155 20.3619C19.2702 20.5494 19.6358 20.4932 19.7296 20.2682C19.7671 20.1791 19.7811 18.8291 19.7718 15.5713L19.7577 11.001L19.6264 10.776C19.5093 10.5838 19.2093 10.326 19.0218 10.265C18.9936 10.2557 18.9983 9.99785 19.0311 9.59004C19.1764 7.84629 18.7499 6.08379 17.8124 4.53223C17.6811 4.31191 17.578 4.11504 17.5874 4.09629C17.5968 4.07754 17.7139 3.85723 17.8546 3.6041L18.1124 3.14942H20.5358H22.9639L23.0811 3.0416C23.2499 2.8916 23.2639 2.64785 23.1093 2.49317C23.0155 2.39942 22.9546 2.39942 20.3764 2.39942H17.7327L17.6389 2.50254C17.5874 2.56348 17.4327 2.80723 17.2968 3.0416L17.053 3.47754L16.7202 3.12129C15.6093 1.93067 13.978 1.03067 12.3186 0.693165C11.6061 0.547853 10.5093 0.486916 9.84363 0.557228Z" fill="white"/>
<path d="M19.1342 1.10098C18.9842 1.26035 18.9936 1.51816 19.153 1.64473C19.2748 1.73848 19.3264 1.74316 21.1123 1.74316C22.7202 1.74316 22.9592 1.73379 23.053 1.66816C23.203 1.56504 23.2592 1.39629 23.1983 1.2416C23.1045 0.993164 23.1327 0.997852 21.1123 0.993164H19.2327L19.1342 1.10098Z" fill="white"/>
<path d="M21.0046 8.45098C20.7562 8.54941 20.6952 8.81191 20.864 9.02754L20.9577 9.14941H22.4015C24.0515 9.14941 24.0468 9.14941 24.0468 8.80254C24.0468 8.65723 24.0187 8.57754 23.9484 8.51191C23.8546 8.42754 23.7515 8.42285 22.4812 8.41348C21.6609 8.40879 21.0702 8.42285 21.0046 8.45098Z" fill="white"/>
<path d="M20.8639 10.0682C20.7421 10.2229 20.7374 10.4197 20.8546 10.5604L20.9436 10.6729L22.3686 10.6869C23.7608 10.701 23.7983 10.6963 23.9202 10.6026C24.0796 10.476 24.0983 10.1854 23.953 10.0401C23.8639 9.951 23.7983 9.94631 22.4108 9.94631H20.9577L20.8639 10.0682Z" fill="white"/>
<path d="M0.960881 10.0869C0.749943 10.1666 0.735881 10.2369 0.764006 10.9213C0.867131 13.4947 2.24994 15.9416 4.45307 17.4228C4.90307 17.7228 5.77963 18.1869 6.10776 18.29C6.20151 18.3182 6.28119 18.3603 6.28119 18.3744C6.28119 18.3932 6.07026 18.8619 5.81244 19.415L5.34838 20.4228L3.35151 20.4463C1.43901 20.4697 1.34994 20.4744 1.28432 20.5588C1.19057 20.69 1.20463 20.9338 1.30776 21.0603L1.39682 21.1728L3.52494 21.1869C5.16557 21.1916 5.67651 21.1822 5.76557 21.1353C5.85463 21.0932 6.01401 20.7838 6.45463 19.8369C6.81557 19.0588 7.05463 18.5994 7.09213 18.6135C7.37807 18.6932 8.24057 18.815 8.70932 18.8385C9.26713 18.8666 9.28588 18.8619 9.39838 18.7588L9.51557 18.651V14.4838C9.51557 11.8541 9.49682 10.2838 9.46869 10.2275C9.44526 10.1807 9.35619 10.1197 9.27651 10.0916C9.09838 10.0307 1.11088 10.0213 0.960881 10.0869ZM8.76557 14.451V18.1072L8.49838 18.0791C8.21244 18.0463 7.39213 17.9103 7.36869 17.8916C7.36401 17.8869 7.45307 17.676 7.57026 17.4228C7.68744 17.1697 7.78119 16.9025 7.78119 16.8228C7.78119 16.5416 7.47182 16.3728 7.21401 16.5135C7.16244 16.5416 7.07807 16.6494 7.03119 16.7572C6.98432 16.865 6.87182 17.1182 6.77807 17.315L6.61401 17.676L6.31869 17.5588C3.65619 16.476 1.74838 13.94 1.51869 11.1744L1.48588 10.79H5.12807H8.76557V14.451Z" fill="white"/>
<path d="M20.8828 11.5635C20.8078 11.6338 20.7656 11.7322 20.7656 11.8213C20.7656 11.9104 20.8078 12.0088 20.8828 12.0791L20.9953 12.1963H22.4203C23.7844 12.1963 23.8453 12.1916 23.9437 12.1025C24.0984 11.9572 24.0844 11.6713 23.925 11.5447C23.8031 11.451 23.7469 11.4463 22.3969 11.4463H20.9953L20.8828 11.5635Z" fill="white"/>
<path d="M20.9062 15.6463C20.6906 15.74 20.4984 15.9229 20.3765 16.1572C20.2734 16.3447 20.2734 16.3494 20.2593 20.2354C20.2546 22.3775 20.2593 24.1729 20.2734 24.2338C20.2875 24.29 20.339 24.3791 20.3906 24.4307C20.4796 24.5197 20.5546 24.5244 22.514 24.5244C24.4968 24.5244 24.5484 24.5244 24.6468 24.426L24.75 24.3322L24.7406 20.2869L24.7265 16.2463L24.5953 16.0494C24.525 15.9416 24.3796 15.7963 24.2718 15.726L24.0796 15.5947L22.575 15.5854C21.3046 15.576 21.0421 15.5854 20.9062 15.6463ZM23.8593 16.3682C24.0421 16.4666 24.0468 16.5979 24.0468 20.24V23.7744H22.5234H21L21.0093 20.1463C21.0234 16.6541 21.0281 16.5135 21.1125 16.4197C21.2015 16.326 21.239 16.3213 22.4859 16.3213C23.2359 16.3213 23.8078 16.34 23.8593 16.3682Z" fill="white"/>
<path d="M1.42506 18.965C1.20006 19.0635 1.13912 19.3822 1.31256 19.5557C1.40162 19.6447 1.46724 19.6494 3.04224 19.6494H4.68287L4.77662 19.5275C4.95006 19.3072 4.87974 19.0447 4.62193 18.9463C4.42037 18.8713 1.60787 18.8854 1.42506 18.965Z" fill="white"/>
<path d="M10.9969 19.4854C10.65 19.6072 10.4109 19.865 10.3125 20.2072C10.2844 20.3057 10.2656 21.1682 10.2656 22.3354V24.2947L10.3828 24.4072L10.4953 24.5244H12.5063C14.4703 24.5244 14.5219 24.5244 14.6438 24.426L14.7656 24.3322V22.2838C14.7656 20.3104 14.7609 20.2354 14.6672 20.0385C14.55 19.79 14.2641 19.5416 14.0203 19.4713C13.7438 19.3869 11.2359 19.401 10.9969 19.4854ZM13.8984 20.2822L14.0156 20.3947V22.0869V23.7744H12.5156H11.0156V22.0869V20.3947L11.1328 20.2822L11.2453 20.165H12.5156H13.7859L13.8984 20.2822Z" fill="white"/>
</svg>
