<svg width="24" height="24" viewBox="0 0 24 24" fill="none" xmlns="http://www.w3.org/2000/svg">
<path d="M18.1107 0.716894C18.0732 0.763769 17.9935 0.923144 17.9373 1.06846C17.8529 1.30283 17.8154 1.34033 17.6654 1.39189C17.5716 1.42002 17.4123 1.48564 17.3185 1.53252C17.1451 1.62158 17.1451 1.62158 16.8779 1.50439C16.4607 1.32158 16.4373 1.32627 15.8888 1.86533C15.6216 2.13252 15.392 2.39502 15.3732 2.45596C15.3591 2.52627 15.392 2.68564 15.4716 2.86846C15.5935 3.17314 15.5935 3.17314 15.5045 3.34658C15.4576 3.44033 15.392 3.59971 15.3638 3.69346C15.3123 3.84814 15.2748 3.88096 15.0263 3.97002C14.6185 4.12002 14.6091 4.14346 14.6091 4.97783C14.6091 5.78877 14.5998 5.77002 15.0357 5.93408C15.2888 6.03252 15.3029 6.04658 15.4295 6.34658C15.5841 6.73096 15.5888 6.78721 15.4529 7.08721C15.2982 7.43408 15.3357 7.52314 15.8701 8.05283C16.3951 8.57314 16.442 8.59189 16.8779 8.39971L17.1357 8.28721L17.4873 8.43252C17.8435 8.58252 17.8435 8.58252 17.942 8.84971C18.1013 9.28096 18.1154 9.28564 18.9216 9.28564C19.7279 9.28564 19.742 9.27627 19.9107 8.84502C20.0138 8.58252 20.0138 8.58252 20.3795 8.43721L20.7404 8.29658L20.9841 8.40439C21.4107 8.59189 21.4576 8.57314 22.0013 8.02939C22.5451 7.48096 22.5685 7.42471 22.3763 6.99346L22.2685 6.76377L22.4138 6.39814L22.5545 6.03252L22.817 5.93877C23.2482 5.77939 23.2576 5.75596 23.2576 4.94971C23.2576 4.14346 23.2529 4.12939 22.8216 3.96533L22.5545 3.86689L22.4138 3.50127L22.2685 3.13564L22.3763 2.90596C22.5685 2.47939 22.5451 2.41377 22.0295 1.89814C21.7529 1.62627 21.5185 1.42939 21.4341 1.40596C21.3404 1.38252 21.2185 1.41064 21.0076 1.49502L20.717 1.61689L20.3607 1.46689C20.0138 1.32158 19.9998 1.30752 19.9295 1.09658C19.8873 0.974707 19.8123 0.824707 19.7607 0.759082C19.667 0.637207 19.6623 0.637207 18.9263 0.637207C18.2795 0.637207 18.1763 0.646582 18.1107 0.716894ZM19.2029 1.44346C19.2029 1.47627 19.2545 1.61221 19.3154 1.74346C19.4232 1.97783 19.442 1.99189 19.7513 2.09033C19.9248 2.14658 20.1826 2.25439 20.3138 2.32939C20.6045 2.48877 20.7451 2.49814 21.0263 2.36689L21.2373 2.27314L21.4201 2.45596L21.6029 2.63877L21.5045 2.86377C21.3779 3.14971 21.3826 3.21533 21.5326 3.51064C21.5982 3.64658 21.7107 3.90908 21.7763 4.10127C21.9029 4.46689 21.9123 4.47627 22.2638 4.62158L22.4841 4.71064V4.97314C22.4841 5.14658 22.4654 5.23096 22.4279 5.23096C22.3951 5.23096 22.2591 5.28252 22.1279 5.34346C21.8935 5.45127 21.8841 5.47002 21.7857 5.77471C21.7295 5.94814 21.6216 6.21064 21.542 6.36064C21.3779 6.68877 21.3779 6.74502 21.5045 7.03564L21.6029 7.26064L21.4201 7.44346L21.2373 7.62627L21.0123 7.52783C20.7216 7.40596 20.656 7.41064 20.3607 7.56064C20.2248 7.62627 19.9576 7.73877 19.7654 7.80439L19.4138 7.92627L19.2966 8.21689L19.1795 8.51221H18.931C18.7013 8.51221 18.6779 8.50283 18.6357 8.38096C18.4951 7.98252 18.4482 7.93564 18.0263 7.78564C17.806 7.70596 17.5529 7.59346 17.4591 7.53721C17.2529 7.41064 17.117 7.40596 16.8357 7.53252L16.6107 7.63096L16.4279 7.44346L16.2404 7.26064L16.3388 7.06846C16.4654 6.81533 16.4654 6.62783 16.3248 6.38877C16.2591 6.28096 16.1654 6.05596 16.1091 5.88721C15.9685 5.46533 15.9216 5.40908 15.6451 5.30596L15.406 5.22158V4.95439V4.68721L15.6357 4.60283C15.917 4.50439 15.992 4.42471 16.0623 4.15283C16.0951 4.03564 16.1888 3.79658 16.2779 3.62314C16.4607 3.25752 16.4701 3.13096 16.3388 2.84502L16.2451 2.63408L16.4279 2.45596L16.606 2.27314L16.831 2.37158C17.131 2.49814 17.2341 2.48877 17.5482 2.32471C17.6935 2.24502 17.9326 2.14658 18.0732 2.10908C18.4388 2.00127 18.4576 1.98252 18.6451 1.49033C18.6779 1.40127 18.7201 1.38721 18.9451 1.38721C19.1185 1.38721 19.2029 1.40596 19.2029 1.44346Z" fill="white"/>
<path d="M18.3733 2.76534C17.989 2.86377 17.614 3.07471 17.328 3.37002C16.3811 4.32627 16.4843 5.9294 17.5483 6.74033C17.9327 7.02627 18.2843 7.15752 18.7811 7.18565C19.4749 7.22783 20.0515 7.0169 20.5202 6.54815C21.664 5.4044 21.2421 3.41221 19.7327 2.84033C19.3952 2.70908 18.7296 2.67159 18.3733 2.76534ZM19.5593 3.65127C19.8593 3.80596 20.2015 4.18096 20.2999 4.4669C20.3983 4.74815 20.3936 5.15596 20.2952 5.44658C20.1827 5.77471 19.7327 6.22002 19.3952 6.33252C18.6968 6.56221 17.9093 6.21065 17.5999 5.53565C17.4405 5.1794 17.4499 4.68721 17.6233 4.33096C17.9796 3.6044 18.8608 3.29502 19.5593 3.65127Z" fill="white"/>
<path d="M4.5875 0.932519C4.49375 1.03096 4.48438 1.09189 4.48438 1.53721C4.48438 2.13721 4.54063 2.25439 4.85469 2.25439C5.15469 2.25439 5.25313 2.12314 5.27188 1.69189C5.30469 1.04971 5.20156 0.824707 4.86875 0.824707C4.74219 0.824707 4.65781 0.85752 4.5875 0.932519Z" fill="white"/>
<path d="M2.14057 1.57468C2.04682 1.66843 2.02807 1.74343 2.04682 1.92624C2.06088 2.07156 2.41713 2.69031 2.52963 2.76999C2.67025 2.86843 2.85775 2.85906 3.00307 2.74187C3.19057 2.59187 3.17182 2.34812 2.92807 1.93562C2.82025 1.74812 2.69838 1.57468 2.66088 1.54187C2.539 1.44812 2.24838 1.46687 2.14057 1.57468Z" fill="white"/>
<path d="M7.02969 1.58416C6.86094 1.76698 6.59375 2.30135 6.59375 2.45135C6.59375 2.64823 6.725 2.78885 6.93594 2.82635C7.09063 2.84979 7.12813 2.83573 7.26406 2.69041C7.48906 2.45135 7.7375 1.93573 7.7 1.78573C7.625 1.48573 7.23125 1.36854 7.02969 1.58416Z" fill="white"/>
<path d="M4.17969 2.49346C3.99219 2.52627 3.66406 2.64814 3.41563 2.77471C2.35625 3.29502 1.67188 4.41064 1.67188 5.60127C1.67188 6.24346 1.76094 6.53877 2.19688 7.39189C2.65156 8.27314 2.74531 8.60127 2.78281 9.44971C2.81094 10.12 2.84844 10.2466 3.08281 10.4528C3.22813 10.5888 3.26563 10.6544 3.26563 10.7856C3.26563 11.0294 3.37344 11.245 3.56563 11.3997C3.70625 11.5122 3.73438 11.5638 3.73438 11.7138C3.73438 11.9763 3.88906 12.2388 4.12344 12.3794C4.31094 12.4872 4.37656 12.4966 4.85469 12.4966C5.28594 12.4966 5.4125 12.4825 5.5625 12.4028C5.79688 12.281 5.96563 12.0231 6.0125 11.7278C6.03594 11.5544 6.07812 11.4653 6.18125 11.381C6.35469 11.2356 6.43438 11.0763 6.47656 10.795C6.5 10.6403 6.54219 10.5466 6.6125 10.5044C6.82812 10.3638 6.90781 10.12 6.93594 9.54346C6.9875 8.55908 7.10938 8.13721 7.57812 7.29346C7.98594 6.55752 8.02344 6.40752 8.02344 5.60596C8.02344 4.98721 8.00938 4.89346 7.89688 4.58408C7.71406 4.08252 7.50781 3.75439 7.10938 3.35127C6.35469 2.59189 5.28125 2.27314 4.17969 2.49346ZM5.63281 3.35127C6.60781 3.69814 7.25 4.60283 7.25 5.62939C7.25 6.12158 7.17969 6.34658 6.83281 6.96533C6.52344 7.51846 6.30313 8.10908 6.21875 8.63877L6.1625 8.98096H5.95625H5.75V7.83252V6.68408H5.99844C6.77656 6.67939 7.2875 5.85439 6.93594 5.16064C6.63125 4.56064 5.84375 4.40596 5.32344 4.84658C5.07969 5.05752 4.95781 5.32002 4.95313 5.63877C4.95313 5.85439 4.93906 5.88721 4.85938 5.88721C4.77969 5.88721 4.76563 5.85439 4.76563 5.63877C4.76094 4.79033 3.84219 4.30283 3.13438 4.78096C2.83906 4.98252 2.70312 5.24971 2.70312 5.63877C2.70312 6.26689 3.125 6.68408 3.77188 6.68408H3.96875V7.83252V8.98096H3.76719H3.56563L3.50469 8.61533C3.41563 8.07158 3.24688 7.61221 2.91875 7.01221C2.57188 6.38408 2.46875 6.07939 2.46875 5.67158C2.46875 4.97783 2.69375 4.43408 3.19063 3.93721C3.5375 3.59033 3.84219 3.41221 4.29688 3.28564C4.64375 3.19189 5.2625 3.22002 5.63281 3.35127ZM3.86563 5.44658C3.94063 5.49814 3.96875 5.56377 3.96875 5.70439C3.96875 5.87783 3.95938 5.88721 3.82344 5.88721C3.60781 5.88721 3.5 5.81221 3.5 5.65283C3.5 5.53564 3.63594 5.37158 3.73438 5.37158C3.74844 5.37158 3.80938 5.40439 3.86563 5.44658ZM6.14844 5.48877C6.21406 5.54971 6.26562 5.62471 6.26562 5.65283C6.26562 5.76064 6.07344 5.88721 5.91406 5.88721C5.75938 5.88721 5.75 5.87783 5.75 5.72314C5.75 5.56377 5.87656 5.37158 5.98438 5.37158C6.0125 5.37158 6.0875 5.42314 6.14844 5.48877ZM4.95313 7.83252C4.95313 8.94814 4.94844 8.98096 4.85938 8.98096C4.77031 8.98096 4.76563 8.94814 4.76563 7.83252C4.76563 6.71689 4.77031 6.68408 4.85938 6.68408C4.94844 6.68408 4.95313 6.71689 4.95313 7.83252ZM6.125 9.82471C6.125 9.85283 5.67031 9.87158 4.85938 9.87158C4.04844 9.87158 3.59375 9.85283 3.59375 9.82471C3.59375 9.79658 4.04844 9.77783 4.85938 9.77783C5.67031 9.77783 6.125 9.79658 6.125 9.82471ZM5.69375 10.7247C5.675 10.7716 5.45938 10.7903 4.86875 10.7997C4.17031 10.8091 4.0625 10.7997 4.0625 10.7388C4.0625 10.6778 4.17969 10.6685 4.8875 10.6685C5.525 10.6685 5.70781 10.6825 5.69375 10.7247ZM5.21094 11.6528C5.19688 11.6763 5.0375 11.6997 4.85469 11.6997C4.67188 11.6997 4.53125 11.681 4.53125 11.6528C4.53125 11.6247 4.68125 11.606 4.8875 11.606C5.10781 11.606 5.22969 11.6247 5.21094 11.6528Z" fill="white"/>
<path d="M0.359256 3.35582C0.101444 3.61364 0.209256 3.86676 0.710819 4.16207C1.12332 4.41051 1.26863 4.43395 1.45613 4.28864C1.55457 4.21364 1.57801 4.1527 1.57801 3.99332C1.57801 3.75426 1.50769 3.67926 1.05769 3.43082C0.710819 3.23864 0.499881 3.2152 0.359256 3.35582Z" fill="white"/>
<path d="M8.6 3.47297C8.21562 3.69797 8.14062 3.78235 8.14062 3.99797C8.14062 4.19016 8.25781 4.33078 8.44531 4.36828C8.57656 4.39172 8.66562 4.3636 8.95625 4.19953C9.15312 4.09641 9.35469 3.9511 9.40625 3.88547C9.53281 3.72141 9.52812 3.51985 9.38281 3.37922C9.21406 3.20578 9.02187 3.22922 8.6 3.47297Z" fill="white"/>
<path d="M10.8357 7.36377C9.96853 7.59814 9.31697 8.06689 8.84822 8.79346C8.19666 9.80127 8.17322 11.1794 8.7826 12.206C8.98885 12.5528 9.37322 12.9935 9.61228 13.1575C9.78572 13.2747 9.82322 13.3403 9.72478 13.3403C9.69197 13.3403 9.44822 13.4341 9.18103 13.5466C7.38572 14.3153 5.99353 16.0356 5.63728 17.9341C5.52947 18.4872 5.53885 18.6653 5.67947 18.8013L5.79197 18.9185H7.42322H9.04978L8.67947 19.1763C8.46853 19.3216 8.28103 19.495 8.24822 19.5653C8.17322 19.7388 8.16385 23.4278 8.23885 23.6481C8.26697 23.7278 8.32791 23.8169 8.37478 23.8403C8.42635 23.8685 9.21853 23.8872 10.3857 23.8872H12.3076L12.4013 23.7653C12.4998 23.6435 12.4998 23.5966 12.4998 21.281V18.9185H12.9451H13.3904V21.281C13.3904 23.5966 13.3904 23.6435 13.4888 23.7653L13.5826 23.8872H15.5045C16.6717 23.8872 17.4638 23.8685 17.5154 23.8403C17.5623 23.8169 17.6232 23.7278 17.6513 23.6481C17.7263 23.4372 17.7263 13.7903 17.6513 13.5794C17.5904 13.406 17.4873 13.3403 17.2717 13.3403C17.1498 13.345 16.9388 13.4669 16.3248 13.8935L15.5279 14.4466L15.1998 14.1981C14.8248 13.9169 14.0935 13.5325 13.7045 13.406L13.4373 13.3216L13.8123 12.9794C14.2482 12.5763 14.5482 12.1216 14.7357 11.5825C14.8529 11.2403 14.8623 11.1466 14.8623 10.5513C14.8623 9.95596 14.8529 9.86221 14.7357 9.52002C14.3654 8.45595 13.4467 7.60752 12.406 7.36377C12.031 7.27939 11.1592 7.2747 10.8357 7.36377ZM12.2701 8.16533C13.3388 8.47939 14.0935 9.46377 14.0935 10.5513C14.0935 11.9013 12.9685 13.0216 11.6092 13.0216C10.4138 13.0216 9.37322 12.1356 9.17166 10.9403C8.9701 9.78252 9.70603 8.59189 10.8592 8.19814C11.2388 8.06689 11.8857 8.05283 12.2701 8.16533ZM12.5795 13.9263C12.7857 13.9638 13.1045 14.0481 13.292 14.1138C13.8357 14.2966 14.8763 14.8778 14.7967 14.9481C14.7826 14.9575 14.4967 15.1591 14.1545 15.3981C13.8123 15.6325 13.5029 15.8716 13.4607 15.9325C13.4045 16.0169 13.3904 16.2138 13.3904 17.0763V18.1216H12.9451H12.4998V17.6481C12.4998 17.1888 12.4951 17.1747 12.3638 17.0388C12.2185 16.8935 12.0873 16.87 11.9232 16.9544C11.867 16.9872 11.4592 17.2591 11.0138 17.5638L10.2076 18.1216H8.30447C7.25916 18.1216 6.40603 18.1122 6.40603 18.1028C6.40603 18.0935 6.4576 17.9013 6.52322 17.6763C7.09041 15.7263 8.75447 14.245 10.7607 13.9028C11.1451 13.8372 12.1857 13.8513 12.5795 13.9263ZM16.906 18.8247V23.1372H15.5467H14.1873V19.7481V16.3591L15.5138 15.4403C16.2404 14.9341 16.8498 14.5169 16.8732 14.5169C16.892 14.5122 16.906 16.4528 16.906 18.8247ZM11.7029 20.606V23.1372H10.3435H8.98416L8.99353 21.5388L9.0076 19.9356L10.3435 19.0075C11.0795 18.4966 11.6842 18.0794 11.6935 18.0794C11.6982 18.0747 11.7029 19.2138 11.7029 20.606Z" fill="white"/>
<path d="M22.2875 9.79658C22.0297 9.93721 18.8 12.1778 18.7016 12.2903L18.5938 12.4075V18.0466V23.6856L18.7016 23.7841C18.8094 23.8872 18.8234 23.8872 20.7313 23.8872H22.6578L22.7563 23.7794L22.8594 23.6716V16.8231C22.8594 10.3685 22.8547 9.97002 22.7797 9.87627C22.6672 9.74502 22.4469 9.71221 22.2875 9.79658ZM22.0625 17.0435V23.1372H20.7266H19.3906V17.9435L19.3953 12.7544L20.6938 11.8544C21.4062 11.3622 22.0063 10.9544 22.0297 10.9544C22.0484 10.9497 22.0625 13.6919 22.0625 17.0435Z" fill="white"/>
<path d="M4.97188 21.7356C3.99219 22.406 3.15781 23.0013 3.11563 23.0528C3.05469 23.1185 3.03125 23.2263 3.03125 23.4138C3.03125 23.6341 3.05 23.6997 3.13906 23.7841C3.24688 23.8872 3.26094 23.8872 5.16875 23.8872H7.09531L7.19375 23.7794C7.29688 23.6716 7.29688 23.6435 7.29688 22.2138C7.29688 20.8122 7.29219 20.756 7.19844 20.6341C7.12344 20.5403 7.0625 20.5122 6.92656 20.5122C6.76719 20.5122 6.52813 20.6622 4.97188 21.7356ZM6.48594 23.1231C6.47656 23.1325 6.00313 23.1325 5.43594 23.1278L4.40469 23.1138L5.44063 22.3966L6.47656 21.6841L6.49063 22.3919C6.49531 22.7856 6.49531 23.1138 6.48594 23.1231Z" fill="white"/>
</svg>
