<svg width="24" height="24" viewBox="0 0 24 24" fill="none" xmlns="http://www.w3.org/2000/svg">
<path d="M2.85918 0.707715C1.95918 0.890527 1.10605 1.43896 0.60918 2.16084C0.40293 2.46084 0.168555 2.99053 0.0748047 3.36084C-0.0236328 3.76865 -0.0236328 4.63115 0.0748047 5.03896C0.379492 6.28115 1.34043 7.2749 2.60137 7.6499C2.86387 7.72959 3.24355 7.73428 7.9123 7.74834L12.9373 7.76709L13.0545 7.6499C13.2092 7.49521 13.2092 7.27959 13.0545 7.12959L12.942 7.0124H9.34199H5.74668L5.98105 6.7874C6.70293 6.1124 7.07793 5.22646 7.07793 4.1999C7.07793 3.19209 6.7498 2.3999 6.04199 1.68271L5.74668 1.3874H14.5217H23.2967V4.1999V7.0124H18.7732H14.2451L14.1326 7.12959C13.9779 7.27959 13.9779 7.49521 14.1326 7.64521L14.2451 7.7624H19.0217H23.7982L23.8967 7.65459L23.9998 7.54678V4.19053V0.829589L23.8779 0.735839L23.7514 0.637402L13.4576 0.642089C5.17949 0.646777 3.10293 0.656152 2.85918 0.707715ZM4.10137 1.45771C4.64981 1.5749 5.07637 1.81396 5.50762 2.2499C5.91543 2.6624 6.13105 3.0374 6.26699 3.55771C6.3748 3.98896 6.33262 4.73428 6.17324 5.14678C5.85449 5.98115 5.1748 6.62334 4.33574 6.88584C3.8998 7.02178 3.14512 7.03115 2.76543 6.8999C2.03418 6.65146 1.58887 6.30928 1.16699 5.68115C0.618555 4.85615 0.604492 3.5999 1.13887 2.75615C1.78574 1.72959 2.95762 1.21865 4.10137 1.45771Z" fill="white"/>
<path d="M2.91563 2.24515C2.85 2.31547 2.8125 2.4139 2.8125 2.52172C2.8125 2.76078 2.98125 2.88734 3.28594 2.88734H3.51562V4.45765V6.03265L3.63281 6.14515C3.78281 6.29984 4.02188 6.30453 4.1625 6.15453C4.26562 6.04672 4.26562 6.03265 4.26562 4.19515V2.3389L4.15781 2.24047C4.05938 2.14672 3.99844 2.13734 3.53438 2.13734C3.05156 2.13734 3.00938 2.14672 2.91563 2.24515Z" fill="white"/>
<path d="M19.8516 8.48877C19.7719 8.53096 18.9516 9.31377 18.0328 10.2372L16.3594 11.9153V12.1356C16.3594 12.4028 16.4531 12.5669 16.65 12.6325C16.7297 12.6606 17.1094 12.6841 17.4891 12.6841H18.1875V18.1872V23.695L18.3094 23.7888C18.4312 23.8825 18.4828 23.8872 20.1891 23.8872H21.9422L22.0547 23.77L22.1719 23.6575V18.1685V12.6841H22.875C23.6297 12.6841 23.8547 12.6372 23.9484 12.4591C24.0187 12.3231 24.0141 12.0466 23.9344 11.8966C23.8125 11.6716 20.6625 8.56846 20.475 8.48877C20.2547 8.39971 20.0344 8.39971 19.8516 8.48877ZM22.4203 11.9341C21.8109 11.9669 21.6422 12.0372 21.5109 12.3231C21.4266 12.5106 21.4219 12.7169 21.4219 17.8263V23.1372H20.1797H18.9375L18.9281 17.8028C18.9141 12.5716 18.9141 12.4685 18.8203 12.3138C18.6422 12.0091 18.5203 11.9575 17.9437 11.9435L17.4234 11.9247L18.8016 10.5466L20.1797 9.16846L21.5531 10.5372L22.9219 11.9106L22.4203 11.9341Z" fill="white"/>
<path d="M2.93438 8.74635C1.79531 8.9526 0.848438 9.6651 0.351562 10.6917C0.0796875 11.2589 0 11.6104 0 12.262C0 12.9135 0.0796875 13.2651 0.351562 13.8323C0.778125 14.7089 1.5 15.337 2.44688 15.6557C3.50156 16.0073 4.78594 15.787 5.7 15.0932L5.85 14.9854L7.89844 14.9714L9.94688 14.9573L10.0359 14.8448C10.1578 14.6948 10.1484 14.4839 10.0078 14.3479L9.89531 14.2307H8.2125H6.525L6.70781 13.8651C7.20938 12.876 7.20938 11.6479 6.70781 10.6542L6.525 10.2932H10.7625H15V12.262V14.2307H13.0828H11.1609L11.0672 14.3526C10.9453 14.5073 10.9406 14.7042 11.0578 14.8448L11.1469 14.9573H13.3594H15.5719L15.6609 14.8448C15.7453 14.7417 15.75 14.6292 15.75 12.262C15.75 9.89479 15.7453 9.78229 15.6609 9.67917L15.5719 9.56667L10.7016 9.54323L5.83594 9.51979L5.46563 9.27604C4.92656 8.92448 4.35 8.74167 3.67969 8.72292C3.39844 8.71354 3.06094 8.72292 2.93438 8.74635ZM4.10156 9.51979C4.65 9.63698 5.07656 9.87604 5.50781 10.312C6.08438 10.8932 6.32813 11.4745 6.32813 12.262C6.32813 13.0495 6.08438 13.6307 5.50781 14.212C5.07188 14.6526 4.65 14.887 4.07812 15.0089C2.71875 15.2948 1.29375 14.4464 0.867188 13.0964C0.703125 12.5807 0.703125 11.9479 0.867188 11.4323C1.1625 10.4948 1.90313 9.79635 2.87813 9.54323C3.28594 9.43542 3.66563 9.43073 4.10156 9.51979Z" fill="white"/>
<path d="M3.09844 10.2046C2.65313 10.3406 2.25 10.8187 2.25 11.2171C2.25 11.3718 2.27344 11.4327 2.37188 11.5077C2.5125 11.6202 2.70469 11.6343 2.82188 11.5406C2.86875 11.5077 2.94375 11.3859 2.99531 11.264C3.15938 10.8796 3.53906 10.7999 3.82031 11.0906C3.93281 11.2077 3.94688 11.2546 3.92813 11.4374C3.9 11.6765 3.72656 11.9484 2.89688 13.0734C2.32969 13.8374 2.24531 14.039 2.42813 14.2218C2.55938 14.3531 2.85938 14.3812 3.83438 14.3624C4.62656 14.3484 4.65 14.3437 4.73906 14.2359C4.84219 14.1093 4.85625 13.8656 4.7625 13.7343C4.70156 13.6546 4.61719 13.6406 4.07813 13.6218L3.46406 13.5984L3.9375 12.9421C4.19531 12.5812 4.4625 12.1734 4.52813 12.0374C4.67813 11.7421 4.72969 11.2406 4.64062 10.9734C4.56563 10.7484 4.25625 10.4109 4.02188 10.289C3.80625 10.1812 3.32344 10.1343 3.09844 10.2046Z" fill="white"/>
<path d="M3.02335 16.7904C2.12335 16.9357 1.2421 17.4514 0.726476 18.1264C0.449913 18.492 0.168663 19.0826 0.0702256 19.4857C-0.0235244 19.8935 -0.0235244 20.7701 0.0749131 21.1639C0.431163 22.6076 1.60773 23.6482 3.09835 23.8498C3.87648 23.9529 4.69679 23.7748 5.39991 23.3576C5.76554 23.1373 6.26241 22.6639 6.47804 22.331L6.62335 22.106H7.78116C8.88273 22.106 8.94835 22.1014 9.06554 22.0076C9.23898 21.8717 9.23898 21.5904 9.06554 21.4545C8.94835 21.3607 8.88273 21.356 7.94523 21.356H6.95148L7.01241 21.0842C7.09679 20.742 7.09679 19.9076 7.01241 19.5607L6.95148 19.2935H9.70773H12.4687V20.3248V21.356H11.3859C10.7859 21.356 10.2702 21.3748 10.2234 21.4029C10.078 21.4779 10.0077 21.7076 10.078 21.8717C10.1109 21.9514 10.1765 22.0357 10.2234 22.0592C10.2702 22.0873 10.8749 22.106 11.639 22.106C12.914 22.106 12.9749 22.1014 13.0968 22.0076L13.2187 21.9139V20.3295V18.7451L13.1109 18.6467L13.003 18.5435H9.81554H6.63273L6.5671 18.4357C6.13116 17.7279 5.29679 17.1045 4.47648 16.8842C4.19523 16.8045 3.28585 16.7482 3.02335 16.7904ZM4.35929 17.6435C4.74366 17.7795 5.01085 17.9201 5.27335 18.1357C5.96241 18.6982 6.32804 19.4529 6.32804 20.3248C6.32804 21.1076 6.0796 21.6935 5.50773 22.2748C5.07179 22.7154 4.64991 22.9498 4.07804 23.0717C2.72335 23.3576 1.29366 22.5045 0.867101 21.1592C0.703038 20.6389 0.703038 20.0107 0.867101 19.4904C1.17648 18.506 2.04835 17.7467 3.09366 17.5404C3.34679 17.4935 4.10616 17.5545 4.35929 17.6435Z" fill="white"/>
<path d="M3.18746 18.2575C2.75621 18.3981 2.42808 18.745 2.32496 19.1716C2.27808 19.3591 2.37183 19.556 2.54058 19.6263C2.75152 19.7153 2.9109 19.6356 3.02808 19.3872C3.17808 19.0778 3.35152 18.9513 3.57652 18.9794C3.92808 19.0263 4.12027 19.3638 3.96558 19.6638C3.8859 19.8185 3.67496 19.9497 3.51558 19.9497C3.35621 19.9497 3.2484 20.0294 3.19215 20.1841C3.10308 20.4513 3.26246 20.6528 3.60933 20.7185C4.07808 20.8028 4.16715 21.3981 3.74058 21.6185C3.45933 21.7638 3.12183 21.5903 3.06558 21.2669C2.99996 20.9013 2.78902 20.7419 2.50777 20.8591C2.32027 20.9388 2.26871 21.0747 2.31558 21.3888C2.39527 21.9606 2.9484 22.4341 3.53902 22.4341C4.20465 22.4341 4.78121 21.8528 4.78121 21.1825C4.78121 20.9622 4.64058 20.5497 4.5234 20.4185C4.45308 20.3388 4.45308 20.32 4.5609 20.1513C4.73433 19.8841 4.79527 19.6403 4.76715 19.3403C4.72965 18.9044 4.4859 18.5435 4.10152 18.3466C3.89996 18.2388 3.38902 18.1919 3.18746 18.2575Z" fill="white"/>
</svg>
