<svg width="19" height="20" viewBox="0 0 19 20" fill="none" xmlns="http://www.w3.org/2000/svg">
<path d="M6.63283 0.498144C6.47814 0.540331 0.792206 5.11064 0.745331 5.23252C0.684394 5.39189 0.689081 18.756 0.750019 19.0794C0.810956 19.4028 0.998456 19.6653 1.28908 19.8481L1.51408 19.9888H7.84689H14.1797L14.3719 19.8856C14.6203 19.7544 14.8735 19.4591 14.9438 19.22C14.986 19.0935 15 18.156 15 15.9294V12.8169L16.6406 11.1763C17.7375 10.0747 18.3 9.47939 18.3516 9.36221C18.4313 9.16064 18.4453 8.77158 18.3703 8.50908C18.3047 8.27471 17.5453 7.47314 17.2735 7.35127C16.9688 7.21533 16.7297 7.19658 16.4297 7.28564C16.1813 7.35596 16.1016 7.41689 15.5766 7.92783L15 8.49502V4.93721V1.37939L14.8875 1.14502C14.7703 0.891893 14.5594 0.685644 14.2969 0.563768C14.1516 0.498144 13.711 0.48877 10.4297 0.479393C8.39533 0.479393 6.68439 0.484081 6.63283 0.498144ZM14.0813 1.39814L14.2031 1.51064V5.40596V9.30127L11.8781 11.6263L9.55314 13.9513L9.25314 15.0856C8.93908 16.2716 8.91564 16.4216 9.01877 16.5528C9.17346 16.7591 9.27189 16.7497 10.5188 16.4263L11.6953 16.1169L12.9516 14.8653L14.2031 13.6138V16.2997V18.9856L14.086 19.0981L13.9735 19.2153H7.87971H1.78596L1.65471 19.1028L1.52346 18.9903L1.50939 12.3763L1.50002 5.76221H3.87658H6.25783L6.49221 5.64971C6.77346 5.51846 6.90002 5.38721 7.02658 5.10596C7.12033 4.90439 7.12502 4.80596 7.12502 3.07627V1.26221L10.5422 1.27158L13.9594 1.28564L14.0813 1.39814ZM6.22502 4.85752L6.12658 4.96533H4.20471H2.28752L4.29377 3.35752L6.30471 1.74971L6.31877 3.24971C6.32814 4.73564 6.32814 4.74971 6.22502 4.85752ZM16.9125 8.07783C16.9828 8.11533 17.1703 8.27939 17.3344 8.44814C17.6906 8.81846 17.7094 8.94971 17.461 9.22158L17.3016 9.39502L16.786 8.87939C16.2844 8.38721 16.2703 8.36377 16.35 8.27939C16.4344 8.18096 16.6875 8.01221 16.7485 8.01221C16.7672 8.01221 16.8422 8.04033 16.9125 8.07783ZM14.3578 12.3341L12 14.6919L11.4844 14.1763L10.9688 13.6606L13.3219 11.3075L15.6797 8.94971L16.1953 9.46533L16.711 9.98096L14.3578 12.3341ZM11.3531 15.3341C11.2922 15.395 9.97971 15.756 9.94221 15.7231C9.91408 15.6903 10.2656 14.3731 10.3266 14.3028C10.3641 14.256 10.4906 14.3544 10.8938 14.7575C11.311 15.1747 11.4 15.2872 11.3531 15.3341Z" fill="white"/>
<path d="M3.56242 8.02627C3.31398 8.15283 3.27179 8.47627 3.47804 8.66846C3.57648 8.75752 3.63742 8.76221 4.85617 8.76221C6.07023 8.76221 6.13117 8.75752 6.25304 8.66377C6.34211 8.59346 6.37492 8.52314 6.37492 8.41064C6.37492 7.98408 6.30929 7.96533 4.86554 7.96533C4.00304 7.96533 3.64679 7.98408 3.56242 8.02627Z" fill="white"/>
<path d="M3.5016 9.93408C3.36097 10.0466 3.3141 10.2153 3.37504 10.3841C3.47816 10.6466 3.2766 10.6325 7.49066 10.6372H11.3953L11.5078 10.52C11.625 10.4075 11.6578 10.2153 11.5969 10.0513C11.5125 9.84033 11.536 9.84033 7.46254 9.84033C3.70316 9.84033 3.61879 9.84033 3.5016 9.93408Z" fill="white"/>
<path d="M3.48761 11.8231C3.31417 11.9731 3.30948 12.2216 3.46886 12.395L3.57667 12.5122H6.73604H9.89542L10.0079 12.395C10.1532 12.2544 10.1626 12.006 10.036 11.8513L9.94698 11.7388L6.78292 11.7247L3.61886 11.7153L3.48761 11.8231Z" fill="white"/>
<path d="M3.48745 13.6981C3.30464 13.8575 3.30464 14.12 3.48745 14.2747L3.61401 14.3872H6.19214H8.77026L8.88276 14.27C9.02808 14.1294 9.03745 13.881 8.91089 13.7263L8.82183 13.6138L6.22026 13.5997L3.6187 13.5903L3.48745 13.6981Z" fill="white"/>
<path d="M3.48745 15.5778C3.38901 15.6622 3.3562 15.7278 3.3562 15.8638C3.3562 15.9997 3.38901 16.0653 3.48745 16.1497L3.61401 16.2622H5.81714H8.02026L8.13276 16.145C8.21245 16.07 8.24995 15.981 8.24995 15.8638C8.24995 15.7466 8.21245 15.6575 8.13276 15.5825L8.02026 15.4653H5.81714H3.61401L3.48745 15.5778Z" fill="white"/>
</svg>
