<svg width="25" height="23" viewBox="0 0 25 23" fill="none" xmlns="http://www.w3.org/2000/svg">
<path d="M1.60914 0.457519C0.723199 0.705957 0.160699 1.59658 0.306012 2.52002C0.395074 3.10596 0.774762 3.62158 1.31382 3.88877C1.56226 4.01064 1.62789 4.02002 2.10132 4.02002C2.57476 4.02002 2.64039 4.01064 2.8982 3.88408C3.82164 3.42939 4.20132 2.30439 3.73257 1.38096C3.55914 1.03877 3.13726 0.659082 2.79507 0.527832C2.43882 0.396582 1.94195 0.363769 1.60914 0.457519ZM2.57945 1.27314C3.0482 1.51221 3.28257 2.03252 3.13726 2.51064C3.04351 2.82002 2.88414 3.01221 2.59351 3.17158C1.91382 3.54189 1.04195 3.02627 1.03726 2.25283C1.03257 1.43252 1.86226 0.902832 2.57945 1.27314Z" fill="white"/>
<path d="M5.10616 1.04814C4.9421 1.17471 4.93741 1.45127 5.0921 1.59658C5.19991 1.69971 5.21866 1.69971 6.90147 1.69971H8.59835L8.71085 1.58252C8.78585 1.51221 8.82803 1.41377 8.82803 1.32471C8.82803 1.23564 8.78585 1.13721 8.71085 1.06689L8.59835 0.949707H6.91553C5.28428 0.949707 5.22803 0.954395 5.10616 1.04814Z" fill="white"/>
<path d="M22.3096 1.04814C22.2158 1.12314 22.1877 1.18408 22.1877 1.32002C22.1877 1.58252 22.333 1.69971 22.6611 1.69971H22.9143L22.0846 2.52939L21.2502 3.36377L20.8893 3.00283C20.2189 2.34189 20.2002 2.34658 19.0143 3.53721C18.5221 4.03408 18.1049 4.48877 18.0861 4.54971C18.0158 4.78877 18.2221 5.02783 18.4986 5.02783C18.5643 5.02783 18.8689 4.75596 19.408 4.22158L20.2189 3.41533L20.5611 3.74814C20.9596 4.13721 21.0346 4.18408 21.3018 4.18408C21.4986 4.18408 21.5127 4.17002 22.4783 3.21377L23.4533 2.24346V2.43096C23.4533 2.70283 23.533 2.89502 23.6689 2.96064C23.8377 3.03564 23.9408 3.02627 24.0814 2.91377L24.2033 2.82002V1.98096V1.14189L24.0814 1.04814C23.9643 0.959082 23.8939 0.949707 23.1955 0.949707C22.4971 0.949707 22.4268 0.959082 22.3096 1.04814Z" fill="white"/>
<path d="M5.10616 2.54814C4.9421 2.67471 4.93741 2.95127 5.0921 3.09658C5.19522 3.19502 5.2421 3.19971 6.12803 3.19971C7.04678 3.19971 7.05147 3.19971 7.16397 3.08252C7.23897 3.01221 7.28116 2.91377 7.28116 2.82471C7.28116 2.73564 7.23897 2.63721 7.16397 2.56689C7.05147 2.44971 7.04678 2.44971 6.1421 2.44971C5.29366 2.44971 5.22335 2.45439 5.10616 2.54814Z" fill="white"/>
<path d="M11.7483 4.13698C10.8061 4.21666 9.89208 4.48385 9.02021 4.93854C7.07021 5.94635 5.69677 7.81666 5.28427 10.0198C5.21396 10.376 5.19521 10.6948 5.1999 11.3557C5.1999 12.2932 5.2749 12.7667 5.52802 13.5401C5.80458 14.3932 6.42333 15.4667 6.99052 16.0807C7.18271 16.2917 7.23896 16.3245 7.38896 16.3245C7.61865 16.3245 7.7499 16.1932 7.7499 15.9682C7.7499 15.8276 7.69833 15.7339 7.4499 15.4385C5.5749 13.1885 5.40615 10.1229 7.02333 7.69948C7.33271 7.23541 8.12021 6.42448 8.58427 6.09166C10.2577 4.88698 12.3952 4.54479 14.3265 5.17291C16.2858 5.81041 17.8421 7.36666 18.4796 9.32604C18.7843 10.2729 18.8686 11.4401 18.6999 12.387C18.1702 15.3589 15.7093 17.5292 12.6624 17.712C11.5374 17.7823 10.2108 17.4729 9.21708 16.901C8.81396 16.676 8.60302 16.6432 8.45302 16.7932C8.32177 16.9245 8.32646 17.187 8.46708 17.3229C8.7624 17.6229 10.0749 18.162 10.9561 18.3495C11.6077 18.4854 12.9436 18.4995 13.6327 18.3682C14.2468 18.2557 14.978 18.0167 15.5265 17.7495L15.9671 17.5339L17.753 19.3151C19.6796 21.237 19.6515 21.2135 20.1483 21.2089C20.528 21.2042 20.739 21.0682 21.4468 20.3604C22.1546 19.6573 22.2765 19.4604 22.2811 19.0526C22.2811 18.6495 22.1921 18.5135 21.4233 17.7401C20.7905 17.1073 20.6968 17.0276 20.5561 17.0276C20.378 17.0276 20.1718 17.201 20.1718 17.3557C20.1718 17.5339 20.303 17.7026 20.9171 18.3167C21.3811 18.776 21.5311 18.9542 21.5311 19.0432C21.5311 19.2214 20.2796 20.4589 20.1015 20.4589C19.9936 20.4589 19.6796 20.1682 18.2921 18.7807C16.7827 17.2714 16.6186 17.0932 16.689 17.037C17.1108 16.737 17.8374 16.0057 18.1421 15.5792C18.1515 15.5651 18.3858 15.7807 18.6624 16.0526C19.178 16.5635 19.2999 16.6526 19.4686 16.6526C19.6233 16.6526 19.7968 16.4464 19.7968 16.2682C19.7968 16.1323 19.7218 16.0385 19.1874 15.5042L18.5827 14.8995L18.714 14.6651C18.9249 14.2901 19.1827 13.5964 19.3327 13.0151C19.7405 11.3979 19.539 9.56979 18.7983 8.08854C17.7577 6.02135 15.8077 4.5776 13.5624 4.21666C12.9858 4.12291 12.2874 4.09479 11.7483 4.13698Z" fill="white"/>
<path d="M1.73125 5.26221C1.21094 5.39346 0.71875 5.80127 0.49375 6.28408C0.38125 6.52314 0.367188 6.60752 0.367188 7.06689C0.367188 7.55439 0.376563 7.59658 0.517188 7.86377C0.704688 8.22471 0.990625 8.51064 1.35156 8.69814C1.61875 8.83877 1.66094 8.84814 2.14844 8.84814C2.60781 8.84814 2.69219 8.83408 2.92188 8.72627C3.32031 8.53408 3.59688 8.26221 3.79844 7.84971C3.96719 7.51689 3.97656 7.47002 3.97188 7.07158C3.97188 6.75283 3.94375 6.58408 3.87344 6.39658C3.68125 5.91377 3.29219 5.52939 2.81875 5.34658C2.53281 5.23877 1.99844 5.19658 1.73125 5.26221ZM2.47188 6.02158C2.59375 6.05908 2.75313 6.16689 2.90313 6.31689C3.29219 6.70127 3.34844 7.17471 3.0625 7.62471C2.87031 7.92471 2.60313 8.08877 2.26563 8.11221C1.91406 8.13564 1.68906 8.06064 1.44063 7.83096C0.835938 7.27314 1.04219 6.31221 1.825 6.03564C2.05469 5.95127 2.22344 5.95127 2.47188 6.02158Z" fill="white"/>
<path d="M20.5937 6.01221C20.4671 6.13877 20.4296 6.31689 20.4999 6.48564C20.5702 6.64971 20.6734 6.71533 20.8702 6.71533C21.0718 6.71533 21.1515 6.67314 21.2312 6.51846C21.3249 6.33564 21.2827 6.08721 21.1421 5.98877C20.9968 5.88564 20.7062 5.89971 20.5937 6.01221Z" fill="white"/>
<path d="M22.0142 5.96533C21.7939 6.05439 21.7423 6.39658 21.9205 6.56533C22.0236 6.66377 22.0658 6.66846 23.0455 6.66846C24.0017 6.66846 24.0673 6.66377 24.1564 6.57471C24.3017 6.42939 24.283 6.13877 24.1283 6.01689C24.0111 5.92314 23.9455 5.91846 23.0595 5.92314C22.5439 5.92314 22.0705 5.94189 22.0142 5.96533Z" fill="white"/>
<path d="M20.6875 7.38096C20.5563 7.45127 20.4531 7.62471 20.4531 7.78408C20.4531 7.94814 20.6969 8.16846 20.875 8.16846C21.0719 8.16846 21.2969 7.94814 21.2969 7.75127C21.2969 7.46064 20.9453 7.24971 20.6875 7.38096Z" fill="white"/>
<path d="M21.9155 7.47939C21.7749 7.62939 21.7796 7.85908 21.9296 8.00439C22.0421 8.12158 22.0468 8.12158 23.0218 8.12158C23.9452 8.12158 24.0109 8.11689 24.128 8.02314C24.2827 7.90127 24.3015 7.61064 24.1562 7.46533C24.0671 7.37627 24.0015 7.37158 23.0405 7.37158C22.0327 7.37158 22.014 7.37158 21.9155 7.47939Z" fill="white"/>
<path d="M11.5283 8.38421C10.2721 8.60921 8.88457 9.3639 7.78301 10.4139C7.4502 10.728 7.35645 10.9342 7.35645 11.3327C7.35645 11.5811 7.37988 11.7077 7.45957 11.8577C7.64238 12.2045 8.61738 13.0014 9.4377 13.4748C11.308 14.5483 13.0236 14.628 14.8471 13.7186C15.7705 13.2545 17.0596 12.2702 17.2752 11.8577C17.4205 11.5858 17.4205 11.0842 17.2799 10.8123C17.0877 10.4514 16.0939 9.62171 15.8549 9.62171C15.6674 9.62171 15.4846 9.80921 15.4846 9.99671C15.4846 10.1608 15.5314 10.217 16.1361 10.7139C16.3471 10.892 16.5533 11.0842 16.5908 11.1452C16.7174 11.3373 16.6377 11.5108 16.2908 11.8155C15.3346 12.6545 14.3033 13.2358 13.3283 13.4795C12.7377 13.6248 11.9174 13.6155 11.2986 13.4514C10.3424 13.1983 9.19395 12.528 8.34551 11.7217C8.02676 11.4217 8.00801 11.2998 8.22363 11.0514C8.57051 10.6623 9.5127 9.97796 10.183 9.64046C11.5096 8.97484 12.6064 8.89515 13.9471 9.37328C14.4627 9.55609 14.6221 9.54203 14.7299 9.31234C14.8752 8.98421 14.7393 8.8389 14.0689 8.6139C13.1596 8.3139 12.3393 8.2389 11.5283 8.38421Z" fill="white"/>
<path d="M21.9062 8.91846C21.85 8.97471 21.8125 9.07314 21.8125 9.17627C21.8125 9.27939 21.85 9.37783 21.9062 9.43408C21.9953 9.52314 22.0609 9.52783 23.0453 9.52783C24.2359 9.52783 24.25 9.52314 24.25 9.16689C24.25 8.83408 24.2219 8.82471 23.0406 8.82471C22.0609 8.82471 21.9953 8.82939 21.9062 8.91846Z" fill="white"/>
<path d="M11.9547 9.62168C11.0547 9.85137 10.4782 10.7514 10.6563 11.6514C10.7313 12.0404 10.9047 12.3498 11.2047 12.6217C11.5422 12.9311 11.8844 13.0576 12.3672 13.0576C12.8969 13.0576 13.2157 12.9264 13.5907 12.5561C13.9657 12.1764 14.0969 11.867 14.0969 11.3092C14.0969 10.9623 14.0782 10.8732 13.9563 10.6061C13.6704 10.0061 13.1219 9.63105 12.4751 9.59824C12.2876 9.58418 12.0532 9.59824 11.9547 9.62168ZM12.6485 10.3764C12.911 10.4514 13.2532 10.8029 13.3282 11.0748C13.4219 11.417 13.3235 11.7404 13.0516 12.0123C12.6532 12.4107 12.1422 12.4295 11.7157 12.0545C11.3407 11.7217 11.2657 11.2154 11.5282 10.8076C11.786 10.4186 12.2032 10.2545 12.6485 10.3764Z" fill="white"/>
<path d="M1.71719 10.0389C1.20625 10.1701 0.723437 10.578 0.49375 11.0655C0.38125 11.2998 0.367188 11.3889 0.367188 11.8248C0.367188 12.2889 0.376562 12.3405 0.517187 12.6264C0.925 13.4561 1.87187 13.8498 2.73437 13.5592C3.40937 13.3342 3.82656 12.842 3.95781 12.1342C4.10781 11.3326 3.68594 10.5217 2.93125 10.1701C2.67812 10.053 2.55156 10.0248 2.24219 10.0155C2.03594 10.0061 1.80156 10.0201 1.71719 10.0389ZM2.64062 10.8733C3.08125 11.1076 3.325 11.6092 3.2125 12.0498C3.12812 12.3639 2.95937 12.5983 2.70625 12.7436C2.29844 12.9826 1.82969 12.9405 1.47344 12.6358C1.21562 12.4155 1.09375 12.1576 1.09375 11.8248C1.09375 11.0186 1.93281 10.503 2.64062 10.8733Z" fill="white"/>
<path d="M20.6967 10.2545C20.4295 10.3717 20.3779 10.6764 20.5888 10.892C20.8935 11.1967 21.3529 10.953 21.2732 10.5311C21.2263 10.278 20.9545 10.1467 20.6967 10.2545Z" fill="white"/>
<path d="M21.9297 10.3481C21.8547 10.4185 21.8125 10.5169 21.8125 10.606C21.8125 10.695 21.8547 10.7935 21.9297 10.8638C22.0422 10.981 22.0422 10.981 23.0453 10.981C23.9875 10.981 24.0531 10.9763 24.1469 10.8872C24.3016 10.7419 24.2875 10.456 24.1281 10.3294C24.0109 10.2356 23.9453 10.231 23.0219 10.231C22.0469 10.231 22.0422 10.231 21.9297 10.3481Z" fill="white"/>
<path d="M21.9155 11.7919C21.7889 11.9278 21.7842 12.1528 21.9014 12.2981C21.9905 12.4106 21.9952 12.4106 23.0217 12.4106C23.9686 12.4106 24.0623 12.4013 24.1514 12.3216C24.2827 12.1997 24.2873 11.9091 24.1561 11.7778C24.067 11.6888 24.0014 11.6841 23.0405 11.6841C22.0327 11.6841 22.0139 11.6841 21.9155 11.7919Z" fill="white"/>
<path d="M20.6358 13.1373C20.528 13.2029 20.4389 13.442 20.4717 13.5826C20.5327 13.8264 20.8233 13.9576 21.0858 13.8592C21.3061 13.7748 21.3483 13.3061 21.1421 13.1608C21.0296 13.0811 20.753 13.067 20.6358 13.1373Z" fill="white"/>
<path d="M22.0142 13.1372C21.7939 13.2263 21.7423 13.5685 21.9205 13.7372C22.0236 13.8356 22.0658 13.8403 23.0455 13.8403C24.0017 13.8403 24.0673 13.8356 24.1564 13.7466C24.3017 13.6013 24.283 13.3106 24.1283 13.1888C24.0111 13.095 23.9455 13.0903 23.0595 13.095C22.5439 13.095 22.0705 13.1138 22.0142 13.1372Z" fill="white"/>
<path d="M3.3625 17.7028L3.20312 17.8622V19.6013V21.3403H3.01562H2.82812V20.8106C2.82812 20.1825 2.77656 19.981 2.58906 19.8216C2.44844 19.6997 2.43906 19.6997 1.62813 19.6997C0.432813 19.6997 0.390625 19.7372 0.390625 20.7778C0.390625 21.2606 0.376563 21.4106 0.320312 21.4622C0.282813 21.5044 0.25 21.6169 0.25 21.7153C0.25 21.856 0.278125 21.9169 0.371875 21.9919C0.498438 22.0903 0.5125 22.0903 5.17188 22.0903C9.83125 22.0903 9.84531 22.0903 9.97188 21.9919C10.1313 21.8653 10.1453 21.5794 9.99063 21.4341C9.89688 21.3497 9.82656 21.3403 9.17031 21.3403H8.45312V20.2856C8.45312 18.7622 8.49063 18.8091 7.24375 18.8091H6.38125L6.22188 18.9685L6.0625 19.1278V20.2341V21.3403H5.82812H5.59375V19.6528C5.59375 18.2419 5.58438 17.9372 5.52344 17.8247C5.3875 17.5575 5.32656 17.5435 4.38438 17.5435H3.52188L3.3625 17.7028ZM4.84375 19.8169V21.3403H4.39844H3.95313V19.8169V18.2935H4.39844H4.84375V19.8169ZM7.70313 20.4263V21.3403H7.25781H6.8125V20.4263V19.5122H7.25781H7.70313V20.4263ZM2.07813 20.895V21.3403H1.60938H1.14063V20.895V20.4497H1.60938H2.07813V20.895Z" fill="white"/>
<path d="M11.289 20.0044C11.0265 20.2622 11.214 20.6841 11.5843 20.6841C11.8234 20.6841 11.9781 20.5247 11.9781 20.2856C11.9781 19.92 11.5468 19.7419 11.289 20.0044Z" fill="white"/>
<path d="M12.6578 19.981C12.4985 20.1075 12.4797 20.3981 12.625 20.5435C12.7141 20.6325 12.7797 20.6372 13.7407 20.6372C14.7485 20.6372 14.7672 20.6372 14.8657 20.5294C14.9922 20.3935 14.9969 20.1685 14.8797 20.0231C14.7907 19.9106 14.7766 19.9106 13.7875 19.8966C12.8266 19.8825 12.7797 19.8872 12.6578 19.981Z" fill="white"/>
<path d="M11.3078 21.4294C11.2141 21.5231 11.1719 21.6122 11.1719 21.7153C11.1719 21.8888 11.3922 22.1372 11.5422 22.1372C11.7297 22.1372 11.8797 22.0435 11.95 21.8794C12.0063 21.7341 12.0063 21.6966 11.95 21.5513C11.8328 21.27 11.5281 21.2138 11.3078 21.4294Z" fill="white"/>
<path d="M12.625 21.4341C12.4797 21.5794 12.4984 21.87 12.6531 21.9919C12.7703 22.0856 12.8359 22.0903 13.7594 22.0903C14.7344 22.0903 14.7391 22.0903 14.8516 21.9731C15.0063 21.8231 15.0109 21.5841 14.8609 21.4435C14.7578 21.345 14.7156 21.3403 13.7359 21.3403C12.7797 21.3403 12.7141 21.345 12.625 21.4341Z" fill="white"/>
</svg>
