<svg width="25" height="25" viewBox="0 0 25 25" fill="none" xmlns="http://www.w3.org/2000/svg">
<path d="M11.5 0.35127C11.0734 0.487207 10.8344 0.637208 10.5109 0.960645C10 1.47158 9.76563 2.04346 9.76563 2.77002C9.76563 3.38408 9.90156 3.80127 10.2531 4.26064L10.4172 4.47627L10.2672 4.49971C10.1828 4.51377 10.0188 4.53721 9.89688 4.55127C9.31094 4.62627 8.61719 5.16533 8.33125 5.76533C8.10625 6.23877 8.07812 6.46377 8.07812 7.70127V8.79814L8.19531 8.91064L8.30781 9.02783H10.3047C12.2359 9.02783 12.3016 9.02314 12.3906 8.93408C12.5359 8.78877 12.5172 8.49814 12.3625 8.37627C12.2453 8.28252 12.175 8.27783 11.3078 8.27783H10.375V7.79502C10.375 7.25596 10.3188 6.98877 10.1875 6.91846C10.0422 6.84346 9.82188 6.86221 9.71875 6.96533C9.63438 7.04971 9.625 7.12002 9.625 7.66846V8.27783H9.22188H8.81875L8.8375 7.34971C8.85156 6.46377 8.85625 6.41689 8.97813 6.15908C9.14219 5.81221 9.46094 5.49814 9.80313 5.36221C10.0656 5.25908 10.1125 5.25439 12.0719 5.24033C13.3469 5.23096 14.1719 5.24502 14.3406 5.27314C14.8938 5.37627 15.2969 5.68096 15.5266 6.16377C15.6438 6.41689 15.6484 6.46377 15.6625 7.34971L15.6813 8.27783H15.2781H14.875V7.66846C14.875 7.12002 14.8656 7.04971 14.7813 6.96533C14.6781 6.86221 14.4578 6.84346 14.3125 6.91846C14.1813 6.98877 14.125 7.25596 14.125 7.79502V8.27783H13.8953C13.5813 8.27783 13.4219 8.40439 13.4219 8.65752C13.4219 8.77939 13.4547 8.87314 13.5156 8.93408C13.6047 9.02314 13.6703 9.02783 14.8984 9.02783H16.1922L16.3047 8.91064L16.4219 8.79814V7.68252C16.4219 6.44502 16.3844 6.17783 16.1406 5.69971C15.8641 5.15127 15.1563 4.62158 14.6031 4.55127C14.4813 4.53721 14.3172 4.51377 14.2328 4.49971L14.0828 4.47627L14.2469 4.26064C14.5938 3.80596 14.7344 3.38408 14.7344 2.79346C14.7344 2.04814 14.5 1.47158 13.9891 0.960645C13.4781 0.449708 13 0.262208 12.2313 0.266895C11.9125 0.266895 11.6734 0.29502 11.5 0.35127ZM12.9906 1.17158C13.3422 1.34971 13.6141 1.6169 13.8016 1.95908C13.9516 2.24033 13.9609 2.27783 13.9609 2.72315C13.9609 3.14033 13.9469 3.22471 13.8297 3.47315C13.6609 3.83877 13.3422 4.15752 12.9813 4.32627C12.7328 4.43877 12.6391 4.45752 12.25 4.45752C11.8609 4.45752 11.7672 4.43877 11.5234 4.32627C11.1578 4.15752 10.8391 3.83877 10.6703 3.47783C10.5531 3.22471 10.5391 3.14033 10.5391 2.72315C10.5391 2.30127 10.5531 2.23096 10.6703 2.00596C11.0312 1.32158 11.575 0.998145 12.3203 1.02627C12.6672 1.04033 12.7844 1.06377 12.9906 1.17158Z" fill="white"/>
<path d="M4.19691 2.40439C4.02816 2.47002 4.00004 2.67158 4.00004 3.75439V4.80908H3.13754C2.33598 4.80908 2.27035 4.81377 2.15316 4.90752C1.88129 5.11846 1.89066 5.03408 1.89066 8.00596C1.89066 10.631 1.89535 10.7435 1.98441 10.8888C2.16254 11.1841 2.24223 11.2075 3.16566 11.2216L4.00004 11.2403V12.37V13.4997L3.8266 13.331C3.72816 13.2372 3.6016 13.1481 3.54066 13.1294C3.31098 13.0591 3.06254 13.27 3.06254 13.5372C3.06254 13.6028 3.2641 13.8419 3.63441 14.2169C4.17348 14.7606 4.21566 14.7935 4.3891 14.7935C4.56254 14.7935 4.6141 14.7606 5.09223 14.2919C5.37348 14.0106 5.63129 13.7247 5.6641 13.6544C5.7391 13.4763 5.7016 13.3122 5.55629 13.1997C5.37348 13.0544 5.24223 13.0825 4.98441 13.3216L4.75004 13.5419V12.3888V11.2403L5.60785 11.2216C6.46566 11.2075 6.47035 11.2075 6.6391 11.0763C6.74691 10.9966 6.8266 10.8794 6.85941 10.7716C6.89691 10.6544 6.90629 9.74971 6.89691 7.90283C6.88285 5.34814 6.87816 5.20283 6.79379 5.07627C6.62973 4.83252 6.51723 4.80908 5.59379 4.80908H4.75004V3.96533V3.12158H6.67191H8.59848L8.71098 3.00439C8.87504 2.84502 8.87035 2.60127 8.70629 2.47002C8.58441 2.37158 8.53754 2.37158 6.41879 2.37627C5.23285 2.37627 4.22973 2.39033 4.19691 2.40439ZM6.15629 7.99658V10.481H4.39848H2.64066V7.99658V5.51221H4.39848H6.15629V7.99658Z" fill="white"/>
<path d="M3.41418 6.33252C3.28762 6.45439 3.26887 6.57158 3.34856 6.74502C3.43762 6.93721 3.57825 6.96533 4.41731 6.96533C5.14387 6.96533 5.21418 6.95596 5.33137 6.86689C5.48606 6.74502 5.50481 6.45439 5.3595 6.30908C5.27043 6.22002 5.20481 6.21533 4.39856 6.21533C3.53606 6.21533 3.52668 6.21533 3.41418 6.33252Z" fill="white"/>
<path d="M3.43291 7.71064C3.27822 7.83721 3.27822 8.15596 3.43291 8.28252C3.53135 8.36221 3.62979 8.37158 4.40322 8.37158C5.20479 8.37158 5.27041 8.36689 5.35947 8.27783C5.50479 8.13252 5.48604 7.84189 5.33135 7.72002C5.21416 7.63096 5.14385 7.62158 4.3751 7.62158C3.6251 7.62158 3.53135 7.63096 3.43291 7.71064Z" fill="white"/>
<path d="M3.52656 9.07939C3.4 9.12627 3.29688 9.29502 3.29688 9.44502C3.29688 9.49189 3.33906 9.58564 3.39531 9.65596C3.48906 9.77314 3.50312 9.77783 4.02812 9.77783C4.50156 9.77783 4.57187 9.76846 4.65625 9.68408C4.77812 9.56221 4.77812 9.30908 4.66094 9.16377C4.58125 9.06533 4.52969 9.05596 4.1125 9.04189C3.85469 9.03721 3.59219 9.05127 3.52656 9.07939Z" fill="white"/>
<path d="M15.7891 2.48877C15.7141 2.55908 15.6719 2.65752 15.6719 2.74658C15.6719 2.83564 15.7141 2.93408 15.7891 3.00439L15.9016 3.12158H17.8281H19.75V3.96533V4.80908H18.8969C18.1422 4.80908 18.0203 4.81846 17.8937 4.89814C17.5891 5.08564 17.5937 5.02939 17.5937 7.99189C17.5937 10.9403 17.5891 10.8841 17.8797 11.095C18.0297 11.2028 18.0812 11.2075 18.8969 11.2216L19.75 11.2403V12.3888V13.5419L19.5156 13.3216C19.2578 13.0825 19.1266 13.0544 18.9437 13.1997C18.7984 13.3122 18.7609 13.4763 18.8359 13.6544C18.8687 13.7247 19.1266 14.0106 19.4078 14.2872C19.8859 14.7606 19.9375 14.7935 20.1109 14.7935C20.2844 14.7935 20.3266 14.7606 20.8656 14.2169C21.2359 13.8419 21.4375 13.6028 21.4375 13.5372C21.4375 13.27 21.1891 13.0591 20.9594 13.1294C20.8984 13.1481 20.7719 13.2372 20.6781 13.331L20.5 13.4997V12.37V11.2403L21.3344 11.2216C22.2578 11.2075 22.3375 11.1841 22.5156 10.8888C22.6047 10.7435 22.6094 10.631 22.6094 8.00596C22.6094 5.03408 22.6187 5.11846 22.3469 4.90752C22.2297 4.81377 22.1641 4.80908 21.3625 4.80908H20.5V3.75439C20.5 2.64814 20.4719 2.47002 20.2891 2.39971C20.2469 2.38564 19.2437 2.37158 18.0578 2.37158H15.9016L15.7891 2.48877ZM21.8594 7.99658V10.481H20.1016H18.3437V7.99658V5.51221H20.1016H21.8594V7.99658Z" fill="white"/>
<path d="M19.1406 6.30908C18.9953 6.45439 19.0141 6.74502 19.1688 6.86689C19.2859 6.95596 19.3563 6.96533 20.0828 6.96533C20.9219 6.96533 21.0625 6.93721 21.1516 6.74502C21.2313 6.57158 21.2125 6.45439 21.0859 6.33252C20.9734 6.21533 20.9641 6.21533 20.1016 6.21533C19.2953 6.21533 19.2297 6.22002 19.1406 6.30908Z" fill="white"/>
<path d="M19.1688 7.72002C19.0141 7.84189 18.9953 8.13252 19.1406 8.27783C19.2297 8.36689 19.2953 8.37158 20.0969 8.37158C20.8703 8.37158 20.9688 8.36221 21.0672 8.28252C21.1516 8.21689 21.1797 8.14658 21.1797 7.99658C21.1797 7.84658 21.1516 7.77627 21.0672 7.71064C20.9688 7.63096 20.875 7.62158 20.125 7.62158C19.3563 7.62158 19.2859 7.63096 19.1688 7.72002Z" fill="white"/>
<path d="M19.281 9.06064C19.0326 9.15908 18.9576 9.50127 19.1404 9.68408C19.2248 9.76846 19.2951 9.77783 19.7639 9.77783C20.242 9.77783 20.3076 9.76846 20.3826 9.68408C20.5045 9.54814 20.4998 9.28564 20.3685 9.15439C20.2748 9.06533 20.2092 9.05127 19.806 9.04189C19.5576 9.03721 19.3185 9.04189 19.281 9.06064Z" fill="white"/>
<path d="M11.2656 10.2887C9.28284 10.7246 7.81565 12.4215 7.67502 14.4371C7.60471 15.4496 7.95159 16.7059 8.51877 17.4887C9.51252 18.8621 11.2703 19.5559 13.0328 19.2699C14.5235 19.0262 15.7563 18.1168 16.3703 16.7996C16.7031 16.0965 16.8766 15.1824 16.825 14.4512C16.6891 12.5059 15.3344 10.8559 13.4453 10.3403C12.9063 10.1903 11.8235 10.1668 11.2656 10.2887ZM12.9297 11.0199C14.2891 11.259 15.3578 12.1356 15.8172 13.3871C16.3281 14.7934 16.0938 16.1387 15.1328 17.2965C14.7016 17.8168 13.8953 18.309 13.1641 18.5012C12.6438 18.6371 11.8563 18.6371 11.336 18.5012C9.71877 18.0793 8.56096 16.7106 8.42502 15.0606C8.36409 14.3762 8.59846 13.3965 8.97346 12.7637C9.75159 11.4512 11.35 10.7481 12.9297 11.0199Z" fill="white"/>
<path d="M13.6093 12.8482C13.5202 12.8904 13.0702 13.2936 12.6155 13.7482L11.7858 14.5779L11.4436 14.2498C11.0499 13.8654 10.8718 13.7904 10.4452 13.8186C10.0936 13.842 9.83113 13.992 9.63895 14.2873C9.45613 14.5592 9.42801 15.0607 9.57801 15.3607C9.72801 15.6607 10.9936 16.9217 11.2843 17.067C11.603 17.2264 11.9593 17.2264 12.278 17.067C12.578 16.917 14.8608 14.6389 15.0155 14.3295C15.1655 14.0295 15.1374 13.5279 14.9546 13.2561C14.7483 12.942 14.4999 12.8061 14.1061 12.7873C13.8811 12.7826 13.7218 12.8014 13.6093 12.8482ZM14.2655 13.6217C14.4811 13.8373 14.4436 13.8889 13.1311 15.2014C12.1796 16.1576 11.8702 16.4342 11.7811 16.4342C11.6921 16.4342 11.4905 16.2607 10.9514 15.7217C10.1827 14.9529 10.1264 14.8545 10.328 14.6529C10.5108 14.4701 10.6374 14.5264 11.1249 14.9998C11.6077 15.4779 11.7389 15.5436 11.9499 15.4311C12.0249 15.3936 12.4983 14.9482 12.9999 14.4467C13.9749 13.4623 14.0546 13.4107 14.2655 13.6217Z" fill="white"/>
<path d="M3.72344 15.5716C2.65938 15.8575 1.89531 16.8841 1.89063 18.0278C1.89063 18.5763 2.10625 19.1856 2.44375 19.5747L2.60313 19.7622H2.37344C1.46875 19.7669 0.601562 20.4513 0.315625 21.3981C0.26875 21.5481 0.25 21.9372 0.25 22.856C0.25 24.0091 0.254688 24.1122 0.334375 24.1825C0.414062 24.2528 0.601562 24.2622 2.09219 24.2622H3.76094L3.85469 24.1403C3.98125 23.981 3.98125 23.8403 3.85469 23.681C3.76094 23.5591 3.75156 23.5591 3.12813 23.5591H2.5V22.9966C2.5 22.6825 2.47656 22.3872 2.44844 22.3216C2.34063 22.0872 1.96563 22.0544 1.82031 22.2606C1.76875 22.3356 1.75 22.5091 1.75 22.9591V23.5591H1.35156H0.953125V22.8419C0.953125 22.4528 0.976562 21.9935 1.00469 21.8247C1.09375 21.2575 1.45938 20.7981 1.96563 20.606C2.20938 20.5169 2.32656 20.5122 4.39375 20.5122C6.80781 20.5122 6.78906 20.5122 7.20625 20.831C7.36094 20.9435 7.49688 21.1075 7.60469 21.3091L7.77344 21.6138L7.7875 22.5841L7.80156 23.5591H7.42656H7.04688V22.9966C7.04688 22.6825 7.02344 22.3872 6.99531 22.3216C6.8875 22.0872 6.5125 22.0544 6.36719 22.2606C6.31563 22.3356 6.29688 22.5091 6.29688 22.9591V23.5591H5.66406C5.09219 23.5591 5.02188 23.5685 4.9375 23.6528C4.81094 23.7794 4.81094 24.0419 4.9375 24.1685C5.02656 24.2575 5.09219 24.2622 6.69531 24.2622C8.3125 24.2622 8.36406 24.2575 8.45781 24.1638C8.55156 24.07 8.55156 24.0278 8.5375 22.795C8.51875 21.3466 8.49531 21.2341 8.15781 20.7372C7.7875 20.1935 7.15938 19.8231 6.52188 19.7763L6.2125 19.7481L6.41406 19.4716C6.90156 18.8153 7.01875 17.9763 6.74219 17.17C6.475 16.3966 5.85156 15.7966 5.08281 15.581C4.7125 15.4778 4.08438 15.4731 3.72344 15.5716ZM5.12969 16.42C5.49531 16.5888 5.78125 16.87 5.95938 17.231C6.07188 17.4606 6.08594 17.5403 6.08594 17.981C6.08594 18.445 6.07656 18.4966 5.93125 18.7872C5.68281 19.2981 5.22813 19.6216 4.61875 19.7153C3.6625 19.87 2.72031 19.1106 2.65 18.131C2.59375 17.3388 3.06719 16.6169 3.82188 16.3356C4.19688 16.195 4.72656 16.2325 5.12969 16.42Z" fill="white"/>
<path d="M19.4545 15.5669C18.892 15.7216 18.3248 16.1388 18.0154 16.6216C17.4529 17.4981 17.4811 18.656 18.0904 19.481L18.2967 19.7622H18.067C17.2795 19.7622 16.4076 20.395 16.0889 21.2013C15.9858 21.4591 15.9764 21.5435 15.9623 22.7716C15.9483 24.0325 15.9483 24.07 16.042 24.1638C16.1358 24.2575 16.1873 24.2622 17.5186 24.2622H18.9014L18.9951 24.1403C19.1217 23.981 19.1217 23.8403 18.9951 23.681C18.9061 23.5685 18.8733 23.5591 18.5498 23.5591H18.2029V22.9591C18.2029 22.5091 18.1842 22.3356 18.1326 22.2606C17.9873 22.0544 17.6123 22.0872 17.5045 22.3216C17.4764 22.3872 17.4529 22.6825 17.4529 22.9966V23.5591H17.0733H16.6983L16.7123 22.5841L16.7264 21.6138L16.8951 21.3091C17.0029 21.1075 17.1389 20.9435 17.2936 20.831C17.7108 20.5122 17.692 20.5122 20.1061 20.5122C22.1733 20.5122 22.2904 20.5169 22.5342 20.606C23.0404 20.7981 23.4061 21.2575 23.4951 21.8247C23.5233 21.9935 23.5467 22.4528 23.5467 22.8419V23.5591H23.1483H22.7498V22.9591C22.7498 22.2935 22.7123 22.181 22.4733 22.1294C22.2951 22.0919 22.0701 22.2044 22.0279 22.3497C22.0139 22.4106 21.9998 22.706 21.9998 23.006V23.5591H21.0858C20.2326 23.5591 20.167 23.5638 20.0779 23.6528C20.0217 23.7091 19.9842 23.8075 19.9842 23.9106C19.9842 24.0138 20.0217 24.1122 20.0779 24.1685C20.167 24.2575 20.2326 24.2622 22.1311 24.2622C23.9733 24.2622 24.0998 24.2575 24.1701 24.1778C24.2404 24.1028 24.2498 23.9388 24.2498 22.8372C24.2498 21.6981 24.2404 21.5622 24.1514 21.2997C23.8561 20.4138 22.9983 19.7669 22.1264 19.7622H21.8967L22.0561 19.5747C23.1951 18.2435 22.4733 16.0169 20.7576 15.5669C20.4248 15.4825 19.7639 15.4825 19.4545 15.5669ZM20.7951 16.3872C20.9733 16.4528 21.1514 16.57 21.3108 16.7294C21.9998 17.4044 22.0279 18.4685 21.3858 19.1763C21.1139 19.4716 20.7951 19.6403 20.3498 19.7153C19.6561 19.8372 18.8873 19.4388 18.5639 18.7919C18.0623 17.8075 18.5545 16.6591 19.6233 16.3122C19.8998 16.2231 20.4576 16.256 20.7951 16.3872Z" fill="white"/>
</svg>
