<svg width="22" height="25" viewBox="0 0 22 25" fill="none" xmlns="http://www.w3.org/2000/svg">
<path d="M10.1547 0.852245C9.2735 1.13818 8.69693 2.09443 8.86568 2.99443C8.90787 3.22881 8.90787 3.29912 8.861 3.32725C8.83287 3.34599 7.60475 4.05381 6.13287 4.90224L3.461 6.44912L3.26412 6.28975C2.80475 5.91475 2.22819 5.75068 1.6985 5.84443C0.160998 6.11162 -0.44369 7.92568 0.620373 9.05068C0.845373 9.28975 1.20162 9.50537 1.48287 9.57568L1.60944 9.6085V12.7866V15.9601L1.41256 16.0163C1.10787 16.1054 0.859435 16.2694 0.60631 16.5319C-0.44369 17.6569 0.184435 19.4851 1.71256 19.7288C2.25162 19.8179 2.87506 19.6351 3.26881 19.2741L3.44225 19.1147L6.17037 20.6897C7.67037 21.5569 8.90318 22.2694 8.90787 22.2741C8.91256 22.2788 8.89381 22.4147 8.86568 22.5788C8.711 23.3944 9.161 24.2476 9.94381 24.6319C10.1876 24.7538 10.2532 24.7632 10.7501 24.7632C11.2469 24.7632 11.3126 24.7538 11.5563 24.6319C12.3391 24.2476 12.7891 23.3944 12.6344 22.5788C12.6063 22.4147 12.5876 22.2788 12.5922 22.2741C12.5969 22.2694 13.8297 21.5569 15.3297 20.6897L18.0579 19.1147L18.2313 19.2741C18.6251 19.6351 19.2485 19.8179 19.7876 19.7288C20.2141 19.6585 20.5563 19.4851 20.8563 19.1897C21.5829 18.4585 21.6016 17.2913 20.8938 16.5319C20.6407 16.2694 20.3922 16.1054 20.0922 16.0163L19.8907 15.9601V12.7866V9.6085L20.0172 9.57568C20.2985 9.50537 20.6547 9.28975 20.8797 9.05068C21.9438 7.92568 21.3391 6.11162 19.8016 5.84443C19.2719 5.75068 18.6954 5.91475 18.236 6.28975L18.0391 6.44912L15.3672 4.90224C13.9001 4.05381 12.6672 3.34599 12.6391 3.32725C12.5922 3.29912 12.5922 3.22881 12.6344 2.99443C12.7891 2.17881 12.3204 1.29287 11.5469 0.931932C11.336 0.833496 11.2094 0.810059 10.8204 0.800682C10.5157 0.791307 10.2813 0.810059 10.1547 0.852245ZM11.2422 1.63506C11.5188 1.76631 11.7626 2.05225 11.861 2.36631C12.011 2.84912 11.8001 3.3835 11.336 3.66943C11.1344 3.796 11.0688 3.81006 10.7501 3.81006C10.4313 3.81006 10.3657 3.796 10.1641 3.66943C9.86881 3.48662 9.686 3.22412 9.61568 2.88662C9.56881 2.65693 9.5735 2.58193 9.63912 2.36631C9.73756 2.06162 9.97662 1.76631 10.2438 1.63975C10.5204 1.50381 10.961 1.50381 11.2422 1.63506ZM9.50319 4.1335C9.71412 4.31162 10.1594 4.53662 10.2954 4.53662C10.3657 4.53662 10.3751 4.60225 10.3751 5.28662C10.3751 6.02256 10.3797 6.04131 10.4922 6.15381C10.5626 6.22881 10.661 6.271 10.7501 6.271C10.8391 6.271 10.9376 6.22881 11.0079 6.15381C11.1204 6.04131 11.1251 6.02256 11.1251 5.28662C11.1251 4.60225 11.1344 4.53662 11.2094 4.53662C11.3407 4.53662 11.786 4.31162 12.0016 4.1335C12.1141 4.04443 12.2172 3.97881 12.236 3.98818C12.2594 3.99756 13.4876 4.70537 14.9735 5.56318L17.6782 7.11943L17.6313 7.31631C17.5891 7.49443 17.5985 8.11318 17.6454 8.28193C17.6594 8.32412 17.4532 8.46943 17.0782 8.68974C16.7594 8.87725 16.4547 9.07881 16.4079 9.13506C16.3094 9.26162 16.3282 9.46787 16.4547 9.6085C16.6001 9.77256 16.8204 9.71631 17.4344 9.36475C17.7438 9.18193 18.0157 9.03662 18.0344 9.03662C18.0532 9.03662 18.161 9.11162 18.2688 9.196C18.4797 9.37412 18.9251 9.59912 19.061 9.59912C19.136 9.59912 19.1407 9.78193 19.1407 12.7866C19.1407 15.7913 19.136 15.9741 19.061 15.9741C18.9251 15.9741 18.4797 16.1991 18.2688 16.3772C18.161 16.4616 18.0579 16.5366 18.0438 16.5366C18.0297 16.5366 17.7579 16.3866 17.4391 16.2085C16.8251 15.8569 16.6001 15.8007 16.4547 15.9601C16.3469 16.0819 16.3188 16.2647 16.3891 16.396C16.4219 16.4663 16.6844 16.6538 17.0547 16.8694C17.4485 17.0991 17.6594 17.2491 17.6454 17.2913C17.5985 17.4601 17.5891 18.0788 17.6313 18.2569L17.6782 18.4538L14.9735 20.0101C13.4876 20.8679 12.2594 21.5757 12.236 21.5851C12.2172 21.5944 12.1141 21.5288 12.0016 21.4397C11.786 21.2616 11.3407 21.0366 11.2094 21.0366C11.1344 21.0366 11.1251 20.971 11.1251 20.2866C11.1251 19.5507 11.1204 19.5319 11.0079 19.4194C10.8579 19.2647 10.6422 19.2647 10.4922 19.4194C10.3797 19.5319 10.3751 19.5507 10.3751 20.2866C10.3751 20.971 10.3657 21.0366 10.2954 21.0366C10.1594 21.0366 9.71412 21.2616 9.4985 21.4397C9.386 21.5288 9.28287 21.5944 9.26412 21.5851C9.24068 21.5757 8.01256 20.8679 6.52662 20.0101L3.82194 18.4538L3.86881 18.2569C3.911 18.0788 3.90162 17.4601 3.85475 17.2913C3.84069 17.2491 4.05162 17.0991 4.44537 16.8694C4.81569 16.6538 5.07819 16.4663 5.111 16.396C5.18131 16.2647 5.15319 16.0819 5.04537 15.9601C4.90006 15.8007 4.67506 15.8569 4.061 16.2085C3.74225 16.3913 3.47037 16.5366 3.45631 16.5366C3.44225 16.5366 3.33912 16.4616 3.23131 16.3772C3.02037 16.1991 2.57506 15.9741 2.44381 15.9741C2.36412 15.9741 2.35944 15.7913 2.35944 12.7866C2.35944 9.78193 2.36412 9.59912 2.44381 9.59912C2.57506 9.59912 3.02037 9.37412 3.23131 9.196C3.33912 9.11162 3.44694 9.03662 3.46569 9.03662C3.48444 9.03662 3.75631 9.18193 4.06569 9.36475C4.69381 9.72568 4.89537 9.77256 5.05475 9.59912C5.16725 9.47725 5.17194 9.20068 5.06412 9.09756C5.02193 9.05537 4.72662 8.86787 4.41256 8.68037C4.04225 8.46474 3.84069 8.32412 3.85475 8.28193C3.90162 8.11318 3.911 7.49443 3.86881 7.31631L3.82194 7.11943L6.55006 5.54443C8.04537 4.68193 9.27818 3.97412 9.28756 3.97412C9.29694 3.97412 9.39537 4.04912 9.50319 4.1335ZM2.50475 6.69287C3.10475 7.00224 3.32975 7.74287 2.99225 8.31006C2.51412 9.13037 1.29537 9.046 0.92506 8.16943C0.517248 7.2085 1.57662 6.21943 2.50475 6.69287ZM19.8251 6.62256C20.6454 6.86631 20.9313 7.90224 20.3454 8.51162C19.8016 9.0835 18.8969 8.98037 18.5079 8.31006C18.1188 7.64443 18.4938 6.78193 19.2579 6.59443C19.4782 6.54287 19.5766 6.54756 19.8251 6.62256ZM2.57037 16.8366C3.36725 17.3054 3.32975 18.4585 2.50475 18.8804C1.75475 19.2554 0.840685 18.6929 0.845373 17.8538C0.845373 17.3804 1.08912 17.0054 1.53912 16.7851C1.85319 16.6351 2.25631 16.6538 2.57037 16.8366ZM19.961 16.7897C20.7532 17.1647 20.9032 18.1585 20.2516 18.7163C19.7829 19.1194 19.1172 19.0866 18.6813 18.6413C18.4469 18.4022 18.3672 18.196 18.3672 17.8257C18.3672 17.5538 18.3907 17.4601 18.4985 17.2772C18.8126 16.7429 19.4313 16.5366 19.961 16.7897ZM11.3407 21.9038C11.6313 22.0866 11.8141 22.3491 11.8844 22.6866C12.0297 23.3804 11.4766 24.0366 10.7501 24.0366C10.2438 24.0366 9.81256 23.7319 9.65318 23.2491C9.55943 22.9819 9.55943 22.8507 9.6485 22.5554C9.73756 22.2507 9.94381 22.0116 10.2438 21.8569C10.5907 21.6835 11.0126 21.7022 11.3407 21.9038Z" fill="white"/>
<path d="M7.69853 7.13334C7.09853 7.30209 6.5829 7.73803 6.30634 8.31928C6.13759 8.68022 6.1329 8.69428 6.1329 9.24741C6.1329 9.89428 6.21259 10.1521 6.52665 10.5646L6.70947 10.8083L6.45165 10.9865C5.76259 11.4599 5.26103 12.3365 5.18603 13.1896C5.14853 13.6302 5.18603 13.7615 5.36415 13.8365C5.66884 13.963 5.92196 13.7755 5.92196 13.424C5.92196 12.6833 6.49853 11.7646 7.17353 11.4224L7.41259 11.3005L7.75946 11.3896C7.98915 11.4505 8.1954 11.474 8.38759 11.4599L8.67353 11.4412L8.78134 11.6568C8.83759 11.774 8.9454 11.9474 9.01572 12.0365L9.15165 12.2052L8.82822 12.4537C8.15321 12.9646 7.73134 13.7427 7.62822 14.6474C7.59071 14.999 7.65634 15.1912 7.83915 15.2708C8.00322 15.3365 8.20478 15.2896 8.28447 15.1583C8.32196 15.1068 8.36415 14.9193 8.37822 14.7505C8.45322 13.9443 8.94072 13.199 9.6204 12.838C9.87353 12.7068 9.88759 12.7068 10.0704 12.7771C10.3282 12.8755 11.172 12.8755 11.4345 12.7771C11.622 12.7021 11.6313 12.7068 11.8798 12.838C12.5548 13.2083 13.047 13.9583 13.122 14.7412C13.136 14.9146 13.1782 15.1068 13.2157 15.1583C13.3517 15.3787 13.7407 15.3318 13.8438 15.0787C13.9704 14.774 13.7548 13.8412 13.436 13.3115C13.2345 12.9833 12.8454 12.5662 12.5407 12.3552L12.3392 12.2193L12.4798 12.0458C12.5548 11.9474 12.6626 11.774 12.7188 11.6568L12.8267 11.4412L13.1126 11.4599C13.3048 11.474 13.511 11.4505 13.7407 11.3896L14.0876 11.3005L14.3267 11.4224C14.6501 11.5865 15.1048 12.0458 15.2829 12.3927C15.461 12.7255 15.5782 13.1427 15.5782 13.4287C15.5782 13.649 15.7188 13.8552 15.8829 13.8693C16.211 13.8974 16.3282 13.7755 16.3282 13.4146C16.3282 12.538 15.836 11.5818 15.1048 11.0333L14.7954 10.8037L14.9782 10.5646C15.2876 10.1521 15.3673 9.89428 15.3673 9.24741C15.3673 8.69428 15.3626 8.68022 15.1938 8.31928C14.8142 7.52241 14.0829 7.06772 13.1782 7.06772C12.3673 7.06772 11.6032 7.52709 11.247 8.23491L11.1251 8.47397H10.7501H10.3751L10.2532 8.23022C9.9954 7.72397 9.38134 7.24584 8.82353 7.11928C8.54697 7.05366 7.96103 7.06303 7.69853 7.13334ZM8.91259 7.95366C9.17978 8.08959 9.43759 8.32866 9.56884 8.55834L9.67197 8.74584L9.51259 8.84897C9.2829 8.98491 8.90322 9.41616 8.78134 9.66928C8.65478 9.92709 8.54697 10.3208 8.54697 10.5224C8.54697 10.7052 8.44384 10.7474 8.13446 10.7005C7.61884 10.6255 7.19228 10.3021 6.97665 9.82866C6.86415 9.57084 6.85009 9.49584 6.86884 9.18178C6.89697 8.75522 7.00946 8.50678 7.30946 8.21147C7.60478 7.92553 7.91884 7.81303 8.35947 7.83178C8.60321 7.84584 8.77197 7.87866 8.91259 7.95366ZM13.7267 7.91616C14.0735 8.04741 14.411 8.38491 14.5423 8.73178C14.8751 9.61772 14.3126 10.5646 13.3657 10.7005C13.0563 10.7474 12.9532 10.7052 12.9532 10.5224C12.9532 10.3162 12.8454 9.92709 12.7142 9.65991C12.6063 9.43959 12.1282 8.90991 11.9501 8.81616C11.6876 8.67553 12.2735 8.02397 12.8126 7.85991C13.0423 7.78959 13.4595 7.81772 13.7267 7.91616ZM11.3829 9.37866C11.8985 9.64116 12.2313 10.2037 12.1892 10.7521C12.147 11.2912 11.847 11.7412 11.3688 11.9755C10.8157 12.2474 10.1079 12.1115 9.6954 11.6521C9.41884 11.3474 9.3204 11.0896 9.3204 10.6537C9.3204 10.3537 9.34384 10.2365 9.4329 10.0677C9.62978 9.68803 9.97197 9.39741 10.3751 9.26616C10.6048 9.19116 11.1345 9.24741 11.3829 9.37866Z" fill="white"/>
<path d="M7.55781 16.4853C7.47344 16.5509 7.44531 16.6212 7.44531 16.7712C7.44531 16.9212 7.47344 16.9915 7.55781 17.0572C7.80625 17.2587 8.17188 17.09 8.17188 16.7712C8.17188 16.4525 7.80625 16.2837 7.55781 16.4853Z" fill="white"/>
<path d="M8.75791 16.5133C8.41572 16.8508 8.88916 17.3476 9.26885 17.0476C9.3626 16.9726 9.39072 16.9117 9.39072 16.7711C9.39072 16.4336 8.99697 16.2742 8.75791 16.5133Z" fill="white"/>
<path d="M9.97666 16.5133C9.63447 16.8508 10.1079 17.3476 10.4876 17.0476C10.5813 16.9726 10.6095 16.9117 10.6095 16.7711C10.6095 16.4336 10.2157 16.2742 9.97666 16.5133Z" fill="white"/>
<path d="M12.4 16.4897C12.2453 16.6351 12.2594 16.921 12.4187 17.0476C12.5312 17.1366 12.6062 17.146 13.1875 17.146C13.9562 17.146 14.0547 17.1038 14.0547 16.771C14.0547 16.621 14.0265 16.5507 13.9422 16.4851C13.8484 16.4054 13.75 16.396 13.1687 16.396C12.564 16.396 12.4937 16.4054 12.4 16.4897Z" fill="white"/>
<path d="M7.675 17.8022C7.54375 17.8538 7.42188 18.0272 7.42188 18.1585C7.42188 18.2147 7.46406 18.3132 7.52031 18.3835L7.61406 18.5054H10.75H13.8859L13.9797 18.3835C14.1109 18.2194 14.1016 18.0694 13.9656 17.9101L13.8531 17.7788L10.8109 17.7694C9.14219 17.7647 7.72656 17.7788 7.675 17.8022Z" fill="white"/>
</svg>
