<svg width="25" height="25" viewBox="0 0 25 25" fill="none" xmlns="http://www.w3.org/2000/svg">
<path d="M10.9859 0.33252C9.91719 0.627831 9.15313 1.57002 9.09219 2.67627C9.08282 2.88252 9.24219 5.87783 9.44375 9.33252C9.78594 15.0841 9.82813 15.6372 9.92188 15.9185C10.0578 16.3216 10.2172 16.5888 10.5031 16.8981C10.8125 17.2263 11.1406 17.4325 11.5766 17.5825C11.8766 17.681 12.0172 17.6997 12.5 17.6997C12.9828 17.6997 13.1234 17.681 13.4188 17.5825C14.0141 17.381 14.4547 17.0435 14.8016 16.5091C15.1766 15.9419 15.1391 16.2888 15.5516 9.33252C15.7578 5.87783 15.9172 2.88252 15.9078 2.67627C15.8563 1.76221 15.3313 0.946581 14.5391 0.543457C14.0281 0.285645 13.8641 0.262207 12.4766 0.266893C11.5813 0.271582 11.1453 0.290331 10.9859 0.33252ZM13.7656 1.79033C14.0516 1.92158 14.3422 2.24971 14.4172 2.52158C14.4734 2.71846 14.4359 3.49189 14.1219 8.96689C13.8828 13.0872 13.7375 15.2716 13.6953 15.4263C13.6109 15.7263 13.3625 16.0169 13.0766 16.1575C12.7672 16.3075 12.2328 16.3075 11.9234 16.1575C11.6375 16.0169 11.3891 15.7263 11.3047 15.4263C11.2625 15.2716 11.1172 13.0731 10.8828 8.96689C10.4797 2.03408 10.4844 2.49814 10.8219 2.11377C11.1734 1.71533 11.3563 1.66846 12.6172 1.68252C13.4516 1.69189 13.5781 1.70596 13.7656 1.79033Z" fill="white"/>
<path d="M2.49681 9.19194C2.239 9.281 2.13587 9.40287 1.84056 9.96537C1.17962 11.2263 0.767122 12.5622 0.56556 14.0904C0.457747 14.9107 0.495247 16.6872 0.631185 17.4935C0.762435 18.2435 0.968685 19.0216 1.20306 19.6732C1.39056 20.1841 1.89212 21.2622 2.089 21.5763C2.39837 22.0732 3.12025 22.0497 3.38743 21.5341C3.51868 21.2857 3.47181 21.0982 3.08275 20.306C2.56712 19.2607 2.28587 18.4169 2.06087 17.231C1.94368 16.5888 1.94368 14.4982 2.06087 13.856C2.28587 12.6701 2.56712 11.8263 3.08275 10.781C3.49525 9.93725 3.53275 9.7685 3.34993 9.49662C3.13431 9.18725 2.82962 9.07944 2.49681 9.19194Z" fill="white"/>
<path d="M21.875 9.27152C21.6875 9.40277 21.5469 9.65121 21.5469 9.86683C21.5469 9.96996 21.6734 10.284 21.9172 10.7809C22.4328 11.8262 22.7141 12.67 22.9391 13.8559C23.0047 14.2121 23.0234 14.5496 23.0234 15.5434C23.0234 16.5371 23.0047 16.8746 22.9391 17.2309C22.7141 18.4168 22.4328 19.2606 21.9172 20.3059C21.5187 21.1168 21.4859 21.2668 21.6359 21.5434C21.8938 22.0356 22.6109 22.0543 22.9109 21.5809C23.1219 21.2434 23.6141 20.1746 23.8109 19.6215C24.05 18.9606 24.2656 18.1121 24.3922 17.3481C24.4578 16.9403 24.4766 16.5653 24.4766 15.5434C24.4766 14.1371 24.4344 13.7575 24.1672 12.6465C23.8344 11.2684 23.0656 9.53871 22.6766 9.27621C22.4563 9.12621 22.0906 9.12621 21.875 9.27152Z" fill="white"/>
<path d="M4.78906 10.6592C4.59219 10.7811 4.56406 10.8233 4.25469 11.4467C3.59844 12.7686 3.3125 14.0155 3.3125 15.5436C3.3125 16.7248 3.47187 17.6623 3.85156 18.7123C4.02031 19.1764 4.41406 20.0014 4.58281 20.2358C4.87812 20.653 5.57656 20.5967 5.80625 20.1373C5.94687 19.8655 5.91406 19.692 5.60937 19.0827C5.02344 17.892 4.76562 16.8186 4.76562 15.5436C4.76562 14.1983 5.05156 13.0452 5.68437 11.8498C5.91406 11.4139 5.94219 11.2123 5.80625 10.9498C5.63281 10.603 5.12187 10.4577 4.78906 10.6592Z" fill="white"/>
<path d="M19.4844 10.6591C19.2969 10.7575 19.1094 11.0762 19.1094 11.2966C19.1094 11.3762 19.2313 11.6903 19.3906 12.0044C19.9766 13.195 20.2344 14.2684 20.2344 15.5434C20.2344 16.8184 19.9766 17.8919 19.3906 19.0825C19.2313 19.3966 19.1094 19.7106 19.1094 19.7903C19.1094 20.0106 19.2969 20.3294 19.4844 20.4278C19.6813 20.5309 19.9438 20.5356 20.1641 20.4466C20.3516 20.3669 20.5203 20.1278 20.8063 19.5278C21.4109 18.2669 21.6875 17.0106 21.6875 15.5434C21.6875 14.3856 21.5328 13.4622 21.1672 12.4216C21.0078 11.9669 20.5156 10.9356 20.3844 10.795C20.1922 10.5747 19.7656 10.5137 19.4844 10.6591Z" fill="white"/>
<path d="M7.19834 12.0888C6.87021 12.3045 6.34521 13.556 6.19521 14.4654C6.10615 15.0373 6.10615 16.0498 6.19521 16.6217C6.34521 17.531 6.87021 18.7826 7.19834 18.9982C7.54053 19.2279 8.03271 19.0967 8.2249 18.731C8.37021 18.4357 8.35615 18.2904 8.11709 17.8076C7.72334 16.9967 7.57803 16.3967 7.57803 15.5435C7.57803 14.6904 7.72334 14.0904 8.11709 13.2795C8.35615 12.7967 8.37021 12.6513 8.2249 12.356C8.03271 11.9904 7.54053 11.8592 7.19834 12.0888Z" fill="white"/>
<path d="M17.1407 12.0326C16.8313 12.1591 16.6297 12.5294 16.7001 12.8388C16.7141 12.9185 16.8126 13.1435 16.9063 13.3404C17.2719 14.0576 17.4219 14.7091 17.4219 15.5435C17.4219 16.3872 17.2672 17.0388 16.8922 17.7701C16.5876 18.3747 16.6297 18.7169 17.0516 19.0029C17.1829 19.0919 17.2579 19.1107 17.4501 19.0966C17.8016 19.0685 17.9516 18.9372 18.2001 18.4404C18.6641 17.5122 18.8751 16.6169 18.8751 15.5435C18.8751 15.1966 18.8422 14.7091 18.8047 14.4654C18.6594 13.5935 18.1438 12.3372 17.8391 12.1169C17.6704 11.9997 17.3235 11.9529 17.1407 12.0326Z" fill="white"/>
<path d="M11.6984 19.2138C10.5922 19.5935 9.92188 20.5216 9.92188 21.6841C9.92188 22.8466 10.5922 23.7748 11.6984 24.1545C12.1156 24.2951 12.8281 24.3045 13.2547 24.1685C14.0703 23.9201 14.6891 23.306 14.9703 22.4857C15.1203 22.0498 15.1203 21.3185 14.9703 20.8826C14.6844 20.0388 14.0516 19.4341 13.2078 19.181C12.8187 19.0638 12.0875 19.0826 11.6984 19.2138ZM12.9828 20.6576C13.4047 20.8732 13.625 21.2201 13.625 21.6841C13.625 22.331 13.1469 22.8091 12.5 22.8091C11.8578 22.8091 11.375 22.3263 11.375 21.6841C11.375 21.0373 11.8391 20.5638 12.4906 20.5591C12.7016 20.5591 12.8422 20.5873 12.9828 20.6576Z" fill="white"/>
</svg>
