<svg width="22" height="25" viewBox="0 0 22 25" fill="none" xmlns="http://www.w3.org/2000/svg">
<path d="M14.375 0.413183C13.8313 0.58662 13.7656 0.638184 13.7656 0.895996C13.7656 1.271 13.9906 1.33193 14.6563 1.13037C15.2703 0.947557 15.5047 0.98037 15.8 1.28975C15.9172 1.41162 16.2313 2.40537 18.4156 9.60068C20.6234 16.871 20.8953 17.7991 20.8766 18.0194C20.8578 18.2772 20.7641 18.446 20.5578 18.6007C20.4969 18.6476 17.6281 19.5429 14.1875 20.5882C7.03906 22.7585 6.85156 22.8147 6.77188 22.7913C6.73906 22.7772 6.65469 22.7585 6.58438 22.7444C6.425 22.7069 6.19063 22.5101 6.09688 22.3366C6.05938 22.2616 5.59531 20.771 5.06563 19.0272C4.53594 17.2835 4.08125 15.8163 4.05781 15.7694C3.89844 15.4741 3.35938 15.6054 3.35938 15.9382C3.35938 16.1163 5.3375 22.5522 5.45938 22.7819C5.6 23.0397 5.86719 23.2788 6.17656 23.4194L6.38281 23.5132L3.9875 23.4991L1.59219 23.4897L1.42813 23.3632C1.08125 23.1007 1.10938 23.7241 1.11875 15.8022L1.13281 8.69131L2.06094 11.7522C2.57188 13.4397 3.02656 14.8554 3.06406 14.8976C3.11094 14.9491 3.20938 14.9819 3.32188 14.9819C3.54688 14.9819 3.6875 14.8507 3.6875 14.6397C3.6875 14.5226 2.23438 9.61475 2.05625 9.12725C2.04219 9.08506 2.14063 9.15537 2.27188 9.27725C2.6375 9.61475 2.87188 9.70381 3.40625 9.7085C3.79063 9.7085 3.88906 9.68975 4.10938 9.58662C4.43281 9.43662 4.72344 9.15537 4.89219 8.83193L5.02344 8.5835L5.0375 6.31006L5.05156 4.03662L8.91406 2.86943C11.0422 2.22725 12.8422 1.67412 12.9219 1.64131C13.2453 1.50068 13.1984 1.02724 12.8516 0.938183C12.7813 0.919434 11.5859 1.26162 9.48594 1.89912C7.69063 2.44287 6.19531 2.88818 6.15781 2.88818C6.125 2.88818 6.07344 2.84131 6.04531 2.78037C5.96563 2.60693 5.57656 2.20381 5.3375 2.04912C3.8 1.06474 1.76562 2.171 1.76562 3.98975V4.23818L1.46563 4.34131C0.935938 4.51475 0.59375 4.84287 0.420313 5.33974C0.340625 5.56943 0.335938 6.01475 0.335938 14.3257V23.0679L0.457813 23.3304C0.621875 23.6726 0.85625 23.9304 1.16563 24.1038L1.41406 24.2397H8.84375H16.2734L16.475 24.1319C16.9672 23.8694 17.3281 23.3444 17.3281 22.8944C17.3281 22.7163 17.3047 22.6601 17.2063 22.5804C16.9484 22.3788 16.7 22.4866 16.5969 22.8476C16.5078 23.1522 16.2359 23.4476 16.0063 23.4897C15.9219 23.5038 13.9156 23.5085 11.5438 23.5038L7.24063 23.4897L11.8719 22.0882C14.4219 21.3147 16.5359 20.6726 16.5688 20.6632C16.6109 20.6491 16.625 20.7616 16.625 21.1366C16.625 21.6147 16.6297 21.6335 16.7469 21.7272C16.8875 21.8397 16.9906 21.8491 17.1594 21.7741C17.3281 21.6944 17.3469 21.6288 17.375 20.9866L17.3984 20.4054L18.5469 20.0585C20.8719 19.3601 20.8531 19.3647 21.1203 19.1257C21.4109 18.8632 21.5844 18.5444 21.6453 18.1601C21.7063 17.7991 21.6969 17.7757 20.7734 14.7382C20.3703 13.4163 19.2922 9.86318 18.3781 6.84912C17.3891 3.57725 16.6625 1.24756 16.5734 1.06943C16.1938 0.314745 15.4156 0.0850582 14.375 0.413183ZM4.70469 2.5835C4.84063 2.64443 5.04688 2.79443 5.17344 2.91631L5.39844 3.14131L5.09844 3.23037C4.80313 3.31474 4.80313 3.31474 4.7 3.22099C4.19375 2.74287 3.27031 3.02881 3.07812 3.72725C3.0125 3.97099 3.01719 7.53818 3.08281 7.68818C3.14844 7.8335 3.35 7.91787 3.51875 7.87568C3.78125 7.81006 3.78125 7.81474 3.78125 5.78506C3.78125 3.98037 3.78594 3.91475 3.875 3.82568C3.9875 3.71318 4.09531 3.7085 4.2125 3.81162C4.29219 3.88193 4.29688 4.01318 4.29688 6.08037C4.29688 7.51475 4.27813 8.31631 4.24531 8.40537C4.13281 8.70537 3.73438 8.98193 3.40625 8.98193C3.04531 8.98193 2.66563 8.69131 2.5625 8.33506C2.525 8.21787 2.51562 7.42568 2.525 5.88818C2.53906 3.62881 2.53906 3.61475 2.64688 3.38037C2.75938 3.13193 3.05469 2.79912 3.29375 2.65381C3.6875 2.40537 4.25 2.37724 4.70469 2.5835ZM1.76562 6.57725L1.76094 8.11475L1.4375 7.06006C1.25938 6.47881 1.10938 5.921 1.10938 5.82256C1.10938 5.56006 1.29219 5.26475 1.54063 5.14287C1.65313 5.09131 1.74688 5.04443 1.75625 5.04443C1.76094 5.04443 1.76562 5.7335 1.76562 6.57725Z" fill="white"/>
<path d="M8.53432 5.62568C8.3515 5.70537 8.25775 5.921 8.29994 6.16943C8.32807 6.34287 8.314 6.371 8.16869 6.50225C8.07963 6.57725 7.95775 6.73662 7.9015 6.85381C7.69994 7.271 7.84994 8.03975 8.19682 8.3585C8.39838 8.55068 8.70775 8.64912 9.26088 8.70068C9.94525 8.76631 10.0859 8.82256 10.2078 9.09912C10.3765 9.47412 10.2453 9.70381 9.79994 9.82568C9.56557 9.89131 9.5515 9.89131 9.04994 9.68506C8.74994 9.5585 8.5015 9.75537 8.5015 10.1163C8.5015 10.2804 8.52963 10.3366 8.67025 10.4632C8.84838 10.6272 9.22338 10.7632 9.50463 10.7632C9.64994 10.7632 9.68275 10.7819 9.73432 10.9038C9.814 11.1007 9.95463 11.1851 10.1937 11.1851C10.4843 11.1851 10.6343 11.0163 10.6203 10.7022C10.6062 10.496 10.6203 10.4632 10.7562 10.3601C11.2624 9.96162 11.3328 9.05693 10.9062 8.41475C10.639 8.01162 10.3484 7.88037 9.514 7.79131C8.91869 7.73037 8.82025 7.68818 8.74525 7.48662C8.67494 7.3085 8.77338 7.12568 9.00307 7.01318C9.15775 6.93818 9.29369 6.91943 9.6265 6.91943C10.0343 6.91943 10.0624 6.91475 10.1515 6.79756C10.2921 6.61943 10.2828 6.31475 10.1374 6.17412C10.0015 6.04756 9.65932 5.97256 9.4015 6.01006C9.2515 6.0335 9.21869 6.02881 9.21869 5.96318C9.21869 5.846 8.97494 5.60693 8.82025 5.5835C8.74525 5.56943 8.614 5.58818 8.53432 5.62568Z" fill="white"/>
<path d="M11.2577 11.9351C8.65617 12.7272 6.36868 13.4257 6.18118 13.4772C5.8718 13.571 5.82961 13.5944 5.76868 13.7397C5.66086 13.9976 5.81555 14.2741 6.06868 14.2788C6.15305 14.2788 15.0124 11.621 16.1702 11.2507C16.564 11.1241 16.6859 10.8663 16.4796 10.6038C16.3999 10.5054 16.3484 10.4819 16.189 10.4866C16.0812 10.4913 13.8874 11.1335 11.2577 11.9351Z" fill="white"/>
<path d="M11.9609 13.8429C9.38281 14.6257 7.09531 15.3241 6.88438 15.3897C6.66875 15.4554 6.44844 15.5538 6.40156 15.6054C6.2 15.8257 6.37344 16.2007 6.67344 16.2007C6.79531 16.2007 15.3922 13.6366 16.8266 13.1679C17.0094 13.1116 17.0703 13.0647 17.1219 12.9382C17.2297 12.6757 17.0422 12.3944 16.7656 12.4085C16.7 12.4132 14.5391 13.0554 11.9609 13.8429Z" fill="white"/>
<path d="M12.1016 15.9241C8.75938 16.9413 7.02031 17.4944 6.98281 17.546C6.95 17.5882 6.92188 17.7054 6.92188 17.7991C6.92188 17.9351 6.95 17.996 7.04375 18.071C7.11406 18.1272 7.20781 18.1694 7.25938 18.1694C7.34844 18.1694 17.0609 15.2397 17.4594 15.0944C17.6797 15.0147 17.75 14.9163 17.75 14.7054C17.75 14.4944 17.6047 14.3726 17.3656 14.3772C17.2484 14.3819 15.0312 15.0335 12.1016 15.9241Z" fill="white"/>
<path d="M17.0234 16.5522C16.5875 16.6882 14.3375 17.3726 12.0312 18.071C9.725 18.7694 7.77969 19.3647 7.71406 19.3929C7.5875 19.4444 7.48438 19.6085 7.48438 19.7585C7.48438 19.9226 7.66719 20.0913 7.84531 20.0913C7.96719 20.0913 16.4797 17.5507 17.9984 17.0632C18.3547 16.946 18.4578 16.6272 18.2187 16.3882C18.0828 16.2522 17.9187 16.2757 17.0234 16.5522Z" fill="white"/>
</svg>
