<svg width="23" height="18" viewBox="0 0 23 18" fill="none" xmlns="http://www.w3.org/2000/svg">
<path d="M10.3659 0.726248C9.78937 0.85281 9.52687 0.941873 8.99249 1.20437C7.54874 1.9075 6.45187 3.25281 6.02999 4.84187C5.93156 5.22156 5.90343 5.43719 5.88937 6.09812C5.87062 6.78719 5.88 6.96062 5.96906 7.3825C6.44249 9.68406 8.22843 11.4231 10.5394 11.8262C11.1769 11.9341 12.3112 11.8919 12.9206 11.7325C13.9097 11.47 14.7487 10.9872 15.4894 10.2512C16.2253 9.51062 16.7081 8.67625 16.9706 7.6825C17.1347 7.06375 17.1769 5.89187 17.055 5.25437C16.9144 4.48562 16.5347 3.51062 16.3331 3.40281C16.0706 3.26219 15.7191 3.445 15.7191 3.72156C15.7191 3.79656 15.8034 4.03562 15.9019 4.25125C16.2347 4.95906 16.305 5.32 16.3003 6.28562C16.3003 7.06844 16.2909 7.16219 16.1691 7.55125C16.0472 7.95906 15.7003 8.72312 15.5597 8.90594C15.4941 8.98562 15.4706 8.97625 15.1472 8.71375C14.5566 8.23094 13.9472 7.87937 13.3847 7.69656L13.1362 7.61219L13.4222 7.31219C13.9144 6.78719 14.1253 6.24344 14.1253 5.51219C14.1253 4.77156 13.8722 4.15281 13.3659 3.64656C12.8597 3.14031 12.2409 2.88719 11.5003 2.88719C10.7597 2.88719 10.1409 3.14031 9.63468 3.64656C9.12843 4.15281 8.87531 4.77156 8.87531 5.51219C8.87531 6.23875 9.08624 6.78719 9.57843 7.3075L9.85968 7.6075L9.56437 7.71531C8.94093 7.94031 8.35968 8.2825 7.79718 8.75125C7.52531 8.97625 7.50656 8.98562 7.44093 8.90125C7.29562 8.70906 6.94875 7.94969 6.82687 7.55125C6.70968 7.16219 6.70031 7.06844 6.70031 6.28562C6.69562 5.545 6.70968 5.395 6.80343 5.04344C7.34718 3.05593 9.07218 1.60281 11.0784 1.44344C11.9409 1.37312 12.78 1.51844 13.5112 1.86062C13.7269 1.95906 13.9659 2.04344 14.0409 2.04344C14.3316 2.04344 14.5144 1.65437 14.3362 1.40125C14.2425 1.27 13.4784 0.941873 12.9159 0.791873C12.5269 0.688747 12.3441 0.669998 11.6175 0.655935C10.9237 0.641872 10.7034 0.655935 10.3659 0.726248ZM12.2644 3.83875C12.6112 3.99812 13.0144 4.39656 13.1784 4.74812C13.2909 4.99187 13.305 5.07625 13.305 5.51219C13.305 5.94812 13.2909 6.0325 13.1784 6.27625C13.0144 6.62312 12.6112 7.02625 12.2644 7.19031C12.0206 7.30281 11.9362 7.31687 11.5003 7.31687C11.0644 7.31687 10.98 7.30281 10.7362 7.19031C10.3894 7.02625 9.98624 6.62312 9.82218 6.27625C9.70968 6.0325 9.69562 5.94812 9.69562 5.51219C9.69562 5.07625 9.70968 4.99187 9.81749 4.76219C10.0425 4.28875 10.4269 3.93719 10.905 3.76844C11.2706 3.63719 11.9034 3.67 12.2644 3.83875ZM12.4144 8.25906C13.2253 8.41375 14.0878 8.84031 14.6691 9.37937L14.9784 9.66062L14.7253 9.87625C13.6612 10.7856 12.4331 11.1934 11.0644 11.0809C10.0566 11.0012 8.87062 10.4716 8.24249 9.82469L8.05499 9.62781L8.31281 9.38875C9.37218 8.40906 10.9331 7.97781 12.4144 8.25906Z" fill="white"/>
<path d="M3.33438 1.84658C2.89844 2.28252 2.875 2.31533 2.875 2.50283C2.875 2.76064 2.99688 2.88721 3.24063 2.88721C3.33906 2.88721 3.46563 2.85439 3.52188 2.81221L3.625 2.74189V4.59346C3.625 6.38877 3.62969 6.45439 3.71875 6.54346C3.77969 6.60439 3.87344 6.63721 4 6.63721C4.12656 6.63721 4.22031 6.60439 4.28125 6.54346C4.37031 6.45439 4.375 6.38877 4.375 4.59346V2.74189L4.47813 2.81221C4.53438 2.85439 4.66094 2.88721 4.75938 2.88721C5.00313 2.88721 5.125 2.76064 5.125 2.50283C5.125 2.31533 5.10156 2.28252 4.66563 1.84658C4.225 1.40596 4.19688 1.38721 4 1.38721C3.80313 1.38721 3.775 1.40596 3.33438 1.84658Z" fill="white"/>
<path d="M18.3344 1.84658C17.8984 2.28252 17.875 2.31533 17.875 2.50283C17.875 2.76064 17.9969 2.88721 18.2406 2.88721C18.3391 2.88721 18.4656 2.85439 18.5219 2.81221L18.625 2.74189V4.59346C18.625 6.38877 18.6297 6.45439 18.7188 6.54346C18.7797 6.60439 18.8734 6.63721 19 6.63721C19.1266 6.63721 19.2203 6.60439 19.2812 6.54346C19.3703 6.45439 19.375 6.38877 19.375 4.59346V2.74189L19.4781 2.81221C19.5344 2.85439 19.6609 2.88721 19.7594 2.88721C20.0031 2.88721 20.125 2.76064 20.125 2.50283C20.125 2.31533 20.1016 2.28252 19.6656 1.84658C19.225 1.40596 19.1969 1.38721 19 1.38721C18.8031 1.38721 18.775 1.40596 18.3344 1.84658Z" fill="white"/>
<path d="M15.0391 2.18859C14.8891 2.27765 14.8281 2.38078 14.8281 2.5589C14.8281 2.84484 15.1187 3.01828 15.4141 2.90578C15.5312 2.8589 15.6344 2.61515 15.6016 2.46515C15.55 2.2214 15.2453 2.0714 15.0391 2.18859Z" fill="white"/>
<path d="M4.64238 8.184C4.30019 8.24493 3.77988 8.409 3.40957 8.58243C2.93145 8.79806 2.53301 9.084 2.09238 9.51056C1.4502 10.134 1.05176 10.7949 0.779883 11.6762C0.658008 12.0746 0.65332 12.1496 0.65332 13.0121C0.65332 13.8746 0.658008 13.9496 0.779883 14.3434C1.06113 15.2527 1.45488 15.8996 2.11582 16.5371C2.8002 17.1981 3.58301 17.6106 4.51582 17.8027C5.17207 17.9387 6.24082 17.9059 6.83613 17.7277C7.73144 17.4606 8.40176 17.0527 9.05332 16.3637C9.91582 15.459 10.3752 14.334 10.3752 13.134C10.3752 12.6606 10.3705 12.6418 10.2533 12.5481C9.99551 12.3465 9.65332 12.4731 9.60644 12.7871C9.59238 12.8715 9.57363 13.1293 9.56426 13.3637C9.54082 13.8746 9.33926 14.5168 9.05332 14.9996L8.86582 15.3231L8.74395 15.1637C8.33144 14.6246 7.86269 14.2402 7.27676 13.9449C7.11269 13.8606 6.96738 13.7902 6.95801 13.7809C6.94863 13.7715 6.99551 13.7059 7.07051 13.6356C7.91894 12.7824 7.89082 11.3387 7.00488 10.5184C5.72519 9.33243 3.65801 10.0121 3.33926 11.7231C3.2127 12.4027 3.44707 13.1481 3.92988 13.6356C4.00488 13.7059 4.05176 13.7715 4.04238 13.7809C4.03301 13.7902 3.8877 13.8606 3.72363 13.9449C3.55957 14.0293 3.30645 14.1746 3.16113 14.2731C2.90332 14.4512 2.3877 14.9621 2.2377 15.1918C2.19551 15.2574 2.14395 15.2996 2.1252 15.2856C2.03613 15.2293 1.74082 14.634 1.6002 14.2262C1.4502 13.7996 1.44551 13.7621 1.44551 13.0356C1.44551 12.1637 1.49707 11.9106 1.81582 11.2543C2.42051 10.0027 3.55488 9.159 4.90957 8.95743C5.26582 8.90587 5.35019 8.87775 5.43926 8.76993C5.57988 8.60587 5.57988 8.39962 5.42988 8.25431C5.30801 8.12775 5.09707 8.109 4.64238 8.184ZM5.9877 10.8137C6.30176 10.9309 6.61113 11.2168 6.76582 11.5356C7.00957 12.0277 6.88301 12.6934 6.47051 13.0965C5.78145 13.7715 4.69863 13.5793 4.24395 12.7074C4.0752 12.3793 4.06582 11.8731 4.23457 11.5356C4.5627 10.8652 5.30801 10.5559 5.9877 10.8137ZM6.25957 14.4137C7.06113 14.6199 7.7502 15.1215 8.18144 15.8012L8.30332 15.9934L8.12988 16.134C6.57832 17.4231 4.42207 17.4231 2.87051 16.134L2.69707 15.9934L2.81895 15.8012C3.24551 15.1262 3.93926 14.6246 4.72207 14.4184C5.17207 14.3012 5.80488 14.2965 6.25957 14.4137Z" fill="white"/>
<path d="M17.5751 8.24494C17.4438 8.37619 17.4204 8.53087 17.5048 8.71837C17.5704 8.859 17.7157 8.91525 18.086 8.95744C18.4798 8.99962 19.1501 9.234 19.5298 9.45431C20.2563 9.88556 20.7907 10.4621 21.161 11.2074C21.5032 11.9012 21.5548 12.1449 21.5548 13.0356C21.5548 13.7621 21.5501 13.7996 21.4001 14.2309C21.3157 14.4746 21.161 14.8215 21.0532 14.9996L20.8657 15.3231L20.7438 15.1637C20.3313 14.6246 19.8626 14.2402 19.2767 13.9449C19.1126 13.8606 18.9673 13.7902 18.9579 13.7809C18.9485 13.7715 18.9954 13.7059 19.0704 13.6356C19.9188 12.7824 19.8907 11.3387 19.0048 10.5184C17.7251 9.33244 15.6579 10.0121 15.3392 11.7231C15.2126 12.4027 15.447 13.1481 15.9298 13.6356C16.0048 13.7059 16.0517 13.7715 16.0423 13.7809C16.0329 13.7902 15.8876 13.8606 15.7235 13.9449C15.1376 14.2402 14.6688 14.6246 14.2563 15.1637L14.1345 15.3231L13.947 14.9996C13.661 14.5168 13.4595 13.8746 13.436 13.3637C13.4267 13.1293 13.4079 12.8715 13.3938 12.7871C13.347 12.4731 13.0048 12.3465 12.7423 12.5527L12.6157 12.6512L12.6392 13.2887C12.6626 13.9965 12.7751 14.4699 13.0704 15.1027C13.5579 16.1621 14.6032 17.1418 15.6954 17.5637C16.3563 17.8215 16.8579 17.9012 17.6876 17.8731C18.297 17.8543 18.4798 17.8309 18.836 17.7277C19.7313 17.4606 20.4017 17.0527 21.0532 16.3637C21.7001 15.6793 22.122 14.8777 22.3048 13.9543C22.4267 13.3543 22.3845 12.2434 22.2157 11.6762C21.8079 10.3074 20.8329 9.15431 19.586 8.57775C19.122 8.36212 18.5032 8.19337 18.0626 8.15587C17.711 8.12775 17.6923 8.12775 17.5751 8.24494ZM17.9876 10.8137C18.3017 10.9309 18.611 11.2168 18.7657 11.5356C18.9345 11.8731 18.9251 12.3793 18.7563 12.7074C18.2032 13.7668 16.797 13.7668 16.2438 12.7074C16.0751 12.3793 16.0657 11.8731 16.2345 11.5356C16.5626 10.8652 17.3079 10.5559 17.9876 10.8137ZM18.2595 14.4137C19.0751 14.6246 19.7595 15.1309 20.2282 15.8715C20.2985 15.9887 20.2985 15.9981 20.1298 16.134C18.5782 17.4231 16.422 17.4231 14.8704 16.134L14.697 15.9934L14.8188 15.8012C15.2454 15.1262 15.9392 14.6246 16.722 14.4184C17.172 14.3012 17.8048 14.2965 18.2595 14.4137Z" fill="white"/>
</svg>
