<svg width="25" height="22" viewBox="0 0 25 22" fill="none" xmlns="http://www.w3.org/2000/svg">
<path d="M4.50781 0.570047C3.54219 0.851297 2.79219 1.62005 2.54375 2.5763C2.44531 2.94661 2.45 3.64505 2.54375 4.01536C2.64688 4.41848 2.91406 4.90598 3.20938 5.22005L3.45781 5.49192L3.13906 5.65598C2.04219 6.20911 1.19375 7.1513 0.78125 8.27161C0.532813 8.9513 0.5 9.22786 0.5 10.5779C0.5 11.9372 0.509375 11.9841 0.739063 12.1107C0.790625 12.1388 1.29219 12.2607 1.85 12.3825L2.86719 12.6075L2.975 12.9544C3.2375 13.7982 3.55156 14.5388 3.89375 15.1341L4.05781 15.4154L3.57031 16.2357C3.14375 16.9482 3.07812 17.0794 3.07812 17.2622V17.4732L4.19375 18.5841L5.30469 19.6997H5.51562C5.69375 19.6997 5.82969 19.6341 6.54688 19.2075L7.37188 18.7154L8.00469 19.0341C8.6 19.3341 9.28438 19.6013 9.88438 19.77C10.1891 19.8544 10.1328 19.7279 10.4094 20.8716C10.5828 21.5794 10.7234 21.9216 10.8547 21.9732C10.8969 21.9919 11.6375 22.0013 12.5 21.9966C14.225 21.9919 14.2203 21.9919 14.3516 21.7013C14.3891 21.6169 14.4969 21.2466 14.5859 20.8716C14.8672 19.7279 14.8109 19.8544 15.1156 19.77C15.7156 19.6013 16.4 19.3341 16.9953 19.0341L17.6281 18.7154L18.4531 19.2075C19.1703 19.6341 19.3063 19.6997 19.4844 19.6997H19.6953L20.8063 18.5841L21.9219 17.4732V17.2622C21.9219 17.0794 21.8563 16.9482 21.4297 16.231L20.9422 15.4154L21.0641 15.1997C21.4156 14.6091 21.7625 13.7982 22.025 12.9544L22.1328 12.6075L23.15 12.3825C23.7078 12.2607 24.2094 12.1388 24.2609 12.1107C24.4953 11.9841 24.5 11.9466 24.5 10.4654C24.5 9.1388 24.4953 9.0638 24.3828 8.66067C24.0406 7.39505 22.9953 6.19505 21.7438 5.62786L21.4484 5.49192L21.6969 5.22005C22.1891 4.69036 22.4375 4.04348 22.4375 3.29348C22.4375 2.48723 22.175 1.84973 21.6219 1.29661C21.0688 0.743484 20.4313 0.480984 19.625 0.480984C18.8188 0.480984 18.1813 0.743484 17.6281 1.29661C17.075 1.84973 16.8125 2.48723 16.8125 3.29348C16.8125 4.0388 17.0609 4.69036 17.5484 5.21536L17.7922 5.48255L17.3469 5.70755C16.8547 5.95598 16.5734 6.14817 16.2219 6.49036L15.9875 6.72005L15.8938 6.61692C15.6313 6.32161 14.6 5.59036 14.45 5.59036C14.4219 5.59036 14.3703 5.57161 14.3328 5.54817C14.2766 5.51067 14.3188 5.44505 14.5203 5.22942C15.0172 4.69036 15.2656 4.04348 15.2656 3.29348C15.2656 2.48723 15.0031 1.84973 14.45 1.29661C13.8969 0.743484 13.2594 0.480984 12.4531 0.480984C11.6469 0.480984 11.0094 0.743484 10.4563 1.29661C9.90313 1.84973 9.64062 2.48723 9.64062 3.29348C9.64062 4.04348 9.88906 4.69036 10.3859 5.22942C10.5875 5.44505 10.6297 5.51067 10.5734 5.54817C10.5359 5.57161 10.4844 5.59036 10.4563 5.59036C10.3063 5.59036 9.275 6.32161 9.0125 6.61692L8.91875 6.72005L8.68438 6.49036C8.33281 6.14817 8.05156 5.95598 7.55938 5.70755L7.11406 5.48255L7.35781 5.21536C7.64844 4.90598 7.91563 4.41848 8.01875 4.01536C8.1125 3.64505 8.11719 2.94661 8.01875 2.5763C7.76563 1.6013 6.97344 0.809109 5.99844 0.555984C5.61406 0.457546 4.87344 0.462234 4.50781 0.570047ZM6.05938 1.62942C6.41563 1.80286 6.77188 2.1638 6.95 2.52005C7.07188 2.77786 7.08594 2.84348 7.08594 3.29348C7.08594 3.74348 7.07188 3.80911 6.95 4.06692C6.77188 4.42786 6.41563 4.78411 6.05469 4.96223C5.79688 5.08411 5.73125 5.09817 5.28125 5.09817C4.83125 5.09817 4.76562 5.08411 4.50781 4.96223C4.14688 4.78411 3.79063 4.42786 3.6125 4.06692C3.49063 3.80911 3.47656 3.74348 3.47656 3.29348C3.47656 2.85286 3.49063 2.77317 3.60313 2.54348C3.77188 2.2013 4.00625 1.93411 4.29688 1.74661C4.64844 1.52161 4.86875 1.46536 5.35625 1.47942C5.7125 1.4888 5.825 1.51223 6.05938 1.62942ZM13.2313 1.62942C13.5875 1.80286 13.9438 2.1638 14.1219 2.52005C14.2438 2.77786 14.2578 2.84348 14.2578 3.29348C14.2578 3.74348 14.2438 3.80911 14.1219 4.06692C13.9438 4.42786 13.5875 4.78411 13.2266 4.96223C12.9688 5.08411 12.9031 5.09817 12.4531 5.09817C12.0031 5.09817 11.9375 5.08411 11.6797 4.96223C11.3188 4.78411 10.9625 4.42786 10.7844 4.06692C10.6625 3.80911 10.6484 3.74348 10.6484 3.29348C10.6484 2.85286 10.6625 2.77317 10.775 2.54348C10.9438 2.2013 11.1781 1.93411 11.4688 1.74661C11.8203 1.52161 12.0406 1.46536 12.5281 1.47942C12.8844 1.4888 12.9969 1.51223 13.2313 1.62942ZM20.4031 1.62942C20.7594 1.80286 21.1156 2.1638 21.2938 2.52005C21.4156 2.77786 21.4297 2.84348 21.4297 3.29348C21.4297 3.74348 21.4156 3.80911 21.2938 4.06692C21.1156 4.42786 20.7594 4.78411 20.3984 4.96223C20.1406 5.08411 20.075 5.09817 19.625 5.09817C19.175 5.09817 19.1094 5.08411 18.8516 4.96223C18.4906 4.78411 18.1344 4.42786 17.9563 4.06692C17.8344 3.80911 17.8203 3.74348 17.8203 3.29348C17.8203 2.85286 17.8344 2.77317 17.9469 2.54348C18.1156 2.2013 18.35 1.93411 18.6406 1.74661C18.9922 1.52161 19.2125 1.46536 19.7 1.47942C20.0563 1.4888 20.1688 1.51223 20.4031 1.62942ZM6.5375 6.34973C7.1375 6.55598 7.67656 6.87942 8.04219 7.24973L8.32813 7.53567L8.16406 7.91067C8.075 8.11692 7.96719 8.4263 7.92031 8.59973L7.84063 8.91848H4.72813H1.61563L1.64375 8.78723C1.6625 8.71692 1.775 8.4638 1.89219 8.22473C2.24844 7.50286 2.99375 6.79505 3.7625 6.45286C4.2875 6.21848 4.68125 6.15286 5.39844 6.16692C6.00781 6.18098 6.0875 6.19505 6.5375 6.34973ZM13.2641 6.22786C13.4516 6.26536 13.8125 6.4013 14.0703 6.52786C14.8766 6.92161 15.3922 7.43723 15.7813 8.2388C15.9031 8.49661 16.0156 8.75442 16.0297 8.81067L16.0531 8.91848H12.4531H8.85313L8.87656 8.81067C8.93281 8.56692 9.36875 7.7513 9.58438 7.49348C10.0719 6.90755 10.8453 6.42473 11.5672 6.24661C12.0125 6.13411 12.8094 6.12473 13.2641 6.22786ZM20.4313 6.21848C21.3828 6.42005 22.3297 7.0388 22.8875 7.82161C23.0797 8.0888 23.3281 8.57161 23.3984 8.81067L23.4266 8.91848H20.2484H17.0656L16.9859 8.59973C16.9391 8.4263 16.8313 8.11692 16.7422 7.91067L16.5781 7.53567L16.85 7.2638C17.3141 6.79036 18.0875 6.37786 18.8047 6.22317C19.1797 6.1388 20.0422 6.1388 20.4313 6.21848ZM6.35938 10.4044C6.35938 13.3247 8.49219 15.8372 11.4031 16.3435C11.9422 16.4419 12.9641 16.4419 13.5031 16.3435C15.0031 16.081 16.3344 15.2888 17.2578 14.0982C18.125 12.9732 18.5469 11.7732 18.5469 10.4044V9.85598H21.0547H23.5625V10.5685V11.2857L22.9391 11.4169C21.2188 11.7872 21.2938 11.745 21.125 12.4341C20.9234 13.2497 20.5859 14.0654 20.1406 14.8013C19.7703 15.42 19.7656 15.3919 20.3234 16.32C20.5813 16.756 20.7969 17.131 20.7969 17.1544C20.7969 17.2013 19.4281 18.5747 19.3766 18.5747C19.3531 18.5747 18.9828 18.3638 18.5516 18.106C17.975 17.7591 17.7313 17.6372 17.6141 17.6372C17.5063 17.6372 17.3141 17.7169 17.0281 17.8857C16.2453 18.3404 15.4859 18.6544 14.6563 18.856C14.0141 19.0154 14.0188 19.0107 13.7375 20.1357L13.5125 21.0591H12.5H11.4875L11.2625 20.1357C10.9813 19.0107 10.9859 19.0154 10.3438 18.856C9.51406 18.6544 8.75469 18.3404 7.97188 17.8857C7.68594 17.7169 7.49375 17.6372 7.38594 17.6372C7.26875 17.6372 7.025 17.7591 6.44844 18.106C6.01719 18.3638 5.64688 18.5747 5.62344 18.5747C5.57188 18.5747 4.20313 17.2013 4.20313 17.1544C4.20313 17.131 4.41875 16.756 4.67656 16.32C5.23438 15.3919 5.22969 15.42 4.85938 14.8013C4.41406 14.0654 4.07656 13.2497 3.875 12.4341C3.70625 11.745 3.78125 11.7872 2.06094 11.4169L1.4375 11.2857V10.5685V9.85598H3.89844H6.35938V10.4044ZM17.5625 10.3669C17.5625 12.795 15.8 14.9044 13.3766 15.3638C12.8984 15.4529 12.0078 15.4529 11.5297 15.3638C9.97344 15.0685 8.64219 14.0794 7.91563 12.6779C7.52188 11.9232 7.34375 11.206 7.34375 10.3669V9.85598H12.4531H17.5625V10.3669Z" fill="white"/>
<path d="M19.5594 10.9153C19.4609 11.0138 19.4375 11.0841 19.4375 11.2622C19.4375 11.4403 19.4609 11.5106 19.5594 11.6091C19.6578 11.7075 19.7281 11.731 19.9063 11.731C20.0844 11.731 20.1547 11.7075 20.2531 11.6091C20.3516 11.5106 20.375 11.4403 20.375 11.2622C20.375 11.0841 20.3516 11.0138 20.2531 10.9153C20.1547 10.8169 20.0844 10.7935 19.9063 10.7935C19.7281 10.7935 19.6578 10.8169 19.5594 10.9153Z" fill="white"/>
<path d="M19.1094 12.9827C18.9688 13.0389 18.861 13.1655 18.711 13.4655C18.2001 14.4733 17.2907 15.5045 16.3672 16.1233C15.3829 16.7795 14.1688 17.2155 13.1141 17.2858C12.3126 17.3374 12.2329 17.3561 12.1063 17.4827C11.9282 17.6561 11.9329 17.9936 12.1157 18.1764L12.2422 18.303L12.8985 18.2795C15.3407 18.1858 17.6985 16.8545 19.086 14.778C19.4376 14.2483 19.7657 13.592 19.7657 13.4092C19.7657 13.142 19.3672 12.8795 19.1094 12.9827Z" fill="white"/>
</svg>
