<svg width="23" height="23" viewBox="0 0 23 23" fill="none" xmlns="http://www.w3.org/2000/svg">
<path d="M10.6656 0.135059C9.54531 0.514748 8.875 1.45225 8.875 2.63819C8.875 3.37881 9.10469 3.96475 9.59688 4.48506C9.69063 4.58818 9.7375 4.66787 9.70469 4.67725C9.67188 4.68662 9.44688 4.75225 9.20312 4.81787C8.58438 4.99131 7.83438 5.31475 7.25781 5.66162L6.775 5.95225L6.19375 5.371C5.87969 5.05693 5.55156 4.76162 5.47188 4.72412C5.27969 4.63506 4.97031 4.63506 4.77813 4.72412C4.58125 4.81787 3.50313 5.90537 3.44219 6.07412C3.37656 6.24287 3.37656 6.55693 3.4375 6.67412C3.48438 6.7585 3.46563 6.76318 2.79063 6.76318C2.03125 6.76318 1.75 6.81475 1.375 7.03506C1.16875 7.15225 0.671875 7.58818 0.671875 7.65381C0.671875 7.68662 1.25313 8.12256 1.30469 8.12256C1.31875 8.12256 1.38906 8.06162 1.45 7.98193C1.51562 7.90693 1.70781 7.77568 1.88125 7.69131L2.19063 7.53662L3.36719 7.51787C4.09844 7.5085 4.675 7.52256 4.88594 7.55537C5.44375 7.64443 5.79531 7.87412 6.04375 8.31943C6.16563 8.54443 6.17969 8.61006 6.17969 9.01318C6.17969 9.52412 6.1 9.72568 5.78125 10.0444C5.38281 10.4429 5.06406 10.5132 3.625 10.5132C2.18594 10.5132 1.86719 10.4429 1.46875 10.0444C1.18281 9.7585 1.07969 9.51943 1.05625 9.07412L1.0375 8.68975L0.817188 8.64287C0.7 8.61943 0.521875 8.58193 0.423438 8.56787L0.25 8.53506V8.98037C0.25 9.70693 0.460938 10.2132 0.953125 10.6726L1.18281 10.8882L0.953125 11.1038C0.470313 11.5538 0.25 12.0741 0.25 12.7585C0.25 13.4101 0.423438 13.8647 0.85 14.3194C1.08438 14.5726 1.39375 14.7788 1.7125 14.896L1.92813 14.9757L1.74531 15.2382C1.49219 15.5991 1.375 16.0022 1.375 16.5132C1.375 17.3804 1.75938 18.046 2.50938 18.496C2.74844 18.6366 2.77188 18.6647 2.70625 18.721C2.56094 18.8429 2.34531 19.2038 2.2375 19.5085C2.09219 19.9116 2.08281 20.5444 2.21406 20.9616C2.42969 21.6507 3.02031 22.2366 3.71406 22.4382C3.925 22.4991 4.24375 22.5132 5.50938 22.5132C6.94375 22.5132 7.07031 22.5085 7.34219 22.4147C7.7125 22.2929 8.0125 22.1007 8.275 21.8194C8.54219 21.5335 8.65469 21.3366 8.78125 20.9663C8.8375 20.7976 8.88906 20.6569 8.89375 20.6522C8.89844 20.6429 9.14688 20.6991 9.44219 20.7741C10.2438 20.9757 10.7641 21.0272 11.7672 20.9991C12.4188 20.9851 12.775 20.9522 13.1313 20.8772C16.4734 20.1741 18.9859 17.6194 19.6422 14.2585C19.7078 13.9069 19.7266 13.5976 19.7266 12.7163C19.7219 11.7507 19.7078 11.5538 19.6188 11.1226C19.4078 10.1476 19.0328 9.20537 18.5453 8.42256L18.3063 8.03818L18.8875 7.46162C19.5109 6.83818 19.6094 6.69287 19.6094 6.38819C19.6094 6.07881 19.5016 5.92412 18.8641 5.296C18.3813 4.81787 18.2313 4.70069 18.0906 4.67725C17.8234 4.62568 17.5609 4.67725 17.3781 4.81787C17.2891 4.88819 17.2047 4.93506 17.2 4.93037C17.1906 4.921 17.0828 4.60694 16.9609 4.23194C16.6281 3.22412 16.6234 2.72256 16.9516 2.06631C17.2375 1.48037 17.9688 0.92256 18.5641 0.82881L18.7609 0.800684L20.3828 4.04444L22.0047 7.28818L21.9859 12.7304L21.9719 18.1772L21.8688 18.571C21.4609 20.1132 20.3453 21.2241 18.8078 21.6319C18.4141 21.7351 18.3906 21.7351 13.6469 21.7491L8.875 21.7679V22.1429V22.5132H13.6703C18.1656 22.5132 18.4891 22.5085 18.8828 22.4241C19.7969 22.2366 20.5797 21.8194 21.2641 21.1585C21.9109 20.5351 22.3141 19.8741 22.5953 18.9647L22.7266 18.5522L22.7406 12.7772L22.7547 7.00225L21.0156 3.5335C19.4969 0.49131 19.2672 0.0600605 19.1594 0.0319347C18.9344 -0.0243149 18.3297 0.0413094 17.9781 0.167871C17.5094 0.331934 17.1719 0.542871 16.8156 0.894434C16.4688 1.23662 16.2344 1.61631 16.0563 2.11787C15.9438 2.43662 15.9297 2.53975 15.9344 3.10694V3.73975L16.2484 4.67725L16.5578 5.61475L16.3797 5.79287L16.2016 5.97569L15.8828 5.75537C15.3109 5.36631 14.3828 4.95381 13.6563 4.771C13.4875 4.72881 13.3281 4.68662 13.2953 4.67725C13.2625 4.66787 13.3094 4.5835 13.4078 4.48037C14.0688 3.78193 14.3031 2.73662 14.0078 1.8085C13.7547 1.00694 13.1547 0.411623 12.3297 0.130373C11.8328 -0.0336895 11.1578 -0.0336895 10.6656 0.135059ZM12.3016 0.983498C12.6766 1.16631 13.0047 1.50381 13.1781 1.87881C13.2906 2.11318 13.3047 2.20225 13.3047 2.63819C13.3047 3.09756 13.2953 3.15381 13.1547 3.43506C13.0703 3.60381 12.9203 3.82412 12.8172 3.92725L12.625 4.11006V3.93662C12.625 3.796 12.6438 3.76319 12.7188 3.76319C12.7703 3.76319 12.8547 3.721 12.9063 3.66944C12.9953 3.58037 13 3.51475 13 2.63819C13 1.76162 12.9953 1.696 12.9063 1.60694C12.8172 1.51787 12.7516 1.51319 11.5 1.51319C10.2484 1.51319 10.1828 1.51787 10.0938 1.60694C10.0047 1.696 10 1.76162 10 2.63819C10 3.51475 10.0047 3.58037 10.0938 3.66944C10.1453 3.721 10.2297 3.76319 10.2812 3.76319C10.3563 3.76319 10.375 3.796 10.375 3.93662V4.11006L10.1828 3.92725C10.0797 3.82412 9.92969 3.60381 9.84531 3.43506C9.70469 3.15381 9.69531 3.09756 9.69531 2.63819C9.69531 2.20225 9.70938 2.11318 9.81719 1.8835C10.0281 1.4335 10.3609 1.11943 10.8391 0.917871C11.0641 0.824121 11.1672 0.810061 11.5469 0.819435C11.9406 0.833498 12.0297 0.852247 12.3016 0.983498ZM12.25 2.63819V3.01319H11.5H10.75V2.63819V2.26319H11.5H12.25V2.63819ZM11.875 4.13819V4.51319H11.5H11.125V4.13819V3.76319H11.5H11.875V4.13819ZM12.9109 5.42725C15.5406 5.96162 17.8047 8.00068 18.6156 10.5601C18.8875 11.4179 18.9297 11.7132 18.9297 12.7866C18.9297 13.6444 18.9156 13.8319 18.8219 14.2538C18.1141 17.4132 15.6438 19.7194 12.4844 20.1694C12.025 20.2351 10.9984 20.2351 10.5063 20.1694C10.1125 20.1179 9.16094 19.8835 8.95 19.7897C8.875 19.7522 8.81875 19.6726 8.77656 19.5272C8.65469 19.0819 8.23281 18.5757 7.74063 18.2804C7.47813 18.121 7.47344 18.1163 7.5625 18.0366C7.72188 17.896 7.92344 17.5351 8.03125 17.2163C8.17656 16.7851 8.14844 16.0585 7.97031 15.6319L7.84844 15.3413L8.15313 15.1679C8.31719 15.0694 8.45312 14.9757 8.45312 14.9569C8.45312 14.9288 8.14375 14.371 8.09219 14.3147C8.07344 14.2866 7.75938 14.4413 7.4875 14.6101L7.3 14.7272L7.08906 14.5866C6.97656 14.5116 6.78438 14.4179 6.6625 14.3757L6.44219 14.3054L6.62031 14.0522C6.71875 13.9116 6.84531 13.6491 6.90625 13.4663L7.01406 13.1382H7.37969H7.75V12.7632V12.3882H7.37969H7.01406L6.91094 12.0694C6.77969 11.6757 6.59219 11.3804 6.29688 11.1038L6.06719 10.8882L6.29688 10.6726C6.77969 10.2226 7 9.70225 7 9.01787C7 8.40381 6.83594 7.94443 6.475 7.53193L6.325 7.36318L6.55469 7.171C7.79219 6.09756 9.39531 5.42256 10.9422 5.31944C11.5609 5.27725 12.4 5.32412 12.9109 5.42725ZM5.63125 5.98037L6.10938 6.46318L5.87969 6.68818L5.65469 6.91318L5.40625 6.83818C5.26562 6.796 5.02656 6.76318 4.86719 6.76318C4.59531 6.76318 4.57188 6.75381 4.39844 6.57568L4.21563 6.38819L4.65625 5.94287C4.9 5.69912 5.11094 5.49756 5.125 5.49756C5.13906 5.49756 5.36406 5.71318 5.63125 5.98037ZM18.3438 5.94287L18.7891 6.38819L18.2969 6.88037L17.8047 7.37256L17.35 6.91787L16.8906 6.4585L17.3688 5.98037C17.6359 5.71318 17.8609 5.49756 17.875 5.49756C17.8891 5.49756 18.1 5.69912 18.3438 5.94287ZM4.9375 11.3147C5.45781 11.3991 5.82812 11.6616 6.07188 12.121C6.16094 12.2851 6.17969 12.3929 6.17969 12.7632C6.17969 13.171 6.16563 13.2319 6.03906 13.4616C5.89844 13.7147 5.64531 13.9538 5.37813 14.0897C5.12969 14.2163 4.67031 14.2632 3.625 14.2632C2.18594 14.2632 1.86719 14.1929 1.46875 13.7944C1.15 13.4757 1.07031 13.2741 1.07031 12.7632C1.07031 12.3929 1.08906 12.2851 1.17813 12.121C1.4125 11.6757 1.79688 11.3944 2.27031 11.3147C2.63125 11.2585 4.57188 11.2538 4.9375 11.3147ZM6.0625 15.0647C6.58281 15.1491 6.95313 15.4116 7.19688 15.871C7.28594 16.0351 7.30469 16.1429 7.30469 16.5132C7.30469 17.0241 7.225 17.2257 6.90625 17.5444C6.66719 17.7835 6.42344 17.9054 6.05781 17.9663C5.66875 18.0272 3.83125 18.0272 3.44219 17.9663C2.92656 17.8819 2.57031 17.6382 2.33125 17.2069C2.20938 16.9819 2.19531 16.9163 2.19531 16.5132C2.19531 16.1429 2.21406 16.0351 2.30313 15.871C2.5375 15.4257 2.92188 15.1444 3.39531 15.0647C3.75625 15.0085 5.69688 15.0038 6.0625 15.0647ZM6.8125 18.8147C7.33281 18.8991 7.70313 19.1616 7.94688 19.621C8.03594 19.7851 8.05469 19.8929 8.05469 20.2632C8.05469 20.7741 7.975 20.9757 7.65625 21.2944C7.41719 21.5335 7.17344 21.6554 6.80781 21.7163C6.41875 21.7772 4.58125 21.7772 4.19219 21.7163C3.67656 21.6319 3.32031 21.3882 3.08125 20.9569C2.95938 20.7319 2.94531 20.6663 2.94531 20.2632C2.94531 19.8929 2.96406 19.7851 3.05313 19.621C3.2875 19.1757 3.67188 18.8944 4.14531 18.8147C4.50625 18.7585 6.44688 18.7538 6.8125 18.8147Z" fill="white"/>
<path d="M10.6094 6.04114C9.16094 6.31302 8.20937 6.71614 7.29062 7.45208L7.09375 7.61614L7.21562 7.76145C7.28594 7.84583 7.40312 7.98177 7.47812 8.06614L7.61406 8.22083L7.9 8.0052C8.55156 7.5177 9.25 7.18489 10.0844 6.96458C10.6937 6.8052 11.8281 6.76302 12.4656 6.87552C13.3047 7.02083 14.1062 7.33958 14.8422 7.82708C15.2734 8.10833 16.15 8.98489 16.4312 9.41145C17.8 11.488 17.8 14.038 16.4359 16.1099C16.1359 16.5646 15.2687 17.4271 14.8047 17.7271C13.7734 18.4021 12.7187 18.7161 11.5 18.7161C10.7687 18.7161 10.2344 18.6271 9.54062 18.3927L9.00625 18.2099L8.84687 18.5615C8.75781 18.7583 8.6875 18.9224 8.6875 18.9271C8.6875 18.9599 9.37187 19.2036 9.7375 19.3021C9.95312 19.363 10.3187 19.4333 10.5531 19.4661C11.1016 19.5411 12.4281 19.5036 12.9016 19.3958C15.5547 18.8052 17.5703 16.7755 18.1422 14.113C18.2641 13.5552 18.2641 11.9708 18.1422 11.413C17.5703 8.7552 15.5453 6.71614 12.9062 6.1302C12.5641 6.0552 10.8906 5.98958 10.6094 6.04114Z" fill="white"/>
<path d="M11.125 8.26318V9.01318H11.5H11.875V8.26318V7.51318H11.5H11.125V8.26318Z" fill="white"/>
<path d="M8.84219 8.19756C8.67813 8.29131 8.54688 8.38506 8.54688 8.4085C8.54688 8.47412 9.26406 9.71631 9.30156 9.71631C9.37188 9.71631 9.95312 9.36475 9.95312 9.32256C9.95312 9.2335 9.23594 8.02881 9.18438 8.02881C9.15625 8.0335 9.00156 8.1085 8.84219 8.19756Z" fill="white"/>
<path d="M13.4031 8.65693C13.2063 9.00381 13.0469 9.30381 13.0469 9.32256C13.0469 9.36475 13.6328 9.71631 13.6984 9.71631C13.7359 9.71631 14.4531 8.47881 14.4531 8.41318C14.4531 8.36631 13.8906 8.02881 13.8063 8.02881C13.7828 8.02881 13.6 8.31006 13.4031 8.65693Z" fill="white"/>
<path d="M6.93438 10.1101C6.84063 10.2741 6.76562 10.4335 6.76562 10.4569C6.76562 10.5038 7.98438 11.2163 8.05938 11.2163C8.10156 11.2163 8.45313 10.6304 8.45313 10.5647C8.45313 10.5272 7.21563 9.81006 7.15 9.81006C7.12188 9.81006 7.02813 9.946 6.93438 10.1101Z" fill="white"/>
<path d="M13.9937 10.8366L12.2453 11.8585L12.0297 11.746C11.7531 11.6101 11.2844 11.596 11.0078 11.7272C10.6047 11.9147 10.375 12.2897 10.375 12.7632C10.375 13.4335 10.825 13.8835 11.4906 13.8882C11.8328 13.8882 12.0719 13.7991 12.2875 13.5929C12.5125 13.3819 12.5922 13.2038 12.6203 12.8616L12.6484 12.5616L14.4062 11.5351C15.3719 10.9726 16.1687 10.4897 16.1781 10.4663C16.2016 10.4007 15.8594 9.81006 15.7984 9.81006C15.7656 9.81475 14.9547 10.2741 13.9937 10.8366ZM11.7344 12.5288C11.7859 12.5804 11.8281 12.6835 11.8281 12.7632C11.8281 12.8429 11.7859 12.946 11.7344 12.9976C11.6828 13.0491 11.5797 13.0913 11.5 13.0913C11.4203 13.0913 11.3172 13.0491 11.2656 12.9976C11.2141 12.946 11.1719 12.8429 11.1719 12.7632C11.1719 12.6835 11.2141 12.5804 11.2656 12.5288C11.3172 12.4772 11.4203 12.4351 11.5 12.4351C11.5797 12.4351 11.6828 12.4772 11.7344 12.5288Z" fill="white"/>
<path d="M15.25 12.7632V13.1382H16H16.75V12.7632V12.3882H16H15.25V12.7632Z" fill="white"/>
<path d="M14.725 14.6194C14.6266 14.7882 14.5469 14.9429 14.5469 14.9616C14.5469 14.9991 15.7891 15.7163 15.8547 15.7163C15.9016 15.7163 16.2344 15.1491 16.2344 15.0694C16.2344 15.0226 15.0203 14.3101 14.9406 14.3101C14.9172 14.3101 14.8188 14.4507 14.725 14.6194Z" fill="white"/>
<path d="M8.90781 16.4429C8.71094 16.7897 8.54688 17.0944 8.54688 17.1179C8.54688 17.1647 9.11406 17.4976 9.19375 17.4976C9.24063 17.4976 9.95312 16.2835 9.95312 16.2038C9.95312 16.1616 9.37188 15.8101 9.30156 15.8101C9.28281 15.8101 9.10938 16.096 8.90781 16.4429Z" fill="white"/>
<path d="M13.3422 15.9882C13.1781 16.0866 13.0469 16.1804 13.0469 16.2038C13.0469 16.2788 13.7594 17.4976 13.8063 17.4976C13.8906 17.4976 14.4531 17.1601 14.4531 17.1132C14.4531 17.0241 13.7313 15.8101 13.6797 15.8147C13.6562 15.8147 13.5016 15.8944 13.3422 15.9882Z" fill="white"/>
<path d="M11.125 17.2632V18.0132H11.5H11.875V17.2632V16.5132H11.5H11.125V17.2632Z" fill="white"/>
</svg>
