<svg width="25" height="23" viewBox="0 0 25 23" fill="none" xmlns="http://www.w3.org/2000/svg">
<path d="M1.85938 0.457519C0.973443 0.705957 0.410943 1.59658 0.556256 2.52002C0.645318 3.10596 1.02501 3.62158 1.56407 3.88877C1.81251 4.01064 1.87813 4.02002 2.35157 4.02002C2.82501 4.02002 2.89063 4.01064 3.14844 3.88408C4.07188 3.42939 4.45157 2.30439 3.98282 1.38096C3.80938 1.03877 3.38751 0.659082 3.04532 0.527832C2.68907 0.396582 2.19219 0.363769 1.85938 0.457519ZM2.82969 1.27314C3.29844 1.51221 3.53282 2.03252 3.38751 2.51064C3.29376 2.82002 3.13438 3.01221 2.84376 3.17158C2.16407 3.54189 1.29219 3.02627 1.28751 2.25283C1.28282 1.43252 2.11251 0.902832 2.82969 1.27314Z" fill="white"/>
<path d="M5.35616 1.04814C5.1921 1.17471 5.18741 1.45127 5.3421 1.59658C5.44991 1.69971 5.46866 1.69971 7.15147 1.69971H8.84835L8.96085 1.58252C9.03585 1.51221 9.07803 1.41377 9.07803 1.32471C9.07803 1.23564 9.03585 1.13721 8.96085 1.06689L8.84835 0.949707H7.16553C5.53428 0.949707 5.47803 0.954395 5.35616 1.04814Z" fill="white"/>
<path d="M22.5593 1.04814C22.4656 1.12314 22.4374 1.18408 22.4374 1.32002C22.4374 1.58252 22.5828 1.69971 22.9109 1.69971H23.164L22.3343 2.52939L21.4999 3.36377L21.139 3.00283C20.4687 2.34189 20.4499 2.34658 19.264 3.53721C18.7718 4.03408 18.3546 4.48877 18.3359 4.54971C18.2656 4.78877 18.4718 5.02783 18.7484 5.02783C18.814 5.02783 19.1187 4.75596 19.6578 4.22158L20.4687 3.41533L20.8109 3.74814C21.2093 4.13721 21.2843 4.18408 21.5515 4.18408C21.7484 4.18408 21.7624 4.17002 22.7281 3.21377L23.7031 2.24346V2.43096C23.7031 2.70283 23.7828 2.89502 23.9187 2.96064C24.0874 3.03564 24.1906 3.02627 24.3312 2.91377L24.4531 2.82002V1.98096V1.14189L24.3312 1.04814C24.214 0.959082 24.1437 0.949707 23.4453 0.949707C22.7468 0.949707 22.6765 0.959082 22.5593 1.04814Z" fill="white"/>
<path d="M5.35616 2.54814C5.1921 2.67471 5.18741 2.95127 5.3421 3.09658C5.44522 3.19502 5.4921 3.19971 6.37803 3.19971C7.29678 3.19971 7.30147 3.19971 7.41397 3.08252C7.48897 3.01221 7.53116 2.91377 7.53116 2.82471C7.53116 2.73564 7.48897 2.63721 7.41397 2.56689C7.30147 2.44971 7.29678 2.44971 6.3921 2.44971C5.54366 2.44971 5.47335 2.45439 5.35616 2.54814Z" fill="white"/>
<path d="M11.9983 4.13722C11.0561 4.21691 10.1421 4.48409 9.27021 4.93878C7.32021 5.9466 5.94677 7.81691 5.53427 10.02C5.46396 10.3763 5.44521 10.695 5.4499 11.356C5.4499 12.2935 5.5249 12.7669 5.77802 13.5403C6.05458 14.3935 6.67333 15.4669 7.24052 16.081C7.43271 16.2919 7.48896 16.3247 7.63896 16.3247C7.86865 16.3247 7.9999 16.1935 7.9999 15.9685C7.9999 15.8278 7.94833 15.7341 7.6999 15.4388C5.8249 13.1888 5.65615 10.1232 7.27333 7.69972C7.58271 7.23566 8.37021 6.42472 8.83427 6.09191C10.5077 4.88722 12.6452 4.54503 14.5765 5.17316C16.5358 5.81066 18.0921 7.36691 18.7296 9.32628C19.0343 10.2732 19.1186 11.4403 18.9499 12.3872C18.4202 15.3591 15.9593 17.5294 12.9124 17.7122C11.7874 17.7825 10.4608 17.4732 9.46708 16.9013C9.06396 16.6763 8.85302 16.6435 8.70302 16.7935C8.57177 16.9247 8.57646 17.1872 8.71708 17.3232C9.0124 17.6232 10.3249 18.1622 11.2061 18.3497C11.8577 18.4857 13.1936 18.4997 13.8827 18.3685C14.4968 18.256 15.228 18.0169 15.7765 17.7497L16.2171 17.5341L18.003 19.3153C19.9296 21.2372 19.9015 21.2138 20.3983 21.2091C20.778 21.2044 20.989 21.0685 21.6968 20.3607C22.4046 19.6575 22.5265 19.4607 22.5311 19.0528C22.5311 18.6497 22.4421 18.5138 21.6733 17.7403C21.0405 17.1075 20.9468 17.0278 20.8061 17.0278C20.628 17.0278 20.4218 17.2013 20.4218 17.356C20.4218 17.5341 20.553 17.7028 21.1671 18.3169C21.6311 18.7763 21.7811 18.9544 21.7811 19.0435C21.7811 19.2216 20.5296 20.4591 20.3515 20.4591C20.2436 20.4591 19.9296 20.1685 18.5421 18.781C17.0327 17.2716 16.8686 17.0935 16.939 17.0372C17.3608 16.7372 18.0874 16.006 18.3921 15.5794C18.4015 15.5653 18.6358 15.781 18.9124 16.0528C19.428 16.5638 19.5499 16.6528 19.7186 16.6528C19.8733 16.6528 20.0468 16.4466 20.0468 16.2685C20.0468 16.1325 19.9718 16.0388 19.4374 15.5044L18.8327 14.8997L18.964 14.6653C19.1749 14.2903 19.4327 13.5966 19.5827 13.0153C19.9905 11.3982 19.789 9.57003 19.0483 8.08878C18.0077 6.0216 16.0577 4.57784 13.8124 4.21691C13.2358 4.12316 12.5374 4.09503 11.9983 4.13722Z" fill="white"/>
<path d="M1.98125 5.26221C1.46094 5.39346 0.96875 5.80127 0.74375 6.28408C0.63125 6.52314 0.617188 6.60752 0.617188 7.06689C0.617188 7.55439 0.626563 7.59658 0.767188 7.86377C0.954688 8.22471 1.24063 8.51064 1.60156 8.69814C1.86875 8.83877 1.91094 8.84814 2.39844 8.84814C2.85781 8.84814 2.94219 8.83408 3.17188 8.72627C3.57031 8.53408 3.84688 8.26221 4.04844 7.84971C4.21719 7.51689 4.22656 7.47002 4.22188 7.07158C4.22188 6.75283 4.19375 6.58408 4.12344 6.39658C3.93125 5.91377 3.54219 5.52939 3.06875 5.34658C2.78281 5.23877 2.24844 5.19658 1.98125 5.26221ZM2.72188 6.02158C2.84375 6.05908 3.00313 6.16689 3.15313 6.31689C3.54219 6.70127 3.59844 7.17471 3.3125 7.62471C3.12031 7.92471 2.85313 8.08877 2.51563 8.11221C2.16406 8.13564 1.93906 8.06064 1.69063 7.83096C1.08594 7.27314 1.29219 6.31221 2.075 6.03564C2.30469 5.95127 2.47344 5.95127 2.72188 6.02158Z" fill="white"/>
<path d="M20.8437 6.01221C20.7171 6.13877 20.6796 6.31689 20.7499 6.48564C20.8202 6.64971 20.9234 6.71533 21.1202 6.71533C21.3218 6.71533 21.4015 6.67314 21.4812 6.51846C21.5749 6.33564 21.5327 6.08721 21.3921 5.98877C21.2468 5.88564 20.9562 5.89971 20.8437 6.01221Z" fill="white"/>
<path d="M22.264 5.96533C22.0436 6.05439 21.9921 6.39658 22.1702 6.56533C22.2733 6.66377 22.3155 6.66846 23.2952 6.66846C24.2515 6.66846 24.3171 6.66377 24.4061 6.57471C24.5515 6.42939 24.5327 6.13877 24.378 6.01689C24.2608 5.92314 24.1952 5.91846 23.3093 5.92314C22.7936 5.92314 22.3202 5.94189 22.264 5.96533Z" fill="white"/>
<path d="M20.9375 7.38096C20.8063 7.45127 20.7031 7.62471 20.7031 7.78408C20.7031 7.94814 20.9469 8.16846 21.125 8.16846C21.3219 8.16846 21.5469 7.94814 21.5469 7.75127C21.5469 7.46064 21.1953 7.24971 20.9375 7.38096Z" fill="white"/>
<path d="M22.1655 7.47939C22.0249 7.62939 22.0296 7.85908 22.1796 8.00439C22.2921 8.12158 22.2968 8.12158 23.2718 8.12158C24.1952 8.12158 24.2609 8.11689 24.378 8.02314C24.5327 7.90127 24.5515 7.61064 24.4062 7.46533C24.3171 7.37627 24.2515 7.37158 23.2905 7.37158C22.2827 7.37158 22.264 7.37158 22.1655 7.47939Z" fill="white"/>
<path d="M11.7781 8.38397C10.5218 8.60897 9.13433 9.36366 8.03276 10.4137C7.69995 10.7277 7.6062 10.934 7.6062 11.3324C7.6062 11.5808 7.62964 11.7074 7.70933 11.8574C7.89214 12.2043 8.86714 13.0012 9.68745 13.4746C11.5578 14.548 13.2734 14.6277 15.0968 13.7183C16.0203 13.2543 17.3093 12.2699 17.525 11.8574C17.6703 11.5855 17.6703 11.084 17.5296 10.8121C17.3375 10.4512 16.3437 9.62147 16.1046 9.62147C15.9171 9.62147 15.7343 9.80897 15.7343 9.99647C15.7343 10.1605 15.7812 10.2168 16.3859 10.7137C16.5968 10.8918 16.8031 11.084 16.8406 11.1449C16.9671 11.3371 16.8875 11.5105 16.5406 11.8152C15.5843 12.6543 14.5531 13.2355 13.5781 13.4793C12.9875 13.6246 12.1671 13.6152 11.5484 13.4512C10.5921 13.198 9.4437 12.5277 8.59526 11.7215C8.27651 11.4215 8.25776 11.2996 8.47339 11.0512C8.82026 10.6621 9.76245 9.97772 10.4328 9.64022C11.7593 8.9746 12.8562 8.89491 14.1968 9.37303C14.7125 9.55584 14.8718 9.54178 14.9796 9.31209C15.125 8.98397 14.989 8.83866 14.3187 8.61366C13.4093 8.31366 12.589 8.23866 11.7781 8.38397Z" fill="white"/>
<path d="M22.1562 8.91846C22.1 8.97471 22.0625 9.07314 22.0625 9.17627C22.0625 9.27939 22.1 9.37783 22.1562 9.43408C22.2453 9.52314 22.3109 9.52783 23.2953 9.52783C24.4859 9.52783 24.5 9.52314 24.5 9.16689C24.5 8.83408 24.4719 8.82471 23.2906 8.82471C22.3109 8.82471 22.2453 8.82939 22.1562 8.91846Z" fill="white"/>
<path d="M12.2047 9.62168C11.3047 9.85137 10.7282 10.7514 10.9063 11.6514C10.9813 12.0404 11.1547 12.3498 11.4547 12.6217C11.7922 12.9311 12.1344 13.0576 12.6172 13.0576C13.1469 13.0576 13.4657 12.9264 13.8407 12.5561C14.2157 12.1764 14.3469 11.867 14.3469 11.3092C14.3469 10.9623 14.3282 10.8732 14.2063 10.6061C13.9204 10.0061 13.3719 9.63105 12.7251 9.59824C12.5376 9.58418 12.3032 9.59824 12.2047 9.62168ZM12.8985 10.3764C13.161 10.4514 13.5032 10.8029 13.5782 11.0748C13.6719 11.417 13.5735 11.7404 13.3016 12.0123C12.9032 12.4107 12.3922 12.4295 11.9657 12.0545C11.5907 11.7217 11.5157 11.2154 11.7782 10.8076C12.036 10.4186 12.4532 10.2545 12.8985 10.3764Z" fill="white"/>
<path d="M1.96719 10.0387C1.45625 10.1699 0.973437 10.5777 0.74375 11.0652C0.63125 11.2996 0.617188 11.3887 0.617188 11.8246C0.617188 12.2887 0.626562 12.3402 0.767187 12.6262C1.175 13.4558 2.12187 13.8496 2.98437 13.559C3.65937 13.334 4.07656 12.8418 4.20781 12.134C4.35781 11.3324 3.93594 10.5215 3.18125 10.1699C2.92812 10.0527 2.80156 10.0246 2.49219 10.0152C2.28594 10.0058 2.05156 10.0199 1.96719 10.0387ZM2.89062 10.873C3.33125 11.1074 3.575 11.609 3.4625 12.0496C3.37812 12.3637 3.20937 12.598 2.95625 12.7433C2.54844 12.9824 2.07969 12.9402 1.72344 12.6355C1.46562 12.4152 1.34375 12.1574 1.34375 11.8246C1.34375 11.0183 2.18281 10.5027 2.89062 10.873Z" fill="white"/>
<path d="M20.9469 10.2543C20.6797 10.3715 20.6281 10.6762 20.8391 10.8918C21.1438 11.1965 21.6031 10.9527 21.5235 10.5309C21.4766 10.2777 21.2047 10.1465 20.9469 10.2543Z" fill="white"/>
<path d="M22.1797 10.3481C22.1047 10.4185 22.0625 10.5169 22.0625 10.606C22.0625 10.695 22.1047 10.7935 22.1797 10.8638C22.2922 10.981 22.2922 10.981 23.2953 10.981C24.2375 10.981 24.3031 10.9763 24.3969 10.8872C24.5516 10.7419 24.5375 10.456 24.3781 10.3294C24.2609 10.2356 24.1953 10.231 23.2719 10.231C22.2969 10.231 22.2922 10.231 22.1797 10.3481Z" fill="white"/>
<path d="M22.1657 11.7919C22.0391 11.9278 22.0345 12.1528 22.1516 12.2981C22.2407 12.4106 22.2454 12.4106 23.272 12.4106C24.2188 12.4106 24.3126 12.4013 24.4016 12.3216C24.5329 12.1997 24.5376 11.9091 24.4063 11.7778C24.3173 11.6888 24.2516 11.6841 23.2907 11.6841C22.2829 11.6841 22.2641 11.6841 22.1657 11.7919Z" fill="white"/>
<path d="M20.8861 13.1373C20.7782 13.2029 20.6892 13.442 20.722 13.5826C20.7829 13.8264 21.0736 13.9576 21.3361 13.8592C21.5564 13.7748 21.5986 13.3061 21.3923 13.1608C21.2798 13.0811 21.0032 13.067 20.8861 13.1373Z" fill="white"/>
<path d="M22.264 13.1372C22.0436 13.2263 21.9921 13.5685 22.1702 13.7372C22.2733 13.8356 22.3155 13.8403 23.2952 13.8403C24.2515 13.8403 24.3171 13.8356 24.4061 13.7466C24.5515 13.6013 24.5327 13.3106 24.378 13.1888C24.2608 13.095 24.1952 13.0903 23.3093 13.095C22.7936 13.095 22.3202 13.1138 22.264 13.1372Z" fill="white"/>
<path d="M3.6125 17.7028L3.45312 17.8622V19.6013V21.3403H3.26562H3.07812V20.8106C3.07812 20.1825 3.02656 19.981 2.83906 19.8216C2.69844 19.6997 2.68906 19.6997 1.87813 19.6997C0.682813 19.6997 0.640625 19.7372 0.640625 20.7778C0.640625 21.2606 0.626563 21.4106 0.570312 21.4622C0.532813 21.5044 0.5 21.6169 0.5 21.7153C0.5 21.856 0.528125 21.9169 0.621875 21.9919C0.748438 22.0903 0.7625 22.0903 5.42188 22.0903C10.0813 22.0903 10.0953 22.0903 10.2219 21.9919C10.3813 21.8653 10.3953 21.5794 10.2406 21.4341C10.1469 21.3497 10.0766 21.3403 9.42031 21.3403H8.70312V20.2856C8.70312 18.7622 8.74063 18.8091 7.49375 18.8091H6.63125L6.47188 18.9685L6.3125 19.1278V20.2341V21.3403H6.07812H5.84375V19.6528C5.84375 18.2419 5.83438 17.9372 5.77344 17.8247C5.6375 17.5575 5.57656 17.5435 4.63438 17.5435H3.77188L3.6125 17.7028ZM5.09375 19.8169V21.3403H4.64844H4.20313V19.8169V18.2935H4.64844H5.09375V19.8169ZM7.95313 20.4263V21.3403H7.50781H7.0625V20.4263V19.5122H7.50781H7.95313V20.4263ZM2.32813 20.895V21.3403H1.85938H1.39063V20.895V20.4497H1.85938H2.32813V20.895Z" fill="white"/>
<path d="M11.539 20.0044C11.2765 20.2622 11.464 20.6841 11.8343 20.6841C12.0734 20.6841 12.2281 20.5247 12.2281 20.2856C12.2281 19.92 11.7968 19.7419 11.539 20.0044Z" fill="white"/>
<path d="M12.9078 19.981C12.7485 20.1075 12.7297 20.3981 12.875 20.5435C12.9641 20.6325 13.0297 20.6372 13.9907 20.6372C14.9985 20.6372 15.0172 20.6372 15.1157 20.5294C15.2422 20.3935 15.2469 20.1685 15.1297 20.0231C15.0407 19.9106 15.0266 19.9106 14.0375 19.8966C13.0766 19.8825 13.0297 19.8872 12.9078 19.981Z" fill="white"/>
<path d="M11.5578 21.4294C11.4641 21.5231 11.4219 21.6122 11.4219 21.7153C11.4219 21.8888 11.6422 22.1372 11.7922 22.1372C11.9797 22.1372 12.1297 22.0435 12.2 21.8794C12.2563 21.7341 12.2563 21.6966 12.2 21.5513C12.0828 21.27 11.7781 21.2138 11.5578 21.4294Z" fill="white"/>
<path d="M12.875 21.4341C12.7297 21.5794 12.7484 21.87 12.9031 21.9919C13.0203 22.0856 13.0859 22.0903 14.0094 22.0903C14.9844 22.0903 14.9891 22.0903 15.1016 21.9731C15.2563 21.8231 15.2609 21.5841 15.1109 21.4435C15.0078 21.345 14.9656 21.3403 13.9859 21.3403C13.0297 21.3403 12.9641 21.345 12.875 21.4341Z" fill="white"/>
</svg>
