<svg width="22" height="21" viewBox="0 0 22 21" fill="none" xmlns="http://www.w3.org/2000/svg">
<path d="M9.64531 0.216894C9.57031 0.282518 9.49531 0.526268 9.3125 1.32783C9.18594 1.89502 9.07344 2.35908 9.06406 2.36846C9.05937 2.37314 8.80156 2.46221 8.49219 2.56533C7.93437 2.75283 7.41875 2.97314 7.01094 3.20752L6.8 3.32939L5.9375 2.78564C5.04219 2.22314 4.93437 2.17158 4.75156 2.21846C4.69531 2.23252 4.26406 2.63096 3.79531 3.10439C2.87187 4.02783 2.85312 4.06064 3.0125 4.36064C3.05 4.44033 3.30312 4.84814 3.57031 5.27471L4.05781 6.04346L3.78125 6.59189C3.63125 6.89658 3.41562 7.40752 3.30781 7.73096C3.2 8.05439 3.11094 8.32158 3.10156 8.33096C3.09687 8.33564 2.63281 8.44814 2.06562 8.57939C1.48906 8.71064 1.00625 8.84658 0.959375 8.88877C0.884375 8.95908 0.875 9.07627 0.875 10.2388C0.875 11.3872 0.884375 11.5278 0.959375 11.6169C1.02031 11.6919 1.26406 11.7669 2.06562 11.9497C2.62812 12.0763 3.09687 12.1888 3.10156 12.1935C3.11094 12.2028 3.2 12.4606 3.30312 12.77C3.49062 13.3325 3.71562 13.8435 3.94531 14.2513L4.06719 14.4669L3.575 15.245C3.30781 15.6716 3.05 16.0841 3.0125 16.1638C2.85312 16.4638 2.87187 16.4966 3.79062 17.42C4.26406 17.8935 4.69531 18.2919 4.75156 18.306C4.93437 18.3528 5.04219 18.3013 5.9375 17.7388L6.8 17.195L7.01094 17.3169C7.41875 17.5513 7.93437 17.7716 8.49219 17.9591C8.80156 18.0622 9.05937 18.1513 9.06406 18.156C9.07344 18.1653 9.18594 18.6294 9.3125 19.1966C9.49531 19.9981 9.57031 20.2419 9.64531 20.3028C9.73437 20.3778 9.875 20.3872 11.0234 20.3872C12.1906 20.3872 12.3031 20.3778 12.3734 20.3028C12.4156 20.256 12.5516 19.7778 12.6875 19.1919C12.8187 18.6294 12.9312 18.1606 12.9359 18.156C12.9406 18.1513 13.2125 18.0575 13.5406 17.9497C13.8687 17.8419 14.3844 17.6263 14.6797 17.4763L15.2187 17.2044L15.9969 17.6919C16.4234 17.9638 16.8312 18.2169 16.9062 18.2544C17.2016 18.4091 17.2391 18.3856 18.1578 17.4669C18.6312 16.9981 19.0297 16.5669 19.0437 16.506C19.0906 16.3325 19.0391 16.22 18.4812 15.3341L17.9422 14.4763L18.2141 13.9372C18.3687 13.6419 18.5797 13.131 18.6875 12.8028C18.7953 12.4747 18.8891 12.2028 18.8937 12.1981C18.8984 12.1935 19.3672 12.081 19.9344 11.9497C20.6703 11.781 20.9891 11.6872 21.0547 11.6169C21.1437 11.5325 21.1484 11.4528 21.1625 10.3419C21.1766 8.80908 21.2094 8.87939 20.4922 8.71064C20.2109 8.64033 19.7328 8.52783 19.4328 8.45752L18.8891 8.33564L18.6922 7.74033C18.5234 7.22471 18.1859 6.46533 17.9891 6.16064C17.9328 6.07627 17.9844 5.97783 18.4719 5.19971C19.0391 4.30439 19.0906 4.19658 19.0437 4.01377C19.0297 3.95752 18.6312 3.52627 18.1578 3.05283C17.2391 2.13877 17.2016 2.11533 16.9062 2.27002C16.8312 2.30752 16.4234 2.56064 15.9969 2.83252L15.2187 3.32002L14.6797 3.04814C14.3844 2.89814 13.8687 2.68252 13.5406 2.57471C13.2125 2.46689 12.9406 2.37314 12.9312 2.36846C12.9266 2.35908 12.8141 1.89502 12.6875 1.32783C12.5047 0.526268 12.4297 0.282518 12.3547 0.216894C12.2656 0.146582 12.125 0.137207 11 0.137207C9.875 0.137207 9.73437 0.146582 9.64531 0.216894ZM11.9984 1.91846C12.1391 2.56064 12.2516 2.95439 12.3031 3.00596C12.3453 3.04814 12.5844 3.13721 12.8328 3.20283C13.4375 3.35752 14.0141 3.59658 14.6187 3.93408C14.8953 4.08877 15.1531 4.21533 15.1953 4.21533C15.3031 4.21533 15.3734 4.17783 16.2641 3.61533L17.0562 3.12314L17.5953 3.66689L18.1391 4.20596L17.6375 5.00752C17 6.02471 16.9906 6.03877 17.1359 6.29189C17.6609 7.22471 17.9047 7.79189 18.0828 8.49971C18.1578 8.79971 18.2141 8.92627 18.2891 8.97783C18.3453 9.01533 18.8328 9.14658 19.3719 9.26846L20.3516 9.49346V10.2622V11.031L19.3437 11.2606C18.7016 11.406 18.3078 11.5138 18.2609 11.5653C18.2187 11.6075 18.1156 11.8747 18.0406 12.1606C17.8625 12.7981 17.6469 13.3231 17.3094 13.9138C17.1641 14.1669 17.0469 14.406 17.0469 14.4528C17.0469 14.5653 17.0797 14.6263 17.6469 15.5263L18.1391 16.3185L17.6 16.8575L17.0562 17.4013L16.2687 16.9091C15.3594 16.3419 15.3031 16.3091 15.1906 16.3091C15.1437 16.3091 14.9047 16.4263 14.6516 16.5716C14.0609 16.9091 13.5359 17.1247 12.8984 17.3028C12.6172 17.3778 12.3453 17.481 12.3031 17.5231C12.2516 17.57 12.1391 17.9685 11.9937 18.606L11.7641 19.6138H11H10.2312L10.0016 18.606C9.86094 17.9638 9.74844 17.57 9.69687 17.5185C9.65469 17.4763 9.41562 17.3872 9.16719 17.3216C8.5625 17.1669 7.98594 16.9278 7.38125 16.5903C7.10469 16.4356 6.84687 16.3091 6.80469 16.3091C6.69687 16.3091 6.62656 16.3466 5.73594 16.9091L4.94375 17.4013L4.40469 16.8575L3.86094 16.3185L4.35312 15.5263C4.91562 14.6356 4.95312 14.5653 4.95312 14.4575C4.95312 14.4153 4.82656 14.1575 4.67187 13.881C4.33437 13.2763 4.09531 12.6997 3.94062 12.095C3.875 11.8466 3.78594 11.6122 3.74375 11.5653C3.69219 11.5185 3.27031 11.4013 2.65625 11.256L1.64844 11.0263V10.2622V9.49814L2.65625 9.26846C3.27031 9.12314 3.69219 9.00596 3.74375 8.95908C3.78594 8.91221 3.875 8.67783 3.94062 8.42939C4.09531 7.82471 4.33437 7.24814 4.67187 6.64346C4.82656 6.36689 4.95312 6.10908 4.95312 6.06689C4.95312 5.95908 4.91562 5.88877 4.35312 4.99814L3.86094 4.20596L4.40469 3.66689L4.94375 3.12314L5.73594 3.61533C6.62656 4.17783 6.69687 4.21533 6.80469 4.21533C6.84687 4.21533 7.10469 4.08877 7.38125 3.93408C7.98594 3.59658 8.5625 3.35752 9.16719 3.20283C9.41562 3.13721 9.65469 3.04814 9.69687 3.00596C9.74844 2.95439 9.85625 2.57471 9.99219 1.96533C10.1094 1.43564 10.2172 0.976269 10.2266 0.943457C10.2453 0.896582 10.4234 0.887207 11.0094 0.896582L11.7687 0.910645L11.9984 1.91846Z" fill="white"/>
<path d="M9.90313 4.33721C9.15313 4.47314 8.30469 4.82002 7.60156 5.28408C7.17969 5.56064 6.29844 6.44189 6.01719 6.86846C5.31875 7.93252 5 8.99189 5 10.2622C5 11.5372 5.31875 12.5919 6.01719 13.6513C6.30313 14.0825 7.175 14.9591 7.60156 15.2403C8.67031 15.9435 9.725 16.2622 11 16.2622C12.275 16.2622 13.3297 15.9435 14.3984 15.2403C14.8203 14.9591 15.6969 14.0825 15.9781 13.6606C16.6813 12.5919 17 11.5372 17 10.2622C17 8.99189 16.6859 7.93721 15.9781 6.86377C15.7016 6.44189 14.825 5.56533 14.3844 5.27939C13.6625 4.79658 12.8563 4.47314 12.0453 4.33252C11.5391 4.24346 10.4047 4.24814 9.90313 4.33721ZM11.5625 5.07783C11.7547 5.09189 12.1109 5.15752 12.3547 5.22314C14.1313 5.70127 15.5469 7.12158 16.0531 8.93564C16.1703 9.36221 16.1797 9.46064 16.1797 10.2622C16.1797 11.0356 16.1656 11.1716 16.0672 11.5278C15.8563 12.2685 15.6031 12.7981 15.1859 13.3606L14.975 13.6513L14.8719 13.3278C14.5438 12.3013 13.7891 11.4294 12.8047 10.9325C11.5438 10.295 9.92656 10.4028 8.74531 11.2044C7.98125 11.72 7.39531 12.4888 7.13281 13.3185L7.025 13.6513L6.78594 13.3278C6.35 12.7372 6.02188 11.9825 5.86719 11.2044C5.74531 10.6185 5.79219 9.50752 5.95625 8.91221C6.45781 7.11221 7.8875 5.69189 9.67344 5.21846C10.1 5.10127 10.8266 5.01221 11.0938 5.04033C11.1594 5.04971 11.3703 5.06377 11.5625 5.07783ZM11.4359 11.3403C12.6547 11.5185 13.6484 12.3294 14.0703 13.5013C14.1359 13.6841 14.2016 13.956 14.2156 14.1013L14.2438 14.3638L13.8688 14.6122C12.1156 15.7653 9.88438 15.7653 8.15 14.6216C7.80781 14.3966 7.76562 14.3544 7.76562 14.2231C7.76562 13.9747 7.90156 13.5341 8.10313 13.1216C8.35625 12.6013 8.975 11.9638 9.47656 11.706C10.1656 11.3544 10.7609 11.2419 11.4359 11.3403Z" fill="white"/>
<path d="M10.5313 6.23557C9.94531 6.34807 9.34531 6.84025 9.06406 7.43557C8.91875 7.74025 8.91406 7.78244 8.91406 8.3215C8.91406 8.87932 8.91406 8.88869 9.09219 9.24025C9.6125 10.2949 10.8641 10.7356 11.9188 10.234C12.3172 10.0465 12.7016 9.65744 12.9078 9.24025C13.0859 8.88869 13.0859 8.87932 13.0859 8.3215C13.0859 7.78244 13.0813 7.74025 12.9359 7.43557C12.5 6.51682 11.5438 6.03869 10.5313 6.23557ZM11.6094 7.14963C12.5656 7.66994 12.5469 9.01994 11.5719 9.49807C10.7 9.92932 9.6875 9.29182 9.6875 8.31213C9.6875 7.31838 10.7422 6.67619 11.6094 7.14963Z" fill="white"/>
</svg>
