<svg width="25" height="25" viewBox="0 0 25 25" fill="none" xmlns="http://www.w3.org/2000/svg">
<path d="M5.79384 0.683788C5.5079 0.857225 5.39072 1.0916 5.39072 1.49473V1.83691H3.68915C1.70634 1.83691 1.67822 1.8416 1.28447 2.23066C0.853216 2.6666 0.890716 1.57441 0.890716 13.1572C0.890716 24.5666 0.862591 23.615 1.22353 24.0275C1.32665 24.14 1.51884 24.29 1.65009 24.3557L1.89384 24.4775H9.11259H16.336L16.5704 24.365C16.8657 24.2291 17.161 23.9104 17.2735 23.6057C17.3204 23.4791 17.3626 23.3713 17.3673 23.3666C17.372 23.3572 17.972 23.54 18.7079 23.7697C19.4392 24.0041 20.0392 24.1869 20.0392 24.1822C20.0485 24.0979 20.2923 23.7041 20.3954 23.6057C20.5548 23.4557 20.5126 23.4557 21.8673 23.4932C22.3829 23.5072 22.5798 23.4932 22.786 23.4322C23.2595 23.2916 23.4751 22.9166 23.4142 22.3494C23.386 22.0869 23.3954 22.0307 23.5126 21.8104C23.5829 21.6744 23.6485 21.4588 23.6626 21.3322C23.672 21.2057 23.7001 21.1025 23.7235 21.1025C23.8173 21.1025 23.9063 20.8119 23.9063 20.5025C23.9063 20.1838 23.911 20.1744 24.0376 20.1416C24.2392 20.09 24.4642 19.9354 24.5392 19.79C24.6798 19.5182 24.6329 19.3447 24.2063 18.4963C23.7423 17.5729 23.7329 17.5072 23.9532 16.9635C24.4267 15.7869 23.9673 14.1182 22.8517 12.9697C21.7313 11.8213 19.9501 11.2166 18.1735 11.39C17.8595 11.4229 17.5548 11.4604 17.4985 11.4744L17.3954 11.5025L17.3813 7.19941L17.3673 2.8916L17.2548 2.64316C17.1892 2.49785 17.0532 2.31504 16.9173 2.19316C16.5282 1.84629 16.4813 1.83691 14.5782 1.83691H12.9048L12.8813 1.51816C12.8532 1.13379 12.7454 0.890038 12.5251 0.721289L12.361 0.594727L9.16884 0.580664L5.97665 0.571289L5.79384 0.683788ZM12.2204 1.19473C12.2907 1.26035 12.3095 1.37754 12.3188 1.81348L12.3376 2.34785L14.2642 2.36191C15.9845 2.37598 16.2095 2.38535 16.3407 2.45566C16.5423 2.56348 16.7204 2.78848 16.7813 2.99941C16.8142 3.1166 16.8282 4.49941 16.8188 7.40566L16.8048 11.6385L16.2892 11.8494C16.0079 11.9619 15.7454 12.0697 15.7173 12.0838C15.6704 12.1072 15.6563 11.2354 15.6563 7.81816V3.52441H9.11728H2.57822V13.1572V22.79H9.07978H15.5813L16.1954 22.9822C16.5282 23.09 16.8142 23.1791 16.8188 23.1885C16.8282 23.1979 16.7954 23.2963 16.7438 23.4088C16.636 23.6525 16.4204 23.8447 16.1813 23.915C15.9282 23.9854 2.29228 23.9807 2.03915 23.9104C1.76259 23.8307 1.52353 23.5682 1.4579 23.2682C1.3829 22.9213 1.3829 3.40254 1.4579 3.05098C1.4954 2.87754 1.55634 2.76504 1.68759 2.63379C1.95478 2.3666 2.0954 2.35254 4.12509 2.35254H5.89697L5.91572 1.83223C5.92978 1.33066 5.93447 1.30723 6.06103 1.19941L6.19697 1.08691L9.16415 1.09629C11.9438 1.11035 12.1407 1.11504 12.2204 1.19473ZM12.1782 4.08691H15.1407V8.1041C15.1407 10.7713 15.122 12.1869 15.0892 12.3041C15.0563 12.426 14.9579 12.5572 14.7751 12.726C14.0157 13.4197 13.561 13.9869 13.2188 14.6666C12.961 15.1916 12.8392 15.6463 12.811 16.251C12.7642 17.1463 12.9517 17.6619 13.7954 19.0213C14.3485 19.9119 14.5735 20.3291 14.7235 20.751C14.8313 21.065 14.8876 21.6791 14.8407 22.0119L14.8079 22.2275H8.98134H3.15478L3.12665 19.1244C3.08915 15.4307 3.09384 5.98066 3.13603 4.88379L3.16415 4.11035L4.1954 4.08223C4.76259 4.06816 6.12197 4.05879 7.21884 4.06816C8.31572 4.07754 10.547 4.08691 12.1782 4.08691ZM19.6548 11.9854C21.4267 12.2525 22.8751 13.3822 23.3907 14.8916C23.536 15.3182 23.5501 15.4119 23.5501 15.9229C23.5548 16.4572 23.5454 16.5041 23.4095 16.8135C23.1188 17.4557 23.1517 17.6619 23.6907 18.7354C23.8876 19.1197 24.047 19.4619 24.047 19.4947C24.047 19.5229 23.9345 19.5838 23.7985 19.6213C23.4282 19.7291 23.3673 19.8182 23.3673 20.2541C23.3673 20.5822 23.3532 20.6291 23.236 20.7697C23.1423 20.8869 23.1095 20.9713 23.1095 21.1307C23.1095 21.2713 23.0626 21.4354 22.9642 21.6322C22.8282 21.8994 22.8188 21.9416 22.847 22.2604C22.8798 22.6869 22.8282 22.8088 22.5751 22.9072C22.4157 22.9729 22.2892 22.9822 21.8204 22.9541C21.0845 22.9072 20.5642 22.9166 20.3251 22.9822C20.1985 23.015 20.0579 23.1088 19.9126 23.2635L19.6876 23.4885L17.5501 22.8229L15.4126 22.1525L15.4032 21.5713C15.3892 20.9104 15.3048 20.5869 15.0001 19.9775C14.8173 19.6119 14.7892 19.5604 14.1704 18.5432C13.5095 17.4557 13.2985 16.7619 13.4017 16.0072C13.6267 14.4088 14.9626 12.9229 16.7626 12.276C17.086 12.1588 17.8595 11.9807 18.1876 11.9479C18.5954 11.9057 19.2329 11.9197 19.6548 11.9854Z" fill="white"/>
<path d="M9.42188 8.98535V12.3838H9.09375H8.76562V9.87598V7.36816H7.89844H7.03125V9.87598V12.3838H6.70312H6.375V10.7197V9.05566H5.48438H4.59375V10.7197V12.3838H4.33594H4.07812V12.6416V12.8994H9.11719H14.1562V12.6416V12.3838H13.875H13.5938V10.2275V8.07129H12.7266H11.8594V10.2275V12.3838H11.5313H11.2031V8.98535V5.58691H10.3125H9.42188V8.98535ZM10.6406 9.19629V12.2432H10.3125H9.98438V9.19629V6.14941H10.3125H10.6406V9.19629ZM8.25 10.0869V12.2432H7.89844H7.54688V10.0869V7.93066H7.89844H8.25V10.0869ZM13.0781 10.415V12.2432H12.75H12.4219V10.415V8.58691H12.75H13.0781V10.415ZM5.8125 10.9072V12.2432H5.48438H5.15625V10.9072V9.57129H5.48438H5.8125V10.9072Z" fill="white"/>
<path d="M4.09688 14.2119C3.86719 14.3057 3.84375 14.4041 3.84375 15.3463C3.84375 16.2791 3.86719 16.415 4.06406 16.5041C4.13438 16.5369 4.51406 16.5557 5.0625 16.5557C5.92969 16.5557 5.94844 16.5557 6.07969 16.4432L6.21094 16.3307L6.225 15.4494C6.24844 14.1369 6.27188 14.165 5.02969 14.1697C4.57031 14.1697 4.14844 14.1885 4.09688 14.2119ZM5.67188 15.3604V15.9932H5.03906H4.40625V15.3604V14.7275H5.03906H5.67188V15.3604Z" fill="white"/>
<path d="M7.13438 14.5962C7.10156 14.629 7.07812 14.7181 7.07812 14.7978C7.07812 14.8774 7.10156 14.9665 7.13438 14.9993C7.21406 15.079 9.52031 15.079 9.6 14.9993C9.63281 14.9665 9.65625 14.8774 9.65625 14.7978C9.65625 14.7181 9.63281 14.629 9.6 14.5962C9.52031 14.5165 7.21406 14.5165 7.13438 14.5962Z" fill="white"/>
<path d="M7.16257 15.7165C7.10632 15.7446 7.0782 15.8196 7.0782 15.9228C7.0782 16.2415 6.95632 16.2274 9.70789 16.2274C12.1266 16.2274 12.1923 16.2228 12.2813 16.1337C12.3938 16.0212 12.3985 15.9087 12.3001 15.7681L12.2298 15.6649H9.73601C8.1282 15.6649 7.21414 15.6837 7.16257 15.7165Z" fill="white"/>
<path d="M4.09219 17.5166C4.0125 17.5494 3.92344 17.6197 3.89531 17.676C3.8625 17.7322 3.84375 18.1166 3.84375 18.6791V19.5885L3.96562 19.715L4.09219 19.8369H5.02031C5.93437 19.8369 5.94844 19.8369 6.07969 19.7244L6.21094 19.6119L6.225 18.7307C6.24375 17.751 6.22031 17.6338 5.97656 17.5213C5.76562 17.4182 4.31719 17.4182 4.09219 17.5166ZM5.67187 18.6416V19.2744H5.03906H4.40625V18.6416V18.0088H5.03906H5.67187V18.6416Z" fill="white"/>
<path d="M7.13438 17.8774C7.10156 17.9103 7.07812 17.9993 7.07812 18.079C7.07812 18.1587 7.10156 18.2478 7.13438 18.2806C7.21406 18.3603 9.52031 18.3603 9.6 18.2806C9.63281 18.2478 9.65625 18.1587 9.65625 18.079C9.65625 17.9993 9.63281 17.9103 9.6 17.8774C9.52031 17.7978 7.21406 17.7978 7.13438 17.8774Z" fill="white"/>
<path d="M7.16258 18.9979C7.04071 19.0682 7.0454 19.3963 7.16727 19.4619C7.22821 19.49 8.11415 19.5088 9.72196 19.5088C12.1266 19.5088 12.1923 19.5041 12.2813 19.415C12.3329 19.3635 12.3751 19.2791 12.3751 19.2275C12.3751 19.176 12.3329 19.0916 12.2813 19.04C12.1876 18.9463 12.1266 18.9463 9.71727 18.9463C8.12352 18.9463 7.21415 18.965 7.16258 18.9979Z" fill="white"/>
<path d="M20.4 14.0151C20.0297 14.3573 19.9922 14.4604 20.1422 14.7182C20.2172 14.8495 20.2172 14.8635 20.1422 14.9807C20.0484 15.1213 19.8328 15.1495 19.7344 15.0323C19.7016 14.9948 19.6078 14.962 19.5281 14.962C19.4109 14.962 19.3125 15.0323 19.0453 15.2901C18.8484 15.4776 18.7031 15.651 18.7031 15.7073C18.7031 15.7542 18.7969 15.9135 18.9141 16.0542C19.1109 16.2979 19.1203 16.3213 19.0734 16.462C18.8953 16.9682 19.4062 17.5448 19.9781 17.4792C20.2172 17.451 20.2172 17.451 20.4 17.6573C20.6766 17.9667 20.7891 17.9526 21.225 17.5448C21.5766 17.2073 21.6281 17.0901 21.4922 16.912C21.3984 16.7854 21.4031 16.6354 21.5063 16.5417C21.6047 16.4526 21.7734 16.4385 21.8203 16.5135C21.8719 16.5932 22.0688 16.6495 22.1672 16.612C22.2188 16.5932 22.3969 16.4432 22.5656 16.2792C22.8094 16.0495 22.875 15.9557 22.875 15.8479C22.875 15.7354 22.7109 15.5385 21.9328 14.7042C21.1547 13.8698 20.9719 13.6963 20.8688 13.6963C20.7797 13.701 20.6391 13.7948 20.4 14.0151ZM21.5484 15.126C22.1484 15.7635 22.2047 15.8385 22.1391 15.9088C22.0828 15.9698 22.0453 15.9745 21.9281 15.937C21.7172 15.862 21.3984 15.9182 21.2109 16.0588C20.9484 16.2604 20.8828 16.3963 20.8781 16.7526C20.8688 17.2073 20.8125 17.2495 20.5594 16.9963C20.3391 16.7713 20.2031 16.7385 20.025 16.8651C19.8844 16.9635 19.7016 16.9167 19.6313 16.762C19.5844 16.6682 19.5938 16.6167 19.6781 16.4667C19.7344 16.3682 19.7812 16.2604 19.7812 16.2323C19.7812 16.2042 19.6922 16.0823 19.5891 15.9698C19.4297 15.7963 19.4062 15.7448 19.4531 15.6932C19.4906 15.6417 19.5656 15.6323 19.7344 15.651C20.0766 15.6932 20.2734 15.637 20.4797 15.4401C20.7 15.2292 20.7938 14.9385 20.7281 14.6807C20.6953 14.5401 20.7 14.4979 20.7609 14.4557C20.8031 14.4276 20.8453 14.4088 20.8594 14.4135C20.8734 14.4182 21.1828 14.737 21.5484 15.126Z" fill="white"/>
<path d="M16.1484 13.9588C15.9516 14.0619 15.8625 14.151 15.7969 14.3103C15.7406 14.4416 15.7266 14.4463 15.4453 14.4463C15.0328 14.4463 15 14.4931 15 15.0931C15 15.5103 15.0141 15.5853 15.0938 15.665C15.1453 15.7166 15.2297 15.7588 15.2859 15.7588C15.4547 15.7588 15.5625 15.8478 15.5625 15.9885C15.5625 16.1385 15.4547 16.2463 15.2719 16.2931C15.0703 16.34 15.0375 16.4525 15.075 16.9822C15.1031 17.39 15.1219 17.4603 15.2063 17.5166C15.2906 17.5681 15.525 17.5681 16.6828 17.5119C17.5453 17.4744 18.0844 17.4275 18.1219 17.3947C18.1688 17.3572 18.1875 17.2072 18.1875 16.8369C18.1875 16.4103 18.1734 16.326 18.1031 16.2603C18.0563 16.2135 17.9766 16.1806 17.925 16.1806C17.7516 16.1806 17.6203 16.0447 17.6344 15.8853C17.6484 15.74 17.6719 15.7213 17.9953 15.5713C18.1313 15.5103 18.1547 15.4025 18.1172 14.9478C18.0984 14.6478 18.0609 14.4697 18.0141 14.4228C17.9672 14.376 17.8453 14.3525 17.6344 14.3525C17.3297 14.3525 17.3156 14.3478 17.2172 14.1931C17.1656 14.1088 17.0438 14.0056 16.9547 13.9635C16.7484 13.865 16.3313 13.8603 16.1484 13.9588ZM16.7063 14.4744C16.7484 14.5119 16.7953 14.601 16.8094 14.6713C16.8609 14.8869 16.9125 14.915 17.2547 14.915C17.5641 14.915 17.5781 14.9197 17.5781 15.0228C17.5781 15.0931 17.5359 15.1541 17.4656 15.1869C17.2875 15.2666 17.1141 15.5338 17.0813 15.7728C17.0297 16.1385 17.1844 16.4385 17.5453 16.6728C17.5828 16.6963 17.6297 16.7666 17.6438 16.8181C17.6719 16.9166 17.6625 16.9213 16.9359 16.9494C16.5281 16.9681 16.0781 16.9916 15.9328 17.0056C15.6797 17.0291 15.6656 17.0291 15.6469 16.9166C15.6281 16.8181 15.6562 16.776 15.7922 16.6869C16.0359 16.5275 16.1344 16.3119 16.1156 15.965C16.0969 15.6322 15.9469 15.3931 15.7078 15.29C15.6047 15.2478 15.5625 15.201 15.5625 15.1213C15.5625 15.0228 15.5906 15.0088 15.8484 14.9806C16.1578 14.9478 16.2656 14.8728 16.2656 14.7041C16.2656 14.5916 16.4578 14.3994 16.575 14.3994C16.6078 14.3994 16.6688 14.4322 16.7063 14.4744Z" fill="white"/>
</svg>
