<svg width="23" height="25" viewBox="0 0 23 25" fill="none" xmlns="http://www.w3.org/2000/svg">
<path d="M9.77344 0.332521C7.26094 0.68877 5.09063 1.77158 3.31875 3.55752C1.95938 4.92158 0.928129 6.73096 0.468754 8.54971C0.0703165 10.1481 3.98606e-06 11.7091 0.262504 13.2466C0.656254 15.5669 1.78125 17.7091 3.48282 19.3778C3.94219 19.8278 3.98438 19.856 4.1625 19.856C4.3125 19.856 4.37344 19.8278 4.44844 19.7341C4.64063 19.4903 4.59375 19.3966 4.05469 18.8669C2.65782 17.5122 1.66407 15.8106 1.19532 13.9778C0.951567 13.0122 0.871879 12.4075 0.871879 11.395C0.871879 10.1481 1.0125 9.26221 1.39219 8.11846C2.27344 5.47002 4.2 3.27158 6.72657 2.04346C8.19844 1.32627 9.58125 1.01221 11.2641 1.01221C14.0859 1.01221 16.6313 2.07627 18.6234 4.08252C20.2406 5.71377 21.225 7.72471 21.5672 10.106C21.6563 10.7106 21.6422 12.1778 21.5438 12.8247C21.1781 15.1966 20.1375 17.2122 18.4031 18.9138C17.9109 19.3966 17.8688 19.4997 18.0516 19.7341C18.1266 19.8278 18.1875 19.856 18.3375 19.856C18.5156 19.856 18.5578 19.8278 19.0172 19.3731C19.9594 18.4544 20.6719 17.4606 21.2578 16.27C23.0906 12.5388 22.6781 8.04815 20.1984 4.73408C18.4734 2.43252 16.0031 0.909082 13.1719 0.402834C12.4172 0.266895 10.5141 0.229395 9.77344 0.332521Z" fill="white"/>
<path d="M10.3266 3.36066C8.74219 3.54347 7.26094 4.19034 6.01406 5.23566C4.66406 6.37003 3.71719 7.97784 3.32812 9.80128C3.20156 10.4013 3.15 11.681 3.22969 12.3419C3.46875 14.3107 4.42031 16.1341 5.8875 17.4232C6.58594 18.0372 6.80156 18.1216 7.02188 17.8638C7.19062 17.6622 7.15781 17.5216 6.88125 17.2778C6.24375 16.7247 5.48906 15.9185 5.20781 15.4966C4.65469 14.6716 4.27969 13.781 4.06875 12.806C3.92813 12.1638 3.91875 10.6778 4.04531 10.045C4.37344 8.42784 5.22187 6.94659 6.4125 5.90597C9.19219 3.47316 13.1953 3.44972 16.0219 5.84034C16.3031 6.07941 16.3969 6.13097 16.5328 6.13097C16.7578 6.13097 16.8844 5.99972 16.8844 5.76534C16.8844 5.60128 16.8562 5.55441 16.6125 5.33409C15.6375 4.46222 14.1891 3.73566 12.9141 3.47784C12.0938 3.31378 11.1094 3.27159 10.3266 3.36066Z" fill="white"/>
<path d="M17.2501 6.63711C17.086 6.80117 17.1282 7.01211 17.4188 7.45742C17.8969 8.18867 18.2673 9.11211 18.4548 10.0355C18.5813 10.6777 18.5719 12.1637 18.4313 12.8059C18.2204 13.7809 17.8454 14.6715 17.2923 15.4965C17.011 15.9184 16.2563 16.7246 15.6188 17.2777C15.3376 17.5215 15.3094 17.6621 15.4829 17.8684C15.7032 18.1215 15.9141 18.0371 16.6126 17.423C17.8313 16.3496 18.7266 14.859 19.1016 13.2793C19.2751 12.534 19.3266 11.9668 19.2985 11.0996C19.2657 10.0965 19.1391 9.42617 18.811 8.53555C18.5532 7.84649 17.9063 6.68867 17.7188 6.59024C17.5735 6.51524 17.3485 6.53867 17.2501 6.63711Z" fill="white"/>
<path d="M10.4063 7.1294C8.69065 7.48096 7.38753 8.77471 7.00784 10.495C6.90472 10.9544 6.93284 12.0794 7.05472 12.52C7.14847 12.8716 7.53753 13.6685 7.75784 13.9591C7.91253 14.1653 7.93597 14.1841 8.12815 14.1841C8.54534 14.1841 8.62034 13.8653 8.30628 13.406C7.58909 12.3606 7.47659 10.945 8.01565 9.86689C9.11722 7.66846 11.8547 7.12002 13.6453 8.74189C14.4 9.41689 14.8125 10.3544 14.8125 11.3716C14.8125 12.1497 14.6203 12.7825 14.1938 13.406C13.8844 13.856 13.9547 14.1841 14.3578 14.1841C14.5688 14.1841 14.6953 14.0716 14.9438 13.6544C15.375 12.9325 15.5625 12.2528 15.5625 11.395C15.5625 10.4903 15.3563 9.76377 14.9016 9.05596C14.2453 8.0294 13.1813 7.32158 11.9813 7.11064C11.6063 7.04033 10.7813 7.05439 10.4063 7.1294Z" fill="white"/>
<path d="M10.1156 10.7623C10.0219 10.8139 9.90469 10.9217 9.85313 11.0061C9.75469 11.1701 7.73438 20.4467 7.73438 20.7326C7.73438 21.0139 8.11406 21.1779 8.33906 20.9951C8.42344 20.9248 8.58281 20.2358 9.45938 16.1764L10.4766 11.442H11.25H12.0234L12.3609 13.0123C12.6656 14.4373 12.7078 14.592 12.8203 14.6858C12.975 14.8217 13.125 14.8217 13.2844 14.6951C13.3734 14.6248 13.4062 14.5545 13.4062 14.4373C13.4062 14.1514 12.7453 11.1701 12.6469 11.0061C12.4641 10.7061 12.3094 10.6686 11.2406 10.6686C10.3922 10.6733 10.2703 10.6826 10.1156 10.7623Z" fill="white"/>
<path d="M11.0719 12.4028C11.0156 12.4263 10.9453 12.4966 10.9219 12.5528C10.8984 12.6138 10.3594 15.0747 9.72655 18.0278C9.09373 20.981 8.56405 23.4325 8.54998 23.4747C8.53123 23.545 8.4703 23.5591 8.19373 23.5591C7.87498 23.5591 7.86561 23.5544 7.88905 23.4513C8.05311 22.7669 8.16092 22.1388 8.13748 22.0403C8.10467 21.8997 7.86092 21.7591 7.71561 21.7966C7.47655 21.8575 7.44373 21.9231 7.2703 22.7435L7.10155 23.5356L6.81092 23.5497C6.56248 23.5638 6.50623 23.5825 6.42186 23.6856C6.29998 23.8403 6.30467 23.981 6.42655 24.1403L6.5203 24.2622H11.3156C15.8906 24.2622 16.1156 24.2575 16.1859 24.1778C16.3172 24.0325 16.3312 23.831 16.2187 23.6903C16.1297 23.5731 16.0875 23.5638 15.7594 23.5497L15.3984 23.5356L14.5687 19.6685C14.114 17.5403 13.7109 15.7497 13.6781 15.6841C13.5469 15.4403 13.1719 15.445 13.0359 15.6935C12.9703 15.8106 13.0172 16.0638 13.7812 19.6075C14.2265 21.6888 14.6015 23.4325 14.6156 23.4747C14.6344 23.5497 14.5969 23.5591 14.3015 23.5591C13.9969 23.5591 13.9687 23.5497 13.9453 23.4513C13.9312 23.395 13.3969 20.9153 12.7547 17.9435C12.0656 14.7278 11.564 12.5106 11.5265 12.4731C11.4375 12.3841 11.2078 12.3466 11.0719 12.4028ZM11.475 15.5763C11.5828 16.0825 11.6672 16.4997 11.6625 16.5044C11.6531 16.5044 11.5219 16.6122 11.3672 16.7435C11.2125 16.8747 10.9875 17.0575 10.8703 17.1513L10.65 17.3294L10.7859 16.706C10.8562 16.3638 10.9875 15.7591 11.0719 15.3653C11.1562 14.9763 11.2359 14.6528 11.25 14.6528C11.264 14.6528 11.3625 15.0653 11.475 15.5763ZM11.8828 17.4747C12.0515 18.2153 12.3234 19.5466 12.3094 19.5606C12.2812 19.5888 10.6828 18.3466 10.6969 18.3091C10.7156 18.2622 11.7844 17.3763 11.8219 17.3763C11.8406 17.3716 11.8687 17.4185 11.8828 17.4747ZM11.2828 19.7622C11.8031 20.1606 12.2297 20.4981 12.2297 20.5122C12.2297 20.5263 11.6484 20.8685 10.9359 21.2763C9.84842 21.8997 9.64686 21.9981 9.66561 21.9091C9.87186 20.8872 10.289 19.0122 10.3125 19.0216C10.3265 19.031 10.7672 19.3638 11.2828 19.7622ZM12.9281 22.331C13.064 22.9685 13.1719 23.5028 13.1719 23.5216C13.1719 23.5778 9.32811 23.5685 9.32811 23.5122C9.32811 23.4888 9.35155 23.3669 9.37498 23.245L9.42655 23.02L11.0297 22.0966C11.9109 21.5856 12.6422 21.1731 12.6562 21.1685C12.6703 21.1685 12.7922 21.6888 12.9281 22.331Z" fill="white"/>
</svg>
