<svg width="24" height="24" viewBox="0 0 24 24" fill="none" xmlns="http://www.w3.org/2000/svg">
<path d="M17.7 0C18.7343 0 19.7263 0.410892 20.4577 1.14228C21.1891 1.87368 21.6 2.86566 21.6 3.9V4.8H0V3.9C0 2.86566 0.410892 1.87368 1.14228 1.14228C1.87368 0.410892 2.86566 0 3.9 0H17.7ZM21.6 6.6V10.8264C20.1024 9.86857 18.3225 9.45106 16.5551 9.64304C14.7878 9.83501 13.139 10.6249 11.882 11.882C10.6249 13.139 9.83501 14.7878 9.64304 16.5551C9.45106 18.3225 9.86857 20.1024 10.8264 21.6H3.9C2.86566 21.6 1.87368 21.1891 1.14228 20.4577C0.410892 19.7263 0 18.7343 0 17.7V6.6H21.6ZM24 17.4C24 15.6496 23.3046 13.9708 22.0669 12.7331C20.8292 11.4954 19.1504 10.8 17.4 10.8C15.6496 10.8 13.9708 11.4954 12.7331 12.7331C11.4954 13.9708 10.8 15.6496 10.8 17.4C10.8 19.1504 11.4954 20.8292 12.7331 22.0669C13.9708 23.3046 15.6496 24 17.4 24C19.1504 24 20.8292 23.3046 22.0669 22.0669C23.3046 20.8292 24 19.1504 24 17.4ZM17.4 17.4H19.8C19.9591 17.4 20.1117 17.4632 20.2243 17.5757C20.3368 17.6883 20.4 17.8409 20.4 18C20.4 18.1591 20.3368 18.3117 20.2243 18.4243C20.1117 18.5368 19.9591 18.6 19.8 18.6H16.8C16.6409 18.6 16.4883 18.5368 16.3757 18.4243C16.2632 18.3117 16.2 18.1591 16.2 18V14.4C16.2 14.2409 16.2632 14.0883 16.3757 13.9757C16.4883 13.8632 16.6409 13.8 16.8 13.8C16.9591 13.8 17.1117 13.8632 17.2243 13.9757C17.3368 14.0883 17.4 14.2409 17.4 14.4V17.4Z" fill="white"/>
</svg>
