<svg width="24" height="24" viewBox="0 0 24 24" fill="none" xmlns="http://www.w3.org/2000/svg">
<path d="M11.1429 0H7.14286C6.51036 1.91093e-05 5.90005 0.233151 5.42862 0.654825C4.95719 1.0765 4.65771 1.65713 4.58743 2.28571H2.57143C1.88944 2.28571 1.23539 2.55663 0.753154 3.03887C0.270918 3.52111 0 4.17516 0 4.85714V20.2857C0 20.9677 0.270918 21.6218 0.753154 22.104C1.23539 22.5862 1.88944 22.8571 2.57143 22.8571H12.3543C11.0248 21.4754 10.2832 19.6318 10.2857 17.7143C10.2857 16.2914 10.6857 14.9623 11.3794 13.8331L8.60571 16.6057C8.445 16.7662 8.22714 16.8564 8 16.8564C7.77286 16.8564 7.555 16.7662 7.39429 16.6057L4.53714 13.7486C4.45293 13.6701 4.38538 13.5755 4.33854 13.4703C4.29169 13.3652 4.2665 13.2517 4.26447 13.1366C4.26244 13.0215 4.28361 12.9072 4.32672 12.8005C4.36983 12.6937 4.43399 12.5968 4.51538 12.5154C4.59678 12.434 4.69373 12.3698 4.80046 12.3267C4.90719 12.2836 5.02151 12.2624 5.1366 12.2645C5.25169 12.2665 5.36519 12.2917 5.47033 12.3385C5.57547 12.3854 5.6701 12.4529 5.74857 12.5371L8 14.7886L13.68 9.10857C13.7585 9.02436 13.8531 8.95681 13.9582 8.90996C14.0634 8.86312 14.1769 8.83793 14.292 8.8359C14.4071 8.83387 14.5214 8.85504 14.6281 8.89815C14.7348 8.94126 14.8318 9.00542 14.9132 9.08681C14.9946 9.16821 15.0587 9.26516 15.1019 9.37189C15.145 9.47862 15.1661 9.59294 15.1641 9.70803C15.1621 9.82311 15.1369 9.93662 15.09 10.0418C15.0432 10.1469 14.9756 10.2415 14.8914 10.32L13.8331 11.3794C15.1664 10.5595 16.7254 10.1837 18.2857 10.3063V4.85714C18.2857 4.17516 18.0148 3.52111 17.5326 3.03887C17.0503 2.55663 16.3963 2.28571 15.7143 2.28571H13.6983C13.628 1.65713 13.3285 1.0765 12.8571 0.654825C12.3857 0.233151 11.7754 1.91093e-05 11.1429 0ZM7.14286 1.71429H11.1429C11.3702 1.71429 11.5882 1.80459 11.7489 1.96534C11.9097 2.12608 12 2.3441 12 2.57143C12 2.79876 11.9097 3.01677 11.7489 3.17752C11.5882 3.33827 11.3702 3.42857 11.1429 3.42857H7.14286C6.91553 3.42857 6.69751 3.33827 6.53677 3.17752C6.37602 3.01677 6.28571 2.79876 6.28571 2.57143C6.28571 2.3441 6.37602 2.12608 6.53677 1.96534C6.69751 1.80459 6.91553 1.71429 7.14286 1.71429ZM24 17.7143C24 16.0472 23.3378 14.4484 22.159 13.2696C20.9802 12.0908 19.3814 11.4286 17.7143 11.4286C16.0472 11.4286 14.4484 12.0908 13.2696 13.2696C12.0908 14.4484 11.4286 16.0472 11.4286 17.7143C11.4286 19.3814 12.0908 20.9802 13.2696 22.159C14.4484 23.3378 16.0472 24 17.7143 24C19.3814 24 20.9802 23.3378 22.159 22.159C23.3378 20.9802 24 19.3814 24 17.7143ZM18.2857 18.2857L18.2869 21.1463C18.2869 21.2978 18.2267 21.4432 18.1195 21.5503C18.0123 21.6575 17.867 21.7177 17.7154 21.7177C17.5639 21.7177 17.4185 21.6575 17.3114 21.5503C17.2042 21.4432 17.144 21.2978 17.144 21.1463V18.2857H14.2811C14.1296 18.2857 13.9842 18.2255 13.8771 18.1183C13.7699 18.0112 13.7097 17.8658 13.7097 17.7143C13.7097 17.5627 13.7699 17.4174 13.8771 17.3102C13.9842 17.2031 14.1296 17.1429 14.2811 17.1429H17.1429V14.2857C17.1429 14.1342 17.2031 13.9888 17.3102 13.8817C17.4174 13.7745 17.5627 13.7143 17.7143 13.7143C17.8658 13.7143 18.0112 13.7745 18.1183 13.8817C18.2255 13.9888 18.2857 14.1342 18.2857 14.2857V17.1429H21.1394C21.291 17.1429 21.4363 17.2031 21.5435 17.3102C21.6507 17.4174 21.7109 17.5627 21.7109 17.7143C21.7109 17.8658 21.6507 18.0112 21.5435 18.1183C21.4363 18.2255 21.291 18.2857 21.1394 18.2857H18.2857Z" fill="white"/>
</svg>
