<svg width="137" height="138" viewBox="0 0 137 138" fill="none" xmlns="http://www.w3.org/2000/svg">
<path d="M92.0469 39.0303C95.5936 39.0303 98.4688 36.1551 98.4688 32.6084C98.4688 29.0617 95.5936 26.1865 92.0469 26.1865C88.5002 26.1865 85.625 29.0617 85.625 32.6084C85.625 36.1551 88.5002 39.0303 92.0469 39.0303Z" fill="#232323" fill-opacity="0.03"/>
<path d="M61.7099 86.124H38.5312V62.9454L64.3472 37.1294C64.2631 36.3387 64.2202 35.5442 64.2188 34.749C64.2188 29.6685 65.7253 24.7021 68.5479 20.4778C71.3705 16.2535 75.3823 12.9611 80.0761 11.0169C84.7698 9.07265 89.9347 8.56396 94.9176 9.55511C99.9005 10.5463 104.478 12.9928 108.07 16.5852C111.663 20.1777 114.109 24.7548 115.1 29.7377C116.091 34.7205 115.583 39.8854 113.638 44.5792C111.694 49.273 108.402 53.2848 104.177 56.1074C99.9532 58.93 94.9868 60.4365 89.9062 60.4365C89.1111 60.435 88.3166 60.3921 87.5259 60.3081L61.7099 86.124ZM47.0938 77.5615H58.1651L84.5804 51.1462L86.7981 51.5529C87.8219 51.756 88.8625 51.8635 89.9062 51.874C93.487 51.9181 96.9936 50.8524 99.9443 48.8232C102.895 46.7941 105.145 43.9012 106.385 40.5418C107.626 37.1824 107.795 33.5213 106.871 30.0616C105.947 26.6018 103.974 23.5131 101.224 21.2197C98.4738 18.9262 95.0809 17.5406 91.5114 17.2532C87.9419 16.9657 84.3709 17.7905 81.2891 19.6143C78.2072 21.4381 75.7656 24.1713 74.2998 27.4386C72.8339 30.7059 72.4156 34.3469 73.1023 37.8615L73.5091 40.0749L47.0938 66.4902V77.5615Z" fill="#232323" fill-opacity="0.03"/>
<path d="M119.875 86.124H81.3438V94.6865H119.875V120.374H17.125V94.6865H25.6875V86.124H17.125C14.8548 86.1263 12.6782 87.0291 11.0729 88.6344C9.46761 90.2397 8.56477 92.4163 8.5625 94.6865V120.374C8.56477 122.644 9.46761 124.821 11.0729 126.426C12.6782 128.031 14.8548 128.934 17.125 128.937H119.875C122.145 128.934 124.322 128.031 125.927 126.426C127.532 124.821 128.435 122.644 128.438 120.374V94.6865C128.435 92.4163 127.532 90.2397 125.927 88.6344C124.322 87.0291 122.145 86.1263 119.875 86.124Z" fill="#232323" fill-opacity="0.03"/>
<path d="M29.9688 111.812C32.3332 111.812 34.25 109.895 34.25 107.53C34.25 105.166 32.3332 103.249 29.9688 103.249C27.6043 103.249 25.6875 105.166 25.6875 107.53C25.6875 109.895 27.6043 111.812 29.9688 111.812Z" fill="#232323" fill-opacity="0.03"/>
</svg>
