<svg width="43" height="44" viewBox="0 0 43 44" fill="none" xmlns="http://www.w3.org/2000/svg">
<g clip-path="url(#clip0_839_5696)">
<path d="M36.2 13.3435V11.1935H32V4.74351H6.79997V34.8435H17.3V43.4435H24.125H23.6C22.4861 43.4435 21.4178 42.9905 20.6301 42.1841C19.8425 41.3777 19.4 40.2839 19.4 39.1435V17.6435C19.4 16.5031 19.8425 15.4094 20.6301 14.603C21.4178 13.7965 22.4861 13.3435 23.6 13.3435H36.2ZM24.125 43.4435H6.79997C5.68607 43.4435 4.61778 42.9905 3.83013 42.1841C3.04247 41.3777 2.59998 40.2839 2.59998 39.1435V4.74351C2.59998 2.37851 4.48998 0.443512 6.79997 0.443512H32C33.1139 0.443512 34.1822 0.896546 34.9698 1.70295C35.7575 2.50936 36.2 3.60308 36.2 4.74351V13.3435C37.3139 13.3435 38.3822 13.7965 39.1698 14.603C39.9575 15.4094 40.4 16.5031 40.4 17.6435V39.1435C40.4 40.2839 39.9575 41.3777 39.1698 42.1841C38.3822 42.9905 37.3139 43.4435 36.2 43.4435H24.125ZM23.6 17.6435V34.8435H36.2V17.6435H23.6ZM29.9 41.2935C30.4569 41.2935 30.9911 41.067 31.3849 40.6638C31.7787 40.2606 32 39.7137 32 39.1435C32 38.5733 31.7787 38.0264 31.3849 37.6232C30.9911 37.22 30.4569 36.9935 29.9 36.9935C29.343 36.9935 28.8089 37.22 28.415 37.6232C28.0212 38.0264 27.8 38.5733 27.8 39.1435C27.8 39.7137 28.0212 40.2606 28.415 40.6638C28.8089 41.067 29.343 41.2935 29.9 41.2935Z" fill="white"/>
</g>
<defs>
<clipPath id="clip0_839_5696">
<rect width="42" height="43" fill="white" transform="translate(0.5 0.443512)"/>
</clipPath>
</defs>
</svg>
