<svg width="165" height="124" viewBox="0 0 165 124" fill="none" xmlns="http://www.w3.org/2000/svg">
<path d="M27.5965 13.9772V82.429H61.8224V55.0483C61.8224 51.4174 63.2648 47.9352 65.8322 45.3677C68.3996 42.8003 71.8818 41.3579 75.5127 41.3579H109.739C113.37 41.3579 116.852 42.8003 119.419 45.3677C121.987 47.9352 123.429 51.4174 123.429 55.0483V82.429H137.119V13.9772H27.5965ZM0.21582 109.81V96.1193H27.5965C23.9656 96.1193 20.4834 94.6769 17.916 92.1095C15.3485 89.5421 13.9062 86.0599 13.9062 82.429V13.9772C13.9062 10.3463 15.3485 6.86414 17.916 4.2967C20.4834 1.72927 23.9656 0.286896 27.5965 0.286896H137.119C140.75 0.286896 144.232 1.72927 146.8 4.2967C149.367 6.86414 150.81 10.3463 150.81 13.9772V82.429C150.81 86.0599 149.367 89.5421 146.8 92.1095C144.232 94.6769 140.75 96.1193 137.119 96.1193H164.5V109.81H123.429C123.429 113.441 121.987 116.923 119.419 119.49C116.852 122.058 113.37 123.5 109.739 123.5H75.5127C71.8818 123.5 68.3996 122.058 65.8322 119.49C63.2648 116.923 61.8224 113.441 61.8224 109.81H0.21582ZM78.9353 109.81C78.0276 109.81 77.1571 110.17 76.5152 110.812C75.8733 111.454 75.5127 112.325 75.5127 113.232C75.5127 114.14 75.8733 115.011 76.5152 115.652C77.1571 116.294 78.0276 116.655 78.9353 116.655C79.843 116.655 80.7136 116.294 81.3555 115.652C81.9973 115.011 82.3579 114.14 82.3579 113.232C82.3579 112.325 81.9973 111.454 81.3555 110.812C80.7136 110.17 79.843 109.81 78.9353 109.81ZM106.316 109.81C105.408 109.81 104.538 110.17 103.896 110.812C103.254 111.454 102.893 112.325 102.893 113.232C102.893 114.14 103.254 115.011 103.896 115.652C104.538 116.294 105.408 116.655 106.316 116.655C107.224 116.655 108.094 116.294 108.736 115.652C109.378 115.011 109.739 114.14 109.739 113.232C109.739 112.325 109.378 111.454 108.736 110.812C108.094 110.17 107.224 109.81 106.316 109.81ZM89.2031 109.81V116.655H96.0483V109.81H89.2031ZM75.5127 55.0483V102.964H109.739V55.0483H75.5127Z" fill="#232323" fill-opacity="0.03"/>
</svg>
