<svg width="49" height="47" viewBox="0 0 49 47" fill="none" xmlns="http://www.w3.org/2000/svg">
<path d="M10.1001 9.39904C10.1001 8.15252 10.6058 6.95705 11.506 6.07563C12.4062 5.19421 13.6271 4.69904 14.9001 4.69904H34.1001C35.3731 4.69904 36.594 5.19421 37.4942 6.07563C38.3944 6.95705 38.9001 8.15252 38.9001 9.39904V32.6241L32.9121 38.5461L30.6705 36.3065C30.3414 35.9683 29.9469 35.6975 29.51 35.5099C29.0731 35.3223 28.6025 35.2216 28.1255 35.2136C27.6484 35.2056 27.1746 35.2906 26.7314 35.4635C26.2882 35.6365 25.8845 35.8939 25.5438 36.221C25.2032 36.548 24.9323 36.9381 24.7469 37.3685C24.5616 37.799 24.4654 38.2612 24.4641 38.7284C24.4628 39.1955 24.5563 39.6582 24.7393 40.0897C24.9222 40.5211 25.1909 40.9127 25.5297 41.2415L26.5881 42.299H14.9001C13.6271 42.299 12.4062 41.8039 11.506 40.9224C10.6058 40.041 10.1001 38.8456 10.1001 37.599V9.39904ZM22.1001 22.324C22.1001 22.6357 22.2265 22.9345 22.4516 23.1549C22.6766 23.3752 22.9818 23.499 23.3001 23.499H32.9001C33.2184 23.499 33.5236 23.3752 33.7486 23.1549C33.9737 22.9345 34.1001 22.6357 34.1001 22.324C34.1001 22.0124 33.9737 21.7135 33.7486 21.4932C33.5236 21.2728 33.2184 21.149 32.9001 21.149H23.3001C22.9818 21.149 22.6766 21.2728 22.4516 21.4932C22.2265 21.7135 22.1001 22.0124 22.1001 22.324ZM23.3001 11.749C22.9818 11.749 22.6766 11.8728 22.4516 12.0932C22.2265 12.3135 22.1001 12.6124 22.1001 12.924C22.1001 13.2357 22.2265 13.5345 22.4516 13.7549C22.6766 13.9752 22.9818 14.099 23.3001 14.099H32.9001C33.2184 14.099 33.5236 13.9752 33.7486 13.7549C33.9737 13.5345 34.1001 13.2357 34.1001 12.924C34.1001 12.6124 33.9737 12.3135 33.7486 12.0932C33.5236 11.8728 33.2184 11.749 32.9001 11.749H23.3001ZM22.1001 31.724C22.1001 32.0357 22.2265 32.3345 22.4516 32.5549C22.6766 32.7752 22.9818 32.899 23.3001 32.899H32.9001C33.2184 32.899 33.5236 32.7752 33.7486 32.5549C33.9737 32.3345 34.1001 32.0357 34.1001 31.724C34.1001 31.4124 33.9737 31.1135 33.7486 30.8932C33.5236 30.6728 33.2184 30.549 32.9001 30.549H23.3001C22.9818 30.549 22.6766 30.6728 22.4516 30.8932C22.2265 31.1135 22.1001 31.4124 22.1001 31.724ZM17.3001 24.674C17.9366 24.674 18.5471 24.4264 18.9972 23.9857C19.4472 23.545 19.7001 22.9473 19.7001 22.324C19.7001 21.7008 19.4472 21.103 18.9972 20.6623C18.5471 20.2216 17.9366 19.974 17.3001 19.974C16.6636 19.974 16.0531 20.2216 15.603 20.6623C15.153 21.103 14.9001 21.7008 14.9001 22.324C14.9001 22.9473 15.153 23.545 15.603 23.9857C16.0531 24.4264 16.6636 24.674 17.3001 24.674ZM19.7001 12.924C19.7001 12.3008 19.4472 11.703 18.9972 11.2623C18.5471 10.8216 17.9366 10.574 17.3001 10.574C16.6636 10.574 16.0531 10.8216 15.603 11.2623C15.153 11.703 14.9001 12.3008 14.9001 12.924C14.9001 13.5473 15.153 14.145 15.603 14.5857C16.0531 15.0264 16.6636 15.274 17.3001 15.274C17.9366 15.274 18.5471 15.0264 18.9972 14.5857C19.4472 14.145 19.7001 13.5473 19.7001 12.924ZM17.3001 34.074C17.9366 34.074 18.5471 33.8264 18.9972 33.3857C19.4472 32.945 19.7001 32.3473 19.7001 31.724C19.7001 31.1008 19.4472 30.503 18.9972 30.0623C18.5471 29.6216 17.9366 29.374 17.3001 29.374C16.6636 29.374 16.0531 29.6216 15.603 30.0623C15.153 30.503 14.9001 31.1008 14.9001 31.724C14.9001 32.3473 15.153 32.945 15.603 33.3857C16.0531 33.8264 16.6636 34.074 17.3001 34.074ZM43.3521 34.9012C43.5699 34.6788 43.6898 34.3814 43.6858 34.0732C43.6818 33.765 43.5543 33.4707 43.3308 33.2537C43.1073 33.0367 42.8056 32.9144 42.4909 32.9131C42.1761 32.9118 41.8735 33.0317 41.6481 33.2468L32.9049 41.8948L28.9569 37.9515C28.8472 37.8388 28.7157 37.7485 28.5701 37.686C28.4244 37.6235 28.2676 37.5899 28.1086 37.5872C27.9495 37.5846 27.7916 37.6129 27.6439 37.6705C27.4961 37.7282 27.3616 37.814 27.248 37.923C27.1345 38.032 27.0442 38.1621 26.9824 38.3055C26.9206 38.449 26.8885 38.6031 26.8881 38.7588C26.8877 38.9145 26.9188 39.0688 26.9798 39.2126C27.0408 39.3564 27.1304 39.4869 27.2433 39.5965L31.8729 44.2213C32.0066 44.3549 32.166 44.461 32.342 44.5336C32.518 44.6063 32.7069 44.6439 32.8979 44.6443C33.0889 44.6448 33.278 44.608 33.4543 44.5362C33.6306 44.4644 33.7906 44.359 33.9249 44.226L43.3521 34.9012Z" fill="white"/>
</svg>
