<svg width="47" height="36" viewBox="0 0 47 36" fill="none" xmlns="http://www.w3.org/2000/svg">
<path d="M7.83333 4.29167V23.875H17.625V16.0417C17.625 15.0029 18.0376 14.0067 18.7722 13.2722C19.5067 12.5376 20.5029 12.125 21.5417 12.125H31.3333C32.3721 12.125 33.3683 12.5376 34.1028 13.2722C34.8374 14.0067 35.25 15.0029 35.25 16.0417V23.875H39.1667V4.29167H7.83333ZM0 31.7083V27.7917H7.83333C6.79457 27.7917 5.79835 27.379 5.06383 26.6445C4.32931 25.91 3.91667 24.9138 3.91667 23.875V4.29167C3.91667 3.2529 4.32931 2.25668 5.06383 1.52216C5.79835 0.787647 6.79457 0.375 7.83333 0.375H39.1667C40.2054 0.375 41.2017 0.787647 41.9362 1.52216C42.6707 2.25668 43.0833 3.2529 43.0833 4.29167V23.875C43.0833 24.9138 42.6707 25.91 41.9362 26.6445C41.2017 27.379 40.2054 27.7917 39.1667 27.7917H47V31.7083H35.25C35.25 32.7471 34.8374 33.7433 34.1028 34.4778C33.3683 35.2123 32.3721 35.625 31.3333 35.625H21.5417C20.5029 35.625 19.5067 35.2123 18.7722 34.4778C18.0376 33.7433 17.625 32.7471 17.625 31.7083H0ZM22.5208 31.7083C22.2611 31.7083 22.0121 31.8115 21.8285 31.9951C21.6448 32.1787 21.5417 32.4278 21.5417 32.6875C21.5417 32.9472 21.6448 33.1962 21.8285 33.3799C22.0121 33.5635 22.2611 33.6667 22.5208 33.6667C22.7805 33.6667 23.0296 33.5635 23.2132 33.3799C23.3968 33.1962 23.5 32.9472 23.5 32.6875C23.5 32.4278 23.3968 32.1787 23.2132 31.9951C23.0296 31.8115 22.7805 31.7083 22.5208 31.7083ZM30.3542 31.7083C30.0945 31.7083 29.8454 31.8115 29.6618 31.9951C29.4782 32.1787 29.375 32.4278 29.375 32.6875C29.375 32.9472 29.4782 33.1962 29.6618 33.3799C29.8454 33.5635 30.0945 33.6667 30.3542 33.6667C30.6139 33.6667 30.8629 33.5635 31.0465 33.3799C31.2302 33.1962 31.3333 32.9472 31.3333 32.6875C31.3333 32.4278 31.2302 32.1787 31.0465 31.9951C30.8629 31.8115 30.6139 31.7083 30.3542 31.7083ZM25.4583 31.7083V33.6667H27.4167V31.7083H25.4583ZM21.5417 16.0417V29.75H31.3333V16.0417H21.5417Z" fill="white"/>
</svg>
