<svg width="121" height="110" viewBox="0 0 121 110" fill="none" xmlns="http://www.w3.org/2000/svg">
<path d="M109.573 65.6448V11.0092H11.2289V65.6448H109.573ZM109.573 0.0820923C112.471 0.0820923 115.25 1.23334 117.299 3.28257C119.349 5.3318 120.5 8.11115 120.5 11.0092V76.5719C120.5 79.4699 119.349 82.2493 117.299 84.2985C115.25 86.3477 112.471 87.499 109.573 87.499H71.328L82.2551 103.89V109.353H38.5466V103.89L49.4738 87.499H11.2289C8.33082 87.499 5.55147 86.3477 3.50223 84.2985C1.453 82.2493 0.301758 79.4699 0.301758 76.5719V11.0092C0.301758 4.94466 5.16432 0.0820923 11.2289 0.0820923H109.573ZM16.6924 16.4728H76.7915V43.7905H16.6924V16.4728ZM82.2551 16.4728H104.109V27.3999H82.2551V16.4728ZM104.109 32.8634V60.1812H82.2551V32.8634H104.109ZM16.6924 49.2541H44.0102V60.1812H16.6924V49.2541ZM49.4738 49.2541H76.7915V60.1812H49.4738V49.2541Z" fill="#232323" fill-opacity="0.02"/>
</svg>
