<svg width="47" height="46" viewBox="0 0 47 46" fill="none" xmlns="http://www.w3.org/2000/svg">
<path d="M31.4062 13.0171C32.5971 13.0171 33.5625 12.0727 33.5625 10.9077C33.5625 9.74274 32.5971 8.79834 31.4062 8.79834C30.2154 8.79834 29.25 9.74274 29.25 10.9077C29.25 12.0727 30.2154 13.0171 31.4062 13.0171Z" fill="white"/>
<path d="M21.2201 28.4858H13.4375V20.8724L22.1056 12.3927C22.0774 12.133 22.063 11.872 22.0625 11.6108C22.0625 9.94206 22.5683 8.31076 23.5161 6.92322C24.4638 5.53568 25.8108 4.45422 27.3869 3.81561C28.9629 3.177 30.6971 3.00991 32.3702 3.33547C34.0432 3.66103 35.5801 4.46462 36.7863 5.64463C37.9925 6.82464 38.814 8.32805 39.1468 9.96477C39.4796 11.6015 39.3088 13.298 38.656 14.8397C38.0032 16.3815 36.8977 17.6992 35.4793 18.6264C34.0609 19.5535 32.3934 20.0483 30.6875 20.0483C30.4205 20.0478 30.1537 20.0338 29.8882 20.0062L21.2201 28.4858ZM16.3125 25.6733H20.0299L28.8992 16.9968L29.6439 17.1304C29.9877 17.1971 30.337 17.2324 30.6875 17.2358C31.8898 17.2503 33.0672 16.9003 34.0579 16.2338C35.0487 15.5673 35.8042 14.617 36.2206 13.5136C36.6371 12.4101 36.6941 11.2076 36.3838 10.0712C36.0735 8.93476 35.4111 7.92021 34.4877 7.16689C33.5642 6.41357 32.425 5.95845 31.2264 5.86403C30.0279 5.76961 28.8289 6.04053 27.7941 6.63958C26.7594 7.23863 25.9396 8.13642 25.4474 9.20961C24.9552 10.2828 24.8147 11.4788 25.0453 12.6332L25.1819 13.3602L16.3125 22.0368V25.6733Z" fill="white"/>
<path d="M40.75 28.4858H27.8125V31.2983H40.75V39.7358H6.25V31.2983H9.125V28.4858H6.25C5.48774 28.4866 4.75691 28.7831 4.21791 29.3104C3.67891 29.8377 3.37576 30.5526 3.375 31.2983V39.7358C3.37576 40.4815 3.67891 41.1965 4.21791 41.7238C4.75691 42.251 5.48774 42.5476 6.25 42.5483H40.75C41.5123 42.5476 42.2431 42.251 42.7821 41.7238C43.3211 41.1965 43.6242 40.4815 43.625 39.7358V31.2983C43.6242 30.5526 43.3211 29.8377 42.7821 29.3104C42.2431 28.7831 41.5123 28.4866 40.75 28.4858Z" fill="white"/>
<path d="M10.5625 36.9233C11.3564 36.9233 12 36.2937 12 35.5171C12 34.7404 11.3564 34.1108 10.5625 34.1108C9.76859 34.1108 9.125 34.7404 9.125 35.5171C9.125 36.2937 9.76859 36.9233 10.5625 36.9233Z" fill="white"/>
</svg>
