<svg width="101" height="119" viewBox="0 0 101 119" fill="none" xmlns="http://www.w3.org/2000/svg">
<path d="M0.100098 14C0.100098 10.287 1.6067 6.72601 4.28847 4.1005C6.97024 1.475 10.6075 0 14.4001 0H71.6001C75.3927 0 79.03 1.475 81.7117 4.1005C84.3935 6.72601 85.9001 10.287 85.9001 14V83.181L68.0609 100.821L61.3828 94.15C60.4023 93.1426 59.2271 92.336 57.9255 91.7771C56.6239 91.2182 55.2217 90.9182 53.8006 90.8944C52.3795 90.8707 50.9678 91.1238 49.6474 91.6389C48.3271 92.1541 47.1245 92.921 46.1096 93.8952C45.0947 94.8693 44.2876 96.0312 43.7354 97.3134C43.1832 98.5956 42.8968 99.9725 42.8929 101.364C42.889 102.755 43.1676 104.134 43.7126 105.419C44.2576 106.704 45.058 107.87 46.0675 108.85L49.2206 112H14.4001C10.6075 112 6.97024 110.525 4.28847 107.9C1.6067 105.274 0.100098 101.713 0.100098 98V14ZM35.8501 52.5C35.8501 53.4283 36.2267 54.3185 36.8972 54.9749C37.5676 55.6313 38.477 56 39.4251 56H68.0251C68.9733 56 69.8826 55.6313 70.553 54.9749C71.2235 54.3185 71.6001 53.4283 71.6001 52.5C71.6001 51.5718 71.2235 50.6815 70.553 50.0251C69.8826 49.3688 68.9733 49 68.0251 49H39.4251C38.477 49 37.5676 49.3688 36.8972 50.0251C36.2267 50.6815 35.8501 51.5718 35.8501 52.5ZM39.4251 21C38.477 21 37.5676 21.3688 36.8972 22.0251C36.2267 22.6815 35.8501 23.5717 35.8501 24.5C35.8501 25.4283 36.2267 26.3185 36.8972 26.9749C37.5676 27.6313 38.477 28 39.4251 28H68.0251C68.9733 28 69.8826 27.6313 70.553 26.9749C71.2235 26.3185 71.6001 25.4283 71.6001 24.5C71.6001 23.5717 71.2235 22.6815 70.553 22.0251C69.8826 21.3688 68.9733 21 68.0251 21H39.4251ZM35.8501 80.5C35.8501 81.4283 36.2267 82.3185 36.8972 82.9749C37.5676 83.6313 38.477 84 39.4251 84H68.0251C68.9733 84 69.8826 83.6313 70.553 82.9749C71.2235 82.3185 71.6001 81.4283 71.6001 80.5C71.6001 79.5718 71.2235 78.6815 70.553 78.0251C69.8826 77.3688 68.9733 77 68.0251 77H39.4251C38.477 77 37.5676 77.3688 36.8972 78.0251C36.2267 78.6815 35.8501 79.5718 35.8501 80.5ZM21.5501 59.5C23.4464 59.5 25.265 58.7625 26.6059 57.4498C27.9468 56.137 28.7001 54.3565 28.7001 52.5C28.7001 50.6435 27.9468 48.863 26.6059 47.5503C25.265 46.2375 23.4464 45.5 21.5501 45.5C19.6538 45.5 17.8352 46.2375 16.4943 47.5503C15.1534 48.863 14.4001 50.6435 14.4001 52.5C14.4001 54.3565 15.1534 56.137 16.4943 57.4498C17.8352 58.7625 19.6538 59.5 21.5501 59.5ZM28.7001 24.5C28.7001 22.6435 27.9468 20.863 26.6059 19.5503C25.265 18.2375 23.4464 17.5 21.5501 17.5C19.6538 17.5 17.8352 18.2375 16.4943 19.5503C15.1534 20.863 14.4001 22.6435 14.4001 24.5C14.4001 26.3565 15.1534 28.137 16.4943 29.4498C17.8352 30.7625 19.6538 31.5 21.5501 31.5C23.4464 31.5 25.265 30.7625 26.6059 29.4498C27.9468 28.137 28.7001 26.3565 28.7001 24.5ZM21.5501 87.5C23.4464 87.5 25.265 86.7625 26.6059 85.4498C27.9468 84.137 28.7001 82.3565 28.7001 80.5C28.7001 78.6435 27.9468 76.863 26.6059 75.5503C25.265 74.2375 23.4464 73.5 21.5501 73.5C19.6538 73.5 17.8352 74.2375 16.4943 75.5503C15.1534 76.863 14.4001 78.6435 14.4001 80.5C14.4001 82.3565 15.1534 84.137 16.4943 85.4498C17.8352 86.7625 19.6538 87.5 21.5501 87.5ZM99.1634 89.964C99.8123 89.3013 100.169 88.4155 100.157 87.4976C100.146 86.5796 99.7657 85.7029 99.0998 85.0565C98.434 84.4101 97.5353 84.0458 96.5976 84.0419C95.6599 84.0381 94.7582 84.3951 94.0869 85.036L68.0394 110.796L56.2777 99.05C55.9508 98.7142 55.5591 98.4453 55.1252 98.259C54.6914 98.0727 54.224 97.9727 53.7503 97.9648C53.2766 97.9569 52.806 98.0413 52.3659 98.213C51.9258 98.3847 51.5249 98.6403 51.1866 98.9651C50.8483 99.2898 50.5793 99.6771 50.3952 100.104C50.2111 100.532 50.1157 100.991 50.1144 101.455C50.1131 101.918 50.2059 102.378 50.3876 102.806C50.5693 103.235 50.8361 103.623 51.1726 103.95L64.9649 117.726C65.3631 118.124 65.8382 118.44 66.3624 118.656C66.8867 118.873 67.4496 118.985 68.0185 118.986C68.5874 118.987 69.1509 118.878 69.6762 118.664C70.2015 118.45 70.678 118.136 71.0782 117.74L99.1634 89.964Z" fill="#232323" fill-opacity="0.03"/>
</svg>
