<svg width="109" height="108" viewBox="0 0 109 108" fill="none" xmlns="http://www.w3.org/2000/svg">
<path d="M97.6833 29.9058V48.8535C92.4509 45.5058 86.4179 43.6193 80.2105 43.3899C79.4994 42.4244 78.5429 41.6668 77.4402 41.1958C76.3375 40.7247 75.1288 40.5574 73.9396 40.7112C72.7504 40.865 71.6241 41.3343 70.6775 42.0704C69.7309 42.8065 68.9986 43.7825 68.5565 44.8971C63.5257 46.4519 58.9093 49.1192 55.0496 52.7012C51.19 56.2831 48.1861 60.6879 46.2607 65.5889C45.362 66.0317 44.5735 66.6697 43.9529 67.4561C43.3322 68.2426 42.8951 69.1578 42.6732 70.1348C42.4514 71.1118 42.4506 72.126 42.6708 73.1033C42.891 74.0807 43.3267 74.9966 43.946 75.7841C43.4968 81.7773 44.6038 87.785 47.1596 93.2246L45.9592 97.1917H18.2859C13.6461 97.1917 9.19631 95.3486 5.91548 92.0678C2.63465 88.7869 0.791504 84.3372 0.791504 79.6974V29.9058H97.6833ZM23.6687 64.8945C21.8842 64.8945 20.1727 65.6034 18.9109 66.8652C17.649 68.1271 16.9401 69.8386 16.9401 71.6231C16.9401 73.4076 17.649 75.1191 18.9109 76.3809C20.1727 77.6428 21.8842 78.3517 23.6687 78.3517C25.4533 78.3517 27.1647 77.6428 28.4266 76.3809C29.6884 75.1191 30.3973 73.4076 30.3973 71.6231C30.3973 69.8386 29.6884 68.1271 28.4266 66.8652C27.1647 65.6034 25.4533 64.8945 23.6687 64.8945ZM23.6687 40.6716C21.8842 40.6716 20.1727 41.3805 18.9109 42.6423C17.649 43.9042 16.9401 45.6156 16.9401 47.4001C16.9401 49.1847 17.649 50.8961 18.9109 52.158C20.1727 53.4198 21.8842 54.1287 23.6687 54.1287C25.4533 54.1287 27.1647 53.4198 28.4266 52.158C29.6884 50.8961 30.3973 49.1847 30.3973 47.4001C30.3973 45.6156 29.6884 43.9042 28.4266 42.6423C27.1647 41.3805 25.4533 40.6716 23.6687 40.6716ZM49.2374 40.6716C47.4529 40.6716 45.7414 41.3805 44.4796 42.6423C43.2177 43.9042 42.5088 45.6156 42.5088 47.4001C42.5088 49.1847 43.2177 50.8961 44.4796 52.158C45.7414 53.4198 47.4529 54.1287 49.2374 54.1287C51.0219 54.1287 52.7334 53.4198 53.9952 52.158C55.2571 50.8961 55.966 49.1847 55.966 47.4001C55.966 45.6156 55.2571 43.9042 53.9952 42.6423C52.7334 41.3805 51.0219 40.6716 49.2374 40.6716ZM81.3732 48.8535C87.361 49.3567 93.052 51.6781 97.6833 55.5068C103.396 60.1991 107.147 66.8586 108.199 74.1763C109.25 81.4939 107.527 88.9403 103.367 95.0515C99.2066 101.163 92.911 105.497 85.7174 107.202C78.5239 108.907 70.9528 107.859 64.4925 104.265L52.7201 107.85C52.2528 107.993 51.7555 108.005 51.2814 107.887C50.8074 107.768 50.3746 107.523 50.0294 107.177C49.6841 106.832 49.4396 106.398 49.3218 105.924C49.2041 105.45 49.2177 104.953 49.3612 104.486L52.9462 92.7186C50.3414 88.0224 49.0627 82.7062 49.2471 77.3392C49.4315 71.9721 51.0719 66.7562 53.9929 62.2499C56.9138 57.7435 61.0052 54.1163 65.8292 51.7565C70.6532 49.3968 76.0281 48.3933 81.3785 48.8535H81.3732ZM65.386 72.9688C65.386 73.6826 65.6696 74.3672 66.1743 74.8719C66.6791 75.3767 67.3636 75.6602 68.0775 75.6602H89.6197C90.3335 75.6602 91.0181 75.3767 91.5229 74.8719C92.0276 74.3672 92.3112 73.6826 92.3112 72.9688C92.3112 72.255 92.0276 71.5704 91.5229 71.0657C91.0181 70.5609 90.3335 70.2774 89.6197 70.2774H68.0775C67.3636 70.2774 66.6791 70.5609 66.1743 71.0657C65.6696 71.5704 65.386 72.255 65.386 72.9688ZM68.0775 86.426H78.8486C79.5624 86.426 80.247 86.1424 80.7517 85.6377C81.2565 85.1329 81.54 84.4484 81.54 83.7346C81.54 83.0207 81.2565 82.3362 80.7517 81.8314C80.247 81.3267 79.5624 81.0431 78.8486 81.0431H68.0828C67.369 81.0431 66.6844 81.3267 66.1797 81.8314C65.675 82.3362 65.3914 83.0207 65.3914 83.7346C65.3914 84.4484 65.675 85.1329 66.1797 85.6377C66.6844 86.1424 67.369 86.426 68.0828 86.426H68.0775ZM80.1889 0.299988C84.8287 0.299988 89.2785 2.14314 92.5593 5.42396C95.8401 8.70479 97.6833 13.1545 97.6833 17.7943V21.8315H0.791504V17.7943C0.791504 13.1545 2.63465 8.70479 5.91548 5.42396C9.19631 2.14314 13.6461 0.299988 18.2859 0.299988H80.1889Z" fill="#232323" fill-opacity="0.03"/>
</svg>
