<svg width="43" height="43" viewBox="0 0 43 43" fill="none" xmlns="http://www.w3.org/2000/svg">
<path d="M38.4092 12.1476V19.5921C36.3534 18.2768 33.9831 17.5356 31.5442 17.4455C31.2648 17.0661 30.889 16.7685 30.4558 16.5834C30.0225 16.3983 29.5476 16.3326 29.0804 16.393C28.6132 16.4535 28.1706 16.6378 27.7987 16.927C27.4268 17.2162 27.1391 17.5997 26.9654 18.0377C24.9888 18.6485 23.1751 19.6965 21.6586 21.1038C20.1422 22.5112 18.962 24.2418 18.2055 26.1674C17.8524 26.3414 17.5426 26.592 17.2988 26.901C17.0549 27.21 16.8831 27.5696 16.796 27.9534C16.7088 28.3373 16.7085 28.7358 16.795 29.1198C16.8815 29.5038 17.0527 29.8636 17.2961 30.173C17.1196 32.5277 17.5545 34.8881 18.5587 37.0253L18.087 38.584H7.21428C5.39132 38.584 3.64303 37.8598 2.35401 36.5708C1.06499 35.2818 0.34082 33.5335 0.34082 31.7105V12.1476H38.4092ZM9.32919 25.8945C8.62805 25.8945 7.95563 26.1731 7.45985 26.6688C6.96408 27.1646 6.68555 27.837 6.68555 28.5382C6.68555 29.2393 6.96408 29.9117 7.45985 30.4075C7.95563 30.9033 8.62805 31.1818 9.32919 31.1818C10.0303 31.1818 10.7027 30.9033 11.1985 30.4075C11.6943 29.9117 11.9728 29.2393 11.9728 28.5382C11.9728 27.837 11.6943 27.1646 11.1985 26.6688C10.7027 26.1731 10.0303 25.8945 9.32919 25.8945ZM9.32919 16.3774C8.62805 16.3774 7.95563 16.656 7.45985 17.1518C6.96408 17.6475 6.68555 18.32 6.68555 19.0211C6.68555 19.7222 6.96408 20.3946 7.45985 20.8904C7.95563 21.3862 8.62805 21.6647 9.32919 21.6647C10.0303 21.6647 10.7027 21.3862 11.1985 20.8904C11.6943 20.3946 11.9728 19.7222 11.9728 19.0211C11.9728 18.32 11.6943 17.6475 11.1985 17.1518C10.7027 16.656 10.0303 16.3774 9.32919 16.3774ZM19.375 16.3774C18.6739 16.3774 18.0015 16.656 17.5057 17.1518C17.0099 17.6475 16.7314 18.32 16.7314 19.0211C16.7314 19.7222 17.0099 20.3946 17.5057 20.8904C18.0015 21.3862 18.6739 21.6647 19.375 21.6647C20.0761 21.6647 20.7486 21.3862 21.2443 20.8904C21.7401 20.3946 22.0186 19.7222 22.0186 19.0211C22.0186 18.32 21.7401 17.6475 21.2443 17.1518C20.7486 16.656 20.0761 16.3774 19.375 16.3774ZM32.001 19.5921C34.3536 19.7898 36.5896 20.7019 38.4092 22.2061C40.6537 24.0497 42.1274 26.6662 42.5407 29.5413C42.9539 32.4164 42.2767 35.342 40.6422 37.7431C39.0077 40.1442 36.5342 41.847 33.7079 42.5169C30.8815 43.1867 27.9069 42.7751 25.3687 41.363L20.7434 42.7715C20.5598 42.8276 20.3644 42.8326 20.1781 42.7861C19.9919 42.7395 19.8218 42.6432 19.6862 42.5073C19.5505 42.3715 19.4544 42.2012 19.4082 42.0149C19.3619 41.8286 19.3673 41.6332 19.4237 41.4497L20.8322 36.8265C19.8088 34.9814 19.3064 32.8927 19.3788 30.784C19.4513 28.6753 20.0958 26.626 21.2434 24.8555C22.391 23.0849 23.9985 21.6598 25.8939 20.7327C27.7892 19.8055 29.901 19.4113 32.0031 19.5921H32.001ZM25.7197 29.0669C25.7197 29.3474 25.8311 29.6163 26.0295 29.8146C26.2278 30.013 26.4967 30.1244 26.7772 30.1244H35.2411C35.5215 30.1244 35.7905 30.013 35.9888 29.8146C36.1871 29.6163 36.2985 29.3474 36.2985 29.0669C36.2985 28.7865 36.1871 28.5175 35.9888 28.3192C35.7905 28.1209 35.5215 28.0095 35.2411 28.0095H26.7772C26.4967 28.0095 26.2278 28.1209 26.0295 28.3192C25.8311 28.5175 25.7197 28.7865 25.7197 29.0669ZM26.7772 34.3542H31.0091C31.2896 34.3542 31.5585 34.2428 31.7569 34.0445C31.9552 33.8462 32.0666 33.5772 32.0666 33.2967C32.0666 33.0163 31.9552 32.7473 31.7569 32.549C31.5585 32.3507 31.2896 32.2393 31.0091 32.2393H26.7793C26.4989 32.2393 26.2299 32.3507 26.0316 32.549C25.8333 32.7473 25.7219 33.0163 25.7219 33.2967C25.7219 33.5772 25.8333 33.8462 26.0316 34.0445C26.2299 34.2428 26.4989 34.3542 26.7793 34.3542H26.7772ZM31.5357 0.515625C33.3587 0.515625 35.107 1.23979 36.396 2.52881C37.685 3.81784 38.4092 5.56613 38.4092 7.38908V8.97526H0.34082V7.38908C0.34082 5.56613 1.06499 3.81784 2.35401 2.52881C3.64303 1.23979 5.39132 0.515625 7.21428 0.515625H31.5357Z" fill="white"/>
</svg>
