<svg width="44" height="40" viewBox="0 0 44 40" fill="none" xmlns="http://www.w3.org/2000/svg">
<path d="M39.9884 24.0093V4.37377H4.6444V24.0093H39.9884ZM39.9884 0.446655C41.03 0.446655 42.0288 0.860404 42.7653 1.59688C43.5018 2.33336 43.9156 3.33224 43.9156 4.37377V27.9365C43.9156 28.978 43.5018 29.9769 42.7653 30.7134C42.0288 31.4498 41.03 31.8636 39.9884 31.8636H26.2435L30.1706 37.7543V39.7178H14.4622V37.7543L18.3893 31.8636H4.6444C3.60286 31.8636 2.60399 31.4498 1.86751 30.7134C1.13103 29.9769 0.717285 28.978 0.717285 27.9365V4.37377C0.717285 2.19422 2.46485 0.446655 4.6444 0.446655H39.9884ZM6.60796 6.33733H28.2071V16.1551H6.60796V6.33733ZM30.1706 6.33733H38.0249V10.2644H30.1706V6.33733ZM38.0249 12.228V22.0458H30.1706V12.228H38.0249ZM6.60796 18.1187H16.4257V22.0458H6.60796V18.1187ZM18.3893 18.1187H28.2071V22.0458H18.3893V18.1187Z" fill="#FAFAFA"/>
</svg>
