<svg width="133" height="139" viewBox="0 0 133 139" fill="none" xmlns="http://www.w3.org/2000/svg">
<g opacity="0.03" clip-path="url(#clip0_839_5774)">
<path d="M112.7 42.3435V35.4435H99.5V14.7435H20.3V111.344H53.3V138.944H74.75H73.1C69.5991 138.944 66.2416 137.49 63.7662 134.902C61.2907 132.314 59.9 128.804 59.9 125.144V56.1435C59.9 52.4835 61.2907 48.9734 63.7662 46.3854C66.2416 43.7974 69.5991 42.3435 73.1 42.3435H112.7ZM74.75 138.944H20.3C16.7991 138.944 13.4416 137.49 10.9662 134.902C8.49069 132.314 7.09998 128.804 7.09998 125.144V14.7435C7.09998 7.15351 13.04 0.943512 20.3 0.943512H99.5C103.001 0.943512 106.358 2.39744 108.834 4.98544C111.309 7.57344 112.7 11.0835 112.7 14.7435V42.3435C116.201 42.3435 119.558 43.7974 122.034 46.3854C124.509 48.9734 125.9 52.4835 125.9 56.1435V125.144C125.9 128.804 124.509 132.314 122.034 134.902C119.558 137.49 116.201 138.944 112.7 138.944H74.75ZM73.1 56.1435V111.344H112.7V56.1435H73.1ZM92.9 132.044C94.6504 132.044 96.3291 131.317 97.5669 130.023C98.8046 128.729 99.5 126.974 99.5 125.144C99.5 123.314 98.8046 121.558 97.5669 120.264C96.3291 118.97 94.6504 118.244 92.9 118.244C91.1495 118.244 89.4708 118.97 88.2331 120.264C86.9953 121.558 86.3 123.314 86.3 125.144C86.3 126.974 86.9953 128.729 88.2331 130.023C89.4708 131.317 91.1495 132.044 92.9 132.044Z" fill="#232323"/>
</g>
<defs>
<clipPath id="clip0_839_5774">
<rect width="132" height="138" fill="white" transform="translate(0.5 0.943512)"/>
</clipPath>
</defs>
</svg>
