<svg width="194" height="46" viewBox="0 0 194 46" fill="none" xmlns="http://www.w3.org/2000/svg">
<path d="M42.3031 24.8469C40.8072 24.5347 39.9227 25.2761 39.5976 26.7459C39.4935 27.2402 39.3894 27.7215 39.2724 28.2158C38.5049 31.3375 36.9441 34.017 34.6418 36.2412C32.3395 38.4785 28.8276 38.1403 26.9155 35.5779C25.3416 33.4707 25.6018 31.7277 27.839 29.3084C30.8307 26.0696 30.7136 21.2699 27.5919 18.3563C24.3921 15.3646 19.4494 15.5727 16.4837 18.8245C13.7132 21.8682 13.8563 26.4988 17.082 29.6205C20.2168 32.6512 17.9665 36.5794 15.209 37.4249C13.2319 38.0232 11.3849 37.724 9.83702 36.1892C7.17054 33.5357 5.57065 30.3489 4.92029 26.6809C4.66015 25.2501 3.74964 24.6258 2.37087 24.8469C1.01812 25.068 0.536855 26.0305 0.627905 27.3183C0.666927 27.8125 0.731965 28.3198 0.84903 28.8011C2.27982 34.5763 5.37554 39.1809 10.4614 42.3546C19.6315 48.3119 32.7688 46.2828 39.0513 37.9582C41.7958 35.0315 43.2006 31.4676 43.929 27.5914C44.1891 26.2647 43.7599 25.1461 42.3031 24.8469Z" fill="url(#paint0_linear_85_33)"/>
<path d="M42.7961 19.0847C42.562 18.9676 42.3798 18.7335 42.3278 18.4604C41.9766 16.6523 41.3913 14.8964 40.5588 13.2445C39.7264 11.5795 38.6598 10.0317 37.4111 8.66591C35.8242 6.93595 33.9512 5.50516 31.844 4.42556C30.8554 3.91828 29.8149 3.48904 28.7613 3.15085C28.293 2.99476 28.0329 2.50049 28.176 2.01922C28.332 1.55096 28.8263 1.29082 29.3076 1.4339C30.4522 1.7981 31.5839 2.26636 32.6635 2.82567C34.9527 4.00933 36.9949 5.55719 38.7248 7.45624C40.0906 8.95207 41.2482 10.63 42.1587 12.438C43.0562 14.233 43.7066 16.1451 44.0838 18.1092C44.1748 18.5904 43.8627 19.0717 43.3684 19.1627C43.1603 19.2148 42.9652 19.1758 42.7961 19.0847Z" fill="url(#paint1_linear_85_33)"/>
<path d="M1.56383 19.8782C1.22564 19.7091 1.03053 19.3319 1.08256 18.9417C1.43375 16.6004 2.17517 14.3371 3.26777 12.2169C4.17828 10.4609 5.30991 8.83504 6.64965 7.39124C8.3536 5.54421 10.3567 4.03538 12.594 2.86473C14.467 1.88918 16.4831 1.18679 18.5513 0.796577C19.0325 0.705526 19.5138 1.0177 19.6048 1.51197C19.6959 1.99324 19.3837 2.47451 18.8894 2.56556C16.9774 2.92976 15.1434 3.58012 13.4134 4.46461C11.3583 5.53121 9.52425 6.92298 7.96338 8.61392C6.7407 9.94066 5.70012 11.4235 4.86766 13.0364C3.86611 14.9875 3.18973 17.0556 2.86455 19.2018C2.78651 19.6961 2.33125 20.0343 1.84999 19.9562C1.74593 19.9562 1.65488 19.9172 1.56383 19.8782Z" fill="url(#paint2_linear_85_33)"/>
<path d="M10.7732 17.1076C10.3309 16.8865 10.1618 16.3402 10.383 15.8979C10.8772 14.9224 11.5016 14.0249 12.204 13.2054C12.8934 12.412 13.6738 11.6836 14.5323 11.0722C15.6379 10.2658 16.8606 9.64145 18.1483 9.1862C19.3059 8.78297 20.5156 8.53584 21.7383 8.45779C22.2325 8.41877 22.6618 8.79598 22.6878 9.29025C22.7268 9.78453 22.3496 10.2138 21.8553 10.2398C20.7887 10.3178 19.7352 10.5259 18.7336 10.8771C17.602 11.2674 16.5484 11.8137 15.5858 12.516C14.8444 13.0493 14.1681 13.6737 13.5697 14.3761C12.9584 15.0915 12.4251 15.8849 11.9828 16.7174C11.7617 17.1596 11.2154 17.3287 10.7732 17.1076Z" fill="url(#paint3_linear_85_33)"/>
<path d="M34.9799 25.2112C34.6417 25.0421 34.4335 24.6518 34.5116 24.2616C34.6677 23.3641 34.7197 22.4536 34.6547 21.5431C34.6026 20.6977 34.4596 19.8392 34.2384 19.0197C34.0303 18.2783 33.7572 17.5629 33.419 16.8865C33.0808 16.1972 32.6646 15.5338 32.2093 14.9355C31.624 14.155 30.9346 13.4526 30.1672 12.8543C28.8274 11.7877 27.2406 10.9943 25.5886 10.578C25.1074 10.461 24.8212 9.96669 24.9383 9.48543C25.0553 9.00416 25.5496 8.718 26.0309 8.83506C27.9299 9.31633 29.764 10.2138 31.2858 11.4495C32.1573 12.1519 32.9507 12.9584 33.6271 13.8559C34.1604 14.5582 34.6287 15.3127 35.0189 16.1061C35.4091 16.8865 35.7213 17.719 35.9554 18.5645C36.2155 19.514 36.3846 20.4765 36.4367 21.4651C36.5017 22.5057 36.4367 23.5592 36.2676 24.5868C36.1895 25.0811 35.7213 25.4063 35.227 25.3152C35.1489 25.2762 35.0579 25.2502 34.9799 25.2112Z" fill="url(#paint4_linear_85_33)"/>
<path d="M30.8313 6.38968C29.2704 5.58323 27.6055 5.01091 25.8885 4.69874C24.3667 4.42558 22.8058 4.34754 21.2579 4.46461C20.1133 4.55566 18.9687 4.76377 17.863 5.07594C16.8745 5.3491 15.912 5.7133 14.9884 6.15554C13.9609 6.64982 12.9723 7.23514 12.0618 7.91152C11.1253 8.61391 10.2408 9.39434 9.46038 10.2658C9.03114 10.7341 8.62792 11.2284 8.26371 11.7487C7.73042 12.4771 7.26216 13.2575 6.84593 14.0639C6.10451 15.4947 5.57122 17.0166 5.23303 18.5905C5.05093 19.4359 4.94687 20.2944 4.89484 21.1659C4.89484 21.2179 4.89484 21.2699 4.88184 21.322C4.90785 21.8032 5.31107 22.1935 5.79234 22.1804C6.27361 22.1674 6.66382 21.7902 6.67683 21.309C6.67683 21.296 6.67683 21.2829 6.67683 21.2699C6.67683 21.2699 6.67683 21.2699 6.67683 21.2569C6.72886 20.4895 6.81991 19.7221 6.976 18.9677C7.27516 17.5629 7.75643 16.1841 8.4198 14.8964C8.79701 14.168 9.22625 13.4656 9.69451 12.8152C10.0327 12.36 10.3969 11.9047 10.7741 11.4885C11.4765 10.7081 12.2699 9.99268 13.1154 9.36833C13.9349 8.75699 14.8194 8.2367 15.7429 7.79445C16.5753 7.40424 17.4468 7.06605 18.3313 6.81891C19.3329 6.53275 20.3604 6.35065 21.388 6.27261C22.7798 6.15554 24.1846 6.23359 25.5503 6.48073C27.0982 6.76688 28.594 7.27417 29.9988 8.00257C30.441 8.22369 30.9743 8.0546 31.2085 7.61235C31.4426 7.17011 31.2735 6.62381 30.8313 6.38968Z" fill="url(#paint5_linear_85_33)"/>
<path d="M40.3132 19.8781C40.1441 18.5904 39.8189 17.3157 39.3767 16.08C38.9604 14.9484 38.4402 13.8558 37.8028 12.8412C37.2305 11.9177 36.5801 11.0462 35.8517 10.2528C35.5135 9.88859 34.9542 9.86258 34.59 10.1878C34.2258 10.5259 34.1998 11.0853 34.525 11.4495C35.1753 12.1649 35.7607 12.9453 36.281 13.7778C36.8533 14.7013 37.3215 15.6768 37.6987 16.6914C38.102 17.797 38.3881 18.9416 38.5442 20.0993C38.6353 20.7496 38.6743 21.413 38.6873 22.0634C38.7003 22.2975 38.8044 22.5186 38.9604 22.6747L38.9735 22.6877C39.0125 22.7267 39.0515 22.7527 39.0905 22.7788C39.1035 22.7918 39.1165 22.7918 39.1295 22.8048C39.1686 22.8308 39.1946 22.8438 39.2336 22.8568C39.2596 22.8698 39.2856 22.8698 39.3246 22.8828C39.3507 22.8958 39.3767 22.8958 39.4027 22.9088C39.4547 22.9218 39.5198 22.9218 39.5848 22.9218C40.0661 22.9218 40.4433 22.5446 40.4693 22.0634C40.4693 22.0373 40.4693 21.9983 40.4693 21.9723C40.4563 21.2959 40.4173 20.5805 40.3132 19.8781Z" fill="url(#paint6_linear_85_33)"/>
<path d="M9.94182 22.8958C10.306 22.7918 10.5792 22.4536 10.5792 22.0504C10.5922 21.1399 10.7092 20.2424 10.9304 19.3579C11.1385 18.5254 11.4376 17.719 11.8019 16.9515C12.14 16.2622 12.5433 15.6118 12.9985 15.0005C13.4668 14.3891 13.9871 13.8168 14.5464 13.2965C15.2748 12.6462 16.0682 12.0738 16.9397 11.6186C18.4485 10.8121 20.1525 10.3309 21.8564 10.2268C22.3507 10.2008 22.7279 9.77155 22.7019 9.27728C22.6759 8.78301 22.2466 8.4058 21.7524 8.43181C19.7883 8.54888 17.8372 9.10819 16.1072 10.0317C15.1187 10.552 14.1952 11.2023 13.3627 11.9568C12.7124 12.5421 12.114 13.2055 11.5807 13.9079C11.0604 14.6102 10.5922 15.3647 10.202 16.1451C9.77272 17.0296 9.43454 17.9531 9.20041 18.9026C8.95327 19.9172 8.81019 20.9578 8.79718 21.9983C8.78417 22.4926 9.1874 22.8958 9.68167 22.9089C9.75972 22.9349 9.85077 22.9219 9.94182 22.8958Z" fill="url(#paint7_linear_85_33)"/>
<path d="M25.8622 24.5738C25.8622 22.5577 24.2233 20.9318 22.2201 20.9318C20.204 20.9318 18.5781 22.5707 18.5781 24.5738C18.5781 26.3428 19.8398 27.8126 21.5178 28.1508V28.4629C21.5178 28.606 21.6348 28.7101 21.7649 28.7101H22.6884C22.8315 28.7101 22.9355 28.593 22.9355 28.4629V28.1508C24.6005 27.8126 25.8622 26.3428 25.8622 24.5738Z" fill="white"/>
<path d="M20.9062 30.479L21.6086 32.0269L21.2574 38.4394L22.298 39.545L23.3256 38.3614L22.8703 32.0139L23.5207 30.479" fill="white"/>
<path d="M22.7009 27.2272H21.8164V36.8266H22.7009V27.2272Z" fill="white"/>
<path d="M20.5684 23.0128C20.6074 22.9738 20.6464 22.9218 20.6464 22.8697C20.6595 22.7657 20.5554 22.6876 20.4513 22.7267C20.3993 22.7397 20.3733 22.7787 20.3343 22.8177C19.6319 23.6762 19.4758 24.6257 19.905 25.6663C19.9701 25.8354 20.0481 25.8874 20.1392 25.8484C20.2432 25.8094 20.2432 25.7183 20.1782 25.5492C19.814 24.6127 19.9441 23.7672 20.5684 23.0128Z" fill="url(#paint8_linear_85_33)"/>
<path d="M21.999 21.9333C21.7258 21.9723 21.4787 22.0373 21.2315 22.1544C21.1795 22.1804 21.1275 22.2064 21.1014 22.2454C21.0624 22.2975 21.0624 22.3495 21.0884 22.4015C21.1145 22.4535 21.1665 22.4665 21.2315 22.4665C21.2575 22.4535 21.2836 22.4535 21.3096 22.4405C21.5437 22.3365 21.7908 22.2584 22.051 22.2324C22.155 22.2194 22.2201 22.1804 22.2201 22.0633C22.2201 21.9723 22.129 21.9202 21.999 21.9333Z" fill="url(#paint9_linear_85_33)"/>
<path d="M62.6588 33.8999C60.1354 33.8999 58.0022 33.2756 56.2462 32.0139C54.5032 30.7652 53.2936 29.2173 52.6172 27.3963L57.4559 25.9005C57.8851 26.9671 58.5745 27.8125 59.537 28.4759C60.4996 29.1393 61.6442 29.4645 62.9839 29.4645C63.9855 29.4645 64.792 29.2694 65.4033 28.8661C66.0146 28.4629 66.3268 27.9816 66.3268 27.4353C66.3268 26.5508 65.5594 25.8615 64.0245 25.3672L58.5095 23.6632C57.0136 23.195 55.817 22.4666 54.9195 21.478C54.022 20.4895 53.5927 19.3318 53.6057 17.9791C53.5927 16.1971 54.3341 14.6883 55.843 13.4526C57.3518 12.2169 59.2509 11.5795 61.5401 11.5795C63.7904 11.5795 65.7935 12.1128 67.5365 13.2054C69.2664 14.298 70.4371 15.6248 71.0224 17.1986L66.3528 18.5774C65.9236 17.81 65.2732 17.1987 64.4278 16.7304C63.5823 16.2491 62.6328 16.015 61.6052 16.015C60.7597 16.015 60.0703 16.1841 59.55 16.5093C59.0298 16.8344 58.7696 17.2507 58.7696 17.758C58.7696 18.4864 59.2509 18.9936 60.2004 19.2798L65.5984 20.9968C67.4714 21.5821 68.9152 22.3105 69.9298 23.195C70.9444 24.0795 71.4517 25.3412 71.4517 27.0061C71.4517 28.9442 70.6452 30.5571 69.0193 31.8578C67.3934 33.1585 65.2732 33.7959 62.6588 33.7959V33.8999Z" fill="#3D3B3B"/>
<path d="M98.3251 19.1108C99.4437 20.2944 100.016 21.9854 100.016 24.1706V33.3667H95.1253V25.2502C95.1253 22.9999 94.3059 21.8553 92.641 21.8553C90.8329 21.8553 89.9224 23.104 89.9094 25.6144V33.3537H85.0187V25.2372C85.0187 22.9869 84.1993 21.8423 82.5343 21.8423C80.7263 21.8423 79.8158 23.091 79.8158 25.6014V33.3407H74.9121V17.771H79.8158V19.2929C80.9345 17.9922 82.3652 17.3418 84.1212 17.3418C86.1764 17.3418 87.6852 18.0312 88.6477 19.423C89.9485 18.0312 91.6654 17.3418 93.7856 17.3418C95.6976 17.3418 97.2065 17.9271 98.3251 19.1108Z" fill="#3D3B3B"/>
<path d="M110.93 33.8089C108.809 33.8089 107.014 33.0154 105.558 31.4546C104.088 29.8807 103.359 27.9296 103.359 25.5883C103.359 23.247 104.088 21.2829 105.558 19.722C107.027 18.1612 108.809 17.3677 110.93 17.3677C112.777 17.3677 114.272 17.9921 115.43 19.2408V17.81H120.334V33.4056H115.43V31.9748C114.246 33.2105 112.751 33.8479 110.943 33.8479H110.93V33.8089ZM111.814 29.4775C112.907 29.4775 113.804 29.1133 114.507 28.3849C115.209 27.6565 115.573 26.7069 115.573 25.5623C115.573 24.4177 115.209 23.4811 114.507 22.7657C113.804 22.0503 112.907 21.6861 111.827 21.6861C110.76 21.6861 109.902 22.0503 109.213 22.7657C108.523 23.4811 108.185 24.4046 108.185 25.5623C108.185 26.7329 108.523 27.6695 109.213 28.3849C109.902 29.1003 110.76 29.4645 111.827 29.4645L111.814 29.4775Z" fill="#3D3B3B"/>
<path d="M129.66 19.8521C130.128 19.0067 130.778 18.3563 131.611 17.9401C132.443 17.5238 133.419 17.3808 134.537 17.5238V22.1154C132.859 21.8292 131.637 22.0764 130.843 22.8308C130.05 23.5982 129.66 24.938 129.66 26.863V33.3796H124.756V17.771H129.66V19.8781V19.8521Z" fill="#3D3B3B"/>
<path d="M148.611 32.8594C147.324 33.3667 146.062 33.6268 144.787 33.6268C142.953 33.6268 141.574 33.1065 140.651 32.053C139.727 31.0124 139.259 29.5686 139.259 27.7346V22.0374H136.84V17.771H139.259V12.8803H144.163V17.784H148.364V22.0504H144.163V27.7476C144.163 28.8402 144.696 29.3735 145.776 29.3735C146.374 29.3735 146.92 29.2434 147.428 28.9702L148.611 32.8594Z" fill="#3D3B3B"/>
<path d="M170.398 11.9568V33.3798H165.312V24.795H156.871V33.3798H151.798V11.9568H156.871V20.1904H165.312V11.9568H170.398Z" fill="url(#paint10_linear_85_33)"/>
<path d="M183.497 26.3428H179.816V33.3798H174.795V11.9568H185.5C187.75 11.9568 189.597 12.6853 191.002 14.1551C192.407 15.6249 193.109 17.2898 193.109 19.1889C193.109 20.5936 192.719 21.8944 191.964 23.078C191.197 24.2617 190.13 25.1462 188.739 25.7055L193.903 33.3798H188.062L183.497 26.3428ZM179.803 21.8814H185.123C186.007 21.8814 186.736 21.6082 187.308 21.0879C187.88 20.5676 188.153 19.9173 188.153 19.1629C188.153 18.4344 187.88 17.8101 187.334 17.2768C186.788 16.7565 186.124 16.4834 185.344 16.4834H179.816L179.803 21.8814Z" fill="url(#paint11_linear_85_33)"/>
<defs>
<linearGradient id="paint0_linear_85_33" x1="25.0199" y1="20.1442" x2="15.2244" y2="46.7442" gradientUnits="userSpaceOnUse">
<stop stop-color="#E12751"/>
<stop offset="1" stop-color="#F58229"/>
</linearGradient>
<linearGradient id="paint1_linear_85_33" x1="28.1387" y1="10.2952" x2="44.0983" y2="10.2952" gradientUnits="userSpaceOnUse">
<stop stop-color="#E12751"/>
<stop offset="1" stop-color="#F58229"/>
</linearGradient>
<linearGradient id="paint2_linear_85_33" x1="1.08214" y1="10.3843" x2="19.6235" y2="10.3843" gradientUnits="userSpaceOnUse">
<stop stop-color="#E12751"/>
<stop offset="1" stop-color="#F58229"/>
</linearGradient>
<linearGradient id="paint3_linear_85_33" x1="10.2894" y1="12.8264" x2="22.7047" y2="12.8264" gradientUnits="userSpaceOnUse">
<stop stop-color="#E12751"/>
<stop offset="1" stop-color="#F58229"/>
</linearGradient>
<linearGradient id="paint4_linear_85_33" x1="24.9155" y1="17.0552" x2="36.4734" y2="17.0552" gradientUnits="userSpaceOnUse">
<stop stop-color="#E12751"/>
<stop offset="1" stop-color="#F58229"/>
</linearGradient>
<linearGradient id="paint5_linear_85_33" x1="4.87892" y1="13.2922" x2="31.3174" y2="13.2922" gradientUnits="userSpaceOnUse">
<stop stop-color="#E12751"/>
<stop offset="1" stop-color="#F58229"/>
</linearGradient>
<linearGradient id="paint6_linear_85_33" x1="34.2988" y1="16.4552" x2="40.4713" y2="16.4552" gradientUnits="userSpaceOnUse">
<stop stop-color="#E12751"/>
<stop offset="1" stop-color="#F58229"/>
</linearGradient>
<linearGradient id="paint7_linear_85_33" x1="21.3355" y1="16.7467" x2="9.97641" y2="14.6142" gradientUnits="userSpaceOnUse">
<stop stop-color="#E12751"/>
<stop offset="1" stop-color="#F58229"/>
</linearGradient>
<linearGradient id="paint8_linear_85_33" x1="20.9513" y1="21.0673" x2="19.2893" y2="27.5553" gradientUnits="userSpaceOnUse">
<stop stop-color="#E12751"/>
<stop offset="1" stop-color="#F58229"/>
</linearGradient>
<linearGradient id="paint9_linear_85_33" x1="23.4926" y1="20.5479" x2="19.2586" y2="24.3485" gradientUnits="userSpaceOnUse">
<stop stop-color="#E12751"/>
<stop offset="1" stop-color="#F58229"/>
</linearGradient>
<linearGradient id="paint10_linear_85_33" x1="169.597" y1="7.65599" x2="156.359" y2="31.017" gradientUnits="userSpaceOnUse">
<stop stop-color="#E12751"/>
<stop offset="1" stop-color="#F58229"/>
</linearGradient>
<linearGradient id="paint11_linear_85_33" x1="193.63" y1="12.4357" x2="176.499" y2="31.3193" gradientUnits="userSpaceOnUse">
<stop stop-color="#E12751"/>
<stop offset="1" stop-color="#F58229"/>
</linearGradient>
</defs>
</svg>
