<svg width="218" height="70" viewBox="0 0 218 70" fill="none" xmlns="http://www.w3.org/2000/svg">
<path d="M48.5884 37.6422C46.933 37.2965 45.9541 38.1175 45.5943 39.745C45.4791 40.2923 45.3639 40.8252 45.2344 41.3726C44.3851 44.8292 42.6577 47.7962 40.1098 50.2591C37.562 52.7364 33.6754 52.3619 31.5593 49.5246C29.8176 47.1913 30.1055 45.2613 32.5814 42.5824C35.8922 38.9961 35.7626 33.6814 32.3079 30.4552C28.7667 27.1425 23.2967 27.373 20.0147 30.9737C16.9486 34.344 17.1069 39.4714 20.6769 42.9281C24.146 46.2839 21.6557 50.6336 18.604 51.5698C16.416 52.2323 14.3719 51.901 12.6589 50.2015C9.70801 47.2633 7.93745 43.7346 7.21771 39.673C6.92982 38.0887 5.92218 37.3974 4.39633 37.6422C2.89927 37.8871 2.36666 38.9529 2.46743 40.3788C2.51061 40.9261 2.58259 41.4878 2.71214 42.0207C4.29557 48.4156 7.72153 53.5142 13.3499 57.0285C23.4982 63.625 38.037 61.3781 44.9897 52.1603C48.027 48.9197 49.5816 44.9733 50.3877 40.6812C50.6756 39.2121 50.2006 37.9735 48.5884 37.6422Z" fill="url(#paint0_linear_22_185)"/>
<path d="M49.1353 31.2618C48.8762 31.1321 48.6747 30.8729 48.6171 30.5704C48.2284 28.5684 47.5807 26.624 46.6594 24.7949C45.7381 22.9513 44.5578 21.2374 43.1759 19.7251C41.4197 17.8095 39.3468 16.2252 37.0149 15.0297C35.9209 14.468 34.7693 13.9927 33.6033 13.6182C33.0851 13.4454 32.7972 12.8981 32.9555 12.3652C33.1283 11.8467 33.6753 11.5586 34.2079 11.7171C35.4746 12.1203 36.727 12.6389 37.9217 13.2582C40.4552 14.5688 42.7152 16.2828 44.6297 18.3856C46.1412 20.0419 47.4223 21.8999 48.43 23.9019C49.4232 25.8895 50.1429 28.0067 50.5604 30.1815C50.6611 30.7144 50.3157 31.2473 49.7687 31.3482C49.5384 31.4058 49.3224 31.3626 49.1353 31.2618Z" fill="url(#paint1_linear_22_185)"/>
<path d="M3.50375 32.1403C3.12949 31.9531 2.91357 31.5354 2.97114 31.1033C3.3598 28.5108 4.18031 26.0047 5.38947 23.657C6.39711 21.7127 7.64946 19.9123 9.13212 18.3136C11.0178 16.2684 13.2346 14.5976 15.7105 13.3014C17.7834 12.2212 20.0146 11.4434 22.3034 11.0113C22.836 10.9105 23.3686 11.2562 23.4693 11.8035C23.5701 12.3364 23.2246 12.8693 22.6776 12.9701C20.5616 13.3734 18.5319 14.0935 16.6174 15.0729C14.343 16.254 12.3134 17.7951 10.586 19.6674C9.23289 21.1365 8.0813 22.7785 7.16003 24.5644C6.05163 26.7248 5.3031 29.0149 4.94323 31.3914C4.85687 31.9387 4.35305 32.3132 3.82044 32.2267C3.70528 32.2267 3.60452 32.1835 3.50375 32.1403Z" fill="url(#paint2_linear_22_185)"/>
<path d="M13.6952 29.0725C13.2058 28.8277 13.0187 28.2227 13.2634 27.733C13.8104 26.6528 14.5014 25.659 15.2787 24.7516C16.0416 23.8731 16.9053 23.0665 17.8553 22.3896C19.0789 21.4966 20.432 20.8053 21.8571 20.3012C23.1382 19.8547 24.477 19.581 25.8301 19.4946C26.3771 19.4514 26.8521 19.8691 26.8809 20.4164C26.9241 20.9637 26.5066 21.439 25.9596 21.4678C24.7793 21.5542 23.6133 21.7847 22.5049 22.1735C21.2525 22.6056 20.0865 23.2105 19.0213 23.9883C18.2008 24.5788 17.4523 25.2702 16.7901 26.0479C16.1136 26.8401 15.5234 27.7186 15.034 28.6404C14.7893 29.1301 14.1847 29.3174 13.6952 29.0725Z" fill="url(#paint3_linear_22_185)"/>
<path d="M40.484 38.0455C40.1098 37.8583 39.8794 37.4262 39.9658 36.9941C40.1386 36.0003 40.1961 34.9921 40.1242 33.9839C40.0666 33.0477 39.9082 32.0971 39.6635 31.1897C39.4332 30.3688 39.1309 29.5766 38.7567 28.8277C38.3824 28.0643 37.9218 27.3298 37.4179 26.6672C36.7702 25.8031 36.0072 25.0253 35.158 24.3628C33.6753 23.1817 31.9191 22.3032 30.091 21.8423C29.5584 21.7126 29.2417 21.1653 29.3712 20.6324C29.5008 20.0995 30.0478 19.7827 30.5804 19.9123C32.6821 20.4452 34.7117 21.439 36.3959 22.8073C37.3604 23.585 38.2384 24.478 38.987 25.4718C39.5772 26.2495 40.0954 27.0849 40.5272 27.9635C40.9591 28.8277 41.3045 29.7494 41.5636 30.6856C41.8515 31.737 42.0387 32.8029 42.0963 33.8975C42.1682 35.0497 42.0962 36.2163 41.9091 37.3542C41.8227 37.9015 41.3045 38.2615 40.7575 38.1607C40.6712 38.1175 40.5704 38.0887 40.484 38.0455Z" fill="url(#paint4_linear_22_185)"/>
<path d="M35.8919 17.2046C34.1646 16.3116 32.322 15.6779 30.4219 15.3322C28.7377 15.0297 27.0104 14.9433 25.2974 15.0729C24.0306 15.1738 22.7639 15.4042 21.5403 15.7499C20.4463 16.0523 19.3811 16.4556 18.3591 16.9453C17.2219 17.4926 16.1279 18.1407 15.1202 18.8897C14.0838 19.6674 13.105 20.5316 12.2413 21.4966C11.7663 22.0151 11.32 22.5624 10.917 23.1385C10.3268 23.9451 9.80856 24.8093 9.34793 25.7022C8.52743 27.2866 7.93724 28.9717 7.56298 30.7144C7.36145 31.6506 7.24629 32.6012 7.18871 33.5662C7.18871 33.6238 7.18871 33.6814 7.17432 33.739C7.20311 34.2719 7.64934 34.704 8.18195 34.6896C8.71456 34.6752 9.1464 34.2575 9.1608 33.7246C9.1608 33.7102 9.1608 33.6958 9.1608 33.6814C9.1608 33.6814 9.1608 33.6814 9.1608 33.667C9.21838 32.8173 9.31914 31.9675 9.49188 31.1321C9.82296 29.5766 10.3556 28.0499 11.0897 26.624C11.5072 25.8175 11.9822 25.0397 12.5004 24.3196C12.8747 23.8155 13.2777 23.3114 13.6952 22.8505C14.4725 21.9863 15.3506 21.1941 16.2862 20.5028C17.1931 19.8259 18.1719 19.2498 19.194 18.7601C20.1152 18.328 21.0797 17.9535 22.0585 17.6799C23.1669 17.363 24.3041 17.1613 25.4413 17.0749C26.9816 16.9453 28.5362 17.0317 30.0477 17.3054C31.7606 17.6222 33.416 18.184 34.9707 18.9905C35.4601 19.2354 36.0503 19.0481 36.3094 18.5584C36.5685 18.0687 36.3814 17.4638 35.8919 17.2046Z" fill="url(#paint5_linear_22_185)"/>
<path d="M46.386 32.1403C46.1989 30.7144 45.839 29.303 45.3496 27.9347C44.889 26.6816 44.3132 25.4718 43.6079 24.3484C42.9745 23.3258 42.2547 22.3608 41.4486 21.4822C41.0744 21.0789 40.4554 21.0501 40.0523 21.4102C39.6493 21.7847 39.6205 22.404 39.9804 22.8073C40.7001 23.5994 41.3479 24.4636 41.9237 25.3854C42.557 26.408 43.0752 27.4882 43.4927 28.6116C43.9389 29.8359 44.2556 31.1033 44.4284 32.3852C44.5291 33.1053 44.5723 33.8399 44.5867 34.56C44.6011 34.8193 44.7163 35.0641 44.889 35.2369L44.9034 35.2513C44.9466 35.2945 44.9898 35.3234 45.0329 35.3522C45.0473 35.3666 45.0617 35.3666 45.0761 35.381C45.1193 35.4098 45.1481 35.4242 45.1913 35.4386C45.2201 35.453 45.2489 35.453 45.292 35.4674C45.3208 35.4818 45.3496 35.4818 45.3784 35.4962C45.436 35.5106 45.508 35.5106 45.5799 35.5106C46.1125 35.5106 46.53 35.0929 46.5588 34.56C46.5588 34.5312 46.5588 34.488 46.5588 34.4592C46.5444 33.7102 46.5012 32.9181 46.386 32.1403Z" fill="url(#paint6_linear_22_185)"/>
<path d="M12.7739 35.4818C13.177 35.3666 13.4793 34.9921 13.4793 34.5456C13.4937 33.5374 13.6232 32.5436 13.8679 31.5642C14.0982 30.6424 14.4293 29.7494 14.8324 28.8997C15.2066 28.1363 15.6529 27.4162 16.1567 26.7393C16.6749 26.0623 17.2507 25.4286 17.8697 24.8525C18.6758 24.1323 19.5539 23.4986 20.5183 22.9945C22.1881 22.1015 24.0738 21.5686 25.9596 21.4534C26.5066 21.4246 26.924 20.9493 26.8952 20.402C26.8664 19.8547 26.3914 19.437 25.8444 19.4658C23.6708 19.5954 21.5116 20.2148 19.5971 21.2374C18.503 21.8135 17.481 22.5336 16.5597 23.369C15.84 24.0171 15.1779 24.7517 14.5877 25.5294C14.0119 26.3072 13.4937 27.1425 13.0618 28.0067C12.5868 28.9861 12.2125 30.0087 11.9534 31.0601C11.6799 32.1835 11.5216 33.3358 11.5072 34.488C11.4928 35.0353 11.939 35.4818 12.486 35.4962C12.5724 35.525 12.6732 35.5106 12.7739 35.4818Z" fill="url(#paint7_linear_22_185)"/>
<path d="M30.3936 37.3397C30.3936 35.1073 28.5799 33.3069 26.3631 33.3069C24.1319 33.3069 22.3325 35.1217 22.3325 37.3397C22.3325 39.2985 23.7288 40.9261 25.5857 41.3005V41.6462C25.5857 41.8046 25.7153 41.9199 25.8592 41.9199H26.8813C27.0396 41.9199 27.1548 41.7902 27.1548 41.6462V41.3005C28.9973 40.9261 30.3936 39.2985 30.3936 37.3397Z" fill="white"/>
<path d="M24.9092 43.8786L25.6865 45.5926L25.2978 52.6932L26.4494 53.9174L27.5866 52.6068L27.0828 45.5782L27.8025 43.8786" fill="white"/>
<path d="M26.8958 40.2779H25.917V50.9072H26.8958V40.2779Z" fill="white"/>
<path d="M24.5352 35.6114C24.5784 35.5682 24.6215 35.5106 24.6215 35.453C24.6359 35.3377 24.5208 35.2513 24.4056 35.2945C24.348 35.3089 24.3192 35.3521 24.2761 35.3954C23.4987 36.3459 23.326 37.3974 23.801 38.5496C23.873 38.7368 23.9594 38.7944 24.0601 38.7512C24.1753 38.708 24.1753 38.6072 24.1033 38.42C23.7003 37.383 23.8442 36.4468 24.5352 35.6114Z" fill="url(#paint8_linear_22_185)"/>
<path d="M26.1185 34.416C25.8162 34.4592 25.5427 34.5312 25.2692 34.6608C25.2116 34.6896 25.1541 34.7184 25.1253 34.7616C25.0821 34.8192 25.0821 34.8769 25.1109 34.9345C25.1397 34.9921 25.1973 35.0065 25.2692 35.0065C25.298 34.9921 25.3268 34.9921 25.3556 34.9777C25.6147 34.8625 25.8882 34.776 26.1761 34.7472C26.2913 34.7328 26.3632 34.6896 26.3632 34.56C26.3632 34.4592 26.2625 34.4016 26.1185 34.416Z" fill="url(#paint9_linear_22_185)"/>
<path d="M71.1162 47.6666C68.3236 47.6666 65.9629 46.9753 64.0196 45.5782C62.0907 44.1955 60.7519 42.4816 60.0034 40.4652L65.3583 38.8088C65.8333 39.9899 66.5962 40.9261 67.6615 41.6606C68.7267 42.3952 69.9934 42.7552 71.4761 42.7552C72.5845 42.7552 73.477 42.5392 74.1535 42.0927C74.8301 41.6462 75.1755 41.1133 75.1755 40.5084C75.1755 39.529 74.3262 38.7656 72.6277 38.2183L66.5243 36.3316C64.8689 35.813 63.5445 35.0065 62.5513 33.9119C61.5581 32.8173 61.083 31.5354 61.0974 30.0375C61.083 28.0643 61.9035 26.3936 63.5733 25.0253C65.2431 23.657 67.3448 22.9513 69.8783 22.9513C72.3686 22.9513 74.5854 23.5418 76.5143 24.7517C78.4288 25.9615 79.7243 27.4306 80.3721 29.1733L75.2043 30.7C74.7293 29.8503 74.0096 29.1733 73.0739 28.6548C72.1382 28.1219 71.0874 27.8627 69.9502 27.8627C69.0146 27.8627 68.2516 28.0499 67.6759 28.41C67.1001 28.77 66.8122 29.2309 66.8122 29.7927C66.8122 30.5992 67.3448 31.1609 68.3956 31.4778L74.3694 33.379C76.4423 34.0271 78.0401 34.8337 79.1629 35.813C80.2857 36.7924 80.8471 38.1895 80.8471 40.0331C80.8471 42.1791 79.9546 43.9651 78.1553 45.4054C76.3559 46.8456 74.0096 47.5514 71.1162 47.5514V47.6666Z" fill="white"/>
<path d="M110.587 31.2906C111.825 32.6012 112.458 34.4736 112.458 36.8933V47.0761H107.046V38.0887C107.046 35.597 106.139 34.3296 104.296 34.3296C102.296 34.3296 101.288 35.7122 101.273 38.492V47.0617H95.861V38.0743C95.861 35.5826 94.9542 34.3152 93.1116 34.3152C91.1107 34.3152 90.1031 35.6978 90.1031 38.4776V47.0473H84.6763V29.8071H90.1031V31.4922C91.3411 30.0519 92.9245 29.3318 94.8678 29.3318C97.1422 29.3318 98.812 30.0951 99.8772 31.6362C101.317 30.0951 103.217 29.3318 105.563 29.3318C107.679 29.3318 109.349 29.9799 110.587 31.2906Z" fill="white"/>
<path d="M124.535 47.5658C122.189 47.5658 120.203 46.6872 118.59 44.9589C116.964 43.2161 116.158 41.0557 116.158 38.4632C116.158 35.8707 116.964 33.6958 118.59 31.9675C120.217 30.2391 122.189 29.3606 124.535 29.3606C126.58 29.3606 128.235 30.0519 129.516 31.4346V29.8503H134.943V47.1193H129.516V45.535C128.206 46.9032 126.551 47.609 124.55 47.609H124.535V47.5658ZM125.514 42.7696C126.724 42.7696 127.717 42.3663 128.494 41.5598C129.271 40.7532 129.674 39.7018 129.674 38.4344C129.674 37.1669 129.271 36.1299 128.494 35.3378C127.717 34.5456 126.723 34.1423 125.529 34.1423C124.348 34.1423 123.398 34.5456 122.635 35.3378C121.872 36.1299 121.498 37.1525 121.498 38.4344C121.498 39.7306 121.872 40.7676 122.635 41.5598C123.398 42.3519 124.348 42.7552 125.529 42.7552L125.514 42.7696Z" fill="white"/>
<path d="M145.264 32.1115C145.782 31.1753 146.502 30.4552 147.423 29.9943C148.344 29.5334 149.424 29.375 150.662 29.5334V34.6176C148.805 34.3008 147.452 34.5744 146.574 35.4098C145.696 36.2595 145.264 37.743 145.264 39.8747V47.0905H139.837V29.8071H145.264V32.1403V32.1115Z" fill="white"/>
<path d="M166.237 46.5144C164.812 47.0761 163.416 47.3641 162.005 47.3641C159.976 47.3641 158.45 46.788 157.428 45.6214C156.406 44.4692 155.887 42.8705 155.887 40.8397V34.5312H153.21V29.8071H155.887V24.3916H161.314V29.8215H165.964V34.5456H161.314V40.8541C161.314 42.0639 161.904 42.6544 163.099 42.6544C163.761 42.6544 164.366 42.5104 164.927 42.2079L166.237 46.5144Z" fill="white"/>
<path d="M190.348 23.369V47.0905H184.72V37.5846H175.378V47.0905H169.764V23.369H175.378V32.486H184.72V23.369H190.348Z" fill="url(#paint10_linear_22_185)"/>
<path d="M204.844 39.2985H200.77V47.0905H195.214V23.369H207.061C209.551 23.369 211.595 24.1755 213.15 25.8031C214.704 27.4306 215.482 29.2741 215.482 31.377C215.482 32.9325 215.05 34.3728 214.215 35.6834C213.366 36.9941 212.185 37.9735 210.645 38.5928L216.36 47.0905H209.897L204.844 39.2985ZM200.756 34.3584H206.643C207.622 34.3584 208.428 34.0559 209.062 33.4798C209.695 32.9037 209.997 32.1835 209.997 31.3482C209.997 30.5416 209.695 29.8503 209.09 29.2597C208.486 28.6836 207.752 28.3812 206.888 28.3812H200.77L200.756 34.3584Z" fill="url(#paint11_linear_22_185)"/>
<defs>
<linearGradient id="paint0_linear_22_185" x1="29.4615" y1="32.435" x2="18.6103" y2="61.8851" gradientUnits="userSpaceOnUse">
<stop stop-color="#E12751"/>
<stop offset="1" stop-color="#F58229"/>
</linearGradient>
<linearGradient id="paint1_linear_22_185" x1="32.9143" y1="21.5291" x2="50.5764" y2="21.5291" gradientUnits="userSpaceOnUse">
<stop stop-color="#E12751"/>
<stop offset="1" stop-color="#F58229"/>
</linearGradient>
<linearGradient id="paint2_linear_22_185" x1="2.97068" y1="21.6278" x2="23.49" y2="21.6278" gradientUnits="userSpaceOnUse">
<stop stop-color="#E12751"/>
<stop offset="1" stop-color="#F58229"/>
</linearGradient>
<linearGradient id="paint3_linear_22_185" x1="13.1599" y1="24.3319" x2="26.8996" y2="24.3319" gradientUnits="userSpaceOnUse">
<stop stop-color="#E12751"/>
<stop offset="1" stop-color="#F58229"/>
</linearGradient>
<linearGradient id="paint4_linear_22_185" x1="29.3461" y1="29.0144" x2="42.1369" y2="29.0144" gradientUnits="userSpaceOnUse">
<stop stop-color="#E12751"/>
<stop offset="1" stop-color="#F58229"/>
</linearGradient>
<linearGradient id="paint5_linear_22_185" x1="7.17109" y1="24.8477" x2="36.4299" y2="24.8477" gradientUnits="userSpaceOnUse">
<stop stop-color="#E12751"/>
<stop offset="1" stop-color="#F58229"/>
</linearGradient>
<linearGradient id="paint6_linear_22_185" x1="39.7301" y1="28.3502" x2="46.561" y2="28.3502" gradientUnits="userSpaceOnUse">
<stop stop-color="#E12751"/>
<stop offset="1" stop-color="#F58229"/>
</linearGradient>
<linearGradient id="paint7_linear_22_185" x1="25.383" y1="28.6728" x2="12.8117" y2="26.3141" gradientUnits="userSpaceOnUse">
<stop stop-color="#E12751"/>
<stop offset="1" stop-color="#F58229"/>
</linearGradient>
<linearGradient id="paint8_linear_22_185" x1="24.9589" y1="33.4571" x2="23.1177" y2="40.6407" gradientUnits="userSpaceOnUse">
<stop stop-color="#E12751"/>
<stop offset="1" stop-color="#F58229"/>
</linearGradient>
<linearGradient id="paint9_linear_22_185" x1="27.7716" y1="32.882" x2="23.0835" y2="37.0878" gradientUnits="userSpaceOnUse">
<stop stop-color="#E12751"/>
<stop offset="1" stop-color="#F58229"/>
</linearGradient>
<linearGradient id="paint10_linear_22_185" x1="189.461" y1="18.6067" x2="174.799" y2="44.4672" gradientUnits="userSpaceOnUse">
<stop stop-color="#E12751"/>
<stop offset="1" stop-color="#F58229"/>
</linearGradient>
<linearGradient id="paint11_linear_22_185" x1="216.059" y1="23.8993" x2="197.088" y2="44.7984" gradientUnits="userSpaceOnUse">
<stop stop-color="#E12751"/>
<stop offset="1" stop-color="#F58229"/>
</linearGradient>
</defs>
</svg>
