<svg width="151" height="52" viewBox="0 0 151 52" fill="none" xmlns="http://www.w3.org/2000/svg">
<path d="M142.852 51.1198H7.58422C3.45593 51.1198 0.118164 47.782 0.118164 43.6537V8.25585C0.118164 4.12756 3.45593 0.789795 7.58422 0.789795H142.852C146.98 0.789795 150.318 4.12756 150.318 8.25585V43.6537C150.318 47.782 146.98 51.1198 142.852 51.1198ZM7.58422 2.54651C4.42213 2.54651 1.87488 5.09376 1.87488 8.25585V43.6537C1.87488 46.8158 4.42213 49.3631 7.58422 49.3631H142.852C146.014 49.3631 148.561 46.8158 148.561 43.6537V8.25585C148.561 5.09376 146.014 2.54651 142.852 2.54651H7.58422Z" fill="white"/>
<path d="M50.0968 15.4579H49.1306C49.1306 15.2823 49.0428 14.9309 48.8671 14.3161H47.4618C47.2861 14.9309 47.1983 15.3701 47.1983 15.4579H46.2321C46.2321 15.3701 46.4956 14.7552 46.9347 13.4377C47.4618 12.208 47.6374 11.5053 47.6374 11.4175H48.7793C48.7793 11.5053 49.0428 12.208 49.482 13.4377C49.8333 14.6674 50.0968 15.3701 50.0968 15.4579ZM48.6036 13.7012C48.2523 12.6472 48.0766 12.0323 48.0766 11.9445H47.9888C47.9888 12.0323 47.8131 12.6472 47.4618 13.7012H48.6036Z" fill="white"/>
<path d="M54.0494 15.4579H53.2589C53.2589 15.3701 52.9954 14.9309 52.3806 14.1404C51.7657 13.262 51.4144 12.735 51.3265 12.3837H51.2387C51.3265 12.8229 51.3265 13.262 51.3265 13.6134C51.3265 14.1404 51.3265 14.7552 51.3265 15.4579H50.536C50.536 14.8431 50.6239 14.1404 50.6239 13.3499C50.6239 12.5593 50.6238 11.9445 50.536 11.4175H51.5022C51.5022 11.5053 51.7657 11.9445 52.2927 12.735C52.8197 13.5255 53.1711 14.1404 53.2589 14.4039H53.3468C53.2589 13.9647 53.2589 13.5255 53.2589 13.1742C53.2589 12.6472 53.2589 12.0323 53.2589 11.4175H54.0494C54.0494 11.9445 54.0494 12.5593 54.0494 13.3499C54.0494 14.1404 54.0494 14.8431 54.0494 15.4579Z" fill="white"/>
<path d="M58.6169 13.2621C58.6169 13.8769 58.4413 14.404 58.0899 14.8431C57.7386 15.2823 57.2116 15.5458 56.5089 15.5458C56.1575 15.5458 55.8062 15.5458 55.2792 15.5458C55.2792 14.931 55.2792 14.2283 55.2792 13.4378C55.2792 12.6472 55.2792 12.0324 55.2792 11.5054H55.8062C55.894 11.5054 56.0697 11.5054 56.2454 11.5054C56.421 11.5054 56.5089 11.5054 56.5967 11.5054C57.3872 11.5054 57.9142 11.681 58.2656 12.0324C58.4413 12.2959 58.6169 12.7351 58.6169 13.2621ZM57.7386 13.4378C57.7386 12.9986 57.6507 12.7351 57.3872 12.4716C57.1237 12.2081 56.7724 12.0324 56.3332 12.0324C56.2454 12.0324 56.1575 12.0324 55.9819 12.0324C55.9819 12.4716 55.9819 12.9107 55.9819 13.3499C55.9819 13.8769 55.9819 14.3161 55.9819 14.8431C56.1575 14.8431 56.2454 14.8431 56.421 14.8431C56.8602 14.8431 57.2116 14.6675 57.3872 14.404C57.6507 14.1404 57.7386 13.7891 57.7386 13.4378Z" fill="white"/>
<path d="M62.7452 15.4581H61.779C61.5155 14.7554 61.3399 14.2284 61.252 14.0527C61.1642 13.8771 60.9007 13.7892 60.6372 13.7892C60.5493 13.7892 60.3737 13.7892 60.2858 13.7892C60.2858 14.3163 60.2858 14.8433 60.2858 15.3703H59.4075C59.4075 14.7554 59.4075 14.0527 59.4075 13.2622C59.4075 12.4717 59.4075 11.8568 59.4075 11.3298H59.9345C60.0223 11.3298 60.1102 11.3298 60.2858 11.3298C60.4615 11.3298 60.6372 11.3298 60.8129 11.3298C61.779 11.3298 62.2182 11.6812 62.2182 12.296C62.2182 12.823 61.9547 13.1744 61.4277 13.3501V13.4379C61.6034 13.5257 61.779 13.7014 61.9547 13.9649C62.3061 14.2284 62.4817 14.7554 62.7452 15.4581ZM61.6034 12.5595C61.6034 12.1204 61.3399 11.9447 60.8129 11.9447C60.6372 11.9447 60.4615 11.9447 60.2858 11.9447C60.2858 12.296 60.2858 12.6474 60.2858 13.1744C60.3737 13.1744 60.4615 13.1744 60.5493 13.1744C61.252 13.2622 61.6034 13.0866 61.6034 12.5595Z" fill="white"/>
<path d="M67.2248 13.35C67.2248 13.9649 67.0492 14.4919 66.61 14.9311C66.2586 15.3702 65.7316 15.5459 65.2046 15.5459C64.6776 15.5459 64.2384 15.3702 63.7992 14.9311C63.4479 14.5797 63.2722 14.0527 63.2722 13.4378C63.2722 12.823 63.4479 12.296 63.8871 11.8568C64.2384 11.4176 64.7654 11.2419 65.2924 11.2419C65.8195 11.2419 66.2586 11.4176 66.6978 11.8568C67.0492 12.296 67.2248 12.7352 67.2248 13.35ZM66.3465 13.4378C66.3465 12.9987 66.2586 12.6473 65.9951 12.3838C65.7316 12.1203 65.4681 11.9446 65.2046 11.9446C64.9411 11.9446 64.6776 12.1203 64.4141 12.3838C64.2384 12.6473 64.0627 12.9987 64.0627 13.4378C64.0627 13.877 64.1506 14.2284 64.4141 14.4919C64.6776 14.7554 64.9411 14.9311 65.2046 14.9311C65.4681 14.9311 65.7316 14.7554 65.9951 14.4919C66.2586 14.2284 66.3465 13.877 66.3465 13.4378Z" fill="white"/>
<path d="M68.9816 15.4579H68.1033C68.1033 14.8431 68.1033 14.1404 68.1033 13.3499C68.1033 12.5593 68.1033 11.9445 68.1033 11.4175H68.9816C68.9816 11.9445 68.9816 12.5593 68.9816 13.3499C68.9816 14.1404 68.9816 14.8431 68.9816 15.4579Z" fill="white"/>
<path d="M73.5491 13.2621C73.5491 13.8769 73.3734 14.404 73.0221 14.8431C72.6707 15.2823 72.1437 15.5458 71.441 15.5458C71.0897 15.5458 70.7383 15.5458 70.2113 15.5458C70.2113 14.931 70.2113 14.2283 70.2113 13.4378C70.2113 12.6472 70.2113 12.0324 70.2113 11.5054H70.7383C70.8261 11.5054 71.0018 11.5054 71.1775 11.5054C71.3532 11.5054 71.441 11.5054 71.5288 11.5054C72.3194 11.5054 72.8464 11.681 73.1977 12.0324C73.3734 12.2959 73.5491 12.7351 73.5491 13.2621ZM72.6707 13.4378C72.6707 12.9986 72.5829 12.7351 72.3194 12.4716C72.0559 12.2081 71.7045 12.0324 71.2653 12.0324C71.1775 12.0324 71.0897 12.0324 70.914 12.0324C70.914 12.4716 70.914 12.9107 70.914 13.3499C70.914 13.8769 70.914 14.3161 70.914 14.8431C71.0897 14.8431 71.1775 14.8431 71.3532 14.8431C71.7924 14.8431 72.1437 14.6675 72.3194 14.404C72.5829 14.1404 72.6707 13.7891 72.6707 13.4378Z" fill="white"/>
<path d="M79.5219 15.4579H78.5557C78.5557 15.2823 78.4679 14.9309 78.2922 14.3161H76.8868C76.7111 14.9309 76.6233 15.3701 76.6233 15.4579H75.6571C75.6571 15.3701 75.9206 14.7552 76.3598 13.4377C76.8868 12.208 77.0625 11.5053 77.0625 11.4175H78.2043C78.2043 11.5053 78.4679 12.208 78.907 13.4377C79.2584 14.6674 79.5219 15.3701 79.5219 15.4579ZM78.0287 13.7012C77.6773 12.6472 77.5017 12.0323 77.5017 11.9445H77.4138C77.4138 12.0323 77.2381 12.6472 76.8868 13.7012H78.0287Z" fill="white"/>
<path d="M83.1232 12.4716C83.1232 12.9986 82.9475 13.3499 82.5962 13.6134C82.2448 13.8769 81.8056 13.9648 81.2786 13.9648C81.1908 13.9648 81.103 13.9648 81.103 13.9648C81.103 14.3161 81.103 14.8431 81.103 15.5458H80.2246C80.2246 14.931 80.2246 14.2283 80.2246 13.4378C80.2246 12.6472 80.2246 12.0324 80.2246 11.5054H80.7516C80.8394 11.5054 81.0151 11.5054 81.1908 11.5054C81.3665 11.5054 81.63 11.5054 81.7178 11.5054C82.0691 11.5054 82.4205 11.5932 82.684 11.7689C83.0353 11.8567 83.1232 12.1202 83.1232 12.4716ZM82.3327 12.6472C82.3327 12.2081 82.0692 11.9446 81.4543 11.9446C81.2786 11.9446 81.1908 11.9446 81.0151 12.0324C81.0151 12.3837 81.0151 12.9107 81.0151 13.3499C81.103 13.3499 81.1029 13.3499 81.1908 13.3499C81.9813 13.3499 82.3327 13.0864 82.3327 12.6472Z" fill="white"/>
<path d="M86.9 12.4716C86.9 12.9986 86.7244 13.3499 86.373 13.6134C86.0217 13.8769 85.5825 13.9648 85.0555 13.9648C84.9677 13.9648 84.8798 13.9648 84.8798 13.9648C84.8798 14.3161 84.8798 14.8431 84.8798 15.5458H84.0015C84.0015 14.931 84.0015 14.2283 84.0015 13.4378C84.0015 12.6472 84.0015 12.0324 84.0015 11.5054H84.5285C84.6163 11.5054 84.792 11.5054 84.9677 11.5054C85.1433 11.5054 85.4069 11.5054 85.4947 11.5054C85.846 11.5054 86.1974 11.5932 86.4609 11.7689C86.7244 11.8567 86.9 12.1202 86.9 12.4716ZM86.1095 12.6472C86.1095 12.2081 85.846 11.9446 85.2312 11.9446C85.0555 11.9446 84.9677 11.9446 84.792 12.0324C84.792 12.3837 84.792 12.9107 84.792 13.3499C84.8798 13.3499 84.8798 13.3499 84.9677 13.3499C85.6704 13.3499 86.1095 13.0864 86.1095 12.6472Z" fill="white"/>
<path d="M92.9608 13.35C92.9608 13.9649 92.7851 14.4919 92.3459 14.9311C91.9946 15.3702 91.4676 15.5459 90.9406 15.5459C90.4135 15.5459 89.9744 15.3702 89.5352 14.9311C89.1838 14.5797 89.0082 14.0527 89.0082 13.4378C89.0082 12.823 89.1838 12.296 89.623 11.8568C89.9744 11.4176 90.5014 11.2419 91.0284 11.2419C91.5554 11.2419 91.9946 11.4176 92.4338 11.8568C92.7851 12.296 92.9608 12.7352 92.9608 13.35ZM92.0824 13.4378C92.0824 12.9987 91.9946 12.6473 91.7311 12.3838C91.4676 12.1203 91.2041 11.9446 90.9406 11.9446C90.677 11.9446 90.4135 12.1203 90.15 12.3838C89.9744 12.6473 89.7987 12.9987 89.7987 13.4378C89.7987 13.877 89.8865 14.2284 90.15 14.4919C90.4135 14.7554 90.677 14.9311 90.9406 14.9311C91.2041 14.9311 91.4676 14.7554 91.7311 14.4919C91.9946 14.2284 92.0824 13.877 92.0824 13.4378Z" fill="white"/>
<path d="M97.1769 15.4579H96.3863C96.3863 15.3701 96.1228 14.9309 95.508 14.1404C94.8931 13.262 94.5418 12.735 94.4539 12.3837H94.5418C94.6296 12.8229 94.6296 13.262 94.6296 13.6134C94.6296 14.1404 94.6296 14.7552 94.6296 15.4579H93.8391C93.8391 14.8431 93.9269 14.1404 93.9269 13.3499C93.9269 12.5593 93.9269 11.9445 93.8391 11.4175H94.8053C94.8053 11.5053 95.0688 11.9445 95.5958 12.735C96.1228 13.5255 96.4742 14.1404 96.562 14.4039H96.6498C96.562 13.9647 96.562 13.5255 96.562 13.1742C96.562 12.6472 96.562 12.0323 96.562 11.4175H97.3525C97.3525 11.9445 97.3525 12.5593 97.3525 13.3499C97.1769 14.1404 97.1769 14.8431 97.1769 15.4579Z" fill="white"/>
<path d="M60.4614 28.4585C60.4614 30.4788 59.8466 32.0598 58.7047 33.2895C57.3872 34.6949 55.5426 35.3976 53.4346 35.3976C51.3265 35.3976 49.5698 34.6949 48.1644 33.2017C46.6712 31.7963 45.9685 29.9517 45.9685 27.8437C45.9685 25.7356 46.6712 23.8911 48.1644 22.4857C49.6576 21.0803 51.4143 20.2898 53.4346 20.2898C54.4886 20.2898 55.4548 20.4655 56.421 20.9046C57.3872 21.3438 58.0899 21.8708 58.7047 22.4857L57.475 23.7154C56.5088 22.5735 55.1913 22.0465 53.5224 22.0465C52.0292 22.0465 50.7117 22.5735 49.5698 23.6276C48.4279 24.6816 47.9009 26.087 47.9009 27.7558C47.9009 29.4247 48.4279 30.8301 49.5698 31.8841C50.7117 32.9382 52.0292 33.4652 53.5224 33.4652C55.1034 33.4652 56.5088 32.9382 57.5628 31.8841C58.2655 31.1815 58.7047 30.2153 58.7926 28.9856H53.5224V27.2288H60.5493C60.3736 27.7558 60.4614 28.1072 60.4614 28.4585Z" fill="white"/>
<path d="M62.6573 26.4383C63.6235 25.4721 64.8532 24.9451 66.2586 24.9451C67.7518 24.9451 68.9815 25.4721 69.8599 26.4383C70.8261 27.4045 71.2652 28.722 71.2652 30.2152C71.2652 31.7084 70.8261 32.9381 69.8599 33.9922C68.8937 34.9584 67.664 35.4854 66.2586 35.4854C64.7654 35.4854 63.5357 34.9584 62.6573 33.9922C61.6911 33.026 61.252 31.7084 61.252 30.2152C61.252 28.6342 61.6911 27.4045 62.6573 26.4383ZM63.9749 32.7625C64.5897 33.3773 65.3802 33.7287 66.2586 33.7287C67.137 33.7287 67.9275 33.3773 68.5423 32.7625C69.1572 32.1476 69.5085 31.2693 69.5085 30.2152C69.5085 29.1612 69.1572 28.2828 68.5423 27.668C67.9275 27.0531 67.137 26.7018 66.2586 26.7018C65.3802 26.7018 64.5897 27.0531 63.9749 27.668C63.36 28.2828 63.0087 29.1612 63.0087 30.2152C63.0965 31.2693 63.36 32.0598 63.9749 32.7625Z" fill="white"/>
<path d="M73.3733 26.4383C74.3395 25.4721 75.5692 24.9451 76.9745 24.9451C78.4678 24.9451 79.6975 25.4721 80.5758 26.4383C81.542 27.4045 81.9812 28.722 81.9812 30.2152C81.9812 31.7084 81.542 32.9381 80.5758 33.9922C79.6096 34.9584 78.3799 35.4854 76.9745 35.4854C75.4813 35.4854 74.2516 34.9584 73.3733 33.9922C72.4949 33.026 71.9679 31.7084 71.9679 30.2152C71.9679 28.6342 72.4949 27.4045 73.3733 26.4383ZM74.7786 32.7625C75.3935 33.3773 76.184 33.7287 77.0624 33.7287C77.9407 33.7287 78.7313 33.3773 79.3461 32.7625C79.961 32.1476 80.3123 31.2693 80.3123 30.2152C80.3123 29.1612 79.961 28.2828 79.3461 27.668C78.7313 27.0531 77.9407 26.7018 77.0624 26.7018C76.184 26.7018 75.3935 27.0531 74.7786 27.668C74.1638 28.2828 73.8124 29.1612 73.8124 30.2152C73.8124 31.2693 74.1638 32.0598 74.7786 32.7625Z" fill="white"/>
<path d="M87.6027 39.7893C86.4609 39.7893 85.4947 39.5258 84.7041 38.911C84.0014 38.2961 83.4744 37.6813 83.1231 36.8908L84.792 36.1881C84.9676 36.7151 85.319 37.1543 85.846 37.5056C86.373 37.857 86.9 38.0326 87.6027 38.0326C88.6568 38.0326 89.4473 37.7691 89.9743 37.1543C90.5891 36.5394 90.8526 35.7489 90.8526 34.6949V33.7287H90.7648C90.4135 34.1678 89.9743 34.607 89.3594 34.9584C88.7446 35.3097 88.1297 35.4854 87.3392 35.4854C86.0217 35.4854 84.9676 34.9584 84.0014 33.9922C83.0353 33.026 82.5961 31.7084 82.5961 30.2152C82.5961 28.722 83.0353 27.4923 84.0014 26.4383C84.9676 25.4721 86.0217 24.9451 87.3392 24.9451C88.0419 24.9451 88.7446 25.1207 89.3594 25.3842C89.9743 25.7356 90.4135 26.0869 90.7648 26.614H90.8526V25.2086H92.6094V34.607C92.6094 36.2759 92.0824 37.5934 91.1162 38.4718C90.2378 39.3502 89.0081 39.7893 87.6027 39.7893ZM87.7784 33.7287C88.6567 33.7287 89.3594 33.3773 89.9743 32.7625C90.5891 32.1476 90.8526 31.2693 90.8526 30.1274C90.8526 29.0734 90.5891 28.195 89.9743 27.4923C89.3594 26.8775 88.6567 26.5261 87.7784 26.5261C86.9 26.5261 86.1973 26.8775 85.5825 27.4923C84.9676 28.1072 84.6163 28.9855 84.6163 30.0396C84.6163 31.0936 84.9676 31.9719 85.5825 32.5868C86.1095 33.3773 86.9 33.7287 87.7784 33.7287Z" fill="white"/>
<path d="M96.2985 35.134H94.454V20.6411H96.2985V35.134Z" fill="white"/>
<path d="M102.359 35.3975C100.866 35.3975 99.6363 34.8705 98.7579 33.9043C97.7917 32.9381 97.3525 31.6205 97.3525 30.1273C97.3525 28.722 97.7917 27.4923 98.6701 26.4382C99.5484 25.3842 100.69 24.8572 102.184 24.8572C103.677 24.8572 104.819 25.2964 105.697 26.2626C106.575 27.2287 107.014 28.4585 107.014 30.1273V30.4787H99.1971C99.2849 31.4449 99.5484 32.2354 100.163 32.8502C100.778 33.4651 101.481 33.7286 102.271 33.7286C103.589 33.7286 104.467 33.2016 104.994 32.0597L106.663 32.7624C106.312 33.5529 105.785 34.1678 105.082 34.6948C104.379 35.134 103.501 35.3975 102.359 35.3975ZM105.082 28.9855C105.082 28.4585 104.819 27.8436 104.292 27.4044C103.852 26.8774 103.15 26.6139 102.184 26.6139C101.481 26.6139 100.866 26.7896 100.427 27.2287C99.8998 27.6679 99.5484 28.1949 99.3728 28.9855H105.082Z" fill="white"/>
<path d="M114.305 35.134H112.46V20.6411H117.379C118.609 20.6411 119.663 21.0803 120.541 21.8708C121.42 22.6613 121.859 23.7154 121.859 24.9451C121.859 26.1748 121.42 27.2288 120.541 28.0193C119.663 28.8099 118.609 29.249 117.379 29.249H114.305V35.134ZM114.305 27.4923H117.379C118.17 27.4923 118.785 27.2288 119.224 26.7018C119.663 26.1748 119.926 25.5599 119.926 24.9451C119.926 24.3302 119.663 23.7154 119.224 23.1884C118.785 22.6613 118.17 22.3978 117.379 22.3978H114.305V27.4923Z" fill="white"/>
<path d="M124.933 35.134H123.088V20.6411H124.933V35.134Z" fill="white"/>
<path d="M129.676 35.3975C128.622 35.3975 127.744 35.134 127.041 34.5192C126.338 33.9043 125.987 33.1138 125.987 32.1476C125.987 31.0936 126.426 30.2152 127.217 29.6004C128.007 28.9855 129.061 28.722 130.291 28.722C131.345 28.722 132.311 28.8977 132.926 29.3369V29.0734C132.926 28.3707 132.663 27.7558 132.223 27.3166C131.696 26.8775 131.082 26.7018 130.379 26.7018C129.852 26.7018 129.325 26.7896 128.886 27.0531C128.446 27.3166 128.183 27.668 128.007 28.1072L126.338 27.4045C126.602 26.7896 127.041 26.2626 127.656 25.7356C128.359 25.2086 129.237 24.9451 130.291 24.9451C131.521 24.9451 132.575 25.2964 133.453 26.0869C134.244 26.7896 134.683 27.8437 134.683 29.249V35.2219H132.926V33.8165H132.838C132.223 34.8705 131.169 35.3975 129.676 35.3975ZM130.028 33.7287C130.818 33.7287 131.521 33.4652 132.136 32.8503C132.75 32.3233 133.102 31.6206 133.102 30.8301C132.575 30.3909 131.784 30.2152 130.73 30.2152C129.852 30.2152 129.149 30.3909 128.71 30.8301C128.271 31.1814 128.007 31.7084 128.007 32.2355C128.007 32.6746 128.183 33.1138 128.622 33.3773C128.973 33.553 129.501 33.7287 130.028 33.7287Z" fill="white"/>
<path d="M138.811 39.4379H136.879L139.162 34.4313L135.122 25.2085H137.142L140.041 32.3232L142.939 25.2085H144.96L138.811 39.4379Z" fill="white"/>
<path d="M11.2733 27.6674C11.2733 23.0999 11.2733 18.4446 11.2733 13.8772C11.2733 13.3501 11.3612 12.8231 11.8003 12.384C11.976 12.2083 12.0638 12.2083 12.2395 12.384C15.3138 15.546 18.4759 18.7081 21.5501 21.8702C23.5703 23.8905 25.5906 25.9985 27.6108 28.0188C27.7865 28.1944 27.7865 28.2823 27.6108 28.5458C22.692 33.4646 17.7732 38.3834 12.8544 43.3022C12.5909 43.5657 12.3274 43.5657 12.0638 43.39C11.5368 42.9509 11.3612 42.4238 11.3612 41.809C11.3612 39.0861 11.3612 36.3632 11.3612 33.6403C11.2733 31.5322 11.2733 29.5998 11.2733 27.6674Z" fill="white"/>
<path d="M13.1178 11.769C13.4691 11.769 13.7326 11.8569 13.9962 12.0326C20.3203 15.546 26.6445 19.0594 32.8809 22.6607C33.1444 22.8364 33.1444 22.9242 32.9687 23.0999C31.5633 24.5053 30.158 25.9106 28.7526 27.316C28.5769 27.4917 28.4891 27.5795 28.3134 27.316C23.3068 22.2215 18.3001 17.127 13.2056 11.9447C13.2056 11.9447 13.2056 11.8569 13.1178 11.769Z" fill="white"/>
<path d="M14.5232 43.0388C19.0907 38.3835 23.6581 33.8161 28.2256 29.1608C28.4891 28.8973 28.6648 28.8973 28.9283 29.1608C30.0702 30.3905 31.2999 31.5323 32.4417 32.762C32.6174 32.9377 32.7052 33.0255 32.3539 33.2012C26.4689 36.4512 20.5839 39.6132 14.6989 42.8632C14.611 42.951 14.5232 43.0388 14.5232 43.0388Z" fill="white"/>
<path d="M40.6105 27.755C40.6105 28.282 40.347 28.6334 39.9956 28.8969C39.7321 29.0726 39.3808 29.2482 39.1173 29.4239C37.3605 30.3901 35.516 31.3563 33.7593 32.4103C33.4958 32.586 33.4079 32.4982 33.1444 32.3225C31.9147 31.005 30.5972 29.6874 29.3675 28.4577C29.1918 28.282 29.1918 28.1942 29.3675 28.0185C30.8607 26.5253 32.3539 25.0321 33.8471 23.6267C34.0228 23.4511 34.1106 23.4511 34.3741 23.5389C36.1308 24.5051 37.8876 25.4713 39.6443 26.5253C40.1713 26.701 40.6105 27.1402 40.6105 27.755Z" fill="white"/>
</svg>
