<svg width="41" height="38" viewBox="0 0 41 38" fill="none" xmlns="http://www.w3.org/2000/svg">
<path d="M11.8857 0.627686C8.21387 1.94019 5.26074 4.40112 3.16699 7.90894C2.00293 9.85425 1.24512 11.9324 0.737305 14.5574C0.573242 15.4246 0.56543 15.5496 0.541992 25.6355L0.510742 35.8386L0.682617 36.2839C0.901367 36.8699 1.45605 37.4324 2.04199 37.6511C2.47168 37.8152 2.57324 37.8152 9.26855 37.8152C15.9639 37.8152 16.0654 37.8152 16.4951 37.6511C17.0732 37.4324 17.6357 36.8699 17.8545 36.2917C18.0186 35.8621 18.0186 35.7605 18.0186 29.0652C18.0186 22.3699 18.0186 22.2683 17.8545 21.8386C17.6357 21.2605 17.0732 20.698 16.4951 20.4792C16.0654 20.3152 15.9404 20.3152 10.7764 20.3152H5.49512L5.54199 18.4167C5.57324 17.3777 5.65137 16.1824 5.71387 15.7683C6.38574 11.3074 8.85449 7.77612 12.417 6.16675L13.0186 5.90112V3.10425C13.0186 0.494873 13.0107 0.315186 12.8857 0.322998C12.8076 0.322998 12.3623 0.463623 11.8857 0.627686Z" fill="#3E45EB"/>
<path d="M34.3857 0.627686C30.7139 1.94019 27.7607 4.40112 25.667 7.90894C24.5029 9.85425 23.7451 11.9324 23.2373 14.5574C23.0732 15.4246 23.0654 15.5496 23.042 25.6355L23.0107 35.8386L23.1826 36.2839C23.4014 36.8699 23.9561 37.4324 24.542 37.6511C24.9717 37.8152 25.0732 37.8152 31.7686 37.8152C38.4639 37.8152 38.5654 37.8152 38.9951 37.6511C39.5732 37.4324 40.1357 36.8699 40.3545 36.2917C40.5186 35.8621 40.5186 35.7605 40.5186 29.0652C40.5186 22.3699 40.5186 22.2683 40.3545 21.8386C40.1357 21.2605 39.5732 20.698 38.9951 20.4792C38.5654 20.3152 38.4404 20.3152 33.2764 20.3152H27.9951L28.042 18.4167C28.0732 17.3777 28.1514 16.1824 28.2139 15.7683C28.8857 11.3074 31.3545 7.77612 34.917 6.16675L35.5186 5.90112V3.10425C35.5186 0.494873 35.5107 0.315186 35.3857 0.322998C35.3076 0.322998 34.8623 0.463623 34.3857 0.627686Z" fill="#3E45EB"/>
</svg>
