<svg width="71" height="70" viewBox="0 0 71 70" fill="none" xmlns="http://www.w3.org/2000/svg">
<path d="M20.9015 20.4855V49.4923M20.9015 2.3562H6.39807C5.43644 2.3562 4.51418 2.73821 3.83421 3.41819C3.15423 4.09817 2.77222 5.02042 2.77222 5.98206V20.4855L20.9015 2.3562ZM20.9015 67.6216H6.39807C5.43644 67.6216 4.51418 67.2396 3.83421 66.5596C3.15423 65.8796 2.77222 64.9574 2.77222 63.9957V49.4923L20.9015 67.6216ZM49.9083 67.6216H64.4118C65.3734 67.6216 66.2956 67.2396 66.9756 66.5596C67.6556 65.8796 68.0376 64.9574 68.0376 63.9957V49.4923L49.9083 67.6216ZM49.9083 2.3562H64.4118C65.3734 2.3562 66.2956 2.73821 66.9756 3.41819C67.6556 4.09817 68.0376 5.02042 68.0376 5.98206V20.4855L49.9083 2.3562ZM35.4049 20.4855V49.4923V20.4855ZM49.9083 20.4855V49.4923V20.4855Z" stroke="white" stroke-width="4" stroke-linecap="round" stroke-linejoin="round"/>
</svg>
