<svg width="78" height="83" viewBox="0 0 78 83" fill="none" xmlns="http://www.w3.org/2000/svg">
<path d="M35.1565 4.72621C36.3318 4.08261 37.6539 3.74487 38.9983 3.74487C40.3426 3.74487 41.6647 4.08261 42.84 4.72621L72.5728 21.0111C73.1892 21.3491 73.7028 21.8435 74.0603 22.4431C74.4179 23.0426 74.6064 23.7255 74.6064 24.421V56.5499C74.6061 57.9414 74.2284 59.3074 73.5126 60.5066C72.7968 61.7057 71.7688 62.6942 70.5352 63.3698L42.84 78.5466C41.6647 79.1902 40.3426 79.528 38.9983 79.528C37.6539 79.528 36.3318 79.1902 35.1565 78.5466L7.46133 63.3698C6.22832 62.6945 5.20074 61.7066 4.48495 60.5082C3.76916 59.3099 3.39118 57.9446 3.39014 56.5538V24.421C3.39011 23.7255 3.57863 23.0426 3.93619 22.4431C4.29374 21.8435 4.80733 21.3491 5.42376 21.0111L35.1605 4.72621H35.1565Z" stroke="#FFFEFE" stroke-width="6" stroke-linecap="round" stroke-linejoin="round"/>
<path d="M21.1941 12.3732L56.8022 31.8807V45.536" stroke="#FFFEFE" stroke-width="6" stroke-linecap="round" stroke-linejoin="round"/>
<path d="M15.2595 42.9142L27.1289 49.4375" stroke="#FFFEFE" stroke-width="6" stroke-linecap="round" stroke-linejoin="round"/>
<path d="M38.9983 41.6345V78.6988M3.39014 22.127L38.9983 41.6345L3.39014 22.127ZM38.9983 41.6345L74.6064 22.127L38.9983 41.6345Z" stroke="#FFFEFE" stroke-width="6" stroke-linejoin="round"/>
</svg>
