<svg width="68" height="90" viewBox="0 0 68 90" fill="none" xmlns="http://www.w3.org/2000/svg">
<path d="M17.9827 6.3783C18.5543 4.76173 19.6131 3.36221 21.0134 2.37263C22.4137 1.38305 24.0864 0.85213 25.801 0.853028H42.3768C44.0915 0.85213 45.7642 1.38305 47.1644 2.37263C48.5647 3.36221 49.6235 4.76173 50.1951 6.3783H58.9527C61.1507 6.3783 63.2588 7.25149 64.8131 8.80578C66.3674 10.3601 67.2406 12.4681 67.2406 14.6662V80.9695C67.2406 83.1676 66.3674 85.2757 64.8131 86.83C63.2588 88.3843 61.1507 89.2574 58.9527 89.2574H9.22517C7.02708 89.2574 4.91901 88.3843 3.36473 86.83C1.81044 85.2757 0.937256 83.1676 0.937256 80.9695V14.6662C0.937256 12.4681 1.81044 10.3601 3.36473 8.80578C4.91901 7.25149 7.02708 6.3783 9.22517 6.3783H17.9827ZM25.801 6.3783C25.0683 6.3783 24.3656 6.66937 23.8475 7.18746C23.3294 7.70556 23.0384 8.40825 23.0384 9.14094C23.0384 9.87364 23.3294 10.5763 23.8475 11.0944C24.3656 11.6125 25.0683 11.9036 25.801 11.9036H42.3768C43.1095 11.9036 43.8122 11.6125 44.3303 11.0944C44.8484 10.5763 45.1395 9.87364 45.1395 9.14094C45.1395 8.40825 44.8484 7.70556 44.3303 7.18746C43.8122 6.66937 43.1095 6.3783 42.3768 6.3783H25.801ZM55.3833 29.2861C54.8653 28.7682 54.1627 28.4772 53.4301 28.4772C52.6976 28.4772 51.995 28.7682 51.477 29.2861L43.6697 37.0878L41.4762 35.0876C40.9312 34.6218 40.2264 34.3861 39.5108 34.4303C38.7952 34.4745 38.1248 34.7953 37.6413 35.3247C37.1578 35.8541 36.8991 36.5507 36.9197 37.2674C36.9404 37.9841 37.2389 38.6646 37.7522 39.1653L41.8961 42.9501C42.4212 43.4282 43.1102 43.6857 43.82 43.6692C44.5299 43.6527 45.2062 43.3636 45.7086 42.8617L55.3778 33.1925C55.8957 32.6744 56.1867 31.9718 56.1867 31.2393C56.1867 30.5067 55.8957 29.8042 55.3778 29.2861H55.3833ZM55.3833 60.8244C55.9021 60.3064 56.1938 59.6035 56.1943 58.8704C56.1948 58.1373 55.9041 57.434 55.3861 56.9152C54.8681 56.3965 54.1652 56.1048 53.4321 56.1043C52.699 56.1037 51.9957 56.3945 51.477 56.9125L43.6697 64.7142L41.4762 62.714C40.9312 62.2482 40.2264 62.0125 39.5108 62.0567C38.7952 62.1009 38.1248 62.4216 37.6413 62.951C37.1578 63.4805 36.8991 64.1771 36.9197 64.8938C36.9404 65.6105 37.2389 66.291 37.7522 66.7917L41.8961 70.5765C42.4205 71.0553 43.1091 71.3137 43.8189 71.2983C44.5288 71.2829 45.2055 70.9947 45.7086 70.4936L55.3778 60.8244H55.3833ZM14.7504 34.0047C14.0177 34.0047 13.3151 34.2957 12.797 34.8138C12.2789 35.3319 11.9878 36.0346 11.9878 36.7673C11.9878 37.5 12.2789 38.2027 12.797 38.7208C13.3151 39.2389 14.0177 39.53 14.7504 39.53H28.5636C29.2963 39.53 29.999 39.2389 30.5171 38.7208C31.0352 38.2027 31.3263 37.5 31.3263 36.7673C31.3263 36.0346 31.0352 35.3319 30.5171 34.8138C29.999 34.2957 29.2963 34.0047 28.5636 34.0047H14.7504ZM11.9878 64.3937C11.9878 65.1264 12.2789 65.8291 12.797 66.3472C13.3151 66.8653 14.0177 67.1563 14.7504 67.1563H28.5636C29.2963 67.1563 29.999 66.8653 30.5171 66.3472C31.0352 65.8291 31.3263 65.1264 31.3263 64.3937C31.3263 63.661 31.0352 62.9583 30.5171 62.4402C29.999 61.9221 29.2963 61.6311 28.5636 61.6311H14.7504C14.0177 61.6311 13.3151 61.9221 12.797 62.4402C12.2789 62.9583 11.9878 63.661 11.9878 64.3937Z" fill="white"/>
</svg>
