<svg width="85" height="81" viewBox="0 0 85 81" fill="none" xmlns="http://www.w3.org/2000/svg">
<path d="M42.4837 34.8864C49.3072 34.8864 54.8387 29.4246 54.8387 22.6871C54.8387 15.9496 49.3072 10.4878 42.4837 10.4878C35.6602 10.4878 30.1287 15.9496 30.1287 22.6871C30.1287 29.4246 35.6602 34.8864 42.4837 34.8864Z" fill="white"/>
<path d="M23.7434 23.9071H24.9893V22.791C24.9969 19.5455 25.9125 16.3668 27.6326 13.6146C29.3528 10.8624 31.8088 8.64648 34.7228 7.21749C33.8601 5.23072 32.4754 3.5147 30.7158 2.25169C28.9562 0.988684 26.8873 0.225846 24.729 0.0442009C22.5706 -0.137445 20.4034 0.268885 18.4574 1.22003C16.5115 2.17118 14.8594 3.63163 13.6768 5.44627C12.4942 7.2609 11.8252 9.36197 11.7408 11.5263C11.6564 13.6906 12.1598 15.8374 13.1975 17.7386C14.2352 19.6399 15.7684 21.2245 17.6344 22.3243C19.5004 23.4241 21.6294 23.998 23.7953 23.985L23.7434 23.9071Z" fill="white"/>
<path d="M60.0299 22.6872V23.8033H61.2758C63.4129 23.7819 65.5047 23.1847 67.331 22.0747C69.1573 20.9646 70.6506 19.3827 71.6537 17.4955C72.6567 15.6084 73.1325 13.4857 73.0309 11.3509C72.9293 9.21609 72.254 7.14818 71.0762 5.36481C69.8984 3.58144 68.2616 2.14857 66.3381 1.21702C64.4146 0.285468 62.2756 -0.110311 60.1461 0.0713438C58.0166 0.252998 55.9755 1.00537 54.2376 2.24926C52.4997 3.49315 51.1292 5.18255 50.2705 7.13965C53.1854 8.56306 55.6441 10.7734 57.3687 13.5208C59.0934 16.2683 60.0152 19.4434 60.0299 22.6872Z" fill="white"/>
<path d="M53.6187 36.1064C58.7794 37.1279 63.7693 38.8757 68.4395 41.2976C69.0975 41.659 69.6933 42.1235 70.2045 42.6733H84.013V33.7963C84.0155 33.4559 83.925 33.1212 83.7512 32.8284C83.5773 32.5357 83.3268 32.2959 83.0267 32.1352C76.2993 28.6164 68.8158 26.79 61.2237 26.8142H59.5106C58.6111 30.4707 56.5423 33.7334 53.6187 36.1064Z" fill="white"/>
<path d="M12.7122 47.7088C12.7074 46.4016 13.0605 45.118 13.733 43.9971C14.4056 42.8761 15.372 41.9606 16.5277 41.3496C21.1979 38.9277 26.1878 37.1799 31.3485 36.1584C28.4391 33.8056 26.3715 30.5723 25.4565 26.9441H23.7434C16.1514 26.9199 8.66786 28.7463 1.94048 32.265C1.64035 32.4258 1.38984 32.6655 1.21601 32.9583C1.04218 33.2511 0.951635 33.5858 0.954153 33.9262V50.5121H12.7122V47.7088Z" fill="white"/>
<path d="M51.4644 62.6853H66.9341V66.3191H51.4644V62.6853Z" fill="white"/>
<path d="M80.9243 48.5912H63.0926V45.9956C63.0926 45.3072 62.8192 44.647 62.3324 44.1603C61.8456 43.6735 61.1854 43.4 60.497 43.4C59.8086 43.4 59.1484 43.6735 58.6617 44.1603C58.1749 44.647 57.9014 45.3072 57.9014 45.9956V48.5912H52.866V41.2457C49.451 40.5286 45.973 40.1547 42.4836 40.1296C34.2913 40.0955 26.2161 42.0742 18.9676 45.8918C18.6447 46.0593 18.3744 46.3128 18.1866 46.6243C17.9988 46.9357 17.9008 47.2931 17.9034 47.6568V62.2181H36.358V78.0252C36.358 78.7136 36.6315 79.3738 37.1183 79.8606C37.605 80.3474 38.2652 80.6208 38.9536 80.6208H80.9243C81.6127 80.6208 82.2729 80.3474 82.7597 79.8606C83.2465 79.3738 83.5199 78.7136 83.5199 78.0252V51.1868C83.5199 50.4984 83.2465 49.8382 82.7597 49.3514C82.2729 48.8647 81.6127 48.5912 80.9243 48.5912ZM78.3287 75.4815H41.5492V53.7824H57.9014V56.1444C57.9014 56.8328 58.1749 57.493 58.6617 57.9797C59.1484 58.4665 59.8086 58.74 60.497 58.74C61.1854 58.74 61.8456 58.4665 62.3324 57.9797C62.8192 57.493 63.0926 56.8328 63.0926 56.1444V53.7824H78.3287V75.4815Z" fill="white"/>
</svg>
