<svg width="24" height="25" viewBox="0 0 24 25" fill="none" xmlns="http://www.w3.org/2000/svg">
<path d="M10.5572 0.0513373C8.45044 0.285941 6.22639 1.21497 4.50909 2.56629C4.0305 2.94166 3.02639 3.93638 2.62757 4.43374C1.52962 5.78975 0.717889 7.42729 0.304985 9.10706C0.0375367 10.1956 0 10.5569 0 11.9833C0 13.3628 0.0281525 13.6584 0.243988 14.6343C0.553666 16.0607 1.14956 17.459 1.95191 18.6554C2.46804 19.4249 2.74487 19.7581 3.51437 20.5276C4.95015 21.9587 6.47038 22.8877 8.37537 23.493C9.51554 23.8543 10.637 24.0185 11.9883 24.0185C13.9683 24.0185 15.6716 23.6244 17.356 22.7798C18.6323 22.137 19.6082 21.4191 20.6217 20.3774C22.4657 18.4771 23.6059 16.1076 23.9296 13.5082C24.0235 12.7434 24.0235 11.2701 23.9296 10.5053C23.6528 8.27656 22.7238 6.11351 21.3021 4.38213C20.8094 3.78154 19.8287 2.83374 19.2563 2.40207C17.5718 1.13521 15.5683 0.323478 13.4897 0.0654135C12.8469 -0.0143519 11.1953 -0.023736 10.5572 0.0513373ZM12.9501 2.20031C16.8258 2.63667 20.1337 5.31585 21.3443 9.00852C21.6962 10.0783 21.8416 10.9886 21.8416 12.1334V12.8044H17.9238H14.0059L13.8839 13.0484C13.7009 13.4097 13.3208 13.7616 12.8938 13.9681C12.5372 14.137 12.5138 14.1417 11.9883 14.1417C11.4628 14.1417 11.4393 14.137 11.0827 13.9681C10.5994 13.7334 10.2616 13.3956 10.027 12.9123C9.85806 12.5557 9.85337 12.5323 9.85337 12.0068C9.85337 11.4812 9.85806 11.4578 10.027 11.1012C10.2334 10.6742 10.5853 10.2942 10.9466 10.1112L11.1906 9.98917V6.07128V2.15339H11.8616C12.2276 2.15339 12.7202 2.17685 12.9501 2.20031ZM5.90264 4.95926L6.35777 5.41439L5.87449 5.89767L5.39589 6.37626L4.92669 5.90706L4.45748 5.43785L4.92669 4.96864C5.18475 4.71058 5.40528 4.49943 5.41936 4.49943C5.43343 4.49943 5.64927 4.70588 5.90264 4.95926ZM3.35484 12.0068V12.7106H2.67449H1.99413V12.0068V11.303H2.67449H3.35484V12.0068ZM5.88856 19.0683L5.41936 19.5376L4.94076 19.059L4.45748 18.5757L4.92669 18.1065L5.39589 17.6373L5.87449 18.1159L6.35777 18.5991L5.88856 19.0683ZM19.0405 19.0543L18.5572 19.5376L18.088 19.0683L17.6188 18.5991L18.0974 18.1205L18.5806 17.6373L19.0499 18.1065L19.5191 18.5757L19.0405 19.0543ZM12.6921 21.3205V22.0009H11.9883H11.2845V21.3205V20.6402H11.9883H12.6921V21.3205Z" fill="white"/>
<path d="M12.5513 6.70003V9.88595L12.9032 10.0549C13.3724 10.2754 13.7196 10.6226 13.9402 11.0918L14.1091 11.4437H17.295H20.4809L20.4528 11.242C20.3026 10.1581 20.1056 9.42144 19.763 8.63786C18.9091 6.69534 17.2997 5.08595 15.3572 4.232C14.5736 3.88947 13.8369 3.69241 12.7531 3.54226L12.5513 3.51411V6.70003Z" fill="white"/>
<path d="M11.5613 11.3171C11.3032 11.4907 11.1906 11.6971 11.1906 12.0068C11.1906 12.4854 11.5097 12.8044 11.9883 12.8044C12.4669 12.8044 12.7859 12.4854 12.7859 12.0068C12.7859 11.6971 12.6733 11.4907 12.4152 11.3171C12.2933 11.2373 12.19 11.2091 11.9883 11.2091C11.7865 11.2091 11.6833 11.2373 11.5613 11.3171Z" fill="white"/>
</svg>
