<svg width="110" height="109" viewBox="0 0 110 109" fill="none" xmlns="http://www.w3.org/2000/svg">
<path d="M77.6112 25.1951C76.9434 25.4345 76.2756 25.9889 75.8472 26.6819C75.57 27.1355 75.4692 27.4757 75.4188 28.1435C75.3936 28.6223 75.4188 29.1767 75.4944 29.3783C75.6204 29.7689 75.5196 29.8571 68.2745 35.5524L67.7579 35.9682L67.2035 35.6784C66.4475 35.3004 65.1119 35.3004 64.3054 35.6658C63.1084 36.2202 62.4154 37.266 62.3146 38.6772L62.2642 39.5592L58.7236 41.4366C55.813 42.9865 55.1577 43.2889 54.9939 43.1629C54.8805 43.0873 54.4899 42.8731 54.1119 42.6841C51.7305 41.5374 48.9837 43.4275 49.2231 46.0609C49.3869 47.9257 50.8233 49.2109 52.7007 49.1857C54.6033 49.1605 56.0146 47.7745 56.0398 45.9097L56.0524 45.0655L59.6056 43.1755L63.1714 41.2728L63.877 41.7013C64.6583 42.1801 65.4143 42.3439 66.2711 42.2179C68.0099 41.9785 69.3959 40.1892 69.1691 38.4756C69.1187 38.1354 69.0557 37.7826 69.0179 37.6818C68.9801 37.5684 70.3031 36.4344 72.8735 34.3932L76.7922 31.2935L77.3844 31.5707C78.2538 31.9991 79.4004 31.9739 80.3454 31.5203C81.5928 30.9029 82.2354 29.8697 82.2354 28.4711C82.248 27.4253 82.0338 26.8835 81.3534 26.1401C80.4462 25.1195 78.909 24.7289 77.6112 25.1951Z" fill="white"/>
<path d="M42.1292 31.9487C38.0594 32.4528 34.4305 33.927 31.3561 36.321C24.3756 41.7642 21.4524 50.6221 23.796 59.2154C25.6356 66.0069 31.0033 71.614 37.757 73.819C40.2266 74.638 41.6 74.8396 44.5862 74.827C46.9677 74.827 47.3961 74.7892 48.8199 74.4868C50.7855 74.071 52.2471 73.567 54.0363 72.6976C55.2585 72.1054 57.0226 71.0092 58.0432 70.2154L58.3834 69.9382L60.3364 71.8786L62.2768 73.819L61.9114 74.2222C61.483 74.7136 61.3318 75.4822 61.5334 76.1248C61.6594 76.4902 62.6926 77.6116 66.1199 81.0515C68.5517 83.5085 70.7567 85.6127 71.0087 85.7513C71.5631 86.0285 72.2183 86.0537 72.7853 85.8143C73.3019 85.5875 76.8552 82.0091 77.0316 81.5429C77.2206 81.0011 77.1828 80.3585 76.9182 79.8419C76.7796 79.5899 74.6754 77.3848 72.2183 74.9404C68.2997 71.047 67.7075 70.4926 67.2287 70.3666C66.5357 70.1902 65.9939 70.291 65.4269 70.7446L64.9732 71.0974L63.0454 69.1695C61.672 67.7961 61.1554 67.1913 61.231 67.0779C61.2814 66.9771 61.5712 66.5865 61.861 66.2085C62.5162 65.3517 63.6754 63.4365 63.6754 63.2097C63.6754 63.0963 62.9698 63.0585 60.5632 63.0585H57.4384L57.1486 63.4995C56.6698 64.1925 54.7293 65.9817 53.7213 66.6747C51.8313 67.9473 49.8531 68.7789 47.6355 69.2451C45.8462 69.6232 43.2002 69.6232 41.411 69.2451C35.1865 67.9473 30.4363 63.4239 28.8361 57.2624C28.3825 55.5236 28.2565 52.5248 28.5715 50.7607C29.1385 47.4469 30.6883 44.4103 32.9689 42.0919C35.2621 39.7734 37.6814 38.4126 40.9952 37.5684C41.9276 37.329 42.4064 37.2912 44.5862 37.3038C46.8921 37.3038 47.2071 37.329 48.3285 37.644C50.7225 38.2866 52.8015 39.282 54.4395 40.5924C54.9057 40.9578 55.3593 41.2602 55.4475 41.2602C55.6617 41.2602 59.8828 39.03 60.1474 38.7906C60.3112 38.6394 60.2104 38.5008 59.4544 37.7952C56.254 34.7964 52.4361 32.8812 48.1773 32.1377C46.7535 31.8857 43.4522 31.7723 42.1292 31.9487Z" fill="white"/>
<path d="M76.137 35.3508C75.885 35.502 75.5574 35.8422 75.4062 36.0942C75.1416 36.573 75.1416 36.6108 75.1416 47.9887V59.4044H72.3065H69.4841L69.4463 52.8775L69.4085 46.3381L69.0431 45.8719C68.4509 45.0907 68.1233 45.0151 65.5655 45.0655C63.0706 45.1033 62.932 45.1537 62.3272 46.0483L62.0374 46.4641V52.9279V59.4044H59.2024H56.3674V56.2796C56.3674 53.2933 56.3548 53.1421 56.0776 52.6633C55.9011 52.3357 55.6113 52.0585 55.2333 51.8695C54.7293 51.6175 54.5025 51.5923 52.6503 51.5923C50.3571 51.5923 49.8405 51.7435 49.2987 52.4869C48.9963 52.9027 48.9963 52.9657 48.9585 56.1536L48.9207 59.4044H46.6653C45.2036 59.4044 44.2964 59.4548 44.0822 59.5556C43.5782 59.7824 43.4522 60.614 43.8554 61.0676C44.0444 61.2818 45.2288 61.2944 65.2631 61.2944H86.4691L86.7337 61.0172C87.0739 60.6392 87.0613 60.0974 86.6707 59.7194C86.3809 59.417 86.3179 59.4044 84.4657 59.4044H82.5756V48.0895V36.7746L82.2984 36.2202C81.7692 35.1996 81.6306 35.1492 78.9468 35.1114C76.7292 35.0862 76.5654 35.0988 76.137 35.3508Z" fill="white"/>
</svg>
