<svg width="24" height="24" viewBox="0 0 24 24" fill="none" xmlns="http://www.w3.org/2000/svg">
<path d="M17.2511 0.0586793C16.8051 0.227677 16.3638 0.711198 16.2324 1.18533C16.162 1.44821 16.1761 1.99276 16.2606 2.23218C16.4202 2.67814 16.8427 3.11002 17.2417 3.23677L17.4154 3.28841V5.00186V6.71531L17.3027 6.90777C17.2417 7.01575 17.1055 7.14719 17.0023 7.20821C16.8192 7.31149 16.8004 7.31149 14.8147 7.31149H12.8149V7.16597V7.01575L12.4534 7.04391C11.7258 7.10024 10.8057 7.44763 10.1109 7.93115C9.65088 8.24567 9.00305 8.94044 8.712 9.41927C8.45381 9.85115 8.20501 10.4755 8.09234 10.9825C7.99376 11.4238 7.97968 12.4753 8.06887 12.9213C8.41626 14.677 9.65088 16.1088 11.3455 16.7143C11.7211 16.8505 12.3548 16.9819 12.6318 16.9819C12.8102 16.9819 12.8149 16.9772 12.8149 16.8176V16.6486L14.8006 16.6627C17.0633 16.6768 17.0304 16.6721 17.2792 17.0711L17.4154 17.2823V19.0052V20.728L17.2886 20.7562C17.2135 20.775 17.0445 20.8642 16.9084 20.9533C16.3638 21.3101 16.0916 21.9486 16.1995 22.6199C16.2887 23.1738 16.5751 23.5822 17.0492 23.8404C17.3309 23.9953 17.3684 24 17.8379 24C18.2744 24 18.3636 23.9859 18.5937 23.8779C19.2556 23.5681 19.6311 22.8499 19.5278 22.0894C19.4433 21.4791 19.0115 20.9487 18.4575 20.775L18.2651 20.7186L18.251 18.9535C18.2369 17.226 18.2322 17.1885 18.1242 16.9115C17.974 16.5359 17.575 16.1416 17.1947 15.9914C16.9272 15.8834 16.8896 15.8834 14.871 15.8646L12.8149 15.8506V15.1699V14.4939H14.9696H17.1196L18.5702 15.3389C19.9456 16.1463 20.0208 16.1933 20.0067 16.3153C19.9363 16.9678 19.9456 17.2964 20.0442 17.5546C20.1757 17.9161 20.5324 18.301 20.8798 18.4653C21.2648 18.6484 21.8328 18.6766 22.2271 18.5264C22.5792 18.3949 22.9547 18.0475 23.1284 17.6908C23.2458 17.456 23.2599 17.3762 23.2599 16.935C23.2599 16.4608 23.2552 16.428 23.1003 16.1463C22.9219 15.8177 22.6825 15.5877 22.3492 15.4234C22.1614 15.3295 22.0628 15.3154 21.6168 15.3154C21.1427 15.3154 21.0817 15.3248 20.8517 15.4468C20.6263 15.5642 20.5982 15.5689 20.4761 15.5079C20.4057 15.4703 19.6968 15.0572 18.8941 14.5925L17.4435 13.7428H15.1292H12.8149V13.0621V12.3814L16.3873 12.3908L19.9597 12.4049L20.0536 12.649C20.1757 12.9776 20.5418 13.3766 20.8751 13.5409C21.2507 13.7193 21.8281 13.7475 22.213 13.602C22.5698 13.4705 22.9594 13.1137 23.1284 12.7664C23.2458 12.5269 23.2599 12.4518 23.2599 12.0059C23.2599 11.5599 23.2458 11.4848 23.1284 11.2454C22.7012 10.3816 21.7013 10.0436 20.8423 10.4802C20.5465 10.6304 20.1663 11.0529 20.0536 11.3627L19.9597 11.6068L16.3873 11.6209L12.8149 11.6303V10.9496V10.2689H15.1198H17.4201L18.9974 9.34885L20.57 8.42875L20.861 8.56489C21.1192 8.68225 21.199 8.69633 21.6403 8.69633C22.0581 8.69633 22.1661 8.67755 22.3492 8.58836C22.6825 8.42406 22.9219 8.19403 23.1003 7.86543C23.2552 7.58377 23.2599 7.5509 23.2599 7.07677C23.2599 6.63081 23.2458 6.5557 23.1284 6.31628C22.7904 5.62621 22.1051 5.26944 21.354 5.39149C20.9596 5.45721 20.6639 5.61682 20.3822 5.92196C20.0395 6.3022 19.9363 6.60264 19.9644 7.14719C19.9785 7.37721 20.002 7.62132 20.0161 7.68704C20.0442 7.79971 19.9785 7.84665 18.5843 8.65878L17.1243 9.51785H14.9696H12.8149V8.84186V8.16117L14.871 8.14709C16.6408 8.13301 16.9506 8.11892 17.1243 8.04851C17.5891 7.87012 17.974 7.48518 18.1524 7.02983C18.2228 6.84675 18.2369 6.58856 18.251 5.04411C18.2651 3.48557 18.2744 3.27433 18.3402 3.27433C18.481 3.27433 18.9739 2.97389 19.1335 2.78611C19.5936 2.24626 19.6734 1.46699 19.3307 0.828557C19.1617 0.509339 18.9692 0.321564 18.6218 0.143178C18.4106 0.0352074 18.312 0.0164299 17.9083 0.00234679C17.5797 -0.00704197 17.3825 0.0117355 17.2511 0.0586793Z" fill="white"/>
<path d="M9.64147 0.476455C9.41614 0.575037 9.38798 0.725257 9.38798 1.86599V2.88467L8.97957 3.03959C8.08294 3.37758 7.1112 3.94091 6.34602 4.56056L5.95169 4.87509L5.0269 4.33523C4.07394 3.7766 3.88147 3.70619 3.69839 3.84702C3.61389 3.91743 1.09771 8.31606 1.02729 8.52731C0.933405 8.79489 1.03668 8.88408 2.06475 9.46619C2.94729 9.96379 3.00832 10.006 2.98015 10.114C2.75952 11.0012 2.75952 13.0104 2.98015 13.8977C3.00832 14.0056 2.95199 14.0479 2.1023 14.522C1.6047 14.8037 1.15873 15.0713 1.11649 15.1135C0.919322 15.3107 0.966265 15.414 2.31355 17.7846C3.01301 19.0239 3.62798 20.0802 3.67492 20.1318C3.85331 20.3243 4.03639 20.2633 5.00343 19.6812C5.50103 19.3854 5.91883 19.1413 5.93761 19.1413C5.95169 19.1413 6.13477 19.2774 6.34602 19.4464C7.1112 20.0661 8.04539 20.6106 8.93262 20.9533L9.38798 21.127V22.1504C9.38798 22.7419 9.40675 23.2254 9.43492 23.3005C9.5335 23.5493 9.5335 23.5493 11.1014 23.5493C12.6693 23.5493 12.6693 23.5493 12.7679 23.3005C12.7961 23.216 12.8149 22.1551 12.8149 20.2398V17.3105H12.6318C12.3642 17.3105 11.7399 17.1837 11.3221 17.0429C8.91385 16.2402 7.36001 13.785 7.7027 11.3205C7.81067 10.5365 8.12519 9.71029 8.57585 9.0343C8.8669 8.59773 9.55228 7.91235 9.98416 7.62599C10.7259 7.13308 11.6835 6.781 12.4534 6.71998L12.8149 6.68712V3.75782C12.8149 0.518705 12.8196 0.565649 12.5332 0.462372C12.2985 0.382568 9.83394 0.396651 9.64147 0.476455Z" fill="white"/>
</svg>
