<svg width="110" height="109" viewBox="0 0 110 109" fill="none" xmlns="http://www.w3.org/2000/svg">
<path d="M23.375 25.4958V27.6166H38.2208H53.0667V25.4958V23.375H38.2208H23.375V25.4958Z" fill="white"/>
<path d="M70.9877 23.6269C70.7491 23.7859 70.4442 24.0908 70.2984 24.3294C70.0466 24.7535 70.0333 25.0187 70.0333 31.527C70.0333 36.047 70.0863 38.4594 70.1791 38.8173C70.2587 39.1089 70.5503 39.5596 70.8286 39.838L71.3323 40.3417H78.4636C85.3563 40.3417 85.6215 40.3284 86.0456 40.0766C86.2842 39.9308 86.5891 39.6259 86.7481 39.3873C87 38.9896 87.0132 38.8041 86.947 37.293C86.8807 35.3577 86.5758 34.0057 85.8335 32.2825C84.3755 28.8892 81.4858 25.9995 78.0925 24.5415C76.3693 23.7992 75.0173 23.4943 73.082 23.428C71.5709 23.3618 71.3854 23.375 70.9877 23.6269Z" fill="white"/>
<path d="M23.375 33.9791V36.1H32.9187H42.4625V33.9791V31.8583H32.9187H23.375V33.9791Z" fill="white"/>
<path d="M60.5558 32.1234C57.6662 32.7332 55.2935 34.0189 53.186 36.1C48.8913 40.3284 47.5923 46.7704 49.8854 52.4702C51.4363 56.3804 54.8826 59.5882 58.8857 60.874C61.1258 61.603 64.3733 61.7753 66.6532 61.2981C71.6107 60.2642 75.5607 56.9902 77.4695 52.3641C78.4371 49.9914 78.848 46.5186 78.2516 45.5509C77.7081 44.6496 77.7479 44.6628 72.8169 44.5833C68.6548 44.517 68.3367 44.5038 67.7799 44.2387C67.0244 43.8808 66.4942 43.3506 66.1363 42.595C65.8712 42.0383 65.8579 41.7202 65.7917 37.558C65.7121 32.6271 65.7254 32.6669 64.824 32.1234C64.2541 31.7788 62.226 31.7788 60.5558 32.1234Z" fill="white"/>
<path d="M31.527 46.956C31.2353 47.0886 30.8112 47.4067 30.5726 47.6453C29.6845 48.5864 29.7375 47.5658 29.7375 63.8034V78.5167H36.1H42.4625V63.7636C42.4625 49.6866 42.4493 48.9973 42.2107 48.4936C42.0781 48.202 41.76 47.7778 41.5214 47.5392C40.6598 46.7307 40.5007 46.7042 36.0735 46.7042C32.4416 46.7042 32.0042 46.7307 31.527 46.956Z" fill="white"/>
<path d="M50.6145 63.9227C50.3229 64.0552 49.8987 64.3734 49.6601 64.6119C48.8118 65.5133 48.825 65.4073 48.825 72.2867V78.5167H55.1875H61.55V72.2469C61.55 65.2615 61.5633 65.4073 60.6089 64.5059C59.7473 63.6973 59.5883 63.6708 55.161 63.6708C51.5291 63.6708 51.0917 63.6973 50.6145 63.9227Z" fill="white"/>
<path d="M69.702 70.2852C69.4103 70.4177 68.9862 70.7359 68.7476 70.9744C67.9655 71.7963 67.9125 72.0879 67.9125 75.468V78.5167H74.275H80.6375V75.4282C80.6375 71.9951 80.5712 71.7035 79.6964 70.8684C78.8348 70.0598 78.6757 70.0333 74.2485 70.0333C70.6166 70.0333 70.1791 70.0598 69.702 70.2852Z" fill="white"/>
<path d="M23.375 84.8792V87H55.1875H87V84.8792V82.7583H55.1875H23.375V84.8792Z" fill="white"/>
</svg>
