<svg width="110" height="109" viewBox="0 0 110 109" fill="none" xmlns="http://www.w3.org/2000/svg">
<path d="M51.2161 19.141C48.5167 19.4235 44.2477 20.3966 43.4473 20.9145C42.1446 21.762 41.9877 23.9122 43.1491 24.9323C44.0751 25.7484 44.6558 25.7955 46.7746 25.2462C49.4269 24.5557 51.122 24.3045 53.8057 24.1947C61.2136 23.9122 68.5116 26.3448 74.2872 31.0061C75.8096 32.246 78.5247 35.0396 79.639 36.5463C88.2083 48.0191 87.8159 63.7764 78.6817 74.7941L77.6615 76.0182L77.583 75.0766C77.4418 73.4443 76.61 72.6439 75.0719 72.6439C74.0518 72.6439 73.3455 73.0206 72.8747 73.7739C72.5765 74.2604 72.5608 74.5743 72.5608 78.5137C72.5608 83.2848 72.5765 83.3947 73.8006 84.0696C74.4284 84.4148 74.5226 84.4305 78.5875 84.3835C83.2174 84.3364 83.1703 84.3364 83.9864 83.1436C84.3003 82.7041 84.3474 82.453 84.3003 81.7154C84.2219 80.554 83.6726 79.8163 82.621 79.4397L81.8677 79.1728L82.8564 77.9644C86.9527 73.0206 89.715 66.7427 90.7194 60.0882C91.0961 57.5614 91.0961 52.5077 90.7037 49.9652C88.6007 36.0598 79.074 24.8382 65.8121 20.632C61.3391 19.2195 55.9402 18.6702 51.2161 19.141Z" fill="white"/>
<path d="M26.8738 26.078C26.0891 26.6117 25.6339 27.365 25.6339 28.1811C25.6339 29.4995 26.2774 30.3941 27.5173 30.755L28.1137 30.9434L27.172 32.0577C24.755 34.9298 22.087 39.6853 20.8628 43.295C19.513 47.2971 18.9794 50.6087 18.9794 55.066C18.9794 61.0299 20.0937 65.8481 22.7304 71.1529C27.9567 81.7311 38.0013 88.982 49.9606 90.7869C52.4246 91.1635 57.5097 91.1792 60.0051 90.8026C62.4849 90.4259 65.7493 89.6098 66.33 89.2017C67.1148 88.6838 67.5385 87.9304 67.5385 87.0515C67.5385 85.7489 66.8793 84.8857 65.6395 84.5561C64.9803 84.3835 64.7606 84.3992 63.3794 84.7915C60.4602 85.5919 58.467 85.8588 55.2183 85.8745C50.0233 85.9058 46.0526 85.0112 41.407 82.7512C38.221 81.2132 35.4588 79.1729 32.775 76.3949C25.681 69.0498 22.7618 59.0995 24.708 48.9922C25.6967 43.8914 28.4119 38.3983 31.7705 34.7101L32.3826 34.0352V34.9455C32.3826 36.562 33.3086 37.488 34.8938 37.488C35.9139 37.488 36.6202 37.1113 37.091 36.358C37.3892 35.8715 37.4049 35.5576 37.4049 31.6025C37.4049 26.8314 37.3892 26.8 36.1964 26.078C35.6157 25.7328 35.5058 25.7171 31.5037 25.7171C27.5016 25.7171 27.3917 25.7328 26.8738 26.078Z" fill="white"/>
<path d="M51.8753 32.7796C49.9449 33.2975 48.344 34.2392 46.8216 35.7616C45.2993 37.2997 44.6401 38.3355 43.9495 40.2659C43.4787 41.5686 43.4473 41.7726 43.4473 43.9228C43.4473 46.0729 43.4787 46.277 43.9495 47.5796C44.6244 49.4787 45.2836 50.5302 46.7432 52.0212C48.1086 53.4023 49.3956 54.2184 51.2632 54.8619C52.9425 55.4426 55.8147 55.5525 57.6509 55.0816C61.041 54.2341 63.662 52.1311 65.2 49.0235C66.0789 47.2029 66.3457 46.0572 66.3457 43.9228C66.3457 41.804 66.0946 40.6583 65.2 38.822C63.7404 35.8087 60.884 33.5016 57.6352 32.7168C56.1913 32.3559 53.3506 32.4029 51.8753 32.7796Z" fill="white"/>
<path d="M43.4002 54.705C41.4227 56.0547 39.2255 58.5031 38.1896 60.5591C36.7614 63.3684 36.3847 66.8997 37.3107 68.783C39.1156 72.4713 46.4764 74.59 56.4738 74.3232C64.2583 74.1035 69.2178 72.7381 71.729 70.1171C73.0787 68.7046 73.4711 66.8055 72.9531 64.0904C72.3254 60.716 70.1909 57.4045 67.1775 55.1287C65.6238 53.9673 65.6552 53.9673 64.6036 54.8619C62.0297 57.0592 59.1733 58.2991 55.9245 58.5973C52.3775 58.9268 47.9987 57.4359 45.2522 54.9404C44.75 54.501 44.3105 54.1243 44.2791 54.1243C44.2634 54.14 43.8554 54.3911 43.4002 54.705Z" fill="white"/>
</svg>
