<svg width="110" height="109" viewBox="0 0 110 109" fill="none" xmlns="http://www.w3.org/2000/svg">
<path d="M51.4405 20.1966C47.068 20.7344 43.6578 21.6966 39.9363 23.4229C38.8043 23.9606 38.493 24.1587 38.5637 24.3285C38.6062 24.4559 39.9221 26.7624 41.4787 29.4651L44.3087 34.3752L45.1153 34.0215C46.3039 33.4838 47.6482 32.9744 48.6812 32.6772C49.8132 32.3376 52.6149 31.8423 53.3649 31.8423H53.9168V25.97V20.0976L52.898 20.1117C52.3319 20.1259 51.681 20.1683 51.4405 20.1966Z" fill="white"/>
<path d="M56.1808 25.9274V31.7998L57.3411 31.8989C59.5769 32.0828 62.0815 32.7479 64.5578 33.8233L65.7888 34.361L68.6613 29.3943C70.2462 26.6633 71.548 24.3568 71.5763 24.2719C71.6188 24.0738 69.3547 22.9842 67.3029 22.2201C64.3738 21.1163 60.6381 20.3098 57.709 20.14L56.1808 20.0551V25.9274Z" fill="white"/>
<path d="M35.3657 26.0548C31.5876 28.6585 28.2481 32.0404 25.8426 35.6912C25.5454 36.1298 25.3473 36.5543 25.3898 36.6251C25.4322 36.71 27.7104 38.0543 30.4414 39.6391C35.3516 42.4692 35.4223 42.4975 35.6487 42.2145C35.7761 42.0447 36.1723 41.5069 36.526 41.0258C37.8562 39.2004 39.8938 37.2477 41.7899 35.96C42.2852 35.6204 42.455 35.4365 42.3843 35.2667C42.1437 34.6299 36.6958 25.3331 36.5685 25.3331C36.4836 25.3331 35.9459 25.6586 35.3657 26.0548Z" fill="white"/>
<path d="M70.5858 30.1868C69.0576 32.847 67.7557 35.1394 67.7133 35.2667C67.6425 35.4365 67.8123 35.6205 68.3076 35.9601C70.3169 37.3185 72.2414 39.2147 73.7555 41.2806C74.2224 41.9315 74.6469 42.4551 74.6894 42.4551C74.7601 42.4551 84.5804 36.8233 84.7644 36.6959C84.8917 36.5969 84.2691 35.6346 82.9532 33.8658C81.4249 31.8424 78.7788 29.1113 76.9817 27.7105C75.4393 26.5077 73.713 25.3332 73.5291 25.3332C73.4442 25.3332 72.114 27.5265 70.5858 30.1868Z" fill="white"/>
<path d="M23.4229 39.9363C21.5267 44.0116 20.3664 48.3982 20.14 52.3886L20.0551 53.9168H25.9275H31.7998L31.8989 52.8131C32.1111 50.4358 32.9177 47.4784 33.9507 45.2851C34.1912 44.7899 34.3327 44.3371 34.2761 44.2805C34.1063 44.1107 24.3285 38.493 24.2153 38.493C24.1445 38.493 23.7908 39.1439 23.4229 39.9363Z" fill="white"/>
<path d="M80.7316 41.3938C75.2978 44.5493 75.6092 44.2663 76.2035 45.4266C77.0949 47.1954 77.9864 50.5066 78.1987 52.8131L78.2977 53.9168H84.1418H90V53.0819C90 51.2283 89.3915 47.6482 88.6416 45.0729C87.9199 42.6249 86.1511 38.4788 85.8398 38.5071C85.7549 38.5071 83.4626 39.809 80.7316 41.3938Z" fill="white"/>
<path d="M65.1096 42.3136C64.7417 42.3985 63.8361 43.2192 61.1192 45.936L57.61 49.4453L58.2043 49.8274C58.9259 50.266 59.9023 51.2565 60.3268 51.9782L60.6381 52.5018L64.1474 48.9925C67.9114 45.2285 68.0387 45.0587 67.784 43.9408C67.501 42.6815 66.3831 42.0022 65.1096 42.3136Z" fill="white"/>
<path d="M53.5206 51.3272C52.6857 51.6244 51.6103 52.7281 51.3131 53.5771C51.1858 53.945 51.0867 54.6526 51.0867 55.1337C51.0867 56.8317 52.2753 58.4165 53.8885 58.8693C55.9827 59.4495 58.0345 58.4165 58.8128 56.393C59.1099 55.6006 59.0392 54.0724 58.6571 53.28C58.2609 52.4734 57.2845 51.5819 56.5063 51.3131C55.6855 51.0301 54.3271 51.0442 53.5206 51.3272Z" fill="white"/>
<path d="M39.0589 55.0064C39.1014 56.0818 39.4127 58.2185 39.6957 59.2515C41.2805 65.1946 46.3746 69.7793 52.5017 70.7698C54.0441 71.0104 56.6761 70.9396 58.2751 70.6141C65.1662 69.2133 70.2038 63.5814 70.8971 56.5204C70.9679 55.7563 71.0386 55.0771 71.0386 55.0064C71.0386 54.9498 68.817 54.9073 66.086 54.9073H61.1334V55.3884C61.1334 56.2374 60.5957 57.6808 59.9306 58.5722C57.5251 61.841 52.5725 61.841 50.1669 58.5722C49.5019 57.6808 48.9642 56.2374 48.9642 55.3884V54.9073H44.0115C41.2947 54.9073 39.0589 54.9498 39.0589 55.0064Z" fill="white"/>
<path d="M20.0975 58.5156V60.9919H22.9983H25.8992L25.9841 61.374C26.6208 64.3314 28.0217 67.869 29.5924 70.4443C29.8895 70.9396 30.1442 71.3924 30.1442 71.449C30.1442 71.4915 29.2528 72.4254 28.1632 73.515C27.0736 74.6045 26.1822 75.5526 26.1822 75.6375C26.1822 75.8215 34.2761 83.9154 34.4601 83.9154C34.5308 83.9154 35.5072 83.0098 36.6109 81.9061C38.5637 79.9675 38.6486 79.8967 38.9599 80.0949C41.5211 81.7363 45.1294 83.2504 48.5113 84.0569L49.1056 84.2126V87.0992V90.0001H55.0488H60.9919V87.0992V84.1984L61.3881 84.1135C64.388 83.4485 67.8689 82.0617 70.4443 80.5052C70.9396 80.2081 71.3924 79.9533 71.449 79.9533C71.4914 79.9533 72.4253 80.8448 73.5149 81.9344C74.6045 83.024 75.5526 83.9154 75.6375 83.9154C75.8214 83.9154 83.9154 75.8215 83.9154 75.6375C83.9154 75.5526 83.0239 74.6045 81.9343 73.515C80.8448 72.4254 79.9533 71.4915 79.9533 71.449C79.9533 71.3924 80.208 70.9396 80.5052 70.4443C82.0758 67.869 83.4767 64.3314 84.1135 61.374L84.1984 60.9919H87.0992H90V58.5156V56.0393H84.1418H78.2977L78.1987 57.1997C77.9864 59.7609 77.0949 62.8881 75.9063 65.2512C72.6376 71.8028 66.8218 76.3026 59.6335 77.845C57.426 78.3261 53.6903 78.3827 51.2989 77.9723C44.9313 76.8969 39.3278 73.2886 35.7761 67.9963C33.6252 64.7842 32.196 60.8221 31.8989 57.1997L31.7998 56.0393H25.9558H20.0975V58.5156Z" fill="white"/>
</svg>
