<svg width="110" height="109" viewBox="0 0 110 109" fill="none" xmlns="http://www.w3.org/2000/svg">
<path d="M40.3002 22.2972C38.974 22.6253 37.8803 23.2816 36.8002 24.3617C35.2005 25.9476 34.4623 27.9027 34.6263 30.1313C34.8451 33.3715 37.0873 36.1333 40.1498 36.9263C41.1889 37.1997 43.226 37.186 44.1694 36.9126C45.9194 36.3931 47.478 35.2583 48.4487 33.7954C49.9663 31.5121 50.062 28.2309 48.6812 25.8519C47.7925 24.307 46.3979 23.1449 44.7026 22.5296C43.5678 22.1058 41.4623 21.9964 40.3002 22.2972ZM42.8569 25.8519C43.1713 26.1527 43.1987 26.2894 43.1987 27.3285V28.4906L44.4292 28.5453C45.7827 28.6137 46.0971 28.7777 46.2749 29.5023C46.3569 29.8031 46.2886 29.9535 45.9604 30.2953C45.5639 30.6918 45.4956 30.7055 44.3745 30.7055H43.1987V31.8403C43.1987 33.0707 43.0209 33.4946 42.4194 33.727C41.9545 33.9047 41.353 33.5629 41.1615 33.0161C41.0795 32.77 41.0112 32.1547 41.0112 31.6489V30.7055H39.849C38.7826 30.7055 38.6459 30.6781 38.3451 30.3637C37.8939 29.9262 37.8939 29.352 38.3588 28.9145C38.6596 28.6273 38.8646 28.5863 39.849 28.5453L40.9838 28.4906L41.0385 27.3422C41.0932 26.3715 41.1479 26.139 41.4213 25.8519C41.8451 25.4007 42.4194 25.4007 42.8569 25.8519Z" fill="white"/>
<path d="M74.1248 22.2973C71.3904 22.9535 69.2713 25.018 68.5603 27.7114C68.3005 28.6821 68.3005 30.5825 68.5603 31.5942C69.1892 34.0142 71.0623 35.9693 73.5369 36.817C74.7537 37.2271 76.8319 37.2545 78.076 36.858C83.5995 35.1626 85.2128 28.1489 81.0292 24.1156C79.3202 22.475 76.4764 21.723 74.1248 22.2973ZM76.3534 25.5922C76.7499 25.7563 76.9686 26.4125 76.9686 27.4926V28.518H77.912C78.9784 28.518 79.6483 28.7094 79.8397 29.0649C80.0722 29.5024 79.9901 30.022 79.6346 30.3638C79.3339 30.6782 79.1971 30.7056 78.1444 30.7056H76.9959L76.9413 31.936C76.9139 32.9751 76.8592 33.2075 76.5995 33.4536C76.1756 33.8911 75.5057 33.8638 75.0955 33.3853C74.8221 33.0571 74.7811 32.8794 74.7811 31.854V30.7056H73.6326C72.2928 30.7056 71.7732 30.4321 71.7732 29.7348C71.7732 28.8325 72.2928 28.518 73.824 28.518H74.7537L74.8084 27.2739C74.8494 26.1664 74.8905 26.0024 75.1776 25.77C75.5057 25.5102 75.9432 25.4418 76.3534 25.5922Z" fill="white"/>
<path d="M56.4879 33.563C53.6305 34.274 51.1285 36.3111 49.8296 38.9771C49.0367 40.6178 48.8042 41.6568 48.8042 43.5162C48.8042 45.3483 49.1187 46.6882 49.898 48.1784C51.1832 50.653 53.1109 52.3347 55.6402 53.196C61.0134 55.0281 66.7693 52.2663 68.656 46.9616C70.6658 41.2604 67.3708 35.0533 61.5466 33.563C60.2067 33.2212 57.8961 33.2212 56.4879 33.563ZM59.6598 38.1021L60.0153 38.3756V40.4264V42.4635H61.9841C63.7614 42.4635 63.9802 42.4908 64.3083 42.7506C64.7595 43.1061 64.7868 43.7487 64.363 44.1998C64.0759 44.5006 63.9802 44.5143 62.0388 44.5143H60.0153V46.5241C60.0153 48.3972 60.0016 48.5476 59.7145 48.8483C59.3317 49.2585 58.7028 49.2585 58.2789 48.862C57.9782 48.5749 57.9645 48.4792 57.9645 46.5378V44.5143H55.9547C54.0816 44.5143 53.9312 44.5006 53.6305 44.2135C53.2066 43.817 53.2203 43.2291 53.6578 42.8053C53.9723 42.4772 54.0406 42.4635 55.982 42.4635H57.9645V40.4811C57.9645 38.5396 57.9782 38.4713 58.3063 38.1568C58.7165 37.7466 59.1813 37.7193 59.6598 38.1021Z" fill="white"/>
<path d="M83.4218 52.9089C83.1073 53.0182 82.6835 53.2096 82.4921 53.3327C82.205 53.5241 72.7986 61.659 72.0193 62.4109C71.8143 62.6023 71.8006 62.7254 71.9373 63.5594C72.3885 66.1707 70.8025 69.2606 68.3826 70.4774C66.7009 71.3251 66.9197 71.3114 56.2828 71.3114H46.5894L46.1929 70.9149C45.9604 70.6688 45.7964 70.368 45.7964 70.1493C45.7964 69.6981 46.1245 69.0419 46.4116 68.9325C46.5347 68.8915 50.8003 68.8504 55.9 68.8504C65.6755 68.8504 66.3318 68.8094 67.3572 68.2215C70.3513 66.4852 70.1463 62.0008 67.0017 60.5925L66.1814 60.2234L52.7418 60.2644L39.3022 60.3054L38.3041 60.6199C35.7885 61.3992 34.1478 62.5887 31.4134 65.5965L30.4564 66.6629L35.0228 74.0458L39.5756 81.4424L50.3081 81.4014C60.9723 81.3467 61.0407 81.3467 62.1208 81.0459C63.3923 80.6767 65.0329 79.8701 65.9626 79.1592C66.9197 78.4345 87.4824 60.4285 87.9609 59.9089C88.6855 59.116 89 58.2409 89 57.0105C89 56.0534 88.9453 55.7937 88.5898 55.069C87.8515 53.6061 86.6621 52.8405 84.9667 52.7585C84.3925 52.7311 83.7773 52.7995 83.4218 52.9089Z" fill="white"/>
<path d="M73.6737 53.3874C73.3182 53.5241 72.908 53.7292 72.744 53.8385C72.4295 54.0573 67.8083 58.0769 67.8083 58.1316C67.8083 58.1452 68.1365 58.3503 68.533 58.5691C68.9295 58.7878 69.5584 59.2663 69.9275 59.6218C70.4881 60.1824 70.6248 60.2507 70.8435 60.114C70.9803 60.032 72.6072 58.6238 74.4666 56.9968L77.8299 54.0436L77.5155 53.7839C76.7362 53.1549 74.7948 52.9499 73.6737 53.3874Z" fill="white"/>
<path d="M22.6223 66.9364C18.8078 69.3016 18.9992 69.1513 18.9992 69.8349C18.9992 70.327 19.6281 71.4208 24.8918 79.9522C28.1321 85.2022 30.9212 89.5909 31.0716 89.7003C31.6595 90.1105 32.056 89.9601 35.1732 88.046C36.8412 87.0206 38.3178 86.0636 38.4545 85.9132C39.0287 85.2569 39.015 85.2432 32.8626 75.2353C29.6634 70.0399 26.888 65.6375 26.6965 65.4598C26.0813 64.8992 25.7258 65.0223 22.6223 66.9364Z" fill="white"/>
</svg>
