<svg width="24" height="25" viewBox="0 0 24 25" fill="none" xmlns="http://www.w3.org/2000/svg">
<path d="M10.7413 0.0739989C10.7178 0.120966 10.5018 0.712747 10.2575 1.38907L9.81605 2.6196L9.58121 2.67596C8.96595 2.82155 8.03131 3.22077 7.26106 3.67165L6.81957 3.92527L6.08689 3.57302C5.68297 3.38046 5.11468 3.11275 4.82818 2.97654L4.29746 2.72292L3.46614 3.49787C3.00587 3.92527 2.62544 4.28691 2.61605 4.3104C2.61135 4.33388 2.86967 4.91157 3.19843 5.59259L3.79022 6.83721L3.60235 7.17537C3.21722 7.84699 2.87436 8.72527 2.6771 9.5284L2.60196 9.83369L1.30098 10.308L0 10.7824V12.0176V13.2576L1.30098 13.7272L2.59726 14.2016L2.70059 14.5961C2.85558 15.1644 3.16086 15.9488 3.49432 16.6157L3.79022 17.1981L3.25949 18.3065C2.97299 18.9171 2.70059 19.4853 2.65832 19.5699L2.58787 19.7249L3.42857 20.5656C3.89354 21.0306 4.28806 21.411 4.30685 21.411C4.32564 21.411 4.89863 21.1433 5.57965 20.8192L6.82427 20.2274L7.27984 20.4951C8.12055 20.9789 8.62779 21.2043 9.36986 21.411L9.81605 21.5378L10.2857 22.7777L10.7601 24.0176H12H13.2446L13.7143 22.7167L14.184 21.4157L14.7851 21.2419C15.1139 21.1433 15.3816 21.054 15.3816 21.0399C15.3816 21.0212 14.9495 20.5797 14.4235 20.0536L13.4654 19.0955L12.9299 19.1566C8.43053 19.6591 4.63562 16.1695 4.82818 11.7124C4.96908 8.42938 7.32681 5.67243 10.6051 4.96324C11.2955 4.81294 12.6998 4.81294 13.3902 4.96324C14.0994 5.11823 14.5456 5.27322 15.2172 5.60668C17.8051 6.88887 19.3644 9.60355 19.1296 12.4216L19.0826 13.018L20.083 14.0184C20.6372 14.5726 21.1068 15.0188 21.135 15.0094C21.1914 14.9906 21.3886 14.3848 21.3886 14.2157C21.3933 14.0936 21.4215 14.0795 22.3703 13.7789C22.9057 13.6098 23.4928 13.4219 23.6712 13.3609L24 13.2529V12.0176V10.7824L23.6712 10.6744C23.4928 10.6133 22.9057 10.4302 22.375 10.2611L21.4121 9.9511L21.2806 9.49553C21.1022 8.86147 20.7405 7.99729 20.3883 7.36324L20.0924 6.83721L20.6935 5.58789L21.29 4.33858L20.4305 3.47439L19.5663 2.6102L18.3123 3.20668L17.0536 3.80785L16.8892 3.70453C16.2881 3.34288 15.2736 2.92488 14.4798 2.71823L14.0665 2.6102L13.7566 1.64269C13.5875 1.11196 13.4043 0.52488 13.3432 0.346406L13.2352 0.0176389L12.0094 0.00354884C10.8775 -0.0058445 10.7789 -0.00114783 10.7413 0.0739989Z" fill="white"/>
<path d="M11.6243 7.02041C11.3378 7.05329 10.7789 7.18479 10.7789 7.21767C10.7789 7.23176 11.3331 7.80945 12.0141 8.49517C12.8595 9.34996 13.2869 9.81493 13.3761 9.97932C13.7378 10.6697 13.7284 11.5997 13.3479 12.2196C13.1836 12.4873 12.6669 12.9899 12.4039 13.1402C11.737 13.5206 10.8446 13.5159 10.1589 13.1308C9.98982 13.0368 9.44501 12.5578 8.65597 11.811L7.42074 10.6415L7.35969 10.8482C6.7773 12.8678 7.89511 15.2302 9.90998 16.2259C10.591 16.5641 11.0231 16.6721 11.7886 16.7003C12.4368 16.7284 12.9205 16.6627 13.517 16.4795L13.8082 16.3856L17.4951 20.0678C21.6939 24.2572 21.3511 23.9707 22.1683 23.9707C22.591 23.9707 22.6661 23.9566 22.9057 23.8392C23.272 23.6607 23.6618 23.2897 23.8074 22.9938C23.9671 22.665 24.0282 22.247 23.9718 21.8572C23.8779 21.1856 24.0282 21.3594 20.0924 17.4141L16.4994 13.8165L16.6215 13.4549C16.8423 12.7926 16.8986 12.3981 16.8704 11.6701C16.8564 11.2098 16.8188 10.8952 16.7483 10.6322C16.6356 10.2001 16.3162 9.50965 16.0485 9.11982C15.4004 8.1711 14.353 7.43841 13.2587 7.15661C12.8172 7.04859 11.9859 6.97814 11.6243 7.02041Z" fill="white"/>
</svg>
