<svg width="24" height="25" viewBox="0 0 24 25" fill="none" xmlns="http://www.w3.org/2000/svg">
<path d="M11.1088 0.10739C10.6265 0.280007 10.2407 0.55924 9.93603 0.965398C9.87003 1.05171 9.07295 2.66618 8.16925 4.5599C7.07262 6.84453 6.44815 8.09347 6.306 8.27624C6.05215 8.61132 5.57491 8.96163 5.15352 9.13425C4.69152 9.3221 4.15844 9.36271 2.18349 9.36271H0.360859L0.188242 9.53533L0.015625 9.70795V15.4551V21.2022L0.183165 21.3698L0.345628 21.5322L1.51333 21.5627C3.20396 21.5982 3.5492 21.7201 4.35644 22.5527C5.06721 23.2889 5.6663 23.6747 6.45831 23.8981C6.84416 24.0098 6.87462 24.0098 12.4644 24.025C18.6481 24.0402 18.4247 24.0504 19.0543 23.7305C19.9275 23.2889 20.4657 22.2379 20.3235 21.2327C20.2778 20.9078 20.1154 20.4204 20.0138 20.2934C19.9783 20.2528 20.0544 20.1868 20.2829 20.065C21.1663 19.5928 21.6994 18.547 21.5471 17.5773C21.4861 17.2117 21.3745 16.8614 21.2628 16.6888C21.1917 16.5822 21.1968 16.572 21.5014 16.4096C22.3848 15.9374 22.9179 14.8915 22.7655 13.9218C22.7046 13.5563 22.5929 13.206 22.4812 13.0334C22.4102 12.9267 22.4152 12.9166 22.7148 12.7592C23.5271 12.3226 23.9789 11.5458 23.9789 10.5812C23.9789 9.65718 23.5423 8.89056 22.7605 8.4387C22.2375 8.13409 22.4 8.14424 17.4195 8.14424C14.9115 8.14424 12.8604 8.12901 12.8604 8.11378C12.8604 8.09347 13.1954 6.96638 13.6016 5.61083C14.2312 3.51404 14.3479 3.07742 14.3682 2.71188C14.4342 1.65079 13.8961 0.747089 12.9213 0.259699C12.5151 0.061697 12.4796 0.0515431 11.9313 0.0363121C11.4794 0.0210812 11.3119 0.0363121 11.1088 0.10739Z" fill="white"/>
</svg>
