<svg width="24" height="24" viewBox="0 0 24 24" fill="none" xmlns="http://www.w3.org/2000/svg">
<path d="M11.2746 2.12669C9.82286 2.23265 8.38175 2.683 7.17376 3.40885C5.74855 4.26186 4.54585 5.49105 3.74053 6.90566C3.45443 7.41959 3.00938 8.44744 2.9511 8.74414C2.91931 8.88719 2.90341 8.89779 2.59082 8.91898C1.71662 8.97196 0.731151 9.79848 0.339085 10.8157C0.0847712 11.4674 0 11.9707 0 12.8026C0 13.8728 0.243717 14.8265 0.709959 15.6159C0.996061 16.1033 1.57886 16.6649 2.00802 16.8663C2.33651 17.0252 2.42128 17.0411 2.85043 17.0358C3.17892 17.0358 3.45972 16.9987 3.75112 16.914C4.50347 16.702 4.7048 16.4954 4.6942 15.9285C4.6942 15.7537 4.54585 14.6463 4.36042 13.4648C4.18028 12.2833 4.03723 11.1654 4.03723 10.98C4.03723 10.7945 4.07431 10.4343 4.122 10.1852C4.73129 6.86858 7.26913 4.33074 10.6123 3.68436C11.3646 3.54131 12.7316 3.5519 13.4733 3.71085C15.2853 4.09232 16.6999 4.89765 17.9132 6.23279C19.0258 7.45668 19.7517 9.05673 19.9265 10.6833C19.9689 11.0595 19.9477 11.2873 19.7252 12.7496L19.4762 14.392L19.2113 14.9483C18.0986 17.2742 16.0376 18.8849 13.521 19.3988C13.0971 19.4836 12.7951 19.5048 11.8203 19.5048C11.1209 19.5048 10.554 19.5313 10.4269 19.5631C10.1566 19.6372 9.84405 19.9498 9.76988 20.22C9.6957 20.4849 9.6957 21.0042 9.76458 21.2638C9.83346 21.5022 10.0348 21.7565 10.2626 21.8784C10.4057 21.9578 10.6123 21.9684 11.9898 21.9684C13.3674 21.9684 13.574 21.9578 13.717 21.8784C14.0508 21.6982 14.268 21.3168 14.268 20.9088C14.268 20.7552 14.2839 20.7446 14.7025 20.628C15.7092 20.3472 16.9277 19.722 17.8231 19.0173C18.3583 18.5988 19.1689 17.7723 19.5821 17.2213L19.8894 16.8133L20.4034 16.9458C21.0709 17.1153 21.4789 17.0941 21.9716 16.8663C23.0207 16.3735 23.7942 15.0172 23.9691 13.3536C24.1492 11.6423 23.5293 9.96273 22.4644 9.27396C22.1518 9.07263 21.6061 8.90838 21.2405 8.90838C21.0762 8.90838 21.055 8.89249 21.0233 8.73884C20.9597 8.46863 20.5411 7.45138 20.3239 7.06461C19.4338 5.44866 18.0986 4.10822 16.4933 3.22342C15.0151 2.41279 13.0601 1.99953 11.2746 2.12669Z" fill="white"/>
<path d="M11.4494 5.04603C9.07583 5.20498 6.93536 6.70437 5.99757 8.86603C5.26113 10.5615 5.25583 12.5536 5.99228 14.2437C6.2148 14.7629 6.78701 15.6689 7.05192 15.9179L7.20556 16.0663L6.99893 16.9776C6.76581 17.9895 6.76052 18.265 6.96185 18.477C7.18967 18.7154 7.391 18.6624 8.41885 18.0955L9.33544 17.5922L9.80168 17.7511C11.7779 18.424 13.9714 18.1432 15.6827 16.9988C17.092 16.0557 18.051 14.6305 18.406 12.9298C18.549 12.2304 18.5649 11.0754 18.4377 10.3654C18.0722 8.34151 16.8377 6.66728 15.031 5.74539C13.929 5.17849 12.7952 4.96126 11.4494 5.04603ZM8.99106 10.4131C9.34074 10.5191 9.57386 10.7151 9.73281 11.0383C9.90765 11.388 9.91294 11.7059 9.7434 12.0714C9.4573 12.686 8.73674 12.9298 8.13275 12.6225C7.17907 12.1297 7.30623 10.7416 8.33408 10.4184C8.64138 10.323 8.69436 10.323 8.99106 10.4131ZM12.4932 10.482C13.0707 10.7734 13.3462 11.4992 13.0813 12.0397C12.8852 12.4529 12.4031 12.7761 11.9898 12.7761C11.5024 12.7761 10.9885 12.3734 10.8454 11.8913C10.5646 10.9164 11.5978 10.0369 12.4932 10.482ZM15.6244 10.4184C16.6681 10.731 16.8112 12.1244 15.8469 12.6225C15.2429 12.9298 14.5224 12.686 14.2363 12.0714C14.0667 11.7059 14.072 11.388 14.2469 11.0383C14.4058 10.7204 14.6389 10.5191 14.9674 10.4184C15.2641 10.323 15.3118 10.323 15.6244 10.4184Z" fill="white"/>
</svg>
