<svg width="25" height="25" viewBox="0 0 25 25" fill="none" xmlns="http://www.w3.org/2000/svg">
<path d="M10.7802 0.919643C9.91864 1.01851 8.85935 1.27274 8.00251 1.58347C7.19744 1.87536 7.06091 2.00247 7.06091 2.47798C7.06091 2.69454 7.08445 2.76987 7.18332 2.89228C7.45638 3.21242 7.75769 3.25008 8.31794 3.02881C9.26895 2.65217 10.4554 2.39323 11.5382 2.33203C16.2461 2.05897 20.5398 4.93553 22.1264 9.4128C22.5454 10.6039 22.7149 11.7385 22.6772 13.1509C22.6537 14.1773 22.5925 14.6245 22.3571 15.5426C21.2884 19.7138 17.6915 22.8352 13.3225 23.3719C12.7387 23.4425 11.4346 23.4284 10.7943 23.3484C10.0646 23.2495 9.19833 23.0376 8.48272 22.774C7.99309 22.5951 7.86597 22.5621 7.66353 22.581C7.45167 22.6045 7.39518 22.6328 7.23982 22.7975C7.07504 22.9764 7.06091 23.0141 7.06091 23.2589C7.06091 23.7532 7.21628 23.8851 8.15787 24.2146C8.8264 24.4453 9.46197 24.6101 10.2011 24.7419C10.912 24.869 12.6022 24.9161 13.3837 24.8361C16.425 24.5112 19.2875 23.0188 21.2507 20.7307C22.7384 18.9982 23.6612 16.9973 24.0378 14.6857C24.1555 13.9513 24.1791 12.1905 24.0849 11.409C23.8024 9.15857 22.955 7.13886 21.552 5.37808C19.5605 2.87815 16.6275 1.26332 13.4543 0.919643C12.9223 0.85844 11.2934 0.863148 10.7802 0.919643Z" fill="white"/>
<path d="M5.07416 3.19359C4.53745 3.38662 2.57894 5.37338 2.45183 5.84417C2.32 6.3338 2.64485 6.75281 3.15331 6.75281C3.47816 6.75281 3.57703 6.6869 3.94425 6.23022C4.31147 5.77355 5.06474 5.02499 5.52142 4.65777C5.94043 4.3235 6.03458 4.18226 6.03929 3.88566C6.04871 3.36778 5.55437 3.01469 5.07416 3.19359Z" fill="white"/>
<path d="M10.7802 4.48825C9.62205 4.6954 8.67575 5.04379 7.72945 5.61816C5.69091 6.86106 4.28794 8.88078 3.80302 11.2771C3.70886 11.7432 3.69473 11.9551 3.69473 12.8731C3.69473 13.7959 3.70886 14.003 3.80302 14.4738C4.49979 17.9106 7.11271 20.5189 10.5542 21.2156C11.0156 21.3098 11.2275 21.3239 12.1455 21.3239C13.0636 21.3239 13.2754 21.3098 13.7415 21.2156C15.7989 20.8013 17.5785 19.7091 18.8402 18.0943C19.65 17.0585 20.2055 15.8438 20.488 14.4974C20.5822 14.036 20.5963 13.8524 20.5963 12.8496C20.5916 11.569 20.5398 11.2112 20.1914 10.1708C19.3534 7.64729 17.3714 5.66524 14.8526 4.82723C13.8733 4.50238 13.4826 4.44117 12.3103 4.41763C11.4582 4.40351 11.1898 4.41763 10.7802 4.48825ZM12.508 7.36482C12.8376 7.56255 12.8282 7.4731 12.8282 10.3544C12.8282 11.7762 12.8141 13.0002 12.7952 13.0662C12.7481 13.2262 9.87628 16.8184 9.68326 16.9549C9.40078 17.1574 8.94411 17.0585 8.75579 16.7572C8.66163 16.6065 8.62867 16.3052 8.68988 16.1499C8.704 16.1075 9.33958 15.293 10.1023 14.342L11.4864 12.6142V10.1661C11.4864 7.84503 11.4911 7.7085 11.5759 7.58138C11.7783 7.27536 12.1973 7.1765 12.508 7.36482Z" fill="white"/>
<path d="M1.56673 7.78853C1.20421 7.86856 1.10535 8.01451 0.79933 8.89961C0.474481 9.84591 0.234375 10.9287 0.234375 11.4607C0.234375 11.908 0.493313 12.1669 0.931153 12.1669C1.22305 12.1669 1.42549 12.0681 1.5526 11.8609C1.59968 11.7809 1.68443 11.456 1.74092 11.1171C1.85862 10.4203 2.04223 9.73762 2.27763 9.11617C2.46124 8.63125 2.48478 8.38173 2.37179 8.13692C2.24467 7.86856 1.89158 7.71791 1.56673 7.78853Z" fill="white"/>
<path d="M0.771082 13.5793C0.427401 13.6546 0.234375 13.9089 0.234375 14.2855C0.234375 14.9587 0.672215 16.6913 1.04414 17.4728C1.21834 17.8447 1.38783 17.9577 1.75975 17.9577C2.00457 17.9577 2.04223 17.9436 2.22113 17.7788C2.39062 17.6187 2.41887 17.5669 2.43299 17.341C2.45182 17.1291 2.42358 17.0114 2.28234 16.6395C2.04223 16.0086 1.85862 15.3307 1.74092 14.6292C1.67972 14.262 1.59968 13.9654 1.54319 13.8712C1.39724 13.6311 1.0771 13.5087 0.771082 13.5793Z" fill="white"/>
<path d="M2.90379 19.017C2.57894 19.13 2.4377 19.3419 2.4377 19.7138C2.4377 19.8974 2.46595 19.9869 2.59306 20.1705C3.2098 21.0509 4.82934 22.5621 5.16831 22.5762C5.57791 22.5904 5.83214 22.4821 5.96396 22.2278C6.06754 22.0301 6.05812 21.6676 5.94984 21.4981C5.89805 21.4228 5.67207 21.2015 5.43667 21.0085C4.95646 20.6036 4.2738 19.9162 3.90658 19.4643C3.77005 19.2948 3.60056 19.1253 3.53465 19.0829C3.36046 18.9699 3.10623 18.9464 2.90379 19.017Z" fill="white"/>
</svg>
