<svg width="24" height="24" viewBox="0 0 24 24" fill="none" xmlns="http://www.w3.org/2000/svg">
<path d="M10.1906 0.112499C10.0641 0.173437 9.87656 0.314062 9.78281 0.426562C9.46406 0.796874 9.46875 0.745312 9.46875 4.15312V7.21406L7.97344 7.22812C6.53906 7.24219 6.46875 7.24687 6.34219 7.34062C6.10313 7.51875 6 7.72031 6 8.01094C6 8.17969 6.02813 8.32031 6.075 8.39062C6.22969 8.625 11.4656 13.8375 11.6344 13.9266C11.7328 13.9734 11.8969 14.0156 12 14.0156C12.1031 14.0156 12.2672 13.9734 12.3656 13.9266C12.5344 13.8375 17.7703 8.625 17.925 8.39062C17.9719 8.32031 18 8.17969 18 8.01094C18 7.72031 17.8969 7.51875 17.6578 7.34062C17.5313 7.24687 17.4609 7.24219 16.0266 7.22812L14.5313 7.21406V4.15312C14.5313 0.745312 14.5359 0.796874 14.2172 0.426562C14.1234 0.314062 13.9359 0.173437 13.8094 0.112499C13.575 -5.56931e-07 13.5516 -5.56931e-07 12 -5.56931e-07C10.4484 -5.56931e-07 10.425 -5.56931e-07 10.1906 0.112499Z" fill="white"/>
<path d="M3.20155 12.9984C1.44374 13.8 0.00936204 14.4797 0.0140495 14.5031C0.028112 14.5406 11.9297 20.0156 12 20.0156C12.0797 20.0156 23.9719 14.5453 23.9859 14.5031C23.9906 14.4797 22.5516 13.8 20.7844 12.9891L17.5687 11.5219L15.5719 13.5094C13.6922 15.3797 13.5469 15.5109 13.2187 15.675C12.8437 15.8578 12.3469 15.9844 12 15.9844C11.6531 15.9844 11.1562 15.8578 10.7812 15.675C10.4531 15.5109 10.3078 15.3797 8.43749 13.5188C7.34061 12.4266 6.43124 11.5313 6.42186 11.5313C6.4078 11.5313 4.95936 12.1922 3.20155 12.9984Z" fill="white"/>
<path d="M0 17.4281V18.7313L0.13125 18.8531C0.20625 18.9281 2.31094 19.8656 5.61094 21.3C8.55469 22.5797 10.9734 23.625 10.9875 23.625C11.0063 23.625 11.0156 23.0719 11.0156 22.3922V21.1641L5.54063 18.6609C2.53125 17.2828 0.05625 16.1484 0.0375 16.1391C0.0140625 16.1297 0 16.7063 0 17.4281Z" fill="white"/>
<path d="M18.4828 18.6469L12.9844 21.1641V22.3922C12.9844 23.0719 12.9984 23.625 13.0125 23.625C13.0266 23.625 15.45 22.5797 18.3938 21.3C21.9891 19.7391 23.7844 18.9328 23.8734 18.8484L24 18.7219L23.9906 17.4281L23.9766 16.1297L18.4828 18.6469Z" fill="white"/>
</svg>
