<svg width="24" height="24" viewBox="0 0 24 24" fill="none" xmlns="http://www.w3.org/2000/svg">
<path d="M9.54062 2.75831C7.59417 5.11321 7.2664 5.53679 7.2664 5.67294C7.2664 5.99062 7.3017 6.00071 8.7691 6.00071H10.0903V10.297V14.5984L10.6046 14.9765C11.5022 15.6422 12.3342 16.5297 12.9645 17.5029C13.2721 17.9819 13.7159 18.8291 13.8369 19.1871C13.9025 19.3687 13.9075 19.3182 13.9378 18.4459C13.9882 17.1197 14.1647 16.4591 14.6942 15.6472C15.3194 14.679 16.3229 13.9529 17.4222 13.6705C18.0727 13.4991 18.0072 13.368 18.0072 14.8505C18.0072 16.0708 18.0122 16.1414 18.108 16.2372C18.1635 16.2927 18.2643 16.338 18.3349 16.338C18.4206 16.338 19.2325 15.6976 21.2193 14.0537C23.7608 11.9611 23.9826 11.7594 23.9978 11.6081C24.0079 11.5173 23.9826 11.4064 23.9473 11.361C23.8919 11.2904 18.9804 7.22102 18.5921 6.91846C18.4055 6.77223 18.1887 6.77223 18.0878 6.91846C18.0172 7.01427 18.0072 7.23615 18.0072 8.35056V9.66668L17.6441 9.69694C16.5952 9.77762 15.0976 10.2869 14.1647 10.8719L13.9731 10.9929V8.4968V6.00071H15.2741C16.5045 6.00071 16.5851 5.99567 16.6709 5.89986C16.8776 5.67294 16.8474 5.62756 14.4572 2.7331C12.2082 0.0151363 12.193 8.4803e-06 12.0065 8.4803e-06C11.8199 8.4803e-06 11.8047 0.0151363 9.54062 2.75831Z" fill="white"/>
<path d="M2.77848 13.0604C0.0806817 15.2892 0.0302556 15.3346 0.0151278 15.5262L0 15.7178L2.72805 17.9719C4.23075 19.2123 5.51661 20.2511 5.58216 20.2814C5.68302 20.3318 5.7284 20.3217 5.84438 20.236L5.98053 20.1351L5.99566 18.8694L6.00574 17.6088L6.19736 17.6542C7.61433 18.0273 8.84977 19.051 9.5154 20.3973C9.92889 21.2395 9.99949 21.5622 10.0348 22.7976C10.055 23.5641 10.0852 23.8566 10.1356 23.9171C10.1961 23.9927 10.3928 24.0028 12.0064 24.0028C13.5344 24.0028 13.8167 23.9927 13.8722 23.9272C13.9176 23.8717 13.9277 23.554 13.9125 22.6564C13.8924 21.6883 13.8672 21.3504 13.7764 20.9167C13.0402 17.2911 10.2012 14.4622 6.60077 13.7613L6.00574 13.6503V12.304C6.00574 11.0635 6.0007 10.9525 5.91498 10.8769C5.68302 10.6651 5.67797 10.6651 2.77848 13.0604Z" fill="white"/>
</svg>
