<svg width="110" height="100" viewBox="0 0 110 100" fill="none" xmlns="http://www.w3.org/2000/svg">
<path d="M40.5156 23.1618C39.7543 23.6693 39.786 23.3309 39.786 31.1339V38.1439H38.6759C38.0732 38.1439 37.3225 38.1967 37.0159 38.2602C35.1656 38.6514 33.6536 40.0682 33.1673 41.8973C33.051 42.3202 33.0193 44.6569 33.0193 53.8661V65.3167H31.0844C28.9169 65.3167 28.642 65.3907 28.1768 66.0674L27.9336 66.4163L27.9653 69.916L27.997 73.4051L28.3882 74.2298C28.9169 75.3189 29.6782 76.0801 30.7672 76.6088L31.5919 77H55.0113H78.4307L79.2554 76.6088C80.3445 76.0801 81.1057 75.3189 81.6344 74.2298L82.0256 73.4051L82.0573 69.9477C82.089 66.1203 82.089 66.0886 81.4229 65.6128C81.0951 65.3802 80.9683 65.3696 79.044 65.3379L77.0034 65.2956V53.8555C77.0034 43.6419 76.9822 42.352 76.8342 41.8339C76.4536 40.544 75.6923 39.5289 74.6138 38.884C73.7468 38.3659 72.8481 38.1544 71.4313 38.1544L70.2366 38.1439V36.2513C70.2366 35.1728 70.1837 34.2212 70.1203 34.0521C70.004 33.7455 60.1287 23.7539 59.4097 23.2252L58.9974 22.9186H49.9362H40.8751L40.5156 23.1618ZM56.8087 30.6793C56.8087 35.2574 56.8087 35.2574 57.0519 35.6063C57.5594 36.357 57.5066 36.3464 62.4865 36.3464H66.9589V47.4482V58.5499H55.0113H43.0637V42.3202V26.0905H49.9362H56.8087V30.6793ZM62.3596 30.8484L64.58 33.0688H62.3279H60.0864V30.8484C60.0864 29.6219 60.097 28.6281 60.1181 28.6281C60.1287 28.6281 61.1437 29.6219 62.3596 30.8484ZM39.786 51.0007V60.58L40.0186 60.9923C40.1667 61.2567 40.4099 61.4787 40.6848 61.6161C41.1182 61.8276 41.3403 61.8276 55.0113 61.8276C68.6823 61.8276 68.9044 61.8276 69.3379 61.6161C69.6128 61.4787 69.8559 61.2567 70.004 60.9923L70.2366 60.58V51.0007V41.4215H71.2727C72.5309 41.4215 73.1019 41.6541 73.4825 42.3308L73.7257 42.7432V54.0247V65.3167H66.7792C58.7965 65.3167 59.4414 65.2427 58.3418 66.3635L57.718 67.0084H55.0113H52.3046L51.6808 66.3635C50.5812 65.2427 51.2261 65.3167 43.254 65.3167H36.2969V54.0247V42.7432L36.5401 42.3308C36.9207 41.6541 37.4917 41.4215 38.7499 41.4215H39.786V51.0007ZM49.6719 69.1336C49.9679 69.4297 50.412 69.8103 50.6658 69.9795L51.1415 70.2861H55.0113H58.8811L59.3568 69.9795C59.6106 69.8103 60.0547 69.4297 60.3507 69.1336L60.8688 68.5944H69.8982H78.9277L78.8854 70.5187C78.8536 72.3267 78.8325 72.4853 78.5999 72.8871C78.4624 73.1408 78.1664 73.4369 77.9126 73.5743L77.4791 73.8281H55.0113H32.5435L32.11 73.5743C31.8562 73.4369 31.5602 73.1408 31.4227 72.8871C31.1901 72.4853 31.169 72.3267 31.1372 70.5187L31.095 68.5944H40.1244H49.1538L49.6719 69.1336Z" fill="white"/>
<path d="M47.3996 29.8864C46.8815 30.1613 46.6172 30.6582 46.6172 31.3455C46.6172 31.9482 46.7969 32.2971 47.3362 32.6883C47.6005 32.8892 47.8014 32.9103 49.7574 32.942C51.8086 32.9737 51.9143 32.9632 52.3584 32.7306C53.4686 32.1596 53.5214 30.5525 52.4535 29.897C52.1363 29.7067 51.9143 29.6855 49.9371 29.6855C48.0234 29.6855 47.7274 29.7067 47.3996 29.8864Z" fill="white"/>
<path d="M47.5571 36.6003C46.246 37.1713 46.2989 39.1062 47.6417 39.6137C47.8108 39.6877 48.7941 39.73 49.9678 39.73C51.6912 39.73 52.0507 39.6983 52.3678 39.5397C53.5097 38.9687 53.5097 37.2136 52.3678 36.6426C52.0507 36.484 51.6912 36.4523 49.936 36.4523C48.4664 36.4629 47.7791 36.5052 47.5571 36.6003Z" fill="white"/>
<path d="M47.7368 43.2929C47.5994 43.3246 47.3033 43.5255 47.0813 43.7475C46.5209 44.3079 46.4257 44.9211 46.7747 45.619C47.261 46.5494 46.7641 46.4965 54.99 46.4965C61.4607 46.4965 62.2642 46.4754 62.5814 46.3274C63.8185 45.7353 63.6282 43.6946 62.3171 43.3246C61.9471 43.2189 48.2655 43.1977 47.7368 43.2929Z" fill="white"/>
<path d="M47.314 50.3031C46.9439 50.5357 46.5633 51.2229 46.5527 51.6776C46.5527 52.1216 46.9968 52.8723 47.3986 53.1049C47.7581 53.3164 47.9378 53.3164 55.0112 53.3164C62.1058 53.3164 62.2644 53.3164 62.6238 53.1049C63.6283 52.5023 63.6706 50.8952 62.6979 50.3031C62.3701 50.1022 62.1163 50.0916 55.0112 50.0916C47.8321 50.0916 47.6523 50.1022 47.314 50.3031Z" fill="white"/>
</svg>
