<svg width="24" height="24" viewBox="0 0 24 24" fill="none" xmlns="http://www.w3.org/2000/svg">
<path d="M0.53443 0.112501C0.300031 0.220325 0.168767 0.360964 0.0562557 0.623491C0.0140639 0.721938 0 3.13625 0 11.0214C0 21.1193 0 21.2881 0.0937596 21.4662C0.192207 21.6631 0.41723 21.8741 0.604749 21.9491C0.867276 22.0476 10.7683 24.0024 11.0168 24.0024C11.5277 24.0024 11.9028 23.679 12.0012 23.1633C12.0247 23.0273 12.0481 22.7132 12.0481 22.4742V22.0335H14.5843C16.3517 22.0335 17.1768 22.0194 17.3033 21.9819C17.5377 21.9069 17.7956 21.696 17.9221 21.4569L18.0253 21.26V18.0018V14.7437L17.9221 14.5515C17.5471 13.8483 16.6095 13.7826 16.1501 14.4296L16.0094 14.6359L15.9954 17.3033L15.986 19.9708H14.0171H12.0481V12.0293C12.0481 6.90069 12.0294 4.00352 12.0012 3.83944C11.945 3.54879 11.7575 3.25345 11.5559 3.13156C11.4762 3.08937 10.6652 2.82684 9.751 2.55025C8.83684 2.27835 8.07739 2.04395 8.06801 2.03457C8.05864 2.0252 9.83538 2.01582 12.0153 2.01582H15.986V4.62702C15.986 7.07415 15.9954 7.25698 16.0751 7.43044C16.3189 7.96018 16.933 8.16645 17.4721 7.89923C17.7674 7.74922 17.9409 7.51482 18.0018 7.15853C18.0347 6.98508 18.0487 5.82246 18.0393 3.81132C18.0253 0.904769 18.0206 0.71725 17.9362 0.562547C17.8143 0.332836 17.6784 0.192197 17.4768 0.0890611C17.308 0.00467749 17.0689 -1.04904e-05 9.03842 -1.04904e-05H0.773517L0.53443 0.112501Z" fill="white"/>
<path d="M19.5723 7.07414C19.2067 7.2429 18.9863 7.5945 18.9863 8.00236C18.991 8.38208 19.127 8.59304 19.8395 9.31499L20.5052 9.98537L17.5706 9.99475L14.6359 10.0088L14.4296 10.1495C13.7967 10.5995 13.853 11.5605 14.5374 11.9074C14.7109 11.9965 14.8234 12.0012 17.6362 12.0012H20.5568L19.8442 12.7138C19.4082 13.1544 19.1035 13.4967 19.0566 13.6045C18.8832 14.0264 19.0473 14.589 19.4129 14.8421C19.5629 14.9453 19.6708 14.9781 19.9005 14.9921C20.4349 15.0249 20.3974 15.0531 22.1882 13.2716C23.243 12.2215 23.8524 11.584 23.9087 11.4574C24.0212 11.2277 24.0306 10.8058 23.9321 10.5573C23.8196 10.2948 20.7724 7.25228 20.4677 7.10226C20.1818 6.96162 19.8395 6.94756 19.5723 7.07414Z" fill="white"/>
</svg>
