<svg width="24" height="25" viewBox="0 0 24 25" fill="none" xmlns="http://www.w3.org/2000/svg">
<path d="M10.205 0.0171111C8.69404 0.200119 7.657 0.467592 6.4651 0.979075C3.97807 2.03958 1.95091 4.09021 0.895096 6.61008C0.496233 7.57205 0.200605 8.63725 0.0598295 9.65552C-0.0199432 10.2515 -0.0199432 12.1285 0.0598295 12.6822C0.252222 13.9679 0.594775 15.0754 1.12034 16.1546C2.57501 19.1203 5.25444 21.1756 8.75035 22.0203C9.33223 22.1611 9.46362 22.1657 9.71232 22.0484C10.1863 21.8373 10.388 21.2319 10.1534 20.7439C9.99856 20.4201 9.83902 20.3357 9.0319 20.1245C8.12156 19.8946 7.66638 19.7256 6.89681 19.3502C5.57822 18.698 4.4004 17.7079 3.57921 16.5535C3.18035 15.9951 2.61255 14.8595 2.39201 14.1979C1.10157 10.2515 2.54217 5.77012 5.82223 3.52241C6.92028 2.77161 8.11687 2.30236 9.64193 2.02081C9.98448 1.95512 10.3411 1.93635 11.1905 1.93635C12.2134 1.94104 12.3354 1.95042 12.9032 2.06774C13.9637 2.29298 14.921 2.65899 15.775 3.16109C18.004 4.4703 19.5619 6.62416 20.1297 9.1675C20.2705 9.7963 20.3362 9.93707 20.5896 10.1435C20.7585 10.2796 20.796 10.289 21.1573 10.289C21.5093 10.289 21.5609 10.2796 21.7204 10.1529C22.1099 9.8573 22.185 9.5429 22.0348 8.81556C21.5891 6.64293 20.5426 4.77062 18.8815 3.1564C17.2063 1.5281 15.2917 0.542672 12.9501 0.106269C12.5419 0.0264961 10.6227 -0.029814 10.205 0.0171111Z" fill="white"/>
<path d="M10.6039 4.27323C10.5053 4.32954 10.3552 4.47031 10.2754 4.57824L10.1346 4.78471L10.1206 7.40782L10.1065 10.0356L9.94694 10.2468C9.77801 10.4673 9.64192 10.838 9.64192 11.0867C9.64192 11.2134 9.48707 11.3824 8.29987 12.5414C7.56314 13.2594 6.9015 13.9351 6.83111 14.0383C6.58241 14.4137 6.70441 15.0238 7.0892 15.3194C7.22528 15.4179 7.32383 15.4508 7.55376 15.4649C7.718 15.4742 7.92916 15.4602 8.02301 15.4273C8.14971 15.3851 8.57203 15.0003 9.63723 13.9445C11.0309 12.5696 11.0919 12.518 11.2655 12.518C11.6597 12.5133 12.1243 12.1848 12.3495 11.7437C12.6029 11.2557 12.5231 10.5565 12.1759 10.1858L12.0351 10.0356V7.46413C12.0351 5.06157 12.0257 4.87856 11.9459 4.70494C11.8427 4.48439 11.6456 4.2873 11.4579 4.21692C11.228 4.12776 10.8104 4.15591 10.6039 4.27323Z" fill="white"/>
<path d="M16.6572 11.4199C13.9497 11.8375 11.9835 13.7333 11.4392 16.4409C11.3266 17.0228 11.3266 18.3367 11.4392 18.9185C12.0586 22.0203 14.5268 24.0146 17.7459 24.0146C19.7168 24.0146 21.5844 23.0573 22.781 21.4337C23.1376 20.9457 23.5834 20.0494 23.7429 19.4863C24.7049 16.1453 22.8889 12.701 19.6041 11.6311C18.7454 11.3495 17.6239 11.2697 16.6572 11.4199ZM18.5483 13.3438C19.0551 13.4471 19.6229 13.6911 20.0781 13.9914C20.5239 14.287 21.1761 14.9534 21.4108 15.3475C22.2929 16.8257 22.2929 18.5337 21.4108 20.0119C21.1761 20.406 20.5239 21.0724 20.0781 21.368C19.3414 21.856 18.5483 22.0954 17.6708 22.0907C15.1556 22.0813 13.2552 20.1855 13.2552 17.6797C13.2552 15.5305 14.6488 13.799 16.7276 13.3579C17.2391 13.25 18.065 13.2453 18.5483 13.3438Z" fill="white"/>
<path d="M17.1734 15.066C17.0749 15.1223 16.9247 15.2631 16.8449 15.371C16.7089 15.5681 16.7042 15.5962 16.6854 16.1593L16.6713 16.7412H16.1223C15.4841 16.7412 15.3058 16.8116 15.0618 17.1542C14.9398 17.3325 14.921 17.3982 14.921 17.6797C14.921 17.9613 14.9398 18.027 15.0618 18.2053C15.3058 18.5478 15.4841 18.6182 16.1223 18.6182H16.6713L16.6854 19.2001C16.7042 19.7632 16.7089 19.7913 16.8449 19.9884C17.0467 20.2653 17.2954 20.4014 17.6286 20.4014C17.9477 20.4014 18.1119 20.3451 18.2949 20.1761C18.5389 19.9462 18.6046 19.735 18.6046 19.1438V18.6182H19.1396C19.4352 18.6182 19.7355 18.5948 19.8106 18.5666C20.1297 18.4493 20.3878 18.0504 20.3878 17.6797C20.3878 17.309 20.1297 16.9101 19.8106 16.7928C19.7355 16.7647 19.4352 16.7412 19.1396 16.7412H18.6046V16.211C18.6046 15.798 18.5859 15.6432 18.5155 15.4977C18.4122 15.2771 18.2151 15.0801 18.0274 15.0097C17.7975 14.9205 17.3799 14.9487 17.1734 15.066Z" fill="white"/>
</svg>
