<svg width="25" height="25" viewBox="0 0 25 25" fill="none" xmlns="http://www.w3.org/2000/svg">
<path d="M6.4941 0.496285C5.59863 0.75642 4.87326 1.36173 4.47805 2.17716C4.21792 2.70743 4.16789 2.99758 4.16789 3.9931V4.89357L3.08233 5.55391C2.48202 5.9141 1.8717 6.3043 1.72663 6.41435C1.46649 6.61946 1.16634 6.94963 1.16634 7.03968C1.16634 7.09471 12.4922 14.6586 12.5723 14.6586C12.6723 14.6586 23.9782 7.0847 23.9782 7.01967C23.9782 6.98465 23.8331 6.80456 23.653 6.62947C23.4029 6.38434 23.0477 6.13921 22.1522 5.60393L20.9766 4.89857V3.9931C20.9766 2.95256 20.9266 2.68742 20.6214 2.09712C20.2512 1.39175 19.6209 0.836462 18.8605 0.556316L18.5003 0.426249L12.6473 0.416244C7.19947 0.406238 6.77424 0.411241 6.4941 0.496285ZM12.9625 3.35277C13.1626 3.47783 13.3026 3.69795 13.3477 3.97309C13.3777 4.16319 13.4027 4.1882 13.6778 4.32327C14.008 4.48836 14.4932 4.9636 14.6383 5.26376C14.8084 5.61894 14.6984 6.01915 14.3682 6.24427C14.2231 6.34432 14.1531 6.35933 13.9029 6.34432C13.6078 6.32431 13.5978 6.3143 13.3276 6.01915C12.9875 5.64896 12.9024 5.60393 12.5622 5.60393C12.072 5.60393 11.7718 5.90409 11.7718 6.40435C11.7718 6.90961 12.047 7.17475 12.6173 7.22978C13.4777 7.30482 14.1481 7.69002 14.5783 8.36036C15.0285 9.06573 15.0385 10.0813 14.6083 10.8216C14.4332 11.1168 13.938 11.567 13.6278 11.7121C13.4027 11.8222 13.3777 11.8522 13.3477 12.0373C13.2776 12.4775 12.9725 12.7576 12.5723 12.7576C12.172 12.7576 11.8669 12.4775 11.7968 12.0373C11.7668 11.8472 11.7418 11.8222 11.5067 11.7121C11.2015 11.567 10.6312 11.0167 10.5012 10.7366C10.2661 10.2363 10.6212 9.65103 11.1615 9.64603C11.4417 9.64603 11.5917 9.72607 11.8269 10.0062C12.097 10.3314 12.2471 10.4064 12.5823 10.4064C13.0725 10.4064 13.3727 10.1013 13.3727 9.60601C13.3727 9.10075 13.1025 8.83561 12.5272 8.78058C11.6468 8.69554 10.9964 8.32034 10.5662 7.65C10.116 6.94463 10.106 5.9291 10.5362 5.18872C10.7113 4.88856 11.2616 4.3883 11.5417 4.27324C11.7518 4.1882 11.7718 4.15818 11.8019 3.97309C11.8669 3.53286 12.167 3.25271 12.5723 3.25271C12.7073 3.25271 12.8624 3.29274 12.9625 3.35277Z" fill="white"/>
<path d="M0.571034 14.9188C0.571034 18.4206 0.591044 21.3271 0.606052 21.3771C0.636068 21.4521 1.23138 21.0469 4.24294 18.9308C8.5952 15.8642 8.38008 16.0093 8.64022 16.0093C9.10046 16.0093 9.44063 16.3795 9.40562 16.8247C9.39561 16.9598 9.34058 17.1249 9.28555 17.1999C9.23053 17.27 7.43459 18.5657 5.28848 20.0714C3.14737 21.5822 1.38646 22.8329 1.37645 22.8579C1.35644 22.9179 1.80167 23.2831 2.15185 23.4932C2.72215 23.8334 3.30745 23.9384 5.99385 24.1586C8.4151 24.3587 9.22552 24.3887 12.6223 24.3887C16.009 24.3887 16.6644 24.3637 19.1757 24.1586C21.787 23.9484 22.4224 23.8334 22.9927 23.4932C23.3428 23.2781 23.7881 22.9179 23.7681 22.8579C23.7581 22.8329 21.9971 21.5772 19.851 20.0714C17.7049 18.5606 15.909 17.27 15.859 17.1999C15.6338 16.8948 15.7239 16.3745 16.0391 16.1494C16.2342 16.0093 16.6094 15.9743 16.8045 16.0744C16.8845 16.1144 18.6504 17.345 20.7265 18.8058L24.5034 21.4672L24.5385 21.3171C24.5635 21.237 24.5735 18.3305 24.5685 14.8587L24.5535 8.54545L18.7655 12.3975C15.5838 14.5186 12.9374 16.2745 12.8824 16.3045C12.8224 16.3345 12.6773 16.3595 12.5522 16.3595C12.3321 16.3595 12.082 16.1994 6.46909 12.4575C3.24742 10.3114 0.606052 8.55546 0.591044 8.55546C0.576037 8.55546 0.566031 11.4219 0.571034 14.9188Z" fill="white"/>
</svg>
