<svg width="110" height="100" viewBox="0 0 110 100" fill="none" xmlns="http://www.w3.org/2000/svg">
<path d="M29.671 24.2087C29.5185 24.3104 29.2948 24.534 29.1932 24.6865C29.0102 24.9712 29 25.6625 29 50.041C29 74.4195 29.0102 75.1108 29.1932 75.3954C29.2948 75.5479 29.5185 75.7716 29.671 75.8732C29.9556 76.0562 30.4843 76.0664 46.7908 76.0664C63.0974 76.0664 63.626 76.0562 63.9107 75.8732C64.0631 75.7716 64.2868 75.5479 64.3885 75.3954C64.5715 75.121 64.5816 74.8465 64.5816 71.0036V66.9168L66.0862 66.927H67.5806L68.4448 67.9843C68.9226 68.5739 69.2987 69.1229 69.2987 69.2246C69.2886 69.3262 69.1767 69.682 69.0547 70.0175C68.8616 70.536 68.8413 70.78 68.8718 71.6949C68.9023 72.6607 68.9429 72.8336 69.2581 73.474C69.7054 74.4093 70.5085 75.2124 71.4438 75.6699C72.1351 76.0054 72.1859 76.0156 73.4262 76.0156C74.6665 76.0156 74.7173 76.0054 75.4086 75.6699C76.3439 75.2124 77.147 74.4093 77.6045 73.474C77.94 72.7827 77.9501 72.7319 77.9501 71.4916C77.9501 70.2514 77.94 70.2005 77.6045 69.5092C77.147 68.5739 76.3439 67.7708 75.4086 67.3133C74.7275 66.9778 74.6563 66.9677 73.5279 66.9677C72.8874 66.9677 72.2368 66.988 72.0843 67.0185C71.8403 67.0693 71.6979 66.9372 70.6203 65.6461C69.9697 64.8633 69.3191 64.1415 69.1666 64.05C68.9327 63.8873 68.6278 63.867 66.747 63.867H64.5816V62.3421V60.8171H68.3329H72.0843L72.3689 61.3966C72.7552 62.1997 73.6194 63.0435 74.4936 63.4705C75.1849 63.806 75.2358 63.8162 76.4761 63.8162C77.7163 63.8162 77.7672 63.806 78.4585 63.4705C79.3937 63.013 80.1969 62.2099 80.6544 61.2746C80.9898 60.5833 81 60.5325 81 59.2922C81 58.0519 80.9898 58.0011 80.6544 57.3098C80.1969 56.3745 79.3937 55.5714 78.4585 55.1139C77.7672 54.7784 77.7163 54.7683 76.4761 54.7683C75.2358 54.7683 75.1849 54.7784 74.4936 55.1139C73.6194 55.5409 72.7552 56.3847 72.3689 57.1776L72.0843 57.7673H68.3329H64.5816V56.2424V54.7174H66.747C68.6278 54.7174 68.9327 54.6971 69.1666 54.5344C69.3191 54.4429 69.9697 53.7211 70.6203 52.9384C71.6979 51.6472 71.8403 51.5151 72.0843 51.5659C72.2368 51.5964 72.8874 51.6167 73.5279 51.6167C74.6563 51.6167 74.7275 51.6066 75.4086 51.2711C76.3439 50.8136 77.147 50.0105 77.6045 49.0752C77.94 48.3839 77.9501 48.3331 77.9501 47.0928C77.9501 45.8525 77.94 45.8017 77.6045 45.1104C77.147 44.1751 76.3439 43.372 75.4086 42.9145C74.7173 42.579 74.6665 42.5688 73.4262 42.5688C72.1859 42.5688 72.1351 42.579 71.4438 42.9145C70.5085 43.372 69.7054 44.1751 69.2581 45.1104C68.9429 45.7509 68.9023 45.9237 68.8718 46.8895C68.8413 47.8044 68.8616 48.0484 69.0547 48.5669C69.1767 48.9024 69.2886 49.2582 69.2987 49.3599C69.2987 49.4615 68.9226 50.0105 68.4448 50.6001L67.5806 51.6574H66.0862L64.5816 51.6676V43.4025V35.1272L64.2868 34.7307C63.9412 34.2631 54.0698 24.4222 53.7038 24.1782C53.4802 24.0257 52.4127 24.0156 41.7077 24.0156C30.3724 24.0156 29.9556 24.0257 29.671 24.2087ZM51.3656 31.6605C51.3656 36.0015 51.3758 36.2861 51.5587 36.5606C51.6604 36.7131 51.8841 36.9368 52.0366 37.0384C52.311 37.2214 52.5957 37.2316 56.9367 37.2316H61.5318V55.1241V73.0166H46.7908H32.0499V50.041V27.0654H41.7077H51.3656V31.6605ZM56.8553 31.7927L59.2444 34.1818H56.8248H54.4154V31.7927C54.4154 30.4813 54.4256 29.4036 54.4459 29.4036C54.4561 29.4036 55.5439 30.4813 56.8553 31.7927ZM74.1785 45.8627C74.6156 46.1575 74.8495 46.5743 74.8495 47.0928C74.8495 47.6113 74.6156 48.0281 74.1785 48.3229C73.5584 48.7296 72.6332 48.5059 72.1961 47.8451C71.7894 47.225 72.0131 46.2998 72.6739 45.8627C72.8569 45.7509 73.1517 45.6695 73.4262 45.6695C73.7007 45.6695 73.9955 45.7509 74.1785 45.8627ZM77.2284 58.0621C77.6655 58.3569 77.8993 58.7737 77.8993 59.2922C77.8993 60.1055 77.2893 60.7155 76.4761 60.7155C75.6628 60.7155 75.0528 60.1055 75.0528 59.2922C75.0528 58.4789 75.6628 57.8689 76.4761 57.8689C76.7505 57.8689 77.0454 57.9503 77.2284 58.0621ZM74.1785 70.2615C74.6156 70.5563 74.8495 70.9732 74.8495 71.4916C74.8495 72.9352 72.9992 73.4537 72.1961 72.2439C71.7894 71.6238 72.0131 70.6987 72.6739 70.2615C73.0602 70.0074 73.7922 70.0074 74.1785 70.2615Z" fill="white"/>
<path d="M35.7706 30.3083C35.3029 30.6235 35.0996 31.0098 35.0996 31.6401C35.0996 32.2704 35.3029 32.6567 35.7706 32.9719C36.0552 33.1549 36.35 33.165 41.7076 33.165C47.0652 33.165 47.36 33.1549 47.6447 32.9719C48.1123 32.6567 48.3156 32.2704 48.3156 31.6401C48.3156 31.0098 48.1123 30.6235 47.6447 30.3083C47.36 30.1254 47.0652 30.1152 41.7076 30.1152C36.35 30.1152 36.0552 30.1254 35.7706 30.3083Z" fill="white"/>
<path d="M35.7706 36.408C35.3029 36.7231 35.0996 37.1094 35.0996 37.7397C35.0996 38.37 35.3029 38.7563 35.7706 39.0715C36.0552 39.2545 36.35 39.2646 41.7076 39.2646C47.0652 39.2646 47.36 39.2545 47.6447 39.0715C48.1123 38.7563 48.3156 38.37 48.3156 37.7397C48.3156 37.1094 48.1123 36.7231 47.6447 36.408C47.36 36.225 47.0652 36.2148 41.7076 36.2148C36.35 36.2148 36.0552 36.225 35.7706 36.408Z" fill="white"/>
<path d="M35.7706 42.5081C35.3029 42.8232 35.0996 43.2095 35.0996 43.8398C35.0996 44.4701 35.3029 44.8564 35.7706 45.1716C36.0552 45.3546 36.4517 45.3647 46.7907 45.3647C57.1297 45.3647 57.5262 45.3546 57.8109 45.1716C58.2785 44.8564 58.4818 44.4701 58.4818 43.8398C58.4818 43.2095 58.2785 42.8232 57.8109 42.5081C57.5262 42.3251 57.1297 42.3149 46.7907 42.3149C36.4517 42.3149 36.0552 42.3251 35.7706 42.5081Z" fill="white"/>
<path d="M35.7706 48.6077C35.3029 48.9228 35.0996 49.3091 35.0996 49.9394C35.0996 50.5697 35.3029 50.956 35.7706 51.2712C36.0552 51.4542 36.4517 51.4644 46.7907 51.4644C57.1297 51.4644 57.5262 51.4542 57.8109 51.2712C58.2785 50.956 58.4818 50.5697 58.4818 49.9394C58.4818 49.3091 58.2785 48.9228 57.8109 48.6077C57.5262 48.4247 57.1297 48.4145 46.7907 48.4145C36.4517 48.4145 36.0552 48.4247 35.7706 48.6077Z" fill="white"/>
<path d="M35.7706 54.7073C35.3029 55.0224 35.0996 55.4087 35.0996 56.039C35.0996 56.6693 35.3029 57.0557 35.7706 57.3708C36.0552 57.5538 36.4517 57.564 46.7907 57.564C57.1297 57.564 57.5262 57.5538 57.8109 57.3708C58.2785 57.0557 58.4818 56.6693 58.4818 56.039C58.4818 55.4087 58.2785 55.0224 57.8109 54.7073C57.5262 54.5243 57.1297 54.5141 46.7907 54.5141C36.4517 54.5141 36.0552 54.5243 35.7706 54.7073Z" fill="white"/>
<path d="M35.7706 60.8069C35.3029 61.122 35.0996 61.5083 35.0996 62.1386C35.0996 62.769 35.3029 63.1553 35.7706 63.4704C36.0451 63.6534 36.3297 63.6636 40.691 63.6636C45.0523 63.6636 45.337 63.6534 45.6114 63.4704C46.0791 63.1553 46.2824 62.769 46.2824 62.1386C46.2824 61.5083 46.0791 61.122 45.6114 60.8069C45.337 60.6239 45.0523 60.6137 40.691 60.6137C36.3297 60.6137 36.0451 60.6239 35.7706 60.8069Z" fill="white"/>
<path d="M47.9698 67.1101C47.5022 67.4253 47.2988 67.8116 47.2988 68.4419C47.2988 69.0722 47.5022 69.4585 47.9698 69.7736C48.2443 69.9566 48.5289 69.9668 52.8902 69.9668C57.2515 69.9668 57.5362 69.9566 57.8107 69.7736C58.2783 69.4585 58.4816 69.0722 58.4816 68.4419C58.4816 67.8116 58.2783 67.4253 57.8107 67.1101C57.5362 66.9271 57.2515 66.9169 52.8902 66.9169C48.5289 66.9169 48.2443 66.9271 47.9698 67.1101Z" fill="white"/>
</svg>
