<svg width="25" height="25" viewBox="0 0 25 25" fill="none" xmlns="http://www.w3.org/2000/svg">
<path d="M3.38832 0.133015C2.20397 0.393885 1.26484 1.34345 1.0144 2.53302C0.899618 3.08085 0.899618 21.0287 1.0144 21.5766C1.20745 22.4948 1.80745 23.2879 2.62136 23.6896C3.39354 24.0705 3.02832 24.0548 10.317 24.0548C13.9171 24.0548 16.8492 24.034 16.8388 24.0131C16.8336 23.9922 16.7658 23.8409 16.6979 23.6844L16.5727 23.3922L15.9414 23.3974C15.3571 23.4027 15.2892 23.3922 15.0075 23.2618C14.4701 23.0114 13.8649 22.2809 13.3744 21.2948C13.0458 20.6322 12.9623 20.3348 12.9623 19.8548C12.9623 19.38 13.0823 19.0566 13.4214 18.6131C13.531 18.4774 13.6144 18.3418 13.6144 18.3157C13.6144 18.2896 13.531 18.1539 13.4214 18.0183C13.0823 17.5748 12.9623 17.2513 12.9623 16.7766C12.9623 16.307 13.0405 16.02 13.3536 15.3679C13.8127 14.4183 14.4701 13.6252 15.0075 13.3696C15.2892 13.2391 15.3571 13.2287 15.9414 13.2339L16.5675 13.2391L16.7449 12.8426C17.1936 11.8461 18.0023 11.4913 19.7084 11.5487L20.4545 11.5696L20.4388 8.98174L20.4232 6.39391L20.2771 6.08086C20.1466 5.80434 19.8179 5.44955 17.4597 3.0965C14.9553 0.592146 14.7675 0.414755 14.4231 0.253015L14.0579 0.0808407L8.89269 0.0704058C4.61441 0.0651884 3.67006 0.0756232 3.38832 0.133015ZM18.1171 7.03565C17.9501 7.04608 17.0423 7.04608 16.0927 7.03565C14.5431 7.02 14.3501 7.00956 14.1779 6.92086C13.9171 6.79565 13.6353 6.47217 13.5675 6.22695C13.531 6.10173 13.5101 5.29303 13.5101 4.07216V2.11563L15.9623 4.56781L18.4145 7.02L18.1171 7.03565ZM14.971 9.68609C15.5292 10.0148 15.5292 10.7557 14.971 11.0844C14.7884 11.1939 14.7362 11.1939 10.1397 11.1939H5.49616L5.28224 11.0531C4.68224 10.6565 4.83355 9.76957 5.53268 9.60261C5.63181 9.57653 7.7553 9.56609 10.2492 9.56609C14.7258 9.57653 14.7884 9.57653 14.971 9.68609ZM11.0579 13.5783C11.2301 13.667 11.324 13.7609 11.4127 13.9331C11.6162 14.3244 11.5066 14.6948 11.1101 14.9609L10.9379 15.0809H8.22486C5.56398 15.0809 5.51181 15.0809 5.31877 14.9713C4.96398 14.7679 4.79702 14.2826 4.97442 13.9435C5.06833 13.7661 5.25616 13.5887 5.42311 13.5209C5.50137 13.4896 6.57094 13.4687 8.18834 13.4687C10.8231 13.4635 10.8284 13.4635 11.0579 13.5783ZM11.0579 17.4548C11.2718 17.5644 11.4805 17.8618 11.5118 18.0913C11.5484 18.394 11.3553 18.7279 11.0579 18.8792L10.8231 18.994L8.13095 18.9835L5.43877 18.9679L5.25094 18.8218C5.14659 18.7435 5.02137 18.6079 4.97963 18.5244C4.80224 18.18 4.95355 17.6948 5.31355 17.4913C5.49616 17.3818 5.54833 17.3766 8.20399 17.3766C10.5049 17.3766 10.9275 17.387 11.0579 17.4548Z" fill="white"/>
<path d="M18.7014 12.6339C18.2892 12.6913 17.9345 12.8426 17.8301 13.0096C17.7884 13.0722 17.6788 13.3122 17.5849 13.5418C17.3606 14.0896 17.3032 14.1731 17.0684 14.2931C16.8858 14.387 16.8492 14.387 16.3066 14.314C15.6284 14.22 15.4301 14.2566 15.1484 14.5435C14.731 14.9609 14.0997 16.1035 14.0058 16.6044C13.9536 16.8861 14.0527 17.1157 14.4284 17.6114C14.7362 18.0183 14.7623 18.0705 14.7623 18.3157C14.7623 18.5609 14.7362 18.6131 14.4284 19.0201C14.0527 19.5157 13.9536 19.7453 14.0058 20.027C14.0997 20.5279 14.731 21.6705 15.1484 22.0879C15.4301 22.3748 15.6284 22.4114 16.3066 22.3175L16.8753 22.2392L17.1101 22.3644C17.3292 22.4844 17.3553 22.5262 17.5536 23.0114C17.8719 23.8149 18.0075 23.914 18.9101 24.0131C19.578 24.0862 20.5066 24.0027 20.8197 23.8462C21.0493 23.7262 21.1171 23.6218 21.3832 22.9853C21.5553 22.5679 21.6023 22.5001 21.811 22.3748L22.0406 22.2392L22.6406 22.3175C23.2249 22.3957 23.251 22.3957 23.4806 22.2966C23.8667 22.1244 24.5345 21.1488 24.8319 20.314C25.0093 19.8235 24.9623 19.6409 24.5188 19.0566C24.1797 18.6079 24.1536 18.5557 24.1536 18.3157C24.1536 18.0705 24.1797 18.0183 24.5188 17.5748C24.9728 16.9696 25.0093 16.8131 24.811 16.26C24.498 15.4044 23.8406 14.4705 23.4493 14.3192C23.2301 14.2409 23.1727 14.2357 22.6301 14.314L22.0406 14.3922L21.811 14.2566C21.6023 14.1313 21.5553 14.0635 21.3832 13.6461C21.1171 13.0096 21.0493 12.9052 20.8249 12.7905C20.4701 12.6079 19.4788 12.5348 18.7014 12.6339ZM20.1153 16.8235C20.491 17.0009 20.7362 17.2305 20.9188 17.5957C21.0545 17.867 21.0753 17.9714 21.0753 18.3157C21.0753 18.6601 21.0545 18.7644 20.9188 19.0357C20.7467 19.3748 20.5223 19.6044 20.1727 19.787C19.9901 19.8861 19.8701 19.907 19.4579 19.907C19.0406 19.907 18.9258 19.8861 18.7379 19.787C18.451 19.6305 18.1379 19.3174 17.9919 19.0357C17.851 18.7644 17.804 18.1801 17.8875 17.8618C18.0127 17.4079 18.5188 16.8809 18.9571 16.7557C19.2858 16.6566 19.8284 16.6931 20.1153 16.8235Z" fill="white"/>
</svg>
