<svg width="24" height="24" viewBox="0 0 24 24" fill="none" xmlns="http://www.w3.org/2000/svg">
<path d="M4.55112 0.0890623C4.01675 0.24375 3.6605 0.459375 3.22925 0.890625C2.59644 1.52344 2.33862 2.14219 2.33862 3.04687C2.33862 3.95156 2.59644 4.57031 3.22925 5.20312C3.86206 5.83594 4.48081 6.09375 5.3855 6.09375C6.29019 6.09375 6.90894 5.83594 7.54175 5.20312C8.17456 4.57031 8.43237 3.95156 8.43237 3.04687C8.43237 2.14219 8.17456 1.52344 7.54175 0.890625C7.10581 0.454687 6.698 0.210937 6.15425 0.0749998C5.75581 -0.0281252 4.9355 -0.0187502 4.55112 0.0890623Z" fill="white"/>
<path d="M13.2886 0.0890621C12.9933 0.285937 12.9792 0.346875 12.9792 1.40625C12.9792 2.46562 12.9933 2.52656 13.2886 2.72344C13.4199 2.80781 13.5558 2.8125 16.0167 2.8125H18.6042V4.64062V6.46875H18.0558C17.7511 6.46875 17.4183 6.49219 17.3152 6.51562C17.0808 6.56719 16.8417 6.82031 16.7949 7.05C16.7246 7.42969 16.748 7.4625 18.1683 9.08437C18.9042 9.92812 19.5652 10.6547 19.6308 10.6969C19.7105 10.7531 19.8417 10.7812 20.0105 10.7812C20.1792 10.7812 20.3105 10.7531 20.3902 10.6969C20.4558 10.6547 21.1167 9.92812 21.8527 9.08437C23.273 7.4625 23.2964 7.42969 23.2261 7.05C23.1792 6.82031 22.9402 6.56719 22.7058 6.51562C22.6027 6.49219 22.2699 6.46875 21.9699 6.46875H21.4167V3.75937V1.05469L21.3042 0.820312C21.1449 0.478125 20.9808 0.304687 20.6574 0.145312L20.3714 -4.28408e-07H16.898C13.5746 -4.28408e-07 13.4199 0.00468707 13.2886 0.0890621Z" fill="white"/>
<path d="M2.05738 6.28594C1.43863 6.66094 0.796439 7.37344 0.449564 8.07656C0.0792511 8.81719 0.0323761 9.06094 0.00893858 10.2187C-0.0191864 11.3437 0.00425109 11.4422 0.299564 11.625C0.449564 11.7188 0.552688 11.7188 5.3855 11.7188C10.2183 11.7188 10.3214 11.7188 10.4714 11.625C10.7668 11.4422 10.7902 11.3437 10.7621 10.2187C10.748 9.36094 10.7293 9.15937 10.6402 8.85937C10.4902 8.33906 10.1621 7.71094 9.81519 7.27969C9.51988 6.91406 8.948 6.40312 8.66206 6.25781C8.53081 6.1875 8.52144 6.1875 8.14175 6.49219C6.50581 7.78594 4.26988 7.78594 2.63394 6.49219C2.41831 6.32344 2.24019 6.1875 2.2355 6.1875C2.22613 6.1875 2.14644 6.23437 2.05738 6.28594Z" fill="white"/>
<path d="M17.7699 12.3703C17.2355 12.525 16.8792 12.7406 16.448 13.1719C15.8152 13.8047 15.5574 14.4234 15.5574 15.3281C15.5574 16.2328 15.8152 16.8516 16.448 17.4844C17.0808 18.1172 17.6996 18.375 18.6042 18.375C19.5089 18.375 20.1277 18.1172 20.7605 17.4844C21.3933 16.8516 21.6511 16.2328 21.6511 15.3281C21.6511 14.4234 21.3933 13.8047 20.7605 13.1719C20.3246 12.7359 19.9167 12.4922 19.373 12.3562C18.9746 12.2531 18.1542 12.2625 17.7699 12.3703Z" fill="white"/>
<path d="M3.59956 13.3031C3.53393 13.3453 2.873 14.0719 2.13706 14.9156C0.721435 16.5375 0.69331 16.5703 0.763622 16.9453C0.810497 17.1891 1.03081 17.4141 1.27925 17.4797C1.39643 17.5078 1.73393 17.5312 2.02925 17.5312H2.573V20.2359V22.9453L2.6855 23.1797C2.84487 23.5219 3.00893 23.6953 3.33237 23.8547L3.61831 24H7.09175C10.4152 24 10.5699 23.9953 10.7011 23.9109C10.9964 23.7141 11.0105 23.6531 11.0105 22.5937C11.0105 21.5344 10.9964 21.4734 10.7011 21.2766C10.5699 21.1922 10.4339 21.1875 7.97768 21.1875H5.3855V19.3594V17.5312H5.92925C6.22456 17.5312 6.56206 17.5078 6.67925 17.4797C6.92768 17.4141 7.148 17.1891 7.19487 16.9453C7.26518 16.5703 7.23706 16.5375 5.82143 14.9156C5.0855 14.0719 4.42456 13.3453 4.35893 13.3031C4.27925 13.2469 4.148 13.2187 3.97925 13.2187C3.8105 13.2187 3.67925 13.2469 3.59956 13.3031Z" fill="white"/>
<path d="M15.2761 18.5672C14.6574 18.9422 14.0152 19.6547 13.6683 20.3578C13.298 21.0984 13.2511 21.3422 13.2277 22.5C13.1996 23.625 13.223 23.7234 13.5183 23.9062C13.6683 24 13.7714 24 18.6043 24C23.4371 24 23.5402 24 23.6902 23.9062C23.9855 23.7234 24.0089 23.625 23.9808 22.5C23.9668 21.6422 23.948 21.4406 23.8589 21.1406C23.7089 20.6203 23.3808 19.9922 23.0339 19.5609C22.7386 19.1953 22.1668 18.6844 21.8808 18.5391C21.7496 18.4687 21.7402 18.4687 21.3605 18.7734C19.7246 20.0672 17.4886 20.0672 15.8527 18.7734C15.6371 18.6047 15.4589 18.4687 15.4543 18.4687C15.4449 18.4687 15.3652 18.5156 15.2761 18.5672Z" fill="white"/>
</svg>
