<svg width="24" height="24" viewBox="0 0 24 24" fill="none" xmlns="http://www.w3.org/2000/svg">
<g clip-path="url(#clip0_3343_1187)">
<path d="M4.22813 0.121875C4.09688 0.1875 3.89531 0.346875 3.77813 0.473437C3.40313 0.890625 3.42188 0.646875 3.42188 5.09531V9.04688H12H20.5781V7.5V5.95781L17.8969 5.94375C15.2297 5.92969 15.2109 5.92969 15.0469 5.82656C14.9578 5.77031 14.8406 5.65312 14.7891 5.56875C14.7 5.41875 14.6953 5.32031 14.6813 2.70469L14.6672 -3.59491e-07H9.57188H4.47188L4.22813 0.121875ZM10.8188 3.16406C11.2688 3.43594 11.2688 4.06406 10.8188 4.33594C10.6688 4.425 10.5797 4.42969 8.8125 4.42969C7.04532 4.42969 6.95625 4.425 6.80625 4.33594C6.27188 4.0125 6.39375 3.23906 7.00313 3.08906C7.08282 3.07031 7.94063 3.05625 8.90625 3.06094C10.575 3.07031 10.6734 3.075 10.8188 3.16406ZM10.8188 6.16406C11.2688 6.43594 11.2688 7.06406 10.8188 7.33594C10.6688 7.425 10.5797 7.42969 8.8125 7.42969C7.04532 7.42969 6.95625 7.425 6.80625 7.33594C6.27188 7.0125 6.39375 6.23906 7.00313 6.08906C7.08282 6.07031 7.94063 6.05625 8.90625 6.06094C10.575 6.07031 10.6734 6.075 10.8188 6.16406Z" fill="white"/>
<path d="M16.0781 2.48437V4.54688H18.15H20.2266L18.1641 2.48437C17.0297 1.35 16.0969 0.421875 16.0922 0.421875C16.0828 0.421875 16.0781 1.35 16.0781 2.48437Z" fill="white"/>
<path d="M0.309375 10.5422C0.239063 10.5891 0.135938 10.6922 0.0890625 10.7625C0.0046875 10.8937 0 11.0625 0 15C0 18.9375 0.0046875 19.1062 0.0890625 19.2375C0.135938 19.3078 0.239063 19.4109 0.309375 19.4578C0.440625 19.5422 0.759375 19.5469 12 19.5469C23.2406 19.5469 23.5594 19.5422 23.6906 19.4578C23.7609 19.4109 23.8641 19.3078 23.9109 19.2375C23.9953 19.1062 24 18.9375 24 15C24 11.0625 23.9953 10.8937 23.9109 10.7625C23.8641 10.6922 23.7609 10.5891 23.6906 10.5422C23.5594 10.4578 23.2406 10.4531 12 10.4531C0.759375 10.4531 0.440625 10.4578 0.309375 10.5422ZM8.20313 11.7984C8.41875 11.9297 8.53125 12.1312 8.53125 12.375C8.53125 12.6187 8.41875 12.8203 8.20313 12.9516C8.05781 13.0406 7.95469 13.0547 7.37344 13.0734L6.70781 13.0875L6.69375 15.4406C6.67969 17.6906 6.675 17.7937 6.58594 17.9437C6.31406 18.3937 5.68594 18.3937 5.41406 17.9437C5.325 17.7937 5.32031 17.6906 5.30625 15.4406L5.29219 13.0875L4.62656 13.0687C4.06875 13.0547 3.9375 13.0359 3.80625 12.9609C3.27188 12.6422 3.39375 11.8641 4.00313 11.7141C4.08281 11.6953 5.025 11.6812 6.09375 11.6859C8.00625 11.6953 8.04375 11.6953 8.20313 11.7984ZM12.375 11.7891C12.45 11.8266 12.5625 11.9297 12.6234 12.0094C12.7922 12.2391 14.7188 17.4094 14.7188 17.6344C14.7188 18.0047 14.4422 18.2812 14.0672 18.2812C13.6875 18.2812 13.5375 18.1406 13.3219 17.5641L13.1906 17.2266H12H10.8141L10.6453 17.6484C10.4484 18.1406 10.2938 18.2812 9.95156 18.2812C9.55781 18.2812 9.28125 18.0187 9.28125 17.6437C9.28125 17.5078 9.57188 16.6828 10.2891 14.7937C10.8422 13.3312 11.3344 12.0797 11.3859 12.0047C11.4375 11.9344 11.55 11.8406 11.6344 11.7984C11.8313 11.7 12.1969 11.6953 12.375 11.7891ZM16.4719 11.8078C16.5563 11.8641 16.8984 12.2953 17.2969 12.8625C17.6719 13.3922 17.9859 13.8234 18 13.8234C18.0141 13.8234 18.3281 13.3922 18.7031 12.8625C19.1016 12.2953 19.4438 11.8641 19.5281 11.8078C19.7016 11.7 20.0156 11.6906 20.2031 11.7891C20.475 11.9297 20.625 12.3984 20.4797 12.6656C20.4516 12.7172 20.0813 13.2469 19.65 13.8422C19.2234 14.4422 18.8719 14.9625 18.8719 15C18.8719 15.0375 19.2234 15.5578 19.65 16.1578C20.0813 16.7531 20.4516 17.2828 20.4797 17.3344C20.625 17.6016 20.475 18.0703 20.2031 18.2109C20.0156 18.3094 19.6922 18.3 19.5234 18.1922C19.4438 18.1453 19.0875 17.6859 18.7031 17.1422C18.3281 16.6078 18.0141 16.1766 18 16.1766C17.9859 16.1766 17.6719 16.6078 17.2969 17.1422C16.9125 17.6859 16.5563 18.1453 16.4766 18.1922C16.1859 18.375 15.7359 18.2719 15.5625 17.9859C15.4594 17.8219 15.4406 17.4891 15.5203 17.3344C15.5484 17.2828 15.9188 16.7531 16.35 16.1578C16.7766 15.5578 17.1281 15.0375 17.1281 15C17.1281 14.9625 16.7766 14.4422 16.35 13.8422C15.9188 13.2469 15.5484 12.7172 15.5203 12.6656C15.4453 12.525 15.4594 12.2062 15.5391 12.0422C15.6984 11.7375 16.1672 11.6203 16.4719 11.8078Z" fill="white"/>
<path d="M11.9578 14.2031C11.9297 14.2688 11.7844 14.6485 11.6344 15.0469L11.3578 15.7735L11.6813 15.7875C11.8547 15.7969 12.1453 15.7969 12.3234 15.7875L12.6469 15.7735L12.3469 14.9766C12.1828 14.536 12.0422 14.1563 12.0281 14.1328C12.0188 14.1047 11.9906 14.1375 11.9578 14.2031Z" fill="white"/>
<path d="M3.42188 21.9469C3.42188 22.8937 3.42656 22.9594 3.53438 23.1797C3.69375 23.5219 3.85781 23.6953 4.18125 23.8547L4.46719 24H12H19.5328L19.8188 23.8547C20.1422 23.6953 20.3063 23.5219 20.4656 23.1797C20.5734 22.9594 20.5781 22.8937 20.5781 21.9469V20.9531H12H3.42188V21.9469Z" fill="white"/>
</g>
<defs>
<clipPath id="clip0_3343_1187">
<rect width="24" height="24" fill="white"/>
</clipPath>
</defs>
</svg>
