<svg width="24" height="24" viewBox="0 0 24 24" fill="none" xmlns="http://www.w3.org/2000/svg">
<path d="M2.75745 0.097618C1.98053 0.349448 1.31613 1.02992 1.08573 1.8122C1.01072 2.07475 1 3.12493 1 12.0033C1 21.5674 1.00536 21.9103 1.1018 22.2265C1.34828 23.0141 2.02339 23.6839 2.81639 23.9143C3.07893 23.9893 3.90408 24 10.4195 24C17.5993 24 17.7333 24 18.1619 23.8928C19.2443 23.6196 20.0105 23.2713 20.782 22.6873C21.8804 21.8568 22.7431 20.5708 23.1074 19.2045C23.295 18.4973 23.3485 17.2113 23.2199 16.4719C22.8824 14.543 21.7947 13.0052 20.0105 11.9229L19.8604 11.8372V6.96667C19.8604 2.33729 19.8551 2.08011 19.7586 1.76934C19.5122 0.981701 18.837 0.311941 18.044 0.0815437C17.7815 0.00653066 16.9564 -0.0041855 10.4088 0.00117258C3.43793 0.00117258 3.04679 0.00653066 2.75745 0.097618ZM17.4171 1.76398C17.6797 1.82292 17.8726 1.96223 18.0119 2.19798C18.1191 2.3748 18.1191 2.49268 18.1351 6.822C18.1458 11.0602 18.1458 11.2585 18.0548 11.221C17.8779 11.146 16.3455 11.1245 15.8847 11.1942C14.7863 11.3549 13.6129 11.8854 12.7074 12.6355L12.4395 12.8552H9.14428C5.95086 12.8552 5.8437 12.8606 5.67224 12.9624C5.41506 13.1231 5.28646 13.3642 5.28646 13.7125C5.28646 14.0608 5.41506 14.3019 5.67224 14.4626C5.8437 14.5644 5.95086 14.5698 8.47988 14.5698H11.116L10.8803 15.1431C10.3231 16.5255 10.2695 18.1758 10.7303 19.5849C10.9982 20.4208 11.4697 21.2299 12.0859 21.9103L12.4234 22.2908L7.9012 22.2747C3.454 22.2586 3.37899 22.2586 3.19681 22.1461C2.93962 21.9961 2.77888 21.7442 2.74138 21.412C2.7253 21.2567 2.71458 16.9113 2.7253 11.7568C2.74138 2.49268 2.74138 2.38016 2.84854 2.19798C2.98249 1.97294 3.18074 1.81756 3.41649 1.76398C3.67368 1.70504 17.16 1.69968 17.4171 1.76398ZM18.6281 14.6716C18.896 14.8645 19.0139 15.1056 18.9871 15.4003C18.971 15.636 18.8102 15.9307 17.5779 17.9668C16.801 19.2527 16.1259 20.3136 16.0508 20.3726C15.7186 20.6137 15.2846 20.5762 14.9953 20.2815C14.8346 20.1261 14.8024 20.0511 14.781 19.7939L14.7542 19.4939L16.1848 17.1202C17.5243 14.8806 17.6208 14.7359 17.8351 14.6287C18.103 14.4948 18.4084 14.5108 18.6281 14.6716ZM15.1346 14.7305C15.8312 15.1538 15.5311 16.2308 14.7167 16.2308C13.9022 16.2308 13.6022 15.1538 14.2987 14.7305C14.5291 14.5912 14.9042 14.5912 15.1346 14.7305ZM19.4211 19.017C20.1176 19.4403 19.8176 20.5172 19.0031 20.5172C18.5477 20.5172 18.1994 20.169 18.1994 19.7135C18.1994 19.2581 18.5477 18.9098 19.0031 18.9098C19.1478 18.9098 19.3139 18.9527 19.4211 19.017Z" fill="white"/>
<path d="M5.67225 4.38946C5.41506 4.55021 5.28647 4.79132 5.28647 5.13959C5.28647 5.48787 5.41506 5.72898 5.67225 5.88973C5.84371 5.99153 5.95087 5.99689 10.4302 5.99689C14.9096 5.99689 15.0167 5.99153 15.1882 5.88973C15.4454 5.72898 15.574 5.48787 15.574 5.13959C15.574 4.79132 15.4454 4.55021 15.1882 4.38946C15.0167 4.28766 14.9096 4.2823 10.4302 4.2823C5.95087 4.2823 5.84371 4.28766 5.67225 4.38946Z" fill="white"/>
<path d="M5.67225 8.6759C5.41506 8.83664 5.28647 9.07776 5.28647 9.42603C5.28647 9.77431 5.41506 10.0154 5.67225 10.1762C5.84371 10.278 5.95087 10.2833 10.4302 10.2833C14.9096 10.2833 15.0167 10.278 15.1882 10.1762C15.4454 10.0154 15.574 9.77431 15.574 9.42603C15.574 9.07776 15.4454 8.83664 15.1882 8.6759C15.0167 8.5741 14.9096 8.56874 10.4302 8.56874C5.95087 8.56874 5.84371 8.5741 5.67225 8.6759Z" fill="white"/>
<path d="M5.67225 18.1061C5.41506 18.2669 5.28647 18.508 5.28647 18.8563C5.28647 19.2045 5.41506 19.4457 5.67225 19.6064C5.83835 19.7082 5.94551 19.7136 7.4297 19.7136C8.91389 19.7136 9.02105 19.7082 9.18715 19.6064C9.44434 19.4457 9.57293 19.2045 9.57293 18.8563C9.57293 18.508 9.44434 18.2669 9.18715 18.1061C9.02105 18.0043 8.91389 17.999 7.4297 17.999C5.94551 17.999 5.83835 18.0043 5.67225 18.1061Z" fill="white"/>
</svg>
