<svg width="24" height="24" viewBox="0 0 24 24" fill="none" xmlns="http://www.w3.org/2000/svg">
<path d="M1.3438 1.07934C0.71405 1.30248 0.213223 1.8876 0.0545455 2.59174C0.0247934 2.7157 0 3.50413 0 4.38182V5.95868H11.9554H23.9058L23.8909 4.33223L23.876 2.71075L23.7322 2.41322C23.5388 2.02149 23.0281 1.52066 22.6116 1.30744C22.0463 1.0248 21.8826 1 20.4198 1H19.0959L19.081 2.24959C19.0661 3.41488 19.0612 3.51405 18.9669 3.63802C18.8628 3.78678 18.5256 3.97521 18.3719 3.97521C18.2182 3.97521 17.881 3.78678 17.7769 3.63802C17.6826 3.51405 17.6777 3.41488 17.6628 2.24959L17.6479 1H11.6529H5.65289V2.19504C5.65289 3.33554 5.64793 3.4 5.5438 3.58347C5.40992 3.82149 5.07769 4 4.84959 3.95537C4.61157 3.91075 4.38347 3.74215 4.29421 3.55868C4.22975 3.41984 4.21488 3.19174 4.21488 2.19504V1H2.89091C1.82479 1.00496 1.51736 1.01984 1.3438 1.07934Z" fill="white"/>
<path d="M0 14.5719C0 20.3239 0.014876 21.6975 0.0694215 21.9008C0.233058 22.5206 0.6 22.9768 1.13058 23.2297L1.46281 23.3884L11.6529 23.4033C20.8661 23.4132 21.8678 23.4082 22.1157 23.3339C22.9636 23.0909 23.6479 22.476 23.8959 21.7372C24 21.4347 24 21.3752 24 14.4628V7.49585H12H0V14.5719ZM6.9124 10.3421C7.00165 10.3768 7.12066 10.4711 7.18017 10.5454C7.2843 10.6744 7.28926 10.7289 7.28926 11.7454C7.28926 12.9206 7.26942 13.0248 6.97686 13.1983C6.83306 13.2876 6.72397 13.2975 5.77686 13.2975C4.6562 13.2975 4.57686 13.2826 4.39339 13.0347C4.29421 12.9008 4.28926 12.8314 4.28926 11.7851C4.28926 10.238 4.24959 10.2777 5.79174 10.2777C6.49587 10.2727 6.78843 10.2925 6.9124 10.3421ZM12.8083 10.3421C12.8975 10.3768 13.0116 10.4562 13.0661 10.5206C13.1603 10.6248 13.1653 10.6992 13.1653 11.8149V13L13.0264 13.1339L12.8926 13.2727H11.7074H10.5223L10.3934 13.1537C10.1851 12.9554 10.1554 12.762 10.1752 11.676C10.195 10.2529 10.1702 10.2777 11.6926 10.2777C12.3917 10.2727 12.6893 10.2925 12.8083 10.3421ZM18.8281 10.352C19.1504 10.5107 19.1653 10.5653 19.1653 11.7603C19.1653 12.3454 19.1504 12.8909 19.1256 12.9653C19.1058 13.0396 19.0165 13.1438 18.9273 13.1983C18.7835 13.2876 18.6744 13.2975 17.6876 13.2975C16.1008 13.2975 16.1653 13.362 16.1653 11.7702C16.1653 10.7289 16.1702 10.6744 16.2744 10.5454C16.4628 10.3025 16.6017 10.2777 17.6678 10.2727C18.4859 10.2727 18.6843 10.2876 18.8281 10.352ZM6.99174 17.0909C7.27438 17.2347 7.29421 17.3537 7.27934 18.5438C7.2595 20.0661 7.30909 20.0165 5.72727 20.0165C4.72066 20.0165 4.68099 20.0115 4.52727 19.9025C4.28926 19.7339 4.25455 19.5306 4.27438 18.4C4.28926 17.4975 4.29917 17.4082 4.39339 17.2793C4.57686 17.0314 4.6562 17.0165 5.79174 17.0165C6.63967 17.0165 6.87769 17.0314 6.99174 17.0909ZM12.8926 17.0909C13.1653 17.2347 13.1901 17.3487 13.1901 18.5388C13.1901 20.1008 13.2397 20.0611 11.5736 20.0314C10.1455 20.0115 10.1702 20.0363 10.1702 18.514C10.1653 17.4677 10.195 17.314 10.438 17.1256C10.5719 17.0215 10.6215 17.0165 11.6628 17.0165C12.5355 17.0165 12.7785 17.0314 12.8926 17.0909ZM18.838 17.081C18.9025 17.1107 19.0066 17.2049 19.0612 17.2793C19.1603 17.4132 19.1653 17.4826 19.1653 18.5289C19.1653 20.076 19.205 20.0363 17.6628 20.0363C16.6165 20.0413 16.4628 20.0115 16.2744 19.7686C16.1702 19.6347 16.1653 19.5851 16.1653 18.5438C16.1653 16.957 16.1008 17.0215 17.6529 17.0215C18.4017 17.0165 18.7537 17.0363 18.838 17.081Z" fill="white"/>
</svg>
