<svg width="110" height="109" viewBox="0 0 110 109" fill="none" xmlns="http://www.w3.org/2000/svg">
<path d="M35.3111 27.1294C34.7355 27.4935 32.5977 29.5843 31.5875 30.7825C28.5452 34.412 26.5249 38.2413 25.315 42.6462C24.8569 44.3259 24.8099 45.0189 25.1506 45.571C25.5264 46.1818 26.0315 46.4402 26.795 46.3932C27.8992 46.3227 28.2633 45.8999 28.6744 44.2319C29.8491 39.416 32.398 35.0346 36.2038 31.2641C38.0127 29.4669 38.1771 29.2085 38.0244 28.4097C37.9187 27.8342 37.5546 27.3291 37.0965 27.1176C36.5562 26.8592 35.7574 26.8592 35.3111 27.1294Z" fill="white"/>
<path d="M53.2358 27.1411C51.8263 27.6697 50.8044 28.5977 50.1348 29.9602C49.7707 30.7237 49.7589 30.7707 49.7002 32.8263L49.6415 34.9171L48.643 35.3283C43.0988 37.5835 39.1638 42.7636 38.4238 48.766C38.3533 49.3415 38.3063 52.4778 38.3063 56.3071C38.3063 63.5662 38.2829 63.8247 37.5546 65.3634C37.3314 65.8333 36.7793 66.679 36.3095 67.2546C34.1364 69.9679 33.4904 71.9413 33.4904 75.8293C33.4904 77.697 33.5139 77.8849 33.7723 78.4252C33.925 78.7424 34.1952 79.1535 34.3831 79.3297C35.1231 80.0227 35.0409 80.011 41.6893 80.011H47.7856L47.856 80.8097C48.0675 83.3234 49.8999 85.6492 52.4958 86.6829C53.2241 86.9648 53.412 87 54.986 87C56.56 87 56.748 86.9648 57.4762 86.6829C60.0956 85.6374 61.9046 83.3234 62.1277 80.751L62.1865 80.011H68.2828C74.9311 80.011 74.8489 80.0227 75.5889 79.3297C75.7769 79.1535 76.047 78.7424 76.1997 78.4252C76.4582 77.8849 76.4816 77.697 76.4816 75.8293C76.4816 71.9413 75.8356 69.9679 73.6625 67.2546C73.1927 66.679 72.6406 65.8333 72.4174 65.3634C71.6892 63.8247 71.6657 63.5662 71.6657 56.3071C71.6657 49.3885 71.607 48.4371 71.1254 46.5459C69.8215 41.5303 66.1097 37.2781 61.329 35.3283L60.3306 34.9171L60.2718 32.8263C60.2131 30.7355 60.2131 30.7355 59.8137 29.9132C59.2851 28.8326 58.3572 27.9046 57.2765 27.3878C56.513 27.0119 56.3486 26.9767 55.1622 26.9532C54.105 26.9179 53.7527 26.9532 53.2358 27.1411ZM55.8317 30.7472C56.4426 31.0644 56.6305 31.5695 56.6305 32.9203V34.1419H54.986H53.3415V32.9085C53.3415 31.9101 53.3885 31.6164 53.5647 31.3463C54.105 30.524 54.939 30.3009 55.8317 30.7472ZM57.0534 37.9007C61.5874 38.629 65.5341 41.8474 67.1434 46.1113C67.9539 48.2726 67.9421 48.0612 68.0244 56.401C68.0948 63.6485 68.1066 64.0126 68.3415 64.8818C68.7291 66.2561 69.2577 67.4425 69.9625 68.4527L70.5968 69.3806L62.7973 69.4159C58.4981 69.4276 51.4739 69.4276 47.1748 69.4159L39.3753 69.3806L40.0096 68.4527C40.7143 67.4425 41.2429 66.2561 41.6305 64.8818C41.8655 64.0126 41.8772 63.6485 41.9477 56.401C42.0182 49.2006 42.0417 48.7777 42.2766 47.8733C42.9931 45.1364 44.1207 43.1748 46.0236 41.3541C49.0072 38.5115 53.0361 37.2429 57.0534 37.9007ZM72.6876 73.2217C72.7346 73.3039 72.7933 74.0791 72.8168 74.9249L72.8638 76.4871H54.986H37.1082L37.1552 74.9249C37.1787 74.0791 37.2374 73.3039 37.2844 73.2217C37.3666 73.1159 41.0315 73.0807 54.986 73.0807C68.9406 73.0807 72.6054 73.1159 72.6876 73.2217ZM58.5099 80.2811C58.5099 81.1621 57.6642 82.4425 56.7127 82.9945C55.7025 83.5818 54.2695 83.5818 53.2593 82.9945C52.3079 82.4425 51.4621 81.1621 51.4621 80.2811V80.011H54.986H58.5099V80.2811Z" fill="white"/>
<path d="M72.8403 27.1411C72.0885 27.5287 71.7244 28.5389 72.0181 29.3377C72.0885 29.5139 72.899 30.4066 73.8152 31.311C77.5623 35.0111 80.123 39.4394 81.2976 44.2319C81.7087 45.8999 82.0728 46.3227 83.177 46.3932C83.9405 46.4402 84.4456 46.1818 84.8215 45.571C85.1621 45.0189 85.1151 44.3259 84.657 42.6462C83.4472 38.2413 81.4268 34.412 78.3845 30.7825C77.3743 29.5843 75.2365 27.4935 74.661 27.1294C74.2029 26.8592 73.3689 26.8592 72.8403 27.1411Z" fill="white"/>
<path d="M39.5397 32.7793C39.0346 33.0965 36.932 35.293 36.1685 36.315C34.0542 39.1341 32.5742 42.3055 31.8459 45.5358C31.5288 46.9571 31.611 47.4856 32.257 48.0495C32.7504 48.4841 33.3494 48.6133 33.9955 48.4136C34.712 48.2022 35.0879 47.7323 35.3111 46.7339C35.9806 43.7268 37.2022 41.0604 38.9759 38.6994C39.3518 38.1944 40.2327 37.1842 40.9375 36.4559C42.1944 35.1521 42.2178 35.1168 42.2766 34.506C42.3353 33.7308 42.0769 33.1317 41.5366 32.7911C41.0315 32.4857 40.033 32.4739 39.5397 32.7793Z" fill="white"/>
<path d="M68.4472 32.7793C67.8482 33.1787 67.6367 33.6486 67.6955 34.4356L67.7425 35.1286L69.0345 36.4559C72.0533 39.5922 73.7448 42.6697 74.661 46.7339C74.8842 47.7323 75.26 48.2022 75.9766 48.4136C76.6226 48.6133 77.2217 48.4841 77.715 48.0495C78.3611 47.4856 78.4433 46.9571 78.1261 45.5358C77.3979 42.3055 75.9178 39.1341 73.8035 36.315C73.0165 35.2578 70.7965 32.9555 70.3501 32.7206C69.8803 32.4739 68.8583 32.5092 68.4472 32.7793Z" fill="white"/>
</svg>
