<svg width="24" height="24" viewBox="0 0 24 24" fill="none" xmlns="http://www.w3.org/2000/svg">
<path d="M10.6838 0.0191508C10.6087 0.0285295 10.3411 0.0613552 10.0971 0.0894915C8.56234 0.258309 6.84925 0.764763 5.30981 1.501C4.58234 1.84801 4.44153 1.94649 4.34297 2.18096C4.20217 2.50921 4.33359 2.93126 4.63866 3.16573C4.92026 3.38144 5.1784 3.34861 5.85425 3.02036C7.38429 2.27474 8.84394 1.85739 10.5429 1.67919C11.1531 1.61354 12.7207 1.61354 13.2886 1.67919C14.8515 1.8527 16.4285 2.28881 17.9679 2.97346C18.3528 3.14697 18.7376 3.29234 18.8315 3.30641C19.0662 3.33924 19.39 3.18917 19.559 2.96877C19.7373 2.7343 19.7702 2.2935 19.6294 2.06841C19.5073 1.87146 19.4182 1.81987 18.6484 1.46817C17.1512 0.78352 15.593 0.32865 14.0161 0.10356C13.4857 0.0285295 11.0639 -0.0324325 10.6838 0.0191508Z" fill="white"/>
<path d="M10.2848 2.96874C7.73629 3.2923 5.45061 4.23487 3.50755 5.77299C2.59703 6.49515 1.30634 7.90197 1.07167 8.42718C0.959032 8.68041 0.982499 9.0368 1.11861 9.21969C1.29696 9.45884 1.44715 9.53387 1.75691 9.53387C2.13238 9.53387 2.22156 9.47291 2.67212 8.9055C4.56825 6.5186 7.24818 5.018 10.3787 4.57719C10.9607 4.49747 12.8896 4.49747 13.4528 4.57719C15.7855 4.90545 17.7755 5.73547 19.4275 7.05788C20.1175 7.61123 20.7511 8.26774 21.3659 9.06963C21.6147 9.39319 21.8212 9.51043 22.1356 9.51043C22.3844 9.51043 22.5487 9.4354 22.7317 9.24313C23.0931 8.86329 23.0321 8.51159 22.4782 7.80818C20.4272 5.22433 17.4469 3.55022 13.9222 3.01094C13.2463 2.90308 10.9982 2.87964 10.2848 2.96874Z" fill="white"/>
<path d="M10.7541 5.69328C8.52946 5.96995 6.66618 6.82342 5.0188 8.31933C3.49814 9.69801 2.49845 11.4003 2.12298 13.2432C1.7522 15.0674 1.93994 17.2714 2.66272 19.4988C2.77067 19.8458 2.85984 20.0334 2.94902 20.1178C3.4559 20.6008 4.37111 20.2585 4.37111 19.5879C4.37111 19.4754 4.29133 19.1471 4.18338 18.847C3.73281 17.5199 3.55446 16.4836 3.55446 15.1143C3.55446 14.3264 3.56854 14.092 3.65772 13.6512C3.94401 12.2162 4.54477 11.0861 5.5914 10.0075C7.04166 8.5116 8.75475 7.65813 10.8011 7.4049C11.3737 7.32987 12.5892 7.34394 13.2088 7.42366C15.0861 7.66751 16.7851 8.5116 18.1603 9.8809C19.5965 11.3065 20.3005 12.9478 20.3052 14.8798V15.6301L20.155 15.9537C19.8875 16.507 19.2586 17.0088 18.639 17.1494C17.6206 17.3839 16.4331 16.8259 16.006 15.9161C15.884 15.6535 15.8559 15.5269 15.823 15.0345C15.7714 14.3639 15.6916 14.0216 15.4757 13.5668C14.9594 12.4835 13.8565 11.6769 12.6174 11.48C12.1246 11.4003 11.261 11.4425 10.8105 11.5738C9.54324 11.9302 8.49191 12.9665 8.16338 14.1858C8.08359 14.4859 8.06482 14.6781 8.06951 15.2784C8.08359 17.6465 8.86269 19.5926 10.4725 21.2527C11.6647 22.4813 13.0727 23.3347 14.7294 23.8365C15.41 24.0428 15.7057 24.0522 15.9216 23.874C16.3017 23.5505 16.297 22.8283 15.9075 22.5751C15.8465 22.5375 15.5461 22.4156 15.2363 22.3125C13.0727 21.5715 11.2235 20.0616 10.3599 18.3359C9.90463 17.4308 9.65588 16.2819 9.68404 15.2362C9.69812 14.6641 9.7122 14.5703 9.82484 14.3264C10.0595 13.8294 10.5946 13.3604 11.1578 13.1682C12.1481 12.8258 13.3073 13.2104 13.8518 14.0591C14.0583 14.3827 14.1287 14.65 14.1803 15.3018C14.2507 16.3054 14.5323 16.9384 15.1894 17.5996C16.0201 18.439 16.8931 18.7954 18.0993 18.7954C19.3055 18.7954 20.2113 18.4156 20.9951 17.5809C21.8446 16.6711 22.0793 15.8036 21.9197 14.1717C21.7085 12.0146 20.8543 10.2092 19.3008 8.66635C17.7614 7.13292 16.0483 6.22318 13.9456 5.81989C13.3824 5.71203 13.1759 5.69797 12.1152 5.68859C11.4581 5.67921 10.8433 5.6839 10.7541 5.69328Z" fill="white"/>
<path d="M11.1625 8.57725C9.87179 8.70856 8.7313 9.14936 7.64243 9.93249C7.17778 10.2701 6.39399 11.0814 6.07484 11.5597C5.3192 12.6945 5.01413 13.759 5.01413 15.2549C5.01882 17.942 5.79793 20.0287 7.6612 22.3594C8.10238 22.9127 8.70783 23.5739 8.8721 23.6818C9.05984 23.8084 9.45408 23.7943 9.69344 23.6536C10.0408 23.4473 10.2003 22.9596 10.0314 22.6313C9.99382 22.5563 9.76385 22.2843 9.52448 22.0217C7.45 19.738 6.6662 17.8998 6.65212 15.2784C6.65212 14.4859 6.68967 14.2045 6.86802 13.6371C7.25757 12.4132 8.2338 11.3346 9.5104 10.7062C10.2473 10.3452 10.787 10.2138 11.6741 10.181C12.4625 10.1529 12.9319 10.1998 13.5655 10.3827C14.7248 10.7156 15.87 11.555 16.5364 12.5585C17.0011 13.2619 17.2123 13.8997 17.2733 14.8235C17.2967 15.1471 17.339 15.4519 17.3671 15.5035C17.4657 15.6911 17.7379 15.8833 17.9585 15.9115C18.2824 15.963 18.4842 15.9021 18.7048 15.7004L18.8972 15.5175L18.9113 15.0252C18.9347 14.4015 18.8315 13.7309 18.6156 13.0931C18.3152 12.1928 17.8928 11.4987 17.2123 10.7906C16.0905 9.61361 14.7858 8.9102 13.2417 8.64759C12.716 8.5585 11.6788 8.52098 11.1625 8.57725Z" fill="white"/>
<path d="M11.6271 14.3405C11.4628 14.3921 11.2892 14.5468 11.1859 14.7391C11.0217 15.0392 11.1437 16.3382 11.4112 17.1588C12.1528 19.4285 14.3352 21.1682 16.8696 21.5106C17.4751 21.595 18.5499 21.5762 19.0521 21.473C19.2914 21.4215 19.5543 21.3417 19.6387 21.2949C19.972 21.0979 20.0799 20.5868 19.864 20.235C19.6434 19.8787 19.4088 19.813 18.7001 19.9021C17.2545 20.085 16.0624 19.8271 14.9594 19.1049C13.8049 18.3452 13.1102 17.4074 12.838 16.235C12.8005 16.0615 12.7488 15.6723 12.7301 15.3675C12.6972 14.9314 12.669 14.7813 12.5893 14.65C12.4109 14.3639 11.9979 14.2326 11.6271 14.3405Z" fill="white"/>
</svg>
