<svg width="36" height="36" viewBox="0 0 36 36" fill="none" xmlns="http://www.w3.org/2000/svg">
<path d="M0.543912 0.551623C0.428745 0.674468 0.375 0.828024 0.375 1.02765C0.375 1.3194 0.451778 1.40386 2.88564 3.8454L5.40396 6.36372H3.97589C2.64763 6.36372 2.53246 6.3714 2.34052 6.52495C2.17928 6.6478 2.14089 6.74761 2.14089 7.01633C2.14089 7.28506 2.17928 7.38487 2.34052 7.50771C2.54014 7.66127 2.63227 7.66895 4.88187 7.66895H7.2236L7.44626 7.44629L7.66891 7.22363V4.94333C7.66891 2.62463 7.65356 2.45572 7.36948 2.24074C7.16218 2.07951 6.76293 2.12557 6.55563 2.33287C6.36369 2.51714 6.36369 2.5325 6.36369 3.99896V5.48077L3.80698 2.92406C1.4115 0.52859 1.24259 0.375034 0.981546 0.375034C0.797279 0.375034 0.659079 0.428779 0.543912 0.551623Z" fill="white"/>
<path d="M32.5604 2.92406L30.0113 5.48077V3.99896C30.0113 2.5325 30.0113 2.51714 29.8194 2.33287C29.6121 2.12557 29.2128 2.07951 29.0055 2.24074C28.7215 2.45572 28.7061 2.62463 28.7061 4.94333V7.22363L28.9288 7.44629L29.1514 7.66895H31.4931C33.7427 7.66895 33.8349 7.66127 34.0345 7.50771C34.1957 7.38487 34.2341 7.28506 34.2341 7.01633C34.2341 6.74761 34.1957 6.6478 34.0345 6.52495C33.8425 6.3714 33.7274 6.36372 32.3991 6.36372H30.9711L33.4894 3.8454C35.9539 1.37315 36 1.32708 36 1.01997C36 0.628401 35.762 0.375034 35.3781 0.375034C35.1401 0.375034 34.9251 0.566979 32.5604 2.92406Z" fill="white"/>
<path d="M8.17565 10.2103C7.19289 10.4099 6.07193 11.1854 5.51145 12.053C4.45959 13.7037 4.68993 15.8995 6.06425 17.2739L6.51724 17.7269L6.1871 17.8881C5.02007 18.487 3.92982 19.6079 3.36935 20.8056C2.90868 21.7961 2.81654 22.3566 2.80119 24.1148C2.79351 25.6734 2.79351 25.7118 2.9701 25.8807L3.14669 26.0573L6.97023 26.0803L10.7938 26.1033L10.8398 25.4277C10.8936 24.6062 11.1162 23.8077 11.5078 22.9631C11.9147 22.0955 12.3601 21.4967 13.1585 20.7365L13.8265 20.0916L13.4887 19.4236C13.1355 18.7096 12.8361 18.4179 11.9915 17.9649C11.7919 17.8574 11.6076 17.7576 11.5923 17.7499C11.5769 17.7345 11.7689 17.5119 12.0222 17.2508C12.8591 16.3756 13.1969 15.5233 13.1969 14.3179C13.1969 12.4983 12.1528 11.0011 10.4636 10.3792C9.85709 10.1642 8.79755 10.0798 8.17565 10.2103Z" fill="white"/>
<path d="M26.6331 10.1796C26.1801 10.2563 25.4584 10.5404 25.0438 10.8091C23.8614 11.5692 23.1627 12.8821 23.1704 14.3332C23.1704 15.5003 23.5313 16.3832 24.3528 17.2508C24.6061 17.5119 24.7981 17.7422 24.7827 17.7575C24.7674 17.7652 24.537 17.8957 24.2683 18.034C23.585 18.3948 23.2395 18.748 22.871 19.462L22.5485 20.0762L23.3547 20.8824C24.2223 21.75 24.6906 22.4487 25.0898 23.4852C25.3662 24.1915 25.5582 25.0975 25.5582 25.6734V26.0956H29.2435C33.4049 26.0956 33.3742 26.0956 33.5431 25.5889C33.6967 25.1359 33.5969 22.7021 33.3972 21.942C32.9442 20.1914 31.7542 18.6866 30.1879 17.8881L29.8578 17.7268L30.3108 17.2738C31.2782 16.3064 31.7158 14.863 31.4471 13.5424C31.2628 12.6518 30.925 12.0299 30.2877 11.385C29.6658 10.7631 29.0286 10.4022 28.2531 10.2333C27.7694 10.1335 27.0554 10.1105 26.6331 10.1796Z" fill="white"/>
<path d="M17.6116 12.8207C16.7441 12.9282 15.7076 13.4503 15.1394 14.0491C14.7862 14.4253 14.3793 15.1317 14.1874 15.7229C13.934 16.4676 13.9417 17.5656 14.2104 18.3103C14.4407 18.9706 14.8476 19.5925 15.316 20.0301C15.5079 20.2067 15.6538 20.3603 15.6385 20.368C15.6231 20.3756 15.4081 20.4985 15.1548 20.6444C13.7497 21.4121 12.7209 22.6867 12.1911 24.2913C12.0376 24.775 12.0145 25.013 11.9838 26.6023L11.9531 28.3759L12.1604 28.5448L12.3754 28.7061H18.1875H23.9996L24.2146 28.5448L24.4219 28.3759L24.3911 26.6023C24.3604 25.013 24.3374 24.775 24.1838 24.2913C23.6541 22.6867 22.6253 21.4121 21.2202 20.6444C20.9668 20.4985 20.7519 20.3833 20.7442 20.3756C20.7288 20.368 20.9208 20.1607 21.1665 19.9073C22.464 18.5637 22.7327 16.6058 21.8498 14.9244C21.082 13.4656 19.3238 12.598 17.6116 12.8207Z" fill="white"/>
<path d="M2.47104 28.7829C2.11018 28.9364 2.01805 29.5583 2.31748 29.8424C2.4864 30.0036 2.56317 30.0113 3.94518 30.0113H5.40396L2.88564 32.5296C0.382678 35.0403 0.375 35.048 0.375 35.3704C0.375 35.8004 0.574623 36 1.00458 36C1.32705 36 1.33473 35.9923 3.84537 33.4894L6.36369 30.971V32.4375C6.36369 33.8656 6.37136 33.904 6.54027 34.0652C6.76293 34.2802 7.20057 34.2879 7.44626 34.0882L7.63052 33.9423V31.5162C7.63052 29.0977 7.63052 29.0977 7.45393 28.9211C7.28502 28.7445 7.26199 28.7445 4.95865 28.7291C3.68413 28.7214 2.56317 28.7445 2.47104 28.7829Z" fill="white"/>
<path d="M29.09 28.8059C28.7214 28.9978 28.7061 29.113 28.7214 31.6083L28.7445 33.9423L28.9287 34.0882C29.1821 34.2955 29.6351 34.2802 29.8424 34.0575C30.0036 33.8886 30.0113 33.8118 30.0113 32.4298V30.971L32.5296 33.4894C35.0403 35.9923 35.048 36 35.3704 36C35.8004 36 36 35.8004 36 35.3704C36 35.048 35.9923 35.0403 33.4894 32.5296L30.971 30.0113H32.4375C33.8656 30.0113 33.904 30.0036 34.0652 29.8347C34.2802 29.6121 34.2878 29.1744 34.0882 28.9287L33.9423 28.7445L31.6083 28.7214C29.8424 28.7061 29.2359 28.7291 29.09 28.8059Z" fill="white"/>
</svg>
