<svg width="110" height="109" viewBox="0 0 110 109" fill="none" xmlns="http://www.w3.org/2000/svg">
<path d="M52.4379 21.062C47.216 21.8991 43.3228 23.8258 39.8681 27.2672C34.1014 33.0472 32.3209 40.8734 34.9651 48.9388C36.1743 52.6326 38.1275 56.0209 42.5389 62.0268C43.6949 63.5947 45.7411 66.4647 47.0964 68.4047C48.4517 70.3446 50.4182 73.1615 51.4679 74.663C53.9128 78.1708 53.9128 78.1708 55.0954 78.1708C56.2514 78.1708 56.3178 78.1044 58.2577 75.3274C64.237 66.7703 65.8448 64.4849 67.6784 62.0002C71.2926 57.0573 73.0997 54.1341 74.362 51.1976C77.5243 43.8365 77.0327 36.5683 72.9801 30.4694C70.3492 26.5364 66.4294 23.5467 61.8985 22.032C59.5732 21.248 57.6731 20.969 54.9891 20.9823C53.7666 20.9956 52.6239 21.0354 52.4379 21.062ZM58.0053 25.314C63.1209 26.1776 67.5987 29.3267 70.2163 33.9108C72.3822 37.6844 72.8339 42.3217 71.5052 46.9457C70.4954 50.4402 68.6883 53.576 64.0377 59.9141C62.8817 61.4953 60.4103 64.9765 58.5501 67.6473C56.6898 70.3313 55.1352 72.5104 55.0954 72.5104C55.0555 72.5104 53.5142 70.3313 51.654 67.6739C49.7937 65.0031 47.3223 61.5218 46.1663 59.9274C40.7185 52.5131 38.9247 49.0982 38.1541 44.6337C37.8617 42.9861 37.9016 40.2356 38.2205 38.6278C39.5359 32.1835 44.6117 27.0679 51.2421 25.4867C53.3946 24.9818 55.7066 24.9153 58.0053 25.314Z" fill="white"/>
<path d="M53.4345 31.28C51.6805 31.5723 49.6609 32.436 48.2126 33.5521C46.4852 34.8808 45.2096 36.6746 44.439 38.9069C44.0138 40.1426 44.0005 40.2223 44.0005 42.3616C44.0005 44.2882 44.0404 44.6736 44.3061 45.5505C44.9306 47.5038 45.9139 49.0982 47.3356 50.4801C49.5413 52.6061 51.9729 53.576 55.0954 53.576C56.9025 53.576 58.178 53.3103 59.6529 52.6592C62.5761 51.3704 64.8748 48.7395 65.8847 45.5505C66.1504 44.6736 66.1903 44.3015 66.1903 42.3616C66.1903 40.2356 66.177 40.1293 65.7518 38.9069C64.4895 35.2529 61.6194 32.529 57.9522 31.5324C57.1549 31.3198 54.2317 31.1604 53.4345 31.28ZM56.6766 35.5186C59.1746 36.1165 61.2873 38.1628 61.9383 40.6475C62.2041 41.6042 62.1908 43.3315 61.9251 44.2351C61.3537 46.1484 59.9585 47.8625 58.2843 48.7129C57.4074 49.1514 55.9325 49.5367 55.0954 49.5367C54.2583 49.5367 52.7834 49.1514 51.9064 48.7129C51.4015 48.4472 50.684 47.9289 50.1658 47.4107C48.7706 46.0422 48.0531 44.3547 48.0531 42.4413C48.0531 40.4881 48.651 38.9999 49.9931 37.5781C51.7603 35.7179 54.245 34.9473 56.6766 35.5186Z" fill="white"/>
<path d="M41.5291 70.5705C38.4995 72.4174 35.7757 74.2245 35.5498 74.5434C35.005 75.3008 35.098 76.5498 35.7358 77.1477C35.8952 77.2939 40.1472 80.0311 45.1963 83.2067L54.3646 89H55.0954H55.8395L64.9944 83.22C70.0303 80.0311 74.2822 77.3072 74.455 77.1477C75.0928 76.5498 75.1858 75.3008 74.641 74.5434C74.4151 74.2245 71.6912 72.4174 68.6617 70.5705C67.3861 69.7999 66.084 70.0523 65.4861 71.2083C65.114 71.8992 65.1672 72.7231 65.5924 73.3343C65.7518 73.5336 66.549 74.1448 67.3861 74.6763C68.2232 75.1945 68.9142 75.6728 68.9142 75.726C68.9142 75.8721 55.2017 84.4956 55.0422 84.4557C54.7765 84.3893 41.2766 75.819 41.2766 75.726C41.2766 75.6728 41.9675 75.1945 42.8046 74.6763C43.6417 74.1448 44.439 73.5336 44.5984 73.3343C45.0236 72.7231 45.0768 71.8992 44.7047 71.2083C44.1068 70.0523 42.8046 69.7999 41.5291 70.5705Z" fill="white"/>
</svg>
