<svg width="24" height="24" viewBox="0 0 24 24" fill="none" xmlns="http://www.w3.org/2000/svg">
<path d="M1.42031 0.843749C0.792188 1.06875 0.309375 1.55625 0.0890625 2.19375C0.0046875 2.44219 0 2.66719 0 8.63437V14.8125H2.12813H4.25625L4.275 13.6781C4.28906 12.6047 4.29375 12.5297 4.39219 12.375C4.575 12.0797 4.725 12.0281 5.44688 12.0094L6.08906 11.9906L6.21563 11.6906L6.34219 11.3859L5.87344 10.9078C5.09063 10.1109 5.09063 10.1016 6.59063 8.62031C8.025 7.2 8.01094 7.20469 8.79844 7.98281L9.27656 8.45156L9.58125 8.325L9.88125 8.19844L9.9 7.55625C9.91875 6.83437 9.975 6.67031 10.275 6.49219C10.4203 6.40312 10.5141 6.39844 12 6.39844C13.4859 6.39844 13.5797 6.40312 13.725 6.49219C14.025 6.67031 14.0813 6.83437 14.1 7.55625L14.1188 8.19844L14.4188 8.325L14.7234 8.45156L15.2016 7.98281C15.9984 7.2 16.0078 7.2 17.4891 8.7C18.9094 10.1344 18.9047 10.1203 18.1266 10.9078L17.6578 11.3859L17.7844 11.6906L17.9109 11.9906L18.5531 12.0094C19.1109 12.0234 19.2188 12.0375 19.3594 12.1266C19.6922 12.3328 19.7109 12.4031 19.725 13.6734L19.7438 14.8125H21.8719H24L23.9906 8.56406L23.9766 2.32031L23.8172 1.98281C23.7047 1.73906 23.5781 1.56562 23.3719 1.36875C23.0625 1.06875 22.9078 0.974999 22.5094 0.839062C22.2609 0.754687 21.9328 0.749999 11.9578 0.754687C2.04844 0.754687 1.65469 0.759374 1.42031 0.843749ZM19.7953 3.74531C20.3016 3.94687 20.7563 4.39687 20.9625 4.9125C21.1172 5.29687 21.1172 6.04687 20.9625 6.43594C20.7563 6.94687 20.3063 7.39687 19.7906 7.60312C19.4063 7.75781 18.6563 7.75781 18.2719 7.60312C17.7563 7.39687 17.3063 6.94219 17.1047 6.43594C16.9594 6.06562 16.9313 5.44219 17.0391 5.1C17.2688 4.41094 17.6813 3.97031 18.3375 3.72187C18.7313 3.57187 19.3828 3.58125 19.7953 3.74531Z" fill="white"/>
<path d="M18.6375 5.05779C18.4219 5.2031 18.3281 5.38123 18.3281 5.67185C18.3281 5.96248 18.4219 6.1406 18.6375 6.28591C18.8203 6.40779 19.2422 6.40779 19.425 6.28591C19.6406 6.1406 19.7344 5.96248 19.7344 5.67185C19.7344 5.38123 19.6406 5.2031 19.425 5.05779C19.3313 4.99685 19.2047 4.96873 19.0313 4.96873C18.8578 4.96873 18.7313 4.99685 18.6375 5.05779Z" fill="white"/>
<path d="M11.2875 8.30625C11.2547 9.09375 11.1938 9.18281 10.4719 9.42656C10.2469 9.50625 9.9 9.65156 9.69844 9.75469C9.31875 9.94219 9.07969 9.98437 8.89219 9.88594C8.83594 9.85781 8.62031 9.66562 8.41406 9.46406L8.03906 9.09375L7.50938 9.62344L6.98438 10.1484L7.34063 10.5C7.53281 10.6922 7.725 10.9078 7.7625 10.9781C7.875 11.1891 7.84219 11.4141 7.64531 11.8078C7.54219 12.0094 7.39688 12.3562 7.31719 12.5812C7.07344 13.3031 6.98438 13.3641 6.20156 13.3969L5.67188 13.4203V14.1141V14.8125H7.11563H8.55469V14.1234C8.55469 13.5234 8.56875 13.3875 8.6625 13.0969C9.03281 11.9859 9.87656 11.1422 10.9875 10.7719C11.2734 10.6781 11.4141 10.6641 12 10.6641C12.5859 10.6641 12.7266 10.6781 13.0125 10.7719C14.1234 11.1422 14.9672 11.9859 15.3375 13.0969C15.4313 13.3875 15.4453 13.5234 15.4453 14.1234V14.8125H16.8891H18.3281V14.1141V13.4203L17.8031 13.3969C17.0156 13.3641 16.9266 13.3031 16.6828 12.5812C16.6031 12.3562 16.4578 12.0094 16.3547 11.8078C16.1578 11.4141 16.125 11.1891 16.2375 10.9781C16.275 10.9078 16.4672 10.6922 16.6594 10.5L17.0156 10.1484L16.4906 9.62344L15.9609 9.09375L15.5859 9.46406C15.3797 9.66562 15.1641 9.85781 15.1078 9.88594C14.9203 9.98437 14.6813 9.94219 14.3016 9.75469C14.1 9.65156 13.7531 9.50625 13.5281 9.42656C12.8063 9.18281 12.7453 9.09375 12.7125 8.30625L12.6891 7.78125H12H11.3109L11.2875 8.30625Z" fill="white"/>
<path d="M11.3109 12.0937C10.6828 12.3187 10.2 12.8062 9.97969 13.4437C9.87656 13.7391 9.85781 14.3437 9.94688 14.6297L9.99844 14.8125H12H14.0016L14.0531 14.6297C14.1422 14.3437 14.1234 13.7391 14.0203 13.4437C13.8 12.7969 13.3125 12.3094 12.6703 12.0891C12.3188 11.9719 11.6578 11.9719 11.3109 12.0937Z" fill="white"/>
<path d="M0 16.7719C0 17.2031 0.01875 17.3906 0.0890625 17.5922C0.309375 18.2344 0.796875 18.7219 1.44375 18.9422C1.69688 19.0266 1.98281 19.0312 11.9766 19.0312C21.9281 19.0312 22.2609 19.0266 22.5094 18.9422C22.9078 18.8062 23.0625 18.7125 23.3719 18.4125C23.5781 18.2156 23.7047 18.0422 23.8172 17.7984C23.9672 17.4797 23.9766 17.4281 23.9906 16.8375L24.0094 16.2187H12.0047H0V16.7719Z" fill="white"/>
<path d="M7.47656 21.1406L7.24688 21.8437H5.97656C4.81406 21.8437 4.70156 21.8531 4.575 21.9328C4.35938 22.0781 4.26562 22.2562 4.26562 22.5469C4.26562 22.8375 4.35938 23.0156 4.575 23.1609C4.70625 23.2453 4.93594 23.25 12 23.25C19.0641 23.25 19.2938 23.2453 19.425 23.1609C19.6406 23.0156 19.7344 22.8375 19.7344 22.5469C19.7344 22.2562 19.6406 22.0781 19.425 21.9328C19.2984 21.8531 19.1859 21.8437 18.0234 21.8437H16.7531L16.5234 21.1406L16.2938 20.4375H12H7.70625L7.47656 21.1406Z" fill="white"/>
</svg>
