<svg width="110" height="109" viewBox="0 0 110 109" fill="none" xmlns="http://www.w3.org/2000/svg">
<path d="M50.2087 24.0662C47.3984 24.4174 44.7941 25.0352 42.6865 25.8589C32.9597 29.6624 26.1885 37.9356 24.3352 48.268C23.9718 50.3151 23.8749 54.6637 24.1535 56.8077C25.6676 68.3757 33.5653 77.7391 44.6972 81.1792C45.8964 81.5426 48.5734 82.124 49.07 82.124C50.4267 82.124 51.4805 81.046 51.4805 79.653C51.4805 78.8535 51.3352 78.4174 50.8991 77.9692C50.4146 77.4484 50.0512 77.303 48.4644 76.9881C38.8951 75.0379 31.4092 67.5399 29.3621 57.8374C28.9382 55.8387 28.817 51.9746 29.1199 49.9033C30.5734 39.9706 37.6959 32.0487 47.35 29.6261C50.1118 28.9235 53.782 28.7297 56.5075 29.1294C61.8251 29.9168 66.6582 32.3515 70.389 36.1187C73.8291 39.583 76.0458 43.7862 77.0149 48.7162C77.245 49.8306 77.4752 50.6543 77.6447 50.9208C78.2988 51.9867 79.9462 52.3138 81.0606 51.6112C82.1629 50.9087 82.3567 49.8912 81.8237 47.3111C80.031 38.4928 74.3015 31.0433 66.1858 26.9733C63.2908 25.5197 60.2625 24.6113 56.8951 24.1631C55.5869 23.9935 51.2746 23.9329 50.2087 24.0662Z" fill="white"/>
<path d="M51.8803 33.0178C51.5896 33.1874 51.2262 33.5507 51.0566 33.8415L50.7538 34.3623V43.217V52.0716L46.4779 56.4081C44.1158 58.7943 42.1051 60.9141 41.9961 61.1322C41.8628 61.3744 41.7901 61.8105 41.7901 62.2708C41.7901 63.2277 42.1777 63.9303 42.9288 64.3785C43.6313 64.7903 44.7942 64.8024 45.4483 64.4027C46.0297 64.0514 55.1387 54.797 55.4052 54.3004C55.5748 53.9491 55.599 52.9559 55.599 44.1376V34.3623L55.2962 33.8415C54.848 33.0783 54.1454 32.7028 53.1643 32.7028C52.5465 32.7028 52.28 32.7634 51.8803 33.0178Z" fill="white"/>
<path d="M66.9974 53.4888C63.8843 54.0218 60.8318 55.5964 58.4819 57.8737C51.7955 64.3421 51.8076 75.0137 58.5061 81.4457C60.9287 83.7714 63.9449 85.2976 67.1064 85.8185C68.5963 86.0608 71.2248 86.0487 72.6905 85.8064C77.7659 84.9585 82.2719 81.5911 84.5976 76.9396C85.3244 75.4982 85.9058 73.6086 85.9785 72.4699C86.027 71.5614 86.0148 71.4403 85.712 70.9316C84.8278 69.4296 82.4173 69.3448 81.533 70.7862C81.3877 71.0042 81.1454 71.731 80.9758 72.3851C80.0552 76.0069 77.354 79.0473 73.8776 80.3555C71.8426 81.1186 69.2746 81.2761 67.2154 80.7431C65.0714 80.1981 63.3513 79.229 61.8251 77.7149C59.6205 75.5103 58.4698 72.7364 58.4698 69.6476C58.4698 64.2209 62.2733 59.5574 67.6272 58.4309C68.8991 58.1644 70.9341 58.2008 72.424 58.5036C73.1871 58.6611 73.8049 58.7337 74.0472 58.6732C75.2948 58.4067 76.07 57.4982 76.07 56.3111C76.07 54.7728 75.3432 54.0339 73.4052 53.5978C72.1212 53.3071 68.3661 53.2465 66.9974 53.4888Z" fill="white"/>
<path d="M80.4186 59.5817C80.1279 59.7755 78.4926 61.326 76.7968 63.046C75.101 64.754 72.8479 66.9706 71.7941 67.976L69.8802 69.8051L68.2208 68.1577C67.2396 67.2008 66.3675 66.4256 66.101 66.3165C65.8587 66.2196 65.3379 66.1348 64.9502 66.1348C64.0418 66.1348 63.2423 66.6073 62.8547 67.3704C62.5034 68.0608 62.4913 69.042 62.8426 69.7082C62.9758 69.9747 64.0296 71.1254 65.1925 72.2762C67.7726 74.832 68.1239 75.0379 69.8924 75.0379C71.8426 75.0379 71.5882 75.2317 78.0444 68.8482C81.1212 65.8078 83.7618 63.0945 83.9193 62.828C84.5128 61.7499 84.1494 60.2358 83.1198 59.5817C82.6474 59.291 82.4415 59.2304 81.7632 59.2304C81.0848 59.2304 80.8789 59.2789 80.4186 59.5817Z" fill="white"/>
</svg>
