<svg width="24" height="24" viewBox="0 0 24 24" fill="none" xmlns="http://www.w3.org/2000/svg">
<path d="M16.053 3.01875C15.6967 3.10315 15.542 3.2438 15.2138 3.78766C15.0169 4.11117 15.0028 4.27527 15.1529 4.41123C15.2091 4.46749 17.0236 5.61148 19.1803 6.95238C21.9886 8.70119 23.142 9.39508 23.2405 9.39508C23.4093 9.39508 23.503 9.29193 23.7843 8.80902C23.9766 8.48083 24 8.40581 24 8.15732C24 7.81975 23.8734 7.52907 23.6577 7.36966C23.503 7.25245 16.836 3.1641 16.6625 3.0797C16.5219 3.00938 16.2124 2.97656 16.053 3.01875Z" fill="white"/>
<path d="M4.36935 4.74882C2.15171 5.50835 0.487297 6.0991 0.379462 6.17412C-0.00499292 6.42729 -0.103451 6.93365 0.112219 7.56659C0.266939 8.02138 0.341954 8.12921 0.501362 8.12921C0.613886 8.12921 9.32507 5.18016 9.52199 5.07701C9.67202 4.99731 9.66733 4.82384 9.5173 4.37374C9.27819 3.66109 9.02501 3.43605 8.47177 3.44542C8.2139 3.45011 7.69348 3.61421 4.36935 4.74882Z" fill="white"/>
<path d="M14.1448 5.59745C14.0651 5.64902 12.2976 8.48086 12.2225 8.68715C12.185 8.7903 12.4429 9.59672 13.9151 13.9101C14.8715 16.7138 15.6639 19.0815 15.6779 19.1659C15.7295 19.4144 15.6217 19.7098 15.4013 19.9254C15.2372 20.0848 15.1106 20.1505 14.5527 20.3427C13.6385 20.6568 13.5963 20.6756 13.54 20.7975C13.4462 21.0085 13.5494 21.1163 14.2011 21.5148C14.7684 21.8524 14.8434 21.8899 15.1106 21.904C15.4435 21.9227 15.6639 21.8477 15.8702 21.6367C16.0858 21.4164 22.4997 10.9236 22.4997 10.7923C22.4997 10.7313 22.4716 10.6469 22.4434 10.6047C22.3918 10.5438 14.7918 5.78968 14.4496 5.60683C14.3277 5.54119 14.2527 5.5365 14.1448 5.59745ZM15.4529 10.5297C15.6826 10.6891 15.7577 10.8814 15.7436 11.308C15.7295 11.7394 15.767 11.8706 15.9077 11.9081C15.9639 11.9222 16.4094 11.8753 16.8923 11.8097C17.3799 11.7394 17.844 11.6972 17.9284 11.7112C18.116 11.7487 18.3504 11.9785 18.4254 12.1941C18.5004 12.4239 18.4207 12.677 18.2097 12.8599C18.0175 13.024 18.0972 13.0099 16.3203 13.2631C15.3544 13.3991 14.8856 13.446 14.7871 13.4178C14.5808 13.3616 14.4214 13.2303 14.3277 13.0427C14.248 12.8833 14.248 12.8271 14.3183 12.0113C14.4027 10.9798 14.4214 10.8673 14.5199 10.7173C14.7121 10.4219 15.1622 10.3328 15.4529 10.5297Z" fill="white"/>
<path d="M5.45239 7.90884C3.02376 8.7387 1.00772 9.44666 0.960834 9.48416C0.918638 9.51698 0.885818 9.61075 0.885818 9.68577C0.885818 9.82642 4.80538 21.4163 4.93666 21.6695C5.02105 21.8289 5.17577 21.9743 5.38207 22.0774C5.7337 22.2556 5.76183 22.2462 9.84081 20.8584C11.9412 20.1458 13.7416 19.5175 13.8354 19.4612C14.112 19.3112 14.2667 19.0487 14.2855 18.7064C14.2995 18.4345 14.2198 18.186 12.5461 13.2631C11.5802 10.4265 10.666 7.74943 10.5206 7.31809C10.3706 6.88206 10.2206 6.49761 10.1831 6.4601C10.1456 6.42259 10.0612 6.39446 9.99084 6.39915C9.92051 6.39915 7.88102 7.07898 5.45239 7.90884ZM8.38269 10.2765C8.78121 10.5719 8.78121 10.8063 8.39207 11.7581C8.23266 12.1472 8.10607 12.5082 8.10607 12.5645C8.10607 12.6958 8.24673 12.8036 8.90311 13.1834C9.53137 13.5491 9.65796 13.6803 9.69078 13.9804C9.7236 14.3461 9.55481 14.5852 9.18911 14.6931C8.9875 14.7493 8.81872 14.6884 8.24673 14.3649C7.7685 14.0882 7.62785 14.046 7.50595 14.1211C7.47313 14.1445 7.34185 14.4118 7.21526 14.7212C6.96208 15.3213 6.85425 15.4573 6.55887 15.537C6.31038 15.6026 5.99626 15.4713 5.8556 15.2463C5.71026 15.0025 5.7337 14.7728 5.98688 14.1492C6.2635 13.4741 6.29163 13.3568 6.23537 13.2443C6.20724 13.1974 5.94 13.0146 5.63524 12.8364C4.82883 12.3723 4.68348 12.2644 4.60378 12.0769C4.45844 11.7253 4.62722 11.3361 4.98823 11.2001C5.26017 11.0923 5.34456 11.1158 6.02439 11.5049C6.33852 11.6877 6.64796 11.8331 6.70891 11.8331C6.87769 11.8331 6.94802 11.7299 7.19651 11.1064C7.47313 10.4125 7.51532 10.3422 7.75444 10.2296C7.97011 10.1265 8.20922 10.1452 8.38269 10.2765Z" fill="white"/>
</svg>
