<svg width="110" height="109" viewBox="0 0 110 109" fill="none" xmlns="http://www.w3.org/2000/svg">
<g clip-path="url(#clip0_3341_1187)">
<path d="M56.2578 27.2078C55.7109 27.4484 55.2625 27.9625 55.1094 28.5094C55.0437 28.7719 55 31.5828 55 36.4063V43.8984L55.2625 44.4672C55.4703 44.8938 55.6453 45.1016 56.0609 45.3422L56.5859 45.6484H69H81.4141L81.9281 45.3531C82.3 45.1234 82.5078 44.9047 82.7156 44.4781L83 43.9094V36.4281C83 30.8281 82.9672 28.8266 82.8687 28.4875C82.6937 27.9188 82.0812 27.3063 81.5125 27.1313C81.1625 27.0328 78.1875 27 68.8797 27C57.2969 27 56.6734 27.0109 56.2578 27.2078Z" fill="white"/>
<path d="M41.3281 34.2078C38.2984 34.8531 35.7719 36.975 34.6781 39.7969C34.0656 41.361 34.0656 41.35 34.0219 46.7203L33.9891 51.7406L32.8188 50.5375C31.6156 49.3125 31.2547 49.0938 30.4344 49.0938C29.5375 49.0938 28.6625 49.6516 28.3016 50.461C28.0391 51.0297 28.0391 51.8719 28.3016 52.4297C28.5859 53.0313 34.8859 59.2985 35.4438 59.5391C35.9688 59.7469 36.7344 59.7469 37.2594 59.5391C37.8172 59.2985 44.1172 53.0313 44.4016 52.4297C44.5219 52.1672 44.6094 51.7516 44.6094 51.3906C44.6094 49.9797 43.5922 48.9844 42.1813 48.9844C41.35 48.9953 40.8469 49.2688 39.7969 50.3406C39.2938 50.8547 38.8344 51.2813 38.7797 51.2813C38.725 51.2813 38.7031 49.3016 38.725 46.8735C38.7688 42.5531 38.7797 42.4656 39.0313 41.7985C39.5234 40.4969 40.5516 39.4688 41.8203 39.0094C42.4219 38.8016 42.7609 38.7688 45.6594 38.7141L48.8422 38.6485L49.2906 38.3531C50.7016 37.4125 50.6906 35.2906 49.2906 34.35L48.8422 34.0547L45.55 34.0328C42.7281 34.011 42.1266 34.0438 41.3281 34.2078Z" fill="white"/>
<path d="M72.3359 50.6141C71.9969 50.811 70.5969 52.1344 68.65 54.0922C65.6094 57.1547 65.5109 57.2641 65.3359 57.8875C65.1719 58.4344 65.1609 58.6313 65.2703 59.1016C65.5109 60.1735 66.5172 61.0047 67.5781 61.0156C68.5844 61.0156 68.8687 60.8516 70.0172 59.6703L71.0781 58.5656V62.9516C71.0781 67.0094 71.0672 67.3922 70.8594 68.0375C70.5641 68.9891 69.9187 69.8641 69.0984 70.411C67.9719 71.1656 67.6984 71.2094 64.1875 71.286C60.7312 71.3625 60.6766 71.3735 60.0531 72.1172C59.2875 73.0469 59.3094 74.2938 60.1078 75.2235C60.7641 75.9891 60.9719 76.0219 64.7453 75.9781C67.7641 75.9344 68.1469 75.9016 68.9344 75.6828C72.3687 74.7203 74.6109 72.4344 75.5953 68.9016C75.8031 68.125 75.825 67.7422 75.8687 63.225L75.9016 58.3688L77.0719 59.5063C78.0344 60.436 78.3406 60.6766 78.7562 60.786C79.7953 61.0813 80.9 60.6328 81.4359 59.725C81.8297 59.0688 81.8516 58.1281 81.5016 57.461C81.1844 56.8703 74.9719 50.7125 74.4469 50.4828C73.8125 50.1875 72.9812 50.2422 72.3359 50.6141Z" fill="white"/>
<path d="M28.6187 64.4063C27.9844 64.5922 27.525 64.9859 27.2625 65.5438L27 66.1016V73.6594V81.2063L27.3062 81.8078C27.5469 82.3 27.7 82.4531 28.1922 82.6938L28.7937 83H40.8797C48.6453 83 53.1187 82.9563 53.3703 82.8906C53.9609 82.7266 54.4641 82.3438 54.7156 81.8516C54.9453 81.425 54.9453 81.3047 54.9453 73.6484C54.9453 65.9922 54.9453 65.8719 54.7156 65.4453C54.4641 64.9531 53.9609 64.5703 53.3703 64.4063C52.8891 64.275 29.0562 64.275 28.6187 64.4063Z" fill="white"/>
</g>
<defs>
<clipPath id="clip0_3341_1187">
<rect width="56" height="56" fill="white" transform="translate(27 27)"/>
</clipPath>
</defs>
</svg>
