<svg width="110" height="109" viewBox="0 0 110 109" fill="none" xmlns="http://www.w3.org/2000/svg">
<path d="M55.6122 24.2699L55.16 24.7221V27.0096V29.2972L55.6122 29.7493L56.0644 30.2015H62.0759H68.0873L68.5395 29.7493L68.9917 29.2972V27.0096V24.7221L68.5395 24.2699L68.0873 23.8177H62.0759H56.0644L55.6122 24.2699Z" fill="white"/>
<path d="M58.884 33.194V34.5772L58.3919 34.657C54.3887 35.3352 50.186 37.1307 47.4728 39.3517L46.8876 39.8172L45.8636 38.7932C45.2651 38.1947 44.6666 37.7292 44.4139 37.6627C43.2169 37.3169 42.0598 38.4873 42.4056 39.6709C42.4721 39.9236 42.9243 40.5088 43.4829 41.0674C44.3474 41.9452 44.4139 42.0383 44.241 42.2777C44.1346 42.4107 43.6691 43.0092 43.1903 43.6077C40.6767 46.7065 38.961 50.7097 38.3359 54.8725C38.0832 56.6015 38.0832 60.1924 38.3359 61.908C39.6925 70.8986 45.8769 78.28 54.4419 81.1261C57.4077 82.1236 58.3786 82.2566 62.0759 82.2566C65.7732 82.2566 66.7441 82.1236 69.7099 81.1261C76.8652 78.7455 82.4244 73.1862 84.8051 66.031C85.6829 63.4109 85.8957 62.1474 85.9755 59.1284C86.0287 57.067 86.0021 56.136 85.8292 54.9922C85.2041 50.7097 83.4884 46.7065 80.9216 43.5412C80.4694 42.9826 80.0172 42.424 79.9108 42.2777C79.7379 42.0383 79.8044 41.9452 80.6689 41.0674C81.2275 40.5088 81.6797 39.9236 81.7462 39.6709C82.092 38.4873 80.9349 37.3169 79.7379 37.6627C79.4852 37.7292 78.8867 38.1947 78.2882 38.7932L77.2642 39.8172L76.679 39.3517C74.5776 37.6627 71.6118 36.1598 68.779 35.3485C67.848 35.0825 65.6003 34.5905 65.321 34.5905C65.2944 34.5905 65.2678 33.9654 65.2678 33.194V31.7975H62.0759H58.884V33.194ZM63.4325 38.8464C72.3566 39.5911 79.3921 45.7622 81.3073 54.54C81.6664 56.1626 81.6664 60.6313 81.3073 62.2538C79.3921 71.0183 72.1305 77.3889 63.4325 77.9342C59.815 78.1603 56.5033 77.4953 53.3646 75.9126C47.9117 73.1862 44.1612 68.3185 42.8445 62.2538C42.4854 60.6313 42.4854 56.1626 42.8445 54.54C44.7331 45.8553 51.8351 39.5645 60.5464 38.8464C61.1981 38.7932 61.77 38.74 61.8099 38.74C61.8498 38.7267 62.5813 38.7799 63.4325 38.8464Z" fill="white"/>
<path d="M58.8973 40.5221C55.1068 41.1605 51.0105 43.4481 48.5102 46.3208C46.2891 48.8743 44.7464 52.0796 44.2011 55.2715C43.9218 56.8409 43.9218 59.953 44.2011 61.5224C45.4912 69.0101 51.5824 75.0748 59.017 76.285C60.6262 76.5377 63.5123 76.5377 65.1082 76.285C69.9493 75.5003 74.3914 72.6143 77.1977 68.4382C78.9532 65.8315 80.1635 62.0942 80.1635 59.288V58.3969H71.1197H62.0759V49.3531V40.3093L61.0518 40.3226C60.4799 40.3359 59.5091 40.4157 58.8973 40.5221Z" fill="white"/>
<path d="M24.7569 47.6774C24.3579 48.0764 24.3047 48.2094 24.3047 48.8211C24.3047 49.4329 24.3579 49.5659 24.7569 49.9649L25.2091 50.4171H31.2206H37.232L37.6842 49.9649C38.0832 49.5659 38.1364 49.4329 38.1364 48.8211C38.1364 48.2094 38.0832 48.0764 37.6842 47.6774L37.232 47.2252H31.2206H25.2091L24.7569 47.6774Z" fill="white"/>
<path d="M19.437 54.0612C18.7721 54.7262 18.7721 55.6838 19.437 56.3488L19.8892 56.801H27.4967H35.1041L35.5563 56.3488C36.2213 55.6838 36.2213 54.7262 35.5563 54.0612L35.1041 53.609H27.4967H19.8892L19.437 54.0612Z" fill="white"/>
<path d="M22.629 60.4451C21.964 61.1101 21.964 62.0676 22.629 62.7326L23.0812 63.1848H29.0926H35.1041L35.5563 62.7326C35.9553 62.3336 36.0085 62.2006 36.0085 61.5889C36.0085 60.9771 35.9553 60.8441 35.5563 60.4451L35.1041 59.9929H29.0926H23.0812L22.629 60.4451Z" fill="white"/>
<path d="M26.8849 66.8289C26.4859 67.2279 26.4327 67.3609 26.4327 67.9727C26.4327 68.5845 26.4859 68.7175 26.8849 69.1165L27.3371 69.5687H31.7526H36.1681L36.6203 69.1165C37.0193 68.7175 37.0725 68.5845 37.0725 67.9727C37.0725 67.3609 37.0193 67.2279 36.6203 66.8289L36.1681 66.3767H31.7526H27.3371L26.8849 66.8289Z" fill="white"/>
</svg>
