<svg width="24" height="24" viewBox="0 0 24 24" fill="none" xmlns="http://www.w3.org/2000/svg">
<path d="M2.84004 0.703124V1.40625H1.42911H0.0228577L0.0416077 4.50937C0.0556702 7.44375 0.0650452 7.65469 0.163483 8.27344C0.660358 11.4187 1.94005 14.0766 4.07286 16.3922L4.59786 16.9641L14.0338 16.9688H23.4744L22.6213 16.0875C21.4072 14.8406 20.7838 14.0484 20.1369 12.9234C19.3354 11.5219 18.7494 9.82969 18.501 8.18437C18.3604 7.27969 18.3088 6.04687 18.3088 3.54844V1.40625H16.9025H15.4963V0.703124V-6.74278e-07H14.7932H14.09V0.703124V1.40625H11.9807H9.87129V0.703124V-6.74278e-07H9.16817H8.46504V0.703124V1.40625H6.35567H4.24629V0.703124V-6.74278e-07H3.54317H2.84004V0.703124ZM4.24629 2.8125V4.21875H3.54317H2.84004V2.8125V1.40625H3.54317H4.24629V2.8125ZM9.87129 2.8125V4.21875H9.16817H8.46504V2.8125V1.40625H9.16817H9.87129V2.8125ZM15.4963 2.8125V4.21875H14.7932H14.09V2.8125V1.40625H14.7932H15.4963V2.8125ZM6.35567 7.07812V7.78125H4.94942H3.54317V7.07812V6.375H4.94942H6.35567V7.07812ZM10.5744 7.07812V7.78125H9.16817H7.76192V7.07812V6.375H9.16817H10.5744V7.07812ZM14.7932 7.07812V7.78125H13.3869H11.9807V7.07812V6.375H13.3869H14.7932V7.07812ZM7.05879 9.89062V10.5937H5.65254H4.24629V9.89062V9.1875H5.65254H7.05879V9.89062ZM11.2775 9.89062V10.5937H9.87129H8.46504V9.89062V9.1875H9.87129H11.2775V9.89062ZM15.4963 9.89062V10.5937H14.09H12.6838V9.89062V9.1875H14.09H15.4963V9.89062ZM7.76192 12.7031V13.4062H6.35567H4.94942V12.7031V12H6.35567H7.76192V12.7031ZM11.9807 12.7031V13.4062H10.5744H9.16817V12.7031V12H10.5744H11.9807V12.7031ZM16.1994 12.7031V13.4062H14.7932H13.3869V12.7031V12H14.7932H16.1994V12.7031Z" fill="white"/>
<path d="M0.0275574 13.2047C0.0275574 14.5734 0.374432 16.0828 0.993182 17.3859C1.46193 18.375 1.99162 19.1672 2.76974 20.025L3.17756 20.4844H12.6557H22.1291L21.4213 19.7719C21.0322 19.3781 20.5916 18.9 20.4463 18.7125L20.1791 18.375H12.1494H4.11975L3.44475 17.6813C2.10881 16.3125 1.19943 15.0234 0.369745 13.3359L0.0275574 12.6375V13.2047Z" fill="white"/>
<path d="M0.0322449 21.2672L0.0275574 24H9.16818H18.3088V22.9453V21.8906H10.5088H2.71349L2.06193 21.2203C1.37287 20.5125 0.833807 19.8375 0.393182 19.1156C0.243182 18.8766 0.102557 18.6469 0.0791199 18.6094C0.0509949 18.5625 0.0322449 19.5047 0.0322449 21.2672Z" fill="white"/>
</svg>
