<svg width="36" height="36" viewBox="0 0 36 36" fill="none" xmlns="http://www.w3.org/2000/svg">
<path d="M7.54733 6.0797C6.8586 6.29053 6.28232 6.87149 6.07618 7.5649C5.97779 7.90224 5.9731 11.7254 6.07149 12.0533C6.18394 12.4235 6.37134 12.742 6.6384 13.0091C6.91014 13.2808 7.12566 13.412 7.54733 13.5526C7.79096 13.6369 8.14703 13.6416 18 13.6416C27.853 13.6416 28.209 13.6369 28.4527 13.5526C28.8743 13.412 29.0899 13.2808 29.3616 13.0091C29.6287 12.742 29.8161 12.4235 29.9285 12.0533C30.0269 11.7254 30.0222 7.90224 29.9238 7.5649C29.713 6.86212 29.1367 6.28584 28.4339 6.07501C28.0872 5.97194 7.88466 5.97662 7.54733 6.0797ZM10.1289 8.34265C10.3397 8.49726 10.3678 8.68935 10.3538 9.91687C10.3397 11.1819 10.3256 11.2428 10.0024 11.3787C9.85713 11.4349 9.81028 11.4396 9.66972 11.3833C9.5807 11.3505 9.46357 11.2615 9.40735 11.1912C9.31365 11.0647 9.30896 11.0038 9.30896 9.82785C9.30896 8.71746 9.31833 8.58628 9.39329 8.46915C9.56196 8.21615 9.87587 8.15992 10.1289 8.34265ZM12.2185 8.28174C12.5043 8.41761 12.5183 8.48789 12.5183 9.82317C12.5183 11.1631 12.5043 11.2287 12.1997 11.374C11.9608 11.4864 11.7406 11.4114 11.5672 11.1584C11.4969 11.0601 11.4876 10.8961 11.4876 9.83254C11.4876 8.49257 11.5016 8.42229 11.7781 8.28642C11.9748 8.18803 12.0217 8.18803 12.2185 8.28174ZM14.4861 8.34265C14.6969 8.49726 14.725 8.68935 14.711 9.91687C14.6969 11.1819 14.6829 11.2428 14.3596 11.3787C14.2144 11.4349 14.1675 11.4396 14.027 11.3833C13.9379 11.3505 13.8208 11.2615 13.7646 11.1912C13.6709 11.0647 13.6662 11.0038 13.6662 9.82785C13.6662 8.71746 13.6756 8.58628 13.7505 8.46915C13.9192 8.21615 14.2331 8.15992 14.4861 8.34265ZM22.7461 8.82991C23.1584 9.00326 23.4067 9.37807 23.4067 9.82317C23.4067 10.2729 23.2006 10.5869 22.7789 10.7789C22.4837 10.9148 22.1979 10.9054 21.8934 10.7555C21.3171 10.465 21.1344 9.77163 21.4952 9.22815C21.6076 9.05011 21.8793 8.84865 22.0574 8.80179C22.2401 8.75494 22.6009 8.769 22.7461 8.82991ZM26.1897 8.92829C26.8878 9.3687 26.8363 10.3854 26.1007 10.7555C25.7962 10.9054 25.5104 10.9148 25.2152 10.7789C24.7935 10.5869 24.5874 10.2729 24.5874 9.82317C24.5874 9.38744 24.8263 9.01731 25.2386 8.82991C25.4635 8.72683 25.9508 8.77368 26.1897 8.92829Z" fill="white"/>
<path d="M7.76752 14.2085C7.4255 14.2647 6.90545 14.5364 6.64776 14.7988C6.37602 15.0659 6.22609 15.3048 6.09959 15.6796C6.01058 15.9373 6.00589 16.0732 6.00589 17.9988C6.00589 19.9244 6.01058 20.0603 6.09959 20.318C6.15113 20.4679 6.24483 20.6787 6.30574 20.7818C6.59154 21.2691 7.23341 21.7001 7.80969 21.7938C8.19388 21.8547 27.8061 21.8547 28.1903 21.7938C28.7666 21.7001 29.4084 21.2691 29.6942 20.7818C29.7551 20.6787 29.8489 20.4679 29.9004 20.318C29.9894 20.0603 29.9941 19.9244 29.9941 17.9988C29.9941 16.0732 29.9894 15.9373 29.9004 15.6796C29.8489 15.5297 29.7551 15.3189 29.6942 15.2158C29.4084 14.7285 28.7666 14.2975 28.1903 14.2038C27.8436 14.1476 8.10486 14.1522 7.76752 14.2085ZM10.1663 16.5417C10.3444 16.7244 10.3631 16.8462 10.3631 17.9988C10.3631 18.5282 10.3491 19.0389 10.3303 19.1373C10.26 19.5636 9.77747 19.7464 9.48231 19.4559C9.40734 19.3762 9.33238 19.2497 9.31364 19.1654C9.29958 19.0858 9.28553 18.561 9.28553 17.9988C9.28553 17.4366 9.29958 16.9118 9.31364 16.8322C9.39797 16.4292 9.88523 16.2606 10.1663 16.5417ZM12.2747 16.4808C12.5043 16.6401 12.5183 16.7385 12.5183 17.9988C12.5183 19.2591 12.5043 19.3575 12.2747 19.5168C12.2185 19.559 12.0966 19.5918 12.0029 19.5918C11.8062 19.5918 11.6516 19.4981 11.5578 19.3106C11.4548 19.1092 11.4548 16.8884 11.5578 16.6869C11.6516 16.4995 11.8062 16.4058 12.0029 16.4058C12.0966 16.4058 12.2185 16.4386 12.2747 16.4808ZM14.5236 16.5417C14.5985 16.6213 14.6735 16.7478 14.6922 16.8322C14.7063 16.9118 14.7204 17.4366 14.7204 17.9988C14.7204 18.561 14.7063 19.0858 14.6922 19.1654C14.6079 19.5683 14.1206 19.737 13.8395 19.4559C13.6615 19.2732 13.6428 19.1513 13.6428 17.9988C13.6428 17.4694 13.6568 16.9587 13.6756 16.8603C13.7458 16.4339 14.2284 16.2512 14.5236 16.5417ZM22.629 16.9774C22.9476 17.0571 23.3083 17.4225 23.3833 17.7552C23.477 18.1393 23.388 18.4251 23.0881 18.725C22.6524 19.1607 22.0902 19.1701 21.6404 18.7531C21.0266 18.1862 21.3124 17.1695 22.1464 16.9634C22.3525 16.9165 22.39 16.9165 22.629 16.9774ZM26.1054 17.0617C26.4615 17.2445 26.6817 17.6052 26.6817 17.9988C26.6817 18.6781 26.0304 19.1888 25.3698 19.0248C25.0465 18.9405 24.6905 18.5751 24.6108 18.2424C24.5171 17.8582 24.6061 17.5724 24.906 17.2679C25.262 16.9165 25.679 16.8415 26.1054 17.0617Z" fill="white"/>
<path d="M7.52859 22.4451C6.77896 22.7121 6.29638 23.2134 6.07149 23.9443C5.9731 24.2723 5.97779 28.0954 6.07618 28.4327C6.28701 29.1355 6.86329 29.7118 7.56607 29.9226C7.77222 29.9835 9.06533 29.9929 18 29.9929C26.9347 29.9929 28.2278 29.9835 28.4339 29.9226C29.1367 29.7118 29.713 29.1355 29.9238 28.4327C30.0222 28.0954 30.0269 24.2723 29.9285 23.9443C29.8161 23.5742 29.6287 23.2556 29.3616 22.9886C29.0899 22.7168 28.8743 22.5856 28.4527 22.4451C28.209 22.3607 27.8577 22.3561 17.9813 22.3607C8.29696 22.3607 7.74879 22.3654 7.52859 22.4451ZM10.1289 24.694C10.3397 24.8486 10.3678 25.0407 10.3538 26.2682C10.3397 27.5332 10.3256 27.5941 10.0024 27.73C9.85713 27.7862 9.81028 27.7909 9.66972 27.7347C9.5807 27.7019 9.46357 27.6128 9.40735 27.5426C9.31365 27.4161 9.30896 27.3552 9.30896 26.1792C9.30896 25.0688 9.31833 24.9376 9.39329 24.8205C9.56196 24.5675 9.87587 24.5112 10.1289 24.694ZM12.2091 24.6284C12.5043 24.7689 12.5183 24.8392 12.5183 26.1745C12.5183 27.5098 12.5043 27.58 12.2185 27.7159C12.0217 27.8096 11.9842 27.8096 11.7874 27.7159C11.5016 27.58 11.4876 27.5098 11.4876 26.1745C11.4876 24.8439 11.5016 24.7736 11.7874 24.6331C11.9702 24.5394 12.0217 24.5394 12.2091 24.6284ZM14.4861 24.694C14.6969 24.8486 14.725 25.0407 14.711 26.2682C14.6969 27.5332 14.6829 27.5941 14.3596 27.73C14.2144 27.7862 14.1675 27.7909 14.027 27.7347C13.9379 27.7019 13.8208 27.6128 13.7646 27.5426C13.6709 27.4161 13.6662 27.3552 13.6662 26.1792C13.6662 25.0688 13.6756 24.9376 13.7505 24.8205C13.9192 24.5675 14.2331 24.5112 14.4861 24.694ZM22.7789 25.2187C23.2006 25.4108 23.4067 25.7247 23.4067 26.1745C23.4067 26.8117 22.9148 27.2661 22.2823 27.2146C21.2187 27.1303 20.9376 25.72 21.8934 25.2421C22.1979 25.0922 22.4837 25.0828 22.7789 25.2187ZM26.1007 25.2421C27.0565 25.72 26.7754 27.1303 25.7118 27.2146C25.0793 27.2661 24.5874 26.8117 24.5874 26.1745C24.5874 25.7247 24.7935 25.4108 25.2152 25.2187C25.5104 25.0828 25.7962 25.0922 26.1007 25.2421Z" fill="white"/>
</svg>
