<svg width="110" height="109" viewBox="0 0 110 109" fill="none" xmlns="http://www.w3.org/2000/svg">
<g clip-path="url(#clip0_3341_1187)">
<path d="M38.8527 28.2426C38.2727 28.6223 38.125 29.0442 38.125 30.2887V31.375H35.5199C32.6406 31.375 32.2609 31.4278 31.0691 32.0184C30.2149 32.4403 29.1285 33.516 28.6645 34.3914C27.9578 35.7309 28 34.1594 28 56.7508C28 76.811 28 77.2434 28.2109 77.8973C28.791 79.7852 30.4047 81.3461 32.2715 81.8418C32.8199 81.9789 35.4883 82 55 82C79.3738 82 77.6336 82.0528 78.9836 81.3461C79.7957 80.9137 80.8926 79.8168 81.3356 78.9836C82.0422 77.6442 82 79.2157 82 56.6875C82 34.1594 82.0422 35.7309 81.3356 34.3914C80.8715 33.516 79.7852 32.4403 78.9309 32.0184C77.7391 31.4278 77.3594 31.375 74.4906 31.375H71.875V30.2887C71.875 29.0442 71.7274 28.6223 71.1473 28.2426C70.6516 27.9051 69.8289 27.9051 69.3332 28.2426C68.7531 28.6223 68.6055 29.0442 68.6055 30.2887V31.375H65.1777H61.75V30.3414C61.7395 28.5906 61.2649 27.9578 59.9887 28.0211C59.4719 28.0528 59.2715 28.116 59.05 28.3164C58.5649 28.7805 58.4805 29.0653 58.4805 30.2676V31.375H55H51.5195V30.2676C51.5195 29.0653 51.4352 28.7805 50.95 28.3164C50.7285 28.116 50.5281 28.0528 50.0113 28.0211C48.7352 27.9578 48.2606 28.5906 48.25 30.3414V31.375H44.8223H41.3945V30.2887C41.3945 29.0547 41.2469 28.6434 40.6563 28.2321C40.1711 27.9051 39.3484 27.9051 38.8527 28.2426ZM38.125 35.7414C38.125 36.9332 38.2516 37.2707 38.8949 37.7453C39.3063 38.0406 40.2238 38.0406 40.6246 37.7453C41.2469 37.2813 41.3418 37.0387 41.3734 35.7942L41.4156 34.6446H44.8328H48.25V35.5305C48.25 36.7539 48.3238 37.0387 48.7879 37.5028C49.3363 38.0512 49.9586 38.1461 50.6441 37.7981C51.3613 37.4184 51.5195 37.0492 51.5195 35.7309V34.6446H55H58.4805V35.7309C58.4805 37.0492 58.6387 37.4184 59.3559 37.7981C60.0414 38.1461 60.6637 38.0512 61.2121 37.5028C61.6762 37.0387 61.75 36.7539 61.75 35.5305V34.6446H65.1672H68.5844L68.6266 35.7942C68.6582 37.0387 68.7531 37.2813 69.3754 37.7453C69.7762 38.0406 70.6938 38.0406 71.1051 37.7453C71.7484 37.2707 71.875 36.9332 71.875 35.7414V34.6446H74.3324C76.7688 34.6446 76.8004 34.6446 77.3383 34.9188C77.9289 35.2141 78.2981 35.6149 78.5934 36.2899C78.741 36.6274 78.7832 37.1336 78.8149 39.0953L78.857 41.5H55H31.143L31.1852 39.0953C31.2168 37.1336 31.259 36.6274 31.4066 36.2899C31.702 35.6149 32.0711 35.2141 32.6617 34.9188C33.1996 34.6446 33.2313 34.6446 35.6676 34.6446H38.125V35.7414ZM78.8149 60.7164L78.7832 76.6739L78.4774 77.2856C78.1609 77.9395 77.6441 78.4035 76.9586 78.6461C76.3785 78.8465 33.6215 78.8465 33.0414 78.6461C32.3559 78.4035 31.8391 77.9395 31.5227 77.2856L31.2168 76.6739L31.1852 60.7164L31.1641 44.7696H55H78.8359L78.8149 60.7164Z" fill="white"/>
<path d="M36.7117 50.043C36.543 50.0957 36.2898 50.2434 36.1527 50.3805C35.5938 50.8973 35.5938 50.9078 35.5938 55.0316C35.5938 58.8391 35.5938 58.8707 35.8363 59.2187C35.9629 59.4086 36.2055 59.6723 36.3637 59.7883C36.659 59.9992 36.775 60.0098 40.6035 60.0098C44.4215 60.0098 44.548 59.9992 44.8328 59.7883C44.991 59.6723 45.223 59.4402 45.3391 59.282C45.55 58.9973 45.5605 58.8707 45.5605 55C45.5605 51.1293 45.55 51.0027 45.3391 50.718C45.223 50.5598 44.991 50.3277 44.8328 50.2117C44.5586 50.0008 44.4004 49.9902 40.7828 49.9691C38.7156 49.9586 36.8805 49.9902 36.7117 50.043ZM42.3438 55V56.793H40.6035H38.8633V55V53.207H40.6035H42.3438V55Z" fill="white"/>
<path d="M65.4836 50.0535C65.0512 50.1801 64.5238 50.7812 64.4395 51.2242C64.4078 51.4141 64.3867 53.2387 64.4078 55.2848C64.4395 58.8391 64.45 59.0078 64.6609 59.282C64.777 59.4402 65.009 59.6723 65.1672 59.7883C65.452 59.9992 65.5785 60.0098 69.3965 60.0098C73.225 60.0098 73.341 59.9992 73.6363 59.7883C73.7945 59.6723 74.0371 59.4086 74.1742 59.2187C74.4063 58.8707 74.4063 58.8391 74.4063 55C74.4063 51.1609 74.4063 51.1293 74.1742 50.7812C74.0371 50.5914 73.7945 50.3277 73.6363 50.2117C73.3516 50.0008 73.2145 49.9902 69.5758 49.9691C67.477 49.9586 65.6629 49.9902 65.4836 50.0535ZM71.1367 55V56.793H69.3965H67.6563V55V53.207H69.3965H71.1367V55Z" fill="white"/>
<path d="M57.9004 51.1082C57.7844 51.1715 56.8246 52.0891 55.7699 53.1332L53.8398 55.0527L53.1859 54.4094C52.2578 53.5129 52.0891 53.418 51.4246 53.418C50.4121 53.418 49.8109 54.0086 49.8109 55C49.8109 55.2742 49.8848 55.6328 49.9691 55.8016C50.2012 56.234 52.7852 58.7652 53.1332 58.8918C53.5129 59.0395 54.0613 59.0395 54.441 58.9024C54.7891 58.7652 59.7883 53.8293 60.0309 53.3758C60.2629 52.9328 60.2418 52.0891 59.9887 51.741C59.493 51.0766 58.5121 50.7813 57.9004 51.1082Z" fill="white"/>
<path d="M36.448 63.7328C36.2477 63.8277 35.984 64.0492 35.868 64.2074C35.657 64.5027 35.6465 64.6293 35.6465 68.5527C35.6465 72.4762 35.657 72.6027 35.868 72.898C36.3426 73.552 36.427 73.5625 40.5824 73.5625C44.7695 73.5625 44.8539 73.552 45.3285 72.8875C45.5605 72.5605 45.5605 72.5289 45.5605 68.5527C45.5605 64.5766 45.5605 64.5449 45.3285 64.218C44.8539 63.5535 44.7695 63.543 40.5824 63.543C37.1969 63.543 36.7645 63.5641 36.448 63.7328ZM42.3438 68.5527V70.293H40.6035H38.8633V68.5527V66.8125H40.6035H42.3438V68.5527Z" fill="white"/>
<path d="M50.9395 63.6906C50.4648 63.9016 50.0641 64.4289 49.9902 64.9457C49.9586 65.1883 49.9375 66.9918 49.9586 68.943C49.9902 72.3496 50.0008 72.5078 50.2117 72.7926C50.3277 72.9508 50.5914 73.1934 50.7813 73.3305C51.1293 73.5625 51.1609 73.5625 55 73.5625C58.8391 73.5625 58.8707 73.5625 59.2188 73.3305C59.4086 73.1934 59.6723 72.9508 59.7883 72.7926C59.9992 72.4973 60.0098 72.3812 60.0098 68.5527C60.0098 64.7348 59.9992 64.6082 59.7883 64.3234C59.6723 64.1652 59.4402 63.9332 59.282 63.8172C59.0078 63.6062 58.8496 63.5957 55.1266 63.5746C52.068 63.5535 51.1926 63.5746 50.9395 63.6906ZM56.793 68.5527V70.293H55H53.207V68.5527V66.8125H55H56.793V68.5527Z" fill="white"/>
<path d="M65.2516 63.7223C65.0617 63.8172 64.798 64.0387 64.6715 64.218C64.4395 64.5449 64.4395 64.5871 64.4395 68.5527V72.5605L64.6926 72.9191C65.1461 73.552 65.2516 73.5625 69.4176 73.5625C73.573 73.5625 73.6574 73.552 74.132 72.898C74.343 72.6027 74.3535 72.4762 74.3535 68.5527C74.3535 64.6293 74.343 64.5027 74.132 64.2074C73.6574 63.5535 73.573 63.543 69.3965 63.543C66.1164 63.543 65.5574 63.5746 65.2516 63.7223ZM71.1367 68.5527V70.293H69.3965H67.6563V68.5527V66.8125H69.3965H71.1367V68.5527Z" fill="white"/>
</g>
<defs>
<clipPath id="clip0_3341_1187">
<rect width="54" height="54" fill="white" transform="translate(28 28)"/>
</clipPath>
</defs>
</svg>
