<svg width="110" height="109" viewBox="0 0 110 109" fill="none" xmlns="http://www.w3.org/2000/svg">
<path d="M30.0558 30.27C29.2463 30.6689 28.8356 31.103 28.4367 31.9595L28.1551 32.5461V39.0696V45.5931L28.5188 46.3088C28.9178 47.1183 29.3519 47.529 30.2084 47.9279L30.795 48.2095H55.1524H79.5097L80.2254 47.8458C81.035 47.4468 81.4456 47.0127 81.8445 46.1562L82.1261 45.5696V39.0579V32.5461L81.8445 31.9595C81.4456 31.103 81.035 30.6689 80.2254 30.27L79.5097 29.9063H55.1406H30.7715L30.0558 30.27ZM42.0937 36.5001C42.4926 36.899 42.2814 37.2041 40.0287 39.4451C37.647 41.8151 37.5179 41.8972 36.5793 41.7095C36.0278 41.6039 33.9042 39.4802 33.9042 39.0344C33.9042 38.6238 34.3618 38.2835 34.6903 38.4595C34.8076 38.5182 35.3239 38.9992 35.8401 39.5154C36.4033 40.0904 36.8726 40.4658 37.0134 40.4658C37.1659 40.4658 37.9872 39.7266 39.3013 38.4126C41.3897 36.3241 41.7065 36.1129 42.0937 36.5001ZM76.0251 38.5064C76.248 38.6238 76.3184 38.7411 76.3184 39.0579C76.3184 39.3747 76.248 39.492 76.0251 39.6093C75.5909 39.8322 46.8924 39.8322 46.4583 39.6093C46.2354 39.492 46.165 39.3747 46.165 39.0579C46.165 38.7411 46.2354 38.6238 46.4583 38.5064C46.693 38.3891 49.7905 38.3539 61.2417 38.3539C72.6929 38.3539 75.7904 38.3891 76.0251 38.5064Z" fill="white"/>
<path d="M39.4421 52.797C38.6325 53.1959 38.2219 53.63 37.823 54.4865C37.5531 55.0614 37.5414 55.1436 37.5414 58.7807V62.4883L37.9051 63.204C38.304 64.0136 38.7381 64.4242 39.5946 64.8231L40.1813 65.1047H59.8338H79.4862L80.0729 64.8231C80.9294 64.4242 81.3635 64.0136 81.7624 63.204L82.1261 62.4883V58.769V55.0497L81.7624 54.334C81.3635 53.5244 80.9294 53.1138 80.0729 52.7149L79.4862 52.4333H59.822H40.1578L39.4421 52.797ZM47.174 56.7158C47.9249 57.2437 48.2417 57.936 48.1948 58.9098C48.1479 59.8719 47.7372 60.5407 46.9276 60.9748C46.4818 61.2094 46.2706 61.2446 45.6136 61.2094C44.6515 61.1625 43.9827 60.7519 43.5486 59.9423C43.3139 59.4964 43.2787 59.2853 43.3139 58.6282C43.3609 57.6661 43.7715 56.9974 44.5811 56.5632C45.0269 56.3286 45.2381 56.2934 45.8952 56.3286C46.5405 56.3638 46.7751 56.4342 47.174 56.7158ZM76.0251 58.2176C76.248 58.3349 76.3184 58.4522 76.3184 58.769C76.3184 59.0858 76.248 59.2031 76.0251 59.3205C75.5909 59.5434 53.4628 59.5434 53.0287 59.3205C52.8058 59.2031 52.7354 59.0858 52.7354 58.769C52.7354 58.4522 52.8058 58.3349 53.0287 58.2176C53.4628 57.9946 75.5909 57.9946 76.0251 58.2176Z" fill="white"/>
<path d="M44.8861 57.9007C44.6397 58.1471 44.5811 58.3231 44.5811 58.769C44.5811 59.2148 44.6397 59.3908 44.8861 59.6372C45.1325 59.8836 45.3085 59.9423 45.7544 59.9423C46.2002 59.9423 46.3762 59.8836 46.6226 59.6372C47.0567 59.1914 47.0567 58.3466 46.6226 57.9007C46.3762 57.6544 46.2002 57.5957 45.7544 57.5957C45.3085 57.5957 45.1325 57.6544 44.8861 57.9007Z" fill="white"/>
<path d="M39.4421 69.6923C38.6325 70.0912 38.2219 70.5253 37.823 71.3818C37.5531 71.9567 37.5414 72.0388 37.5414 75.676V79.3836L37.9051 80.0993C38.304 80.9088 38.7381 81.3195 39.5946 81.7184L40.1813 82H59.8338H79.4862L80.0729 81.7184C80.9294 81.3195 81.3635 80.9088 81.7624 80.0993L82.1261 79.3836V75.6643V71.945L81.7624 71.2293C81.3635 70.4197 80.9294 70.0091 80.0729 69.6101L79.4862 69.3285H59.822H40.1578L39.4421 69.6923ZM47.174 73.611C47.9249 74.139 48.2417 74.8312 48.1948 75.8051C48.1479 76.7672 47.7372 77.4359 46.9276 77.87C46.4818 78.1047 46.2706 78.1399 45.6136 78.1047C44.6515 78.0578 43.9827 77.6471 43.5486 76.8376C43.3139 76.3917 43.2787 76.1805 43.3139 75.5235C43.3609 74.5614 43.7715 73.8926 44.5811 73.4585C45.0269 73.2238 45.2381 73.1886 45.8952 73.2238C46.5405 73.259 46.7751 73.3294 47.174 73.611ZM76.0251 75.1128C76.248 75.2302 76.3184 75.3475 76.3184 75.6643C76.3184 75.9811 76.248 76.0984 76.0251 76.2157C75.5909 76.4386 53.4628 76.4386 53.0287 76.2157C52.8058 76.0984 52.7354 75.9811 52.7354 75.6643C52.7354 75.3475 52.8058 75.2302 53.0287 75.1128C53.4628 74.8899 75.5909 74.8899 76.0251 75.1128Z" fill="white"/>
<path d="M44.8861 74.7961C44.6397 75.0425 44.5811 75.2185 44.5811 75.6643C44.5811 76.4387 44.98 76.8376 45.7544 76.8376C46.2002 76.8376 46.3762 76.7789 46.6226 76.5325C47.0567 76.0867 47.0567 75.2419 46.6226 74.7961C46.3762 74.5497 46.2002 74.491 45.7544 74.491C45.3085 74.491 45.1325 74.5497 44.8861 74.7961Z" fill="white"/>
</svg>
