<svg width="24" height="24" viewBox="0 0 24 24" fill="none" xmlns="http://www.w3.org/2000/svg">
<path d="M12.2594 2.81244V5.62494H9.44687H6.63437V7.07806V8.53119L6.76562 8.55931C8.74374 8.99525 10.0984 10.2234 10.6469 12.0749C10.7969 12.5906 10.8531 13.5937 10.7594 14.1234C10.6797 14.5828 10.4969 15.1499 10.3141 15.5156C9.97656 16.1812 9.32968 16.9359 8.78593 17.3062C8.65937 17.3906 8.55624 17.4749 8.55624 17.489C8.55624 17.5031 8.64531 17.5593 8.75312 17.6062C9.03906 17.7328 9.60156 18.1078 10.0047 18.4359C10.6375 18.9515 11.3125 19.8703 11.6734 20.6999L11.8328 21.0703L17.6734 21.0843L23.5094 21.0937V10.5468V-6.18733e-05H17.8844H12.2594V2.81244ZM17.8844 3.59994V4.38275L18.1187 4.49056C18.6672 4.74369 19.1781 5.46088 19.2297 6.0515L19.2578 6.32806H18.5687H17.8844V6.19681C17.8844 5.88275 17.5656 5.62494 17.1812 5.62494C16.7359 5.62494 16.4781 5.88275 16.4781 6.32338C16.4781 6.79681 16.7078 7.00306 17.3219 7.07338C17.9734 7.14838 18.4469 7.40619 18.8219 7.87963C19.1266 8.26869 19.2203 8.564 19.2203 9.164C19.2203 9.65619 19.2109 9.69369 19.0609 10.0078C18.8687 10.4015 18.4609 10.8187 18.1187 10.9781L17.8844 11.0859V11.8687V12.6562H17.1812H16.4781V11.8687V11.0859L16.2437 10.9781C15.6953 10.7249 15.1844 10.0078 15.1328 9.41713L15.1047 9.14056H15.7937H16.4781V9.26713C16.4781 9.58588 16.7969 9.84369 17.1812 9.84369C17.6266 9.84369 17.8844 9.58588 17.8844 9.14525C17.8844 8.67181 17.6547 8.46556 17.0406 8.39525C16.3891 8.32025 15.9156 8.06244 15.5406 7.589C15.2359 7.19994 15.1422 6.90463 15.1422 6.30463C15.1422 5.81244 15.1516 5.77494 15.3016 5.46088C15.4937 5.06713 15.9016 4.64994 16.2437 4.49056L16.4781 4.38275V3.59994V2.81244H17.1812H17.8844V3.59994ZM20.6969 14.7656V15.4687H16.4781H12.2594V14.7656V14.0624H16.4781H20.6969V14.7656ZM20.6969 17.5781V18.2812H16.4781H12.2594V17.5781V16.8749H16.4781H20.6969V17.5781Z" fill="white"/>
<path d="M8.90781 2.29687L6.98593 4.21875H8.92187H10.8531V2.29687C10.8531 1.2375 10.8484 0.375 10.8391 0.375C10.8344 0.375 9.96249 1.2375 8.90781 2.29687Z" fill="white"/>
<path d="M5.04062 9.93756C4.84843 9.98912 4.51093 10.1204 4.29062 10.2282C3.96718 10.3876 3.80781 10.5094 3.44687 10.8751C3.08124 11.236 2.95937 11.3954 2.79999 11.7188C2.52343 12.2719 2.41562 12.7407 2.41562 13.3594C2.41562 13.9782 2.52343 14.4469 2.79999 15.0001C2.95937 15.3235 3.08124 15.4829 3.44687 15.8438C3.80781 16.2094 3.96718 16.3313 4.29062 16.4907C4.84374 16.7672 5.31249 16.8751 5.93124 16.8751C6.54999 16.8751 7.01874 16.7672 7.57187 16.4907C7.89531 16.3313 8.05468 16.2094 8.41562 15.8438C8.78124 15.4829 8.90312 15.3235 9.06249 15.0001C9.33906 14.4469 9.44687 13.9782 9.44687 13.3594C9.44687 12.7407 9.33906 12.2719 9.06249 11.7188C8.90312 11.3954 8.78124 11.236 8.41562 10.8751C8.05468 10.5094 7.89531 10.3876 7.57187 10.2282C7.35156 10.1204 7.00468 9.98912 6.80312 9.93756C6.30624 9.811 5.52812 9.81569 5.04062 9.93756Z" fill="white"/>
<path d="M5.18125 18.3094C4.13125 18.5063 3.2875 18.9328 2.56094 19.6172C2.09687 20.0578 1.79687 20.4609 1.52031 21.0234C1.14062 21.8016 1.04687 22.1906 1.02344 23.1703L1 24H5.93125H10.8625L10.8391 23.1656C10.8203 22.4484 10.8016 22.2797 10.6937 21.9141C10.1875 20.1797 8.88437 18.8906 7.15469 18.4172C6.87812 18.3375 6.63437 18.3141 6.04844 18.3047C5.63594 18.2953 5.24687 18.3 5.18125 18.3094Z" fill="white"/>
</svg>
