<svg width="110" height="109" viewBox="0 0 110 109" fill="none" xmlns="http://www.w3.org/2000/svg">
<path d="M44.7976 21.0268C40.7536 21.6174 37.3259 22.9012 34.3089 24.9553C29.0967 28.4986 25.5662 33.852 24.2953 40.0913C24.0385 41.3879 24 41.9143 24 44.636C24.0128 47.486 24.0385 47.8326 24.3466 49.3347C25.9385 56.7294 30.6244 62.7376 37.313 65.9471C39.8164 67.141 42.7178 67.9626 45.1314 68.1552L46.1456 68.2322V61.7619C46.1456 57.9618 46.2098 55.0604 46.274 54.7395C46.7361 52.7624 48.2639 51.3246 50.2538 51.0036C50.7159 50.9266 52.1538 50.8624 53.4504 50.8624H55.8126L55.5045 50.5286C54.6572 49.6043 52.8214 48.5644 51.024 47.961C49.997 47.6272 49.8044 47.6015 47.6861 47.5887C45.1571 47.5887 44.5793 47.7042 42.7307 48.5516C40.7023 49.4887 39.0462 50.8881 37.8651 52.6597C37.2232 53.6354 36.4529 55.3044 36.3117 56.0618C36.2731 56.3057 36.1833 56.5368 36.1319 56.5753C36.0164 56.6523 34.8866 55.3814 34.0522 54.2388C32.7299 52.4415 31.5744 49.6171 31.1765 47.2036C30.8555 45.2265 30.9839 42.5305 31.4974 40.5278C31.9596 38.7048 33.1663 36.15 34.2319 34.7507C36.838 31.2716 40.7151 28.9094 44.9773 28.2033C46.9929 27.8567 49.7017 27.985 51.7173 28.5114C58.1363 30.1675 62.9762 35.4953 64.0675 42.1069C64.4526 44.4562 64.1573 47.7171 63.3614 50.0151C63.2073 50.4387 63.0918 50.7982 63.0918 50.8239C63.0918 50.8367 64.7607 50.8624 66.802 50.8624H70.4993L70.6534 50.1178C71.2439 47.3448 71.4108 44.867 71.1926 42.5177C70.1784 31.875 62.7066 23.5559 52.1795 21.3221C51.0625 21.091 50.3436 21.0397 48.0071 21.014C46.4537 20.9883 45.0158 21.0012 44.7976 21.0268Z" fill="white"/>
<path d="M45.6321 34.725C41.2415 36.2142 40.2658 42.0427 43.8989 44.9954C44.9645 45.8427 45.799 46.138 47.3652 46.215C48.8673 46.2792 49.8301 46.0225 50.9855 45.2522C54.4133 42.9799 54.4133 37.6906 50.9855 35.4183C49.4578 34.4041 47.3652 34.1345 45.6321 34.725Z" fill="white"/>
<path d="M49.676 53.1347C49.1112 53.43 48.726 53.8151 48.4179 54.3928L48.1355 54.9064V66.4606C48.1355 77.4884 48.1483 78.0405 48.3794 78.4641C48.7132 79.0932 49.0855 79.4783 49.6375 79.7608C50.0997 79.9919 50.6517 80.0047 66.9817 80.0047H83.8508L84.4157 79.7094C84.7238 79.5425 85.1603 79.1574 85.3657 78.8621L85.7509 78.3101V66.4606V54.6111L85.3657 54.0591C85.1603 53.7638 84.7238 53.3786 84.4157 53.2118L83.8508 52.9165H66.956C51.8071 52.9293 50.0227 52.9422 49.676 53.1347ZM61.3843 57.3841C61.5255 57.4611 61.7951 57.7051 61.9749 57.9233L62.2958 58.3084L71.6676 58.3341L81.0393 58.3726L81.3731 58.6807C81.5657 58.8605 81.7069 59.1301 81.7069 59.3355C81.7069 59.5409 81.5657 59.8105 81.3731 59.9902L81.0393 60.2983L71.6676 60.3369L62.2958 60.3625L61.9749 60.7605C61.5255 61.2869 61.0248 61.518 60.3316 61.518C59.5998 61.518 58.9194 61.2098 58.5599 60.722L58.2903 60.3625H55.8126C53.9383 60.3625 53.2193 60.3112 52.8855 60.1828C52.4105 59.9774 52.218 59.5666 52.3592 59.0017C52.5132 58.424 53.0524 58.3084 55.7741 58.3084H58.2133L58.714 57.8078C59.4458 57.076 60.4985 56.9091 61.3843 57.3841ZM74.2223 64.4835C74.5176 64.6248 74.8899 64.92 75.044 65.1254L75.3007 65.4977H78.1893H81.0778L81.3859 65.8187C81.5657 65.9856 81.7069 66.2809 81.7069 66.4606C81.7069 66.6403 81.5657 66.9356 81.3859 67.1025L81.0778 67.4234H78.1893H75.3007L75.044 67.7957C74.7102 68.2579 73.8243 68.7072 73.2466 68.7072C72.6689 68.7072 72.027 68.3863 71.5649 67.8599L71.1926 67.4234H62.0904C53.0781 67.4234 52.9754 67.4234 52.6416 67.1538C52.1794 66.7944 52.1794 66.1268 52.6416 65.7673C52.9754 65.4977 53.0781 65.4977 62.0904 65.4977H71.1926L71.6034 65.0356C72.3351 64.1883 73.2338 64.0085 74.2223 64.4835ZM65.7492 71.6343C65.8904 71.7113 66.16 71.9553 66.3398 72.1735L66.6607 72.5586L73.85 72.5843L81.0393 72.6228L81.3731 72.931C81.5657 73.1107 81.7069 73.3803 81.7069 73.5857C81.7069 73.7911 81.5657 74.0607 81.3731 74.2404L81.0393 74.5485L73.85 74.5871L66.6607 74.6127L66.3398 75.0107C65.9033 75.5242 65.3513 75.7938 64.6965 75.7938C64.0418 75.7938 63.2073 75.3959 62.912 74.9465L62.7066 74.6127H58.0079C52.8855 74.6127 52.5261 74.5742 52.3592 73.9195C52.218 73.3546 52.4105 72.9438 52.8855 72.7384C53.245 72.5972 54.2335 72.5586 58.0079 72.5586H62.7066L62.912 72.2249C63.4384 71.4289 64.8121 71.1336 65.7492 71.6343Z" fill="white"/>
</svg>
